<svg xmlns="http://www.w3.org/2000/svg" viewBox="0 0 32 32" fill="currentColor" aria-hidden="true">
  <path d="M31 27a1 1 0 01-1 1H12a1 1 0 110-2h18a1 1 0 011 1zm-3-3.5a.5.5 0 00.5-.5v-4.462a4.511 4.511 0 00-3.3-4.338l-5.862-1.625-3.9-6.825a.537.537 0 00-.275-.225l-1.688-.562a1.487 1.487 0 00-1.35.212 1.45 1.45 0 00-.625 1.213v3.937l-3.15-.987-1.912-3.575a.513.513 0 00-.275-.238l-1.688-.562a1.487 1.487 0 00-1.35.212A1.45 1.45 0 002.5 6.388v6.575A4.512 4.512 0 005.788 17.3l22.075 6.188.137.012z"/>
</svg>
