<svg xmlns="http://www.w3.org/2000/svg" viewBox="0 0 32 32" fill="currentColor" aria-hidden="true">
  <path d="M30.025 17v4a.976.976 0 01-.752.968.987.987 0 01-.435.007l-8.813-1.75v3.362l1.688 1.713A.988.988 0 0122 26v3a.988.988 0 01-.437.825A1.025 1.025 0 0121 30a.999.999 0 01-.375-.075L16 28.075l-4.625 1.85A1 1 0 0110 29v-3a1.012 1.012 0 01.288-.712l1.712-1.7v-3.363l-8.8 1.75A.987.987 0 012 21v-4a1.025 1.025 0 01.55-.9L12 11.375V6a4 4 0 118 0v5.375l9.45 4.725a1.025 1.025 0 01.575.9z"/>
</svg>
