<svg xmlns="http://www.w3.org/2000/svg" viewBox="0 0 32 32" fill="currentColor" aria-hidden="true">
  <path d="M26.876 10.775l-3.725 3.5 3.775 10.388a1 1 0 01-.237 1.05l-3 3a1.025 1.025 0 01-.8.287 1.01 1.01 0 01-.725-.438l-5.325-7.787-2.35 2.163V25.5c-.003.268-.111.523-.3.712l-2.5 2.5a.988.988 0 01-.7.288l-.225-.025a1 1 0 01-.725-.65l-1.613-4.762-4.762-1.613a1 1 0 01-.636-1.226c.046-.164.131-.314.248-.436l2.5-2.5c.19-.186.447-.29.713-.288h2.587l2.338-2.35-7.988-5.312A1.088 1.088 0 012.99 9.1a1.025 1.025 0 01.287-.812l3-3a.988.988 0 011.05-.225l10.388 3.775 3.325-3.525a.647.647 0 01.125-.138 4 4 0 015.875 5.413.798.798 0 01-.163.187z"/>
</svg>
