<svg xmlns="http://www.w3.org/2000/svg" viewBox="0 0 32 32" fill="currentColor" aria-hidden="true">
  <path d="M29.436 6.812l-4.25-4.25a1 1 0 10-1.412 1.413l4.25 4.25a1 1 0 00.7.287c.265 0 .52-.104.712-.287a1 1 0 000-1.413zM8.224 2.563a1 1 0 00-1.412 0l-4.25 4.25a1 1 0 000 1.412c.192.184.447.286.712.288a1 1 0 00.7-.288l4.25-4.25a1 1 0 000-1.412zM28 15.65a1.843 1.843 0 01-.012-.263A12 12 0 0016.625 4.012h-1.25A12 12 0 004.012 15.375c.003.088-.002.175-.012.262v.7c.01.087.015.175.013.263a12 12 0 0011.362 11.387h1.25a12 12 0 0011.363-11.362 1.841 1.841 0 01.012-.262v-.713zM23 17h-7a1 1 0 01-1-1V9a1 1 0 012 0v6h6a1 1 0 110 2z"/>
</svg>
