<svg xmlns="http://www.w3.org/2000/svg" viewBox="0 0 32 32" fill="currentColor" aria-hidden="true">
  <path d="M16 2A12.025 12.025 0 004 14c0 3 1.575 6.887 4.2 10.375C10.825 27.863 13.763 30 16 30c2.238 0 5.15-2.1 7.8-5.625C26.45 20.85 28 17 28 14A12.025 12.025 0 0016 2zM8 14.5V14a1.5 1.5 0 011.5-1.5A4.5 4.5 0 0114 17v.5a1.5 1.5 0 01-1.5 1.5A4.5 4.5 0 018 14.5zM18 25h-4a1 1 0 010-2h4a1 1 0 010 2zm6-10.5a4.501 4.501 0 01-4.5 4.5 1.5 1.5 0 01-1.5-1.5V17a4.5 4.5 0 014.5-4.5A1.5 1.5 0 0124 14v.5z"/>
</svg>
