<svg xmlns="http://www.w3.org/2000/svg" viewBox="0 0 32 32" fill="currentColor" aria-hidden="true">
  <path d="M28.388 8.075l-12-5c-.249-.1-.527-.1-.775 0l-12 5a1.012 1.012 0 00-.6 1.063l2 15a1.012 1.012 0 00.537.762l10 5a1.064 1.064 0 00.9 0l10-5a1.012 1.012 0 00.538-.762l2-15a1.013 1.013 0 00-.6-1.063zM20.95 20.9a1.175 1.175 0 01-.45.1 1.012 1.012 0 01-.9-.55l-1.05-2.112h-5.1L12.4 20.45a1.006 1.006 0 11-1.8-.9l4.5-9a1.012 1.012 0 011.8 0l4.5 9a1.024 1.024 0 01-.45 1.35zM16 13.238l1.55 3.1h-3.1l1.55-3.1z"/>
</svg>
