<svg xmlns="http://www.w3.org/2000/svg" viewBox="0 0 32 32" fill="currentColor" aria-hidden="true">
  <path d="M29 16A13.012 13.012 0 0016 3 13.012 13.012 0 003 16a13.012 13.012 0 0013 13h.012A13.013 13.013 0 0029 16zM6.15 11.113l6.4 1.175-6.713 7.9a11 11 0 01.313-9.075zm20.013.7a11 11 0 01-.313 9.074l-6.4-1.175 6.713-7.9zm-1-1.9l-4.213 4.962-3.5-9.775a10.85 10.85 0 016.325 3.125c.517.515.982 1.08 1.388 1.688zM15.3 5.024l2.188 6.125-10.2-1.863c.291-.371.604-.726.937-1.062a10.888 10.888 0 017.075-3.2zM6.837 22.088l4.213-4.963 3.5 9.775a10.85 10.85 0 01-6.325-3.125 11.06 11.06 0 01-1.387-1.688zm9.863 4.887l-2.188-6.125 2.875.525h.013l7.313 1.337c-.293.372-.605.727-.938 1.063a10.887 10.887 0 01-7.075 3.2z"/>
</svg>
