<svg xmlns="http://www.w3.org/2000/svg" viewBox="0 0 32 32" fill="currentColor" aria-hidden="true">
  <path d="M16 18a3.5 3.5 0 113.5-3.5A3.513 3.513 0 0116 18zm1.562 0h-3.125a2.487 2.487 0 00-1.925.913 2.451 2.451 0 00-.525 2.075l1.2 6A2.512 2.512 0 0015.637 29h.725a2.513 2.513 0 002.45-2.012l1.2-6a2.45 2.45 0 00-.525-2.075A2.486 2.486 0 0017.562 18zm4.963.538a1 1 0 001.862.724A8.836 8.836 0 0025 16a9 9 0 00-18 0 8.788 8.788 0 00.612 3.262 1 1 0 00.925.638.899.899 0 00.363-.075 1 1 0 00.575-1.287 7 7 0 1113.05 0zM16 3a13 13 0 00-7 23.962 1.004 1.004 0 001.087-1.687 11 11 0 1111.825 0 1 1 0 00.55 1.838 1.1 1.1 0 00.538-.15A13 13 0 0016 3z"/>
</svg>
