<svg xmlns="http://www.w3.org/2000/svg" viewBox="0 0 32 32" fill="currentColor" aria-hidden="true">
  <path d="M8.037 25.513l-1.175 2A1.013 1.013 0 016 28a1.088 1.088 0 01-.513-.137 1.013 1.013 0 01-.35-1.375l1.188-2a1 1 0 111.712 1.025zM29 20h-5.975l-3.837-6.5a1 1 0 00-1.375-.35.987.987 0 00-.35 1.363l7.674 13A1.013 1.013 0 0026 28c.18-.003.356-.05.512-.137a1.012 1.012 0 00.35-1.375L24.213 22H29a1 1 0 000-2zm-11.188 0H11.3l5.55-9.4h.012l3-5.075A1.004 1.004 0 0018.139 4.5L16 8.113l-2.137-3.625a1.004 1.004 0 00-1.726 1.025l2.7 4.562L8.976 20H3a1 1 0 000 2h14.813a1 1 0 000-2z"/>
</svg>
