<svg xmlns="http://www.w3.org/2000/svg" viewBox="0 0 32 32" fill="currentColor" aria-hidden="true">
  <path d="M26 4H6a2 2 0 00-2 2v20a2 2 0 002 2h20a2 2 0 002-2V6a2 2 0 00-2-2zM11.05 14.05a1 1 0 011.412 0L15 16.587V9a1 1 0 012 0v7.587l2.538-2.537a1 1 0 011.412 1.412l-4.238 4.25h-.024l-.05.05h-.026l-.062.038c0 .012-.012.012-.012.025l-.063.038h-.025l-.063.037h-.012l-.087.038h-.575l-.088-.038h-.012l-.063-.037h-.025l-.063-.038c0-.012-.012-.012-.012-.025l-.063-.038h-.024l-.05-.05h-.026l-4.237-4.25a1 1 0 010-1.412zM26 26H6v-5h3.588L12 23.413a1.987 1.987 0 001.412.587h5.175A1.988 1.988 0 0020 23.413L22.413 21H26v5z"/>
</svg>
