<svg xmlns="http://www.w3.org/2000/svg" viewBox="0 0 32 32" fill="currentColor" aria-hidden="true">
  <path d="M9.975 13.463h-6a1 1 0 01-1-1v-6a1.025 1.025 0 01.625-.926 1 1 0 011.087.225L6.975 8.05l.537-.538a12.025 12.025 0 0116.975 0 1 1 0 010 1.413.988.988 0 01-1.412 0 10.025 10.025 0 00-14.15 0l-.538.537 2.3 2.3a1 1 0 01-.712 1.7zm18.05 5.075h-6a1 1 0 00-.713 1.7l2.3 2.3-.537.537a10.025 10.025 0 01-14.15 0 .989.989 0 00-1.413 0 1 1 0 000 1.413 12.013 12.013 0 0016.975 0l.538-.538 2.287 2.288a.975.975 0 00.713.3 1 1 0 00.824-.445c.111-.165.172-.357.176-.555v-6a1 1 0 00-1-1z"/>
</svg>
