<svg xmlns="http://www.w3.org/2000/svg" viewBox="0 0 32 32" fill="currentColor" aria-hidden="true">
  <path d="M18 13V8a1 1 0 01.612-.925 1.05 1.05 0 011.1.212l1.788 1.8 3.787-3.8a1.012 1.012 0 011.425 1.425l-3.8 3.788 1.8 1.787a1.05 1.05 0 01.213 1.1A1 1 0 0124 14h-5a1 1 0 01-1-1zm-5 5H8a1 1 0 00-.925.613 1.05 1.05 0 00.212 1.1l1.8 1.787-3.8 3.788a1.012 1.012 0 000 1.424 1.025 1.025 0 001.425 0l3.788-3.8 1.787 1.8a1.038 1.038 0 001.1.213A1 1 0 0014 24v-5a1 1 0 00-1-1zm9.912 3.5l1.8-1.788a1.05 1.05 0 00.213-1.1A1 1 0 0024 18h-5a1 1 0 00-1 1v5a1 1 0 00.612.925 1.038 1.038 0 001.1-.213l1.788-1.8 3.787 3.8a1.025 1.025 0 001.425 0 1.013 1.013 0 000-1.424l-3.8-3.788zM13.387 7.075a1.05 1.05 0 00-1.1.212l-1.787 1.8-3.788-3.8a1.013 1.013 0 00-1.425 1.425l3.8 3.788-1.8 1.787a1.05 1.05 0 00-.212 1.1A1 1 0 008 14h5a1 1 0 001-1V8a1 1 0 00-.613-.925z"/>
</svg>
