<svg xmlns="http://www.w3.org/2000/svg" viewBox="0 0 32 32" fill="currentColor" aria-hidden="true">
  <path d="M27 6v5a1 1 0 01-.613.925 1.037 1.037 0 01-1.1-.213l-1.787-1.8-3.788 3.8a1.025 1.025 0 01-1.424 0 1.012 1.012 0 010-1.425l3.8-3.787-1.8-1.787a1.05 1.05 0 01-.213-1.1A1 1 0 0121 5h5a1 1 0 011 1zM12.287 18.288l-3.787 3.8-1.787-1.8a1.05 1.05 0 00-1.1-.213A1 1 0 005 21v5a1 1 0 001 1h5a1 1 0 00.925-.613 1.05 1.05 0 00-.213-1.1l-1.8-1.787 3.8-3.788a1.012 1.012 0 00-1.425-1.424zm14.1 1.787a1.05 1.05 0 00-1.1.213l-1.787 1.8-3.788-3.8a1.012 1.012 0 00-1.424 1.424l3.8 3.788-1.8 1.788a1.05 1.05 0 00-.213 1.1A1 1 0 0021 27h5a1 1 0 001-1v-5a1 1 0 00-.613-.925zM9.913 8.5l1.8-1.787a1.05 1.05 0 00.212-1.1A1 1 0 0011 5H6a1 1 0 00-1 1v5a1 1 0 00.613.925 1.037 1.037 0 001.1-.213l1.787-1.8 3.787 3.8a1.025 1.025 0 001.425 0 1.012 1.012 0 000-1.425L9.913 8.5z"/>
</svg>
