<svg xmlns="http://www.w3.org/2000/svg" viewBox="0 0 32 32" fill="currentColor" aria-hidden="true">
  <path d="M29.025 6.462v6a1 1 0 01-1 1h-6a1 1 0 01-.713-1.7l2.3-2.3-.537-.537a10.025 10.025 0 00-14.15 0 .988.988 0 01-1.413 0 1 1 0 010-1.413 12.025 12.025 0 0116.975 0l.538.538 2.287-2.288a1 1 0 011.088-.225 1.025 1.025 0 01.625.925zm-5.95 16.613a10.025 10.025 0 01-14.15 0l-.538-.537 2.3-2.3a1 1 0 00-.712-1.7h-6a1 1 0 00-1 1v6a1.025 1.025 0 00.625.924 1 1 0 00.762 0 .976.976 0 00.325-.224l2.288-2.288.537.538a12.013 12.013 0 0016.975 0 1 1 0 000-1.413.989.989 0 00-1.412 0z"/>
</svg>
