<svg xmlns="http://www.w3.org/2000/svg" viewBox="0 0 32 32" fill="currentColor" aria-hidden="true">
  <path d="M20.462 25.087a1.014 1.014 0 01-.225 1.088l-3.525 3.537a1.025 1.025 0 01-1.425 0l-3.525-3.537a1 1 0 01.7-1.713H15V20a1 1 0 112 0v4.462h2.537a1.025 1.025 0 01.925.625zm-8-17.55H15V12a1 1 0 102 0V7.538h2.537a1 1 0 00.7-1.713l-3.525-3.537a1.025 1.025 0 00-1.425 0l-3.525 3.537a1 1 0 00.7 1.713zM12 17a1 1 0 100-2H7.537v-2.537a1 1 0 00-1.712-.7l-3.538 3.524a1.013 1.013 0 000 1.425l3.538 3.526a1 1 0 00.712.3.96.96 0 00.375-.076 1.025 1.025 0 00.625-.924V17H12zm17.712-1.713l-3.537-3.525a1 1 0 00-1.713.7V15H20a1 1 0 100 2h4.462v2.538a1.025 1.025 0 00.625.924 1 1 0 001.088-.225l3.537-3.525a1.013 1.013 0 000-1.425z"/>
</svg>
