<svg xmlns="http://www.w3.org/2000/svg" viewBox="0 0 32 32" fill="currentColor" aria-hidden="true">
  <path d="M20.238 22.825a1 1 0 01-.7 1.713H17V29a1 1 0 01-2 0v-4.462h-2.537a1 1 0 01-.7-1.713l3.524-3.537a1.012 1.012 0 011.425 0l3.526 3.537zm-4.95-10.112a1.025 1.025 0 001.424 0l3.526-3.538a1 1 0 00-.7-1.713H17V3a1 1 0 00-2 0v4.463h-2.537a1 1 0 00-.7 1.712l3.524 3.537zm-2.575 2.575l-3.538-3.526a1 1 0 00-1.713.7V15H3a1 1 0 000 2h4.463v2.538a1.025 1.025 0 00.625.924c.118.05.246.076.375.076a1 1 0 00.712-.3l3.537-3.526a1.012 1.012 0 000-1.425zM29 15h-4.462v-2.537a1 1 0 00-1.713-.7l-3.537 3.524a1.012 1.012 0 000 1.425l3.537 3.526a1 1 0 001.088.224 1.026 1.026 0 00.625-.924V17H29a1 1 0 000-2z"/>
</svg>
