<svg xmlns="http://www.w3.org/2000/svg" viewBox="0 0 32 32" fill="currentColor" aria-hidden="true">
  <path d="M19 13a1 1 0 011-1h10a1 1 0 010 2H20a1 1 0 01-1-1zm11 3H20a1 1 0 000 2h10a1 1 0 100-2zm0 4H20a1 1 0 000 2h10a1 1 0 000-2zm0 4H9a1 1 0 000 2h21a1 1 0 000-2zM9.987 22A6.987 6.987 0 013.8 11.738 3.5 3.5 0 015.987 5.5c.19 0 .376.051.538.15l7.725 4.825a1.5 1.5 0 00-.263-2.975 1 1 0 010-2 3.5 3.5 0 110 7 .988.988 0 01-.525-.15l-3.75-2.338a5 5 0 00-.725 9.888v-5.587a1 1 0 011-1 1 1 0 011 1V19.9a5 5 0 003.863-3.688.99.99 0 011.2-.724 1 1 0 01.737 1.2A7 7 0 019.987 22zm-5-11.887a7.037 7.037 0 012.35-1.588l-1.6-1a1.5 1.5 0 00-1.12 2.085c.086.192.212.363.37.503z"/>
</svg>
