<svg xmlns="http://www.w3.org/2000/svg" viewBox="0 0 32 32" fill="currentColor" aria-hidden="true">
  <path d="M16 3A13.012 13.012 0 003.011 16.512C3.274 23.35 8.887 28.862 15.737 29a13 13 0 0011.425-6.35.5.5 0 00-.513-.75c-.38.067-.764.1-1.15.1-2.287 0-3.562-1-4.237-1.837a5.473 5.473 0 01-.425-.625A6 6 0 1115.999 10a5.925 5.925 0 014 1.537v-.5A1.025 1.025 0 0120.937 10a1 1 0 011.062 1v5c0 1.825.613 4 3.5 4 2.888 0 3.45-2.025 3.5-3.813V16A13.012 13.012 0 0016 3z"/>
  <path d="M16 20a4 4 0 100-8 4 4 0 000 8z"/>
</svg>
