<svg xmlns="http://www.w3.org/2000/svg" viewBox="0 0 32 32" fill="currentColor" aria-hidden="true">
  <path d="M24.512 16a24.42 24.42 0 002.4-4.088c1.387-3.075 1.4-5.525.05-6.875-2.188-2.175-6.65-.612-10.963 2.463-4.312-3.075-8.775-4.638-10.962-2.463-1.35 1.35-1.338 3.8.05 6.875A24.409 24.409 0 007.487 16a24.417 24.417 0 00-2.4 4.087c-1.388 3.075-1.4 5.525-.05 6.875.7.7 1.637 1.013 2.737 1.013 2.3 0 5.3-1.388 8.225-3.475 2.925 2.087 5.925 3.475 8.225 3.475 1.1 0 2.038-.313 2.738-1.013 1.35-1.35 1.337-3.8-.05-6.875a24.428 24.428 0 00-2.4-4.087zm-.288-9.963c.6 0 1.05.138 1.325.413.7.712.525 2.437-.462 4.637a21.214 21.214 0 01-1.85 3.238 40.366 40.366 0 00-2.638-2.925 36.084 36.084 0 00-2.937-2.638c2.737-1.862 5.087-2.725 6.562-2.725zM22.012 16a34.677 34.677 0 01-2.825 3.187 39.251 39.251 0 01-3.188 2.838 39.218 39.218 0 01-3.187-2.838A34.655 34.655 0 019.987 16a34.655 34.655 0 012.825-3.188 39.248 39.248 0 013.187-2.837 39.281 39.281 0 013.188 2.837A34.677 34.677 0 0122.012 16zm-15.1-4.913c-.988-2.2-1.163-3.925-.463-4.637.275-.275.725-.413 1.325-.413 1.475 0 3.825.863 6.563 2.725-1.013.825-2 1.713-2.938 2.638a35.94 35.94 0 00-2.637 2.925 21.209 21.209 0 01-1.85-3.238zM6.449 25.55c-.7-.713-.525-2.438.463-4.638a21.218 21.218 0 011.85-3.237c.8.987 1.687 1.962 2.637 2.925.95.962 1.925 1.812 2.938 2.637-3.85 2.613-6.938 3.263-7.888 2.313zm19.1 0c-.275.275-.725.412-1.325.412-1.475 0-3.825-.862-6.562-2.725 1.012-.825 2-1.712 2.937-2.637a35.94 35.94 0 002.638-2.925 21.223 21.223 0 011.85 3.237c.987 2.2 1.162 3.925.462 4.638zM17.5 16a1.5 1.5 0 11-3 0 1.5 1.5 0 013 0z"/>
</svg>
