<svg xmlns="http://www.w3.org/2000/svg" viewBox="0 0 32 32" fill="currentColor" aria-hidden="true">
  <path d="M16.774 3.025a.488.488 0 00-.45.225C15.037 5.2 15 6.987 15 7a.99.99 0 001.213.975c.462-.088.775-.525.787-1A1.013 1.013 0 0118.1 6a1.025 1.025 0 01.9 1.037 3.001 3.001 0 01-5.134 2.09A3 3 0 0112.999 7c0-.075.013-1.35.675-3a.5.5 0 00-.575-.675A13.012 13.012 0 003.012 16.462C3.249 23.35 8.899 28.887 15.787 29a13 13 0 00.987-25.975zM10 16a1.5 1.5 0 113 0 1.5 1.5 0 01-3 0zm9.875 5.837a7.037 7.037 0 01-7.75 0 1.012 1.012 0 010-1.666 1 1 0 011.113-.009 4.974 4.974 0 005.525 0 1.002 1.002 0 011.532 1.038c-.051.259-.202.488-.42.637zM20.5 17.5a1.499 1.499 0 110-2.998 1.499 1.499 0 010 2.998z"/>
</svg>
