<svg xmlns="http://www.w3.org/2000/svg" viewBox="0 0 32 32" fill="currentColor" aria-hidden="true">
  <path d="M27 5H8.562a2.025 2.025 0 00-1.712.975l-5.713 9.513a1 1 0 000 1.024l5.713 9.513A2.012 2.012 0 008.562 27H27a2 2 0 002-2V7a2 2 0 00-2-2zm-6.288 13.288a1.012 1.012 0 010 1.424A1.062 1.062 0 0120 20a1.037 1.037 0 01-.713-.288L17 17.412l-2.288 2.3A1.062 1.062 0 0114 20a1.037 1.037 0 01-.713-.288 1.012 1.012 0 010-1.424l2.3-2.288-2.3-2.287a1.013 1.013 0 011.425-1.425l2.288 2.3 2.287-2.3a1.012 1.012 0 011.425 1.425L18.412 16l2.3 2.288z"/>
</svg>
