<svg xmlns="http://www.w3.org/2000/svg" viewBox="0 0 32 32" fill="currentColor" aria-hidden="true">
  <path d="M16 2A11.013 11.013 0 005 13c0 2.925 1.175 6.175 3.137 8.688 1.488 1.9 3.275 3.212 5.163 3.862l-1.225 3.075A1 1 0 0013 30h6a.987.987 0 00.825-.438 1 1 0 00.1-.937L18.7 25.55c1.887-.65 3.675-1.963 5.163-3.863C25.825 19.175 27 15.925 27 13A11.012 11.012 0 0016 2zm6.087 10.988h-.174a1.013 1.013 0 01-.988-.838 4.962 4.962 0 00-4.088-4.088 1.012 1.012 0 01-.687-1.526.988.988 0 011.013-.448 6.988 6.988 0 015.737 5.737.988.988 0 01-.813 1.163z"/>
</svg>
