<svg xmlns="http://www.w3.org/2000/svg" viewBox="0 0 32 32" fill="currentColor" aria-hidden="true">
  <path d="M16 17.5a1.5 1.5 0 100-3 1.5 1.5 0 000 3z"/>
  <path d="M23.074 16l3.462-3.463a5.003 5.003 0 00-7.075-7.075L16 8.925l-3.463-3.463a5.003 5.003 0 00-7.075 7.075L8.924 16 5.46 19.462a5.003 5.003 0 007.075 7.076L16 23.075l3.462 3.463a5.003 5.003 0 107.075-7.076L23.074 16zm-7.075-4.238L20.236 16 16 20.238 11.76 16 16 11.762zm4.875-4.887a3.005 3.005 0 114.25 4.25l-3.463 3.463-4.25-4.25 3.463-3.463zm-9.75 18.25a3.005 3.005 0 01-4.25-4.25l3.462-3.462 4.25 4.25-3.462 3.462z"/>
</svg>
