<svg xmlns="http://www.w3.org/2000/svg" viewBox="0 0 32 32" fill="currentColor" aria-hidden="true">
  <path d="M28 5h-5a1 1 0 100 2h4v4a1 1 0 002 0V6a1 1 0 00-1-1zM9 25H5v-4a1 1 0 10-2 0v5a1 1 0 001 1h5a1 1 0 000-2zM28 20a1 1 0 00-1 1v4h-4a1 1 0 000 2h5a1 1 0 001-1v-5a1 1 0 00-1-1zM4 12a1 1 0 001-1V7h4a1 1 0 000-2H4a1 1 0 00-1 1v5a1 1 0 001 1zM10 10a1 1 0 00-1 1v10a1 1 0 102 0V11a1 1 0 00-1-1zM23 21V11a1 1 0 00-2 0v10a1 1 0 002 0zM18 10a1 1 0 00-1 1v10a1 1 0 002 0V11a1 1 0 00-1-1zM14 10a1 1 0 00-1 1v10a1 1 0 002 0V11a1 1 0 00-1-1z"/>
</svg>
