<svg xmlns="http://www.w3.org/2000/svg" viewBox="0 0 32 32" fill="currentColor" aria-hidden="true">
  <path d="M6.487 7.987a.5.5 0 00-.75.038 12.988 12.988 0 000 15.95.5.5 0 00.75.037l.912-.912a1 1 0 011.425-.1 1.025 1.025 0 01.075 1.425c-.305.36-.63.702-.975 1.025a.487.487 0 00.025.75 12.975 12.975 0 0016.1 0 .487.487 0 00.025-.75 12.918 12.918 0 01-.987-1.037 1.002 1.002 0 011.512-1.313l.913.912a.5.5 0 00.75-.037 12.988 12.988 0 000-15.95.5.5 0 00-.75-.038l-.913.913a1.012 1.012 0 01-.762.35.95.95 0 01-.663-.25 1.025 1.025 0 01-.075-1.425c.306-.36.631-.702.975-1.025a.486.486 0 00-.025-.75 12.975 12.975 0 00-16.1 0 .487.487 0 00-.025.75c.345.323.67.665.975 1.025a1 1 0 01-.737 1.675 1.013 1.013 0 01-.763-.35l-.912-.913zm3.412 3.038c.112-.047.23-.076.35-.088a1.013 1.013 0 01.988.663c.239.671.422 1.361.55 2.063a1 1 0 01-.738 1.175.788.788 0 01-.237.037 1 1 0 01-.988-.825 10.472 10.472 0 00-.462-1.738c-.175-.5.037-1.087.537-1.287zm1.888 7.312a13.206 13.206 0 01-.55 2.063 1.013 1.013 0 01-.95.663.875.875 0 01-.388-.088 1.025 1.025 0 01-.537-1.288c.204-.564.358-1.146.462-1.737a1.013 1.013 0 01.963-.825l.25.025a1.025 1.025 0 01.75 1.188zm10.312 2.638a.875.875 0 01-.387.087 1.012 1.012 0 01-.95-.662 13.217 13.217 0 01-.55-2.063 1.025 1.025 0 01.675-1.162 1.012 1.012 0 011.287.775c.105.591.26 1.173.463 1.738a1.025 1.025 0 01-.538 1.287zm.45-8.5a2.95 2.95 0 00-.362 1.425 1 1 0 01-1 .975l-.175-.025c-.538-.088-.9-.662-.8-1.2.128-.684.307-1.356.537-2.013a1.038 1.038 0 011.225-.662 1 1 0 01.575 1.5z"/>
</svg>
