<svg xmlns="http://www.w3.org/2000/svg" viewBox="0 0 32 32" fill="currentColor" aria-hidden="true">
  <path d="M7.95 5.8a13.037 13.037 0 016.5-2.713.5.5 0 01.55.5V15h-3.037a13.012 13.012 0 00-4.037-8.45.488.488 0 01.025-.75zm-2.2 2.212a13.1 13.1 0 00-2.662 6.425.512.512 0 00.5.563h6.363a11 11 0 00-3.463-7.05.5.5 0 00-.737.062zM24.05 5.8a13.038 13.038 0 00-6.5-2.713.5.5 0 00-.55.5V15h3.038c.25-3.22 1.69-6.232 4.038-8.45a.488.488 0 00-.025-.75zm4.863 8.637a13.1 13.1 0 00-2.662-6.425.5.5 0 00-.738-.062A11 11 0 0022.051 15h6.362a.513.513 0 00.5-.563zM3.088 17.564a13.1 13.1 0 002.663 6.425.5.5 0 00.737.062A11 11 0 009.951 17H3.588a.512.512 0 00-.5.563zm23.163 6.425a13.1 13.1 0 002.662-6.425.512.512 0 00-.5-.563h-6.362a11 11 0 003.462 7.05.5.5 0 00.738-.063zM7.95 26.2a13.038 13.038 0 006.5 2.713.501.501 0 00.55-.5V17h-3.038a13.013 13.013 0 01-4.037 8.45.487.487 0 00.025.75zM20.038 17h-3.037v11.413a.499.499 0 00.55.5 13.038 13.038 0 006.5-2.713.488.488 0 00.025-.75A13.013 13.013 0 0120.038 17z"/>
</svg>
