<svg xmlns="http://www.w3.org/2000/svg" viewBox="0 0 32 32" fill="currentColor" aria-hidden="true">
  <path d="M30.713 5.287l-4-4a1.013 1.013 0 00-1.425 1.425l.187.175-6.887 5.175-4.788.963c-.191.039-.369.13-.512.262l-2 2-7 7-1.575 1.588a2.986 2.986 0 000 4.25l5.162 5.163a2.99 2.99 0 004.25 0l1.588-1.576 7-7 2-2c.133-.143.224-.32.262-.512l.963-4.787 5.175-6.888.175.187a1.025 1.025 0 001.425 0 1.012 1.012 0 000-1.425zM9.288 27.875l-5.163-5.163a1 1 0 010-1.424L5 20.413 11.588 27l-.875.875a1.013 1.013 0 01-1.425 0zM22.2 12.4c-.086.12-.145.256-.175.4l-.95 4.712L20 18.587 13.413 12l1.075-1.075 4.712-.95c.145-.03.28-.089.4-.175l7.3-5.475.775.775-5.475 7.3z"/>
</svg>
