<svg xmlns="http://www.w3.org/2000/svg" viewBox="0 0 32 32" fill="currentColor" aria-hidden="true">
  <path d="M20 10a1 1 0 011-1h8a1 1 0 110 2h-8a1 1 0 01-1-1zm11 9a1 1 0 01-1 1h-8.875a4.013 4.013 0 005.406 2.698 3.938 3.938 0 001.294-.873 1 1 0 011.413 0 .989.989 0 010 1.413A5.925 5.925 0 0125 25a6 6 0 116-6zm-2.125-1a4 4 0 00-7.75 0h7.75zM17.5 19.75A5.25 5.25 0 0112.25 25H4a1 1 0 01-1-1V8a1 1 0 011-1h6.75a4.75 4.75 0 013.537 7.912A5.25 5.25 0 0117.5 19.75zM5 14.5h5.75a2.75 2.75 0 100-5.5H5v5.5zm10.5 5.25a3.263 3.263 0 00-3.25-3.25H5V23h7.25a3.263 3.263 0 003.25-3.25z"/>
</svg>
