<svg xmlns="http://www.w3.org/2000/svg" viewBox="0 0 32 32" fill="currentColor" aria-hidden="true">
  <path d="M25.975 14a9.963 9.963 0 00-9.9-10H16a9.987 9.987 0 00-9.975 10c0 4.287-.888 6.712-1.625 7.987A2.025 2.025 0 004.387 24a1.987 1.987 0 001.738 1H11a5 5 0 1010 0h4.875a1.986 1.986 0 001.999-2.008 2.026 2.026 0 00-.274-1.005c-.738-1.275-1.625-3.7-1.625-7.987zM16 28a3.012 3.012 0 01-3-3h6a3.013 3.013 0 01-3 3zM28.112 9.162a1.163 1.163 0 01-.437.1.987.987 0 01-.9-.562A12.126 12.126 0 0022.4 3.85a1.001 1.001 0 111.062-1.7 13.963 13.963 0 015.1 5.675 1 1 0 01-.45 1.337zm-23.787.1a1.162 1.162 0 01-.438-.1 1 1 0 01-.45-1.337 13.962 13.962 0 015.1-5.675A1.002 1.002 0 019.6 3.85 12.125 12.125 0 005.225 8.7a.987.987 0 01-.9.562z"/>
</svg>
