<svg xmlns="http://www.w3.org/2000/svg" viewBox="0 0 32 32" fill="currentColor" aria-hidden="true">
  <path d="M21 28a1 1 0 01-1 1h-8a1 1 0 110-2h8a1 1 0 011 1zm4.975-14a9.963 9.963 0 00-9.9-10H16a9.987 9.987 0 00-9.975 10c0 4.287-.888 6.712-1.625 7.987A2.025 2.025 0 004.387 24a1.987 1.987 0 001.738 1h19.75a1.986 1.986 0 001.999-2.008 2.026 2.026 0 00-.274-1.005c-.738-1.275-1.625-3.7-1.625-7.987zm2.587-6.175a13.963 13.963 0 00-5.1-5.675 1.003 1.003 0 00-1.062 1.7 12.126 12.126 0 014.375 4.85.987.987 0 00.9.562c.15-.004.3-.038.437-.1a1 1 0 00.45-1.337zM5.225 8.7A12.125 12.125 0 019.6 3.85a1.002 1.002 0 10-1.063-1.7 13.962 13.962 0 00-5.1 5.675 1 1 0 00.45 1.337c.138.062.287.096.438.1a.988.988 0 00.9-.562z"/>
</svg>
