<svg xmlns="http://www.w3.org/2000/svg" viewBox="0 0 32 32" fill="currentColor" aria-hidden="true">
  <path d="M26.738 26.325a.989.989 0 01-.063 1.413.999.999 0 01-1.413-.063L22.826 25h-16.7A2 2 0 014.4 21.988c.738-1.276 1.625-3.7 1.625-7.988v-1c-.001-1.76.46-3.488 1.338-5.012l-2.1-2.313a1 1 0 011.475-1.35l20 22zM20 27h-8a1 1 0 000 2h8a1 1 0 100-2zm5.363-5.163a1 1 0 001.262.175 1 1 0 00.413-1.212c-.7-1.775-1.063-4.075-1.063-6.8v-.887c0-5.538-4.437-10.075-9.9-10.113a10.025 10.025 0 00-5.012 1.3 1 1 0 00-.457 1.16c.044.144.118.277.22.39l14.537 15.987z"/>
</svg>
