<svg xmlns="http://www.w3.org/2000/svg" viewBox="0 0 32 32" fill="currentColor" aria-hidden="true">
  <path d="M21.001 28a1 1 0 01-1 1h-8a1 1 0 010-2h8a1 1 0 011 1zm6.612-4a1.988 1.988 0 01-1.737 1H6.126a1.988 1.988 0 01-1.999-2.008c.002-.353.097-.7.274-1.005.737-1.274 1.625-3.7 1.625-7.987v-1A9.988 9.988 0 0116 3h.075c5.462.038 9.9 4.575 9.9 10.113V14c0 4.288.887 6.712 1.625 7.988A2.026 2.026 0 0127.613 24zm-8.112-6a1 1 0 00-1-1h-2.863l3.626-4.363a.975.975 0 00.137-1.062.988.988 0 00-.9-.575h-5a1 1 0 000 2h2.862l-3.624 4.363a.974.974 0 00-.138 1.062.988.988 0 00.9.575h5a1 1 0 001-1z"/>
</svg>
