<svg xmlns="http://www.w3.org/2000/svg" viewBox="0 0 32 32" fill="currentColor" aria-hidden="true">
  <path d="M6.738 4.325a1 1 0 00-1.475 1.35l2.1 2.313A10.025 10.025 0 006.025 13v1c0 4.288-.887 6.712-1.625 7.988A2 2 0 006.125 25H11a5 5 0 0010 0h1.825l2.438 2.675a1 1 0 001.412.063.987.987 0 00.063-1.413l-20-22zM16 28a3.013 3.013 0 01-3-3h6a3.012 3.012 0 01-3 3zM10.825 5.85a1.013 1.013 0 01.238-1.55A10.025 10.025 0 0116.075 3c5.463.038 9.9 4.575 9.9 10.113V14c0 2.738.35 5.012 1.05 6.8a1 1 0 01-1.662 1.037L10.825 5.85z"/>
</svg>
