<svg xmlns="http://www.w3.org/2000/svg" viewBox="0 0 32 32" fill="currentColor" aria-hidden="true">
  <path d="M27.601 21.988c-.738-1.276-1.625-3.7-1.625-7.988v-.887c0-5.538-4.438-10.075-9.9-10.113h-.075a9.987 9.987 0 00-9.975 10v1c0 4.288-.888 6.712-1.625 7.988A2.025 2.025 0 004.388 24a1.987 1.987 0 001.738 1H11a5 5 0 1010 0h4.875a1.988 1.988 0 001.999-2.008 2.026 2.026 0 00-.274-1.005zM16.001 28a3.012 3.012 0 01-3-3h6a3.013 3.013 0 01-3 3zm2.5-9h-5a.988.988 0 01-.9-.575.975.975 0 01.137-1.063L16.364 13h-2.862a1 1 0 010-2h5a.988.988 0 01.9.575.975.975 0 01-.137 1.063L15.639 17H18.5a1 1 0 010 2z"/>
</svg>
