<svg xmlns="http://www.w3.org/2000/svg" viewBox="0 0 33 32" fill="currentColor" aria-hidden="true">
  <path d="M33 20a6 6 0 11-9.837-4.6l2.974 5.1a1.002 1.002 0 001.404.433.999.999 0 00.322-1.433l-2.976-5.113A5.877 5.877 0 0127 14a6 6 0 016 6zM7 21a1 1 0 01-.812-1.587l3.487-4.776A5.826 5.826 0 007 14a6.013 6.013 0 104.287 1.812l-3.474 4.775A.987.987 0 017 21zM21.738 9H25a1 1 0 011 1 1 1 0 002 0 3.012 3.012 0 00-3-3h-5a.975.975 0 00-.863.5.963.963 0 000 1l1.45 2.5h-7.175l-2.05-3.5A.987.987 0 0010.5 7H7a1 1 0 000 2h2.925l1.712 2.937-1.962 2.7c.6.3 1.144.697 1.612 1.175l1.45-1.987 3.9 6.675a1.002 1.002 0 001.404.433.999.999 0 00.322-1.433L14.575 13h7.188l1.4 2.4a5.814 5.814 0 011.724-1.013L21.738 9z"/>
</svg>
