<svg xmlns="http://www.w3.org/2000/svg" viewBox="0 0 32 32" fill="currentColor" aria-hidden="true">
  <path d="M29.65 18.987c0-.012-.012-.012-.012-.025a5.302 5.302 0 00-.288-.662L24.162 6.475a1.015 1.015 0 00-.212-.3 4 4 0 00-5.662 0 .987.987 0 00-.288.7V10.5h-4V6.875a.987.987 0 00-.287-.7 4 4 0 00-5.663 0c-.089.086-.16.188-.213.3L2.65 18.287c-.11.214-.207.436-.288.663 0 .012-.012.012-.012.025a6 6 0 1011.65 2V12.5h4v8.475a6 6 0 1011.65-1.988zm-17.887 3.375a4 4 0 01-7.526-2.712l.225-.513a4 4 0 017.3 3.225zm13.6 2.4A4 4 0 0120 21a4 4 0 017.538-1.85l.224.512a4 4 0 01-2.4 5.1z"/>
</svg>
