<svg xmlns="http://www.w3.org/2000/svg" viewBox="0 0 32 32" fill="currentColor" aria-hidden="true">
  <path d="M23.6 21.2L16.662 16l2.938-2.2a1 1 0 00.2-1.4 1.012 1.012 0 00-1.4-.2L16 14V6l2.4 1.8a1 1 0 001.4-.2 1.012 1.012 0 00-.2-1.4l-4-3A1 1 0 0014 4v10L7.6 9.2a1.012 1.012 0 00-1.4.2 1 1 0 00.2 1.4l6.938 5.2L6.4 21.2a1 1 0 101.2 1.6L14 18v10a1.025 1.025 0 00.55.9c.142.063.295.097.45.1a.963.963 0 00.6-.2l8-6a.999.999 0 000-1.6zM16 26v-8l5.337 4L16 26zM27.412 10l2.3-2.288a1.013 1.013 0 00-1.425-1.425L26 8.587l-2.288-2.3a1.013 1.013 0 00-1.425 1.425l2.3 2.288-2.3 2.287a1.012 1.012 0 000 1.425 1.025 1.025 0 001.425 0l2.288-2.3 2.287 2.3a1.025 1.025 0 001.425 0 1.013 1.013 0 000-1.425L27.412 10z"/>
</svg>
