<svg xmlns="http://www.w3.org/2000/svg" viewBox="0 0 32 32" fill="currentColor" aria-hidden="true">
  <path d="M26.737 26.325l-3.925-4.313-3.913-4.312h-.012L6.737 4.325a1 1 0 00-1.475 1.35l8.85 9.738L6.399 21.2a1 1 0 001.2 1.6L14 18v10a1.025 1.025 0 00.55.9c.142.064.295.098.45.1a.962.962 0 00.6-.2l6.35-4.762 3.313 3.637a.998.998 0 001.412.063.986.986 0 00.063-1.413zM15.999 26v-8l1.475 1.1 3.125 3.45L16 26zM15 9.95a1 1 0 001-1V6l5.337 4-3.125 2.338a.988.988 0 00-.2 1.4.975.975 0 00.8.4c.217-.001.427-.072.6-.2L23.6 10.8a.999.999 0 000-1.6l-8-6A1 1 0 0014 4v4.95a1 1 0 001 1z"/>
</svg>
