<svg xmlns="http://www.w3.org/2000/svg" viewBox="0 0 32 32" fill="currentColor" aria-hidden="true">
  <path d="M27.637 13.825L26 13.275V7a2 2 0 00-2-2h-7V3a1 1 0 00-2 0v2H8a2 2 0 00-2 2v6.275l-1.638.55A2 2 0 003 15.725V20c0 .093.013.185.038.275C5 27.15 13.8 29.525 15.55 29.925c.296.067.604.067.9 0 1.75-.4 10.55-2.775 12.512-9.65.025-.09.038-.182.038-.275v-4.275a2 2 0 00-1.363-1.9zM17 21a1 1 0 01-2 0v-6.95a1 1 0 012 0V21zm7-8.387l-7.363-2.45a2.025 2.025 0 00-1.274 0L8 12.613V7h16v5.613z"/>
</svg>
