<svg xmlns="http://www.w3.org/2000/svg" viewBox="0 0 32 32" fill="currentColor" aria-hidden="true">
  <path d="M29.2 24.45L24.025 5.125a2 2 0 00-2.45-1.413L17.712 4.75l-.125.037A2 2 0 0016 4h-4a1.975 1.975 0 00-1 .275A1.975 1.975 0 0010 4H6a2 2 0 00-2 2v20a2 2 0 002 2h4c.352-.001.697-.096 1-.275.303.18.648.274 1 .275h4a2 2 0 002-2V13.55l3.475 12.962A2 2 0 0023.413 28c.172-.003.344-.024.512-.063l3.863-1.037a2 2 0 001.412-2.45zm-7.113-18.8l.788 2.887-3.863 1.038-.787-2.888 3.862-1.037zM16 6v15h-4V6h4zm-6 0v3H6V6h4zm6 20h-4v-3h4v3zm11.275-1.038L23.413 26l-.788-2.9 3.875-1.038.775 2.9z"/>
</svg>
