<svg xmlns="http://www.w3.org/2000/svg" viewBox="0 0 32 32" fill="currentColor" aria-hidden="true">
  <path d="M5 16c0 7.288 4.338 10.038 4.525 10.15A1 1 0 019 28a1.089 1.089 0 01-.512-.137C8.261 27.725 3 24.475 3 16S8.262 4.275 8.488 4.138a1.013 1.013 0 011.375.35 1 1 0 01-.35 1.362C9.313 5.975 5 8.725 5 16zM23.512 4.138a1.001 1.001 0 00-1.037 1.712C22.663 5.963 27 8.713 27 16c0 7.288-4.337 10.038-4.512 10.138A1 1 0 0023 28c.18-.003.356-.05.512-.137C23.738 27.725 29 24.475 29 16S23.738 4.275 23.512 4.138z"/>
</svg>
