<svg xmlns="http://www.w3.org/2000/svg" viewBox="0 0 32 32" fill="currentColor" aria-hidden="true">
  <path d="M5.4 16a3.8 3.8 0 011 1.288c.6 1.237.6 2.75.6 4.212 0 3.038.125 4.5 3 4.5a1 1 0 010 2c-2.188 0-3.662-.762-4.4-2.288C5 24.475 5 22.962 5 21.5c0-3.038-.125-4.5-3-4.5a1 1 0 010-2c2.875 0 3-1.463 3-4.5 0-1.463 0-2.975.6-4.213C6.338 4.763 7.813 4 10 4a1 1 0 110 2c-2.875 0-3 1.463-3 4.5 0 1.463 0 2.975-.6 4.213A3.8 3.8 0 015.4 16zM30 15c-2.875 0-3-1.463-3-4.5 0-1.463 0-2.975-.6-4.213C25.663 4.763 24.188 4 22 4a1 1 0 100 2c2.875 0 3 1.463 3 4.5 0 1.463 0 2.975.6 4.213a3.8 3.8 0 001 1.287 3.8 3.8 0 00-1 1.288c-.6 1.237-.6 2.75-.6 4.212 0 3.038-.125 4.5-3 4.5a1 1 0 000 2c2.188 0 3.663-.762 4.4-2.288.6-1.237.6-2.75.6-4.212 0-3.038.125-4.5 3-4.5a1 1 0 000-2z"/>
</svg>
