<svg xmlns="http://www.w3.org/2000/svg" viewBox="0 0 32 32" fill="currentColor" aria-hidden="true">
  <path d="M31 16.5a7 7 0 00-4-6.325V9a6 6 0 00-11-3.312A6 6 0 005 9v1.175a7 7 0 000 12.65V23a6 6 0 0011 3.313A6 6 0 0027 23v-.175a7.012 7.012 0 004-6.325zM11 27a4 4 0 01-3.974-3.575c.322.05.648.076.975.075h1a1 1 0 100-2H8a5 5 0 01-1.663-9.713 1.012 1.012 0 00.663-.95V9a4 4 0 118 0v9.538A5.925 5.925 0 0011 17a1 1 0 000 2 4 4 0 010 8zm13-5.5h-1a1 1 0 000 2h1c.327 0 .653-.024.976-.075A4 4 0 1121 19a1 1 0 100-2 5.925 5.925 0 00-4 1.538V9a4 4 0 018 0v1.838a1.014 1.014 0 00.662.95 5 5 0 01-1.662 9.712zM7.5 16a1 1 0 110-2 2.513 2.513 0 002.5-2.5v-1a1 1 0 012 0v1A4.5 4.5 0 017.5 16zm18-1a1 1 0 01-1 1 4.5 4.5 0 01-4.5-4.5v-1a1 1 0 012 0v1a2.513 2.513 0 002.5 2.5 1 1 0 011 1z"/>
</svg>
