<svg xmlns="http://www.w3.org/2000/svg" viewBox="0 0 32 32" fill="currentColor" aria-hidden="true">
  <path d="M16 21a5 5 0 100-10 5 5 0 000 10zM10.338 10.338a.99.99 0 000-1.413 1 1 0 00-1.413 0 10 10 0 00-2.137 3.188 9.987 9.987 0 000 7.774c.5 1.191 1.226 2.273 2.137 3.188.192.184.447.286.713.288a1 1 0 00.997-.994.988.988 0 00-.297-.706 8.177 8.177 0 01-1.713-2.55 8.063 8.063 0 010-6.226 8.175 8.175 0 011.713-2.55z"/>
  <path d="M26 16a9.823 9.823 0 00-.788-3.887 9.998 9.998 0 00-2.137-3.188 1 1 0 00-1.412 0 .987.987 0 000 1.412 8.171 8.171 0 011.712 2.55 8.062 8.062 0 010 6.226 8.174 8.174 0 01-1.712 2.55.986.986 0 000 1.412 1 1 0 00.7.288c.265-.002.52-.104.712-.288a10 10 0 002.137-3.188A9.823 9.823 0 0026 16zM4.025 21.063a13.013 13.013 0 010-10.125 12.662 12.662 0 012.788-4.125 1.013 1.013 0 00-1.425-1.425 15.225 15.225 0 00-3.213 4.775 15.087 15.087 0 000 11.675 15.226 15.226 0 003.213 4.775c.193.18.447.284.712.287.266-.001.52-.104.713-.287a1.013 1.013 0 000-1.425 12.663 12.663 0 01-2.788-4.125z"/>
  <path d="M29.824 10.162a15.227 15.227 0 00-3.212-4.775 1.012 1.012 0 10-1.425 1.425A12.939 12.939 0 0128.999 16a12.939 12.939 0 01-3.812 9.188 1.012 1.012 0 000 1.425c.191.183.447.286.712.287.265-.004.52-.106.713-.287a15.228 15.228 0 003.212-4.776 15.087 15.087 0 000-11.675z"/>
</svg>
