<svg xmlns="http://www.w3.org/2000/svg" viewBox="0 0 32 32" fill="currentColor" aria-hidden="true">
  <path d="M20.988 11.5a1.5 1.5 0 11-3.001 0 1.5 1.5 0 013 0zm-8.5-1.5a1.5 1.5 0 100 3 1.5 1.5 0 000-3zM31.5 16a1 1 0 01-1 1H27v1a11.013 11.013 0 01-.4 2.962l2.887 1.675a1 1 0 01-.5 1.863.95.95 0 01-.5-.137l-2.612-1.513a11 11 0 01-19.75 0l-2.612 1.512a.95.95 0 01-.5.138 1 1 0 01-.5-1.863L5.4 20.962A11.012 11.012 0 015 18v-1H1.5a1 1 0 110-2H5v-1a11.013 11.013 0 01.4-2.963L2.512 9.364A1 1 0 012.139 8a1.012 1.012 0 011.375-.362L6.125 9.15a11 11 0 0119.75 0l2.613-1.512A1.012 1.012 0 0129.863 8a1 1 0 01-.375 1.363L26.6 11.038c.267.964.402 1.96.4 2.962v1h3.5a1 1 0 011 1zM17 18a1 1 0 00-2 0v8a1 1 0 002 0v-8zm8-4a9 9 0 00-18 0v1h18v-1z"/>
</svg>
