<svg xmlns="http://www.w3.org/2000/svg" viewBox="0 0 32 32" fill="currentColor" aria-hidden="true">
  <path d="M6.3 4.225a1 1 0 011.375-1.45L10.012 5a9.975 9.975 0 0111.963-.012L24.3 2.775a1 1 0 011.412.038.988.988 0 01-.037 1.412L23.45 6.338A9.95 9.95 0 0125.95 12H6.05a9.987 9.987 0 012.487-5.65L6.3 4.225zM4 12a1 1 0 000 2h2v-2H4zm22 7c.002.334-.014.668-.05 1H28a1 1 0 010 2h-2.462a10 10 0 01-19.076 0H4a1 1 0 010-2h2.05A8.788 8.788 0 016 19v-1H4a1 1 0 110-2h2v-2h20v2h2a1 1 0 010 2h-2v1zm-9-2a1 1 0 00-2 0v8a1 1 0 002 0v-8zm12-4a1 1 0 00-1-1h-2v2h2a1 1 0 001-1z"/>
</svg>
