<svg xmlns="http://www.w3.org/2000/svg" viewBox="0 0 32 32" fill="currentColor" aria-hidden="true">
  <path d="M23.913 5.875l1.763-1.637a1.025 1.025 0 00.05-1.425 1 1 0 00-1.413-.05l-1.925 1.8a10.963 10.963 0 00-12.8 0l-1.912-1.8a1.004 1.004 0 10-1.363 1.475l1.763 1.637A10.925 10.925 0 004.988 13.5v5a11 11 0 0022 0v-5a10.962 10.962 0 00-3.075-7.625zM15.988 4.5a9.013 9.013 0 019 9V15h-18v-1.5a9.013 9.013 0 019-9zm2 7a1.5 1.5 0 113 0 1.5 1.5 0 01-3 0zm-7 0a1.5 1.5 0 113 0 1.5 1.5 0 01-3 0z"/>
</svg>
