<svg xmlns="http://www.w3.org/2000/svg" viewBox="0 0 32 32" fill="currentColor" aria-hidden="true">
  <path d="M17 10.938V7a1 1 0 00-2 0v3.938c.373.502.707 1.033 1 1.587.293-.554.627-1.085 1-1.588z"/>
  <path d="M28.925 6.3C28.463 5.7 27.588 5 26 5c-2.087 0-4.762 1.412-7.15 3.787a18.033 18.033 0 00-1.85 2.15V21.5a1 1 0 11-2 0V10.937a18.024 18.024 0 00-1.85-2.15C10.763 6.412 8.088 5 6 5c-1.587 0-2.462.7-2.925 1.3-.85 1.088-1.525 3.013-.05 8.938.825 3.287 2.75 4.362 4.188 4.687A5 5 0 1016 24.675a5 5 0 108.788-4.75c1.437-.325 3.362-1.4 4.187-4.688.825-3.287 1.475-6.987-.05-8.937z"/>
</svg>
