<svg xmlns="http://www.w3.org/2000/svg" viewBox="0 0 32 32" fill="currentColor" aria-hidden="true">
  <path d="M25.75 10H17V8.675c1.438-.637 2.275-1.562 2.512-2.75C20.026 3.25 17 .538 16.65.25a.975.975 0 00-1.287-.012C15 .525 11.887 3.213 12.387 5.9 12.614 7.113 13.5 8.05 15 8.688V10H6.25a4.013 4.013 0 00-4 4v1.662A5.413 5.413 0 003.862 19.5l.138.125V26a2 2 0 002 2h20a2 2 0 002-2v-6.375l.137-.125a5.413 5.413 0 001.613-3.838V14a4.013 4.013 0 00-4-4zM26 26H6v-5.225A4.913 4.913 0 007.6 21a5.274 5.274 0 004.15-2.175 5.237 5.237 0 008.5 0A5.274 5.274 0 0024.4 21h.1c.508 0 1.014-.075 1.5-.225V26z"/>
</svg>
