<svg xmlns="http://www.w3.org/2000/svg" viewBox="0 0 32 32" fill="currentColor" aria-hidden="true">
  <path d="M26 4h-3V3a1 1 0 00-2 0v1H11V3a1 1 0 00-2 0v1H6a2 2 0 00-2 2v20a2 2 0 002 2h20a2 2 0 002-2V6a2 2 0 00-2-2zm-6.288 17.288a1.012 1.012 0 010 1.424A1.062 1.062 0 0119 23a1.037 1.037 0 01-.712-.288L16 20.412l-2.287 2.3A1.062 1.062 0 0113 23a1.037 1.037 0 01-.713-.288 1.012 1.012 0 010-1.424l2.3-2.288-2.3-2.288a1.012 1.012 0 011.425-1.425l2.288 2.3 2.288-2.3a1.012 1.012 0 011.424 1.425L17.412 19l2.3 2.288zM26 10H6V6h3v1a1 1 0 002 0V6h10v1a1 1 0 002 0V6h3v4z"/>
</svg>
