<svg xmlns="http://www.w3.org/2000/svg" viewBox="0 0 32 32" fill="currentColor" aria-hidden="true">
  <path d="M26 4h-3V3a1 1 0 00-2 0v1H11V3a1 1 0 00-2 0v1H6a2 2 0 00-2 2v20a2 2 0 002 2h20a2 2 0 002-2V6a2 2 0 00-2-2zM13 23.5c-.796 0-1.56-.315-2.125-.875a1 1 0 010-1.413.989.989 0 011.412 0c.192.184.447.287.713.288a1 1 0 000-2h-.313l-.05-.025H12.6l-.063-.025h-.012l-.075-.05h-.025l-.05-.037-.05-.038-.025-.025-.038-.038a1.076 1.076 0 01-.162-.25.727.727 0 01-.075-.212c-.013-.012-.013-.025-.013-.05.001-.007 0-.014-.002-.02a.05.05 0 00-.01-.018v-.299c0-.026.012-.038.012-.05v-.05a.075.075 0 00.013-.05c.012-.013.012-.026.012-.05l.025-.038c0-.025 0-.038.013-.05l.025-.05v-.037l.025-.05.025-.038.037-.05.026-.025.7-.875H11.5a1 1 0 010-2H15a1 1 0 01.775 1.625l-1.1 1.387A3 3 0 0113 23.5zm8-1a1 1 0 01-2 0V18l-.4.3a1.012 1.012 0 01-1.4-.2 1 1 0 01.2-1.4l2-1.5a1 1 0 011.6.8v6.5zM26 10H6V6h3v1a1 1 0 002 0V6h10v1a1 1 0 002 0V6h3v4z"/>
</svg>
