<svg xmlns="http://www.w3.org/2000/svg" viewBox="0 0 32 32" fill="currentColor" aria-hidden="true">
  <path d="M26 7h-3.462l-1.7-2.55A.988.988 0 0020 4h-8a.988.988 0 00-.838.45L9.463 7H6a3.013 3.013 0 00-3 3v14a3.012 3.012 0 003 3h20a3.012 3.012 0 003-3V10a3.012 3.012 0 00-3-3zm-5.762 13.738a5.975 5.975 0 01-8.476 0h-.012l-.588-.613-.175 1.038A1.013 1.013 0 0110 22h-.162a1 1 0 01-.825-1.15l.5-3a1.012 1.012 0 01.825-.825l3-.5a1.001 1.001 0 01.325 1.975l-1.126.188.638.662A4 4 0 0016 20.5a3.937 3.937 0 002.825-1.175 1 1 0 011.413 0 .989.989 0 010 1.413zm2.75-8.575l-.5 3a1.012 1.012 0 01-.825.825l-3 .5H18.5a1.012 1.012 0 01-.988-.838 1 1 0 01.825-1.15l1.125-.188-.637-.662A4 4 0 0016 12.5a3.938 3.938 0 00-2.825 1.175 1 1 0 01-1.413 0 .986.986 0 010-1.413 5.973 5.973 0 018.476 0c.012 0 .012 0 .012.013l.587.6.175-1.037a1 1 0 011.976.325z"/>
</svg>
