<svg xmlns="http://www.w3.org/2000/svg" viewBox="0 0 32 32" fill="currentColor" aria-hidden="true">
  <path d="M4.925 2.325a.988.988 0 00-1.412-.062 1 1 0 00-.075 1.412L6.463 7H6a3.012 3.012 0 00-3 3v14a3.012 3.012 0 003 3h18.65l2.425 2.675a1.027 1.027 0 00.738.325.975.975 0 00.675-.262 1.001 1.001 0 00.075-1.413l-23.638-26zM16 21a4.5 4.5 0 01-4.5-4.5 4.55 4.55 0 011.012-2.85l5.988 6.588c-.737.5-1.609.766-2.5.762zM26.001 7H22.54l-1.713-2.55a.95.95 0 00-.825-.45h-8a.987.987 0 00-.837.45l-.25.375a1 1 0 00.1 1.225l16.25 17.875a.988.988 0 00.737.325.924.924 0 00.363-.063A1 1 0 0029 23.25V10a3.013 3.013 0 00-3-3z"/>
</svg>
