<svg xmlns="http://www.w3.org/2000/svg" viewBox="0 0 32 32" fill="currentColor" aria-hidden="true">
  <path d="M16.526 3.15a.988.988 0 00-1.05 0A19.185 19.185 0 0012.026 6C9.726 8.387 8.5 10.987 8.5 13.5a7.5 7.5 0 1015 0c0-5.988-6.688-10.175-6.975-10.35zM16 19a2.987 2.987 0 01-3-3c0-3 3-5 3-5s3 2 3 5a2.99 2.99 0 01-3 3zm11.95 9.3a1 1 0 01-.95.7.838.838 0 01-.3-.05L16 25.55l-10.7 3.4A.838.838 0 015 29a1 1 0 01-.95-.7.988.988 0 01.65-1.25l8-2.55-8-2.55a1 1 0 11.6-1.9l10.7 3.4 10.7-3.4a.999.999 0 011.248 1.423 1 1 0 01-.648.477l-8 2.55 8 2.55a.988.988 0 01.65 1.25z"/>
</svg>
