<svg xmlns="http://www.w3.org/2000/svg" viewBox="0 0 32 32" fill="currentColor" aria-hidden="true">
  <path d="M28.712 18.288a1.012 1.012 0 010 1.424 1.025 1.025 0 01-1.425 0l-2.288-2.3-2.287 2.3a1.025 1.025 0 01-1.425 0 1.012 1.012 0 010-1.424l2.3-2.288-2.3-2.287a1.012 1.012 0 011.425-1.425l2.287 2.3 2.288-2.3a1.013 1.013 0 011.425 1.425L26.412 16l2.3 2.288zM25.349 20.6a.485.485 0 00-.7 0l-.525.525A3 3 0 0122 22a2.95 2.95 0 01-2.15-.913c-1.15-1.187-1.087-3.087.075-4.262l.838-.825-.838-.825c-1.187-1.2-1.212-3.175 0-4.338a3.012 3.012 0 014.2.038l.525.525a.486.486 0 00.7 0l.525-.525a.364.364 0 00.125-.287V5.474A2.075 2.075 0 0024.85 3.6a1.987 1.987 0 00-2.262.4L2.037 24.55a2.037 2.037 0 00-.5 2.125A1.988 1.988 0 003.412 28h20.587a2 2 0 002-2v-4.6a.375.375 0 00-.125-.275l-.525-.525z"/>
</svg>
