<svg xmlns="http://www.w3.org/2000/svg" viewBox="0 0 32 32" fill="currentColor" aria-hidden="true">
  <path d="M12.5 14.562a1.012 1.012 0 00.5-.875v-9a1 1 0 00-1.338-.95 13.038 13.038 0 00-8.45 14.638 1.013 1.013 0 00.563.725c.133.063.278.097.425.1a1 1 0 00.5-.138l7.8-4.5zM11 6.2v6.912l-5.987 3.463C5 16.375 5 16.187 5 16a11.038 11.038 0 016-9.8z"/>
  <path d="M27.288 9.55a.1.1 0 01-.025-.05l-.05-.063A12.987 12.987 0 0016.001 3a1 1 0 00-1 1v11.425l-9.888 5.712a.988.988 0 00-.375 1.363v.025l.038.063A13 13 0 0029 16a12.937 12.937 0 00-1.713-6.45z"/>
</svg>
