<svg xmlns="http://www.w3.org/2000/svg" viewBox="0 0 32 32" fill="currentColor" aria-hidden="true">
  <path d="M28.811 23.725A10 10 0 0021.2 9.075a10 10 0 10-18.013 8.65l-.775 2.7a1.738 1.738 0 002.163 2.162l2.7-.774a10.1 10.1 0 003.525 1.112 10 10 0 0013.925 4.887l2.7.775a1.738 1.738 0 002.162-2.162l-.775-2.7zm-1.925-.638a.95.95 0 00-.112.776l.775 2.687-2.688-.775a.95.95 0 00-.775.113 8.025 8.025 0 01-11.05-2.938A10.025 10.025 0 0022 13c-.003-.6-.057-1.197-.163-1.787A8 8 0 0128 19a8.1 8.1 0 01-1.113 4.087z"/>
</svg>
