<svg xmlns="http://www.w3.org/2000/svg" viewBox="0 0 32 32" fill="currentColor" aria-hidden="true">
  <path d="M30 16c0 1.3-.938 2.288-1.762 3.15-.476.488-.963 1-1.15 1.438-.188.437-.175 1.087-.188 1.75-.012 1.212-.037 2.6-1 3.562-.962.963-2.35.988-3.563 1-.662.013-1.337.025-1.75.188-.412.162-.95.674-1.437 1.15C18.288 29.063 17.3 30 16 30c-1.3 0-2.287-.938-3.15-1.762-.487-.476-1-.963-1.438-1.15-.437-.188-1.087-.175-1.75-.188-1.212-.012-2.6-.037-3.562-1-.962-.962-.987-2.35-1-3.563-.012-.662-.025-1.337-.188-1.75-.162-.412-.675-.95-1.15-1.437C2.938 18.288 2 17.3 2 16c0-1.3.938-2.287 1.763-3.15.474-.487.962-1 1.15-1.438.187-.437.175-1.087.187-1.75.013-1.212.038-2.6 1-3.562.963-.962 2.35-.987 3.563-1 .662-.012 1.337-.025 1.75-.188.412-.162.95-.675 1.437-1.15C13.713 2.938 14.7 2 16 2c1.3 0 2.288.938 3.15 1.763.488.474 1 .962 1.438 1.15.437.187 1.087.175 1.75.187 1.212.013 2.6.038 3.562 1 .963.963.988 2.35 1 3.563.013.662.025 1.337.188 1.75.162.412.674.95 1.15 1.437C29.063 13.713 30 14.7 30 16z"/>
</svg>
