<svg xmlns="http://www.w3.org/2000/svg" viewBox="0 0 32 32" fill="currentColor" aria-hidden="true">
  <path d="M28.238 12.85c-.476-.487-.963-1-1.15-1.438-.188-.437-.175-1.087-.188-1.75-.012-1.212-.037-2.6-1-3.562-.962-.962-2.35-.987-3.563-1-.662-.012-1.337-.025-1.75-.188-.412-.162-.95-.675-1.437-1.15C18.288 2.938 17.3 2 16 2c-1.3 0-2.287.938-3.15 1.763-.487.474-1 .962-1.438 1.15-.437.187-1.087.175-1.75.187-1.212.013-2.6.038-3.562 1-.962.963-.987 2.35-1 3.563-.012.662-.025 1.337-.188 1.75-.162.412-.675.95-1.15 1.437C2.938 13.713 2 14.7 2 16c0 1.3.938 2.288 1.763 3.15.474.488.962 1 1.15 1.438.187.437.175 1.087.187 1.75.013 1.212.038 2.6 1 3.562.963.963 2.35.988 3.563 1 .662.013 1.337.025 1.75.188.412.162.95.674 1.437 1.15C13.713 29.063 14.7 30 16 30c1.3 0 2.288-.938 3.15-1.762.488-.476 1-.963 1.438-1.15.437-.188 1.087-.175 1.75-.188 1.212-.012 2.6-.037 3.562-1 .963-.962.988-2.35 1-3.563.013-.662.025-1.337.188-1.75.162-.412.674-.95 1.15-1.437C29.063 18.288 30 17.3 30 16c0-1.3-.938-2.287-1.762-3.15zM16 24a1.5 1.5 0 110-3 1.5 1.5 0 010 3zm1-6.113V18a1 1 0 01-2 0v-1a1 1 0 011-1 2.5 2.5 0 10-2.5-2.5 1 1 0 01-2 0 4.5 4.5 0 115.5 4.387z"/>
</svg>
