<svg xmlns="http://www.w3.org/2000/svg" viewBox="0 0 32 32" fill="currentColor" aria-hidden="true">
  <path d="M8.224 6.812a1 1 0 010 1.413 10.963 10.963 0 00-2.85 4.925 1.012 1.012 0 01-.963.75l-.262-.037a1 1 0 01-.713-1.226 12.9 12.9 0 013.375-5.825.988.988 0 011.413 0zM5.374 18.85a1.002 1.002 0 10-1.938.512A13.1 13.1 0 006.811 25.2a1 1 0 00.7.288 1.013 1.013 0 00.713-1.713 10.95 10.95 0 01-2.85-4.925zm13.475 7.775c-1.867.5-3.833.5-5.7 0a1.002 1.002 0 10-.513 1.938 13.38 13.38 0 003.375.437 13.176 13.176 0 003.35-.438 1.002 1.002 0 10-.512-1.937zm9-8.488a1 1 0 00-1.225.713 10.961 10.961 0 01-2.85 4.925 1.013 1.013 0 00.712 1.713.963.963 0 00.7-.3 12.9 12.9 0 003.375-5.825 1 1 0 00-.712-1.226zm-1.225-4.987a1.013 1.013 0 00.962.75l.263-.037a1 1 0 00.712-1.226A13.1 13.1 0 0025.186 6.8a.988.988 0 00-1.412.012 1 1 0 000 1.413 10.95 10.95 0 012.85 4.925zM13.149 5.375c1.867-.5 3.833-.5 5.7 0a.95.95 0 00.262.037 1 1 0 00.25-1.975 13.05 13.05 0 00-6.725 0 1.002 1.002 0 00.513 1.938z"/>
</svg>
