<svg xmlns="http://www.w3.org/2000/svg" viewBox="0 0 32 32" fill="currentColor" aria-hidden="true">
  <path d="M17 10v5.425l4.7 2.712A1 1 0 0121.2 20a.888.888 0 01-.5-.137l-5.2-3h-.025l-.05-.026-.038-.037-.037-.025-.038-.037-.025-.026c-.025-.012-.037-.037-.05-.05l-.025-.024-.025-.05-.025-.038-.025-.038a.062.062 0 01-.025-.05l-.025-.037c0-.012-.012-.025-.012-.05a.05.05 0 01-.013-.038l-.025-.05a.049.049 0 00-.012-.037c0-.025 0-.038-.013-.05v-.05c0-.025-.012-.037-.012-.05V10a1 1 0 012 0zm7.487-2.488a12.025 12.025 0 00-16.975 0L6.475 8.55 4.687 6.762A1 1 0 003.6 6.537a1.025 1.025 0 00-.625.925v5a1 1 0 001 1h5a1 1 0 00.712-1.7l-1.8-1.8 1.038-1.037a10 10 0 110 14.15.989.989 0 00-1.413 0 1 1 0 000 1.413A12.003 12.003 0 0024.487 7.512z"/>
</svg>
