<svg xmlns="http://www.w3.org/2000/svg" viewBox="0 0 32 32" fill="currentColor" aria-hidden="true">
  <path d="M17 10v5.425l4.7 2.712A1 1 0 0121.2 20a.887.887 0 01-.5-.137l-5.2-3h-.025l-.05-.026-.038-.037-.037-.025-.038-.037-.025-.026c-.025-.012-.038-.037-.05-.05l-.025-.024-.025-.05-.025-.038-.025-.038a.062.062 0 01-.025-.05l-.025-.037c0-.012-.012-.025-.012-.05a.048.048 0 01-.01-.017.048.048 0 01-.003-.02l-.025-.05a.052.052 0 00-.013-.038c0-.025 0-.038-.012-.05v-.05c0-.025-.013-.037-.013-.05V10a1 1 0 112 0zm11.4-3.462a1 1 0 00-1.088.225L25.524 8.55l-1.037-1.037a12 12 0 100 16.975 1 1 0 000-1.413.988.988 0 00-1.412 0 10 10 0 110-14.15l1.037 1.037-1.8 1.8a1 1 0 00.712 1.7h5a1 1 0 001-1v-5a1.025 1.025 0 00-.625-.924z"/>
</svg>
