<svg xmlns="http://www.w3.org/2000/svg" viewBox="0 0 32 32" fill="currentColor" aria-hidden="true">
  <path d="M27 5H5a2 2 0 00-2 2v18a2 2 0 002 2h22a2 2 0 002-2V7a2 2 0 00-2-2zM12 18.5a2.474 2.474 0 001.787-.75 1 1 0 011.425 1.4A4.425 4.425 0 0112 20.5a4.5 4.5 0 110-9 4.424 4.424 0 013.213 1.35 1 1 0 01-1.425 1.4A2.474 2.474 0 0012 13.5a2.5 2.5 0 000 5zm9 0a2.474 2.474 0 001.788-.75 1 1 0 011.424 1.4A4.425 4.425 0 0121 20.5a4.5 4.5 0 110-9 4.424 4.424 0 013.212 1.35 1 1 0 01-1.424 1.4A2.474 2.474 0 0021 13.5a2.5 2.5 0 000 5z"/>
</svg>
