<svg xmlns="http://www.w3.org/2000/svg" viewBox="0 0 32 32" fill="currentColor" aria-hidden="true">
  <path d="M20.113 25.55l-3.275 5A1.025 1.025 0 0116 31a1 1 0 01-.837-1.55l3.287-5a1 1 0 111.663 1.1zm-.2-23.538A9.513 9.513 0 0010.625 8.1 9.35 9.35 0 0010 11.463a1.037 1.037 0 01-.925 1.037A1 1 0 018 11.5a11.45 11.45 0 01.3-2.638.5.5 0 00-.625-.6A6.512 6.512 0 003 14.537C3.025 18.125 6.013 21 9.6 21h4.825l-2.9 4.425A1 1 0 0012.338 27a1 1 0 00.837-.45l3.65-5.55H19.5a9.5 9.5 0 00.413-18.988z"/>
</svg>
