<svg xmlns="http://www.w3.org/2000/svg" viewBox="0 0 32 32" fill="currentColor" aria-hidden="true">
  <path d="M20.012 5a11.013 11.013 0 00-9.85 6.088A10.825 10.825 0 009 15.963 1.025 1.025 0 018.075 17 1 1 0 017 16c0-1.397.224-2.786.662-4.113a.5.5 0 00-.587-.65A8 8 0 001 19c0 4.4 3.725 8 8.113 8H20a11 11 0 10.012-22zm3.938 13.95a1.037 1.037 0 01-.712.288 1 1 0 01-.7-.288L20 16.413V24a1 1 0 01-2 0v-7.587l-2.537 2.537a1 1 0 01-1.413-1.412l4.238-4.25a1.012 1.012 0 011.424 0l4.238 4.25a1 1 0 010 1.412z"/>
</svg>
