<svg xmlns="http://www.w3.org/2000/svg" viewBox="0 0 32 32" fill="currentColor" aria-hidden="true">
  <path d="M16.825 21l-1.975 3h4.4a1 1 0 01.775.337.975.975 0 01.088 1.213l-3.275 5A1.026 1.026 0 0116 31a1.05 1.05 0 01-.637-.225 1.037 1.037 0 01-.188-1.35L17.425 26h-4.4a1.038 1.038 0 01-.775-.337 1.013 1.013 0 01-.087-1.213L14.425 21H9.6c-3.587 0-6.575-2.875-6.6-6.463a6.5 6.5 0 014.688-6.275.5.5 0 01.625.588c-.206.86-.31 1.74-.313 2.625a1.038 1.038 0 00.938 1.025 1 1 0 001.062-1 9.55 9.55 0 01.625-3.4A9.5 9.5 0 1119.5 21h-2.675z"/>
</svg>
