<svg xmlns="http://www.w3.org/2000/svg" viewBox="0 0 32 32" fill="currentColor" aria-hidden="true">
  <path d="M19.5 9a9.85 9.85 0 00-2.525.337A7.36 7.36 0 0015.8 7.9l1.175-1.7a.988.988 0 00-.237-1.388 1 1 0 00-1.4.238l-1.188 1.7A6.875 6.875 0 0010.788 6l-.363-2.038a1.003 1.003 0 00-1.975.35l.363 2.038A6.963 6.963 0 005.9 8.2L4.2 7.012a1 1 0 00-1.387.25.988.988 0 00.237 1.388l1.7 1.187A6.887 6.887 0 004 13.212l-2.037.363a1 1 0 00.175 1.987h.175L4.35 15.2c.177.547.425 1.068.738 1.55A6.488 6.488 0 009.5 28h10a9.5 9.5 0 100-19zM6.075 13.887v-.05a4.95 4.95 0 01.813-3.687v-.025H6.9a5.013 5.013 0 013.2-2.05h.063a4.938 4.938 0 013.637.787l.063.038.05.037c.453.316.846.71 1.162 1.163a9.575 9.575 0 00-4.45 5A6.724 6.724 0 009.5 15a6.576 6.576 0 00-2.762.612 5 5 0 01-.663-1.725z"/>
</svg>
