<svg xmlns="http://www.w3.org/2000/svg" viewBox="0 0 32 32" fill="currentColor" aria-hidden="true">
  <path d="M22 24.5a1.5 1.5 0 11-3 0 1.5 1.5 0 013 0zM9.5 23a1.5 1.5 0 100 3 1.5 1.5 0 000-3zm5 2a1.5 1.5 0 100 3 1.5 1.5 0 000-3zm-6 3a1.5 1.5 0 100 3 1.5 1.5 0 000-3zm11 0a1.5 1.5 0 100 3 1.5 1.5 0 000-3zm.413-25.988A9.513 9.513 0 0010.625 8.1 9.35 9.35 0 0010 11.463a1.037 1.037 0 01-.925 1.037A1 1 0 018 11.5a11.45 11.45 0 01.3-2.638.5.5 0 00-.625-.6A6.512 6.512 0 003 14.537C3.025 18.125 6.013 21 9.6 21h9.9a9.5 9.5 0 00.413-18.988z"/>
</svg>
