<svg xmlns="http://www.w3.org/2000/svg" viewBox="0 0 32 32" fill="currentColor" aria-hidden="true">
  <path d="M19.5 9c-.519.004-1.037.046-1.55.125a8.975 8.975 0 00-6.925-7.9 1 1 0 00-1.2 1.2C9.94 2.942 9.999 3.47 10 4a7 7 0 01-7 7 7.332 7.332 0 01-1.575-.175 1 1 0 00-1.2 1.2 8.989 8.989 0 004.038 5.625A6.5 6.5 0 009.5 28h10a9.5 9.5 0 000-19zM2.675 13H3a9.013 9.013 0 009-9v-.337a6.95 6.95 0 013.988 6.012 9.537 9.537 0 00-5.363 5.425 6.474 6.474 0 00-4.875 1.1A6.988 6.988 0 012.675 13z"/>
</svg>
