<svg xmlns="http://www.w3.org/2000/svg" viewBox="0 0 32 32" fill="currentColor" aria-hidden="true">
  <path d="M8.764 10.362a.975.975 0 00-1.4-.125l-6 5a.988.988 0 000 1.525l6 5a.975.975 0 001.4-.125.974.974 0 00-.125-1.4L3.564 16l5.075-4.238a.975.975 0 00.125-1.4zM30.638 15.238l-6-5a1 1 0 00-1.275 1.524L28.438 16l-5.075 4.238A1 1 0 0024 22a.962.962 0 00.638-.238l6-5a.987.987 0 000-1.524zM20.338 4.062a.988.988 0 00-1.275.6l-8 22a.988.988 0 00.6 1.275.987.987 0 001.275-.6l8-22a.988.988 0 00-.6-1.275z"/>
</svg>
