<svg xmlns="http://www.w3.org/2000/svg" viewBox="0 0 32 32" fill="currentColor" aria-hidden="true">
  <path d="M29 15.85V9.837a1.95 1.95 0 00-.262-.987h-.013a1.938 1.938 0 00-.75-.738l-11-6.187a2 2 0 00-1.95 0l-11 6.187a2.025 2.025 0 00-.754.747.013.013 0 01-.008.003v.025c-.171.288-.262.616-.263.95v12.325a2.013 2.013 0 001.025 1.75L9.525 27l5.5 3.1c.277.151.585.236.9.25h.162c.312-.014.616-.1.888-.25l5.5-3.1 5.5-3.088A2.013 2.013 0 0029 22.162V15.85zm-18.512 2.525L5 15.275V10.95l10.113 5.637-.1 11.213L11 25.537v-6.3a.987.987 0 00-.512-.862zM9.875 7.087l5.637 3.163a.938.938 0 00.976 0l5.637-3.163 3.837 2.163-9.85 5.6L6.05 9.25l3.825-2.163zm7.238 9.5L27 10.962v4.313l-5.488 3.1a.987.987 0 00-.512.862v6.3l-3.988 2.25.1-11.2z"/>
</svg>
