<svg xmlns="http://www.w3.org/2000/svg" viewBox="0 0 32 32" fill="currentColor" aria-hidden="true">
  <path d="M30 12.625v8a1 1 0 01-.512.875L17.75 28.163a.5.5 0 01-.75-.438v-7.137l6.975-3.963L28 18.913v-4.575l-4.025 2.287-2.025-1.15 5.025-2.85L17 6.963v5.7l4.95 2.812L16 18.85l-5.95-3.375L15 12.663v-5.7l-9.975 5.662 5.025 2.85-2.025 1.15L4 14.338v4.575l4.025-2.288L15 20.588v7.137a.5.5 0 01-.75.438L2.512 21.5A1 1 0 012 20.625v-8a1 1 0 01.513-.875l12.5-7.087a1.988 1.988 0 011.975 0l12.5 7.087a1 1 0 01.512.875z"/>
</svg>
