<svg xmlns="http://www.w3.org/2000/svg" viewBox="0 0 32 32" fill="currentColor" aria-hidden="true">
  <path d="M25.95 7.975C23.35 6.688 19.913 6 16 6c-3.912 0-7.35.688-9.95 1.975C3.45 9.262 2 11.1 2 13v6c0 1.9 1.475 3.738 4.05 5.025C8.625 25.313 12.088 26 16 26c3.913 0 7.35-.688 9.95-1.975C28.55 22.738 30 20.9 30 19v-6c0-1.9-1.475-3.738-4.05-5.025zM15 19.988v4c-2.375-.088-4.375-.438-6-.938v-3.925c1.787.5 3.813.788 6 .863zm2 0c2.188-.075 4.212-.363 6-.863v3.925c-1.625.5-3.625.85-6 .938v-4zM4 19v-2.313c.63.524 1.317.973 2.05 1.338l.95.425v3.8c-1.975-.975-3-2.212-3-3.25zm21 3.25v-3.8l.95-.425c.733-.365 1.42-.814 2.05-1.337V19c0 1.038-1.025 2.275-3 3.25z"/>
</svg>
