<svg xmlns="http://www.w3.org/2000/svg" viewBox="0 0 32 32" fill="currentColor" aria-hidden="true">
  <path d="M23 11.2v-.7C23 7.362 18.275 5 12 5S1 7.362 1 10.5v5c0 2.613 3.275 4.688 8 5.313v.687c0 3.137 4.725 5.5 11 5.5s11-2.363 11-5.5v-5c0-2.588-3.175-4.662-8-5.3zM9 18.775v-2.962c.995.127 1.997.19 3 .187 1.003.003 2.005-.06 3-.188v2.963c-.992.155-1.996.23-3 .225a18.892 18.892 0 01-3-.225zm12-5.037V15.5c0 1.05-1.55 2.175-4 2.863v-2.925c1.613-.388 2.975-.976 4-1.7zM3 15.5v-1.762c1.025.725 2.388 1.312 4 1.7v2.925c-2.45-.688-4-1.813-4-2.863zm8 6v-.525L12 21c.492 0 .967-.012 1.425-.038.5.175 1.025.326 1.575.463v2.938c-2.45-.688-4-1.813-4-2.863zm6 3.275V21.8c.995.13 1.997.197 3 .2 1.003.003 2.005-.06 3-.188v2.963c-1.989.3-4.011.3-6 0zm8-.412v-2.925c1.613-.388 2.975-.976 4-1.7V21.5c0 1.05-1.55 2.175-4 2.863z"/>
</svg>
