<svg xmlns="http://www.w3.org/2000/svg" viewBox="0 0 32 32" fill="currentColor" aria-hidden="true">
  <path d="M24.813 7.013C23.3 4.425 21.238 3 19 3h-6c-2.238 0-4.3 1.425-5.813 4.013C5.675 9.6 5 12.625 5 16s.775 6.575 2.188 8.988C8.6 27.4 10.761 29 13 29h6c2.238 0 4.3-1.425 5.813-4.012C26.325 22.4 27 19.375 27 16c0-3.375-.775-6.575-2.188-8.988zM24.974 15h-4c-.1-2.15-.513-4.213-1.213-6h3.825c.763 1.675 1.276 3.75 1.388 6zM22.4 7h-3.587a11.124 11.124 0 00-1.5-2H19c1.25 0 2.425.75 3.4 2zM19 27h-1.688a11.125 11.125 0 001.5-2H22.4c-.975 1.25-2.15 2-3.4 2zm4.587-4h-3.825c.7-1.788 1.113-3.85 1.213-6h4c-.113 2.25-.625 4.325-1.388 6z"/>
</svg>
