<svg xmlns="http://www.w3.org/2000/svg" viewBox="0 0 32 32" fill="currentColor" aria-hidden="true">
  <path d="M13.813 6.4a1.962 1.962 0 00-1.838-.538 2 2 0 00-1.45 1.276L3.788 25.65a2.012 2.012 0 002.563 2.563l18.512-6.738a2 2 0 001.245-2.439 1.963 1.963 0 00-.508-.849L13.813 6.4zM7.976 19.975l2.4-6.6 8.25 8.25-6.6 2.4-4.05-4.05zM20 9c.019-.676.18-1.341.476-1.95C21.137 5.725 22.387 5 24 5c.838 0 1.375-.287 1.713-.9.172-.347.27-.726.287-1.112A.986.986 0 0127 2a1 1 0 011 1c0 1.612-1.062 4-4 4-.837 0-1.375.287-1.712.9-.172.347-.27.726-.288 1.112A.988.988 0 0121 10a1 1 0 01-1-1zm-3-4V2a1 1 0 012 0v3a1 1 0 11-2 0zm12.713 10.287a1.012 1.012 0 010 1.425 1.025 1.025 0 01-1.425 0l-2-2a1.013 1.013 0 011.425-1.425l2 2zm.6-5.337l-3 1a1 1 0 11-.625-1.9l3-1a1 1 0 01.625 1.9z"/>
</svg>
