<svg xmlns="http://www.w3.org/2000/svg" viewBox="0 0 32 32" fill="currentColor" aria-hidden="true">
  <path d="M28.238 14.363a1.975 1.975 0 00-1.675-.388 2.988 2.988 0 01-3.663-2.887A2 2 0 0020.913 9.1a2.988 2.988 0 01-2.888-3.662A2.012 2.012 0 0016.075 3H16A13.012 13.012 0 003 16.087a13 13 0 1026-.162 1.961 1.961 0 00-.762-1.563zm-18.8-1.925a1.5 1.5 0 112.118 2.124 1.5 1.5 0 01-2.118-2.124zm3.125 9.124a1.5 1.5 0 11-2.118-2.125 1.5 1.5 0 012.118 2.125zm3.375-5a1.5 1.5 0 112.125-2.117 1.5 1.5 0 01-2.125 2.117zm4.625 6a1.5 1.5 0 11-2.118-2.125 1.5 1.5 0 012.118 2.125z"/>
</svg>
