<svg xmlns="http://www.w3.org/2000/svg" viewBox="0 0 32 32" fill="currentColor" aria-hidden="true">
  <path d="M19 12V6a1 1 0 01.613-.925 1.05 1.05 0 011.1.212l6 6a1.05 1.05 0 01.213 1.1A1 1 0 0126 13h-6a1 1 0 01-1-1zm-7 7H6a1 1 0 00-.924.613 1.05 1.05 0 00.212 1.1l6 6a1.038 1.038 0 001.1.212 1 1 0 00.613-.925v-6a1 1 0 00-1-1zm.388-13.925a1.05 1.05 0 00-1.1.212l-6 6a1.05 1.05 0 00-.212 1.1A1 1 0 006 13h6a1 1 0 001-1V6a1 1 0 00-.613-.925zM26.001 19h-6a1 1 0 00-1 1v6a1 1 0 00.612.925 1.038 1.038 0 001.1-.213l6-6a1.05 1.05 0 00.213-1.1A1 1 0 0026 19z"/>
</svg>
