<svg xmlns="http://www.w3.org/2000/svg" viewBox="0 0 32 32" fill="currentColor" aria-hidden="true">
  <path d="M27 6v5a1 1 0 01-.613.925 1.037 1.037 0 01-1.1-.213l-5-5a1.05 1.05 0 01-.212-1.1A1 1 0 0121 5h5a1 1 0 011 1zM6.712 20.288a1.05 1.05 0 00-1.1-.213A1 1 0 005 21v5a1 1 0 001 1h5a1 1 0 00.925-.613 1.05 1.05 0 00-.213-1.1l-5-5zm19.675-.213a1.05 1.05 0 00-1.1.213l-5 5a1.05 1.05 0 00-.212 1.1A1 1 0 0021 27h5a1 1 0 001-1v-5a1 1 0 00-.613-.925zM11 5H6a1 1 0 00-1 1v5a1 1 0 00.613.925 1.037 1.037 0 001.1-.213l5-5a1.05 1.05 0 00.212-1.1A1 1 0 0011 5z"/>
</svg>
