<svg xmlns="http://www.w3.org/2000/svg" viewBox="0 0 32 32" fill="currentColor" aria-hidden="true">
  <path d="M29.5 15h-1.538A12.025 12.025 0 0017 4.037V2.5a1 1 0 00-2 0v1.537A12.025 12.025 0 004.037 15H2.5a1 1 0 000 2h1.537A12.025 12.025 0 0015 27.962V29.5a1 1 0 002 0v-1.538A12.025 12.025 0 0027.962 17H29.5a1 1 0 000-2zm-5 2h1.45A10.038 10.038 0 0117 25.95V24.5a1 1 0 00-2 0v1.45A10.038 10.038 0 016.05 17H7.5a1 1 0 000-2H6.05A10.038 10.038 0 0115 6.05V7.5a1 1 0 002 0V6.05A10.038 10.038 0 0125.95 15H24.5a1 1 0 000 2z"/>
  <path d="M16 21a5 5 0 100-10 5 5 0 000 10z"/>
</svg>
