<svg xmlns="http://www.w3.org/2000/svg" viewBox="0 0 32 32" fill="currentColor" aria-hidden="true">
  <path d="M29.838 9.188A1.987 1.987 0 0027.75 8.9l-6.325 2.813-3.675-6.625a2.012 2.012 0 00-3.5 0l-3.675 6.625L4.25 8.9a2 2 0 00-2.762 2.287l3.175 13.538a1.988 1.988 0 00.925 1.262c.313.188.672.288 1.037.288.178 0 .354-.025.525-.075 5.787-1.6 11.9-1.6 17.688 0 .528.139 1.09.063 1.562-.212a1.949 1.949 0 00.925-1.263l3.188-13.538a2 2 0 00-.675-2zM21 20.312a1.012 1.012 0 01-1 .9h-.1a38.727 38.727 0 00-7.8 0 1 1 0 01-1.1-.887 1.012 1.012 0 01.9-1.1 39.088 39.088 0 018.2 0 1.013 1.013 0 01.9 1.087z"/>
</svg>
