<svg xmlns="http://www.w3.org/2000/svg" viewBox="0 0 32 32" fill="currentColor" aria-hidden="true">
  <path d="M30 16h-2.762l2.687-6.625a1.001 1.001 0 00-1.32-1.34 1 1 0 00-.53.59l-3 7.375h-5.15l-3-7.375a1 1 0 00-1.85 0l-3 7.375h-5.15l-3-7.375a1 1 0 10-1.85.75L4.763 16H2a1 1 0 000 2h3.575l3 7.375a1 1 0 001.85 0l3-7.375h5.15l3 7.375a1 1 0 001.85 0l3-7.375H30a1 1 0 100-2zM9.5 22.338L7.737 18h3.525L9.5 22.338zM14.238 16L16 11.663 17.762 16h-3.524zm8.262 6.338L20.738 18h3.524L22.5 22.338z"/>
</svg>
