<svg xmlns="http://www.w3.org/2000/svg" viewBox="0 0 32 32" fill="currentColor" aria-hidden="true">
  <path d="M16 3C9.275 3 4 6.075 4 10v12c0 3.925 5.275 7 12 7s12-3.075 12-7V10c0-3.925-5.275-7-12-7zm10 13c0 1.2-.988 2.425-2.7 3.363C21.362 20.425 18.775 21 16 21c-2.775 0-5.363-.575-7.3-1.637C6.988 18.425 6 17.2 6 16v-2.075C8.137 15.787 11.775 17 16 17s7.863-1.213 10-3.075V16zm-2.7 9.363C21.362 26.425 18.775 27 16 27c-2.775 0-5.363-.575-7.3-1.637C6.988 24.425 6 23.2 6 22v-2.075C8.137 21.788 11.775 23 16 23s7.863-1.212 10-3.075V22c0 1.2-.988 2.425-2.7 3.363z"/>
</svg>
