<svg xmlns="http://www.w3.org/2000/svg" viewBox="0 0 32 32" fill="currentColor" aria-hidden="true">
  <path d="M11 9.413a2.012 2.012 0 010-2.825L14.589 3a1.99 1.99 0 012.825 0l3.588 3.588a2.012 2.012 0 010 2.825L17.413 13a1.987 1.987 0 01-2.825 0l-3.587-3.587zm18 5.175L25.414 11a1.987 1.987 0 00-2.825 0l-3.587 3.588a2.012 2.012 0 000 2.825L22.588 21a1.988 1.988 0 002.825 0l3.588-3.587a2.012 2.012 0 000-2.825zm-16 0L9.414 11a1.987 1.987 0 00-2.825 0l-3.587 3.588a2.012 2.012 0 000 2.825L6.588 21a1.987 1.987 0 002.825 0l3.588-3.587a2.012 2.012 0 000-2.825zM17.414 19a1.987 1.987 0 00-2.825 0l-3.587 3.588a2.012 2.012 0 000 2.825L14.588 29a1.988 1.988 0 002.825 0l3.588-3.587a2.012 2.012 0 000-2.825L17.413 19z"/>
</svg>
