<svg xmlns="http://www.w3.org/2000/svg" viewBox="0 0 32 32" fill="currentColor" aria-hidden="true">
  <path d="M30.912 21.225l-4.25-14.15a1.95 1.95 0 00-1.15-1.275h-.075l.075-.025A24.048 24.048 0 0021.2 4.5a1 1 0 00-1.175.787.988.988 0 00.775 1.175c.562.113 1.112.25 1.65.4A1 1 0 0122 8.75h-.1A23.175 23.175 0 0016 8a22.725 22.725 0 00-5.763.725 1 1 0 01-.7-1.863h.013a22.7 22.7 0 011.65-.4 1 1 0 00.787-1.175 1.012 1.012 0 00-1.175-.787 23.9 23.9 0 00-4.325 1.3 1.95 1.95 0 00-1.15 1.275l-4.25 14.15a2 2 0 00.613 2.087c.115.111.236.215.362.313h.013c2.025 1.65 4.687 2.912 7.687 3.637A.785.785 0 0010 27.3a1 1 0 00.237-1.975 20.039 20.039 0 01-3.912-1.388 1 1 0 011.075-1.65C9.775 23.337 12.762 24 16 24c3.237 0 6.225-.663 8.6-1.713a1 1 0 011.075 1.65 20.038 20.038 0 01-3.913 1.388A1 1 0 0022 27.3c.08 0 .16-.013.237-.038 3-.725 5.663-1.987 7.688-3.637h.012c.127-.098.248-.202.363-.313a2 2 0 00.612-2.087zM12 19.5a1.499 1.499 0 110-2.998 1.499 1.499 0 010 2.998zm8 0a1.499 1.499 0 110-2.998 1.499 1.499 0 010 2.998z"/>
</svg>
