<svg xmlns="http://www.w3.org/2000/svg" viewBox="0 0 32 32" fill="currentColor" aria-hidden="true">
  <path d="M13 17.5a1.5 1.5 0 11-3 0 1.5 1.5 0 013 0zm7.5-1.5a1.5 1.5 0 10.001 3 1.5 1.5 0 000-3zm8.588 2a2.012 2.012 0 01-.837.175 1.95 1.95 0 01-1.25-.45V23a5 5 0 01-5 5H10a5 5 0 01-5-5v-5.275a1.95 1.95 0 01-1.25.45A2.012 2.012 0 012.913 18a1.975 1.975 0 01-1.137-2.2l2.05-10.937a2.013 2.013 0 012.45-1.575L13.126 5h5.75l6.85-1.712a2.012 2.012 0 012.45 1.575l2.05 10.937a1.975 1.975 0 01-1.138 2.2zm-4.087 5v-7.75L18.513 7h-5.025l-6.487 8.25V23a3.012 3.012 0 003 3h5v-1.587l-1.713-1.7a1.012 1.012 0 011.425-1.425l1.288 1.3 1.287-1.3a1.013 1.013 0 011.425 1.424l-1.712 1.7V26h5a3.012 3.012 0 003-3z"/>
</svg>
