<svg xmlns="http://www.w3.org/2000/svg" viewBox="0 0 32 32" fill="currentColor" aria-hidden="true">
  <path d="M11.662 4.613a.5.5 0 01.1-.9A12.963 12.963 0 0122.837 4.95a.5.5 0 01.138.738 19.513 19.513 0 01-5.238 4.625 21.124 21.124 0 00-6.074-5.7zm4.288 6.637a19.274 19.274 0 00-7-5.862.537.537 0 00-.512.037 13.137 13.137 0 00-4.788 6.513.5.5 0 00.375.637A18.896 18.896 0 0015.95 11.25zm12.975 3.338a13 13 0 00-3.65-7.688.513.513 0 00-.75.038 21.038 21.038 0 01-5.712 5.05 21.439 21.439 0 011.7 3.737 20.908 20.908 0 017.862-.587.502.502 0 00.55-.55zm-7.863 3.062a21.127 21.127 0 01.038 9.413.5.5 0 00.712.562 13.013 13.013 0 007.075-9.9.501.501 0 00-.437-.562A17.643 17.643 0 0026 17a18.895 18.895 0 00-4.938.65zm-2.462-1.3a17.818 17.818 0 00-1.55-3.4A20.9 20.9 0 018 15c-1.466 0-2.929-.156-4.362-.462a.5.5 0 00-.6.45 12.963 12.963 0 004.088 10.5.488.488 0 00.761-.113A21.1 21.1 0 0118.6 16.35zm-9.138 10.3a.5.5 0 00.188.688A12.863 12.863 0 0016 29c.759.003 1.516-.064 2.262-.2a.475.475 0 00.375-.325c.649-1.938.978-3.969.976-6.012-.001-1.409-.156-2.813-.463-4.188a19.149 19.149 0 00-9.687 8.375z"/>
</svg>
