<svg xmlns="http://www.w3.org/2000/svg" viewBox="0 0 32 32" fill="currentColor" aria-hidden="true">
  <path d="M23.5 19a3.5 3.5 0 11-7 0c0-1.962 1.163-2.962 2.1-3.762.938-.8 1.4-1.25 1.4-2.238a4 4 0 10-8 0 1 1 0 01-2 0 6 6 0 1112 0c0 1.963-1.163 2.963-2.1 3.762-.938.8-1.4 1.25-1.4 2.238a1.5 1.5 0 103 0 1 1 0 012 0zM16 2A11.013 11.013 0 005 13c0 4.188 1.563 5.688 2.813 6.9.974.938 1.687 1.625 1.687 3.6a6.5 6.5 0 0011.512 4.137 1.012 1.012 0 00-.479-1.597.987.987 0 00-1.058.323A4.5 4.5 0 0111.5 23.5c0-2.825-1.225-4-2.3-5.05C8.125 17.4 7 16.337 7 13a9 9 0 0118 0 1 1 0 002 0A11.012 11.012 0 0016 2z"/>
</svg>
