<svg xmlns="http://www.w3.org/2000/svg" viewBox="0 0 32 32" fill="currentColor" aria-hidden="true">
  <path d="M26.738 26.325a.989.989 0 01-.063 1.413.998.998 0 01-1.413-.063l-4.737-5.213A3.512 3.512 0 0116.5 19a3.89 3.89 0 01.087-.863L12 13.087A1 1 0 1110 13a6.302 6.302 0 01.275-1.813L8.063 8.75A8.925 8.925 0 007 13c0 3.337 1.063 4.363 2.2 5.45 1.138 1.088 2.3 2.225 2.3 5.05a4.5 4.5 0 007.975 2.863.988.988 0 011.4-.138 1.013 1.013 0 01.137 1.412A6.5 6.5 0 019.5 23.5c0-1.975-.712-2.663-1.687-3.6C6.563 18.688 5 17.188 5 13c-.002-2.05.57-4.059 1.65-5.8L5.263 5.675a1 1 0 011.475-1.35L8.65 6.438h.013l3.5 3.85 9.424 10.375 5.15 5.662zm-15.35-21.05A9 9 0 0125 13a1 1 0 002 0 11 11 0 00-16.637-9.45 1 1 0 00.265 1.831c.258.066.53.028.76-.106zm8.4 10.4a1 1 0 001.4-.2A3.95 3.95 0 0022 13a6 6 0 00-7.95-5.675 1 1 0 00.65 1.888A4.012 4.012 0 0120 13a2 2 0 01-.413 1.275.988.988 0 00.2 1.4z"/>
</svg>
