<svg xmlns="http://www.w3.org/2000/svg" viewBox="0 0 32 32" fill="currentColor" aria-hidden="true">
  <path d="M23.338 7.45l-.088-.138a.512.512 0 00-.787-.05L17.938 12.3l2.25.875a1.012 1.012 0 01.625 1.125l-.9 4.637a1.013 1.013 0 01-.988.813h-.187a1.05 1.05 0 01-.788-1.212l.738-3.788-2.825-1.088a1.038 1.038 0 01-.613-.7 1.012 1.012 0 01.225-.9L21.3 5.575a.5.5 0 00-.012-.688C19.525 3.05 17.663 2.012 16 2.012c-2.312 0-5.062 2.038-7.337 5.45-2.275 3.413-3.5 7.2-3.65 10.85C4.75 24.625 9.7 30.012 16.025 30A11.013 11.013 0 0027 19c0-3.85-1.337-8.063-3.662-11.55z"/>
</svg>
