<svg xmlns="http://www.w3.org/2000/svg" viewBox="0 0 32 32" fill="currentColor" aria-hidden="true">
  <path d="M10.5 12a1 1 0 01-1 1h-5a1 1 0 010-2h5a1 1 0 011 1zm-1 3h-5a1 1 0 000 2h5a1 1 0 000-2zm0 4h-5a1 1 0 000 2h5a1 1 0 000-2zm0 4h-5a1 1 0 000 2h5a1 1 0 000-2zm9-8h-5a1 1 0 000 2h5a1 1 0 000-2zm0 4h-5a1 1 0 000 2h5a1 1 0 000-2zm0 4h-5a1 1 0 000 2h5a1 1 0 000-2zm9-12h-5a1 1 0 000 2h5a1 1 0 000-2zm-5-2h5a1 1 0 100-2h-5a1 1 0 100 2zm5 6h-5a1 1 0 000 2h5a1 1 0 000-2zm0 4h-5a1 1 0 000 2h5a1 1 0 000-2zm0 4h-5a1 1 0 000 2h5a1 1 0 000-2z"/>
</svg>
