<svg xmlns="http://www.w3.org/2000/svg" viewBox="0 0 32 32" fill="currentColor" aria-hidden="true">
  <path d="M12.5 14.238L13.887 17h-2.774l1.387-2.762zM29 7v20a.988.988 0 01-.475.85 1 1 0 01-.975.05L24 26.113 20.45 27.9a1.062 1.062 0 01-.9 0L16 26.113 12.45 27.9a1.037 1.037 0 01-.9 0L8 26.113 4.45 27.9a1 1 0 01-.975-.05A.988.988 0 013 27V7a2 2 0 012-2h22a2 2 0 012 2zM17.4 19.55l-4-8a1.012 1.012 0 00-1.8 0l-4 8a1.006 1.006 0 101.8.9l.713-1.45h4.774l.713 1.45a1.013 1.013 0 00.9.55c.155-.003.308-.037.45-.1a1.025 1.025 0 00.45-1.35zM25.5 16a1 1 0 00-1-1H23v-1.5a1 1 0 10-2 0V15h-1.5a1 1 0 000 2H21v1.5a1 1 0 002 0V17h1.5a1 1 0 001-1z"/>
</svg>
