<svg xmlns="http://www.w3.org/2000/svg" viewBox="0 0 32 32" fill="currentColor" aria-hidden="true">
  <path d="M26.439 16.15a18.235 18.235 0 002.337-2.412.988.988 0 00-.15-1.4.988.988 0 00-1.4.137 16.092 16.092 0 01-2.662 2.625h-.025c-2.063 1.6-4.875 2.888-8.538 2.888a13.713 13.713 0 01-8.55-2.888H7.44a16.09 16.09 0 01-2.663-2.625.987.987 0 00-1.4-.137.987.987 0 00-.15 1.4 18.225 18.225 0 002.338 2.412l-2.438 4.225a1 1 0 00.863 1.5 1.026 1.026 0 00.862-.5l2.313-4.012a15.264 15.264 0 004.412 2.037l-.737 4.125a1.012 1.012 0 00.812 1.163h.175a1 1 0 00.988-.825l.712-4.05c.82.12 1.647.183 2.475.187.824 0 1.647-.058 2.463-.175l.712 4.05a1 1 0 00.988.825h.175a1.013 1.013 0 00.812-1.162l-.725-4.113a15.365 15.365 0 004.4-2.05l2.3 3.975a1 1 0 00.875.5 1 1 0 00.863-1.5l-2.425-4.2z"/>
</svg>
