<svg xmlns="http://www.w3.org/2000/svg" viewBox="0 0 32 32" fill="currentColor" aria-hidden="true">
  <path d="M28 8.438a4.436 4.436 0 00-1.413-3.213c-1.75-1.65-4.587-1.587-6.325.15l-2.737 2.738a3.012 3.012 0 00-4.15.1l-.875.875a2.012 2.012 0 000 2.825l.262.262-6.3 6.287a5.037 5.037 0 00-1.375 4.476l-1.225 2.8a1.7 1.7 0 00.363 1.9 1.976 1.976 0 001.412.587c.275 0 .547-.055.8-.163l2.625-1.15a5.038 5.038 0 004.475-1.374l6.288-6.3.262.262a1.988 1.988 0 002.825 0l.875-.875a3.012 3.012 0 00.1-4.15l2.8-2.787A4.524 4.524 0 0028 8.438zM17.237 19H8.762l5.413-5.412 4.237 4.237L17.237 19zm8.025-8.738l-3.5 3.5a1.013 1.013 0 000 1.425l.613.6a1.013 1.013 0 010 1.425l-.875.875-7.588-7.587.875-.875a1 1 0 011.425 0l.6.613a1.012 1.012 0 001.425 0l3.438-3.45c.987-.976 2.575-1.026 3.537-.1A2.46 2.46 0 0126 8.463a2.425 2.425 0 01-.738 1.8z"/>
</svg>
