<svg xmlns="http://www.w3.org/2000/svg" viewBox="0 0 32 32" fill="currentColor" aria-hidden="true">
  <path d="M30.912 15.6c-.037-.1-1.1-2.45-3.45-4.813C24.325 7.663 20.362 6 16 6a16.548 16.548 0 00-2.75.225 1.013 1.013 0 00-.575 1.663l12.662 13.925a.998.998 0 00.738.325c.247-.004.485-.092.675-.25 2.85-2.563 4.112-5.363 4.162-5.476a1.026 1.026 0 000-.812zM6.738 4.325a1 1 0 00-1.475 1.35l2.4 2.638C3.125 11.1 1.175 15.4 1.088 15.6a1.025 1.025 0 000 .813c.037.087 1.1 2.437 3.45 4.8C7.675 24.336 11.638 26 16 26a15.862 15.862 0 006.513-1.35l2.75 3.025a.998.998 0 001.412.063.988.988 0 00.063-1.413l-20-22zM16 20.5a4.5 4.5 0 01-3.687-7.075l5.9 6.488A4.426 4.426 0 0116 20.5z"/>
</svg>
