<svg xmlns="http://www.w3.org/2000/svg" viewBox="0 0 32 32" fill="currentColor" aria-hidden="true">
  <path d="M28 9h-.125a2 2 0 00-1.188-1.175l-10-3.637a2 2 0 00-1.375 0l-10 3.637A2 2 0 004.125 9H4a4.012 4.012 0 00-4 4v3a4.012 4.012 0 004 4h.65c.825 1.8 2.412 3.375 4.7 4.65 2.638 1.463 5.45 2.125 6.238 2.288l.412.037.413-.037c.787-.163 3.6-.825 6.237-2.288 2.288-1.275 3.875-2.85 4.7-4.65H28a4.012 4.012 0 004-4v-3a4.013 4.013 0 00-4-4zM4 18a2 2 0 01-2-2v-3a2 2 0 012-2v6c0 .335.025.67.075 1H4zm17 1H11a1 1 0 010-2h10a1 1 0 110 2zm0-4H11a1 1 0 010-2h10a1 1 0 110 2zm9 1a2 2 0 01-2 2h-.075c.05-.33.075-.665.075-1v-6a2 2 0 012 2v3z"/>
</svg>
