<svg xmlns="http://www.w3.org/2000/svg" viewBox="0 0 32 32" fill="currentColor" aria-hidden="true">
  <path d="M23.5 22v1h2a1 1 0 010 2h-2v1H26a1 1 0 010 2h-3.5a1 1 0 01-1-1v-6a1 1 0 011-1H26a1 1 0 010 2h-2.5zm-12.612-1.925a1.001 1.001 0 00-1.312.538L8 24.4l-1.575-3.787a1.003 1.003 0 00-1.85.774l2.5 6a1 1 0 001.85 0l2.5-6a1 1 0 00-.538-1.312zM18.501 20a1 1 0 00-1 1v3.75a1.25 1.25 0 01-2.5 0V21a1 1 0 10-2 0v3.75a3.25 3.25 0 106.5 0V21a1 1 0 00-1-1zm8.5-9v5a1 1 0 01-1 1H6a1 1 0 01-1-1V5a2 2 0 012-2h12c.266-.001.522.102.712.288l7 7c.186.19.29.446.288.712zm-2.5 0L19 5.5V11h5.5z"/>
</svg>
