<svg xmlns="http://www.w3.org/2000/svg" viewBox="0 0 32 32" fill="currentColor" aria-hidden="true">
  <path d="M11.8 21.6L10 24l1.8 2.4a1 1 0 11-1.6 1.2l-1.45-1.938L7.3 27.6a1 1 0 11-1.6-1.2L7.5 24l-1.8-2.4a1 1 0 111.6-1.2l1.45 1.938L10.2 20.4a1 1 0 111.6 1.2zm6.7 4.4H16v-5a1 1 0 00-2 0v6a1 1 0 001 1h3.5a1 1 0 100-2zm5.712-3.025c-.387-.1-1.075-.288-1.212-.45V22.5c0-.413.3-.625.875-.625a2.3 2.3 0 011.25.4h-.012c.18.144.405.223.637.225a1 1 0 001-1 .95.95 0 00-.363-.762 4.175 4.175 0 00-2.512-.863C22.187 19.875 21 20.95 21 22.5s1.625 2.125 2.7 2.413c.425.112.875.224 1.15.387.275.162.15.125.15.2 0 .075 0 .625-1.125.625a2.3 2.3 0 01-1.25-.4h.012A1.037 1.037 0 0022 25.5a1 1 0 00-.908 1.424.95.95 0 00.27.338 4.175 4.175 0 002.513.863c1.962 0 3.125-.988 3.125-2.625s-1.75-2.25-2.788-2.525zM27 11v5a1 1 0 01-1 1H6a1 1 0 01-1-1V5a2 2 0 012-2h12c.266-.001.522.102.712.288l7 7c.186.19.29.446.288.712zm-2.5 0L19 5.5V11h5.5z"/>
</svg>
