<svg xmlns="http://www.w3.org/2000/svg" viewBox="0 0 32 32" fill="currentColor" aria-hidden="true">
  <path d="M26.712 10.287l-7-7A1.013 1.013 0 0019 3H7a2 2 0 00-2 2v22a2 2 0 002 2h18a2 2 0 002-2V11a1.013 1.013 0 00-.288-.713zm-13 11a1.012 1.012 0 010 1.425 1.025 1.025 0 01-1.425 0l-3-3a1.012 1.012 0 010-1.424l3-3a1.013 1.013 0 011.425 1.424L11.413 19l2.3 2.288zm9-1.575l-3 3a1.025 1.025 0 01-1.424 0 1.012 1.012 0 010-1.424l2.3-2.288-2.3-2.288a1.012 1.012 0 011.424-1.425l3 3a1.012 1.012 0 010 1.425zM19 11V5.5l5.5 5.5H19z"/>
</svg>
