<svg xmlns="http://www.w3.org/2000/svg" viewBox="0 0 32 32" fill="currentColor" aria-hidden="true">
  <path d="M26.712 10.287l-7-7A1.013 1.013 0 0019 3H7a2 2 0 00-2 2v11a1 1 0 102 0V5h11v6a1 1 0 001 1h6v15h-4a1 1 0 000 2h4a2 2 0 002-2V11a1.013 1.013 0 00-.288-.713zM20 10V6.413L23.587 10H20zm-7 9v9a.988.988 0 01-.575.9.849.849 0 01-.425.1.937.937 0 01-.637-.238L8.637 26.5H6a1 1 0 01-1-1v-4a1 1 0 011-1h2.637l2.726-2.262a.975.975 0 011.062-.138.988.988 0 01.575.9zm5.5 4.5a4.976 4.976 0 01-1.875 3.9.988.988 0 01-1.4-.15 1.012 1.012 0 01.15-1.413 2.989 2.989 0 000-4.674 1 1 0 111.25-1.563 4.974 4.974 0 011.875 3.9z"/>
</svg>
