<svg xmlns="http://www.w3.org/2000/svg" viewBox="0 0 32 32" fill="currentColor" aria-hidden="true">
  <path d="M7.25 20H5.5a1 1 0 00-1 1v6a1 1 0 001 1h1.75a4 4 0 100-8zm0 6H6.5v-4h.75a2 2 0 110 4zm9-6c-2.063 0-3.75 1.8-3.75 4s1.688 4 3.75 4c2.063 0 3.75-1.8 3.75-4s-1.688-4-3.75-4zm0 6c-.963 0-1.75-.9-1.75-2s.787-2 1.75-2c.962 0 1.75.9 1.75 2s-.788 2-1.75 2zm10.988-.35a1 1 0 01-.063 1.413A3.662 3.662 0 0124.75 28C22.687 28 21 26.2 21 24s1.688-4 3.75-4a3.663 3.663 0 012.425.938 1 1 0 01.063 1.412.987.987 0 01-1.413.075A1.613 1.613 0 0024.75 22c-.962 0-1.75.9-1.75 2s.788 2 1.75 2a1.612 1.612 0 001.075-.425.987.987 0 011.413.075zM6 17h20a1 1 0 001-1v-5a1.013 1.013 0 00-.288-.713l-7-7A1.013 1.013 0 0019 3H7a2 2 0 00-2 2v11a1 1 0 001 1zM19 5.5l5.5 5.5H19V5.5z"/>
</svg>
