<svg xmlns="http://www.w3.org/2000/svg" viewBox="0 0 32 32" fill="currentColor" aria-hidden="true">
  <path d="M27.425 21.387l-2.5 6a1 1 0 01-1.85 0l-2.5-6a1.002 1.002 0 111.85-.774L24 24.4l1.575-3.787a1.003 1.003 0 011.85.774zM8.25 22c.399.004.781.155 1.075.425a.987.987 0 001.413-.075 1 1 0 00-.063-1.413A3.663 3.663 0 008.25 20c-2.063 0-3.75 1.8-3.75 4s1.688 4 3.75 4a3.662 3.662 0 002.425-.938 1 1 0 00.063-1.412.988.988 0 00-1.413-.075c-.293.27-.676.421-1.075.425-.963 0-1.75-.9-1.75-2s.787-2 1.75-2zm7.962.975c-.387-.1-1.075-.288-1.212-.45V22.5c0-.413.3-.625.875-.625a2.3 2.3 0 011.25.4h-.012c.18.144.405.223.637.225a1 1 0 001-1 .95.95 0 00-.363-.762 4.175 4.175 0 00-2.512-.863C14.187 19.875 13 20.95 13 22.5s1.625 2.125 2.7 2.413c.425.112.875.224 1.15.387.275.162.15.125.15.2 0 .075 0 .625-1.125.625a2.3 2.3 0 01-1.25-.4h.012A1.037 1.037 0 0014 25.5a1 1 0 00-.908 1.424.95.95 0 00.27.338 4.175 4.175 0 002.513.863c1.962 0 3.125-.988 3.125-2.625s-1.75-2.25-2.788-2.525zM5 16V5a2 2 0 012-2h12c.266-.001.522.102.712.288l7 7c.186.19.29.446.288.712v5a1 1 0 01-1 1H6a1 1 0 01-1-1zm14-5h5.5L19 5.5V11z"/>
</svg>
