<svg xmlns="http://www.w3.org/2000/svg" viewBox="0 0 32 32" fill="currentColor" aria-hidden="true">
  <path d="M15 21h-4a1 1 0 000 2h1v4a1 1 0 002 0v-4h1a1 1 0 000-2zM8 21a1 1 0 00-1 1v1.5H5.5V22a1 1 0 10-2 0v5a1 1 0 102 0v-1.5H7V27a1 1 0 102 0v-5a1 1 0 00-1-1zM29.5 26h-2v-4a1 1 0 00-2 0v5a1 1 0 001 1h3a1 1 0 000-2zM23.3 21.05a.976.976 0 00-1.113.375l-1.687 2.35-1.688-2.35A1 1 0 0017 22v5a1 1 0 002 0v-1.875l.688.95a.988.988 0 001.625 0l.687-.95V27a1 1 0 002 0v-5a.974.974 0 00-.7-.95zM6 17h20a1 1 0 001-1v-5a1.013 1.013 0 00-.288-.713l-7-7A1.013 1.013 0 0019 3H7a2 2 0 00-2 2v11a1 1 0 001 1zM19 5.5l5.5 5.5H19V5.5z"/>
</svg>
