<svg xmlns="http://www.w3.org/2000/svg" viewBox="0 0 32 32" fill="currentColor" aria-hidden="true">
  <path d="M23 20h-2a1 1 0 00-1 1v6a1 1 0 002 0v-1h1a3 3 0 000-6zm0 4h-1v-2h1a1 1 0 010 2zm-11 3a1 1 0 01-1 1H7a1 1 0 01-.888-.525 1.037 1.037 0 01.05-1.025L9.137 22H7a1 1 0 110-2h4a1 1 0 01.887.525 1.037 1.037 0 01-.05 1.025L8.864 26H11a1 1 0 011 1zm5-6v6a1 1 0 01-2 0v-6a1 1 0 012 0zm9.712-10.713l-7-7A1.013 1.013 0 0019 3H7a2 2 0 00-2 2v11a1 1 0 001 1h20a1 1 0 001-1v-5a1.013 1.013 0 00-.288-.713zM19 11V5.5l5.5 5.5H19z"/>
</svg>
