<svg xmlns="http://www.w3.org/2000/svg" viewBox="0 0 32 32" fill="currentColor" aria-hidden="true">
  <path d="M26.7 10.287l-6.988-7-.037-.025-.038-.037L19.6 3.2l-.038-.025c-.012-.013-.024-.013-.024-.025l-.063-.038h-.025l-.063-.037h-.012l-.087-.038H7A2 2 0 005 5v22a2 2 0 002 2h18a2 2 0 002-2V11a.975.975 0 00-.3-.713zm-6.488 8.925a1.012 1.012 0 01-1.424 0L17 17.412V23a1 1 0 01-2 0v-5.587l-1.787 1.8a1.013 1.013 0 01-1.425-1.425l3.5-3.5h.012l.063-.063.037-.025.05-.037.038-.026.037-.024h.05l.038-.025h.05l.05-.025h.575l.05.024h.05l.037.026h.05l.037.024.038.025.05.038.037.025.063.063h.012l3.5 3.5a1.012 1.012 0 010 1.424zM19 11V5.412L24.587 11H19z"/>
</svg>
