<svg xmlns="http://www.w3.org/2000/svg" viewBox="0 0 32 32" fill="currentColor" aria-hidden="true">
  <path d="M26.712 10.287l-7-7A1.013 1.013 0 0019 3H7a2 2 0 00-2 2v22a2 2 0 002 2h18a2 2 0 002-2V11a1.013 1.013 0 00-.288-.713zm-7 11a1.012 1.012 0 010 1.425 1.025 1.025 0 01-1.424 0L16 20.412l-2.287 2.3a1.025 1.025 0 01-1.425 0 1.012 1.012 0 010-1.424l2.3-2.288-2.3-2.288a1.012 1.012 0 011.425-1.425l2.287 2.3 2.288-2.3a1.013 1.013 0 011.424 1.425L17.412 19l2.3 2.288zM19 11V5.5l5.5 5.5H19z"/>
</svg>
