<svg xmlns="http://www.w3.org/2000/svg" viewBox="0 0 32 32" fill="currentColor" aria-hidden="true">
  <path d="M18 25.5c0 1.637-1.163 2.625-3.125 2.625a4.175 4.175 0 01-2.512-.85A.95.95 0 0112 26.5a1 1 0 011-1c.232.002.456.08.637.225h-.012a2.3 2.3 0 001.25.4C16 26.125 16 25.75 16 25.5s0-.113-.15-.2c-.15-.088-.725-.275-1.15-.387-1.075-.288-2.7-.726-2.7-2.413 0-1.688 1.188-2.625 2.875-2.625.908.003 1.79.301 2.512.85a.95.95 0 01.363.775 1 1 0 01-1 1 1.037 1.037 0 01-.637-.225h.012a2.3 2.3 0 00-1.25-.4c-.575 0-.875.212-.875.625v.025c.137.163.825.35 1.213.45C16.25 23.25 18 23.712 18 25.5zM9 20a1 1 0 00-1 1v4a1 1 0 11-2 0 1 1 0 10-2 0 3 3 0 106 0v-4a1 1 0 00-1-1zm18-9v16a2 2 0 01-2 2h-3a1 1 0 01-1-1V18a1 1 0 00-1-1H6a1 1 0 01-1-1V5a2 2 0 012-2h12c.266-.001.522.102.712.288l7 7c.186.19.29.446.288.712zm-2.5 0L19 5.5V11h5.5z"/>
</svg>
