<svg xmlns="http://www.w3.org/2000/svg" viewBox="0 0 32 32" fill="currentColor" aria-hidden="true">
  <path d="M7.5 20h-2a1 1 0 00-1 1v6a1 1 0 102 0v-1h1a3 3 0 000-6zm0 4h-1v-2h1a1 1 0 010 2zM19 21v6a1 1 0 01-1 1 .976.976 0 01-.8-.4L14.5 24v3a1 1 0 01-2 0v-6a1 1 0 01.688-.95.988.988 0 011.112.35L17 24v-3a1 1 0 012 0zm9 4.725a.938.938 0 01-.163.537A3.676 3.676 0 0124.75 28C22.687 28 21 26.2 21 24s1.688-4 3.75-4a3.55 3.55 0 012.075.675 1 1 0 01-1.15 1.625 1.575 1.575 0 00-.925-.3c-.962 0-1.75.9-1.75 2s.788 2 1.75 2a1.66 1.66 0 001.25-.6v-.15h-.5a1 1 0 110-2H27a1 1 0 011 1v1.475zM6 17h20a1 1 0 001-1v-5a1.013 1.013 0 00-.288-.713l-7-7A1.013 1.013 0 0019 3H7a2 2 0 00-2 2v11a1 1 0 001 1zM19 5.5l5.5 5.5H19V5.5z"/>
</svg>
