<svg xmlns="http://www.w3.org/2000/svg" viewBox="0 0 32 32" fill="currentColor" aria-hidden="true">
  <path d="M26.7 10.288l-6.988-7-.037-.025-.038-.038L19.6 3.2l-.038-.025c-.012-.012-.024-.012-.024-.025l-.063-.037h-.025l-.063-.038h-.012l-.087-.037H7A2 2 0 005 5v22a2 2 0 002 2h18a2 2 0 002-2V11a.976.976 0 00-.3-.712zm-6.025 13.4a1 1 0 01-.7.287 1.037 1.037 0 01-.713-.287L17.9 22.313a4.6 4.6 0 01-2.4.687 4.5 4.5 0 114.5-4.5 4.475 4.475 0 01-.688 2.4l1.363 1.363a1 1 0 010 1.425zM19 11V5.413L24.587 11H19z"/>
  <path d="M15.5 16a2.487 2.487 0 00-1.763.738 2.476 2.476 0 000 3.524 2.486 2.486 0 003.525 0 2.476 2.476 0 000-3.524A2.488 2.488 0 0015.5 16z"/>
</svg>
