<svg xmlns="http://www.w3.org/2000/svg" viewBox="0 0 32 32" fill="currentColor" aria-hidden="true">
  <path d="M15 20h-2a1 1 0 00-1 1v6a1 1 0 002 0v-1h1a3 3 0 000-6zm0 4h-1v-2h1a1 1 0 010 2zm-5-3v4a3 3 0 11-6 0 1 1 0 112 0 1 1 0 102 0v-4a1 1 0 112 0zm16 3.25v1.475a.938.938 0 01-.163.537A3.676 3.676 0 0122.75 28C20.687 28 19 26.2 19 24s1.688-4 3.75-4a3.55 3.55 0 012.075.675 1 1 0 01-1.15 1.625 1.575 1.575 0 00-.925-.3c-.962 0-1.75.9-1.75 2s.788 2 1.75 2a1.66 1.66 0 001.25-.6v-.15h-.5a1 1 0 110-2H25a1 1 0 011 1zm.712-13.963l-7-7A1.013 1.013 0 0019 3H7a2 2 0 00-2 2v11a1 1 0 001 1h20a1 1 0 001-1v-5a1.013 1.013 0 00-.288-.713zM19 11V5.5l5.5 5.5H19z"/>
</svg>
