<svg xmlns="http://www.w3.org/2000/svg" viewBox="0 0 32 32" fill="currentColor" aria-hidden="true">
  <path d="M10 28a1 1 0 01-1 1H7a2 2 0 01-2-2v-4a1 1 0 112 0v4h2a1 1 0 011 1zm0-25H7a2 2 0 00-2 2v3a1 1 0 002 0V5h3a1 1 0 100-2zm17 8a.976.976 0 00-.3-.713l-6.988-7h-.024l-.05-.05h-.026l-.05-.037c-.012-.013-.024-.013-.024-.025l-.063-.037h-.025l-.063-.038h-.012l-.087-.038H15a1 1 0 100 2h3V11a1 1 0 001 1h6v5a1 1 0 002 0v-6zm-1 10a1 1 0 00-1 1v5h-1a1 1 0 000 2h1a2 2 0 002-2v-5a1 1 0 00-1-1zM6 19a1 1 0 001-1v-5a1 1 0 10-2 0v5a1 1 0 001 1zm13 8h-5a1 1 0 000 2h5a1 1 0 000-2z"/>
</svg>
