<svg xmlns="http://www.w3.org/2000/svg" viewBox="0 0 32 32" fill="currentColor" aria-hidden="true">
  <path d="M16.212 22.975c-.387-.1-1.075-.288-1.212-.45V22.5c0-.413.3-.625.875-.625a2.3 2.3 0 011.25.4h-.012c.18.144.405.223.637.225a1 1 0 001-1 .95.95 0 00-.363-.762 4.175 4.175 0 00-2.512-.863C14.187 19.875 13 20.95 13 22.5s1.625 2.125 2.7 2.413c.425.112.875.224 1.15.387.275.162.15.125.15.2 0 .075 0 .625-1.125.625a2.3 2.3 0 01-1.25-.4h.012A1.037 1.037 0 0014 25.5a1 1 0 00-.908 1.424.95.95 0 00.27.338 4.175 4.175 0 002.513.863c1.962 0 3.125-.988 3.125-2.625s-1.75-2.25-2.788-2.525zM6.5 24c0 1.1.787 2 1.75 2a1.612 1.612 0 001.075-.425.987.987 0 011.413.075 1 1 0 01-.063 1.413A3.662 3.662 0 018.25 28c-2.063 0-3.75-1.8-3.75-4s1.688-4 3.75-4a3.663 3.663 0 012.425.938 1 1 0 01.063 1.412.987.987 0 01-1.413.075A1.613 1.613 0 008.25 22c-.963 0-1.75.9-1.75 2zm17.712-1.025c-.387-.1-1.075-.288-1.212-.45V22.5c0-.413.3-.625.875-.625a2.3 2.3 0 011.25.4h-.012c.18.144.405.223.637.225a1 1 0 001-1 .95.95 0 00-.363-.762 4.175 4.175 0 00-2.512-.863C22.187 19.875 21 20.95 21 22.5s1.625 2.125 2.7 2.413c.425.112.875.224 1.15.387.275.162.15.125.15.2 0 .075 0 .625-1.125.625a2.3 2.3 0 01-1.25-.4h.012A1.037 1.037 0 0022 25.5a1 1 0 00-.908 1.424.95.95 0 00.27.338 4.175 4.175 0 002.513.863c1.962 0 3.125-.988 3.125-2.625s-1.75-2.25-2.788-2.525zm2.5-12.688l-7-7A1.013 1.013 0 0019 3H7a2 2 0 00-2 2v11a1 1 0 001 1h20a1 1 0 001-1v-5a1.013 1.013 0 00-.288-.713zM19 11V5.5l5.5 5.5H19z"/>
</svg>
