<svg xmlns="http://www.w3.org/2000/svg" viewBox="0 0 32 32" fill="currentColor" aria-hidden="true">
  <path d="M26.712 10.287l-7-7A1.013 1.013 0 0019 3H7a2 2 0 00-2 2v11a1 1 0 001 1h20a1 1 0 001-1v-5a1.013 1.013 0 00-.288-.713zM19 11V5.5l5.5 5.5H19zm-7.5 10a1 1 0 01-1 1H9.25v5a1 1 0 11-2 0v-5H6a1 1 0 110-2h4.5a1 1 0 011 1zm15.3.6L25 24l1.8 2.4a1 1 0 01-1.6 1.2l-1.45-1.938L22.3 27.6a.999.999 0 01-.8.4.962.962 0 01-.6-.2 1.012 1.012 0 01-.2-1.4l1.8-2.4-1.8-2.4a1.012 1.012 0 01.2-1.4 1 1 0 011.4.2l1.45 1.938L25.2 20.4a1 1 0 011.6 1.2zM19 25.5c0 1.637-1.163 2.625-3.125 2.625a4.175 4.175 0 01-2.512-.85A.95.95 0 0113 26.5a1 1 0 011-1c.232.002.456.08.637.225h-.012a2.3 2.3 0 001.25.4C17 26.125 17 25.75 17 25.5s0-.113-.15-.2c-.15-.088-.725-.275-1.15-.387-1.075-.288-2.7-.726-2.7-2.413 0-1.688 1.188-2.625 2.875-2.625.908.003 1.79.301 2.512.85a.95.95 0 01.363.775 1 1 0 01-1 1 1.037 1.037 0 01-.637-.225h.012a2.3 2.3 0 00-1.25-.4c-.575 0-.875.212-.875.625v.025c.137.163.825.35 1.212.45C17.25 23.25 19 23.712 19 25.5z"/>
</svg>
