<svg xmlns="http://www.w3.org/2000/svg" viewBox="0 0 32 32" fill="currentColor" aria-hidden="true">
  <path d="M22 15a1 1 0 00-1 1c.01 3.782-.73 7.53-2.175 11.025a1.001 1.001 0 001.484 1.206.988.988 0 00.366-.456A30.81 30.81 0 0023 16a1 1 0 00-1-1zM16 11a5.052 5.052 0 013.726 1.662.998.998 0 001.742-.603 1.001 1.001 0 00-.255-.721A7 7 0 009.001 16a17.05 17.05 0 01-2.125 8.238 1 1 0 00.387 1.35 1.01 1.01 0 00.996-.01c.154-.091.281-.221.367-.378A19.025 19.025 0 0011 16a5.013 5.013 0 015-5zM8.662 7.8a1 1 0 00-1.337-1.488A13.025 13.025 0 003 16a10.95 10.95 0 01-1 4.587 1.013 1.013 0 00.487 1.326c.134.058.279.088.425.087a.975.975 0 00.9-.587A12.8 12.8 0 005 16a11.038 11.038 0 013.662-8.2z"/>
  <path d="M16 3a13.062 13.062 0 00-4.338.737 1.013 1.013 0 00-.613 1.276.999.999 0 001.275.612A11.012 11.012 0 0127 16a35.233 35.233 0 01-.875 7.775 1.025 1.025 0 00.763 1.2l.225.025a.987.987 0 00.962-.775C28.69 21.526 29 18.768 29 16A13.025 13.025 0 0016 3zM14.237 25.087a1.012 1.012 0 00-1.325.5 22.52 22.52 0 01-.787 1.55 1.012 1.012 0 00.387 1.363.975.975 0 00.488.125 1.013 1.013 0 00.875-.512c.3-.55.587-1.125.85-1.7a1 1 0 00-.488-1.326zM16.001 15a1 1 0 00-1 1 23.314 23.314 0 01-.725 5.75 1 1 0 00.713 1.225l.25.025a1.012 1.012 0 00.974-.75c.526-2.042.79-4.142.788-6.25a1 1 0 00-1-1z"/>
</svg>
