<svg xmlns="http://www.w3.org/2000/svg" viewBox="0 0 32 32" fill="currentColor" aria-hidden="true">
  <path d="M16 3A13.025 13.025 0 003 16a11 11 0 01-.625 3.663 1.012 1.012 0 00.613 1.287 1.027 1.027 0 001.275-.613c.49-1.393.739-2.86.737-4.337a11 11 0 1122 0 35.44 35.44 0 01-.662 6.813 1.012 1.012 0 00.787 1.175h.2a.988.988 0 00.975-.8A37.48 37.48 0 0029 16 13.013 13.013 0 0016 3z"/>
  <path d="M11.625 10.537a1 1 0 00-1.25-1.562A8.95 8.95 0 007 16a14.838 14.838 0 01-1.563 6.675 1.012 1.012 0 00.45 1.337c.14.07.294.104.45.1a1.012 1.012 0 00.9-.55A17.013 17.013 0 009 16a6.988 6.988 0 012.625-5.463zM15.999 15a1 1 0 00-1 1 22.912 22.912 0 01-2.875 11.137 1.013 1.013 0 00.4 1.363.938.938 0 00.475.125 1 1 0 00.875-.512A24.975 24.975 0 0016.999 16a1 1 0 00-1-1z"/>
  <path d="M16 11a5.012 5.012 0 00-5 5 1 1 0 002 0 3 3 0 016 0 26.788 26.788 0 01-2.563 11.5 1.002 1.002 0 00.476 1.337 1.037 1.037 0 00.964-.068c.161-.102.29-.247.373-.419A28.75 28.75 0 0021 16a5.012 5.012 0 00-5-5z"/>
  <path d="M11.8 19.025a.988.988 0 00-1.175.775 19.347 19.347 0 01-2.15 5.688 1 1 0 00.863 1.5 1.024 1.024 0 00.862-.5 20.398 20.398 0 002.375-6.288.986.986 0 00-.775-1.175zM16 7c-.377 0-.752.025-1.125.075a1 1 0 10.25 1.975c.287-.025.587-.05.875-.05a7 7 0 017 7 30.72 30.72 0 01-.238 3.875.988.988 0 00.863 1.113h.125a1.013 1.013 0 001-.875c.164-1.37.248-2.747.25-4.125A9.013 9.013 0 0016 7zM23.238 23.038a.987.987 0 00-1.213.712c-.187.712-.4 1.425-.625 2.125a.989.989 0 00.95 1.313.987.987 0 00.938-.675c.25-.75.475-1.5.675-2.263a1 1 0 00-.725-1.212z"/>
</svg>
