<svg xmlns="http://www.w3.org/2000/svg" viewBox="0 0 32 32" fill="currentColor" aria-hidden="true">
  <path d="M21 9.5a1.5 1.5 0 11-3 0 1.5 1.5 0 013 0zM24.775 21c-3.312 3.3-8.55 4.675-15.637 4.113.2 1.474.475 3.037.837 4.675a.988.988 0 01-.762 1.187L9 31a1 1 0 01-.975-.788A58.766 58.766 0 017.1 24.9a63.506 63.506 0 01-5.312-.925 1.004 1.004 0 01.425-1.963c1.637.363 3.2.65 4.675.85C6.325 15.776 7.7 10.539 11 7.226c5.125-5.125 13.225-3.863 15.588-3.35a1.987 1.987 0 011.537 1.537C28.638 7.775 29.9 15.875 24.775 21zm1.4-15.163C24.3 5.425 18.388 4.475 14.013 7.35A10.987 10.987 0 0024.65 17.988c2.875-4.375 1.925-10.288 1.525-12.15z"/>
</svg>
