<svg xmlns="http://www.w3.org/2000/svg" viewBox="0 0 33 32" fill="currentColor" aria-hidden="true">
  <path d="M22 9.5a1.5 1.5 0 11-2.999 0 1.5 1.5 0 013 0zm4.713 10.438c-2.55 3.237-6.65 5.012-12.188 5.262l-2.6 6.188A1.012 1.012 0 0111 32h-.062a.988.988 0 01-.9-.725l-1.85-6.462-6.463-1.85a1 1 0 01-.112-1.888l6.187-2.6c.25-5.538 2.013-9.638 5.263-12.188C18.2 2.237 25.488 3.412 27.6 3.875A1.988 1.988 0 0129.125 5.4c.463 2.112 1.638 9.4-2.412 14.537zm.462-14.113c-1.9-.4-8.425-1.475-12.875 2.037A9.263 9.263 0 0013 9.087 5.013 5.013 0 0018 14a1 1 0 011 1 5.012 5.012 0 004.913 5c.446-.396.856-.831 1.225-1.3 3.512-4.45 2.437-10.975 2.037-12.875z"/>
</svg>
