<svg xmlns="http://www.w3.org/2000/svg" viewBox="0 0 32 32" fill="currentColor" aria-hidden="true">
  <path d="M27.45 5.1a1.025 1.025 0 00-1.05.1c-3.537 2.65-6.537 1.375-10-.113C12.938 3.6 8.863 1.85 4.4 5.2h-.013l-.05.037-.024.025-.038.038-.038.037-.024.038-.038.037c0 .013-.013.025-.025.038l-.025.05c0 .012-.013.025-.013.037a.1.1 0 00-.024.05c-.013.013-.013.025-.026.05-.012.025-.012.025-.012.038 0 .012-.013.037-.013.05 0 .012-.012.025-.012.037 0 .013-.013.038-.013.05v.063c0 .012-.012.037-.012.05V27a1 1 0 102 0v-5.488c3.363-2.262 6.262-1.025 9.6.413 2.037.862 4.225 1.8 6.575 1.8 1.725 0 3.537-.5 5.425-1.925a1.012 1.012 0 00.4-.8V6a1.025 1.025 0 00-.55-.9z"/>
</svg>
