<svg xmlns="http://www.w3.org/2000/svg" viewBox="0 0 32 32" fill="currentColor" aria-hidden="true">
  <path d="M27.45 5.1a1.025 1.025 0 00-1.05.1c-3.537 2.65-6.537 1.375-10-.113C12.938 3.6 8.863 1.85 4.4 5.2A1 1 0 004 6v21a1 1 0 102 0v-5.488c3.363-2.262 6.262-1.025 9.6.413 2.037.862 4.225 1.8 6.575 1.8 1.725 0 3.537-.5 5.425-1.925a1.012 1.012 0 00.4-.8V6a1.025 1.025 0 00-.55-.9zM19.5 21.287V14.6c-2.363-.675-4.637-1.988-7-2.663v6.7c-2.037-.525-4.2-.6-6.5.563v-6.6c2.287-1.325 4.425-1.25 6.5-.663V5.712a30.41 30.41 0 013.1 1.213c1.25.525 2.55 1.087 3.9 1.437V14.6c2.075.587 4.212.662 6.5-.663v6.55c-2.288 1.538-4.363 1.463-6.5.8z"/>
</svg>
