<svg xmlns="http://www.w3.org/2000/svg" viewBox="0 0 32 32" fill="currentColor" aria-hidden="true">
  <path d="M31.311 15.162a1.986 1.986 0 00-1.237-.937A9.639 9.639 0 0026.586 14c.302-1.706.19-3.459-.325-5.113A1.987 1.987 0 0023.95 7.55c-1.162.257-2.27.714-3.275 1.35a11.8 11.8 0 00-3.475-4.3 1.987 1.987 0 00-2.4 0 11.8 11.8 0 00-3.475 4.3 10.287 10.287 0 00-3.275-1.35 1.988 1.988 0 00-2.313 1.337A10.837 10.837 0 005.411 14a9.639 9.639 0 00-3.487.225A1.988 1.988 0 00.499 16.7c.437 1.575 1.787 4.587 5.887 6.95 4.1 2.362 7.675 2.35 9.6 2.35h.025c1.925 0 5.525 0 9.6-2.35 4.075-2.35 5.45-5.375 5.888-6.95a1.999 1.999 0 00-.188-1.538zM16 6.2c1.2.9 4 3.55 4 8.8 0 5.25-2.8 7.9-4 8.8-1.2-.9-4-3.55-4-8.8 0-5.25 2.8-7.9 4-8.8zM2.41 16.162c.775-.2 1.988-.35 3.55-.075.318.909.724 1.784 1.213 2.613a17.237 17.237 0 004.15 4.825 15.425 15.425 0 01-3.938-1.613c-3.475-2.012-4.6-4.475-4.975-5.75zm22.2 5.75a15.424 15.424 0 01-3.937 1.613 17.235 17.235 0 004.15-4.825c.489-.829.895-1.704 1.212-2.613a8.6 8.6 0 013.538.063c-.363 1.287-1.488 3.75-4.963 5.762z"/>
</svg>
