<svg xmlns="http://www.w3.org/2000/svg" viewBox="0 0 32 32" fill="currentColor" aria-hidden="true">
  <path d="M26.05 16.6a7.117 7.117 0 00-1.438-.6c.5-.147.982-.348 1.438-.6a4.503 4.503 0 00-4.5-7.8c-.445.268-.86.582-1.238.938A7.33 7.33 0 0020.5 7a4.5 4.5 0 10-9 0c.008.518.07 1.033.187 1.537A7.338 7.338 0 0010.45 7.6a4.503 4.503 0 00-4.5 7.8c.456.252.938.453 1.437.6-.5.147-.981.348-1.437.6a4.503 4.503 0 104.5 7.8 7.34 7.34 0 001.237-.938A7.323 7.323 0 0011.5 25a4.5 4.5 0 109 0 7.33 7.33 0 00-.188-1.538c.378.356.793.67 1.238.938a4.503 4.503 0 004.5-7.8zM16 19a3 3 0 113-3 3.013 3.013 0 01-3 3z"/>
</svg>
