<svg xmlns="http://www.w3.org/2000/svg" viewBox="0 0 32 32" fill="currentColor" aria-hidden="true">
  <path d="M22.575 26.375a1.012 1.012 0 01-.825 1.15h-.163a1.013 1.013 0 01-.987-.837l-.488-2.938a1.002 1.002 0 111.976-.337l.487 2.962zM16 23a1 1 0 00-1 1v4a1 1 0 002 0v-4a1 1 0 00-1-1zm-4.938-.388a.988.988 0 00-1.15.813l-.487 2.95a1.012 1.012 0 00.825 1.15h.162a1.013 1.013 0 00.988-.837l.487-2.938a1 1 0 00-.825-1.138zM31 14c0 2.025-1.675 3.863-4.712 5.163C23.525 20.35 19.875 21 16 21s-7.525-.65-10.287-1.837C2.675 17.863 1 16.025 1 14c0-1.05.462-2.6 2.65-4.063C5.063 8.987 7.013 8.212 9.3 7.7a7.95 7.95 0 0112.325-1.388c.43.423.812.893 1.137 1.4C27.925 8.887 31 11.212 31 14zm-21-1.9v.388a.975.975 0 00.762.962c1.72.378 3.477.562 5.238.55 1.76.012 3.518-.172 5.238-.55a.976.976 0 00.762-.962V12a5.938 5.938 0 00-.762-2.925 6.46 6.46 0 00-1.026-1.338A5.925 5.925 0 0015.925 6C12.65 6.037 10 8.775 10 12.1z"/>
</svg>
