<svg xmlns="http://www.w3.org/2000/svg" viewBox="0 0 32 32" fill="currentColor" aria-hidden="true">
  <path d="M3 10V8a2 2 0 012-2h6.662a1.95 1.95 0 011.2.4L16.6 9.2a1 1 0 01-1.2 1.6L11.662 8H5v2a1 1 0 01-2 0zm8 15H5v-1a1 1 0 10-2 0v1.075A1.925 1.925 0 004.925 27H11a1 1 0 000-2zm9 0h-4a1 1 0 100 2h4a1 1 0 000-2zm8-7a1 1 0 00-1 1v6h-2a1 1 0 100 2h2.113A1.9 1.9 0 0029 25.113V19a1 1 0 00-1-1zm-1-9h-6a1 1 0 100 2h6v3a1 1 0 002 0v-3a2 2 0 00-2-2zM4 20a1 1 0 001-1v-4a1 1 0 10-2 0v4a1 1 0 001 1z"/>
</svg>
