<svg xmlns="http://www.w3.org/2000/svg" viewBox="0 0 32 32" fill="currentColor" aria-hidden="true">
  <path d="M12 26a1 1 0 01-1 1H4.925A1.925 1.925 0 013 25.075V24a1 1 0 112 0v1h6a1 1 0 011 1zm8-1h-4a1 1 0 000 2h4a1 1 0 000-2zm8-7a1 1 0 00-1 1v6h-2a1 1 0 000 2h2.113A1.9 1.9 0 0029 25.113V19a1 1 0 00-1-1zm-1-9h-6a1 1 0 100 2h6v3a1 1 0 002 0v-3a2 2 0 00-2-2zM4 11h12a1 1 0 00.925-.613 1.05 1.05 0 00-.213-1.1L13 5.587A1.987 1.987 0 0011.588 5H5a2 2 0 00-2 2v3a1 1 0 001 1zm0 9a1 1 0 001-1v-4a1 1 0 10-2 0v4a1 1 0 001 1z"/>
</svg>
