<svg xmlns="http://www.w3.org/2000/svg" viewBox="0 0 32 32" fill="currentColor" aria-hidden="true">
  <path d="M15.075 25H5V11h22v4a1 1 0 002 0v-4a2 2 0 00-2-2H16.413L13 5.588A1.987 1.987 0 0011.588 5H5a2 2 0 00-2 2v18.075A1.925 1.925 0 004.925 27h10.15a1 1 0 000-2zM11.588 7l2 2H5V7h6.588zm18.55 13.975L27.324 23.3l.85 3.462A.988.988 0 0127.8 27.8a.925.925 0 01-.588.2 1.088 1.088 0 01-.512-.137l-3.2-1.888-3.2 1.887a1 1 0 01-1.1-.062.988.988 0 01-.375-1.038l.85-3.462-2.813-2.325a1.013 1.013 0 01.563-1.775l3.725-.287 1.438-3.313a1 1 0 011.825 0l1.437 3.313 3.725.287a1.012 1.012 0 01.563 1.775z"/>
</svg>
