<svg xmlns="http://www.w3.org/2000/svg" viewBox="0 0 32 32" fill="currentColor" aria-hidden="true">
  <path d="M5 8v17h10a1 1 0 110 2H5a2 2 0 01-2-2V8a2 2 0 012-2h6.662a1.95 1.95 0 011.2.4L16.338 9H27a2 2 0 012 2v4a1 1 0 01-2 0v-4H16.337a1.95 1.95 0 01-1.2-.4L11.662 8H5zm25.45 11.9a1.012 1.012 0 00-.875-.7l-3.725-.287-1.438-3.313a1 1 0 00-1.825 0l-1.437 3.313-3.725.287a1.013 1.013 0 00-.563 1.775l2.813 2.325-.85 3.463A.988.988 0 0019.2 27.8a1 1 0 001.1.063l3.2-1.888 3.2 1.888c.157.087.333.134.512.137a.926.926 0 00.588-.2.988.988 0 00.375-1.037l-.85-3.463 2.813-2.325a1 1 0 00.312-1.075z"/>
</svg>
