<svg xmlns="http://www.w3.org/2000/svg" viewBox="0 0 32 32" fill="currentColor" aria-hidden="true">
  <path d="M28.25 7.038a4.037 4.037 0 00-3.287-3.288c-3.925-.662-11.3-.962-16.738 4.475-5.437 5.438-5.137 12.813-4.475 16.738a4.038 4.038 0 003.288 3.287 25.79 25.79 0 004.162.35c3.888 0 8.725-.962 12.575-4.825 5.438-5.437 5.138-12.812 4.475-16.737zM7.375 26.275a1.988 1.988 0 01-1.65-1.65 22.338 22.338 0 01-.337-3.825l5.812 5.813a22.437 22.437 0 01-3.825-.338zm13.338-13.562l-1.888 1.875 1.125 1.125a1 1 0 010 1.412 1.038 1.038 0 01-.712.288 1 1 0 01-.7-.288L17.413 16 16 17.413l1.125 1.125a1 1 0 01-.326 1.629.976.976 0 01-.386.07.95.95 0 01-.7-.287l-1.125-1.125-1.875 1.888a1.025 1.025 0 01-1.425 0 1.012 1.012 0 010-1.425l1.887-1.875-1.125-1.125a1 1 0 011.413-1.413L14.588 16 16 14.588l-1.125-1.125a1 1 0 011.413-1.413l1.125 1.125 1.875-1.887a1.013 1.013 0 011.425 1.425zm.087-7.325c1.283.003 2.562.115 3.825.337a1.987 1.987 0 011.65 1.65c.222 1.263.335 2.543.338 3.825L20.8 5.388z"/>
</svg>
