<svg xmlns="http://www.w3.org/2000/svg" viewBox="0 0 32 32" fill="currentColor" aria-hidden="true">
  <path d="M26.5 4v24a1 1 0 11-2 0v-7h-6a1.024 1.024 0 01-.75-.338 1.012 1.012 0 01-.25-.775c.31-2.503.803-4.98 1.475-7.412 1.5-5.3 3.587-8.475 6.188-9.413A.988.988 0 0126.5 4zM15.988 9.837l-1-6a1 1 0 10-1.976.325L13.825 9H11.5V4a1 1 0 00-2 0v5H7.175l.813-4.838a1 1 0 00-1.975-.325l-1 6A.612.612 0 005 10a5.512 5.512 0 004.5 5.412V28a1 1 0 102 0V15.412A5.512 5.512 0 0016 10a.614.614 0 00-.012-.15v-.013z"/>
</svg>
