<svg xmlns="http://www.w3.org/2000/svg" viewBox="0 0 32 32" fill="currentColor" aria-hidden="true">
  <path d="M30.937 22.712h-.013L28.887 12.15c0-.013 0-.013-.013-.025A7.5 7.5 0 0021.5 5.963L10.5 6a7.488 7.488 0 00-7.387 6.2v.025L1.074 22.7a4.488 4.488 0 003.65 5.213c.255.05.515.075.775.075a4.55 4.55 0 003.188-1.313l.05-.063 5.087-5.624 4.363-.026 5.075 5.663.062.063A4.5 4.5 0 0026.5 28c.265 0 .528-.025.788-.075a4.512 4.512 0 003.65-5.213zM12.999 14.5h-1v1a1 1 0 01-2 0v-1H9a1 1 0 110-2h1v-1a1 1 0 112 0v1h1a1 1 0 010 2zm5-1a1 1 0 011-1h4a1 1 0 010 2h-4a1 1 0 01-1-1zm8.938 12.462a2.512 2.512 0 01-2.188-.674l-3.887-4.313h.637a7.5 7.5 0 006.375-3.538l1.088 5.65a2.5 2.5 0 01-2.025 2.875z"/>
</svg>
