<svg xmlns="http://www.w3.org/2000/svg" viewBox="0 0 32 32" fill="currentColor" aria-hidden="true">
  <path d="M30 20v3a2 2 0 01-2 2H14.437a.5.5 0 01-.4-.8l8.213-10.7a1.025 1.025 0 00-.137-1.412.986.986 0 00-1.425.162L11.05 24.8a.475.475 0 01-.388.2H4a2 2 0 01-2-2v-2.863c.002-.931.094-1.86.275-2.774l2.837.762.263.025a1 1 0 00.975-.775 1.013 1.013 0 00-.75-1.2l-2.8-.75C4.625 10.25 9.363 6.437 15 6.037v2.925A1.025 1.025 0 0015.938 10 1 1 0 0017 9V6.037a13.937 13.937 0 018.887 4.05 14.087 14.087 0 013.35 5.325l-2.837.763a1.012 1.012 0 00-.75 1.2 1 1 0 00.975.775l.262-.025 2.863-.775c.166.874.25 1.76.25 2.65z"/>
</svg>
