<svg xmlns="http://www.w3.org/2000/svg" viewBox="0 0 32 32" fill="currentColor" aria-hidden="true">
  <path d="M29.35 18.8l-1.863-2.475c.013-.225 0-.462 0-.637L29.35 13.2a.975.975 0 00.162-.862 14.357 14.357 0 00-1.362-3.3 1.025 1.025 0 00-.725-.5L24.362 8.1l-.462-.463-.438-3.062a1.051 1.051 0 00-.487-.725 14.688 14.688 0 00-3.313-1.363.975.975 0 00-.862.163L16.325 4.5h-.65L13.2 2.65a.975.975 0 00-.863-.163 14.35 14.35 0 00-3.3 1.363 1.025 1.025 0 00-.5.725L8.1 7.637l-.463.463-3.062.437a1.025 1.025 0 00-.725.5 14.351 14.351 0 00-1.363 3.3.975.975 0 00.163.863l1.862 2.475v.637L2.65 18.8a.974.974 0 00-.163.863 14.351 14.351 0 001.363 3.3 1.025 1.025 0 00.725.5l3.062.437.463.463.437 3.062a1.025 1.025 0 00.5.725 14.347 14.347 0 003.3 1.363.963.963 0 00.862-.162l2.476-1.851h.65l2.475 1.85a.975.975 0 00.862.162 14.128 14.128 0 003.3-1.362 1.026 1.026 0 00.5-.725l.438-3.075c.15-.15.325-.313.45-.45l3.075-.438a1.024 1.024 0 00.725-.5 14.357 14.357 0 001.362-3.3.974.974 0 00-.162-.862zM16 21.5a5.5 5.5 0 110-11.001A5.5 5.5 0 0116 21.5z"/>
</svg>
