<svg xmlns="http://www.w3.org/2000/svg" viewBox="0 0 32 32" fill="currentColor" aria-hidden="true">
  <path d="M29.688 13.037a.999.999 0 00-.5-.662l-2.975-1.65a9.316 9.316 0 00-.525-.938l.05-3.4a1.037 1.037 0 00-.325-.762 14 14 0 00-5.138-2.963 1.012 1.012 0 00-.825.1l-2.912 1.75a15.413 15.413 0 00-1.075 0l-2.913-1.75a1.012 1.012 0 00-.825-.1 13.888 13.888 0 00-5.137 2.975.988.988 0 00-.325.75l.062 3.4c-.2.3-.375.613-.55.938l-2.962 1.65a.962.962 0 00-.5.662 13.925 13.925 0 000 5.925 1 1 0 00.5.663l2.975 1.65c.16.323.339.637.537.938l-.062 3.4a1.038 1.038 0 00.325.762 14.113 14.113 0 005.137 2.962 1.012 1.012 0 00.825-.1l2.913-1.75h1.075l2.925 1.75c.152.1.33.153.512.15a1.25 1.25 0 00.3-.05 13.888 13.888 0 005.138-2.974.989.989 0 00.325-.75l-.05-3.4c.187-.3.362-.613.537-.938l2.975-1.65a.988.988 0 00.488-.663 13.923 13.923 0 000-5.925zM21.5 16a5.5 5.5 0 11-10.999 0 5.5 5.5 0 0111 0z"/>
</svg>
