<svg xmlns="http://www.w3.org/2000/svg" viewBox="0 0 32 32" fill="currentColor" aria-hidden="true">
  <path d="M27 9h-4.375a4 4 0 00-5.913-5.362A3.65 3.65 0 0016 4.663a3.65 3.65 0 00-.713-1.025A4 4 0 009.375 9H5a2 2 0 00-2 2v4a2 2 0 002 2v8a2 2 0 002 2h18a2 2 0 002-2v-8a2 2 0 002-2v-4a2 2 0 00-2-2zm-8.875-3.95a2 2 0 112.825 2.825c-.613.625-2.4.963-3.912 1.088.125-1.513.462-3.3 1.087-3.913zm-7.075 0a2.012 2.012 0 012.825 0c.625.613.963 2.4 1.088 3.913-1.513-.125-3.3-.463-3.913-1.088a2.013 2.013 0 010-2.825zM27 15H17v9a1 1 0 01-2 0v-9H5v-4h10v4h2v-4h10v4z"/>
</svg>
