<svg xmlns="http://www.w3.org/2000/svg" viewBox="0 0 32 32" fill="currentColor" aria-hidden="true">
  <path d="M28 28a1 1 0 01-1 1 4.012 4.012 0 01-4-4v-1a2 2 0 00-2-2h-1.5v5a2 2 0 002 2 1 1 0 110 2 4.012 4.012 0 01-4-4v-5h-3v5a4.012 4.012 0 01-4 4 1 1 0 010-2 2 2 0 002-2v-5H11a2 2 0 00-2 2v1a4.012 4.012 0 01-4 4 1 1 0 010-2 2 2 0 002-2v-1a4.012 4.012 0 011.85-3.375A6.975 6.975 0 016 15v-1a7.25 7.25 0 01.963-3.537A7.488 7.488 0 017.638 4.5.975.975 0 018.5 4a7.463 7.463 0 016 3h3a7.463 7.463 0 016-3 .975.975 0 01.863.5 7.486 7.486 0 01.675 5.963A7.25 7.25 0 0126 14v1a6.975 6.975 0 01-2.85 5.625A4.012 4.012 0 0125 24v1a2 2 0 002 2 1 1 0 011 1z"/>
</svg>
