<svg xmlns="http://www.w3.org/2000/svg" viewBox="0 0 32 32" fill="currentColor" aria-hidden="true">
  <path d="M27.7 21.662c.86-1.763 1.304-3.7 1.3-5.662a13.025 13.025 0 00-9.65-12.563h-.062A12.975 12.975 0 007.55 6.125l-.162.15A12.988 12.988 0 0016 29h.3a13.038 13.038 0 0011.325-7.175l.075-.163zM27 16a11.163 11.163 0 01-.687 3.837l-5.8-3.562a2 2 0 00-.788-.288l-2.85-.375a2.012 2.012 0 00-1.912.85h-1.075l-.475-.987a2.024 2.024 0 00-1.375-1.088l-.825-.175.312-.737a1.012 1.012 0 01.925-.613h2.013c.336-.001.667-.087.962-.25l1.525-.85c.135-.073.26-.16.375-.262l3.363-3.05a1.962 1.962 0 00.562-2.113A11 11 0 0127 16zM5 16a10.887 10.887 0 011.188-4.963l1.3 3.488a2.012 2.012 0 001.45 1.25l.687.15h.013l1.5.325a.974.974 0 01.687.537l.263.55a2.013 2.013 0 001.8 1.125h.15l-.963 2.15a1.987 1.987 0 00.35 2.175l2.013 2.175a1.037 1.037 0 01.25.863l-.225 1.162A11.012 11.012 0 015 16z"/>
</svg>
