<svg xmlns="http://www.w3.org/2000/svg" viewBox="0 0 32 32" fill="currentColor" aria-hidden="true">
  <path d="M28.238 20.4l.037-.125a12.962 12.962 0 000-8.55l-.037-.125A13.025 13.025 0 0016 3a13.025 13.025 0 00-12.237 8.6l-.038.125a12.963 12.963 0 000 8.55l.038.125A13.05 13.05 0 0016 29a13.025 13.025 0 0012.238-8.6zM16 5.7a13.574 13.574 0 013.188 5.3h-6.375A13.576 13.576 0 0116 5.7zM12.813 21h6.375A13.574 13.574 0 0116 26.3a13.576 13.576 0 01-3.187-5.3zm-.525-2a15.801 15.801 0 010-6h7.425a15.797 15.797 0 010 6h-7.425zm9.462-6h4.838c.55 1.962.55 4.038 0 6H21.75a18.121 18.121 0 000-6zm4.05-2h-4.5a16.086 16.086 0 00-3.012-5.763A11.075 11.075 0 0125.8 11zm-7.512 15.762A16.086 16.086 0 0021.3 21h4.5a11.074 11.074 0 01-7.512 5.762z"/>
</svg>
