<svg xmlns="http://www.w3.org/2000/svg" viewBox="0 0 32 32" fill="currentColor" aria-hidden="true">
  <path d="M29 16A13.012 13.012 0 0016 3a13 13 0 000 26 13.012 13.012 0 0013-13zm-2.05-1h-4.975c-.2-3.7-1.5-7.125-3.688-9.762A11.025 11.025 0 0126.95 15zm-14.912 2h7.924c-.224 3.6-1.662 6.962-3.962 9.3-2.3-2.338-3.738-5.7-3.963-9.3zm0-2C12.261 11.4 13.7 8.037 16 5.7c2.3 2.337 3.738 5.7 3.962 9.3h-7.925zm6.25 11.762c2.187-2.637 3.487-6.062 3.687-9.762h4.975a11.026 11.026 0 01-8.662 9.762z"/>
</svg>
