<svg xmlns="http://www.w3.org/2000/svg" viewBox="0 0 32 32" fill="currentColor" aria-hidden="true">
  <path d="M27.937 21.15a.767.767 0 00.062-.15 13 13 0 00-4.525-15.637l-.15-.088A12.875 12.875 0 0016 3 13 13 0 005.324 23.413v.024c.03.048.064.094.1.138A13.001 13.001 0 0023.9 26.313l.175-.138a13.163 13.163 0 003.863-5.025zM7.687 23.2l.487-.3a1.975 1.975 0 00.963-1.7l.025-4.225c.003-.19.06-.377.162-.538l1.75-2.75a1 1 0 011.425-.274l1.6 1.162c.421.298.939.427 1.45.363l3.925-.538a1.975 1.975 0 001.25-.675l2.763-3.2a1.926 1.926 0 00.487-1.4L23.95 8.4a10.963 10.963 0 012.65 10.525L24.612 17.1a2.013 2.013 0 00-2.113-.375l-3.812 1.587a2.013 2.013 0 00-1.213 1.55l-.3 2.026a2.025 2.025 0 001.475 2.237l2.688.7.5.5A11 11 0 017.687 23.2z"/>
</svg>
