<svg xmlns="http://www.w3.org/2000/svg" viewBox="0 0 32 32" fill="currentColor" aria-hidden="true">
  <path d="M17 3v3a1 1 0 01-2 0V3a1 1 0 012 0zm5 4.5a1 1 0 00-1 1v3a1 1 0 002 0v-3a1 1 0 00-1-1zM16 25a1 1 0 00-1 1v3a1 1 0 002 0v-3a1 1 0 00-1-1zm0-16a1 1 0 00-1 1v12a1 1 0 002 0V10a1 1 0 00-1-1zm-6-1.5a1 1 0 00-1 1v8a1 1 0 102 0v-8a1 1 0 00-1-1zm12 7a1 1 0 00-1 1v8a1 1 0 002 0v-8a1 1 0 00-1-1zm-18-1a1 1 0 00-1 1v3a1 1 0 102 0v-3a1 1 0 00-1-1zm6 6a1 1 0 00-1 1v3a1 1 0 102 0v-3a1 1 0 00-1-1zm18-6a1 1 0 00-1 1v3a1 1 0 002 0v-3a1 1 0 00-1-1z"/>
</svg>
