<svg xmlns="http://www.w3.org/2000/svg" viewBox="0 0 32 32" fill="currentColor" aria-hidden="true">
  <path d="M29 15.5h-5.625a8.426 8.426 0 001.625-5A8.513 8.513 0 0016.5 2a1 1 0 00-1 1v5.625A8.425 8.425 0 0010.5 7 8.513 8.513 0 002 15.5a1 1 0 001 1h5.625A8.425 8.425 0 007 21.5a8.513 8.513 0 008.5 8.5 1 1 0 001-1v-5.625a8.426 8.426 0 005 1.625 8.513 8.513 0 008.5-8.5 1 1 0 00-1-1zM10.5 9a6.437 6.437 0 015 2.35v3.15H4.075A6.512 6.512 0 0110.5 9zm11 14a6.436 6.436 0 01-5-2.35V17.5h11.425A6.513 6.513 0 0121.5 23z"/>
</svg>
