<svg xmlns="http://www.w3.org/2000/svg" viewBox="0 0 32 32" fill="currentColor" aria-hidden="true">
  <path d="M22.5 26.2a14.927 14.927 0 002-1.062V30a1 1 0 01-2 0v-3.8zm-7.387-14.675a1.025 1.025 0 00.412 1.363L21.375 16l2.125-1.137-7.025-3.75a1.025 1.025 0 00-1.362.412zm16.362-.412l-15-8a1.063 1.063 0 00-.95 0l-15 8a1.012 1.012 0 000 1.775L3.5 14.463v6.225c-.002.429.139.847.4 1.187C4.888 23.2 8.688 27.5 16 27.5a16.09 16.09 0 006.5-1.312V16.6l-1.125-.6L16 18.863 4.975 12.988 3.125 12 16 5.138 28.875 12l-1.85.988-3.525 1.875.475.25c.17.097.308.24.4.412A.939.939 0 0124.5 16v9.138a13.98 13.98 0 003.6-3.263c.261-.34.402-.758.4-1.187v-6.225l2.975-1.575a1.013 1.013 0 000-1.775z"/>
</svg>
