<svg xmlns="http://www.w3.org/2000/svg" viewBox="0 0 32 32" fill="currentColor" aria-hidden="true">
  <path d="M3 13a1 1 0 011-1h10a1 1 0 010 2H4a1 1 0 01-1-1zm25-1H18a1 1 0 000 2h10a1 1 0 000-2zm-17.5 6a1 1 0 00-1-1H4a1 1 0 000 2h5.5a1 1 0 001-1zM28 17h-5.5a1 1 0 000 2H28a1 1 0 000-2zm-16 1a1 1 0 001 1h6a1 1 0 000-2h-6a1 1 0 00-1 1zm-5 4H4a1 1 0 000 2h3a1 1 0 000-2zm7 0h-3a1 1 0 000 2h3a1 1 0 000-2zm7 0h-3a1 1 0 000 2h3a1 1 0 000-2zm7 0h-3a1 1 0 000 2h3a1 1 0 000-2zM4 9h24a1 1 0 100-2H4a1 1 0 000 2z"/>
</svg>
