<svg xmlns="http://www.w3.org/2000/svg" viewBox="0 0 32 32" fill="currentColor" aria-hidden="true">
  <path d="M25 19c-.883 0-1.741.294-2.438.837l-2.887-2.25a3.963 3.963 0 00.313-1.862l1.662-.55a3.987 3.987 0 10-.637-1.9l-1.663.55A3.987 3.987 0 0016 12a5.67 5.67 0 00-.662.05l-.85-1.925A3.961 3.961 0 0016 7a4 4 0 10-4 4 5.67 5.67 0 00.662-.05l.85 1.925A3.962 3.962 0 0012 16c0 .634.15 1.26.438 1.825l-3.213 2.85a4 4 0 101.338 1.5l3.212-2.85a3.987 3.987 0 004.662-.162l2.888 2.25A3.963 3.963 0 0021 23a4 4 0 104-4zm0-8a2 2 0 110 4 2 2 0 010-4zM10 7a2 2 0 114 0 2 2 0 01-4 0zM7 26a2 2 0 110-4 2 2 0 010 4zm18-1a2 2 0 110-4 2 2 0 010 4z"/>
</svg>
