<svg xmlns="http://www.w3.org/2000/svg" viewBox="0 0 32 32" fill="currentColor" aria-hidden="true">
  <path d="M4.55 12.262a2.037 2.037 0 01-.4-1.687C5.062 6.188 10.05 3 16 3c5.95 0 10.938 3.188 11.85 7.575A2 2 0 0125.9 13H6.1a2.025 2.025 0 01-1.55-.738zm23.575 6.813l-2.512 1-2.113.85-4.625-1.85a.975.975 0 00-.75 0l-4.625 1.85-4.625-1.85a.975.975 0 00-.75 0l-2.513 1-2.487 1A1 1 0 003.5 23a.999.999 0 00.375-.075L5 22.475V23a5 5 0 005 5h12a5 5 0 005-5v-1.325l1.875-.75a1 1 0 00-.75-1.85zM29 15H3a1 1 0 000 2h26a1 1 0 000-2z"/>
</svg>
