<svg xmlns="http://www.w3.org/2000/svg" viewBox="0 0 32 32" fill="currentColor" aria-hidden="true">
  <path d="M14.976 26.85a1.012 1.012 0 01-.975.762.791.791 0 01-.238-.037l-3.775-.938a1.964 1.964 0 01-.825-.437l-2.812-2.45a.993.993 0 011.3-1.5l2.825 2.45 3.762.938a1.012 1.012 0 01.738 1.212zm16.575-11.9a1.976 1.976 0 01-1.013 1.163l-2.912 1.462-1.863 2.188h-.025c0 .012-.012.012-.012.024h-.013l-4.6 4.6a2.063 2.063 0 01-1.425.588 1.977 1.977 0 01-.475-.063l-7.25-1.787a1.9 1.9 0 01-.75-.363l-6.75-5.274-3-1.5a2.038 2.038 0 01-1.012-1.175 2 2 0 01.137-1.538l3.075-5.888a2.013 2.013 0 012.663-.875l2.8 1.4 6.087-1.775c.457-.124.942-.089 1.375.1l4.125 1.875h2.05l2.913-1.462a2 2 0 012.662.862l3.075 5.888a2.025 2.025 0 01.138 1.55zm-8.088 4.275l-3.95-2.875-1.012.762a5.025 5.025 0 01-6 0l-.675-.512a1.987 1.987 0 01-.213-3.013l4.888-4.9.225-.187-.963-.438-6.087 1.775-3.4 6.526 6.175 4.825L19.688 23l3.775-3.775zm2.338-2.588l-3.4-6.524h-4.488L13.026 15l.675.512a3.038 3.038 0 003.6 0l1.6-1.2a1 1 0 011.187-.012l4.75 3.45.963-1.113z"/>
</svg>
