<svg xmlns="http://www.w3.org/2000/svg" viewBox="0 0 32 32" fill="currentColor" aria-hidden="true">
  <path d="M23.498 5c-.518 0-1.03.116-1.5.338V4.5a3.5 3.5 0 00-6.825-1.075A3.475 3.475 0 0013.498 3a3.513 3.513 0 00-3.5 3.5v9.425l-.874-1.512a3.501 3.501 0 10-6.088 3.462C7.1 26.425 9.799 30 15.999 30a11.013 11.013 0 0011-11V8.5a3.512 3.512 0 00-3.5-3.5zm1.5 14a9.012 9.012 0 01-9 9c-2.524 0-4.274-.687-5.874-2.275-1.6-1.587-3.088-4.1-5.288-8.737l-.037-.075a1.45 1.45 0 01-.15-1.138 1.476 1.476 0 01.7-.912 1.5 1.5 0 011.659.107c.154.12.283.271.378.443l2.75 4.75a1.013 1.013 0 001.125.462.987.987 0 00.738-.962V6.5a1.5 1.5 0 013 0V15a1 1 0 002 0V4.5a1.5 1.5 0 013 0V15a1 1 0 002 0V8.5a1.5 1.5 0 013 0V19z"/>
</svg>
