<svg xmlns="http://www.w3.org/2000/svg" viewBox="0 0 32 32" fill="currentColor" aria-hidden="true">
  <path d="M25.687 12.513l-2.125-3.675a2.737 2.737 0 00-3.75-1.013 2.688 2.688 0 00-1.2 1.425l-2.2-3.787a2.737 2.737 0 00-3.75-1.013 2.688 2.688 0 00-1.2 1.425 2.762 2.762 0 00-3.7-.912 2.737 2.737 0 00-1.275 1.675c-.11.39-.126.801-.05 1.2a3.312 3.312 0 00-1.387.425 3.263 3.263 0 00-1.188 4.45l.25.425c-.429.05-.842.19-1.212.412a3.25 3.25 0 00-1.188 4.438L6.337 26a10 10 0 0018.325-2.412l.038-.163a9.562 9.562 0 00.987-10.912zm-2.962 10.562A7.913 7.913 0 0119 27.925 8 8 0 018.075 25L3.45 16.988a1.25 1.25 0 011.4-1.838c.32.09.594.3.762.588l3 5.2a1.025 1.025 0 00.863.5 1 1 0 00.862-1.5l-4.75-8.225a1.254 1.254 0 112.175-1.25l4.75 8.225a.998.998 0 001.404.432 1.001 1.001 0 00.321-1.432l-3.75-6.5a1.262 1.262 0 01.463-1.713 1.25 1.25 0 011.7.463l5.25 9.1a1.024 1.024 0 00.875.5 1 1 0 00.863-1.5l-2-3.475a1.237 1.237 0 01-.126-.938 1.2 1.2 0 01.588-.762 1.176 1.176 0 01.937-.125 1.225 1.225 0 01.763.575L21.925 17a7.938 7.938 0 01.8 6.075zm-2.1-19.987l.512-1.938a1 1 0 011.962.122c.018.13.01.263-.024.39L22.55 3.6a.988.988 0 01-.963.738l-.262-.025a1 1 0 01-.7-1.225zm3.287 1.15l1.15-1.638a1.013 1.013 0 011.4-.25 1 1 0 01.238 1.4l-1.15 1.638a.987.987 0 01-1.388.237 1 1 0 01-.25-1.387zm5.488 2.7l-1.638 1.15c-.17.111-.37.172-.575.175a1 1 0 01-.575-1.813L28.25 5.3a1 1 0 011.4.238 1.013 1.013 0 01-.25 1.4z"/>
</svg>
