<svg xmlns="http://www.w3.org/2000/svg" viewBox="0 0 32 32" fill="currentColor" aria-hidden="true">
  <path d="M23.5 10.5c-.519 0-1.03.116-1.5.338V6.5A3.512 3.512 0 0018.5 3a3.475 3.475 0 00-1.675.425A3.5 3.5 0 0010 4.5v.838A3.5 3.5 0 005 8.5V19a11 11 0 1022 0v-5a3.512 3.512 0 00-3.5-3.5zM25 19a9 9 0 01-18 0V8.5a1.5 1.5 0 013 0V14a1 1 0 002 0V4.5a1.5 1.5 0 113 0V13a1 1 0 002 0V6.5a1.5 1.5 0 113 0v8a1 1 0 002 0V14a1.5 1.5 0 113 0v5zm-9-2c-3.338 0-5.375 2.575-6.1 3.675a1.512 1.512 0 000 1.65C10.625 23.425 12.662 26 16 26c3.337 0 5.375-2.575 6.1-3.675a1.512 1.512 0 000-1.65C21.375 19.575 19.337 17 16 17zm0 6.5a2 2 0 110-3.999 2 2 0 010 4z"/>
</svg>
