<svg xmlns="http://www.w3.org/2000/svg" viewBox="0 0 32 32" fill="currentColor" aria-hidden="true">
  <path d="M27.525 13l-2.5-4.338a3.513 3.513 0 00-5.912-.237l-2.163-3.75a3.513 3.513 0 00-4.787-1.287 3.675 3.675 0 00-1.238 1.2 3.487 3.487 0 00-1.437-.776 3.388 3.388 0 00-2.65.35A3.487 3.487 0 005.55 8.938l.425.724a3.562 3.562 0 00-1.475.463A3.513 3.513 0 003.225 14.9l5.25 9.1a11 11 0 1019.05-11zm-.837 7.825a8.9 8.9 0 01-4.188 5.463A9.013 9.013 0 0110.2 23l-5.25-9.1a1.5 1.5 0 112.6-1.5l2.75 4.763a1.003 1.003 0 001.737-1L9.287 11.4l-2-3.463a1.5 1.5 0 011.688-2.2c.382.11.708.36.913.7l.987 1.738h.012l3.25 5.625a.963.963 0 00.863.5.913.913 0 00.5-.138 1 1 0 00.363-1.362l-3.25-5.625a1.501 1.501 0 012.6-1.5l3.75 6.487.787 1.375a6.013 6.013 0 00-1.363 7.626 1 1 0 001.726-1 4 4 0 011.462-5.463 1.013 1.013 0 00.475-.612 1.05 1.05 0 00-.1-.75l-1.25-2.175a1.5 1.5 0 011.688-2.188 1.475 1.475 0 01.9.688l2.5 4.337a8.863 8.863 0 01.9 6.825zm-15.725 9.75a1.025 1.025 0 01-.825.425 1.075 1.075 0 01-.575-.175A14.737 14.737 0 015.138 26a1 1 0 111.725-1 12.825 12.825 0 003.85 4.175 1.013 1.013 0 01.25 1.4zM21 3.875a1 1 0 011-1 7.525 7.525 0 016.5 3.75.986.986 0 01-.375 1.362.888.888 0 01-.5.138 1 1 0 01-.863-.5A5.5 5.5 0 0022 4.875a1 1 0 01-1-1z"/>
</svg>
