<svg xmlns="http://www.w3.org/2000/svg" viewBox="0 0 32 32" fill="currentColor" aria-hidden="true">
  <path d="M23.498 10.5a3.45 3.45 0 00-1.825.512A3.512 3.512 0 0017 9.337V4.5a3.5 3.5 0 10-7 0v11.425l-.875-1.513a3.502 3.502 0 00-6.088 3.463C7.1 26.425 9.799 30 15.999 30a11.013 11.013 0 0011-11v-5a3.512 3.512 0 00-3.5-3.5zm1.5 8.5a9.012 9.012 0 01-9 9c-2.524 0-4.274-.688-5.874-2.275-1.6-1.588-3.088-4.1-5.288-8.738l-.037-.074a1.45 1.45 0 01-.15-1.138 1.476 1.476 0 01.7-.912 1.5 1.5 0 011.659.107c.154.12.283.271.378.442l2.75 4.75a1.013 1.013 0 001.125.463.987.987 0 00.738-.962V4.5a1.5 1.5 0 013 0V13a1 1 0 002 0v-.5a1.5 1.5 0 013 0V14a1 1 0 002 0 1.5 1.5 0 013 0v5z"/>
</svg>
