<svg xmlns="http://www.w3.org/2000/svg" viewBox="0 0 32 32" fill="currentColor" aria-hidden="true">
  <path d="M25 10h-2V8a4 4 0 00-7-2.638A3.976 3.976 0 0013 4a4.013 4.013 0 00-3.975 3.55A4 4 0 003 11v5a13 13 0 0026 0v-2a4.013 4.013 0 00-4-4zm-6-4a2 2 0 012 2v2h-4V8a2 2 0 012-2zm-8 2a2 2 0 114 0v5a2 2 0 01-4 0V8zm-6 3a2 2 0 014 0v2a2 2 0 01-4 0v-2zm11 16A11 11 0 015.012 16.475 4 4 0 0010 15.637a3.988 3.988 0 005.575.425c.36.595.869 1.085 1.475 1.425A5.963 5.963 0 0015 22a1 1 0 002 0 4.013 4.013 0 014-4 1 1 0 000-2h-2a2 2 0 01-2-2v-2h8a2 2 0 012 2v2a11.012 11.012 0 01-11 11z"/>
</svg>
