<svg xmlns="http://www.w3.org/2000/svg" viewBox="0 0 32 32" fill="currentColor" aria-hidden="true">
  <path d="M28 11h-6.075l1.063-5.825a1.002 1.002 0 10-1.976-.35L19.887 11h-5.962l1.063-5.825a1.003 1.003 0 10-1.976-.35L11.887 11H5.45a1 1 0 100 2h6.075l-1.088 6H4a1 1 0 100 2h6.075l-1.063 5.825a1 1 0 00.813 1.163H10a1 1 0 00.988-.825l1.125-6.175h5.962l-1.063 5.825a.998.998 0 00.813 1.162H18a1 1 0 00.988-.825l1.125-6.175h6.437a1 1 0 000-2h-6.075l1.087-6H28a1 1 0 000-2V11zm-9.563 8h-5.962l1.088-6h5.962l-1.087 6z"/>
</svg>
