<svg xmlns="http://www.w3.org/2000/svg" viewBox="0 0 32 32" fill="currentColor" aria-hidden="true">
  <path d="M29.9 11.875a8.038 8.038 0 01-2.362 5.188L17.413 27.188a1.987 1.987 0 01-2.825 0L4.2 16.8a7.488 7.488 0 01.288-10.875A7.213 7.213 0 019.875 4.1 8.05 8.05 0 0114.1 5.637a.5.5 0 01.063.763l-2.3 2.3a1 1 0 000 1.413l4.3 4.287-1.875 1.888a.987.987 0 000 1.412 1 1 0 00.7.288c.265-.002.52-.104.712-.288l2.588-2.587a1 1 0 000-1.413l-4.3-4.3L16.7 6.7l.5-.5a7.488 7.488 0 0110.875.287 7.212 7.212 0 011.825 5.388z"/>
</svg>
