<svg xmlns="http://www.w3.org/2000/svg" viewBox="0 0 32 32" fill="currentColor" aria-hidden="true">
  <path d="M29.5 11.5c0 3.825-2.212 7.75-6.575 11.675a39.289 39.289 0 01-6.438 4.7 1.012 1.012 0 01-.974 0c-.4-.225-7.55-4.288-11.075-10.113A.5.5 0 014.862 17H9a.987.987 0 00.838-.45L11 14.8l3.162 4.75a1.013 1.013 0 001.15.4 1.1 1.1 0 00.538-.412L17.538 17h2.424A1.025 1.025 0 0021 16.062 1 1 0 0020 15h-3a.987.987 0 00-.837.45L15 17.2l-3.162-4.75a1.013 1.013 0 00-1.15-.4 1.1 1.1 0 00-.538.412L8.462 15H3.476A.5.5 0 013 14.65a10.775 10.775 0 01-.5-3.15A7.5 7.5 0 0116 7a7.5 7.5 0 0113.5 4.5z"/>
</svg>
