<svg xmlns="http://www.w3.org/2000/svg" viewBox="0 0 32 32" fill="currentColor" aria-hidden="true">
  <path d="M27 5H5a2 2 0 00-2 2v18a2 2 0 002 2h22a2 2 0 002-2V7a2 2 0 00-2-2zM15.637 21.962a1 1 0 01-1.225-.712 3 3 0 00-5.8 0 1.012 1.012 0 01-.974.75l-.25-.038a.987.987 0 01-.713-1.212 5.025 5.025 0 012.038-2.9 4 4 0 115.6 0 5.025 5.025 0 012.037 2.9.987.987 0 01-.713 1.212zM24 19h-5a1 1 0 010-2h5a1 1 0 010 2zm0-4h-5a1 1 0 010-2h5a1 1 0 010 2z"/>
  <path d="M11.512 17a2 2 0 100-4 2 2 0 000 4z"/>
</svg>
