<svg xmlns="http://www.w3.org/2000/svg" viewBox="0 0 32 32" fill="currentColor" aria-hidden="true">
  <path d="M29.962 11h-1.6l-.75-5.287A2 2 0 0025.639 4H6.361a2 2 0 00-1.974 1.713L3.638 11h-1.6A1.025 1.025 0 001 11.938 1 1 0 002 13h1.5v13a2 2 0 002 2h3a2 2 0 002-2v-3h2a.5.5 0 00.5-.5v-6.462A1.025 1.025 0 0113.938 15 1 1 0 0115 16v6.5a.5.5 0 00.5.5h1a.5.5 0 00.5-.5v-6.462A1.025 1.025 0 0117.938 15 1 1 0 0119 16v6.5a.5.5 0 00.5.5h2v3a2 2 0 002 2h3a2 2 0 002-2V13H30a1 1 0 001-1.063A1.025 1.025 0 0029.962 11zM9 18a1.5 1.5 0 110-3 1.5 1.5 0 010 3zm14 0a1.5 1.5 0 110-3 1.5 1.5 0 010 3z"/>
</svg>
