<svg xmlns="http://www.w3.org/2000/svg" viewBox="0 0 32 32" fill="currentColor" aria-hidden="true">
  <path d="M28.975 4.025a3.513 3.513 0 00-4.962.012L2.288 26.3a1 1 0 00.487 1.675c1.435.333 2.903.501 4.375.5 4.175 0 8.35-1.363 12.288-4.025A29.004 29.004 0 0025.8 18.6a1.012 1.012 0 00-.087-1.313l-2.35-2.337 5.625-5.988a3.5 3.5 0 00-.013-4.937zM23.65 18.063a28.382 28.382 0 01-5.387 4.774c-4.313 2.9-8.75 4.076-13.225 3.513l13.287-13.613 2.913 2.913c.012.012.025.037.05.05h.012l2.35 2.363z"/>
</svg>
