<svg xmlns="http://www.w3.org/2000/svg" viewBox="0 0 32 32" fill="currentColor" aria-hidden="true">
  <path d="M26.937 26.663L20.562 9.125 21.7 6H23a1 1 0 100-2H11a1 1 0 100 2h.575L4.062 26.663a.988.988 0 00.6 1.274.988.988 0 001.275-.6L7.15 24h5.875l-.963 2.663a.988.988 0 00.6 1.274.988.988 0 001.275-.6L16.25 21h6.5l2.312 6.337a.988.988 0 001.275.6.988.988 0 00.6-1.274zM15.937 16h-5.875l1.45-4h5.875l-1.45 4zm3.638-10l-1.013 2.787-.45 1.213H12.25l1.45-4h5.875zM7.887 22l1.45-4h5.875l-1.462 4H7.887zm9.088-3l2.525-6.95L22.025 19h-5.05z"/>
</svg>
