<svg xmlns="http://www.w3.org/2000/svg" viewBox="0 0 32 32" fill="currentColor" aria-hidden="true">
  <path d="M28 4.937A1.012 1.012 0 0027.061 4c-9.538-.563-17.175 2.312-20.438 7.7a10.912 10.912 0 00-1.6 6.137c.075 1.988.65 4.013 1.725 6l12.538-12.55a1.013 1.013 0 011.425 1.425L8.162 25.25c1.987 1.075 4.012 1.65 6 1.725h.412c2.02.009 4.003-.545 5.725-1.6 5.388-3.262 8.263-10.9 7.7-20.438z"/>
  <path d="M7.137 24.512c-.137-.225-.262-.45-.387-.675l-2.463 2.45a1.013 1.013 0 000 1.425 1.025 1.025 0 001.425 0l2.45-2.462-.675-.388c-.14-.09-.26-.21-.35-.35z"/>
</svg>
