<svg xmlns="http://www.w3.org/2000/svg" viewBox="0 0 32 32" fill="currentColor" aria-hidden="true">
  <path d="M25.276 25.1a12.975 12.975 0 000-18.2.288.288 0 00-.087-.088.288.288 0 00-.088-.087 12.975 12.975 0 00-18.2 0 .288.288 0 00-.087.087.288.288 0 00-.088.088 12.975 12.975 0 000 18.2l.088.087a.289.289 0 00.087.088 12.975 12.975 0 0018.2 0 .289.289 0 00.088-.087.289.289 0 00.087-.088zM12.001 16a4 4 0 114 4 4.012 4.012 0 01-4-4zM23.04 7.55l-3.563 3.563a5.987 5.987 0 00-6.95 0L8.964 7.55a10.988 10.988 0 0114.075 0zM8.964 24.45l3.562-3.563a5.987 5.987 0 006.95 0l3.563 3.563a10.988 10.988 0 01-14.075 0z"/>
</svg>
