<svg xmlns="http://www.w3.org/2000/svg" viewBox="0 0 32 32" fill="currentColor" aria-hidden="true">
  <path d="M22 29a1 1 0 01-1 1H11a1 1 0 110-2h10a1 1 0 011 1zm5-16a10.963 10.963 0 01-4.2 8.65 2.013 2.013 0 00-.8 1.6V24a2 2 0 01-2 2h-8a2 2 0 01-2-2v-.75a2.025 2.025 0 00-.775-1.587A10.975 10.975 0 015 13.063C4.963 7.1 9.788 2.137 15.738 2A10.988 10.988 0 0127 13zm-4.1-1.175a6.974 6.974 0 00-5.725-5.712 1.001 1.001 0 00-.325 1.975 4.962 4.962 0 014.075 4.075 1 1 0 00.988.825h.175a.986.986 0 00.812-1.163z"/>
</svg>
