<svg xmlns="http://www.w3.org/2000/svg" viewBox="0 0 32 32" fill="currentColor" aria-hidden="true">
  <path d="M22 29a1 1 0 01-1 1H11a1 1 0 110-2h10a1 1 0 011 1zm5-16a10.963 10.963 0 01-4.2 8.65 2.013 2.013 0 00-.8 1.6V24a2 2 0 01-2 2h-8a2 2 0 01-2-2v-.75a2.025 2.025 0 00-.775-1.587A10.975 10.975 0 015 13.063C4.963 7.1 9.788 2.137 15.738 2A10.988 10.988 0 0127 13zm-6.287.287a1.012 1.012 0 00-1.425 0L16 16.587l-3.287-3.3a1.013 1.013 0 00-1.425 1.425l3.712 3.7V23a1 1 0 002 0v-4.587l3.713-3.7a1.012 1.012 0 000-1.425z"/>
</svg>
