<svg xmlns="http://www.w3.org/2000/svg" viewBox="0 0 32 32" fill="currentColor" aria-hidden="true">
  <path d="M6.737 4.325a1 1 0 00-1.475 1.35l4.9 5.388-4.887 5.25a.988.988 0 00-.025 1.345c.109.124.246.22.4.28l7.2 2.7-1.825 9.162a1.013 1.013 0 00.512 1.088c.144.072.302.11.462.112a.96.96 0 00.726-.325l7.737-8.275 4.8 5.275a1 1 0 001.412.063.987.987 0 00.063-1.413l-20-22zM22.476 18.662a1 1 0 00.725.325h.013a.964.964 0 00.725-.325l2.787-2.987a.988.988 0 00-.375-1.613l-7.2-2.7 1.825-9.175a1 1 0 00-1.7-.875l-5.737 6.15a.988.988 0 00-.013 1.35l8.95 9.85z"/>
</svg>
