<svg xmlns="http://www.w3.org/2000/svg" viewBox="0 0 32 32" fill="currentColor" aria-hidden="true">
  <path d="M29.825 9.825A3.951 3.951 0 0127 11c-.32 0-.639-.037-.95-.113l-3.337 6.175.112.113a3.986 3.986 0 010 5.65 3.987 3.987 0 01-5.65 0 4 4 0 01-.625-4.863l-2.512-2.512A4.089 4.089 0 0112 16c-.32 0-.639-.037-.95-.113l-3.337 6.175.112.113a3.987 3.987 0 010 5.65 3.987 3.987 0 01-5.65 0 3.989 3.989 0 010-5.65 4.012 4.012 0 013.775-1.063l3.338-6.174-.113-.113a3.989 3.989 0 010-5.65 4 4 0 016.275 4.862l2.513 2.513a4.05 4.05 0 012.987-.438l3.338-6.175-.113-.112a3.988 3.988 0 010-5.65 4 4 0 015.65 5.65z"/>
</svg>
