<svg xmlns="http://www.w3.org/2000/svg" viewBox="0 0 32 32" fill="currentColor" aria-hidden="true">
  <path d="M26.249 5.75a6.477 6.477 0 00-9.188 0l-2.475 2.475A1 1 0 0016 9.638l2.475-2.475a4.512 4.512 0 017.341 1.458 4.489 4.489 0 01-.979 4.904L21.3 17.063a4.512 4.512 0 01-6.363 0 1.001 1.001 0 10-1.412 1.412 6.5 6.5 0 009.187 0l3.538-3.537a6.475 6.475 0 000-9.188z"/>
  <path d="M16.001 22.362l-2.475 2.475a4.5 4.5 0 01-6.362-6.362l3.537-3.538a4.513 4.513 0 016.363 0 1 1 0 001.412-1.412 6.5 6.5 0 00-9.187 0L5.75 17.062a6.5 6.5 0 109.188 9.188l2.475-2.475A1 1 0 0016 22.362z"/>
</svg>
