<svg xmlns="http://www.w3.org/2000/svg" viewBox="0 0 32 32" fill="currentColor" aria-hidden="true">
  <path d="M17.411 21.663l-3.537 3.524a4.961 4.961 0 01-7.063 0 5 5 0 010-7.062l3.525-3.537a1 1 0 00-1.412-1.413l-3.538 3.537a7 7 0 109.9 9.9l3.538-3.537a1 1 0 000-1.412.989.989 0 00-1.413 0zM26.613 5.387a7.001 7.001 0 00-9.9 0l-3.538 3.538a1 1 0 001.412 1.412l3.538-3.525a4.962 4.962 0 017.063 0 5 5 0 010 7.063l-3.525 3.537a.989.989 0 000 1.413.963.963 0 00.7.3 1 1 0 00.712-.3l3.538-3.538a7.013 7.013 0 000-9.9z"/>
</svg>
