<svg xmlns="http://www.w3.org/2000/svg" viewBox="0 0 32 32" fill="currentColor" aria-hidden="true">
  <path d="M11 9V6a1 1 0 012 0v3a1 1 0 01-2 0zm9 13a1 1 0 00-1 1v3a1 1 0 002 0v-3a1 1 0 00-1-1zM6 13h3a1 1 0 000-2H6a1 1 0 000 2zm20 6h-3a1 1 0 000 2h3a1 1 0 000-2zm-10.762 3.413l-1.413 1.412a4 4 0 01-5.65-5.65l1.412-1.413a1.013 1.013 0 000-1.425 1 1 0 00-1.412 0l-1.413 1.425a5.993 5.993 0 008.476 8.476l1.425-1.413a1 1 0 00-.713-1.706c-.267 0-.523.106-.712.294zm8.587-14.238a3.987 3.987 0 010 5.65l-1.412 1.413a1.012 1.012 0 000 1.425c.192.183.447.286.712.287a1 1 0 00.7-.287l1.413-1.425a5.993 5.993 0 10-8.476-8.476l-1.425 1.413a1 1 0 00.713 1.706c.267 0 .523-.106.712-.293l1.413-1.413a3.988 3.988 0 015.65 0z"/>
</svg>
