<svg xmlns="http://www.w3.org/2000/svg" viewBox="0 0 32 32" fill="currentColor" aria-hidden="true">
  <path d="M20.15 27.213a.5.5 0 01-.412.787h-7.475a.5.5 0 01-.413-.787 5 5 0 018.3 0zm8.575.475a1.025 1.025 0 01-.75.312h-4.9a.512.512 0 01-.475-.337 7 7 0 00-13.2 0 .512.512 0 01-.475.337h-4.9a1 1 0 01-.887-1.5C3.175 26.438 7 19.625 7 12a9.012 9.012 0 019.063-9c4.95.038 8.925 4.113 8.937 9.063.025 7.6 3.825 14.375 3.863 14.437a.988.988 0 01-.138 1.188zM11 13.5a1.5 1.5 0 103.001 0 1.5 1.5 0 00-3 0zm9.9 4.05a1.025 1.025 0 00-1.35-.45L16 18.888 12.45 17.1a1.007 1.007 0 00-.9 1.8l4 2a1.062 1.062 0 00.9 0l4-2a1.025 1.025 0 00.45-1.35zm.1-4.05a1.5 1.5 0 10-3 0 1.5 1.5 0 003 0z"/>
</svg>
