<svg xmlns="http://www.w3.org/2000/svg" viewBox="0 0 32 32" fill="currentColor" aria-hidden="true">
  <path d="M28 16a1 1 0 01-1 1H13a1 1 0 010-2h14a1 1 0 011 1zM13 9h14a1 1 0 000-2H13a1 1 0 100 2zm14 14H13a1 1 0 100 2h14a1 1 0 000-2zM5.45 8.4L6 8.112V13.5a1 1 0 002 0v-7a.987.987 0 00-.475-.85 1 1 0 00-.975-.05l-2 1a1.006 1.006 0 00.9 1.8zm3.575 12.888c.312-.453.478-.99.475-1.538a2.75 2.75 0 00-5.287-1.075 1.005 1.005 0 001.85.787A.725.725 0 016.75 19a.75.75 0 01.75.75.713.713 0 01-.112.4L4.2 24.4A1 1 0 005 26h3.5a1 1 0 000-2H7l2-2.675.025-.037z"/>
</svg>
