<svg xmlns="http://www.w3.org/2000/svg" viewBox="0 0 32 32" fill="currentColor" aria-hidden="true">
  <path d="M28 16a1 1 0 01-1 1H16a1 1 0 010-2h11a1 1 0 011 1zM16 9h11a1 1 0 100-2H16a1 1 0 000 2zm11 14H16a1 1 0 100 2h11a1 1 0 000-2zM10.825 5.262L7.163 8.637 5.675 7.262a1 1 0 00-1.35 1.475l2.163 2a1 1 0 00.675.263c.254 0 .499-.093.687-.262l4.325-4a1 1 0 10-1.35-1.476zm0 8l-3.662 3.375-1.488-1.375a1 1 0 10-1.35 1.476l2.163 2a1 1 0 00.675.262c.254 0 .499-.093.687-.262l4.325-4a1 1 0 10-1.35-1.476zm0 8l-3.662 3.375-1.488-1.375a1 1 0 10-1.35 1.476l2.163 2a1 1 0 00.675.262c.254 0 .499-.093.687-.262l4.325-4a1 1 0 00-1.35-1.476z"/>
</svg>
