<svg xmlns="http://www.w3.org/2000/svg" viewBox="0 0 32 32" fill="currentColor" aria-hidden="true">
  <path d="M31 19a1 1 0 01-1 1h-2v2a1 1 0 11-2 0v-2h-2a1 1 0 010-2h2v-2a1 1 0 012 0v2h2a1 1 0 011 1zM8 8.5h1.5V10a1 1 0 102 0V8.5H13a1 1 0 100-2h-1.5V5a1 1 0 10-2 0v1.5H8a1 1 0 000 2zM23 24h-1v-1a1 1 0 10-2 0v1h-1a1 1 0 100 2h1v1a1 1 0 002 0v-1h1a1 1 0 000-2zm-.288-9.287L9.412 28a1.988 1.988 0 01-2.825 0l-2.588-2.587a1.987 1.987 0 010-2.826L22.587 4a2.013 2.013 0 012.825 0l2.587 2.587a1.987 1.987 0 010 2.825l-5.287 5.3zM19.412 10l2.587 2.588L26.587 8l-2.588-2.588L19.412 10z"/>
</svg>
