<svg xmlns="http://www.w3.org/2000/svg" viewBox="0 0 32 32" fill="currentColor" aria-hidden="true">
  <path d="M25.874 6.275A10.962 10.962 0 0018.074 3h-.037a10.913 10.913 0 00-7.788 3.225l-4.212 4.263-4.05 4.1a2.012 2.012 0 00.012 2.825l3.575 3.575a1.949 1.949 0 001.413.587h.012a1.975 1.975 0 001.425-.6l4-4.1 4.2-4.287a2.013 2.013 0 012.8-.025 1.96 1.96 0 01.588 1.4c.002.56-.218 1.1-.613 1.5l-4.262 4.125-4.1 3.987a1.988 1.988 0 00-.025 2.85l3.575 3.588a2.037 2.037 0 002.825.012l4.112-4.05 4.2-4.112c4.3-4.3 4.375-11.288.15-15.588zm-18.887 13.3L3.412 16l3.337-3.387 3.563 3.562-3.325 3.4zm9.025 9.013l-3.588-3.575 3.413-3.313 3.562 3.563-3.387 3.325z"/>
</svg>
