<svg xmlns="http://www.w3.org/2000/svg" viewBox="0 0 32 32" fill="currentColor" aria-hidden="true">
  <path d="M25.188 6.812a12.975 12.975 0 00-18.375 0 12.975 12.975 0 000 18.375 12.976 12.976 0 0018.375 0 12.976 12.976 0 000-18.375zM11.001 25.8V22h10v3.8a11.1 11.1 0 01-10 0zm2-8.8h6v3h-6v-3zm10.775 6.775c-.25.25-.513.488-.775.713V22a2 2 0 00-2-2v-3a2 2 0 00-1.713-1.975l-1.337-5.863a2 2 0 00-3.9 0l-1.338 5.863A2 2 0 0011.001 17v3a2 2 0 00-2 2v2.488a13.756 13.756 0 01-.775-.713 11 11 0 1115.55 0z"/>
</svg>
