<svg xmlns="http://www.w3.org/2000/svg" viewBox="0 0 32 32" fill="currentColor" aria-hidden="true">
  <path d="M27.125 4.388a1.988 1.988 0 00-1.85-.213C23.525 4.863 19.975 6 16 6c-3.975 0-7.525-1.137-9.275-1.825A2 2 0 004 6.038V13c0 4.475 1.213 8.688 3.4 11.875C9.588 28.063 12.725 30 16 30c3.275 0 6.337-1.813 8.6-5.125C26.862 21.562 28 17.475 28 13V6.038a1.987 1.987 0 00-.875-1.65zm-18.6 11.274A1 1 0 018.6 14.25a.999.999 0 011.412.088 2 2 0 002.976 0 1 1 0 011.412-.088 1 1 0 01.075 1.412 3.974 3.974 0 01-5.95 0zM20.15 23.55a1.012 1.012 0 01-1.387.287 4.975 4.975 0 00-5.526 0 .998.998 0 01-1.387-.287 1.013 1.013 0 01.275-1.387 7.038 7.038 0 017.75 0 1.012 1.012 0 01.275 1.387zm3.325-7.888a3.974 3.974 0 01-5.95 0 1.001 1.001 0 01.075-1.412 1 1 0 011.412.088 2 2 0 002.976 0 1 1 0 011.412-.088 1 1 0 01.075 1.412z"/>
</svg>
