<svg xmlns="http://www.w3.org/2000/svg" viewBox="0 0 32 32" fill="currentColor" aria-hidden="true">
  <path d="M27.125 4.388a1.988 1.988 0 00-1.85-.213C23.525 4.863 19.975 6 16 6c-3.975 0-7.525-1.137-9.275-1.825A2 2 0 004 6.038V13c0 4.475 1.213 8.688 3.4 11.875C9.588 28.063 12.725 30 16 30c3.275 0 6.337-1.813 8.6-5.125C26.862 21.562 28 17.475 28 13V6.038a1.987 1.987 0 00-.875-1.65zM10.012 16.663a1 1 0 01-1.412.087 1 1 0 01-.075-1.412 3.975 3.975 0 015.95 0 1.002 1.002 0 01-.075 1.412 1.012 1.012 0 01-1.074.162 1 1 0 01-.338-.25 2 2 0 00-2.976 0zm9.863 6.174a7.037 7.037 0 01-7.75 0 1.012 1.012 0 01-.001-1.666 1 1 0 011.114-.008 4.974 4.974 0 005.524 0 1 1 0 011.388.287 1.013 1.013 0 01-.275 1.387zM23.4 16.75a1.012 1.012 0 01-1.074.162 1 1 0 01-.338-.25 2 2 0 00-2.976 0 1 1 0 01-1.412.088 1 1 0 01-.075-1.412 3.976 3.976 0 015.95 0 1.002 1.002 0 01-.075 1.412z"/>
</svg>
