<svg xmlns="http://www.w3.org/2000/svg" viewBox="0 0 32 32" fill="currentColor" aria-hidden="true">
  <path d="M13 22h-3v-3a1 1 0 10-2 0v3H5a1 1 0 000 2h3v3a1 1 0 102 0v-3h3a1 1 0 000-2zM13 8H5a1 1 0 000 2h8a1 1 0 100-2zM19 22.012h8a1 1 0 000-2h-8a1 1 0 100 2zM27 23.988h-8a1 1 0 000 2h8a1 1 0 100-2zM19.287 12.713a1.025 1.025 0 001.425 0l2.288-2.3 2.287 2.3a1.025 1.025 0 001.425 0 1.013 1.013 0 000-1.425L24.412 9l2.3-2.288a1.013 1.013 0 00-1.425-1.425L23 7.587l-2.288-2.3a1.013 1.013 0 00-1.425 1.425L21.587 9l-2.3 2.287a1.012 1.012 0 000 1.425z"/>
</svg>
