<svg xmlns="http://www.w3.org/2000/svg" viewBox="0 0 32 32" fill="currentColor" aria-hidden="true">
  <path d="M30 15a6 6 0 00-6-6h-5c-.062 0-6.55-.088-12.712-5.263a1.987 1.987 0 00-2.138-.275A1.963 1.963 0 003 5.275v19.45a1.962 1.962 0 001.15 1.812c.267.123.557.187.85.188.47.003.927-.16 1.288-.463 4.737-3.975 9.65-4.95 11.712-5.187v4.387a1.988 1.988 0 00.888 1.663l1.375.925a2.098 2.098 0 001.837.2 1.987 1.987 0 001.213-1.388L24.8 20.95A6.025 6.025 0 0030 15zm-8.625 11.375L20 25.462V21h2.725l-1.35 5.375zM24 19h-4v-8h4a4 4 0 110 8z"/>
</svg>
