<svg xmlns="http://www.w3.org/2000/svg" viewBox="0 0 32 32" fill="currentColor" aria-hidden="true">
  <path d="M12.75 15a1 1 0 00-1-1h-1v2h1a1 1 0 001-1z"/>
  <path d="M17 3A13.063 13.063 0 006.75 8H5a2 2 0 00-2 2v12a2 2 0 002 2h1.75A13 13 0 1017 3zM8.75 19v-6a1 1 0 011-1h2a3 3 0 010 6h-1v1a1 1 0 01-2 0zM16 26.95A11.088 11.088 0 019.45 24H16v2.95zM16 8H9.45A11.088 11.088 0 0116 5.05V8zm2-2.95A11 11 0 0127.95 15H20v-5a2 2 0 00-2-2V5.05zm0 21.9V24a2 2 0 002-2v-5h7.95A11 11 0 0118 26.95z"/>
</svg>
