<svg xmlns="http://www.w3.org/2000/svg" viewBox="0 0 32 32" fill="currentColor" aria-hidden="true">
  <path d="M12 11c-.002.322.015.643.05.963L2.7 24.712a2 2 0 00.2 2.6L4.688 29.1a2 2 0 002.6.2l12.75-9.35a8.988 8.988 0 006.1-1.563.5.5 0 00.062-.762L14.375 5.8a.5.5 0 00-.762.063A8.988 8.988 0 0012 11zm2.213 8.212l-2.5 2.5a1.025 1.025 0 01-1.425 0 1.012 1.012 0 010-1.424l2.5-2.5a1.013 1.013 0 011.425 1.424zM29.988 10.5a9 9 0 01-1.6 5.637.499.499 0 01-.763.063L15.8 4.375a.501.501 0 01.063-.762A9 9 0 0129.988 10.5z"/>
</svg>
