<svg xmlns="http://www.w3.org/2000/svg" viewBox="0 0 32 32" fill="currentColor" aria-hidden="true">
  <path d="M27.413 10h-.563a4.187 4.187 0 00.65-2.25 4.25 4.25 0 00-6.425-3.65A5 5 0 0012.1 8H5a2 2 0 00-2 2v12a2 2 0 002 2h4.588a8 8 0 0014.837-.025A5 5 0 0029 19v-7.412A1.589 1.589 0 0027.413 10zM17 4a3.013 3.013 0 013 3 3.037 3.037 0 01-.512 1.675A1.988 1.988 0 0018 8h-3.825A3.062 3.062 0 0114 7a3.012 3.012 0 013-3zm-6.5 15v-5H9.25a1 1 0 110-2h4.5a1 1 0 010 2H12.5v5a1 1 0 01-2 0zM23 21a6 6 0 01-6 6 6.062 6.062 0 01-5.2-3H18a2 2 0 002-2V12h3v9zm.25-11a2.25 2.25 0 01-1.75-.837 4.9 4.9 0 00.387-3.2c.39-.302.87-.465 1.363-.463a2.25 2.25 0 010 4.5zM27 19a3 3 0 01-2.05 2.837c.036-.277.052-.557.05-.837v-9h2v7z"/>
</svg>
