<svg xmlns="http://www.w3.org/2000/svg" viewBox="0 0 32 32" fill="currentColor" aria-hidden="true">
  <path d="M26.737 26.325l-20-22a1 1 0 00-1.475 1.35l4.737 5.212V16a6 6 0 009.238 5.05l1.362 1.5a8 8 0 01-12.55-5.663 1 1 0 00-1.987.226 9.988 9.988 0 008.937 8.837V29a1 1 0 102 0v-3.05a9.9 9.9 0 004.95-1.912l3.313 3.637a.998.998 0 001.412.063.986.986 0 00.063-1.413zM20.263 16.225a.987.987 0 00.737.325.926.926 0 00.363-.062A1 1 0 0022 15.55V8a6 6 0 00-6-6 5.938 5.938 0 00-5.1 2.85 1 1 0 00.1 1.2l9.263 10.175zM24.025 20.212c.117.04.24.061.363.063a.975.975 0 00.925-.637c.319-.81.53-1.66.625-2.526a1 1 0 00-1.988-.224 7.514 7.514 0 01-.5 2.024 1.012 1.012 0 00.575 1.3z"/>
</svg>
