<svg xmlns="http://www.w3.org/2000/svg" viewBox="0 0 32 32" fill="currentColor" aria-hidden="true">
  <path d="M25 3H9a2 2 0 00-2 2v3H5a2 2 0 00-2 2v12a2 2 0 002 2h2v3a2 2 0 002 2h16a2 2 0 002-2V5a2 2 0 00-2-2zM8.525 19.238l-1.5-6a1.004 1.004 0 011.95-.476l.787 3.175.825-1.837a1 1 0 011.825 0l.825 1.838.788-3.176a1.004 1.004 0 011.95.476l-1.5 6a1.012 1.012 0 01-.887.762H13.5a.988.988 0 01-.912-.6L11.5 16.962 10.412 19.4a1 1 0 01-1 .6 1.012 1.012 0 01-.887-.762zM25 27H9v-3h9a2 2 0 002-2v-1h5v6zm0-8h-5v-6h5v6zm0-8h-5v-1a2 2 0 00-2-2H9V5h16v6z"/>
</svg>
