<svg xmlns="http://www.w3.org/2000/svg" viewBox="0 0 32 32" fill="currentColor" aria-hidden="true">
  <path d="M29 7a1 1 0 01-1 1h-2v2a1 1 0 01-2 0V8h-2a1 1 0 110-2h2V4a1 1 0 012 0v2h2a1 1 0 011 1zm-3 6.9a1 1 0 00-1 1v2.862A4.413 4.413 0 0022.5 17a4.5 4.5 0 104.5 4.5v-6.6a1 1 0 00-1-1zm-5.7-1.463a.988.988 0 00.548-1.163 1.037 1.037 0 00-.248-.449 1.127 1.127 0 00-.325-.212A4.037 4.037 0 0118 7c0-.196.013-.393.038-.588a.986.986 0 00-.7-1.137 1.013 1.013 0 00-.526-.013l-7.05 1.763A1 1 0 009 8v13.762A4.413 4.413 0 006.5 21a4.5 4.5 0 104.5 4.5V14.775l9.1-2.275.2-.063z"/>
</svg>
