<svg xmlns="http://www.w3.org/2000/svg" viewBox="0 0 32 32" fill="currentColor" aria-hidden="true">
  <path d="M9 13h4v6H9v-6zm20-6v20a.988.988 0 01-.475.85 1 1 0 01-.975.05L24 26.113 20.45 27.9a1.062 1.062 0 01-.9 0L16 26.113 12.45 27.9a1.037 1.037 0 01-.9 0L8 26.113 4.45 27.9a1 1 0 01-.975-.05A.988.988 0 013 27V7a2 2 0 012-2h22a2 2 0 012 2zm-14 5a1 1 0 00-1-1H8a1 1 0 00-1 1v8a1 1 0 001 1h6a1 1 0 001-1v-8zm10 6a1 1 0 00-1-1h-6a1 1 0 000 2h6a1 1 0 001-1zm0-4a1 1 0 00-1-1h-6a1 1 0 000 2h6a1 1 0 001-1z"/>
</svg>
