<svg xmlns="http://www.w3.org/2000/svg" viewBox="0 0 32 32" fill="currentColor" aria-hidden="true">
  <path d="M21.987 16.25a8.601 8.601 0 00-2.05-1.425 7.415 7.415 0 001.237-.925 6.699 6.699 0 000-9.887 7.662 7.662 0 00-10.35 0 6.701 6.701 0 000 9.887c.38.35.794.66 1.238.925a8.601 8.601 0 00-2.05 1.425 7.738 7.738 0 000 11.413 8.837 8.837 0 0011.975 0 7.736 7.736 0 000-11.413zm-9.788-3.813a4.689 4.689 0 010-6.962 5.638 5.638 0 017.6 0 4.686 4.686 0 010 6.963 5.637 5.637 0 01-7.6 0zm8.425 13.775a6.875 6.875 0 01-9.25 0 5.75 5.75 0 010-8.5 6.838 6.838 0 019.25 0 5.75 5.75 0 010 8.5z"/>
</svg>
