<svg xmlns="http://www.w3.org/2000/svg" viewBox="0 0 32 32" fill="currentColor" aria-hidden="true">
  <path d="M17.238 13.988a1.75 1.75 0 10-2.476 0 1.788 1.788 0 002.476 0zM16 16.5a2.25 2.25 0 00-1.587 3.837 2.3 2.3 0 003.175 0 2.25 2.25 0 00-1.587-3.837z"/>
  <path d="M26 4H6a2 2 0 00-2 2v20a2 2 0 002 2h20a2 2 0 002-2V6a2 2 0 00-2-2zm-7 17.75a4.243 4.243 0 01-6-6c.12-.118.25-.227.387-.325l-.037-.025a3.737 3.737 0 010-5.3c1.412-1.412 3.888-1.412 5.3 0a3.737 3.737 0 010 5.3l-.037.025c.137.098.266.207.387.325a4.224 4.224 0 010 6z"/>
</svg>
