<svg xmlns="http://www.w3.org/2000/svg" viewBox="0 0 32 32" fill="currentColor" aria-hidden="true">
  <path d="M22.988 18.5a1.5 1.5 0 11-3 0 1.5 1.5 0 013 0zm3.675 2.163A10.963 10.963 0 0115.988 29a10.837 10.837 0 01-4.325-.887l-.15-.063a11.05 11.05 0 01-6.438-8.663 12.487 12.487 0 01-.087-1.375 10.912 10.912 0 011.762-5.975 4.5 4.5 0 012-8.537c.152.002.3.036.438.1l14.275 6.888A2.5 2.5 0 0023.25 5.5a1 1 0 010-2 4.5 4.5 0 110 9 1.063 1.063 0 01-.437-.1L15.788 9A9.012 9.012 0 007 17.663l4.513-2.413 4.012-2.137a1 1 0 011.463.887v12.938a8.962 8.962 0 007.737-6.763 1 1 0 011.938.488zm-11.675-5l-2 1.075v9.75a8.939 8.939 0 002 .45V15.662zM8.05 10.4a10.925 10.925 0 014.638-2.887l-4.15-2A2.5 2.5 0 008.05 10.4zm2.938 15.075V17.8l-3.813 2.037a9.013 9.013 0 003.813 5.638z"/>
</svg>
