<svg xmlns="http://www.w3.org/2000/svg" viewBox="0 0 32 32" fill="currentColor" aria-hidden="true">
  <path d="M28.738 8.85a.012.012 0 01-.01-.004 2.025 2.025 0 00-.754-.746L16.976 1.912a2 2 0 00-1.95 0l-11 6.188a2.025 2.025 0 00-.754.746.013.013 0 01-.008.004v.025A1.875 1.875 0 003 9.837v12.325a2.013 2.013 0 001.025 1.75l11 6.188c.277.151.585.236.9.25h.175c.307-.014.607-.1.875-.25l11-6.188A2.012 2.012 0 0029 22.162V9.837a1.95 1.95 0 00-.262-.987zM16 3.65l9.962 5.6-3.825 2.175L12.05 5.862 16 3.65zm.113 11.2L6.05 9.25 10 7.025l10.1 5.562-3.988 2.263zm.9 12.937l.1-11.2 4.012-2.287v4.762a1 1 0 002 0v-5.9l3.875-2.2v11.2l-9.988 5.625z"/>
</svg>
