<svg xmlns="http://www.w3.org/2000/svg" viewBox="0 0 32 32" fill="currentColor" aria-hidden="true">
  <path d="M32 25.5a3.5 3.5 0 11-7 0c0-2.875 2.675-5.587 2.787-5.712a1.025 1.025 0 011.425 0C29.325 19.913 32 22.625 32 25.5zm-15.438-9.938a1.498 1.498 0 00-1.062-2.56c-.398 0-.78.156-1.063.435a1.503 1.503 0 002.125 2.126zm12.313-.124a1.025 1.025 0 00-.3-.713L15.137 1.288a1 1 0 00-1.412 0L8.712 6.3l5.125 5.125a3.5 3.5 0 11-1.412 1.412L7.3 7.714l-5.588 5.6a3 3 0 000 4.25l10.6 10.6a3.013 3.013 0 004.25 0l12.013-12.026a1 1 0 00.3-.7zM5.437 3.024a1 1 0 00-1.412 1.413L7.3 7.713 8.712 6.3 5.437 3.025z"/>
</svg>
