<svg xmlns="http://www.w3.org/2000/svg" viewBox="0 0 32 32" fill="currentColor" aria-hidden="true">
  <path d="M28.825 3.175a3.989 3.989 0 00-5.65 0l-.038.038-6.862 7.65-1.15-1.15a2.988 2.988 0 00-4.25 0l-9.588 9.575a1.013 1.013 0 000 1.424l10 10a1.025 1.025 0 001.425 0l9.575-9.587a2.987 2.987 0 000-4.25l-1.15-1.15 7.65-6.862.038-.038a3.987 3.987 0 000-5.65zM12 28.588l-1.763-1.763 3.188-3.2a1 1 0 00-1.413-1.413l-3.187 3.2-2.088-2.087 3.188-3.2a1 1 0 00-1.413-1.413l-3.187 3.2L3.412 20 9 14.412 17.587 23 12 28.587z"/>
</svg>
