<svg xmlns="http://www.w3.org/2000/svg" viewBox="0 0 32 32" fill="currentColor" aria-hidden="true">
  <path d="M28.126 2.875c-2.663 0-5.663 1.475-8.888 4.362-2.262 2.025-4.2 4.338-5.537 6.088A7.51 7.51 0 004 20.5c0 3.9-2.025 5.637-2.125 5.725a.962.962 0 00-.313 1.1.975.975 0 00.938.675h9a7.512 7.512 0 007.175-9.7c1.75-1.338 4.062-3.275 6.087-5.538 2.888-3.225 4.363-6.225 4.363-8.887a1 1 0 00-1-1zM15.55 14.2c.362-.462.787-.987 1.275-1.563a9.426 9.426 0 012.537 2.538c-.575.487-1.1.912-1.562 1.275a7.425 7.425 0 00-2.25-2.25zm5.325-.362a11.637 11.637 0 00-2.713-2.713c2.45-2.65 5.75-5.55 8.85-6.138-.587 3.1-3.487 6.4-6.137 8.85z"/>
</svg>
