<svg xmlns="http://www.w3.org/2000/svg" viewBox="0 0 32 32" fill="currentColor" aria-hidden="true">
  <path d="M25.099 6.737A12.925 12.925 0 0015.999 3h-.138a13 13 0 00-4.187 25.262 4 4 0 005.325-3.774V24a2 2 0 012-2h5.775a3.963 3.963 0 003.9-3.113c.227-.983.336-1.99.325-3a12.862 12.862 0 00-3.9-9.15zM11.124 20.55a1.5 1.5 0 11-1.498-2.6 1.5 1.5 0 011.498 2.6zm.55-7.05a1.5 1.5 0 11-.55-2.05 1.513 1.513 0 01.55 2.05zm4.325-2.5a1.5 1.5 0 110-3 1.5 1.5 0 010 3zm6.375 3.05a1.5 1.5 0 11.55-2.05 1.513 1.513 0 01-.55 2.05z"/>
</svg>
