<svg xmlns="http://www.w3.org/2000/svg" viewBox="0 0 32 32" fill="currentColor" aria-hidden="true">
  <path d="M26.213 15.287a1.012 1.012 0 01-.013 1.425L15.95 26.95a7 7 0 01-9.9-9.9L18.463 4.475a4.999 4.999 0 018.211 5.438 5 5 0 01-1.136 1.624L13.125 24.112A2.976 2.976 0 0111 25a3 3 0 01-2.125-5.125L19.288 9.3a1 1 0 111.425 1.4L10.3 21.287A1 1 0 0010 22a1.01 1.01 0 001.713.712l12.4-12.587A2.975 2.975 0 0025 8a3 3 0 00-5.125-2.125l-12.4 12.587a5 5 0 107.063 7.075l10.25-10.25a1.012 1.012 0 011.425 0z"/>
</svg>
