<svg xmlns="http://www.w3.org/2000/svg" viewBox="0 0 32 32" fill="currentColor" aria-hidden="true">
  <path d="M29 15A13.025 13.025 0 0016 2 13.025 13.025 0 003 15a1.025 1.025 0 00.4.8L15 24.5V27h-1a1 1 0 000 2h4a1 1 0 000-2h-1v-2.5l11.6-8.7a1.025 1.025 0 00.4-.8zm-2.05-1h-4.975c-.188-4.738-1.738-7.8-3.138-9.625A11.012 11.012 0 0126.95 14zm-7.65 2L16 21.938 12.7 16h6.6zm-8.888 0l2.438 4.387L7 16h3.412zm11.175 0H25l-5.85 4.387L21.588 16zM13.162 4.375c-1.4 1.825-2.95 4.887-3.137 9.625H5.05a11.012 11.012 0 018.113-9.625z"/>
</svg>
