<svg xmlns="http://www.w3.org/2000/svg" viewBox="0 0 32 32" fill="currentColor" aria-hidden="true">
  <path d="M6 7v18a1 1 0 11-2 0V7a1 1 0 012 0zm10.5 6.813l-2.5.812V12a1 1 0 00-2 0v2.625l-2.5-.813a.975.975 0 00-1.25.638.988.988 0 00.637 1.263l2.5.812-1.55 2.125a1 1 0 00.972 1.574c.261-.043.496-.186.654-.399L13 17.7l1.537 2.125a1.013 1.013 0 001.4.225 1 1 0 00.226-1.4l-1.55-2.125 2.5-.812a.986.986 0 00.637-1.263.973.973 0 00-1.25-.637zm13.25.637a.973.973 0 00-1.25-.637l-2.5.812V12a1 1 0 00-2 0v2.625l-2.5-.813a.975.975 0 00-1.25.638.988.988 0 00.637 1.263l2.5.812-1.55 2.125a1 1 0 00.971 1.574c.262-.043.497-.186.654-.399L25 17.7l1.538 2.125a1.013 1.013 0 001.4.225 1 1 0 00.225-1.4l-1.55-2.125 2.5-.812a.986.986 0 00.637-1.263z"/>
</svg>
