<svg xmlns="http://www.w3.org/2000/svg" viewBox="0 0 32 32" fill="currentColor" aria-hidden="true">
  <path d="M26.7 23.363A12.862 12.862 0 0029 16a13 13 0 10-26 0 12.862 12.862 0 002.3 7.363l.05.1.05.05a12.987 12.987 0 0021.2 0l.05-.05a.375.375 0 00.05-.1zM27 16c.004 1.916-.496 3.8-1.45 5.462L17 15.475V5.05A11.012 11.012 0 0127 16zM15 5.05v10.425l-8.55 5.987A11 11 0 0115 5.05zM7.6 23.1l7.4-5.175v9.025a10.987 10.987 0 01-7.4-3.85zm9.4 3.85v-9.025l7.4 5.175a10.987 10.987 0 01-7.4 3.85z"/>
</svg>
