<svg xmlns="http://www.w3.org/2000/svg" viewBox="0 0 32 32" fill="currentColor" aria-hidden="true">
  <path d="M28.587 11A1.988 1.988 0 0028 9.587L22.413 4a2.012 2.012 0 00-2.826 0l-15 15a2 2 0 00-.45.675l-.037.1c-.066.206-.1.421-.1.638V26a2 2 0 002 2h5.588c.217.001.433-.037.637-.113l.1-.024a2 2 0 00.675-.45L23.462 16.95l.425 1.738-4.6 4.6a1.012 1.012 0 000 1.424 1.025 1.025 0 001.425 0l5-5a1.063 1.063 0 00.263-.95l-.863-3.45 2.888-2.9A1.987 1.987 0 0028.587 11zM24 13.588L18.413 8 21 5.412 26.587 11 24 13.588z"/>
</svg>
