<svg xmlns="http://www.w3.org/2000/svg" viewBox="0 0 32 32" fill="currentColor" aria-hidden="true">
  <path d="M25.188 6.813a12.975 12.975 0 00-18.375 0 12.975 12.975 0 000 18.375 12.974 12.974 0 0018.375 0 12.976 12.976 0 000-18.375zm-9.187 14.55a3.989 3.989 0 00-4.038-1.225L13.876 16h4.25l1.912 4.138a3.988 3.988 0 00-4.037 1.225zm5 4.437a11.124 11.124 0 01-4 1.15V24a2 2 0 014 0v1.8zm2.775-2.025c-.25.25-.513.488-.775.713V22a1.225 1.225 0 00-.088-.425l-6-13h-.012a.51.51 0 00-.063-.112c0-.013 0-.013-.012-.025l-.063-.088h-.012a.575.575 0 00-.088-.087h-.025l-.087-.075h-.025l-.1-.063h-.013l-.112-.037h-.038l-.112-.025h-.3l-.125.025H15.7l-.1.037h-.025l-.113.05h-.012l-.088.075h-.025l-.087.088h-.013l-.062.087-.025.025a.51.51 0 01-.063.113l-2.762 6-3.238 7.012c-.054.135-.084.28-.087.425v2.488a13.756 13.756 0 01-.775-.713 11 11 0 1115.55 0z"/>
</svg>
