<svg xmlns="http://www.w3.org/2000/svg" viewBox="0 0 32 32" fill="currentColor" aria-hidden="true">
  <path d="M29 11.588L20.411 3a2.013 2.013 0 00-2.825 0l-3.138 3.137-7.262 2.725A1.988 1.988 0 005.924 10.4l-2.6 15.575a.5.5 0 00.264.533c.095.049.203.066.309.049a.5.5 0 00.277-.144l6.875-6.888a4 4 0 111.425 1.425l-6.887 6.875a.5.5 0 00.437.85L21.6 26.087a2.025 2.025 0 001.538-1.274l2.725-7.263 3.137-3.138a1.986 1.986 0 000-2.825zm-4 4L16.411 7l2.587-2.588L27.587 13l-2.588 2.588z"/>
  <path d="M14.5 19.5a2 2 0 100-4 2 2 0 000 4z"/>
</svg>
