<svg xmlns="http://www.w3.org/2000/svg" viewBox="0 0 32 32" fill="currentColor" aria-hidden="true">
  <path d="M25.713 7.713l-18 18a1.025 1.025 0 01-1.425 0 1.013 1.013 0 010-1.425l18-18a1.013 1.013 0 011.425 1.425zm-19.4 4.974a4.525 4.525 0 010-6.374 4.525 4.525 0 016.375 0 4.513 4.513 0 01-6.375 6.375zM7.001 9.5a2.463 2.463 0 00.737 1.762 2.486 2.486 0 003.525 0 2.476 2.476 0 000-3.525 2.474 2.474 0 00-3.525 0A2.462 2.462 0 007.001 9.5zm20 13a4.5 4.5 0 11-7.688-3.188 4.525 4.525 0 016.375 0 4.489 4.489 0 011.313 3.188zm-2 0a2.463 2.463 0 00-.738-1.762 2.473 2.473 0 00-4.135 1.037A2.487 2.487 0 1025 22.5z"/>
</svg>
