<svg xmlns="http://www.w3.org/2000/svg" viewBox="0 0 32 32" fill="currentColor" aria-hidden="true">
  <path d="M15.001 7a4 4 0 114 4 4.012 4.012 0 01-4-4zm13 9.7a1 1 0 00-1.462-.887h.012c-.012 0-.812.387-2.275.237-1.462-.15-3.687-.8-6.662-3.138-1.875-1.462-4.788-3.075-8.05-2.45-1.975.376-3.113 1.388-3.238 1.5a.988.988 0 00-.062 1.413 1 1 0 001.412.063c.138-.126 3.225-2.8 8.075.574a18.489 18.489 0 01-2.737 5.55l-.3.388C10.35 22.975 7.45 24.325 4.1 23.988a1.005 1.005 0 00-.2 2c.413.037.8.05 1.188.05 4.075 0 7.075-2.175 9.15-4.788C16.664 21.9 21 23.775 21 28.988a1 1 0 102 0c0-3.088-1.262-5.675-3.65-7.488-1.3-.988-2.75-1.6-3.9-1.975a20.565 20.565 0 002-4.262c3.225 2.237 5.775 2.787 7.5 2.787 1.725 0 2.438-.438 2.513-.488A.974.974 0 0028 16.7z"/>
</svg>
