<svg xmlns="http://www.w3.org/2000/svg" viewBox="0 0 32 32" fill="currentColor" aria-hidden="true">
  <path d="M15 6a4 4 0 114 4 4.013 4.013 0 01-4-4zm11 11c-3.562 0-5.212-1.762-6.95-3.637-.437-.476-.9-.963-1.374-1.4-4.65-4.3-12.063 3.012-12.388 3.325a1.013 1.013 0 101.425 1.424 19.665 19.665 0 013.813-2.9c1.787-1.024 3.287-1.387 4.462-1.1L12.776 17.8 8.088 28.6a.988.988 0 00.513 1.313c.124.06.261.09.4.087a.988.988 0 00.912-.6l4.2-9.662 3.888 2.774V29a1 1 0 002 0v-7a.975.975 0 00-.425-.813l-4.638-3.325 1.763-4.062.887.925c1.775 1.9 3.975 4.275 8.413 4.275a1 1 0 000-2z"/>
</svg>
