<svg xmlns="http://www.w3.org/2000/svg" viewBox="0 0 32 32" fill="currentColor" aria-hidden="true">
  <path d="M28.95 21.887A7.025 7.025 0 0122 28c-9.925 0-18-8.075-18-18a7.025 7.025 0 016.113-6.95 2.038 2.038 0 012.087 1.2l2.513 5.863A1.987 1.987 0 0114.537 12l-2.075 3.175a9.562 9.562 0 004.4 4.375L20 17.462a1.95 1.95 0 011.887-.162l5.863 2.5a2.037 2.037 0 011.2 2.087zM20 13c.265-.004.52-.106.712-.287L25 8.413V11a1 1 0 002 0V6a1 1 0 00-1-1h-5a1 1 0 100 2h2.587l-4.3 4.287a1.012 1.012 0 000 1.425c.194.182.448.284.713.288z"/>
</svg>
