<svg xmlns="http://www.w3.org/2000/svg" viewBox="0 0 32 32" fill="currentColor" aria-hidden="true">
  <path d="M27.75 19.8l-5.863-2.5a1.95 1.95 0 00-1.887.162l-3.137 2.088a9.562 9.562 0 01-4.4-4.375L14.538 12a1.986 1.986 0 00.175-1.887L12.2 4.25a2.038 2.038 0 00-2.087-1.2A7.025 7.025 0 004 10c0 9.925 8.075 18 18 18a7.025 7.025 0 006.95-6.113 2.038 2.038 0 00-1.2-2.087z"/>
  <path d="M19.287 12.713a1.025 1.025 0 001.425 0l2.288-2.3 2.287 2.3a1.025 1.025 0 001.425 0 1.013 1.013 0 000-1.425L24.412 9l2.3-2.288a1.013 1.013 0 00-1.425-1.425L23 7.587l-2.288-2.3a1.013 1.013 0 00-1.425 1.425L21.587 9l-2.3 2.287a1.012 1.012 0 000 1.425z"/>
</svg>
