<svg xmlns="http://www.w3.org/2000/svg" viewBox="0 0 32 32" fill="currentColor" aria-hidden="true">
  <path d="M27.75 19.8l-5.863-2.5a1.95 1.95 0 00-1.887.162l-3.137 2.088a9.562 9.562 0 01-4.4-4.375L14.538 12a1.986 1.986 0 00.175-1.887L12.2 4.25a2.038 2.038 0 00-2.087-1.2A7.025 7.025 0 004 10c0 9.925 8.075 18 18 18a7.025 7.025 0 006.95-6.113 2.038 2.038 0 00-1.2-2.087zM19.674 5.962a9.075 9.075 0 016.362 6.363 1 1 0 00.963.75.952.952 0 00.262-.037.989.989 0 00.7-1.226 11 11 0 00-7.775-7.775 1 1 0 10-.512 1.925zM18.638 9.825a5.05 5.05 0 013.538 3.538.988.988 0 00.962.75.8.8 0 00.25-.038.989.989 0 00.713-1.225 6.976 6.976 0 00-4.95-4.95 1 1 0 10-.513 1.925z"/>
</svg>
