<svg xmlns="http://www.w3.org/2000/svg" viewBox="0 0 32 32" fill="currentColor" aria-hidden="true">
  <path d="M15.113 13.537H15.1L11.225 9.25h-.012L6.738 4.325a1 1 0 00-1.475 1.35L8.75 9.513c-2.043.903-3.9 2.179-5.475 3.762a7.013 7.013 0 00-.587 9.237 2.025 2.025 0 001.575.763c.252-.002.501-.048.737-.137l5.925-2.376a1.999 1.999 0 001.212-1.462l.738-3.688a9.016 9.016 0 011.137-.312l11.25 12.375a1 1 0 001.413.063.987.987 0 00.063-1.413L15.113 13.538zM28.726 13.275a18.05 18.05 0 00-13.713-5.25 1 1 0 00-.687 1.675l11.8 12.975a.901.901 0 00.362.25l.513.213c.236.088.485.135.737.137a2.026 2.026 0 001.575-.762 7.012 7.012 0 00-.587-9.238z"/>
</svg>
