<svg xmlns="http://www.w3.org/2000/svg" viewBox="0 0 32 32" fill="currentColor" aria-hidden="true">
  <path d="M27.75 19.8l-5.863-2.5a1.95 1.95 0 00-1.887.162l-3.137 2.088a9.562 9.562 0 01-4.4-4.375L14.538 12a1.986 1.986 0 00.175-1.887L12.2 4.25a2.038 2.038 0 00-2.087-1.2A7.025 7.025 0 004 10c0 9.925 8.075 18 18 18a7.025 7.025 0 006.95-6.113 2.038 2.038 0 00-1.2-2.087z"/>
  <path d="M19.012 12.137a.113.113 0 00.013.063v.038a.1.1 0 01.013.05l.024.05c0 .012.013.025.013.05l.025.037c0 .012.012.025.012.05l.026.037.037.038.025.037a.1.1 0 00.025.05c.012.013.037.025.05.05a.038.038 0 01.013.026h.024l.05.05.05.024.038.038.038.025.037.025h.05l.038.025h.05l.05.025H25a1 1 0 100-2h-2.587l4.3-4.287a1.012 1.012 0 00-1.425-1.425L21 9.588V7a1 1 0 00-2 0v5.1a.05.05 0 01.012.037z"/>
</svg>
