<svg xmlns="http://www.w3.org/2000/svg" viewBox="0 0 32 32" fill="currentColor" aria-hidden="true">
  <path d="M29 16.4c-.213 6.813-5.725 12.363-12.538 12.588a12.964 12.964 0 01-3.575-.363.512.512 0 01-.362-.613l1.112-4.425A6.312 6.312 0 0017 24.5c4.625 0 8.337-4.188 7.975-9.175-.325-4.487-4-8.075-8.5-8.313A9 9 0 007 16a9.163 9.163 0 00.65 3.375 1.004 1.004 0 101.862-.75A6.938 6.938 0 019 16.113 7 7 0 1123 16c0 3.587-2.688 6.5-6 6.5-1.313 0-2.225-.462-2.85-1l1.825-7.262a1.005 1.005 0 00-1.497-1.095c-.227.138-.39.36-.453.62l-3.35 13.425a.5.5 0 01-.713.325A13 13 0 1129 16.4z"/>
</svg>
