<svg xmlns="http://www.w3.org/2000/svg" viewBox="0 0 32 32" fill="currentColor" aria-hidden="true">
  <path d="M28.713 27.288l-6.05-6.05.413-.125a7.45 7.45 0 004.237-3.888 7.55 7.55 0 00.25-5.738 1.05 1.05 0 00-.525-.562.95.95 0 00-.762-.025l-5.55 2.012.125-.25a7.5 7.5 0 00-9.363-10.224 1.05 1.05 0 00-.562.525.949.949 0 00-.025.762l2.012 5.55-.25-.125a7.5 7.5 0 00-10.225 9.362c.098.248.285.449.525.563a.961.961 0 00.425.088.81.81 0 00.338-.063l5.55-2.013-.125.25a7.5 7.5 0 006.787 10.675 7.647 7.647 0 002.575-.45 1.05 1.05 0 00.563-.524.95.95 0 00.025-.763l-2.013-5.55.25.125c.88.414 1.83.651 2.8.7l7.15 7.162a1.025 1.025 0 001.425 0 1.012 1.012 0 000-1.424zM16.388 4.5a5.525 5.525 0 01.463 9.738l-3.7-10.175a5.475 5.475 0 013.237.437zm-2.775 21a5.525 5.525 0 01-.462-9.738l3.7 10.175a5.474 5.474 0 01-3.238-.437z"/>
</svg>
