<svg xmlns="http://www.w3.org/2000/svg" viewBox="0 0 32 32" fill="currentColor" aria-hidden="true">
  <path d="M27.913 14.5c.055.498.084.999.087 1.5a12 12 0 01-19.25 9.563c3.075-.775 6.688-2.313 10.25-4.363 3.563-2.05 6.7-4.425 8.913-6.7zm2.812-7c-.687-1.188-2.537-2.3-7.475-1.063A12 12 0 004 16c.004.501.033 1.002.088 1.5C.55 21.15.6 23.313 1.275 24.5c.463.8 1.488 1.6 3.725 1.6a15.22 15.22 0 003.188-.4l.562-.137A13.129 13.129 0 016.975 23.9c-2.337.413-3.662.125-3.962-.4-.188-.325-.088-.938.287-1.675a10.71 10.71 0 011.338-1.95A11.901 11.901 0 006.975 23.9l.775-.162c3-.663 6.638-2.188 10.25-4.276 3.613-2.087 6.75-4.474 8.825-6.737.19-.19.37-.39.538-.6A11.9 11.9 0 0025.025 8.1a10.487 10.487 0 012.375-.188c.825.05 1.4.263 1.588.588.3.525-.113 1.813-1.625 3.625a13.4 13.4 0 01.55 2.375l.387-.412c3.163-3.438 3.063-5.476 2.425-6.588z"/>
</svg>
