<svg xmlns="http://www.w3.org/2000/svg" viewBox="0 0 32 32" fill="currentColor" aria-hidden="true">
  <path d="M29.712 2.288a1.013 1.013 0 00-1.425 0L22 8.588l-.675-.675a3.989 3.989 0 00-5.65 0L12.5 11.088l-.288-.3a1.013 1.013 0 00-1.425 1.425l.3.287-3.175 3.175a3.988 3.988 0 000 5.65l.675.675-6.3 6.288a1.013 1.013 0 000 1.424 1.025 1.025 0 001.425 0l6.288-6.3.675.675a4.012 4.012 0 005.65 0l3.175-3.174.287.3a1.025 1.025 0 001.425 0 1.013 1.013 0 000-1.425l-.3-.288 3.175-3.175a3.987 3.987 0 000-5.65L23.412 10l6.3-6.287a1.013 1.013 0 000-1.425zm-7.037 12.625L19.5 18.087 13.912 12.5l3.175-3.175a1.988 1.988 0 012.825 0l2.763 2.763a1.986 1.986 0 010 2.825zm6.275 5.4A.988.988 0 0128 21a.91.91 0 01-.313-.05l-3-1a.999.999 0 11.625-1.9l3 1a.998.998 0 01.638 1.262zm-25.9-8.625a1 1 0 011.262-.638l3 1a1 1 0 11-.625 1.9l-3-1a.999.999 0 01-.637-1.262zm8-7.375a1 1 0 111.9-.625l1 3a1.001 1.001 0 01-1.538 1.125.987.987 0 01-.362-.5l-1-3zm9.9 23.375a1.002 1.002 0 01-1.538 1.125.987.987 0 01-.362-.5l-1-3a1 1 0 111.9-.625l1 3z"/>
</svg>
