<svg xmlns="http://www.w3.org/2000/svg" viewBox="0 0 32 32" fill="currentColor" aria-hidden="true">
  <path d="M29.712 9.712L25.412 14l3.3 3.288a1.013 1.013 0 010 1.424 1.025 1.025 0 01-1.425 0l-.787-.8-6.463 6.463a5.013 5.013 0 01-7.075 0L11 22.413l-6.288 6.3a1.025 1.025 0 01-1.425 0 1.013 1.013 0 010-1.425L9.587 21l-1.962-1.962a5.013 5.013 0 010-7.075L14.087 5.5l-.8-.788a1.013 1.013 0 011.425-1.425L18 6.587l4.287-4.3a1.012 1.012 0 011.425 1.425L19.412 8 24 12.588l4.287-4.3a1.012 1.012 0 011.425 1.424z"/>
</svg>
