<svg xmlns="http://www.w3.org/2000/svg" viewBox="0 0 32 32" fill="currentColor" aria-hidden="true">
  <path d="M29.712 3.712L26.412 7l.675.675a3.987 3.987 0 010 5.65L23.912 16.5l.3.288a1.013 1.013 0 010 1.424 1.025 1.025 0 01-1.425 0l-1-1-7-7-1-1a1.013 1.013 0 011.425-1.425l.288.3 3.175-3.175a3.986 3.986 0 015.65 0l.675.675 3.287-3.3a1.012 1.012 0 011.425 1.425zM17.287 17.288L15 19.588 12.412 17l2.3-2.287a1.013 1.013 0 00-1.425-1.425L11 15.587l-.788-.8-1-1a1.013 1.013 0 00-1.425 1.425l.3.287-3.175 3.175a3.986 3.986 0 000 5.65l.675.675-3.3 3.288a1.012 1.012 0 000 1.424 1.025 1.025 0 001.425 0L7 26.412l.675.675a3.988 3.988 0 005.65 0l3.175-3.174.287.3a1.025 1.025 0 001.425 0 1.013 1.013 0 000-1.425l-1-1-.8-.788 2.3-2.288a1.013 1.013 0 00-1.425-1.424z"/>
</svg>
