<svg xmlns="http://www.w3.org/2000/svg" viewBox="0 0 32 32" fill="currentColor" aria-hidden="true">
  <path d="M25.276 25.1a12.975 12.975 0 000-18.2.288.288 0 00-.087-.088.288.288 0 00-.088-.087 12.975 12.975 0 00-18.2 0 .288.288 0 00-.087.087.288.288 0 00-.088.088 12.975 12.975 0 000 18.2l.088.087a.289.289 0 00.087.088 12.975 12.975 0 0018.2 0 .289.289 0 00.088-.087.289.289 0 00.087-.088zM5.051 17h3.013a7.95 7.95 0 001.625 3.9L7.55 23.038A10.938 10.938 0 015.051 17zm2.5-8.038L9.69 11.1A7.95 7.95 0 008.064 15H5.05a10.937 10.937 0 012.5-6.038zM26.951 15H23.94a7.95 7.95 0 00-1.625-3.9l2.137-2.138a10.937 10.937 0 012.5 6.038zm-6.05-5.313a7.95 7.95 0 00-3.9-1.625V5.05c2.22.199 4.327 1.07 6.038 2.5L20.9 9.687zm-5.9-1.625a7.95 7.95 0 00-3.9 1.625L8.964 7.55A10.937 10.937 0 0115 5.05v3.012zm-3.9 14.25a7.95 7.95 0 003.9 1.625v3.013a10.938 10.938 0 01-6.037-2.5l2.137-2.137zm5.9 1.625a7.95 7.95 0 003.9-1.625l2.138 2.138A10.938 10.938 0 0117 26.95v-3.012zm5.313-3.037a7.95 7.95 0 001.625-3.9h3.012a10.938 10.938 0 01-2.5 6.038L22.314 20.9z"/>
</svg>
