<svg xmlns="http://www.w3.org/2000/svg" viewBox="0 0 32 32" fill="currentColor" aria-hidden="true">
  <path d="M28.825 6.175a3.988 3.988 0 00-5.65 0c-.255.247-.474.53-.65.837L19 6.05a4 4 0 00-6.825-2.875 4 4 0 00-.725 4.675l-4.237 3.813a4 4 0 00-5.038.512 3.986 3.986 0 000 5.65A3.949 3.949 0 005 19a4.012 4.012 0 002.538-.9l8.75 6.412a4 4 0 00.887 4.313 3.987 3.987 0 005.65 0 3.987 3.987 0 000-5.65 5.405 5.405 0 00-.587-.5l3.412-9.688H26a3.95 3.95 0 002.825-1.175 3.988 3.988 0 000-5.637zM20.35 22.012a4.05 4.05 0 00-2.887.888l-8.75-6.412a4.05 4.05 0 00-.163-3.338l4.238-3.813A4.05 4.05 0 0015 10a3.951 3.951 0 002.825-1.175c.255-.247.474-.53.65-.838L22 8.95a3.949 3.949 0 001.175 2.875c.184.18.38.348.588.5l-3.413 9.688z"/>
</svg>
