<svg xmlns="http://www.w3.org/2000/svg" viewBox="0 0 32 32" fill="currentColor" aria-hidden="true">
  <path d="M28.013 9.988l-.038-.05A5.486 5.486 0 0021 5.213a5.5 5.5 0 00-10 0 5.488 5.488 0 00-6.975 4.725l-.037.05a1.962 1.962 0 00-.575 1.9L6.85 26.463A1.988 1.988 0 008.788 28h14.425a1.987 1.987 0 001.938-1.537l3.437-14.575a1.962 1.962 0 00-.575-1.9zM9.5 7a3.425 3.425 0 011.638.413 1.05 1.05 0 00.887.025 1.026 1.026 0 00.563-.7 3.5 3.5 0 016.825 0 1.025 1.025 0 00.563.7 1.05 1.05 0 00.887-.025A3.425 3.425 0 0122.5 7a3.5 3.5 0 013.375 2.563L21.05 10.95l-4.312-1.725a1.888 1.888 0 00-1.475 0L10.95 10.95 6.125 9.563A3.5 3.5 0 019.5 7zm-4.137 4.425l4.737 1.363L11.864 26H8.788L5.363 11.425zM23.213 26h-3.075L21.9 12.788l4.738-1.363L23.213 26z"/>
</svg>
