<svg xmlns="http://www.w3.org/2000/svg" viewBox="0 0 32 32" fill="currentColor" aria-hidden="true">
  <path d="M26.675 27.738a1 1 0 01-1.413-.063L21.012 23H17v7a1 1 0 01-2 0v-7H5a1 1 0 010-2h1.162L8.275 9 5.262 5.675a1 1 0 011.476-1.35l9.4 10.35 6.062 6.65 4.538 5a.988.988 0 01-.063 1.413zm-2.863-7.6a.988.988 0 00.738.324c.151-.001.3-.035.438-.1a1.013 1.013 0 00.55-1.074L23.188 6H24a1 1 0 100-2H11.4a1 1 0 00-.65.25c-.045.038-.086.08-.125.125a1.038 1.038 0 00-.213.563.137.137 0 000 .1.987.987 0 00.25.637l13.15 14.462z"/>
</svg>
