<svg xmlns="http://www.w3.org/2000/svg" viewBox="0 0 32 32" fill="currentColor" aria-hidden="true">
  <path d="M26.738 26.325a.987.987 0 01-.063 1.412 1.002 1.002 0 01-1.413-.063l-3.3-3.637c-.312 1.775-1.237 3.275-1.924 4.188a2.039 2.039 0 01-1.463.8h-.137a2.013 2.013 0 01-1.413-.588L11 22.412l-4.287 4.3a1.025 1.025 0 01-1.425 0 1.013 1.013 0 010-1.425L9.588 21l-6.05-6.05a1.988 1.988 0 01.162-2.975C5.725 10.35 7.688 9.962 9.188 10L5.263 5.675a1 1 0 011.475-1.35l20 22zM29 10.587L21.413 3a2.012 2.012 0 00-2.825 0l-4.75 4.75a1 1 0 00-.038 1.375l8.575 9.425a1.014 1.014 0 00.713.337h.025a1 1 0 00.712-.3L29 13.412a1.986 1.986 0 000-2.825z"/>
</svg>
