<svg xmlns="http://www.w3.org/2000/svg" viewBox="0 0 32 32" fill="currentColor" aria-hidden="true">
  <path d="M20.725 28H26a2 2 0 002-2v-4.712a.988.988 0 00-.45-.826.962.962 0 00-.938-.087c-.354.14-.731.212-1.112.212-1.65 0-3-1.387-3-3.087 0-1.7 1.35-3.088 3-3.088.38.001.758.073 1.113.213a.963.963 0 00.937-.088.987.987 0 00.45-.825V9a2 2 0 00-2-2h-4.525c.012-.162.025-.338.025-.5a4.5 4.5 0 10-9 0c0 .162.012.338.025.5H8a2 2 0 00-2 2v4.025L5.5 13a4.5 4.5 0 100 9l.5-.025V26a2 2 0 002 2h5.275"/>
</svg>
