<svg xmlns="http://www.w3.org/2000/svg" viewBox="0 0 32 32" fill="currentColor" aria-hidden="true">
  <path d="M13 5H7a2 2 0 00-2 2v6a2 2 0 002 2h6a2 2 0 002-2V7a2 2 0 00-2-2zM13 17H7a2 2 0 00-2 2v6a2 2 0 002 2h6a2 2 0 002-2v-6a2 2 0 00-2-2zM25 5h-6a2 2 0 00-2 2v6a2 2 0 002 2h6a2 2 0 002-2V7a2 2 0 00-2-2zM18 23a1 1 0 001-1v-4a1 1 0 00-2 0v4a1 1 0 001 1z"/>
  <path d="M26 19h-3v-1a1 1 0 00-2 0v7h-3a1 1 0 000 2h4a1 1 0 001-1v-5h3a1 1 0 000-2zM26 23a1 1 0 00-1 1v2a1 1 0 002 0v-2a1 1 0 00-1-1z"/>
</svg>
