<svg xmlns="http://www.w3.org/2000/svg" viewBox="0 0 32 32" fill="currentColor" aria-hidden="true">
  <path d="M27 9H10.812l13.476-4.037a1.004 1.004 0 10-.576-1.925l-20 6-.087.037h-.013l-.062.038H3.5a.85.85 0 00-.263.212.013.013 0 01-.012.013c-.013.012-.013.025-.025.05l-.025.025a.037.037 0 00-.012.024.838.838 0 00-.125.288c-.013.013-.013.025-.013.05h-.012A.25.25 0 013 9.863V25a2 2 0 002 2h22a2 2 0 002-2V11a2 2 0 00-2-2zM12 23H7a1 1 0 010-2h5a1 1 0 010 2zm0-4H7a1 1 0 010-2h5a1 1 0 010 2zm0-4H7a1 1 0 010-2h5a1 1 0 010 2zm9 6.5a3.5 3.5 0 113.5-3.5 3.512 3.512 0 01-3.5 3.5z"/>
</svg>
