<svg xmlns="http://www.w3.org/2000/svg" viewBox="0 0 32 32" fill="currentColor" aria-hidden="true">
  <path d="M31 20a6 6 0 01-6 6h-6c-2.2 0-4-1.85-4-4.113 0-2.262 1.8-4.112 4-4.112l.413.025A6 6 0 0131 20zM14 9a10.912 10.912 0 017.663 3.112 1.004 1.004 0 001.4-1.437A13 13 0 001 20v2a1 1 0 102 0v-2A11.012 11.012 0 0114 9zm0 4a7 7 0 014.137 1.35 1 1 0 101.188-1.6A8.862 8.862 0 0014 11a9.013 9.013 0 00-9 9v2a1 1 0 102 0v-2a7 7 0 017-7zm1.9 3.337a.989.989 0 00-.738-1.2A5 5 0 009 20v2a1 1 0 102 0v-2a3.013 3.013 0 013-3c.235 0 .47.025.7.075a.989.989 0 001.2-.738z"/>
</svg>
