<svg xmlns="http://www.w3.org/2000/svg" viewBox="0 0 32 32" fill="currentColor" aria-hidden="true">
  <path d="M29.6 25.5A2.988 2.988 0 0127 27h-7v2a1 1 0 01-.613.925 1.037 1.037 0 01-1.1-.213l-3-3.012A.986.986 0 0115 26a1.012 1.012 0 01.287-.712l3-3a1.05 1.05 0 011.1-.213A1 1 0 0120 23v2h7a.987.987 0 00.862-.5.976.976 0 000-1l-3-5.175a1.002 1.002 0 111.738-1l2.987 5.175a2.963 2.963 0 01.013 3zM11 25H5a.988.988 0 01-.863-.5.975.975 0 010-1l3.5-6.038 1.738 1a1 1 0 00.5.138.975.975 0 00.6-.213 1 1 0 00.362-1.05l-1.1-4.1a1.013 1.013 0 00-.833-.729.963.963 0 00-.392.03l-4.1 1.087a1 1 0 00-.725.838.988.988 0 00.488 1l1.725 1L2.412 22.5A2.988 2.988 0 005 27h6a1 1 0 100-2zm5-21a.975.975 0 01.862.5l3.5 6.037-1.725 1a.987.987 0 00.238 1.825l4.1 1.1.25.038a1.012 1.012 0 00.975-.738l1.1-4.1a1.013 1.013 0 00-.363-1.062 1 1 0 00-1.112-.062l-1.738 1L18.6 3.5a3 3 0 00-5.2 0l-2.988 5.175a1 1 0 101.725 1l3-5.175A.974.974 0 0116 4z"/>
</svg>
