<svg xmlns="http://www.w3.org/2000/svg" viewBox="0 0 32 32" fill="currentColor" aria-hidden="true">
  <path d="M31 13a4 4 0 00-6.613-3.025c-2.1-1.113-4.6-1.788-7.212-1.938l.65-3.9 2.725.425a3.025 3.025 0 10.312-1.975l-3.712-.575a1 1 0 00-1.138.825l-.862 5.188c-2.725.112-5.35.787-7.538 1.95a4 4 0 00-5.325 5.962A7.675 7.675 0 002 18c0 2.737 1.5 5.3 4.237 7.187C8.975 27.075 12.325 28 16 28s7.137-1 9.762-2.813C28.387 23.375 30 20.737 30 18c-.001-.693-.098-1.383-.288-2.05A4.051 4.051 0 0031 13zM9 16.5a2 2 0 114 0 2 2 0 01-4 0zm11.587 6.387a10.012 10.012 0 01-9.175 0 1 1 0 01.913-1.775 8.024 8.024 0 007.35 0 1 1 0 01.912 1.775zM21 18.5a2 2 0 110-4 2 2 0 010 4z"/>
</svg>
