<svg xmlns="http://www.w3.org/2000/svg" viewBox="0 0 32 32" fill="currentColor" aria-hidden="true">
  <path d="M3 16a9.013 9.013 0 019-9h12V5a1 1 0 01.612-.925 1.05 1.05 0 011.1.212l3 3a1.013 1.013 0 010 1.425l-3 3a1.038 1.038 0 01-1.1.213A1 1 0 0124 11V9H12a7 7 0 00-7 7 1 1 0 01-2 0zm25-1a1 1 0 00-1 1 7 7 0 01-7 7H8v-2a1 1 0 00-.613-.925 1.05 1.05 0 00-1.1.213l-3 3a1.012 1.012 0 000 1.424l3 3a1.038 1.038 0 001.1.213A1 1 0 008 27v-2h12a9.013 9.013 0 009-9 1 1 0 00-1-1zm-11.5 5a1 1 0 001-1v-6a.987.987 0 00-.475-.85 1 1 0 00-.975-.05l-2 1a1.025 1.025 0 00-.45 1.35 1.012 1.012 0 001.35.438l.55-.275V19a1 1 0 001 1z"/>
</svg>
