<svg xmlns="http://www.w3.org/2000/svg" viewBox="0 0 32 32" fill="currentColor" aria-hidden="true">
  <path d="M12.075 22.125a.987.987 0 00-1.262.625c-.825 2.462-3.488 3.225-5.026 3.462.238-1.537 1-4.2 3.463-5.024a1.001 1.001 0 10-.637-1.888c-2.05.675-3.55 2.3-4.35 4.688a11.475 11.475 0 00-.575 3.325 1 1 0 001 1c1.13-.027 2.25-.221 3.324-.575 2.388-.8 4.013-2.3 4.688-4.35a.987.987 0 00-.625-1.263z"/>
  <path d="M28.45 5.225a1.963 1.963 0 00-1.676-1.675c-1.412-.213-5.075-.313-8.65 3.262L17 7.925H9.337a2.025 2.025 0 00-1.413.587l-4.037 4.05a1.987 1.987 0 00-.5 1.988 2 2 0 001.525 1.387l4.937.988 5.225 5.225.988 4.937a2 2 0 001.387 1.525c.186.06.38.09.575.088a1.95 1.95 0 001.413-.588l4.05-4.037c.373-.376.584-.883.587-1.413V15l1.113-1.125c3.575-3.575 3.475-7.238 3.262-8.65zm-19.113 4.7h5.662l-4.987 4.987-4.713-.937 4.038-4.05zm12.737 12.737l-4.05 4.038-.937-4.713L22.074 17v5.662z"/>
</svg>
