<svg xmlns="http://www.w3.org/2000/svg" viewBox="0 0 32 32" fill="currentColor" aria-hidden="true">
  <path d="M18 27h-4a1 1 0 000 2h4a1 1 0 000-2z"/>
  <path d="M27.45 17.988l-3.776-4.538a15.673 15.673 0 00-1-4.362c-1.45-3.775-4.012-6.25-5.424-7.388a1.988 1.988 0 00-2.5-.012C13.324 2.825 10.724 5.3 9.261 9.075a15.187 15.187 0 00-1.012 4.463l-3.7 4.45a2.013 2.013 0 00-.425 1.712l1.55 6.95a1.987 1.987 0 001.962 1.563 2 2 0 001.238-.438L12.35 25h7.3l3.475 2.775a2 2 0 001.912.325 1.987 1.987 0 001.288-1.45l1.55-6.95a2.013 2.013 0 00-.425-1.712zM7.625 26.212l-1.538-6.95 2.238-2.687c.291 2.342 1.087 4.733 2.387 7.175l-3.087 2.462zM15.999 13.5a1.499 1.499 0 110-2.998 1.499 1.499 0 010 2.998zm8.376 12.712l-3.1-2.474c1.3-2.463 2.075-4.875 2.35-7.226l2.287 2.75-1.537 6.95z"/>
</svg>
