<svg xmlns="http://www.w3.org/2000/svg" viewBox="0 0 32 32" fill="currentColor" aria-hidden="true">
  <path d="M12.363 19.637A8.95 8.95 0 0115 26a1 1 0 01-2 0 7 7 0 00-7-7 1 1 0 010-2 8.949 8.949 0 016.363 2.637zM6 11a1 1 0 100 2 12.863 12.863 0 019.188 3.813A12.86 12.86 0 0119 26a1 1 0 002 0 14.9 14.9 0 00-4.4-10.613A14.912 14.912 0 006 11zm14.85.15A20.86 20.86 0 006 5a1 1 0 000 2 18.888 18.888 0 0113.438 5.563A18.885 18.885 0 0125 26a1 1 0 002 0 20.862 20.862 0 00-6.15-14.85zM6.5 24a1.5 1.5 0 100 2.999A1.5 1.5 0 006.5 24z"/>
</svg>
