<svg xmlns="http://www.w3.org/2000/svg" viewBox="0 0 32 32" fill="currentColor" aria-hidden="true">
  <path d="M29.587 11.05a2.075 2.075 0 01-.625 1.412L12.412 29a1.987 1.987 0 01-2.825 0l-6.588-6.588a1.987 1.987 0 010-2.825l2.738-2.737a.5.5 0 01.7 0l4.35 4.362c.193.182.447.284.712.288a1.002 1.002 0 00.763-.35 1.037 1.037 0 00-.075-1.388l-4.338-4.325a.5.5 0 010-.7l2.388-2.387a.5.5 0 01.7 0l4.35 4.362c.193.182.447.284.712.288a1.002 1.002 0 00.763-.35 1.037 1.037 0 00-.075-1.388l-4.338-4.325a.5.5 0 010-.7l2.388-2.387a.5.5 0 01.7 0l4.35 4.362c.193.182.447.284.712.288a1.002 1.002 0 00.763-.35 1.037 1.037 0 00-.075-1.388l-4.338-4.325a.5.5 0 010-.7L19.587 3a2.013 2.013 0 012.825 0l6.587 6.587a2 2 0 01.588 1.463z"/>
</svg>
