<svg xmlns="http://www.w3.org/2000/svg" viewBox="0 0 32 32" fill="currentColor" aria-hidden="true">
  <path d="M29.925 16.625l-4-10-.063-.112-.074-.1c-.013-.013-.013-.013-.013-.026l-.1-.1a.012.012 0 01-.009-.003.012.012 0 01-.003-.009l-.088-.063-.025-.024-.113-.063h-.024l-.1-.037h-.025l-.125-.026h-.375L17 7.75V5a1 1 0 00-2 0v3.2l-8.213 1.825H6.7l-.125.05H6.55l-.1.05a.013.013 0 01-.004.009.011.011 0 01-.004.002.011.011 0 01-.005.002l-.112.087a.012.012 0 01-.004.009.012.012 0 01-.008.004l-.075.087h-.013a.3.3 0 00-.075.113l-.025.024-.05.113h-.013l-3.987 10.05A1 1 0 002 21c0 2.913 3.063 4 5 4 1.938 0 5-1.087 5-4a.999.999 0 00-.075-.375l-3.563-8.9L15 10.25V26h-2a1 1 0 000 2h6a1 1 0 000-2h-2V9.8l6.363-1.413-3.288 8.238A.999.999 0 0020 17c0 2.913 3.063 4 5 4 1.938 0 5-1.087 5-4a.999.999 0 00-.075-.375zM4.075 21L7 13.687 9.925 21h-5.85zm18-4L25 9.687 27.925 17h-5.85z"/>
</svg>
