<svg xmlns="http://www.w3.org/2000/svg" viewBox="0 0 32 32" fill="currentColor" aria-hidden="true">
  <path d="M19.712 14.137a1 1 0 01.263-1.387l8.462-5.787a1 1 0 011.388.262.988.988 0 01-.263 1.388l-8.45 5.787a.975.975 0 01-.575.175 1 1 0 01-.825-.438zm10.113 10.638a.988.988 0 01-.825.438 1.025 1.025 0 01-.563-.175L17 17.212l-5.313 3.638c.206.526.312 1.085.313 1.65a4.512 4.512 0 11-1.45-3.3l4.675-3.2-4.675-3.2A4.437 4.437 0 017.5 14a4.5 4.5 0 114.187-2.85l17.875 12.237a.988.988 0 01.263 1.388zM10 22.5a2.462 2.462 0 00-.738-1.762 2.475 2.475 0 00-3.525 0 2.476 2.476 0 000 3.524 2.486 2.486 0 003.525 0A2.462 2.462 0 0010 22.5zm-.738-11.238a2.476 2.476 0 000-3.525 2.475 2.475 0 00-3.525 0 2.475 2.475 0 000 3.525 2.486 2.486 0 003.525 0z"/>
</svg>
