<svg xmlns="http://www.w3.org/2000/svg" viewBox="0 0 32 32" fill="currentColor" aria-hidden="true">
  <path d="M30.761 19.363c-.15-.188-2.862-3.388-7.475-5.175-.262-2.226-1.112-4.25-2.45-5.825C18.961 6.163 16.25 5 13 5 6.56 5 2.36 10.775 2.186 11.012a1.003 1.003 0 001.625 1.175C3.85 12.126 7.6 7 13 7c2.65 0 4.825.925 6.312 2.662a8.5 8.5 0 011.838 3.85 16.775 16.775 0 00-4.15-.512c-3.263 0-5.988.85-7.913 2.463C7.4 16.887 6.424 18.875 6.424 20.9a5.925 5.925 0 001.737 4.263C9.361 26.363 11.036 27 13 27c3.15 0 5.837-1.25 7.762-3.6 1.525-1.875 2.45-4.387 2.6-7a18.286 18.286 0 015.875 4.238 1 1 0 101.525-1.276zM13 25c-3.163 0-4.575-2.05-4.575-4.1 0-2.837 2.687-5.9 8.575-5.9a14.661 14.661 0 014.375.662v.038c0 4.625-2.875 9.3-8.375 9.3z"/>
</svg>
