<svg xmlns="http://www.w3.org/2000/svg" viewBox="0 0 32 32" fill="currentColor" aria-hidden="true">
  <path d="M27.975 21.337a.975.975 0 00-.738-.337H26V8a4.013 4.013 0 00-4-4H5a4.013 4.013 0 00-4 4 3.937 3.937 0 001.025 2.662.987.987 0 001.4.088 1 1 0 00.088-1.412A2 2 0 117 8v16a4.012 4.012 0 004 4h14a4.013 4.013 0 004-4 3.937 3.937 0 00-1.025-2.663zM13 12h8a1 1 0 010 2h-8a1 1 0 010-2zm-1 5a1 1 0 011-1h8a1 1 0 010 2h-8a1 1 0 01-1-1zm13 9H14.463a4.024 4.024 0 00.412-3h11.863A2.012 2.012 0 0125 26z"/>
</svg>
