<svg xmlns="http://www.w3.org/2000/svg" viewBox="0 0 32 32" fill="currentColor" aria-hidden="true">
  <path d="M19 5a1 1 0 01-1 1h-4a1 1 0 110-2h4a1 1 0 011 1zm-1 21h-4a1 1 0 000 2h4a1 1 0 000-2zm8-22h-3a1 1 0 100 2h3v3a1 1 0 002 0V6a2 2 0 00-2-2zm1 9a1 1 0 00-1 1v4a1 1 0 002 0v-4a1 1 0 00-1-1zm0 9a1 1 0 00-1 1v3h-3a1 1 0 000 2h3a2 2 0 002-2v-3a1 1 0 00-1-1zM5 19a1 1 0 001-1v-4a1 1 0 10-2 0v4a1 1 0 001 1zm4 7H6v-3a1 1 0 10-2 0v3a2 2 0 002 2h3a1 1 0 000-2zM9 4H6a2 2 0 00-2 2v3a1 1 0 002 0V6h3a1 1 0 000-2z"/>
</svg>
