<svg xmlns="http://www.w3.org/2000/svg" viewBox="0 0 32 32" fill="currentColor" aria-hidden="true">
  <path d="M8 27a1 1 0 01-1 1H6a2 2 0 01-2-2v-1a1 1 0 112 0v1h1a1 1 0 011 1zm6-1h-2a1 1 0 000 2h2a1 1 0 000-2zm-9-5a1 1 0 001-1v-2a1 1 0 10-2 0v2a1 1 0 001 1zm16 3a1 1 0 00-1 1v1h-1a1 1 0 000 2h1a2 2 0 002-2v-1a1 1 0 00-1-1zm0-10a1 1 0 001-1v-1a2 2 0 00-2-2h-1a1 1 0 000 2h1v1a1 1 0 001 1zM7 10H6a2 2 0 00-2 2v1a1 1 0 102 0v-1h1a1 1 0 000-2zm19-6H12a2 2 0 00-2 2v5a1 1 0 001 1h3a1 1 0 000-2h-2V6h14v14h-4v-2a1 1 0 00-2 0v3a1 1 0 001 1h5a2 2 0 002-2V6a2 2 0 00-2-2z"/>
</svg>
