<svg xmlns="http://www.w3.org/2000/svg" viewBox="0 0 32 32" fill="currentColor" aria-hidden="true">
  <path d="M18.5 6a1 1 0 01-1 1h-3a1 1 0 110-2h3a1 1 0 011 1zm-1 19h-3a1 1 0 000 2h3a1 1 0 000-2zm5-18H25v2.5a1 1 0 002 0V7a2 2 0 00-2-2h-2.5a1 1 0 100 2zm3.5 6.5a1 1 0 00-1 1v3a1 1 0 002 0v-3a1 1 0 00-1-1zm-20 5a1 1 0 001-1v-3a1 1 0 10-2 0v3a1 1 0 001 1zM9.5 25H7v-2.5a1 1 0 10-2 0V25a2 2 0 002 2h2.5a1 1 0 000-2zm0-20H7a2 2 0 00-2 2v2.5a1 1 0 102 0V7h2.5a1 1 0 100-2zm20 20H27v-2.5a1 1 0 00-2 0V25h-2.5a1 1 0 000 2H25v2.5a1 1 0 002 0V27h2.5a1 1 0 000-2z"/>
</svg>
