<svg xmlns="http://www.w3.org/2000/svg" viewBox="0 0 32 32" fill="currentColor" aria-hidden="true">
  <path d="M13 5a1 1 0 011-1h4a1 1 0 110 2h-4a1 1 0 01-1-1zm5 21h-4a1 1 0 000 2h4a1 1 0 000-2zm8-22h-3a1 1 0 100 2h3v3a1 1 0 002 0V6a2 2 0 00-2-2zm1 9a1 1 0 00-1 1v4a1 1 0 002 0v-4a1 1 0 00-1-1zm0 9a1 1 0 00-1 1v3h-3a1 1 0 000 2h3a2 2 0 002-2v-3a1 1 0 00-1-1zM5 19a1 1 0 001-1v-4a1 1 0 10-2 0v4a1 1 0 001 1zm4 7H6v-3a1 1 0 10-2 0v3a2 2 0 002 2h3a1 1 0 000-2zM5 10a1 1 0 001-1V6h3a1 1 0 000-2H6a2 2 0 00-2 2v3a1 1 0 001 1zm17 13H10a1 1 0 01-1-1V10a1 1 0 011-1h12a1 1 0 011 1v12a1 1 0 01-1 1z"/>
</svg>
