<svg xmlns="http://www.w3.org/2000/svg" viewBox="0 0 32 32" fill="currentColor" aria-hidden="true">
  <path d="M9 28.5a1.5 1.5 0 11-3 0 1.5 1.5 0 013 0zm2-5a1.5 1.5 0 100 3 1.5 1.5 0 000-3zM3.5 23a1.5 1.5 0 100 3 1.5 1.5 0 000-3zm5-2a1.5 1.5 0 10-3 0 1.5 1.5 0 003 0zM31 4h-3.587A1.987 1.987 0 0026 4.588l-3.475 3.474L6.75 10.7a1.963 1.963 0 00-1.575 1.363 2 2 0 00.487 2.012l12.263 12.262a2 2 0 001.4.588c.208-.002.415-.035.613-.1A1.961 1.961 0 0021.3 25.25l2.637-15.775L27.413 6H31a1 1 0 100-2z"/>
</svg>
