<svg xmlns="http://www.w3.org/2000/svg" viewBox="0 0 32 32" fill="currentColor" aria-hidden="true">
  <path d="M27 6v5a1 1 0 01-.613.925 1.037 1.037 0 01-1.1-.213l-1.787-1.8-3.963 3.963a1 1 0 01-.712.3.963.963 0 01-.7-.3.989.989 0 010-1.412L22.087 8.5l-1.8-1.787a1.05 1.05 0 01-.212-1.1A1 1 0 0121 5h5a1 1 0 011 1zm-.613 14.075a1.05 1.05 0 00-1.1.213l-1.787 1.8-16.788-16.8a1.013 1.013 0 00-1.425 1.425l16.8 16.787-1.8 1.788a1.05 1.05 0 00-.212 1.1A1 1 0 0021 27h5a1 1 0 001-1v-5a1 1 0 00-.613-.925zm-13.925-1.95l-7.175 7.163a1.013 1.013 0 000 1.424 1.025 1.025 0 001.425 0l7.163-7.174a1 1 0 00-1.413-1.413z"/>
</svg>
