<svg xmlns="http://www.w3.org/2000/svg" viewBox="0 0 32 32" fill="currentColor" aria-hidden="true">
  <path d="M29.712 22.288a1.012 1.012 0 010 1.424l-3 3a1.038 1.038 0 01-1.1.213A1 1 0 0125 26v-2a9.026 9.026 0 01-7.212-3.775l-5.213-7.288A7.012 7.012 0 006.888 10H4a1 1 0 010-2h2.888a9.025 9.025 0 017.325 3.775l5.212 7.287A6.988 6.988 0 0025 22v-2a1 1 0 01.613-.925 1.05 1.05 0 011.1.213l3 3zm-11.837-8.913a1 1 0 001.4-.238l.15-.2A6.987 6.987 0 0125 10v2a1 1 0 00.613.925 1.038 1.038 0 001.1-.213l3-3a1.012 1.012 0 000-1.425l-3-3a1.05 1.05 0 00-1.1-.212A1 1 0 0025 6v2a9.025 9.025 0 00-7.212 3.775l-.138.2a.999.999 0 00.225 1.4zm-3.75 5.25a.998.998 0 00-1.4.238l-.15.2A7.013 7.013 0 016.888 22H4a1 1 0 100 2h2.888a9.027 9.027 0 007.325-3.775l.137-.2a1 1 0 00-.225-1.4z"/>
</svg>
