<svg xmlns="http://www.w3.org/2000/svg" viewBox="0 0 32 32" fill="currentColor" aria-hidden="true">
  <path d="M29.712 22.288a1.012 1.012 0 010 1.424l-3 3a1.038 1.038 0 01-1.1.213A1 1 0 0125 26v-2h-3.488a2.015 2.015 0 01-1.625-.837L10.487 10H4a1 1 0 010-2h6.488a2.013 2.013 0 011.625.837L21.513 22H25v-2a1 1 0 01.613-.925 1.05 1.05 0 011.1.213l3 3zm-11.837-8.913a1 1 0 001.4-.238L21.513 10H25v2a1 1 0 00.613.925 1.038 1.038 0 001.1-.213l3-3a1.012 1.012 0 000-1.425l-3-3a1.05 1.05 0 00-1.1-.212A1 1 0 0025 6v2h-3.488a2.013 2.013 0 00-1.625.837l-2.237 3.138a.999.999 0 00.225 1.4zm-3.75 5.25a.998.998 0 00-1.4.238L10.488 22H4a1 1 0 100 2h6.488a2.015 2.015 0 001.625-.837l2.237-3.138a1 1 0 00-.225-1.4z"/>
</svg>
