<svg xmlns="http://www.w3.org/2000/svg" viewBox="0 0 32 32" fill="currentColor" aria-hidden="true">
  <path d="M15.511 2.013c-6.45.237-11.712 5.45-12 11.912A12.425 12.425 0 009 24.863V27a2 2 0 002 2h1a.5.5 0 00.5-.5v-2.962a1.025 1.025 0 01.938-1.038 1 1 0 011.062 1v3a.5.5 0 00.5.5h2a.5.5 0 00.5-.5v-2.962a1.025 1.025 0 01.938-1.038 1 1 0 011.062 1v3a.5.5 0 00.5.5h1a2 2 0 002-2v-2.137a12.5 12.5 0 00-7.487-22.85zM11.5 19a2.5 2.5 0 112.5-2.5 2.512 2.512 0 01-2.5 2.5zm9 0a2.5 2.5 0 112.5-2.5 2.512 2.512 0 01-2.5 2.5z"/>
</svg>
