<svg xmlns="http://www.w3.org/2000/svg" viewBox="0 0 32 32" fill="currentColor" aria-hidden="true">
  <path d="M27.637 16A4 4 0 0025 9a4.025 4.025 0 00-2 .538V7a4 4 0 00-7-2.637A4 4 0 009 7c.001.702.187 1.392.537 2H7a4 4 0 00-2.638 7A4 4 0 007 23a4.026 4.026 0 002-.537V25a4 4 0 007 2.638A4 4 0 0023 25a4.026 4.026 0 00-.538-2H25a4 4 0 002.637-7zM11 7a2 2 0 114 0v2h-2a2 2 0 01-2-2zm-6 6a2 2 0 012-2h6a2 2 0 012 2v2H7a2 2 0 01-2-2zm16 12a2 2 0 01-4 0v-2h2a2 2 0 012 2zm4-4h-6a2 2 0 01-2-2v-2h8a2 2 0 010 4z"/>
</svg>
