<svg xmlns="http://www.w3.org/2000/svg" viewBox="0 0 32 32" fill="currentColor" aria-hidden="true">
  <path d="M16 3a13 13 0 1013 13A13.025 13.025 0 0016 3zm4.5 9a1.5 1.5 0 110 3 1.5 1.5 0 010-3zm-9 0a1.5 1.5 0 110 3 1.5 1.5 0 010-3zm11.125 10.275a.988.988 0 01-1.4-.15L20 20.6l-1.225 1.525a.987.987 0 01-1.55 0L16 20.6l-1.225 1.525a.987.987 0 01-1.55 0L12 20.6l-1.225 1.525a1 1 0 01-1.55-1.25l2-2.5a.987.987 0 011.55 0L14 19.9l1.225-1.525a.987.987 0 011.55 0L18 19.9l1.225-1.525a.987.987 0 011.55 0l2 2.5a.988.988 0 01-.15 1.4z"/>
</svg>
