<svg xmlns="http://www.w3.org/2000/svg" viewBox="0 0 32 32" fill="currentColor" aria-hidden="true">
  <path d="M16 3a13 13 0 1013 13A13.025 13.025 0 0016 3zm-2.287 12.287a1.012 1.012 0 010 1.425 1.025 1.025 0 01-1.425 0L11 15.412l-1.287 1.3a1.025 1.025 0 01-1.425 0 1.013 1.013 0 010-1.425L9.588 14l-1.3-1.287a1.013 1.013 0 011.425-1.425l1.287 1.3 1.287-1.3a1.012 1.012 0 011.425 1.425L12.412 14l1.3 1.287zM16 24a1.5 1.5 0 110-3 1.5 1.5 0 010 3zm7.712-8.713a1.012 1.012 0 010 1.425 1.025 1.025 0 01-1.424 0L21 15.412l-1.288 1.3a1.025 1.025 0 01-1.424 0 1.012 1.012 0 010-1.425l1.3-1.287-1.3-1.287a1.012 1.012 0 011.424-1.425l1.288 1.3 1.288-1.3a1.012 1.012 0 011.424 1.425L22.412 14l1.3 1.287z"/>
</svg>
