<svg xmlns="http://www.w3.org/2000/svg" viewBox="0 0 32 32" fill="currentColor" aria-hidden="true">
  <path d="M28.975 16.85a.598.598 0 000-.15c.012-.238.025-.462.025-.7a12.9 12.9 0 00-2.875-8.138.687.687 0 00-.175-.212 12.987 12.987 0 00-5.137-3.725l-.138-.05a12.925 12.925 0 00-9.35 0l-.137.05A12.988 12.988 0 006.05 7.65a.687.687 0 00-.175.212A12.9 12.9 0 003 16c0 .238.013.462.025.7a.6.6 0 000 .15 13.025 13.025 0 001.963 6.05c.038.075.084.147.137.213a13.038 13.038 0 007.537 5.45h.038c2.164.566 4.437.566 6.6 0h.037a13.038 13.038 0 007.538-5.45c.053-.066.1-.138.137-.213a13.024 13.024 0 001.963-6.05zM8.563 14.637l1.65.538 1.587 4.9-1.013 1.4H6.463a10.775 10.775 0 01-1.4-4.288l3.5-2.55zm14.874 0l3.5 2.55a10.776 10.776 0 01-1.4 4.288h-4.325l-1.012-1.4 1.588-4.9 1.65-.538zm.713-6.012l-1.337 4.113-1.65.537L17 10.238V8.512l3.5-2.55c1.39.623 2.633 1.53 3.65 2.663zM11.5 5.962l3.5 2.55v1.726l-4.162 3.037-1.65-.537L7.85 8.625a10.875 10.875 0 013.65-2.663zm2.25 20.8l-1.338-4.112 1.013-1.4h5.15l1.012 1.4-1.337 4.113a10.776 10.776 0 01-4.5 0z"/>
</svg>
