<svg xmlns="http://www.w3.org/2000/svg" viewBox="0 0 32 32" fill="currentColor" aria-hidden="true">
  <path d="M28.075 8.925a1.002 1.002 0 00-1.71.717 1.005 1.005 0 00.298.708 8.012 8.012 0 010 11.313.987.987 0 000 1.412 1 1 0 00.7.288c.265-.002.52-.104.712-.288a10.025 10.025 0 000-14.15zM19.438 3.1a1 1 0 00-1.05.112L9.661 10H4a2 2 0 00-2 2v8a2 2 0 002 2h5.662l8.725 6.788c.176.136.391.21.613.212.151-.002.3-.036.438-.1A.975.975 0 0020 28V4a1.013 1.013 0 00-.563-.9zM4 12h5v8H4v-8z"/>
  <path d="M23.125 12.462a.987.987 0 000 1.413 3.013 3.013 0 010 4.25.987.987 0 000 1.412.95.95 0 00.7.288.973.973 0 00.713-.288 5.012 5.012 0 000-7.075 1 1 0 00-1.413 0z"/>
</svg>
