<svg xmlns="http://www.w3.org/2000/svg" viewBox="0 0 32 32" fill="currentColor" aria-hidden="true">
  <path d="M24 20a1 1 0 001-1v-6a1 1 0 00-2 0v6a1 1 0 001 1zM28 10a1 1 0 00-1 1v10a1 1 0 002 0V11a1 1 0 00-1-1zM6.737 4.325a1 1 0 00-1.474 1.35L9.2 10H4a2 2 0 00-2 2v8a2 2 0 002 2h5.662l8.725 6.788c.176.136.391.21.613.212a1 1 0 001-1v-6.113l5.262 5.788a1 1 0 001.413.063.986.986 0 00.063-1.413l-20-22zM18.262 14.025a.988.988 0 00.738.325.926.926 0 00.362-.063A1 1 0 0020 13.35V4a1.001 1.001 0 00-1.613-.788L13.4 7.087a1.012 1.012 0 00-.125 1.463l4.987 5.475z"/>
</svg>
