<svg xmlns="http://www.w3.org/2000/svg" viewBox="0 0 32 32" fill="currentColor" aria-hidden="true">
  <path d="M19.438 3.1a1 1 0 00-1.05.112L9.65 10H4a2 2 0 00-2 2v8a2 2 0 002 2h5.65l8.737 6.788a.988.988 0 001.05.112A1 1 0 0020 28V4a1 1 0 00-.563-.9zM28.412 16l2.3-2.287a1.013 1.013 0 00-1.425-1.425L27 14.587l-2.288-2.3a1.013 1.013 0 00-1.425 1.425l2.3 2.287-2.3 2.288a1.012 1.012 0 000 1.424c.192.184.447.287.713.288.265-.004.519-.106.712-.288l2.288-2.3 2.287 2.3c.192.184.447.287.713.288.265-.004.519-.106.712-.288a1.013 1.013 0 000-1.424L28.412 16z"/>
</svg>
