<svg xmlns="http://www.w3.org/2000/svg" viewBox="0 0 32 32" fill="currentColor" aria-hidden="true">
  <path d="M6.737 4.325a1 1 0 00-1.474 1.35L9.2 10H4a2 2 0 00-2 2v8a2 2 0 002 2h5.662l8.725 6.788a.987.987 0 001.05.112A1 1 0 0020 28v-6.113l5.262 5.788a1 1 0 001.413.063.986.986 0 00.063-1.413l-20-22zM9 20H4v-8h5v8zM18.261 14.025a.989.989 0 00.738.325.926.926 0 00.362-.063A1 1 0 0020 13.35V4a1 1 0 00-1.613-.788L13.4 7.087a1.026 1.026 0 00-.375.7 1.012 1.012 0 00.25.763l4.987 5.475zM28.061 8.925a1 1 0 00-1.706.712c0 .267.106.523.294.713a7.987 7.987 0 010 11.313 1 1 0 000 1.412c.192.184.447.286.712.288a1 1 0 00.7-.288 9.985 9.985 0 000-14.15z"/>
  <path d="M24 16a2.974 2.974 0 01-.888 2.125 1 1 0 00.713 1.7.974.974 0 00.712-.287 5.012 5.012 0 000-7.075 1.012 1.012 0 00-1.425 0 1 1 0 000 1.412A2.973 2.973 0 0124 16z"/>
</svg>
