<svg xmlns="http://www.w3.org/2000/svg" viewBox="0 0 32 32" fill="currentColor" aria-hidden="true">
  <path d="M19.438 3.1a1 1 0 00-1.05.112L9.661 10H4a2 2 0 00-2 2v8a2 2 0 002 2h5.662l8.725 6.788c.176.136.391.21.613.212a1 1 0 001-1V4a1 1 0 00-.563-.9zM4 12h5v8H4v-8zM28.412 16l2.3-2.287a1.013 1.013 0 00-1.425-1.425L27 14.587l-2.288-2.3a1.013 1.013 0 00-1.425 1.425l2.3 2.287-2.3 2.288a1.012 1.012 0 000 1.424 1.025 1.025 0 001.425 0l2.288-2.3 2.287 2.3a1.025 1.025 0 001.425 0 1.013 1.013 0 000-1.424L28.412 16z"/>
</svg>
