<svg xmlns="http://www.w3.org/2000/svg" viewBox="0 0 32 32" fill="currentColor" aria-hidden="true">
  <path d="M17 4v4a1 1 0 01-2 0V4a1 1 0 012 0zm11 11h-4a1 1 0 000 2h4a1 1 0 000-2zm-5.637 5.95a1 1 0 00-1.413 1.413l2.825 2.825a1 1 0 00.713.3.963.963 0 00.7-.3.987.987 0 000-1.413l-2.825-2.825zM16 23a1 1 0 00-1 1v4a1 1 0 002 0v-4a1 1 0 00-1-1zm-6.363-2.05l-2.825 2.825a.988.988 0 000 1.413.963.963 0 00.7.3 1 1 0 00.713-.3l2.825-2.825a1 1 0 00-1.413-1.413zM9 16a1 1 0 00-1-1H4a1 1 0 000 2h4a1 1 0 001-1zm-.775-9.188a1 1 0 00-1.412 1.413l2.824 2.825a1.013 1.013 0 001.413 0 1 1 0 000-1.413L8.225 6.812z"/>
</svg>
