<svg xmlns="http://www.w3.org/2000/svg" viewBox="0 0 32 32" fill="currentColor" aria-hidden="true">
  <path d="M31 18a1 1 0 01-2 0A12.025 12.025 0 0017 6 11.013 11.013 0 006 17a10.012 10.012 0 0010 10 9.013 9.013 0 009-9 8.012 8.012 0 00-8-8 7 7 0 00-7 7 6 6 0 006 6 5 5 0 005-5 4.013 4.013 0 00-4-4 3.013 3.013 0 00-3 3 2 2 0 002 2 1 1 0 001-1 1 1 0 010-2 2 2 0 012 2 3.013 3.013 0 01-3 3 4.013 4.013 0 01-4-4 5 5 0 015-5 6 6 0 016 6 7 7 0 01-7 7 8.012 8.012 0 01-8-8 9.013 9.013 0 019-9 10.012 10.012 0 0110 10 11.012 11.012 0 01-11 11A12.025 12.025 0 014 17 13.025 13.025 0 0117 4a14.012 14.012 0 0114 14z"/>
</svg>
