<svg xmlns="http://www.w3.org/2000/svg" viewBox="0 0 32 32" fill="currentColor" aria-hidden="true">
  <path d="M16 3a13 13 0 1013 13A13.025 13.025 0 0016 3zm3.575 18.087a1 1 0 01-1.337.438A4.95 4.95 0 0016 21a4.888 4.888 0 00-2.25.538 1 1 0 01-.9-1.788A6.912 6.912 0 0116 19a7.012 7.012 0 013.137.738 1.012 1.012 0 01.438 1.35zm1.85-3.537a.987.987 0 01-1.338.425 9 9 0 00-8.175.012 1.05 1.05 0 01-.462.113.988.988 0 01-.887-.55A.998.998 0 0111 16.2a10.988 10.988 0 019.988 0 1.001 1.001 0 01.437 1.35zm1.85-3.55a.987.987 0 01-1.337.425A13.038 13.038 0 0016 13a12.9 12.9 0 00-5.95 1.438.963.963 0 01-.45.112 1 1 0 01-.462-1.888 15.025 15.025 0 0113.712-.012 1 1 0 01.425 1.35z"/>
</svg>
