<svg xmlns="http://www.w3.org/2000/svg" viewBox="0 0 32 32" fill="currentColor" aria-hidden="true">
  <path d="M27 19v8a1 1 0 01-1 1H6a1 1 0 01-1-1v-8a1 1 0 112 0v7h18v-7a1 1 0 012 0zm-16 4h10a1 1 0 100-2H11a1 1 0 000 2zm.613-6.637l9.662 2.587a.8.8 0 00.25.038 1 1 0 00.263-1.963l-9.663-2.587a1 1 0 10-.512 1.925zm2.3-6.25l8.662 5c.15.093.323.14.5.137a.962.962 0 00.863-.5.988.988 0 00-.363-1.362l-8.662-5a1 1 0 00-1 1.725zm10.924 1.637a1 1 0 00.7.288c.266-.002.521-.104.713-.288a1 1 0 000-1.412l-7.075-7.075a1 1 0 00-1.413 1.412l7.075 7.075z"/>
</svg>
