<svg xmlns="http://www.w3.org/2000/svg" viewBox="0 0 32 32" fill="currentColor" aria-hidden="true">
  <path d="M29.9 12.175a2.05 2.05 0 00-1.825-1.425l-7.375-.475a.063.063 0 01-.05-.037L17.9 3.3a2.038 2.038 0 00-3.8 0l-2.75 6.938a.062.062 0 01-.05.037l-7.375.475A2.05 2.05 0 002.1 12.175a2.1 2.1 0 00.65 2.262l5.65 4.7a.1.1 0 01.025.1l-1.688 6.638a2.325 2.325 0 00.875 2.45 2.25 2.25 0 002.513.075l5.862-3.712h.025l6.313 3.987c.323.21.7.323 1.087.325a2.1 2.1 0 001.188-.387 2.075 2.075 0 00.787-2.213l-1.812-7.162a.1.1 0 01.025-.1l5.65-4.7a2.1 2.1 0 00.65-2.263zm-1.925.725l-5.663 4.7a2.1 2.1 0 00-.675 2.125l1.813 7.162c.012.05.012.063 0 .075a.088.088 0 01-.038.038h-.025l-6.3-4A2 2 0 0016 22.687V4c.012 0 .025 0 .037.037l2.763 6.938a2.05 2.05 0 001.762 1.3l7.388.475c.012 0 .025 0 .037.05.013.05 0 .087-.012.1z"/>
</svg>
