<svg xmlns="http://www.w3.org/2000/svg" viewBox="0 0 32 32" fill="currentColor" aria-hidden="true">
  <path d="M29 11.975v-.05a.532.532 0 01-.012-.063v-.037c-.013-.025-.013-.05-.026-.075v-.025L27.175 5.45A2.025 2.025 0 0025.25 4H6.75a2.025 2.025 0 00-1.925 1.45l-1.788 6.275v.025c-.012.025-.012.05-.024.075v.038a.538.538 0 01-.013.062V14a5 5 0 002 4v8a2 2 0 002 2h18a2 2 0 002-2v-8a5 5 0 002-4v-2.025zM5 13h6v1a3 3 0 01-4.388 2.663 1.085 1.085 0 00-.224-.138A2.987 2.987 0 015 14v-1zm14 1a3 3 0 01-6 0v-1h6v1zm6.613 2.525c-.08.037-.156.083-.226.138A3.001 3.001 0 0121 14v-1h6v1a2.988 2.988 0 01-1.387 2.525z"/>
</svg>
