<svg xmlns="http://www.w3.org/2000/svg" viewBox="0 0 32 32" fill="currentColor" aria-hidden="true">
  <path d="M13 23.5a4.5 4.5 0 11-9.002 0 4.5 4.5 0 019.002 0zm-8.713-8.787a1.025 1.025 0 001.425 0l1.788-1.8 1.787 1.8a1.025 1.025 0 001.425 0 1.013 1.013 0 000-1.425l-1.8-1.788 1.8-1.787a1.013 1.013 0 00-1.425-1.425l-1.787 1.8-1.788-1.8a1.013 1.013 0 00-1.425 1.425l1.8 1.787-1.8 1.787a1.013 1.013 0 000 1.425zM25.912 23.5l1.8-1.788a1.013 1.013 0 00-1.425-1.424l-1.787 1.8-1.788-1.8a1.012 1.012 0 00-1.425 1.424l1.8 1.788-1.8 1.788a1.013 1.013 0 000 1.424 1.025 1.025 0 001.425 0l1.788-1.8 1.787 1.8a1.025 1.025 0 001.425 0 1.013 1.013 0 000-1.424l-1.8-1.788zm-6.2-17.212l-.3-.288H22a1 1 0 000-2h-5a1 1 0 00-1 1v5a1 1 0 102 0V7.412l.287.3c2.25 2.238 2.238 4.425 1.85 5.863-.587 2.088-2.425 3.963-4.375 4.45a1.013 1.013 0 00-.737 1.213A1 1 0 0016 20l.237-.025c2.663-.663 5.05-3.075 5.825-5.875.775-2.8-.075-5.525-2.35-7.813z"/>
</svg>
