<svg xmlns="http://www.w3.org/2000/svg" viewBox="0 0 32 32" fill="currentColor" aria-hidden="true">
  <path d="M26 4H6a2 2 0 00-2 2v20a2 2 0 002 2h20a2 2 0 002-2V6a2 2 0 00-2-2zM16 23c-3.088 0-5.512-1.762-5.512-4a1 1 0 012 0c0 .95 1.45 2 3.512 2 1.663 0 3.512-.825 3.512-2s-1.524-1.675-3.85-2.275c-1.087-.275-2.212-.563-3.1-1.025-1.212-.65-1.824-1.55-1.824-2.7 0-2.275 2.262-4 5.262-4 2.15 0 3.988.9 4.813 2.338a1 1 0 01-.375 1.362.988.988 0 01-1.363-.375C18.613 11.525 17.413 11 16 11c-1.825 0-3.262.875-3.262 2 0 .85 1.35 1.262 3.412 1.787 2.388.613 5.363 1.376 5.363 4.213 0 2.238-2.426 4-5.513 4z"/>
</svg>
