<svg xmlns="http://www.w3.org/2000/svg" viewBox="0 0 32 32" fill="currentColor" aria-hidden="true">
  <path d="M28.312 7.05l-12-4a1.063 1.063 0 00-.625 0L3.7 7.05h-.025l-.125.062h-.013l-.125.075c0 .013-.012.013-.025.025l-.1.088-.087.1c0 .012-.013.012-.013.025l-.075.112c0 .013 0 .013-.012.025l-.05.113-.038.137v.038A.463.463 0 003 8v10a1 1 0 102 0V9.387l4.2 1.4A7.9 7.9 0 008 15a8 8 0 003.75 6.775 12.013 12.013 0 00-5.813 4.675 1.013 1.013 0 00.66 1.534.985.985 0 001.015-.434 10 10 0 0116.775 0 1 1 0 00.837.45.938.938 0 00.538-.163 1.012 1.012 0 00.3-1.387 12.013 12.013 0 00-5.813-4.675A8 8 0 0024 15a7.899 7.899 0 00-1.2-4.213l5.513-1.837a1 1 0 000-1.9zM15.999 21a6 6 0 01-6-6 6.075 6.075 0 011.163-3.563l4.525 1.513a1 1 0 00.625 0l4.525-1.513A6.075 6.075 0 0122 15a6 6 0 01-6 6z"/>
</svg>
