<svg xmlns="http://www.w3.org/2000/svg" viewBox="0 0 32 32" fill="currentColor" aria-hidden="true">
  <path d="M16 24.5a8.5 8.5 0 100-17 8.5 8.5 0 000 17zM16 5.5a1 1 0 001-1V2a1 1 0 00-2 0v2.5a1 1 0 001 1zM7.163 8.575a1.013 1.013 0 001.412 0 1 1 0 000-1.413L6.813 5.387a1.012 1.012 0 10-1.425 1.425l1.775 1.763zM5.5 16a1 1 0 00-1-1H2a1 1 0 000 2h2.5a1 1 0 001-1zM7.162 23.425l-1.775 1.762a1.012 1.012 0 000 1.425c.193.182.447.284.712.288.266-.001.52-.104.713-.287l1.762-1.776a1 1 0 00-1.412-1.412zM16 26.5a1 1 0 00-1 1V30a1 1 0 002 0v-2.5a1 1 0 00-1-1zM24.837 23.425a1 1 0 00-1.412 1.412l1.762 1.776c.192.183.447.286.713.287.265-.004.52-.106.713-.287a1.013 1.013 0 000-1.425l-1.776-1.763zM30 15h-2.5a1 1 0 000 2H30a1 1 0 000-2zM24.137 8.863a.975.975 0 00.7-.288l1.775-1.762a1.013 1.013 0 00-1.425-1.425l-1.762 1.775a1 1 0 00.327 1.629c.122.05.253.073.385.07z"/>
</svg>
