<svg xmlns="http://www.w3.org/2000/svg" viewBox="0 0 32 32" fill="currentColor" aria-hidden="true">
  <path d="M16 24.5a8.5 8.5 0 100-17 8.5 8.5 0 000 17zM16 5.5a1 1 0 001-1v-1a1 1 0 00-2 0v1a1 1 0 001 1zM7.163 8.575a1.012 1.012 0 001.412 0 1 1 0 000-1.412l-.712-.713A1 1 0 006.45 7.863l.713.712zM4.5 15h-1a1 1 0 000 2h1a1 1 0 000-2zM7.163 23.425l-.713.712a1 1 0 000 1.413c.192.183.447.286.713.287a1 1 0 00.7-.287l.712-.713a1 1 0 00-1.412-1.412zM16 26.5a1 1 0 00-1 1v1a1 1 0 002 0v-1a1 1 0 00-1-1zM24.837 23.425a1 1 0 00-1.412 1.412l.712.713a1 1 0 00.7.287c.266 0 .521-.104.713-.287a1 1 0 000-1.413l-.713-.712zM28.5 15h-1a1 1 0 000 2h1a1 1 0 000-2zM24.137 8.862a.975.975 0 00.7-.287l.713-.713a1 1 0 10-1.413-1.412l-.712.712a1 1 0 00.327 1.63c.122.05.253.073.385.07z"/>
</svg>
