<svg xmlns="http://www.w3.org/2000/svg" viewBox="0 0 32 32" fill="currentColor" aria-hidden="true">
  <path d="M25 5a1 1 0 100 2 2 2 0 012 2v7.5H5V9a2 2 0 012-2 1 1 0 000-2 4.013 4.013 0 00-4 4v11.5a5.5 5.5 0 0011 0v-2h4v2a5.5 5.5 0 0011 0V9a4.013 4.013 0 00-4-4zM10.625 22.125a.962.962 0 01-.7.3 1 1 0 01-.713-.3l-1.925-1.913a1.013 1.013 0 011.426-1.424l1.912 1.924a.987.987 0 010 1.413zm15 0a.962.962 0 01-.7.3 1 1 0 01-.713-.3l-1.924-1.913a1.012 1.012 0 011.424-1.424l1.913 1.924a.987.987 0 010 1.413z"/>
</svg>
