<svg xmlns="http://www.w3.org/2000/svg" viewBox="0 0 32 32" fill="currentColor" aria-hidden="true">
  <path d="M9.713 5.45a1.013 1.013 0 01.933-1.389.988.988 0 01.916.626l.963 2.3a1.012 1.012 0 01-.537 1.313 1.062 1.062 0 01-.388.075 1.025 1.025 0 01-.925-.613L9.712 5.45zm-7.025 8.112l2.3.963c.123.049.254.074.387.075a1 1 0 00.388-1.925l-2.313-.963a1.012 1.012 0 00-1.389.933.988.988 0 00.627.917zM26.625 14.6c.133 0 .264-.026.387-.075l2.3-.963a.987.987 0 00.55-1.3 1.012 1.012 0 00-1.312-.55l-2.313.963a1 1 0 00.388 1.925zm-6.613-6.3c.124.049.255.074.388.075a1.025 1.025 0 00.925-.613l.963-2.312a1.013 1.013 0 00-.933-1.389.988.988 0 00-.918.626l-.962 2.3a1.012 1.012 0 00.537 1.313zM30 19h-5.563c.04-.332.061-.666.063-1a8.5 8.5 0 10-17 0c.002.334.023.668.063 1H2a1 1 0 000 2h28a1 1 0 100-2zm-4 5H6a1 1 0 000 2h20a1 1 0 100-2z"/>
</svg>
