<svg xmlns="http://www.w3.org/2000/svg" viewBox="0 0 32 32" fill="currentColor" aria-hidden="true">
  <path d="M28 6v13a2 2 0 01-2 2H14v2a1 1 0 01-.613.925 1.037 1.037 0 01-1.1-.213l-3-3a1.013 1.013 0 010-1.424l3-3a1.05 1.05 0 011.1-.213A1 1 0 0114 17v2h12V6H12v1a1 1 0 01-2 0V6a2 2 0 012-2h14a2 2 0 012 2zm-7 18a1 1 0 00-1 1v1H6V13h12v2a1.013 1.013 0 00.613.925 1.037 1.037 0 001.1-.213l3-3a1.012 1.012 0 000-1.425l-3-3a1.025 1.025 0 00-1.1-.212A1 1 0 0018 9v2H6a2 2 0 00-2 2v13a2 2 0 002 2h14a2 2 0 002-2v-1a1 1 0 00-1-1z"/>
</svg>
