<svg xmlns="http://www.w3.org/2000/svg" viewBox="0 0 32 32" fill="currentColor" aria-hidden="true">
  <path d="M28.525 19.125l-2.4-6.588a2 2 0 00-2.563-1.187l-7.487 2.725 1.375-7.85a1.999 1.999 0 00-.325-1.5 2.025 2.025 0 00-1.288-.825l-6.9-1.213a2.012 2.012 0 00-2.312 1.625L3.6 21.462a5.625 5.625 0 00.962 4.238 5.426 5.426 0 003.588 2.237c.277.04.557.06.837.063H26.5a2 2 0 002-2v-5.463c.183-.451.192-.955.025-1.412zM9 24a1.5 1.5 0 110-3 1.5 1.5 0 010 3zm17.5 2H15.462L26.5 21.987V26zm-12.313-1.663c.102-.288.177-.585.225-.887l1.263-7.1 8.575-3.125 2.387 6.575-12.45 4.537z"/>
</svg>
