<svg xmlns="http://www.w3.org/2000/svg" viewBox="0 0 32 32" fill="currentColor" aria-hidden="true">
  <path d="M27.711 4.288A1.012 1.012 0 0027 4l-7.975.025a1.012 1.012 0 00-.775.363l-8.8 10.65L8.41 14a2.013 2.013 0 00-2.825 0L4 15.588a1.987 1.987 0 000 2.825l2.612 2.612-3.75 3.738a2.025 2.025 0 000 2.837L4.4 29.137a2.037 2.037 0 002.837 0l3.738-3.75L13.586 28a2.013 2.013 0 002.825 0L18 26.413a1.989 1.989 0 000-2.826L16.96 22.55l10.65-8.8a1.013 1.013 0 00.363-.775L27.999 5a1.012 1.012 0 00-.288-.712zM25.974 12.5l-10.438 8.625-1.625-1.625 6.8-6.787a1.012 1.012 0 00-1.425-1.425l-6.787 6.8-1.625-1.626 8.625-10.437 6.5-.025-.025 6.5z"/>
</svg>
