<svg xmlns="http://www.w3.org/2000/svg" viewBox="0 0 32 32" fill="currentColor" aria-hidden="true">
  <path d="M29.712 9.712a1.025 1.025 0 01-1.425 0L26 7.412 22.412 11l4.3 4.287a1.013 1.013 0 010 1.425 1.025 1.025 0 01-1.425 0l-.787-.8-10.5 10.5a2.013 2.013 0 01-1.413.588H6.412l-2.7 2.712a1.025 1.025 0 01-1.425 0 1.013 1.013 0 010-1.424L5 25.588v-6.175c.002-.53.213-1.038.587-1.413l1.4-1.4a.5.5 0 01.7 0l3.6 3.612a1.025 1.025 0 001.425 0 1.013 1.013 0 000-1.424l-3.612-3.6a.5.5 0 010-.7l2.387-2.388a.5.5 0 01.7 0l3.6 3.613a1.025 1.025 0 001.425 0 1.013 1.013 0 000-1.425l-3.612-3.6a.5.5 0 010-.7L16.087 7.5l-.762-.763a1.037 1.037 0 01-.05-1.425 1.012 1.012 0 011.437-.025L21 9.587 24.587 6l-2.262-2.263a1.037 1.037 0 01-.05-1.425 1.012 1.012 0 011.437-.025l6 6a1.013 1.013 0 010 1.425z"/>
</svg>
