<svg xmlns="http://www.w3.org/2000/svg" viewBox="0 0 32 32" fill="currentColor" aria-hidden="true">
  <path d="M28 17h.412a.5.5 0 01.488.563A13.025 13.025 0 0117.05 28.95 11 11 0 0128 17zm-9.188 1.813A12.861 12.861 0 0128 15h.387a.5.5 0 00.513-.55A13.012 13.012 0 0017.537 3.087a.5.5 0 00-.55.513 12.964 12.964 0 01-3.8 9.588A12.863 12.863 0 014 17h-.388a.5.5 0 00-.512.55 13.013 13.013 0 0011.362 11.363.5.5 0 00.55-.513 12.96 12.96 0 013.8-9.587zm-7.037-7.038a10.95 10.95 0 003.212-8.213.5.5 0 00-.562-.462A13 13 0 003.1 14.425a.5.5 0 00.475.563 10.975 10.975 0 008.2-3.213z"/>
</svg>
