<svg xmlns="http://www.w3.org/2000/svg" viewBox="0 0 32 32" fill="currentColor" aria-hidden="true">
  <path d="M28 16a1 1 0 01-1 1h-5.012c1.15.887 2.012 2.15 2.012 4s-.875 3.212-2.475 4.35C19.925 26.487 18.075 27 16 27s-4.037-.587-5.525-1.65C8.988 24.287 8 22.662 8 21a1 1 0 112 0c0 2.163 2.75 4 6 4s6-1.837 6-4c0-1.863-1.313-2.95-4.85-4H5a1 1 0 010-2h22a1 1 0 011 1zM9.538 13a1 1 0 00.95-1.313 2.4 2.4 0 01-.1-.687c0-2.275 2.412-4 5.612-4 2.438 0 4.512 1.037 5.288 2.625a1.013 1.013 0 001.652.229.987.987 0 00.147-1.104C21.962 6.437 19.25 5 16 5c-4.338 0-7.613 2.575-7.613 6a4.5 4.5 0 00.2 1.313 1 1 0 00.95.687z"/>
</svg>
