<svg xmlns="http://www.w3.org/2000/svg" viewBox="0 0 32 32" fill="currentColor" aria-hidden="true">
  <path d="M17.238 18.525l-6.35-11.988a1 1 0 00-1.775 0l-6.35 11.988-2.65 5.013a1.013 1.013 0 00.425 1.35 1.012 1.012 0 001.35-.426L4.251 20h11.5l2.362 4.462a.987.987 0 00.888.538 1 1 0 00.887-1.462l-2.65-5.013zM5.313 18l4.688-8.863L14.688 18H5.313zm20.688-6.137a5.25 5.25 0 00-3.7 1.475 1 1 0 101.4 1.425 3.25 3.25 0 012.3-.9c1.65 0 3 1.125 3 2.5v.9a5.374 5.374 0 00-3-.9c-2.763 0-5 2.012-5 4.5 0 2.487 2.237 4.5 5 4.5a5.363 5.363 0 003.087-.963.987.987 0 00.913.6 1 1 0 001-1v-7.637c0-2.488-2.238-4.5-5-4.5zm0 11.5c-1.65 0-3-1.125-3-2.5s1.35-2.5 3-2.5 3 1.125 3 2.5-1.35 2.5-3 2.5z"/>
</svg>
