<svg xmlns="http://www.w3.org/2000/svg" viewBox="0 0 32 32" fill="currentColor" aria-hidden="true">
  <path d="M30.613 9.713l-2.5.812 1.55 2.125a1 1 0 01-.225 1.4 1.012 1.012 0 01-1.4-.225L26.5 11.7l-1.537 2.125a1.013 1.013 0 01-1.4.225 1 1 0 01-.225-1.4l1.55-2.125-2.5-.813a.987.987 0 01-.638-1.262.975.975 0 011.25-.637l2.5.812V6a1 1 0 112 0v2.625l2.5-.813a.975.975 0 011.25.638.986.986 0 01-.637 1.263zM22.5 23.5a7.5 7.5 0 01-15 0 7.425 7.425 0 012.5-5.587V6a5 5 0 1110 0v11.913a7.425 7.425 0 012.5 5.587zM12 6v7h6V6a3 3 0 00-6 0z"/>
</svg>
