<svg xmlns="http://www.w3.org/2000/svg" viewBox="0 0 32 32" fill="currentColor" aria-hidden="true">
  <path d="M20 17.913V6a5 5 0 00-10 0v11.913A7.424 7.424 0 007.5 23.5a7.5 7.5 0 0015 0 7.427 7.427 0 00-2.5-5.587zM15 3a3.012 3.012 0 013 3v1h-6V6a3.013 3.013 0 013-3zm7.263 7.713a1 1 0 010-1.425 3.5 3.5 0 012.475-1.026 3.55 3.55 0 012.475 1.025 1.487 1.487 0 002.112 0 1.003 1.003 0 111.413 1.425 3.501 3.501 0 01-2.475 1.026 3.55 3.55 0 01-2.475-1.025 1.487 1.487 0 00-2.113 0 1 1 0 01-1.412 0zm8.475 3.575a1 1 0 010 1.425 3.501 3.501 0 01-2.475 1.025 3.55 3.55 0 01-2.475-1.025 1.487 1.487 0 00-2.113 0 1.003 1.003 0 01-1.412-1.425 3.5 3.5 0 012.475-1.026 3.55 3.55 0 012.475 1.025 1.486 1.486 0 002.112 0 1 1 0 011.413 0z"/>
</svg>
