<svg xmlns="http://www.w3.org/2000/svg" viewBox="0 0 32 32" fill="currentColor" aria-hidden="true">
  <path d="M28 14.012A1 1 0 0027 13H5a1 1 0 00-1 1.012 12 12 0 006.6 10.7l-.425 2.963c-.068.433.007.876.213 1.262A1.999 1.999 0 0012.15 30h7.65c.437.005.865-.126 1.225-.375a2.026 2.026 0 00.8-1.913l-.425-3a12 12 0 006.6-10.7zM12.15 28l.363-2.512c2.274.683 4.7.683 6.975 0L19.85 28h-7.7zM7.5 11h17a.5.5 0 00.5-.5V5a2 2 0 00-2-2H9a2 2 0 00-2 2v5.5a.5.5 0 00.5.5zM11 6h1.963A1.025 1.025 0 0114 6.938 1.001 1.001 0 0113 8h-1.962A1.025 1.025 0 0110 7.062 1 1 0 0111 6z"/>
</svg>
