<svg xmlns="http://www.w3.org/2000/svg" viewBox="0 0 32 32" fill="currentColor" aria-hidden="true">
  <path d="M23 15a1 1 0 01-1 1h-2a1 1 0 010-2h2a1 1 0 011 1zm7 0v11a2 2 0 01-2 2H14a2 2 0 01-2-2v-2.712C10.925 25.05 9.525 26 8 26c-1.737 0-3.313-1.238-4.425-3.488C2.562 20.488 2 17.825 2 15c0-2.825.563-5.488 1.575-7.513C4.687 5.237 6.263 4 8 4h16c1.738 0 3.313 1.237 4.425 3.487C29.437 9.512 30 12.175 30 15zM9.5 15a1.5 1.5 0 10-3 0 1.5 1.5 0 003 0zM28 16h-2a1 1 0 010-2h1.975c-.25-4.762-2.2-8-3.975-8H11.512c.357.462.663.96.913 1.487.9 1.775 1.438 4.063 1.55 6.513H16a1 1 0 010 2h-2v10h14V16z"/>
</svg>
