<svg xmlns="http://www.w3.org/2000/svg" viewBox="0 0 32 32" fill="currentColor" aria-hidden="true">
  <path d="M30.5 14.587L17.414 1.5a1.988 1.988 0 00-2.825 0L1.501 14.587a2.013 2.013 0 000 2.825L14.588 30.5a1.99 1.99 0 002.825 0l13.088-13.088a2.012 2.012 0 000-2.825zM22 15v.1a.051.051 0 00-.012.037.111.111 0 01-.012.063.1.1 0 01-.013.05v.037l-.025.05c0 .013-.012.025-.012.05l-.025.038v.05l-.025.037c-.013.013-.025.025-.025.038l-.038.05-.025.037-.062.063-3 3a1.025 1.025 0 01-1.425 0 1.013 1.013 0 010-1.425L18.588 16h-4.587a2 2 0 00-2 2v1a1 1 0 11-2 0v-1a4.013 4.013 0 014-4h4.587l-1.3-1.288a1.013 1.013 0 011.425-1.425l3 3 .063.063.025.037.037.05c0 .013.013.025.025.038l.025.037v.05l.025.038c0 .025.013.037.013.05l.025.05v.037a.1.1 0 01.012.05c.01.02.015.041.013.063 0 .007 0 .014.002.02a.05.05 0 00.01.017v.1l.013.013z"/>
</svg>
