<svg xmlns="http://www.w3.org/2000/svg" viewBox="0 0 32 32" fill="currentColor" aria-hidden="true">
  <path d="M20 10h-8a1 1 0 000 2h8a1 1 0 000-2z"/>
  <path d="M28 14.988a.276.276 0 00-.012-.1v-.063c-.012-.025-.012-.05-.025-.075l-2.8-10.25A1.987 1.987 0 0023.238 3H8.763a1.988 1.988 0 00-1.925 1.475l-2.8 10.25c-.013.025-.013.05-.025.075v.063a.275.275 0 00-.013.1v.025a.35.35 0 00.013.112c.002.039.01.077.025.113l2.8 10.262A1.987 1.987 0 008.763 27h1.238l-1.8 2.4a1 1 0 001.6 1.2l2.7-3.6h7l2.7 3.6a.999.999 0 00.8.4 1 1 0 00.8-1.6L22 27h1.237a1.988 1.988 0 001.925-1.475l2.8-10.262a.362.362 0 00.025-.113.35.35 0 00.012-.113v-.05zM17 24a1 1 0 01-2 0v-5a1 1 0 012 0v5zm-1-8.012l-9.75-1.775L8.763 5h14.475l2.512 9.213L16 15.988z"/>
</svg>
