<svg xmlns="http://www.w3.org/2000/svg" viewBox="0 0 32 32" fill="currentColor" aria-hidden="true">
  <path d="M29.887 26.55l-7-14A.988.988 0 0022 12a1 1 0 00-.9.55l-2.713 5.425a10.925 10.925 0 01-5.887-2.113A13.013 13.013 0 0015.963 8H19a1 1 0 100-2h-7V4a1 1 0 00-2 0v2H3a1 1 0 000 2h10.95A10.937 10.937 0 0111 14.537a10.887 10.887 0 01-2.375-3.875 1 1 0 00-1.275-.6.987.987 0 00-.612 1.276c.6 1.682 1.54 3.222 2.762 4.525A10.888 10.888 0 013 18a1 1 0 000 2c2.9 0 5.717-.973 8-2.762a12.95 12.95 0 006.425 2.662L14.1 26.55a1.001 1.001 0 001.787.9L17.613 24h8.762l1.725 3.45a1 1 0 00.9.55c.155-.003.308-.037.45-.1a1.012 1.012 0 00.438-1.35zM18.614 22L22 15.238 25.375 22h-6.762z"/>
</svg>
