<svg xmlns="http://www.w3.org/2000/svg" viewBox="0 0 32 32" fill="currentColor" aria-hidden="true">
  <path d="M16 23.488c-.323.208-.657.4-1 .575V29a1 1 0 002 0v-4.938a11.428 11.428 0 01-1-.575z"/>
  <path d="M24.762 7.825a9.5 9.5 0 00-17.524 0A9.038 9.038 0 002 15.975c-.012 4.85 3.925 8.9 8.762 9.025A8.986 8.986 0 0015 24.062v-4.45L9.55 16.9a1.006 1.006 0 11.9-1.8L15 17.387V11a1 1 0 012 0v3.387l4.55-2.287a1.006 1.006 0 01.9 1.8L17 16.612v7.45A9 9 0 0021 25h.238c4.837-.125 8.774-4.175 8.762-9.025a9.037 9.037 0 00-5.238-8.15z"/>
</svg>
