<svg xmlns="http://www.w3.org/2000/svg" viewBox="0 0 32 32" fill="currentColor" aria-hidden="true">
  <path d="M29.951 15.825A14.013 14.013 0 0016.001 3a14.013 14.013 0 00-13.95 12.825 1.962 1.962 0 00.525 1.525A1.987 1.987 0 004.04 18H15v7a4 4 0 108 0 1 1 0 00-2 0 2 2 0 01-4 0v-7h10.963a1.988 1.988 0 001.462-.65 1.963 1.963 0 00.525-1.525zM4.04 16a11.987 11.987 0 019.487-10.738c-1.462 2-3.3 5.5-3.5 10.738H4.04zm17.937 0c-.2-5.238-2.037-8.738-3.5-10.738A11.988 11.988 0 0127.964 16h-5.988z"/>
</svg>
