<svg xmlns="http://www.w3.org/2000/svg" viewBox="0 0 32 32" fill="currentColor" aria-hidden="true">
  <path d="M16 9.5a5.5 5.5 0 110 11 5.5 5.5 0 010-11zM22 8h2v2a1 1 0 002 0V8h2a1 1 0 100-2h-2V4a1 1 0 00-2 0v2h-2a1 1 0 100 2zm5.7 5.125a.986.986 0 00-.838 1.138A11.5 11.5 0 0126.999 16a10.95 10.95 0 01-2.775 7.3 10.162 10.162 0 00-3.062-2.875 7.462 7.462 0 01-10.325 0A10.162 10.162 0 007.774 23.3a11 11 0 019.963-18.162 1 1 0 00.312-1.975A13 13 0 007.224 25.588l.163.15a13 13 0 0017.225 0l.162-.15A12.962 12.962 0 0029 16a12.478 12.478 0 00-.162-2.05.989.989 0 00-1.138-.825z"/>
</svg>
