<svg xmlns="http://www.w3.org/2000/svg" viewBox="0 0 32 32" fill="currentColor" aria-hidden="true">
  <path d="M28 6v3.5a1 1 0 01-2 0V6h-3.5a1 1 0 110-2H26a2 2 0 012 2zm-1 15.5a1 1 0 00-1 1V26h-3.5a1 1 0 000 2H26a2 2 0 002-2v-3.5a1 1 0 00-1-1zM9.5 26H6v-3.5a1 1 0 10-2 0V26a2 2 0 002 2h3.5a1 1 0 000-2zM5 10.5a1 1 0 001-1V6h3.5a1 1 0 100-2H6a2 2 0 00-2 2v3.5a1 1 0 001 1zm7.637 7.188a8.637 8.637 0 00-4.162 3.85.975.975 0 00.037.974.987.987 0 00.85.488h13.275a.987.987 0 00.85-.488.976.976 0 00.038-.974 8.637 8.637 0 00-4.162-3.85A4.937 4.937 0 0021 14a5 5 0 10-9.575 2.019 4.937 4.937 0 001.212 1.669z"/>
</svg>
