<svg xmlns="http://www.w3.org/2000/svg" viewBox="0 0 32 32" fill="currentColor" aria-hidden="true">
  <path d="M24.988 24.363a.975.975 0 01.138 1.062.987.987 0 01-.9.575H2.776a.988.988 0 01-.9-.575.975.975 0 01.137-1.062A14.8 14.8 0 018.988 19.7a8.5 8.5 0 119.025 0 14.8 14.8 0 016.975 4.663zm6.413-5.113a1 1 0 01-1.375.363l-.575-.338a3 3 0 01-.95.55v.675a1 1 0 01-2 0v-.675a2.999 2.999 0 01-.95-.55l-.575.338a.95.95 0 01-.5.137 1 1 0 01-.5-1.862l.575-.338a3.049 3.049 0 010-1.1l-.575-.337a.988.988 0 01-.375-1.363 1.012 1.012 0 011.375-.362l.575.337a3 3 0 01.95-.55V13.5a1 1 0 112 0v.675c.348.123.67.31.95.55l.575-.337a1.012 1.012 0 011.375.362.988.988 0 01-.375 1.363l-.575.337c.066.364.066.736 0 1.1l.575.338a.987.987 0 01.375 1.362zM27.5 18a1 1 0 100-1.999 1 1 0 000 2z"/>
</svg>
