<svg xmlns="http://www.w3.org/2000/svg" viewBox="0 0 32 32" fill="currentColor" aria-hidden="true">
  <path d="M31.713 16.712l-3 3a1.025 1.025 0 01-1.425 0l-3-3a1.05 1.05 0 01-.212-1.1A1 1 0 0125 15h1.95a10.987 10.987 0 00-20.188-4.963 1 1 0 01-1.387.288.987.987 0 01-.3-1.375A13 13 0 0128.963 15h2.038a1 1 0 01.925.613 1.05 1.05 0 01-.213 1.1zm-5.087 4.963a1 1 0 00-1.388.287c-.302.476-.64.927-1.012 1.35a10.162 10.162 0 00-3.063-2.875 7.462 7.462 0 01-10.325 0 10.162 10.162 0 00-3.062 2.875A10.95 10.95 0 015.05 17H7a1 1 0 00.925-.613 1.05 1.05 0 00-.213-1.1l-3-3a1.012 1.012 0 00-1.425 0l-3 3a1.05 1.05 0 00-.212 1.1A1 1 0 001 17h2.037a12.963 12.963 0 004.313 8.7l.05.038a12.987 12.987 0 0019.525-2.688.988.988 0 00-.3-1.375zM16 20.5a5.5 5.5 0 100-11 5.5 5.5 0 000 11z"/>
</svg>
