<svg xmlns="http://www.w3.org/2000/svg" viewBox="0 0 32 32" fill="currentColor" aria-hidden="true">
  <path d="M8 17.5a.987.987 0 01-1 1H1.5a1.025 1.025 0 01-.9-.55 1.025 1.025 0 01.1-1.05 8.475 8.475 0 013.425-2.713 5 5 0 118.287-4.625 1.012 1.012 0 01-.475 1.05 8.038 8.038 0 00-3.474 4.225A7.7 7.7 0 008 17.5zm23.3-.6a8.474 8.474 0 00-3.425-2.713 5 5 0 10-8.288-4.625 1.013 1.013 0 00.476 1.05 8 8 0 013.475 4.225c.31.854.466 1.755.462 2.663a.99.99 0 001 1h5.5a1 1 0 00.8-1.6zm-11.65 5.362a6 6 0 10-7.3 0 9.013 9.013 0 00-4.45 4.3.975.975 0 00.063.963A.975.975 0 008.8 28h14.4a.975.975 0 00.838-.475.974.974 0 00.062-.963 9.012 9.012 0 00-4.45-4.3z"/>
</svg>
