<svg xmlns="http://www.w3.org/2000/svg" viewBox="0 0 32 32" fill="currentColor" aria-hidden="true">
  <path d="M16 9.5a5.5 5.5 0 110 11 5.5 5.5 0 010-11zm12.9-.25a1 1 0 01-.876.5.95.95 0 01-.5-.137l-.575-.338a3 3 0 01-.95.55v.675a1 1 0 01-2 0v-.675a3 3 0 01-.95-.55l-.575.338a.95.95 0 01-.5.137 1 1 0 01-.5-1.862l.575-.338A2.65 2.65 0 0122 7a2.65 2.65 0 01.05-.55l-.575-.338a.988.988 0 01.239-1.825c.257-.068.53-.032.761.1l.575.338a3 3 0 01.95-.55V3.5a1 1 0 012 0v.675a3 3 0 01.95.55l.575-.337a1.012 1.012 0 011.375.362.988.988 0 01-.375 1.362l-.575.338c.036.181.053.365.05.55a2.65 2.65 0 01-.05.55l.575.338A.988.988 0 0128.9 9.25zM25 8a1 1 0 100-2 1 1 0 000 2zm2.8 5.575a1 1 0 00-.876 1.1c.05.44.075.882.075 1.325a10.95 10.95 0 01-2.775 7.3 10.162 10.162 0 00-3.062-2.875 7.463 7.463 0 01-10.325 0A10.162 10.162 0 007.774 23.3 11 11 0 0116 5c.343-.002.685.015 1.025.05a1.004 1.004 0 10.175-2C16.812 3.013 16.4 3 16 3a13 13 0 00-8.775 22.587l.163.15a13 13 0 0017.225 0l.162-.15A12.961 12.961 0 0029 16a12.723 12.723 0 00-.087-1.55 1 1 0 00-1.113-.875z"/>
</svg>
