<svg xmlns="http://www.w3.org/2000/svg" viewBox="0 0 32 32" fill="currentColor" aria-hidden="true">
  <path d="M15.149 19.737a7.5 7.5 0 10-8.3 0A11.938 11.938 0 001.186 24.1a.975.975 0 00-.075 1.037 1.012 1.012 0 00.888.538h18a1.013 1.013 0 00.887-.538.975.975 0 00-.075-1.037 11.938 11.938 0 00-5.662-4.363z"/>
  <path d="M31.013 24.1a12.038 12.038 0 00-5.675-4.363A7.487 7.487 0 0021.188 6a8 8 0 00-2.037.275 1.025 1.025 0 00-.675.65 1 1 0 00.15.913A9.475 9.475 0 0119.1 18.45a1.013 1.013 0 00.262 1.325c.375.292.738.592 1.088.9l.062.063a14.075 14.075 0 013.188 4.362.987.987 0 00.9.575h5.587a1.013 1.013 0 00.888-.538 1 1 0 00-.063-1.037z"/>
</svg>
