<svg xmlns="http://www.w3.org/2000/svg" viewBox="0 0 32 32" fill="currentColor" aria-hidden="true">
  <path d="M3.2 14.4a8.475 8.475 0 013.425-2.713 5 5 0 116.75 0A8.513 8.513 0 0116 13.475a8.513 8.513 0 012.625-1.788 5 5 0 116.75 0A8.475 8.475 0 0128.8 14.4a1 1 0 01-.2 1.4 1.012 1.012 0 01-1.4-.2 6.5 6.5 0 00-10.4 0l-.075.075h-.013l-.062.062-.037.025a.012.012 0 01-.004.01.012.012 0 01-.009.003l-.038.025-.037.025-.063.037h-.024l-.213.075h-.413l-.1-.025h-.037l-.113-.05-.037-.025a.59.59 0 01-.113-.075H15.4l-.037-.037h-.025c-.025-.025-.05-.038-.063-.063h-.013l-.075-.087a6.499 6.499 0 00-10.387.012A1 1 0 014 16a1 1 0 01-.8-1.6zm22.175 10.287a5 5 0 10-6.75 0A8.513 8.513 0 0016 26.475a8.513 8.513 0 00-2.625-1.788 5 5 0 10-6.75 0A8.475 8.475 0 003.2 27.4 1 1 0 004 29h24a1 1 0 00.8-1.6 8.475 8.475 0 00-3.425-2.713z"/>
</svg>
