<svg xmlns="http://www.w3.org/2000/svg" viewBox="0 0 32 32" fill="currentColor" aria-hidden="true">
  <path d="M28.738 28.325a.987.987 0 01-.063 1.413 1 1 0 01-1.413-.063l-5.3-5.825A1.987 1.987 0 0120 25.5H3a2 2 0 01-2-2v-15a2 2 0 012-2h3.2L3.625 3.675a1 1 0 01.063-1.412.987.987 0 011.412.062l23.638 26zm1.95-19.05a.988.988 0 00-1.188-.137l-5 2.85a1 1 0 00-.5.875v6.275a1 1 0 00.5.875l5 2.85a.989.989 0 001.225-.175 1 1 0 00.275-.713v-11.95a1 1 0 00-.313-.75zm-10.425 6.75a1 1 0 001.224.2 1.026 1.026 0 00.513-.912V8.5a2 2 0 00-2-2h-6.113a1.063 1.063 0 00-.825.388 1 1 0 00.063 1.287l7.137 7.85z"/>
</svg>
