<svg xmlns="http://www.w3.org/2000/svg" viewBox="0 0 32 32" fill="currentColor" aria-hidden="true">
  <path d="M29 15.95A13 13 0 104.737 22.5c.25.425.525.837.813 1.238l.062.087a12.987 12.987 0 0022.275-2.587.9.9 0 00.113-.25 13.213 13.213 0 001-4.913v-.125zM5.562 19.488a11.025 11.025 0 014.1-12.476l2.138 3.713a13.05 13.05 0 00-6.238 8.763zm4.1 5.5a10.525 10.525 0 01-2.3-2.175A11 11 0 0112.8 12.45L14.85 16l-5.188 8.988zm16.55-4.913a11.025 11.025 0 01-11.687.475l2.05-3.55H26.95a11.164 11.164 0 01-.738 3.075zM22.675 15a13.126 13.126 0 00-4.463-9.775A10.987 10.987 0 0126.95 15h-4.275z"/>
</svg>
