<svg xmlns="http://www.w3.org/2000/svg" viewBox="0 0 32 32" fill="currentColor" aria-hidden="true">
  <path d="M17 11.5h11.5a.5.5 0 00.5-.5V7a1 1 0 00-1-1H17.5a.5.5 0 00-.5.5v5zM23 19h5.5a.5.5 0 00.5-.5V14a.5.5 0 00-.5-.5H23V19zM21 13.5H11V19h10v-5.5zM9 13.5H3.5a.5.5 0 00-.5.5v4.5a.5.5 0 00.5.5H9v-5.5zM17 21v4.5a.5.5 0 00.5.5H28a1 1 0 001-1v-3.5a.5.5 0 00-.5-.5H17zM15 11.5v-5a.5.5 0 00-.5-.5H4a1 1 0 00-1 1v4a.5.5 0 00.5.5H15zM15 21H3.5a.5.5 0 00-.5.5V25a1 1 0 001 1h10.5a.5.5 0 00.5-.5V21z"/>
</svg>
