<svg xmlns="http://www.w3.org/2000/svg" viewBox="0 0 32 32" fill="currentColor" aria-hidden="true">
  <path d="M28.413 10.025l-6.438-6.438A2.012 2.012 0 0020.562 3h-9.125a2.012 2.012 0 00-1.412.587l-6.438 6.438A2.012 2.012 0 003 11.437v9.126c.002.53.213 1.037.587 1.412l6.438 6.438c.375.374.883.585 1.412.587h9.126a2.013 2.013 0 001.412-.587l6.438-6.438c.374-.375.585-.883.587-1.413v-9.125a2.013 2.013 0 00-.587-1.412zM15 10a1 1 0 012 0v7a1 1 0 01-2 0v-7zm1 13a1.5 1.5 0 110-3 1.5 1.5 0 010 3z"/>
</svg>
