<svg xmlns="http://www.w3.org/2000/svg" viewBox="0 0 32 32" fill="currentColor" aria-hidden="true">
  <path d="M4.212 9.625a1 1 0 01.163-1.4 10.225 10.225 0 013.637-1.7c2.012-.5 5.137-.625 8.537 1.638 5.3 3.537 9.65.2 9.826.05a1.025 1.025 0 011.412.162 1 1 0 01-.162 1.4 10.224 10.224 0 01-3.638 1.7c-.805.2-1.632.301-2.462.3-1.75 0-3.85-.462-6.075-1.937-5.3-3.538-9.65-.2-9.825-.05a1.025 1.025 0 01-1.413-.163zm22.163 5.588c-.175.15-4.526 3.487-9.826-.05-3.4-2.263-6.524-2.138-8.537-1.638-1.313.32-2.55.899-3.637 1.7a1 1 0 00-.163 1.4 1.025 1.025 0 001.413.163c.175-.15 4.524-3.488 9.825.05 2.224 1.475 4.325 1.937 6.075 1.937.83.001 1.657-.1 2.462-.3 1.313-.32 2.55-.898 3.638-1.7a1 1 0 00.162-1.4 1.025 1.025 0 00-1.412-.162zm0 7c-.175.15-4.526 3.487-9.826-.05-3.4-2.263-6.524-2.138-8.537-1.638-1.313.32-2.55.899-3.637 1.7a1 1 0 00-.163 1.4 1.025 1.025 0 001.413.163c.175-.15 4.524-3.488 9.825.05 2.224 1.475 4.325 1.937 6.075 1.937a10.325 10.325 0 006.1-2 1 1 0 00.162-1.4 1.025 1.025 0 00-1.412-.162z"/>
</svg>
