<svg xmlns="http://www.w3.org/2000/svg" viewBox="0 0 32 32" fill="currentColor" aria-hidden="true">
  <path d="M16 3A13 13 0 004.6 22.25L3.538 26A1.988 1.988 0 006 28.462L9.75 27.4A13 13 0 1016 3zm3.012 21H19A11.012 11.012 0 018 12.988 4.5 4.5 0 0112.5 8.5a1.863 1.863 0 011.613.938L15.575 12a1.975 1.975 0 01-.025 2.012l-.888 1.488a5.175 5.175 0 001.838 1.837l1.488-.887A1.975 1.975 0 0120 16.425l2.563 1.462A1.863 1.863 0 0123.5 19.5a4.5 4.5 0 01-4.488 4.5z"/>
  <path d="M17.063 19.337a1.013 1.013 0 01-.925.05 6.926 6.926 0 01-3.526-3.524 1.012 1.012 0 01.05-.925l1.175-1.95-1.412-2.488A2.488 2.488 0 0010 12.988 9 9 0 0019 22h.012a2.488 2.488 0 002.488-2.425l-2.488-1.412-1.95 1.174z"/>
</svg>
