<svg xmlns="http://www.w3.org/2000/svg" viewBox="0 0 32 32" fill="currentColor" aria-hidden="true">
  <path d="M30.075 8.7c-8.287-6.263-19.862-6.263-28.15-.013a2.013 2.013 0 00-.698 2.19c.079.265.21.51.386.723l12.862 15.15a2.012 2.012 0 001.525.712 2 2 0 001.513-.7l12.875-15.175a2 2 0 00.462-1.525 1.95 1.95 0 00-.775-1.362zm-4.512 5.487a16.37 16.37 0 00-2.125-1.337l-.1-.05a15.271 15.271 0 00-2.225-.95l-.188-.05a14.394 14.394 0 00-2.3-.575l-.2-.025a14.8 14.8 0 00-4.85 0l-.2.025c-.78.13-1.548.318-2.3.562l-.187.063c-.765.26-1.509.577-2.225.95l-.1.05a15.44 15.44 0 00-2.113 1.337l-3.312-3.9c7.575-5.712 18.162-5.712 25.725.013l-3.3 3.887z"/>
</svg>
