<svg xmlns="http://www.w3.org/2000/svg" viewBox="0 0 32 32" fill="currentColor" aria-hidden="true">
  <path d="M6.738 4.325a1.005 1.005 0 00-1.487 1.35l.587.637A22.85 22.85 0 001.913 8.7a1.95 1.95 0 00-.775 1.363 2.037 2.037 0 00.475 1.537l12.863 15.15a1.986 1.986 0 003.037.012l3.338-3.937 4.413 4.85A1.023 1.023 0 0026 28a.975.975 0 00.675-.262 1 1 0 00.075-1.413l-20.013-22zM30.862 10.063a1.95 1.95 0 00-.775-1.363 23.5 23.5 0 00-18.512-4.288 1.038 1.038 0 00-.763.675 1.024 1.024 0 00.213.988L22.7 18.913a1.037 1.037 0 00.737.325h.025a1.04 1.04 0 00.738-.35l6.2-7.3a2.05 2.05 0 00.462-1.525z"/>
</svg>
