<svg xmlns="http://www.w3.org/2000/svg" viewBox="0 0 32 32" fill="currentColor" aria-hidden="true">
  <path d="M28.675 12.262a1.025 1.025 0 01.075 1.388.976.976 0 01-.75.35 1.038 1.038 0 01-.712-.288L25 11.412l-2.287 2.3A1.063 1.063 0 0122 14a1.001 1.001 0 01-.762-.35 1.038 1.038 0 01.075-1.388L23.588 10l-2.263-2.263a1.037 1.037 0 01-.05-1.425 1.013 1.013 0 011.438-.025L25 8.587l2.288-2.3a1.012 1.012 0 011.437.025 1.037 1.037 0 01-.05 1.425L26.413 10l2.262 2.262zM25.35 14.6a.485.485 0 00-.7 0l-.487.475a3 3 0 01-4.288.05 3.025 3.025 0 010-4.25l.888-.875-.838-.825c-1.125-1.125-1.237-2.95-.187-4.15.042-.05.088-.095.137-.138a.362.362 0 00-.187-.6A23.425 23.425 0 001.925 8.7a1.95 1.95 0 00-.775 1.362 2.075 2.075 0 00.463 1.538l12.875 15.162a1.988 1.988 0 003.025 0l8.937-10.525a.499.499 0 00-.112-.737 3.371 3.371 0 01-.463-.375l-.525-.525z"/>
</svg>
