<svg xmlns="http://www.w3.org/2000/svg" viewBox="0 0 32 32" fill="currentColor" aria-hidden="true">
  <path d="M14 18v6.45a1.013 1.013 0 01-.362.775.974.974 0 01-.638.225h-.175l-8-1.45A1 1 0 014 23v-5a1 1 0 011-1h8a1 1 0 011 1zm-.362-11.225a1 1 0 00-.813-.213l-8 1.45A1 1 0 004 9v5a1 1 0 001 1h8a1 1 0 001-1V7.55a1.013 1.013 0 00-.362-.775zM27 17H17a1 1 0 00-1 1v7.187a1 1 0 00.825.975l10 1.825H27a.925.925 0 00.638-.237A.986.986 0 0028 27v-9a1 1 0 00-1-1zm.638-12.763a.962.962 0 00-.813-.225l-10 1.825a1 1 0 00-.825.975V14a1 1 0 001 1h10a1 1 0 001-1V5a.989.989 0 00-.362-.763z"/>
</svg>
