<svg xmlns="http://www.w3.org/2000/svg" viewBox="0 0 32 32" fill="currentColor" aria-hidden="true">
  <path d="M29.288 8.725a2.937 2.937 0 00-1.813-2.037C23.2 5.038 16.375 5.05 16 5.05S8.8 5.038 4.525 6.688a2.938 2.938 0 00-1.813 2.037C2.387 9.963 2 12.238 2 16c0 3.763.388 6.038.712 7.275a2.938 2.938 0 001.813 2.038c4.1 1.587 10.525 1.637 11.387 1.637h.175c.863 0 7.288-.05 11.388-1.637a2.939 2.939 0 001.813-2.038C29.613 22.038 30 19.763 30 16c0-3.762-.387-6.037-.712-7.275zm-9.013 7.688l-6 4A.45.45 0 0114 20.5a.564.564 0 01-.238-.062A.489.489 0 0113.5 20v-8a.488.488 0 01.262-.437.5.5 0 01.513.025l6 4a.487.487 0 010 .825z"/>
</svg>
