<svg xmlns="http://www.w3.org/2000/svg" fill="none" viewBox="0 0 32 32" stroke-width="2" stroke="currentColor" aria-hidden="true">
  <path stroke-linecap="round" stroke-linejoin="round" d="M16 28c6.627 0 12-5.373 12-12S22.627 4 16 4 4 9.373 4 16s5.373 12 12 12zM21.15 14.125c.103-.658.262-1.306.475-1.938M21.625 19.813a11.831 11.831 0 01-.475-1.938M10.85 14.125a11.831 11.831 0 00-.475-1.938M10.375 19.813c.213-.632.371-1.28.475-1.938M23.35 8.863c.353-.472.737-.919 1.15-1.338M24.5 24.475a14.45 14.45 0 01-1.15-1.338M7.5 24.475c.41-.422.794-.869 1.15-1.338M8.65 8.863A12.975 12.975 0 007.5 7.525"/>
</svg>
