<svg xmlns="http://www.w3.org/2000/svg" fill="none" viewBox="0 0 32 32" stroke-width="2" stroke="currentColor" aria-hidden="true">
  <path stroke-linecap="round" stroke-linejoin="round" d="M10 5H6a1 1 0 00-1 1v20a1 1 0 001 1h4a1 1 0 001-1V6a1 1 0 00-1-1zM5 10h6M16 5h-4a1 1 0 00-1 1v20a1 1 0 001 1h4a1 1 0 001-1V6a1 1 0 00-1-1zM11 22h6M21.83 4.68l-3.863 1.035a1 1 0 00-.707 1.225l5.176 19.318a1 1 0 001.225.707l3.864-1.035a1 1 0 00.707-1.225L23.055 5.387a1 1 0 00-1.224-.707zM21.4 22.4l5.8-1.563M18.3 10.8l5.8-1.55"/>
</svg>
