<svg xmlns="http://www.w3.org/2000/svg" fill="none" viewBox="0 0 32 32" stroke-width="2" stroke="currentColor" aria-hidden="true">
  <path stroke-linecap="round" stroke-linejoin="round" d="M16 20a4 4 0 100-8 4 4 0 000 8zM9.638 22.363A8.952 8.952 0 017.713 19.5a8.95 8.95 0 010-7 8.95 8.95 0 011.925-2.863M22.362 9.637a8.95 8.95 0 011.925 2.863 8.95 8.95 0 010 7 8.952 8.952 0 01-1.925 2.863M6.1 25.9a14.114 14.114 0 01-3-4.45 14.05 14.05 0 010-10.9 14.112 14.112 0 013-4.45M25.9 6.1a14.11 14.11 0 013 4.45 14.05 14.05 0 010 10.9 14.112 14.112 0 01-3 4.45"/>
</svg>
