<svg xmlns="http://www.w3.org/2000/svg" fill="none" viewBox="0 0 32 32" stroke-width="2" stroke="currentColor" aria-hidden="true">
  <path stroke-linecap="round" stroke-linejoin="round" d="M22 8H10v6h12V8z"/>
  <path stroke-linecap="round" stroke-linejoin="round" d="M26 27V5a1 1 0 00-1-1H7a1 1 0 00-1 1v22a1 1 0 001 1h18a1 1 0 001-1z"/>
  <path fill="#49536E" d="M11 19.5a1 1 0 100-2 1 1 0 000 2zM16 19.5a1 1 0 100-2 1 1 0 000 2zM21 19.5a1 1 0 100-2 1 1 0 000 2zM11 24.5a1 1 0 100-2 1 1 0 000 2zM16 24.5a1 1 0 100-2 1 1 0 000 2zM21 24.5a1 1 0 100-2 1 1 0 000 2z"/>
</svg>
