<svg xmlns="http://www.w3.org/2000/svg" fill="none" viewBox="0 0 32 32" stroke-width="2" stroke="currentColor" aria-hidden="true">
  <path stroke-linecap="round" stroke-linejoin="round" d="M28 22.162V9.837a1.013 1.013 0 00-.512-.875l-11-6.187a.975.975 0 00-.976 0l-11 6.187A1.012 1.012 0 004 9.837v12.325a1.013 1.013 0 00.513.875l11 6.188a.975.975 0 00.975 0l11-6.188a1.013 1.013 0 00.512-.875v0z"/>
  <path stroke-linecap="round" stroke-linejoin="round" d="M27.863 9.325L16.113 16 4.138 9.325M16.113 16L16 29.35"/>
  <path stroke-linecap="round" stroke-linejoin="round" d="M22.125 5.938L16 9.387l-6.125-3.45M22 26.125v-6.887l6-3.375M10 26.125v-6.887l-6-3.375"/>
</svg>
