<svg xmlns="http://www.w3.org/2000/svg" fill="none" viewBox="0 0 32 32" stroke-width="2" stroke="currentColor" aria-hidden="true">
  <path stroke-linecap="round" stroke-linejoin="round" d="M12 15c5.523 0 10-2.015 10-4.5S17.523 6 12 6 2 8.015 2 10.5 6.477 15 12 15z"/>
  <path stroke-linecap="round" stroke-linejoin="round" d="M2 10.5v5C2 17.988 6.475 20 12 20s10-2.012 10-4.5v-5M8 14.625v5"/>
  <path stroke-linecap="round" stroke-linejoin="round" d="M22 12.087c4.563.425 8 2.238 8 4.413 0 2.487-4.475 4.5-10 4.5-2.45 0-4.7-.4-6.438-1.05"/>
  <path stroke-linecap="round" stroke-linejoin="round" d="M10 19.913V21.5c0 2.488 4.475 4.5 10 4.5s10-2.012 10-4.5v-5M24 20.625v5M16 14.625v11"/>
</svg>
