<svg xmlns="http://www.w3.org/2000/svg" fill="none" viewBox="0 0 32 32" stroke-width="2" stroke="currentColor" aria-hidden="true">
  <path stroke-linecap="round" stroke-linejoin="round" d="M28 15.925a11.952 11.952 0 01-3.525 8.563C19.862 29.1 12.312 29.15 7.637 24.6A12 12 0 0116.075 4a1.013 1.013 0 01.975 1.225A4.002 4.002 0 0020.9 10.1a1 1 0 011 1 4 4 0 004.875 3.85 1.012 1.012 0 011.225.975v0z"/>
  <path fill="#49536E" d="M19.5 22.5a1 1 0 100-2 1 1 0 000 2zM11.5 21.5a1 1 0 100-2 1 1 0 000 2zM10.5 14.5a1 1 0 100-2 1 1 0 000 2zM17 16.5a1 1 0 100-2 1 1 0 000 2z"/>
</svg>
