<svg xmlns="http://www.w3.org/2000/svg" fill="none" viewBox="0 0 32 32" stroke-width="2" stroke="currentColor" aria-hidden="true">
  <path stroke-linecap="round" stroke-linejoin="round" d="M15.288 3.71L11.7 7.299a1 1 0 000 1.414l3.586 3.586a1 1 0 001.414 0l3.588-3.589a1 1 0 000-1.414L16.703 3.71a1 1 0 00-1.415 0zM23.29 11.71L19.7 15.298a1 1 0 000 1.415l3.586 3.586a1 1 0 001.414 0l3.589-3.589a1 1 0 000-1.414l-3.586-3.586a1 1 0 00-1.414 0zM7.288 11.699L3.7 15.287a1 1 0 000 1.414l3.586 3.586a1 1 0 001.414 0l3.589-3.588a1 1 0 000-1.414l-3.586-3.586a1 1 0 00-1.415 0zM15.29 19.699L11.7 23.287a1 1 0 000 1.415l3.586 3.585a1 1 0 001.414 0L20.29 24.7a1 1 0 000-1.414l-3.586-3.586a1 1 0 00-1.414 0z"/>
</svg>
