<svg xmlns="http://www.w3.org/2000/svg" fill="none" viewBox="0 0 32 32" stroke-width="2" stroke="currentColor" aria-hidden="true">
  <path fill="#49536E" d="M12 19a1 1 0 100-2 1 1 0 000 2zM20 19a1 1 0 100-2 1 1 0 000 2z"/>
  <path stroke-linecap="round" stroke-linejoin="round" d="M9.3 10A21.863 21.863 0 0116 9c2.271-.017 4.532.32 6.7 1M22.7 22a21.863 21.863 0 01-6.7 1 21.863 21.863 0 01-6.7-1"/>
  <path stroke-linecap="round" stroke-linejoin="round" d="M19.375 22.762l1.513 3a.976.976 0 001.125.526c3.062-.75 5.712-2.05 7.637-3.726a1.013 1.013 0 00.3-1.05l-4.237-14.15a.962.962 0 00-.588-.637 22.05 22.05 0 00-3.7-1.15 1.012 1.012 0 00-1.175.662l-.987 2.988M12.625 22.762l-1.512 3a.976.976 0 01-1.126.526c-3.062-.75-5.712-2.05-7.637-3.726a1.013 1.013 0 01-.3-1.05l4.237-14.15a.963.963 0 01.588-.637 22.05 22.05 0 013.7-1.15 1.013 1.013 0 011.175.662l.988 2.988"/>
</svg>
