<svg xmlns="http://www.w3.org/2000/svg" fill="none" viewBox="0 0 32 32" stroke-width="2" stroke="currentColor" aria-hidden="true">
  <path stroke-linecap="round" stroke-linejoin="round" d="M16 24v3"/>
  <path fill="#49536E" d="M11.5 18.5a1 1 0 100-2 1 1 0 000 2zM20.5 18.5a1 1 0 100-2 1 1 0 000 2z"/>
  <path stroke-linecap="round" stroke-linejoin="round" d="M18 22l-2 2-2-2M19 6l6.975-1.738a1 1 0 011.225.775l2.05 10.95c.188 1.025-1.125 1.625-1.775.8L19 6zM13 6L6.025 4.262a1 1 0 00-1.225.775l-2.05 10.95c-.187 1.025 1.125 1.625 1.775.8L13 6zM13 6h6"/>
  <path stroke-linecap="round" stroke-linejoin="round" d="M26 14.913V23a4 4 0 01-4 4H10a4 4 0 01-4-4v-8.087"/>
</svg>
