<svg xmlns="http://www.w3.org/2000/svg" fill="none" viewBox="0 0 32 32" stroke-width="2" stroke="currentColor" aria-hidden="true">
  <path stroke-linecap="round" stroke-linejoin="round" d="M6 5l20 22M11.425 10.975A4.938 4.938 0 0011 13M10.875 4.413A10 10 0 0126 13"/>
  <path stroke-linecap="round" stroke-linejoin="round" d="M20.238 27a5.5 5.5 0 01-9.738-3.5C10.5 18.312 6 20 6 13a9.987 9.987 0 011.912-5.887M20.387 14.875A3 3 0 0021 13a4.988 4.988 0 00-6.625-4.725M20.863 21.35A2.512 2.512 0 0117.5 19a3.187 3.187 0 01.2-1.137"/>
</svg>
