<svg xmlns="http://www.w3.org/2000/svg" fill="none" viewBox="0 0 32 32" stroke-width="2" stroke="currentColor" aria-hidden="true">
  <path stroke-linecap="round" stroke-linejoin="round" d="M22.475 14.475l.612.613a2.012 2.012 0 010 2.825l-.875.875a1 1 0 01-1.425 0l-7.575-7.575a1 1 0 010-1.426l.875-.875a2.012 2.012 0 012.825 0l.613.613 3.45-3.45c1.35-1.35 3.55-1.425 4.925-.113a3.5 3.5 0 01.075 5.013l-3.5 3.5z"/>
  <path stroke-linecap="round" stroke-linejoin="round" d="M19.825 17.825l-7 7a3.963 3.963 0 01-3.863 1.038l-2.925 1.274a.999.999 0 01-1.1-.2v0a.712.712 0 01-.15-.8l1.35-3.1a3.962 3.962 0 011.038-3.862l7-7"/>
</svg>
