<svg xmlns="http://www.w3.org/2000/svg" fill="none" viewBox="0 0 32 32" stroke-width="2" stroke="currentColor" aria-hidden="true">
  <path stroke-linecap="round" stroke-linejoin="round" d="M27 17c0 6.438-9.3 8.65-10.8 8.962a1.072 1.072 0 01-.4 0C14.3 25.65 5 23.438 5 17V9.7a.988.988 0 01.663-.937l10-3.638c.218-.075.456-.075.674 0l10 3.638A.987.987 0 0127 9.7V17zM11 14h10M11 18h10"/>
  <path stroke-linecap="round" stroke-linejoin="round" d="M26.675 19H28a2.986 2.986 0 003-3v-3a2.986 2.986 0 00-3-3h-1M5.325 19H4a2.986 2.986 0 01-3-3v-3a2.987 2.987 0 013-3h1"/>
</svg>
