<svg xmlns="http://www.w3.org/2000/svg" fill="none" viewBox="0 0 32 32" stroke-width="2" stroke="currentColor" aria-hidden="true">
  <path stroke-linecap="round" stroke-linejoin="round" d="M6 25h2a2 2 0 100-4H6v6M8.6 24.913L10 27M14 26.5a3.15 3.15 0 001.875.625C17 27.125 18 26.75 18 25.5c0-2-4-1.125-4-3 0-1 .75-1.625 1.875-1.625a3.15 3.15 0 011.875.625"/>
  <path stroke-linecap="round" stroke-linejoin="round" d="M23 28h2a1 1 0 001-1V11l-7-7H7a1 1 0 00-1 1v11"/>
  <path stroke-linecap="round" stroke-linejoin="round" d="M19 4v7h7"/>
</svg>
