<svg xmlns="http://www.w3.org/2000/svg" fill="none" viewBox="0 0 32 32" stroke-width="2" stroke="currentColor" aria-hidden="true">
  <path stroke-linecap="round" stroke-linejoin="round" d="M7.25 27a3 3 0 000-6H5.5v6h1.75zM16.25 27c1.519 0 2.75-1.343 2.75-3s-1.231-3-2.75-3-2.75 1.343-2.75 3 1.231 3 2.75 3zM26.5 26.313a2.625 2.625 0 01-1.75.687C23.225 27 22 25.663 22 24s1.225-3 2.75-3c.648.005 1.272.25 1.75.688M6 16V5a1 1 0 011-1h12l7 7v5"/>
  <path stroke-linecap="round" stroke-linejoin="round" d="M19 4v7h7"/>
</svg>
