<svg xmlns="http://www.w3.org/2000/svg" fill="none" viewBox="0 0 32 32" stroke-width="2" stroke="currentColor" aria-hidden="true">
  <path stroke-linecap="round" stroke-linejoin="round" d="M10 26.313A2.625 2.625 0 018.25 27c-1.525 0-2.75-1.337-2.75-3s1.225-3 2.75-3c.648.005 1.272.25 1.75.688M14 26.5a3.15 3.15 0 001.875.625C17 27.125 18 26.75 18 25.5c0-2-4-1.125-4-3 0-1 .75-1.625 1.875-1.625a3.15 3.15 0 011.875.625M22 26.5a3.15 3.15 0 001.875.625C25 27.125 26 26.75 26 25.5c0-2-4-1.125-4-3 0-1 .75-1.625 1.875-1.625a3.15 3.15 0 011.875.625M6 16V5a1 1 0 011-1h12l7 7v5"/>
  <path stroke-linecap="round" stroke-linejoin="round" d="M19 4v7h7"/>
</svg>
