<svg xmlns="http://www.w3.org/2000/svg" fill="none" viewBox="0 0 32 32" stroke-width="2" stroke="currentColor" aria-hidden="true">
  <path stroke-linecap="round" stroke-linejoin="round" d="M22 16a30.038 30.038 0 01-2.237 11.4M20.475 12A6 6 0 0010 16a17.825 17.825 0 01-2.25 8.712"/>
  <path stroke-linecap="round" stroke-linejoin="round" d="M12 4.688A12 12 0 0128 16a36.658 36.658 0 01-.887 8M2.913 21A11.938 11.938 0 004 16a11.963 11.963 0 014-8.938M13.825 26c-.25.55-.525 1.1-.825 1.625M16 16a23.7 23.7 0 01-.763 6"/>
</svg>
