<svg xmlns="http://www.w3.org/2000/svg" fill="none" viewBox="0 0 32 32" stroke-width="2" stroke="currentColor" aria-hidden="true">
  <path stroke-linecap="round" stroke-linejoin="round" d="M6.337 23.113A15.925 15.925 0 008 16a8.025 8.025 0 013-6.25M16 16a23.9 23.9 0 01-3 11.625"/>
  <path stroke-linecap="round" stroke-linejoin="round" d="M12 16a4 4 0 118 0 27.786 27.786 0 01-2.663 11.925"/>
  <path stroke-linecap="round" stroke-linejoin="round" d="M27.325 23c.448-2.306.674-4.65.675-7a12 12 0 00-24 0 11.8 11.8 0 01-.688 4M11.6 20a20.239 20.239 0 01-2.263 5.988"/>
  <path stroke-linecap="round" stroke-linejoin="round" d="M15 8.063A8 8 0 0124 16a32.574 32.574 0 01-.25 3.999M22.988 24c-.188.738-.4 1.475-.638 2.188"/>
</svg>
