<svg xmlns="http://www.w3.org/2000/svg" fill="none" viewBox="0 0 32 32" stroke-width="2" stroke="currentColor" aria-hidden="true">
  <path stroke-linecap="round" stroke-linejoin="round" d="M16 25c2 0 5.313-.025 9.113-2.225s5.037-4.937 5.425-6.35a.988.988 0 00-.713-1.225c-.912-.237-2.512-.45-4.563.038M6.737 15.225c-2.05-.475-3.65-.262-4.562-.025a.986.986 0 00-.713 1.225c.388 1.413 1.625 4.163 5.425 6.35C10.687 24.963 14 25 16 25"/>
  <path stroke-linecap="round" stroke-linejoin="round" d="M16 25s5-2.725 5-10c0-5.7-3.075-8.6-4.4-9.6a1.013 1.013 0 00-1.2 0C14.075 6.4 11 9.3 11 15c0 7.275 5 10 5 10z"/>
  <path stroke-linecap="round" stroke-linejoin="round" d="M16 25c1.5-.325 5.538-2.6 7.962-6.8 2.425-4.2 1.826-7.537 1.35-9a.975.975 0 00-1.15-.663 9.638 9.638 0 00-3.924 1.888M11.762 10.425a9.637 9.637 0 00-3.925-1.888.975.975 0 00-1.15.663c-.474 1.463-1.075 4.813 1.35 9C10.462 22.388 14.5 24.675 16 25"/>
</svg>
