<svg xmlns="http://www.w3.org/2000/svg" fill="none" viewBox="0 0 32 32" stroke-width="2" stroke="currentColor" aria-hidden="true">
  <path stroke-linecap="round" stroke-linejoin="round" d="M16 19.5a3.5 3.5 0 100-7 3.5 3.5 0 000 7z"/>
  <path stroke-linecap="round" stroke-linejoin="round" d="M14.375 12.9C13.463 10.975 12.5 8.575 12.5 7a3.5 3.5 0 117 0c0 1.575-.962 3.975-1.875 5.9M12.5 15.85c-2.125-.162-4.688-.537-6.05-1.325a3.5 3.5 0 013.5-6.05c1.363.775 2.963 2.813 4.175 4.575M14.125 18.95c-1.213 1.762-2.813 3.8-4.175 4.575a3.5 3.5 0 11-3.5-6.05c1.362-.788 3.925-1.163 6.05-1.325M17.625 19.1c.913 1.925 1.875 4.325 1.875 5.9a3.5 3.5 0 11-7 0c0-1.575.963-3.975 1.875-5.9M19.5 16.15c2.125.162 4.688.537 6.05 1.325a3.5 3.5 0 01-3.5 6.05c-1.363-.775-2.963-2.813-4.175-4.575M17.875 13.05c1.212-1.763 2.813-3.8 4.175-4.575a3.5 3.5 0 013.5 6.05c-1.363.787-3.925 1.162-6.05 1.325"/>
</svg>
