<svg xmlns="http://www.w3.org/2000/svg" fill="none" viewBox="0 0 32 32" stroke-width="2" stroke="currentColor" aria-hidden="true">
  <path stroke-linecap="round" stroke-linejoin="round" d="M21.1 23.587l.488 2.95M16 24v4M10.9 23.587l-.487 2.95M22.125 8.6C26.788 9.575 30 11.625 30 14c0 3.313-6.262 6-14 6S2 17.312 2 14c0-2.375 3.237-4.438 7.925-5.4"/>
  <path stroke-linecap="round" stroke-linejoin="round" d="M9 12.488a1.975 1.975 0 001.55 1.937c1.789.4 3.617.593 5.45.575a23.93 23.93 0 005.45-.575A1.976 1.976 0 0023 12.488V12a6.998 6.998 0 00-7.088-7C12.063 5.05 9 8.263 9 12.1v.388z"/>
</svg>
