<svg xmlns="http://www.w3.org/2000/svg" fill="none" viewBox="0 0 32 32" stroke-width="2" stroke="currentColor" aria-hidden="true">
  <path stroke-linecap="round" stroke-linejoin="round" d="M10.5 30a2.986 2.986 0 003-3v-6M21.5 30a2.986 2.986 0 01-3-3v-6M19 21h2a2.988 2.988 0 013 3v1a2.986 2.986 0 003 3M13 21h-2a2.988 2.988 0 00-3 3v1a2.987 2.987 0 01-3 3"/>
  <path stroke-linecap="round" stroke-linejoin="round" d="M13.975 8A6.5 6.5 0 008.5 5a6.5 6.5 0 00-.438 5.588A6.163 6.163 0 007 14v1a6 6 0 006 6h6a6 6 0 006-6v-1a6.163 6.163 0 00-1.063-3.412A6.5 6.5 0 0023.5 5a6.5 6.5 0 00-5.475 3h-4.05z"/>
</svg>
