<svg xmlns="http://www.w3.org/2000/svg" fill="none" viewBox="0 0 32 32" stroke-width="2" stroke="currentColor" aria-hidden="true">
  <path stroke-linecap="round" stroke-linejoin="round" d="M16 28c6.627 0 12-5.373 12-12S22.627 4 16 4 4 9.373 4 16s5.373 12 12 12z"/>
  <path stroke-linecap="round" stroke-linejoin="round" d="M6.2 22.925l1.463-.887a1 1 0 00.475-.85l.025-4.513a.962.962 0 01.162-.525l2.475-3.887a1.011 1.011 0 011.438-.275l2.45 1.774c.211.148.468.214.725.188l3.937-.537a.975.975 0 00.613-.338l2.775-3.2c.164-.195.25-.445.237-.7l-.137-3.038M23.388 25.462l-1.35-1.35a1.026 1.026 0 00-.45-.262l-2.688-.7a1 1 0 01-.725-1.112l.288-2.025a1.024 1.024 0 01.612-.776l3.8-1.587a1 1 0 011.063.188l3.112 2.85"/>
</svg>
