<svg xmlns="http://www.w3.org/2000/svg" fill="none" viewBox="0 0 32 32" stroke-width="2" stroke="currentColor" aria-hidden="true">
  <path stroke-linecap="round" stroke-linejoin="round" d="M16 28c6.627 0 12-5.373 12-12S22.627 4 16 4 4 9.373 4 16s5.373 12 12 12z"/>
  <path stroke-linecap="round" stroke-linejoin="round" d="M26.775 21.3l-6.788-4.175a.9.9 0 00-.387-.137l-2.863-.388a.975.975 0 00-1.037.587l-1.713 3.838a1 1 0 00.175 1.088l2.35 2.537a1.025 1.025 0 01.25.875L16.275 28"/>
  <path stroke-linecap="round" stroke-linejoin="round" d="M8.125 6.95L7 9.6a1 1 0 00-.012.738l1.437 3.825a.987.987 0 00.725.637l2.675.575a.975.975 0 01.688.537l.475.988a1.026 1.026 0 00.9.563h1.687"/>
  <path stroke-linecap="round" stroke-linejoin="round" d="M19.063 4.387l1.162 2.1a1.013 1.013 0 01-.2 1.225l-3.362 3.038a.904.904 0 01-.188.137l-1.537.85c-.147.078-.31.121-.475.126h-2.675a1.012 1.012 0 00-.925.612l-1.038 2.463"/>
</svg>
