<svg xmlns="http://www.w3.org/2000/svg" fill="none" viewBox="0 0 32 32" stroke-width="2" stroke="currentColor" aria-hidden="true">
  <path stroke-linecap="round" stroke-linejoin="round" d="M6.475 15.238a2.252 2.252 0 00-3.9 2.25L7.2 25.5a9 9 0 0015.588-9l-2.125-3.688a2.25 2.25 0 00-3.888 2.25"/>
  <path stroke-linecap="round" stroke-linejoin="round" d="M13.375 18.187l-4.75-8.225a2.251 2.251 0 00-3.9 2.25l4.75 8.225M18.775 18.538l-5.25-9.1a2.251 2.251 0 00-3.9 2.25"/>
  <path stroke-linecap="round" stroke-linejoin="round" d="M12.375 8.462l-1.287-2.237a2.251 2.251 0 00-3.9 2.25l.3.512M23.5 23.937a9.013 9.013 0 001.762-11.175l-2.125-3.675a2.252 2.252 0 00-3.9 2.25"/>
  <path stroke-linecap="round" stroke-linejoin="round" d="M19.525 11.837l-3.538-6.125a2.251 2.251 0 00-3.9 2.25M22.1 1.413l-.513 1.925M25.887 3.175l-1.15 1.638M28.825 6.113l-1.637 1.15"/>
</svg>
