<svg xmlns="http://www.w3.org/2000/svg" fill="none" viewBox="0 0 32 32" stroke-width="2" stroke="currentColor" aria-hidden="true">
  <path stroke-linecap="round" stroke-linejoin="round" d="M11.75 7.675a2.5 2.5 0 014.325-2.5l3.75 6.487"/>
  <path stroke-linecap="round" stroke-linejoin="round" d="M8.425 11.9l-2-3.463a2.5 2.5 0 014.325-2.5L15 13.3"/>
  <path stroke-linecap="round" stroke-linejoin="round" d="M19.25 20.662a4.986 4.986 0 011.825-6.825l-1.25-2.175a2.503 2.503 0 014.337-2.5l2.5 4.338a10.002 10.002 0 11-17.325 10l-5.25-9.1a2.504 2.504 0 014.338-2.5l2.75 4.762M10.137 30A13.787 13.787 0 016 25.5M22 3.875a6.463 6.463 0 015.625 3.25"/>
</svg>
