<svg xmlns="http://www.w3.org/2000/svg" fill="none" viewBox="0 0 32 32" stroke-width="2" stroke="currentColor" aria-hidden="true">
  <path stroke-linecap="round" stroke-linejoin="round" d="M30.087 15.225L27 16.763l-4-7.65 3.125-1.563a.988.988 0 011.325.425l3.075 5.888a.999.999 0 01-.438 1.362v0zM5 16.637l-3.088-1.55a.987.987 0 01-.437-1.35L4.55 7.85a1 1 0 011.325-.438L9 8.975l-4 7.662z"/>
  <path stroke-linecap="round" stroke-linejoin="round" d="M27 16.762l-2 2.35-4.6 4.6a1.063 1.063 0 01-.95.263l-7.25-1.813a1.003 1.003 0 01-.362-.187L5 16.637"/>
  <path stroke-linecap="round" stroke-linejoin="round" d="M25 19.113l-5.5-4-1.6 1.2a4.013 4.013 0 01-4.8 0l-.675-.513a1.015 1.015 0 01-.112-1.512l4.9-4.888a.988.988 0 01.7-.287H23"/>
  <path stroke-linecap="round" stroke-linejoin="round" d="M9.075 8.975L15.488 7.1a1 1 0 01.687.05L20.5 9.113M14 26.613l-3.762-.95a.925.925 0 01-.413-.213L7 23"/>
</svg>
