<svg xmlns="http://www.w3.org/2000/svg" fill="none" viewBox="0 0 32 32" stroke-width="2" stroke="currentColor" aria-hidden="true">
  <path stroke-linecap="round" stroke-linejoin="round" d="M27.5 22v4a1 1 0 01-1 1h-3a1 1 0 01-1-1v-4M9.5 22v4a1 1 0 01-1 1h-3a1 1 0 01-1-1v-4M2 12h28M18 16v6M14 16v6"/>
  <path stroke-linecap="round" stroke-linejoin="round" d="M27.5 22h-23V12l.875-6.138A1 1 0 016.362 5h19.275a1 1 0 01.988.862L27.5 12v10z"/>
  <path fill="#49536E" d="M9 17.5a1 1 0 100-2 1 1 0 000 2zM23 17.5a1 1 0 100-2 1 1 0 000 2z"/>
</svg>
