<svg xmlns="http://www.w3.org/2000/svg" fill="none" viewBox="0 0 32 32" stroke-width="2" stroke="currentColor" aria-hidden="true">
  <path stroke-linecap="round" stroke-linejoin="round" d="M15.913 11.875a3.013 3.013 0 014.2-.038C21.325 13 21.3 14.975 20.1 16.175l-8.375 8.112a1.013 1.013 0 00-.012 1.425L15.3 29.3a1.013 1.013 0 001.413.012l8.3-8.15c3.9-3.9 4.012-10.25.15-14.175a10 10 0 00-14.2-.062L2.7 15.287a1 1 0 000 1.413l3.588 3.587a1.013 1.013 0 001.425-.012l8.2-8.4zM15.85 20.3l4.975 4.975M6.75 11.2l4.963 4.975"/>
</svg>
