<svg xmlns="http://www.w3.org/2000/svg" fill="none" viewBox="0 0 32 32" stroke-width="2" stroke="currentColor" aria-hidden="true">
  <path stroke-linecap="round" stroke-linejoin="round" d="M18 9H5a1 1 0 00-1 1v12a1 1 0 001 1h13a1 1 0 001-1V10a1 1 0 00-1-1z"/>
  <path stroke-linecap="round" stroke-linejoin="round" d="M19 11h4a1 1 0 011 1v9a7 7 0 01-7 7v0a7.013 7.013 0 01-6.713-5M13.75 13h-4.5M11.5 19v-6M13.537 9A4 4 0 1119 10.462M20.762 5.65a3.25 3.25 0 11-.425 3.55"/>
  <path stroke-linecap="round" stroke-linejoin="round" d="M24 11h3.413a.587.587 0 01.587.588V19a4 4 0 01-4 4h-.288"/>
</svg>
