<svg xmlns="http://www.w3.org/2000/svg" fill="none" viewBox="0 0 32 32" stroke-width="2" stroke="currentColor" aria-hidden="true">
  <path stroke-linecap="round" stroke-linejoin="round" d="M19 12h7M19 20h7M8 9V5a1 1 0 011-1h16a1 1 0 011 1v22a1 1 0 01-1 1H9a1 1 0 01-1-1v-4"/>
  <path stroke-linecap="round" stroke-linejoin="round" d="M8 13l1.5 6 2-4.5 2 4.5 1.5-6"/>
  <path stroke-linecap="round" stroke-linejoin="round" d="M18 9H5a1 1 0 00-1 1v12a1 1 0 001 1h13a1 1 0 001-1V10a1 1 0 00-1-1z"/>
</svg>
