<svg xmlns="http://www.w3.org/2000/svg" fill="none" viewBox="0 0 32 32" stroke-width="2" stroke="currentColor" aria-hidden="true">
  <path stroke-linecap="round" stroke-linejoin="round" d="M27.7 18.675c.207-.91.308-1.841.3-2.775C27.95 9.288 22.475 3.938 15.875 4A12 12 0 0012 27.313a2.988 2.988 0 004-2.825V24a2.987 2.987 0 013-3h5.775a3 3 0 002.925-2.325v0z"/>
  <path fill="#49536E" d="M16 10.5a1 1 0 100-2 1 1 0 000 2zM10.375 13.75a1 1 0 100-2 1 1 0 000 2zM10.375 20.25a1 1 0 100-2 1 1 0 000 2zM21.625 13.75a1 1 0 100-2 1 1 0 000 2z"/>
</svg>
