<svg xmlns="http://www.w3.org/2000/svg" fill="none" viewBox="0 0 32 32" stroke-width="2" stroke="currentColor" aria-hidden="true">
  <path stroke-linecap="round" stroke-linejoin="round" d="M26.5 16a2.5 2.5 0 100-5 2.5 2.5 0 000 5zM5.5 16a2.5 2.5 0 100-5 2.5 2.5 0 000 5zM11.5 10a2.5 2.5 0 100-5 2.5 2.5 0 000 5zM20.5 10a2.5 2.5 0 100-5 2.5 2.5 0 000 5zM22.9 19.488a5.45 5.45 0 01-2.575-3.25v0a4.5 4.5 0 00-8.65 0 5.45 5.45 0 01-2.575 3.25 4 4 0 003.463 7.2 8.975 8.975 0 016.874 0 4 4 0 003.462-7.2z"/>
</svg>
