<svg xmlns="http://www.w3.org/2000/svg" fill="none" viewBox="0 0 32 32" stroke-width="2" stroke="currentColor" aria-hidden="true">
  <path stroke-linecap="round" stroke-linejoin="round" d="M15.987 9a3.5 3.5 0 100-7 3.5 3.5 0 000 7zM19.238 16.837l4.35 3.375A1.5 1.5 0 0025.7 18.1l-4.95-6.363A2.488 2.488 0 0018.988 11h-6a2.538 2.538 0 00-1.775.738L6.263 18.1a1.5 1.5 0 002.124 2.112l4.35-3.375-3.475 10.95a1.504 1.504 0 002.726 1.276l4-6.3 4 6.3a1.501 1.501 0 002.879-.698 1.5 1.5 0 00-.167-.577l-3.462-10.95z"/>
</svg>
