<svg xmlns="http://www.w3.org/2000/svg" fill="none" viewBox="0 0 32 32" stroke-width="2" stroke="currentColor" aria-hidden="true">
  <path stroke-linecap="round" stroke-linejoin="round" d="M19.425 12.662a10.488 10.488 0 00-6.887.013 1 1 0 00-.65.737l-.725 3.688a1.023 1.023 0 01-.613.737L4.638 20.2a.987.987 0 01-1.163-.313 6 6 0 01.5-7.912 17.012 17.012 0 0124.05 0 6 6 0 01.5 7.912.987.987 0 01-1.162.313l-5.913-2.363a1.026 1.026 0 01-.612-.724l-.775-3.713a.986.986 0 00-.638-.738v0zM5 25h22"/>
</svg>
