<svg xmlns="http://www.w3.org/2000/svg" fill="none" viewBox="0 0 32 32" stroke-width="2" stroke="currentColor" aria-hidden="true">
  <path stroke-linecap="round" stroke-linejoin="round" d="M4.388 11.662l3.425 14.563a1.013 1.013 0 00.975.775h14.425a1.013 1.013 0 00.975-.775l3.425-14.563a1.012 1.012 0 00-1.25-1.2L21 12l-4.625-1.85a.974.974 0 00-.75 0L11 12l-5.362-1.537a1.011 1.011 0 00-1.25 1.2v0zM11 12l2 15M21 12l-2 15"/>
  <path stroke-linecap="round" stroke-linejoin="round" d="M27 10.5a4.5 4.5 0 00-6.613-3.975 4.488 4.488 0 00-8.774 0A4.5 4.5 0 005 10.5"/>
</svg>
