<svg xmlns="http://www.w3.org/2000/svg" fill="none" viewBox="0 0 32 32" stroke-width="2" stroke="currentColor" aria-hidden="true">
  <path stroke-linecap="round" stroke-linejoin="round" d="M16 28c6.627 0 12-5.373 12-12S22.627 4 16 4 4 9.373 4 16s5.373 12 12 12z"/>
  <path stroke-linecap="round" stroke-linejoin="round" d="M16 10.75l-4.987 3.625 1.9 5.875h6.175l1.9-5.875L16 10.75zM16 8v2.75M20.375 4.825L16 8l-4.375-3.175M8.388 13.525l2.625.85M6.725 8.387l1.663 5.138-4.375 3.187M11.3 22.475l1.612-2.225M5.888 22.475H11.3l1.675 5.137M20.7 22.475l-1.613-2.225M19.025 27.613l1.675-5.138h5.412M23.612 13.525l-2.625.85M27.987 16.712l-4.375-3.187 1.663-5.138"/>
</svg>
