<svg xmlns="http://www.w3.org/2000/svg" fill="none" viewBox="0 0 32 32" stroke-width="2" stroke="currentColor" aria-hidden="true">
  <path stroke-linecap="round" stroke-linejoin="round" d="M4.587 21.625L7.612 4.487a.988.988 0 011.15-.812l6.9 1.212a1.013 1.013 0 01.813 1.163l-3.038 17.237A4.513 4.513 0 018.3 26.95c-2.488-.4-4.15-2.838-3.713-5.325z"/>
  <path stroke-linecap="round" stroke-linejoin="round" d="M14.787 15.6l9.113-3.313a1 1 0 011.288.6l2.4 6.575a1 1 0 01-.6 1.276l-16.45 5.987"/>
  <path stroke-linecap="round" stroke-linejoin="round" d="M27.5 20.313V26a1 1 0 01-1 1H9"/>
  <path fill="#49536E" d="M9 23.5a1 1 0 100-2 1 1 0 000 2z"/>
</svg>
