<svg xmlns="http://www.w3.org/2000/svg" fill="none" viewBox="0 0 32 32" stroke-width="2" stroke="currentColor" aria-hidden="true">
  <path stroke-linecap="round" stroke-linejoin="round" d="M9.525 16.525l9.5-11.5L27 5l-.025 7.975-11.5 9.5M12.5 19.5L20 12"/>
  <path stroke-linecap="round" stroke-linejoin="round" d="M10.263 24.688l-3.738 3.737a1 1 0 01-1.412 0l-1.538-1.538a1 1 0 010-1.412l3.738-3.738a.999.999 0 000-1.424l-2.6-2.6a.999.999 0 010-1.425l1.575-1.575a1 1 0 011.425 0l9.575 9.575a1 1 0 010 1.424l-1.575 1.576a.999.999 0 01-1.425 0l-2.6-2.6a.999.999 0 00-1.425 0z"/>
</svg>
