<svg xmlns="http://www.w3.org/2000/svg" fill="none" viewBox="0 0 32 32" stroke-width="2" stroke="currentColor" aria-hidden="true">
  <path stroke-linecap="round" stroke-linejoin="round" d="M20 8l-1.75-4.375A.987.987 0 0017.325 3h-2.65a.988.988 0 00-.925.625L12 8M2 15h28M28 23v3a1 1 0 01-1 1h-3a1 1 0 01-1-1v-3M9 23v3a1 1 0 01-1 1H5a1 1 0 01-1-1v-3M8 19h2M22 19h2"/>
  <path stroke-linecap="round" stroke-linejoin="round" d="M28 15l-3.712-6.5a.988.988 0 00-.863-.5H8.575a.988.988 0 00-.862.5L4 15v8h24v-8z"/>
</svg>
