<svg xmlns="http://www.w3.org/2000/svg" fill="none" viewBox="0 0 32 32" stroke-width="2" stroke="currentColor" aria-hidden="true">
  <path stroke-linecap="round" stroke-linejoin="round" d="M9 12.5H4a1 1 0 00-1 1v5a1 1 0 001 1h5a1 1 0 001-1v-5a1 1 0 00-1-1zM27 5h-6a1 1 0 00-1 1v6a1 1 0 001 1h6a1 1 0 001-1V6a1 1 0 00-1-1zM27 19h-6a1 1 0 00-1 1v6a1 1 0 001 1h6a1 1 0 001-1v-6a1 1 0 00-1-1zM10 16h5"/>
  <path stroke-linecap="round" stroke-linejoin="round" d="M20 23h-2a2.986 2.986 0 01-3-3v-8a2.988 2.988 0 013-3h2"/>
</svg>
