<svg xmlns="http://www.w3.org/2000/svg" fill="none" viewBox="0 0 32 32" stroke-width="2" stroke="currentColor" aria-hidden="true">
  <path stroke-linecap="round" stroke-linejoin="round" d="M16 10v7M20.563 4h-9.125a.987.987 0 00-.7.288l-6.45 6.45a.988.988 0 00-.288.7v9.124a.987.987 0 00.288.7l6.45 6.45a.99.99 0 00.7.288h9.124a.987.987 0 00.7-.288l6.45-6.45a.987.987 0 00.288-.7v-9.125a.987.987 0 00-.288-.7l-6.45-6.45a.986.986 0 00-.7-.287v0z"/>
  <path fill="#49536E" d="M16 22.5a1 1 0 100-2 1 1 0 000 2z"/>
</svg>
