<svg xmlns="http://www.w3.org/2000/svg" fill="none" viewBox="0 0 32 32" stroke-width="2" stroke="currentColor" aria-hidden="true">
  <path stroke-linecap="round" stroke-linejoin="round" d="M5.675 22.125a11.988 11.988 0 114.2 4.2v0L5.725 27.5A.988.988 0 014.5 26.275l1.175-4.15z"/>
  <path stroke-linecap="round" stroke-linejoin="round" d="M19.012 23A9.988 9.988 0 019 12.988 3.5 3.5 0 0112.5 9.5v0a.85.85 0 01.75.438l1.463 2.55A1.012 1.012 0 0114.7 13.5l-1.175 1.963a6 6 0 003.013 3.012L18.5 17.3a1.014 1.014 0 011.012-.012l2.55 1.462a.851.851 0 01.438.75 3.512 3.512 0 01-3.488 3.5v0z"/>
</svg>
