<svg xmlns="http://www.w3.org/2000/svg" fill="none" viewBox="0 0 32 32" stroke-width="2" stroke="currentColor" aria-hidden="true">
  <path stroke-linecap="round" stroke-linejoin="round" d="M20 16l-6-4v8l6-4z"/>
  <path stroke-linecap="round" stroke-linejoin="round" d="M3 16c0 3.725.388 5.9.675 7.025a2.012 2.012 0 001.2 1.362C9.063 25.987 16 25.95 16 25.95s6.938.037 11.125-1.563a2.013 2.013 0 001.2-1.362C28.613 21.9 29 19.725 29 16c0-3.725-.387-5.9-.675-7.025a2.013 2.013 0 00-1.2-1.363C22.937 6.012 16 6.05 16 6.05S9.062 6.012 4.875 7.612a2.012 2.012 0 00-1.2 1.363C3.388 10.1 3 12.275 3 16z"/>
</svg>
