<svg width="32" height="32" viewBox="0 0 32 32" fill="none" xmlns="http://www.w3.org/2000/svg">
<path d="M26.8764 10.775L23.1514 14.275L26.9264 24.6625C26.9911 24.842 27.0031 25.0362 26.961 25.2222C26.9189 25.4083 26.8245 25.5784 26.6889 25.7125L23.6889 28.7125C23.5839 28.8149 23.4581 28.8935 23.3201 28.9431C23.1821 28.9927 23.035 29.0121 22.8889 29C22.7436 28.9838 22.6036 28.9363 22.4785 28.8607C22.3533 28.7852 22.246 28.6835 22.1639 28.5625L16.8389 20.775L14.4889 22.9375V25.5C14.4857 25.7676 14.378 26.0233 14.1889 26.2125L11.6889 28.7125C11.5968 28.8041 11.4876 28.8767 11.3675 28.926C11.2474 28.9753 11.1187 29.0005 10.9889 29L10.7639 28.975C10.5977 28.9375 10.4438 28.858 10.3169 28.7443C10.19 28.6305 10.0943 28.4862 10.0389 28.3251L8.42638 23.5625L3.66388 21.9501C3.50274 21.8946 3.35844 21.7989 3.24468 21.672C3.13092 21.5451 3.05147 21.3913 3.01388 21.225C2.97761 21.0592 2.98257 20.887 3.02834 20.7236C3.07411 20.5601 3.15928 20.4104 3.27638 20.2875L5.77638 17.7875C5.96689 17.6018 6.22283 17.4985 6.48888 17.5H9.07638L11.4139 15.15L3.42638 9.83755C3.30728 9.75069 3.20708 9.64052 3.13187 9.51374C3.05666 9.38696 3.00802 9.24621 2.98888 9.10005C2.97494 8.95187 2.99344 8.80243 3.04308 8.66211C3.09273 8.5218 3.17234 8.39399 3.27638 8.28755L6.27638 5.28755C6.41104 5.15274 6.58182 5.05978 6.76813 5.01985C6.95443 4.97993 7.14831 4.99476 7.32638 5.06255L17.7139 8.83755L21.0389 5.31255C21.0737 5.26097 21.1158 5.21466 21.1639 5.17505C21.8971 4.46132 22.8759 4.05571 23.899 4.04164C24.9221 4.02757 25.9117 4.40611 26.6643 5.09941C27.4168 5.7927 27.875 6.74802 27.9447 7.76886C28.0144 8.7897 27.6902 9.79843 27.0389 10.5875C26.9948 10.6581 26.94 10.7214 26.8764 10.775V10.775Z" fill="#49536E"/>
</svg>
