<svg width="32" height="32" viewBox="0 0 32 32" fill="none" xmlns="http://www.w3.org/2000/svg">
<path d="M22.0005 27C22.0005 27.2652 21.8952 27.5196 21.7077 27.7071C21.5201 27.8946 21.2658 28 21.0005 28H3.00055C2.73533 28 2.48098 27.8946 2.29344 27.7071C2.1059 27.5196 2.00055 27.2652 2.00055 27C2.00055 26.7348 2.1059 26.4804 2.29344 26.2929C2.48098 26.1054 2.73533 26 3.00055 26H21.0005C21.2658 26 21.5201 26.1054 21.7077 26.2929C21.8952 26.4804 22.0005 26.7348 22.0005 27ZM30.888 11.1875L28.563 8.3375C27.8835 7.50223 26.9264 6.93912 25.8662 6.75095C24.806 6.56278 23.7135 6.76209 22.788 7.3125L17.438 10.45L10.163 8.025C10.0447 7.98484 9.91582 7.98928 9.80055 8.0375L7.73805 8.925C7.50781 9.02459 7.30624 9.18034 7.15176 9.37798C6.99728 9.57562 6.89483 9.80885 6.8538 10.0563C6.81276 10.3038 6.83444 10.5576 6.91685 10.7945C6.99927 11.0314 7.13978 11.2439 7.32555 11.4125L10.6505 14.4125L7.96305 15.9375L4.70055 14.5375C4.57194 14.4873 4.42915 14.4873 4.30055 14.5375L2.21305 15.4375C1.98341 15.5353 1.78181 15.6888 1.62651 15.8842C1.47122 16.0796 1.36713 16.3107 1.32368 16.5565C1.28024 16.8022 1.29881 17.055 1.37771 17.2918C1.45661 17.5285 1.59336 17.7419 1.77555 17.9125L6.48805 22.325C7.19153 22.9911 8.09217 23.4109 9.05465 23.5214C10.0171 23.6318 10.9895 23.4269 11.8255 22.9375L30.7505 11.9375C30.8133 11.9001 30.8671 11.8493 30.9081 11.7888C30.9492 11.7284 30.9764 11.6596 30.988 11.5875C31 11.5175 30.9973 11.4459 30.98 11.377C30.9628 11.3081 30.9315 11.2436 30.888 11.1875V11.1875Z" fill="#49536E"/>
</svg>
