<svg width="32" height="32" viewBox="0 0 32 32" fill="none" xmlns="http://www.w3.org/2000/svg">
<path d="M29.4364 6.81244L25.1864 2.56244C25.0954 2.46205 24.985 2.38119 24.8618 2.32476C24.7387 2.26834 24.6054 2.23752 24.4699 2.23419C24.3345 2.23086 24.1998 2.25507 24.074 2.30537C23.9482 2.35566 23.834 2.43099 23.7382 2.52678C23.6424 2.62257 23.5671 2.73682 23.5168 2.8626C23.4665 2.98839 23.4423 3.12308 23.4456 3.2585C23.4489 3.39393 23.4798 3.52726 23.5362 3.65042C23.5926 3.77357 23.6735 3.88398 23.7739 3.97494L28.0239 8.22494C28.2105 8.40876 28.4619 8.512 28.7239 8.51243C28.9894 8.51131 29.2444 8.40842 29.4364 8.22494C29.6234 8.03747 29.7284 7.78348 29.7284 7.51869C29.7284 7.25389 29.6234 6.9999 29.4364 6.81244V6.81244Z" fill="#49536E"/>
<path d="M8.22407 2.56255C8.0366 2.37553 7.78262 2.27051 7.51782 2.27051C7.25302 2.27051 6.99904 2.37553 6.81157 2.56255L2.56157 6.81255C2.37456 7.00001 2.26953 7.254 2.26953 7.5188C2.26953 7.78359 2.37456 8.03758 2.56157 8.22505C2.75353 8.40853 3.00853 8.51142 3.27407 8.51255C3.53605 8.51211 3.7874 8.40887 3.97407 8.22505L8.22407 3.97505C8.41108 3.78758 8.51611 3.53359 8.51611 3.2688C8.51611 3.004 8.41108 2.75001 8.22407 2.56255Z" fill="#49536E"/>
<path d="M28 15.65C27.9896 15.5629 27.9854 15.4751 27.9875 15.3875V15.3875C27.8368 12.4215 26.5917 9.6168 24.4929 7.5157C22.3941 5.41461 19.5908 4.16639 16.625 4.01245H15.375C12.4113 4.16613 9.60961 5.41258 7.51112 7.51107C5.41263 9.60956 4.16618 12.4112 4.0125 15.375V15.375C4.01456 15.4626 4.01038 15.5504 4 15.6375V16.3375C4.01038 16.4245 4.01456 16.5123 4.0125 16.6V16.6C4.16018 19.5681 5.40399 22.3759 7.50307 24.4796C9.60216 26.5833 12.4072 27.8332 15.375 27.9874H16.625C19.5887 27.8338 22.3904 26.5873 24.4889 24.4888C26.5874 22.3903 27.8338 19.5887 27.9875 16.625V16.625C27.9854 16.5373 27.9896 16.4495 28 16.3625V15.6625V15.65ZM23 17H16C15.7348 17 15.4804 16.8946 15.2929 16.7071C15.1054 16.5195 15 16.2652 15 16V8.99995C15 8.73473 15.1054 8.48038 15.2929 8.29284C15.4804 8.10531 15.7348 7.99995 16 7.99995C16.2652 7.99995 16.5196 8.10531 16.7071 8.29284C16.8946 8.48038 17 8.73473 17 8.99995V15H23C23.2652 15 23.5196 15.1053 23.7071 15.2928C23.8946 15.4804 24 15.7347 24 16C24 16.2652 23.8946 16.5195 23.7071 16.7071C23.5196 16.8946 23.2652 17 23 17Z" fill="#49536E"/>
</svg>
