<svg width="32" height="32" viewBox="0 0 32 32" fill="none" xmlns="http://www.w3.org/2000/svg">
<path d="M28.3878 8.07508L16.3878 3.07508C16.1392 2.97497 15.8614 2.97497 15.6128 3.07508L3.6128 8.07508C3.41086 8.16285 3.24304 8.31406 3.13477 8.50579C3.0265 8.69753 2.98368 8.91933 3.0128 9.13758L5.0128 24.1376C5.03469 24.2985 5.09496 24.4517 5.1885 24.5844C5.28205 24.7171 5.40614 24.8254 5.5503 24.9001L15.5503 29.9001C15.6912 29.9659 15.8448 30.0001 16.0003 30.0001C16.1558 30.0001 16.3094 29.9659 16.4503 29.9001L26.4503 24.9001C26.5945 24.8254 26.7186 24.7171 26.8121 24.5844C26.9057 24.4517 26.9659 24.2985 26.9878 24.1376L28.9878 9.13758C29.0169 8.91933 28.9741 8.69753 28.8658 8.50579C28.7576 8.31406 28.5897 8.16285 28.3878 8.07508V8.07508ZM20.9503 20.9001C20.8084 20.9628 20.6554 20.9968 20.5003 21.0001C20.3142 21 20.1318 20.9486 19.973 20.8515C19.8143 20.7545 19.6853 20.6156 19.6003 20.4501L18.5503 18.3376H13.4503L12.4003 20.4501C12.281 20.6888 12.0717 20.8703 11.8185 20.9547C11.5653 21.0391 11.289 21.0194 11.0503 20.9001C10.8116 20.7807 10.6301 20.5715 10.5457 20.3183C10.4613 20.0651 10.481 19.7888 10.6003 19.5501L15.1003 10.5501C15.1855 10.3848 15.3145 10.2462 15.4733 10.1494C15.632 10.0526 15.8144 10.0014 16.0003 10.0014C16.1862 10.0014 16.3686 10.0526 16.5273 10.1494C16.6861 10.2462 16.8151 10.3848 16.9003 10.5501L21.4003 19.5501C21.5147 19.7896 21.5317 20.0641 21.4477 20.3159C21.3638 20.5677 21.1855 20.7771 20.9503 20.9001V20.9001ZM16.0003 13.2376L17.5503 16.3376H14.4503L16.0003 13.2376Z" fill="#49536E"/>
</svg>
