<svg width="32" height="32" viewBox="0 0 32 32" fill="none" xmlns="http://www.w3.org/2000/svg">
<path d="M8.0375 25.5126L6.8625 27.5126C6.77254 27.6609 6.64598 27.7837 6.49495 27.8691C6.34392 27.9544 6.17349 27.9995 6 28.0001C5.82043 27.9973 5.64436 27.95 5.4875 27.8626C5.26062 27.725 5.09683 27.5038 5.03137 27.2467C4.96592 26.9895 5.00403 26.7169 5.1375 26.4876L6.325 24.4876C6.38751 24.366 6.4743 24.2584 6.58002 24.1717C6.68574 24.0849 6.80813 24.0207 6.93963 23.9831C7.07114 23.9455 7.20895 23.9353 7.34456 23.9531C7.48016 23.9709 7.61067 24.0163 7.72803 24.0866C7.84538 24.1568 7.94708 24.2504 8.02683 24.3615C8.10658 24.4726 8.1627 24.5989 8.1917 24.7325C8.22071 24.8662 8.22199 25.0044 8.19547 25.1386C8.16894 25.2727 8.11518 25.4 8.0375 25.5126V25.5126ZM29 20.0001H23.025L19.1875 13.5001C19.1205 13.3865 19.0317 13.2873 18.9262 13.2082C18.8207 13.129 18.7006 13.0715 18.5728 13.039C18.445 13.0065 18.3121 12.9995 18.1816 13.0186C18.0511 13.0377 17.9256 13.0824 17.8125 13.1501C17.6993 13.2159 17.6004 13.3035 17.5214 13.4079C17.4424 13.5123 17.385 13.6313 17.3524 13.7581C17.3198 13.8849 17.3128 14.0169 17.3317 14.1464C17.3506 14.2759 17.3951 14.4004 17.4625 14.5126L25.1375 27.5126C25.2275 27.6609 25.354 27.7837 25.5051 27.8691C25.6561 27.9544 25.8265 27.9995 26 28.0001C26.1796 27.9973 26.3556 27.95 26.5125 27.8626C26.7394 27.725 26.9032 27.5038 26.9686 27.2467C27.0341 26.9895 26.996 26.7169 26.8625 26.4876L24.2125 22.0001H29C29.2652 22.0001 29.5196 21.8947 29.7071 21.7072C29.8946 21.5197 30 21.2653 30 21.0001C30 20.7349 29.8946 20.4805 29.7071 20.293C29.5196 20.1055 29.2652 20.0001 29 20.0001ZM17.8125 20.0001H11.3L16.85 10.6001H16.8625L19.8625 5.5251C19.9984 5.29635 20.0379 5.02298 19.9723 4.76511C19.9066 4.50725 19.7412 4.28603 19.5125 4.1501C19.2838 4.01418 19.0104 3.97469 18.7525 4.04033C18.4946 4.10597 18.2734 4.27135 18.1375 4.5001L16 8.1126L13.8625 4.4876C13.7952 4.37434 13.7062 4.27544 13.6007 4.19655C13.4952 4.11766 13.3752 4.06033 13.2475 4.02783C13.1198 3.99533 12.987 3.9883 12.8566 4.00713C12.7262 4.02597 12.6008 4.0703 12.4875 4.1376C12.3742 4.2049 12.2753 4.29386 12.1964 4.39938C12.1176 4.50491 12.0602 4.62493 12.0277 4.75261C11.9952 4.8803 11.9882 5.01313 12.007 5.14353C12.0259 5.27393 12.0702 5.39934 12.1375 5.5126L14.8375 10.0751L8.975 20.0001H3C2.73478 20.0001 2.48043 20.1055 2.29289 20.293C2.10536 20.4805 2 20.7349 2 21.0001C2 21.2653 2.10536 21.5197 2.29289 21.7072C2.48043 21.8947 2.73478 22.0001 3 22.0001H17.8125C18.0777 22.0001 18.3321 21.8947 18.5196 21.7072C18.7071 21.5197 18.8125 21.2653 18.8125 21.0001C18.8125 20.7349 18.7071 20.4805 18.5196 20.293C18.3321 20.1055 18.0777 20.0001 17.8125 20.0001Z" fill="#49536E"/>
</svg>
