<svg width="32" height="32" viewBox="0 0 32 32" fill="none" xmlns="http://www.w3.org/2000/svg">
<path d="M28.7125 13.7125L22.7125 19.7125C22.5214 19.8973 22.2659 20.0006 22 20.0006C21.7341 20.0006 21.4786 19.8973 21.2875 19.7125C21.0997 19.5229 20.9944 19.2668 20.9944 19C20.9944 18.7331 21.0997 18.477 21.2875 18.2875L26.5875 13L21.2875 7.71245C21.128 7.51816 21.0465 7.27149 21.0589 7.02044C21.0712 6.76939 21.1765 6.5319 21.3542 6.35416C21.5319 6.17643 21.7694 6.07116 22.0205 6.05883C22.2715 6.0465 22.5182 6.12799 22.7125 6.28745L28.7125 12.2875C28.9003 12.477 29.0056 12.7331 29.0056 13C29.0056 13.2668 28.9003 13.5229 28.7125 13.7125V13.7125ZM22.7125 12.2875L16.7125 6.28745C16.5679 6.15179 16.3879 6.05984 16.1932 6.02223C15.9985 5.98463 15.7972 6.00291 15.6125 6.07495C15.4305 6.15145 15.2752 6.28012 15.1662 6.44473C15.0572 6.60934 14.9994 6.80253 15 6.99995V12.0375C11.7359 12.2922 8.68776 13.768 6.46358 16.1706C4.23941 18.5732 3.00265 21.7259 3 25C3 25.2652 3.10536 25.5195 3.29289 25.7071C3.48043 25.8946 3.73478 26 4 26C4.26522 26 4.51957 25.8946 4.70711 25.7071C4.89464 25.5195 5 25.2652 5 25C5.00395 22.2573 6.0312 19.6148 7.88072 17.5895C9.73025 15.5643 12.2689 14.3021 15 14.05V19C14.9994 19.1974 15.0572 19.3906 15.1662 19.5552C15.2752 19.7198 15.4305 19.8484 15.6125 19.925C15.7358 19.9739 15.8673 19.9994 16 20C16.2655 19.9988 16.5205 19.8959 16.7125 19.7125L22.7125 13.7125C22.9003 13.5229 23.0056 13.2668 23.0056 13C23.0056 12.7331 22.9003 12.477 22.7125 12.2875V12.2875Z" fill="#49536E"/>
</svg>
