<svg width="32" height="32" viewBox="0 0 32 32" fill="none" xmlns="http://www.w3.org/2000/svg">
<path d="M25 11V24C25 24.2652 24.8946 24.5195 24.7071 24.7071C24.5195 24.8946 24.2652 25 24 25H11C10.8025 25.0006 10.6093 24.9427 10.4447 24.8337C10.2801 24.7247 10.1515 24.5695 10.075 24.3875C10.0029 24.2028 9.98464 24.0014 10.0222 23.8068C10.0599 23.6121 10.1518 23.432 10.2875 23.2875L16.0875 17.5L7.28746 8.71246C7.128 8.51817 7.04651 8.2715 7.05884 8.02045C7.07117 7.7694 7.17644 7.53191 7.35417 7.35417C7.53191 7.17644 7.7694 7.07117 8.02045 7.05884C8.2715 7.04651 8.51817 7.128 8.71246 7.28746L17.5 16.0875L23.2875 10.2875C23.432 10.1518 23.6121 10.0599 23.8068 10.0222C24.0014 9.98464 24.2028 10.0029 24.3875 10.075C24.5695 10.1515 24.7247 10.2801 24.8337 10.4447C24.9427 10.6093 25.0006 10.8025 25 11V11Z" fill="#49536E"/>
</svg>
