<svg width="32" height="32" viewBox="0 0 32 32" fill="none" xmlns="http://www.w3.org/2000/svg">
<path d="M28.9247 15.3875C28.8482 15.5695 28.7195 15.7248 28.5549 15.8338C28.3903 15.9428 28.1971 16.0006 27.9997 16H22.9997V19C22.9997 19.2652 22.8944 19.5196 22.7068 19.7071C22.5193 19.8947 22.2649 20 21.9997 20H9.99971C9.73449 20 9.48014 19.8947 9.2926 19.7071C9.10506 19.5196 8.99971 19.2652 8.99971 19V16H3.99971C3.80228 16.0006 3.60909 15.9428 3.44448 15.8338C3.27987 15.7248 3.15121 15.5695 3.07471 15.3875C3.00266 15.2028 2.98439 15.0015 3.02199 14.8068C3.0596 14.6121 3.15155 14.4321 3.28721 14.2875L15.2872 2.28751C15.4768 2.09973 15.7329 1.99438 15.9997 1.99438C16.2666 1.99438 16.5226 2.09973 16.7122 2.28751L28.7122 14.2875C28.8479 14.4321 28.9398 14.6121 28.9774 14.8068C29.015 15.0015 28.9968 15.2028 28.9247 15.3875V15.3875ZM21.9997 26H9.99971C9.73449 26 9.48014 26.1054 9.2926 26.2929C9.10506 26.4804 8.99971 26.7348 8.99971 27C8.99971 27.2652 9.10506 27.5196 9.2926 27.7071C9.48014 27.8947 9.73449 28 9.99971 28H21.9997C22.2649 28 22.5193 27.8947 22.7068 27.7071C22.8944 27.5196 22.9997 27.2652 22.9997 27C22.9997 26.7348 22.8944 26.4804 22.7068 26.2929C22.5193 26.1054 22.2649 26 21.9997 26ZM21.9997 22H9.99971C9.73449 22 9.48014 22.1054 9.2926 22.2929C9.10506 22.4804 8.99971 22.7348 8.99971 23C8.99971 23.2652 9.10506 23.5196 9.2926 23.7071C9.48014 23.8947 9.73449 24 9.99971 24H21.9997C22.2649 24 22.5193 23.8947 22.7068 23.7071C22.8944 23.5196 22.9997 23.2652 22.9997 23C22.9997 22.7348 22.8944 22.4804 22.7068 22.2929C22.5193 22.1054 22.2649 22 21.9997 22Z" fill="#49536E"/>
</svg>
