<svg width="32" height="32" viewBox="0 0 32 32" fill="none" xmlns="http://www.w3.org/2000/svg">
<path d="M28.7122 17.7125L16.7122 29.7125C16.5226 29.9003 16.2666 30.0056 15.9997 30.0056C15.7329 30.0056 15.4768 29.9003 15.2872 29.7125L3.28721 17.7125C3.15155 17.5679 3.0596 17.3879 3.02199 17.1932C2.98439 16.9985 3.00266 16.7972 3.07471 16.6125C3.15121 16.4305 3.27987 16.2752 3.44448 16.1662C3.60909 16.0572 3.80228 15.9994 3.99971 16H8.99971V6C8.99971 5.46957 9.21042 4.96086 9.58549 4.58579C9.96057 4.21071 10.4693 4 10.9997 4H20.9997C21.5301 4 22.0388 4.21071 22.4139 4.58579C22.789 4.96086 22.9997 5.46957 22.9997 6V16H27.9997C28.1971 15.9994 28.3903 16.0572 28.5549 16.1662C28.7195 16.2752 28.8482 16.4305 28.9247 16.6125C28.9968 16.7972 29.015 16.9985 28.9774 17.1932C28.9398 17.3879 28.8479 17.5679 28.7122 17.7125V17.7125Z" fill="#49536E"/>
</svg>
