<svg width="32" height="32" viewBox="0 0 32 32" fill="none" xmlns="http://www.w3.org/2000/svg">
<path d="M26.7123 6.71246L23.4123 9.99996L25.7123 12.2875C25.8479 12.432 25.9399 12.6121 25.9775 12.8068C26.0151 13.0014 25.9968 13.2028 25.9248 13.3875C25.8483 13.5695 25.7196 13.7247 25.555 13.8337C25.3904 13.9427 25.1972 14.0006 24.9998 14H18.9998C18.7345 14 18.4802 13.8946 18.2927 13.7071C18.1051 13.5195 17.9998 13.2652 17.9998 13V6.99996C17.9991 6.80254 18.057 6.60935 18.166 6.44474C18.275 6.28013 18.4303 6.15146 18.6123 6.07496C18.797 6.00292 18.9983 5.98464 19.193 6.02225C19.3876 6.05985 19.5677 6.1518 19.7123 6.28746L21.9998 8.58746L25.2873 5.28746C25.4816 5.128 25.7282 5.04651 25.9793 5.05884C26.2303 5.07117 26.4678 5.17644 26.6456 5.35417C26.8233 5.53191 26.9286 5.7694 26.9409 6.02045C26.9532 6.2715 26.8717 6.51817 26.7123 6.71246V6.71246ZM12.9998 18H6.99977C6.80234 17.9993 6.60915 18.0572 6.44454 18.1662C6.27993 18.2752 6.15127 18.4305 6.07477 18.6125C6.00272 18.7972 5.98444 18.9985 6.02205 19.1932C6.05965 19.3878 6.15161 19.5679 6.28727 19.7125L8.58727 22L5.28727 25.2875C5.09948 25.4771 4.99414 25.7331 4.99414 26C4.99414 26.2668 5.09948 26.5229 5.28727 26.7125C5.47841 26.8973 5.73388 27.0006 5.99977 27.0006C6.26565 27.0006 6.52113 26.8973 6.71227 26.7125L9.99977 23.4125L12.2873 25.7125C12.4792 25.8959 12.7342 25.9988 12.9998 26C13.1325 25.9994 13.2639 25.9739 13.3873 25.925C13.5693 25.8485 13.7246 25.7198 13.8335 25.5552C13.9425 25.3906 14.0004 25.1974 13.9998 25V19C13.9998 18.7347 13.8944 18.4804 13.7069 18.2929C13.5193 18.1053 13.265 18 12.9998 18Z" fill="#49536E"/>
</svg>
