<svg width="32" height="32" viewBox="0 0 32 32" fill="none" xmlns="http://www.w3.org/2000/svg">
<path d="M29.0002 23C29.0002 23.2652 28.8948 23.5196 28.7073 23.7071C28.5198 23.8946 28.2654 24 28.0002 24C27.735 24 27.4806 23.8946 27.2931 23.7071C27.1056 23.5196 27.0002 23.2652 27.0002 23C26.9994 20.9101 26.4033 18.8637 25.2816 17.1004C24.1599 15.337 22.5592 13.9296 20.6667 13.0431C18.7742 12.1565 16.6683 11.8274 14.5955 12.0943C12.5227 12.3611 10.5689 13.2129 8.9627 14.55L12.2252 17.8125C12.3639 17.9526 12.458 18.1306 12.4958 18.3241C12.5337 18.5176 12.5134 18.718 12.4377 18.9C12.3626 19.083 12.2343 19.2392 12.0693 19.3484C11.9044 19.4576 11.7105 19.5148 11.5127 19.5125H3.5127C3.24748 19.5125 2.99312 19.4071 2.80559 19.2196C2.61805 19.0321 2.5127 18.7777 2.5127 18.5125V10.5125C2.51303 10.3142 2.5723 10.1205 2.68299 9.95596C2.79367 9.79144 2.95077 9.66353 3.13432 9.58851C3.31787 9.51348 3.51958 9.49471 3.71382 9.5346C3.90806 9.57448 4.08606 9.67121 4.2252 9.81249L7.53769 13.125C10.0254 10.9955 13.2252 9.88336 16.4974 10.0108C19.7696 10.1383 22.8731 11.496 25.1877 13.8125C26.4013 15.0141 27.3634 16.4454 28.018 18.0228C28.6726 19.6002 29.0065 21.2922 29.0002 23V23Z" fill="#49536E"/>
</svg>
