<svg width="32" height="32" viewBox="0 0 32 32" fill="none" xmlns="http://www.w3.org/2000/svg">
<path d="M24.9998 8V21C25.0004 21.1974 24.9425 21.3906 24.8335 21.5552C24.7246 21.7198 24.5693 21.8485 24.3873 21.925C24.2639 21.974 24.1325 21.9994 23.9998 22C23.7342 21.9989 23.4792 21.896 23.2873 21.7125L17.4998 15.9125L8.71227 24.7125C8.52113 24.8973 8.26565 25.0006 7.99977 25.0006C7.73388 25.0006 7.47841 24.8973 7.28727 24.7125C7.09948 24.5229 6.99414 24.2669 6.99414 24C6.99414 23.7332 7.09948 23.4771 7.28727 23.2875L16.0873 14.5L10.2873 8.7125C10.1516 8.56792 10.0597 8.38788 10.022 8.19321C9.98444 7.99855 10.0027 7.79722 10.0748 7.61251C10.1513 7.4305 10.2799 7.27522 10.4445 7.16622C10.6092 7.05722 10.8023 6.99939 10.9998 7H23.9998C24.265 7 24.5193 7.10536 24.7069 7.2929C24.8944 7.48043 24.9998 7.73479 24.9998 8Z" fill="#49536E"/>
</svg>
