<svg width="32" height="32" viewBox="0 0 32 32" fill="none" xmlns="http://www.w3.org/2000/svg">
<path d="M24.9998 4V22C24.9998 22.2652 24.8944 22.5196 24.7069 22.7071C24.5193 22.8946 24.265 23 23.9998 23H12.9998V28C13.0004 28.1974 12.9425 28.3906 12.8335 28.5552C12.7246 28.7198 12.5693 28.8485 12.3873 28.925C12.2639 28.974 12.1325 28.9994 11.9998 29C11.7342 28.9989 11.4792 28.896 11.2873 28.7125L5.28727 22.7125C5.09948 22.5229 4.99414 22.2668 4.99414 22C4.99414 21.7332 5.09948 21.4771 5.28727 21.2875L11.2873 15.2875C11.4319 15.1518 11.6119 15.0599 11.8066 15.0223C12.0012 14.9847 12.2026 15.003 12.3873 15.075C12.5693 15.1515 12.7246 15.2802 12.8335 15.4448C12.9425 15.6094 13.0004 15.8026 12.9998 16V21H22.9998V4C22.9998 3.73478 23.1051 3.48043 23.2927 3.29289C23.4802 3.10536 23.7345 3 23.9998 3C24.265 3 24.5193 3.10536 24.7069 3.29289C24.8944 3.48043 24.9998 3.73478 24.9998 4V4Z" fill="#49536E"/>
</svg>
