<svg width="32" height="32" viewBox="0 0 32 32" fill="none" xmlns="http://www.w3.org/2000/svg">
<path d="M14.2873 28.7125L2.28727 16.7125C2.09948 16.5229 1.99414 16.2668 1.99414 16C1.99414 15.7331 2.09948 15.477 2.28727 15.2875L14.2873 3.28745C14.4319 3.15179 14.6119 3.05984 14.8066 3.02223C15.0012 2.98463 15.2026 3.00291 15.3873 3.07495C15.5693 3.15145 15.7246 3.28012 15.8335 3.44473C15.9425 3.60934 16.0004 3.80253 15.9998 3.99995V8.99995H25.9998C26.5302 8.99995 27.0389 9.21067 27.414 9.58574C27.7891 9.96081 27.9998 10.4695 27.9998 11V21C27.9998 21.5304 27.7891 22.0391 27.414 22.4142C27.0389 22.7892 26.5302 23 25.9998 23H15.9998V28C16.0004 28.1974 15.9425 28.3906 15.8335 28.5552C15.7246 28.7198 15.5693 28.8484 15.3873 28.925C15.2026 28.997 15.0012 29.0153 14.8066 28.9777C14.6119 28.9401 14.4319 28.8481 14.2873 28.7125V28.7125Z" fill="#49536E"/>
</svg>
