<svg width="32" height="32" viewBox="0 0 32 32" fill="none" xmlns="http://www.w3.org/2000/svg">
<path d="M28.9998 7C28.9932 10.4458 27.6214 13.7485 25.1849 16.1851C22.7483 18.6216 19.4455 19.9934 15.9998 20H10.9998V25C11.0004 25.1974 10.9425 25.3906 10.8335 25.5552C10.7246 25.7198 10.5693 25.8485 10.3873 25.925C10.2639 25.974 10.1325 25.9994 9.99977 26C9.73423 25.9989 9.47922 25.896 9.28727 25.7125L3.28727 19.7125C3.09948 19.5229 2.99414 19.2668 2.99414 19C2.99414 18.7332 3.09948 18.4771 3.28727 18.2875L9.28727 12.2875C9.43185 12.1518 9.61189 12.0599 9.80656 12.0223C10.0012 11.9847 10.2026 12.003 10.3873 12.075C10.5693 12.1515 10.7246 12.2802 10.8335 12.4448C10.9425 12.6094 11.0004 12.8026 10.9998 13V18H15.9998C18.9161 17.9967 21.7121 16.8367 23.7743 14.7745C25.8365 12.7123 26.9965 9.91637 26.9998 7C26.9998 6.73478 27.1051 6.48043 27.2927 6.29289C27.4802 6.10536 27.7345 6 27.9998 6C28.265 6 28.5193 6.10536 28.7069 6.29289C28.8944 6.48043 28.9998 6.73478 28.9998 7Z" fill="#49536E"/>
</svg>
