<svg width="32" height="32" viewBox="0 0 32 32" fill="none" xmlns="http://www.w3.org/2000/svg">
<path d="M26.7123 22.7125L22.7123 26.7125C22.5203 26.8959 22.2653 26.9988 21.9998 27C21.867 26.9994 21.7356 26.9739 21.6123 26.925C21.4303 26.8484 21.275 26.7198 21.166 26.5552C21.057 26.3906 20.9991 26.1974 20.9998 26V23H5.99977C5.73455 23 5.4802 22.8946 5.29266 22.7071C5.10512 22.5195 4.99977 22.2652 4.99977 22C4.99977 21.7347 5.10512 21.4804 5.29266 21.2928C5.4802 21.1053 5.73455 21 5.99977 21H20.9998V18C20.9991 17.8025 21.057 17.6093 21.166 17.4447C21.275 17.2801 21.4303 17.1515 21.6123 17.075C21.797 17.0029 21.9983 16.9846 22.193 17.0222C22.3876 17.0598 22.5677 17.1518 22.7123 17.2875L26.7123 21.2875C26.9 21.477 27.0054 21.7331 27.0054 22C27.0054 22.2668 26.9 22.5229 26.7123 22.7125V22.7125ZM9.28727 14.7125C9.47922 14.8959 9.73423 14.9988 9.99977 15C10.1325 14.9994 10.2639 14.9739 10.3873 14.925C10.5693 14.8485 10.7246 14.7198 10.8335 14.5552C10.9425 14.3906 11.0004 14.1974 10.9998 14V11H25.9998C26.265 11 26.5193 10.8946 26.7069 10.7071C26.8944 10.5195 26.9998 10.2652 26.9998 9.99995C26.9998 9.73474 26.8944 9.48038 26.7069 9.29285C26.5193 9.10531 26.265 8.99995 25.9998 8.99995H10.9998V5.99995C11.0004 5.80253 10.9425 5.60934 10.8335 5.44473C10.7246 5.28012 10.5693 5.15145 10.3873 5.07495C10.2026 5.00291 10.0012 4.98463 9.80656 5.02223C9.61189 5.05984 9.43185 5.15179 9.28727 5.28745L5.28727 9.28745C5.09948 9.47705 4.99414 9.7331 4.99414 9.99995C4.99414 10.2668 5.09948 10.5229 5.28727 10.7125L9.28727 14.7125Z" fill="#49536E"/>
</svg>
