<svg width="32" height="32" viewBox="0 0 32 32" fill="none" xmlns="http://www.w3.org/2000/svg">
<path d="M29.0254 6.46251V12.4625C29.0254 12.7277 28.9201 12.9821 28.7326 13.1696C28.545 13.3571 28.2907 13.4625 28.0254 13.4625H22.0254C21.8287 13.4622 21.6363 13.4038 21.4726 13.2947C21.3088 13.1856 21.1809 13.0305 21.1048 12.849C21.0287 12.6676 21.0079 12.4677 21.0449 12.2744C21.082 12.0811 21.1752 11.903 21.3129 11.7625L23.6129 9.4625L23.0754 8.92501C21.6765 7.52759 19.8946 6.57629 17.9551 6.19134C16.0156 5.80639 14.0055 6.00507 12.1789 6.76227C10.3523 7.51948 8.79117 8.80121 7.69284 10.4455C6.59452 12.0897 6.00831 14.0227 6.00831 16C6.00831 17.9773 6.59452 19.9103 7.69284 21.5546C8.79117 23.1988 10.3523 24.4805 12.1789 25.2377C14.0055 25.9949 16.0156 26.1936 17.9551 25.8087C19.8946 25.4237 21.6765 24.4724 23.0754 23.075C23.1674 22.9809 23.2773 22.9061 23.3986 22.8551C23.5198 22.804 23.6501 22.7777 23.7817 22.7777C23.9133 22.7777 24.0436 22.804 24.1648 22.8551C24.2861 22.9061 24.396 22.9809 24.4879 23.075C24.675 23.2625 24.78 23.5165 24.78 23.7813C24.78 24.0461 24.675 24.3 24.4879 24.4875C22.8095 26.1651 20.6713 27.3074 18.3437 27.7699C16.0161 28.2324 13.6036 27.9944 11.4112 27.086C9.21888 26.1775 7.34511 24.6395 6.02681 22.6662C4.70851 20.6929 4.00488 18.3731 4.00488 16C4.00488 13.6269 4.70851 11.3071 6.02681 9.33382C7.34511 7.36056 9.21888 5.82249 11.4112 4.91405C13.6036 4.00562 16.0161 3.76761 18.3437 4.23012C20.6713 4.69264 22.8095 5.8349 24.4879 7.51251L25.0254 8.05001L27.3129 5.76251C27.4517 5.62172 27.629 5.52522 27.8226 5.48517C28.0161 5.44512 28.2172 5.46333 28.4004 5.53751C28.5829 5.61479 28.739 5.74329 28.8499 5.90745C28.9608 6.07162 29.0218 6.26441 29.0254 6.46251Z" fill="#49536E"/>
</svg>
