<svg width="32" height="32" viewBox="0 0 32 32" fill="none" xmlns="http://www.w3.org/2000/svg">
<path d="M26.7125 10.7125L20.7125 16.7125C20.5205 16.8959 20.2655 16.9988 20 17C19.8673 16.9994 19.7358 16.9739 19.6125 16.925C19.4305 16.8484 19.2752 16.7198 19.1662 16.5552C19.0572 16.3906 18.9994 16.1974 19 16V11H9V28C9 28.2652 8.89464 28.5195 8.70711 28.7071C8.51957 28.8946 8.26522 29 8 29C7.73478 29 7.48043 28.8946 7.29289 28.7071C7.10536 28.5195 7 28.2652 7 28V9.99995C7 9.73474 7.10536 9.48038 7.29289 9.29285C7.48043 9.10531 7.73478 8.99995 8 8.99995H19V3.99995C18.9994 3.80253 19.0572 3.60934 19.1662 3.44473C19.2752 3.28012 19.4305 3.15145 19.6125 3.07495C19.7972 3.00291 19.9985 2.98463 20.1932 3.02223C20.3879 3.05984 20.5679 3.15179 20.7125 3.28745L26.7125 9.28745C26.9003 9.47705 27.0056 9.7331 27.0056 9.99995C27.0056 10.2668 26.9003 10.5229 26.7125 10.7125V10.7125Z" fill="#49536E"/>
</svg>
