<svg width="32" height="32" viewBox="0 0 32 32" fill="none" xmlns="http://www.w3.org/2000/svg">
<path d="M14.9997 18V25.5C15.0003 25.6974 14.9424 25.8906 14.8334 26.0552C14.7244 26.2198 14.5692 26.3485 14.3872 26.425C14.2638 26.474 14.1324 26.4994 13.9997 26.5C13.7341 26.4989 13.4791 26.396 13.2872 26.2125L10.2497 23.1625L5.69965 27.7125C5.51299 27.8963 5.26164 27.9996 4.99965 28C4.73411 27.9989 4.47911 27.896 4.28715 27.7125C4.10014 27.525 3.99512 27.271 3.99512 27.0063C3.99512 26.7415 4.10014 26.4875 4.28715 26.3L8.83715 21.75L5.78715 18.7125C5.6515 18.5679 5.55954 18.3879 5.52194 18.1932C5.48433 17.9985 5.50261 17.7972 5.57465 17.6125C5.65116 17.4305 5.77982 17.2752 5.94443 17.1662C6.10904 17.0572 6.30223 16.9994 6.49965 17H13.9997C14.2649 17 14.5192 17.1054 14.7068 17.2929C14.8943 17.4804 14.9997 17.7348 14.9997 18ZM25.9997 4H8.99965C8.46922 4 7.96051 4.21071 7.58544 4.58579C7.21037 4.96086 6.99965 5.46957 6.99965 6V12C6.99965 12.2652 7.10501 12.5196 7.29255 12.7071C7.48008 12.8946 7.73444 13 7.99965 13C8.26487 13 8.51922 12.8946 8.70676 12.7071C8.8943 12.5196 8.99965 12.2652 8.99965 12V6H25.9997V23H19.9997C19.7344 23 19.4801 23.1054 19.2925 23.2929C19.105 23.4804 18.9997 23.7348 18.9997 24C18.9997 24.2652 19.105 24.5196 19.2925 24.7071C19.4801 24.8946 19.7344 25 19.9997 25H25.9997C26.5301 25 27.0388 24.7893 27.4139 24.4142C27.7889 24.0391 27.9997 23.5304 27.9997 23V6C27.9997 5.46957 27.7889 4.96086 27.4139 4.58579C27.0388 4.21071 26.5301 4 25.9997 4V4Z" fill="#49536E"/>
</svg>
