<svg width="32" height="32" viewBox="0 0 32 32" fill="none" xmlns="http://www.w3.org/2000/svg">
<path d="M28.7122 17.7125L16.7122 29.7125C16.5226 29.9003 16.2666 30.0056 15.9997 30.0056C15.7329 30.0056 15.4768 29.9003 15.2872 29.7125L3.28721 17.7125C3.15155 17.5679 3.0596 17.3879 3.02199 17.1932C2.98439 16.9985 3.00266 16.7972 3.07471 16.6125C3.15121 16.4305 3.27987 16.2752 3.44448 16.1662C3.60909 16.0572 3.80228 15.9994 3.99971 16H8.99971V9C8.99971 8.73478 9.10506 8.48043 9.2926 8.29289C9.48014 8.10536 9.73449 8 9.99971 8H21.9997C22.2649 8 22.5193 8.10536 22.7068 8.29289C22.8944 8.48043 22.9997 8.73478 22.9997 9V16H27.9997C28.1971 15.9994 28.3903 16.0572 28.5549 16.1662C28.7195 16.2752 28.8482 16.4305 28.9247 16.6125C28.9968 16.7972 29.015 16.9985 28.9774 17.1932C28.9398 17.3879 28.8479 17.5679 28.7122 17.7125V17.7125ZM22.9997 5C22.9997 4.73478 22.8944 4.48043 22.7068 4.29289C22.5193 4.10536 22.2649 4 21.9997 4H9.99971C9.73449 4 9.48014 4.10536 9.2926 4.29289C9.10506 4.48043 8.99971 4.73478 8.99971 5C8.99971 5.26522 9.10506 5.51957 9.2926 5.70711C9.48014 5.89464 9.73449 6 9.99971 6H21.9997C22.2649 6 22.5193 5.89464 22.7068 5.70711C22.8944 5.51957 22.9997 5.26522 22.9997 5Z" fill="#49536E"/>
</svg>
