<svg width="32" height="32" viewBox="0 0 32 32" fill="none" xmlns="http://www.w3.org/2000/svg">
<path d="M24.9998 9.99995V28C24.9998 28.2652 24.8944 28.5195 24.7069 28.7071C24.5193 28.8946 24.265 29 23.9998 29C23.7345 29 23.4802 28.8946 23.2927 28.7071C23.1051 28.5195 22.9998 28.2652 22.9998 28V11H12.9998V16C13.0004 16.1974 12.9425 16.3906 12.8335 16.5552C12.7246 16.7198 12.5693 16.8484 12.3873 16.925C12.2639 16.9739 12.1325 16.9994 11.9998 17C11.7342 16.9988 11.4792 16.8959 11.2873 16.7125L5.28727 10.7125C5.09948 10.5229 4.99414 10.2668 4.99414 9.99995C4.99414 9.7331 5.09948 9.47705 5.28727 9.28745L11.2873 3.28745C11.4319 3.15179 11.6119 3.05984 11.8066 3.02223C12.0012 2.98463 12.2026 3.00291 12.3873 3.07495C12.5693 3.15145 12.7246 3.28012 12.8335 3.44473C12.9425 3.60934 13.0004 3.80253 12.9998 3.99995V8.99995H23.9998C24.265 8.99995 24.5193 9.10531 24.7069 9.29285C24.8944 9.48038 24.9998 9.73474 24.9998 9.99995Z" fill="#49536E"/>
</svg>
