<svg width="32" height="32" viewBox="0 0 32 32" fill="none" xmlns="http://www.w3.org/2000/svg">
<path d="M25.9997 28C25.9997 28.2652 25.8944 28.5196 25.7068 28.7071C25.5193 28.8947 25.2649 29 24.9997 29C21.5539 28.9934 18.2512 27.6216 15.8146 25.1851C13.3781 22.7486 12.0063 19.4458 11.9997 16V11H6.99971C6.80228 11.0006 6.60909 10.9428 6.44448 10.8338C6.27987 10.7248 6.15121 10.5695 6.07471 10.3875C6.00266 10.2028 5.98439 10.0015 6.02199 9.8068C6.0596 9.61214 6.15155 9.4321 6.28721 9.28751L12.2872 3.28751C12.4768 3.09973 12.7329 2.99438 12.9997 2.99438C13.2666 2.99438 13.5226 3.09973 13.7122 3.28751L19.7122 9.28751C19.8479 9.4321 19.9398 9.61214 19.9774 9.8068C20.015 10.0015 19.9968 10.2028 19.9247 10.3875C19.8482 10.5695 19.7195 10.7248 19.5549 10.8338C19.3903 10.9428 19.1971 11.0006 18.9997 11H13.9997V16C14.003 18.9164 15.163 21.7123 17.2252 23.7745C19.2874 25.8367 22.0833 26.9967 24.9997 27C25.2649 27 25.5193 27.1054 25.7068 27.2929C25.8944 27.4804 25.9997 27.7348 25.9997 28Z" fill="#49536E"/>
</svg>
