<svg width="32" height="32" viewBox="0 0 32 32" fill="none" xmlns="http://www.w3.org/2000/svg">
<path d="M25.9247 14.3875C25.8482 14.5695 25.7195 14.7248 25.5549 14.8338C25.3903 14.9428 25.1971 15.0006 24.9997 15H16.9997V27C16.9997 27.2652 16.8944 27.5196 16.7068 27.7071C16.5193 27.8947 16.2649 28 15.9997 28C15.7345 28 15.4801 27.8947 15.2926 27.7071C15.1051 27.5196 14.9997 27.2652 14.9997 27V15H6.99971C6.80228 15.0006 6.60909 14.9428 6.44448 14.8338C6.27987 14.7248 6.15121 14.5695 6.07471 14.3875C6.00266 14.2028 5.98439 14.0015 6.02199 13.8068C6.0596 13.6121 6.15155 13.4321 6.28721 13.2875L15.2872 4.28751C15.4768 4.09973 15.7329 3.99438 15.9997 3.99438C16.2666 3.99438 16.5226 4.09973 16.7122 4.28751L25.7122 13.2875C25.8479 13.4321 25.9398 13.6121 25.9774 13.8068C26.015 14.0015 25.9968 14.2028 25.9247 14.3875V14.3875Z" fill="#49536E"/>
</svg>
