<svg width="32" height="32" viewBox="0 0 32 32" fill="none" xmlns="http://www.w3.org/2000/svg">
<path d="M25.9997 10V21C25.9997 23.1217 25.1569 25.1566 23.6566 26.6569C22.1563 28.1572 20.1214 29 17.9997 29C15.878 29 13.8431 28.1572 12.3429 26.6569C10.8426 25.1566 9.99971 23.1217 9.99971 21V11H4.99971C4.80228 11.0006 4.60909 10.9428 4.44448 10.8338C4.27987 10.7248 4.15121 10.5695 4.07471 10.3875C4.00266 10.2028 3.98439 10.0015 4.02199 9.8068C4.0596 9.61214 4.15155 9.4321 4.28721 9.28751L10.2872 3.28751C10.4768 3.09973 10.7329 2.99438 10.9997 2.99438C11.2666 2.99438 11.5226 3.09973 11.7122 3.28751L17.7122 9.28751C17.8479 9.4321 17.9398 9.61214 17.9774 9.8068C18.015 10.0015 17.9968 10.2028 17.9247 10.3875C17.8482 10.5695 17.7195 10.7248 17.5549 10.8338C17.3903 10.9428 17.1971 11.0006 16.9997 11H11.9997V21C11.9997 22.5913 12.6318 24.1174 13.7571 25.2427C14.8823 26.3679 16.4084 27 17.9997 27C19.591 27 21.1171 26.3679 22.2423 25.2427C23.3676 24.1174 23.9997 22.5913 23.9997 21V10C23.9997 9.73479 24.1051 9.48044 24.2926 9.2929C24.4801 9.10537 24.7345 9.00001 24.9997 9.00001C25.2649 9.00001 25.5193 9.10537 25.7068 9.2929C25.8944 9.48044 25.9997 9.73479 25.9997 10V10Z" fill="#49536E"/>
</svg>
