<svg width="32" height="32" viewBox="0 0 32 32" fill="none" xmlns="http://www.w3.org/2000/svg">
<path d="M16.6125 28.925C16.4305 28.8484 16.2752 28.7198 16.1662 28.5552C16.0572 28.3906 15.9994 28.1974 16 28V23H9C8.73478 23 8.48043 22.8946 8.29289 22.7071C8.10536 22.5195 8 22.2652 8 22V9.99995C8 9.73474 8.10536 9.48038 8.29289 9.29285C8.48043 9.10531 8.73478 8.99995 9 8.99995H16V3.99995C15.9994 3.80253 16.0572 3.60934 16.1662 3.44473C16.2752 3.28012 16.4305 3.15145 16.6125 3.07495C16.7972 3.00291 16.9985 2.98463 17.1932 3.02223C17.3879 3.05984 17.5679 3.15179 17.7125 3.28745L29.7125 15.2875C29.9003 15.477 30.0056 15.7331 30.0056 16C30.0056 16.2668 29.9003 16.5229 29.7125 16.7125L17.7125 28.7125C17.5679 28.8481 17.3879 28.9401 17.1932 28.9777C16.9985 29.0153 16.7972 28.997 16.6125 28.925V28.925ZM6 22V9.99995C6 9.73474 5.89464 9.48038 5.70711 9.29285C5.51957 9.10531 5.26522 8.99995 5 8.99995C4.73478 8.99995 4.48043 9.10531 4.29289 9.29285C4.10536 9.48038 4 9.73474 4 9.99995V22C4 22.2652 4.10536 22.5195 4.29289 22.7071C4.48043 22.8946 4.73478 23 5 23C5.26522 23 5.51957 22.8946 5.70711 22.7071C5.89464 22.5195 6 22.2652 6 22Z" fill="#49536E"/>
</svg>
