<svg width="32" height="32" viewBox="0 0 32 32" fill="none" xmlns="http://www.w3.org/2000/svg">
<path d="M14.2873 28.7125L2.28727 16.7125C2.09948 16.5229 1.99414 16.2668 1.99414 16C1.99414 15.7331 2.09948 15.477 2.28727 15.2875L14.2873 3.28745C14.4319 3.15179 14.6119 3.05984 14.8066 3.02223C15.0012 2.98463 15.2026 3.00291 15.3873 3.07495C15.5693 3.15145 15.7246 3.28012 15.8335 3.44473C15.9425 3.60934 16.0004 3.80253 15.9998 3.99995V8.99995H22.9998C23.265 8.99995 23.5193 9.10531 23.7069 9.29285C23.8944 9.48038 23.9998 9.73474 23.9998 9.99995V22C23.9998 22.2652 23.8944 22.5195 23.7069 22.7071C23.5193 22.8946 23.265 23 22.9998 23H15.9998V28C16.0004 28.1974 15.9425 28.3906 15.8335 28.5552C15.7246 28.7198 15.5693 28.8484 15.3873 28.925C15.2026 28.997 15.0012 29.0153 14.8066 28.9777C14.6119 28.9401 14.4319 28.8481 14.2873 28.7125V28.7125ZM26.9998 23C27.265 23 27.5193 22.8946 27.7069 22.7071C27.8944 22.5195 27.9998 22.2652 27.9998 22V9.99995C27.9998 9.73474 27.8944 9.48038 27.7069 9.29285C27.5193 9.10531 27.265 8.99995 26.9998 8.99995C26.7345 8.99995 26.4802 9.10531 26.2927 9.29285C26.1051 9.48038 25.9998 9.73474 25.9998 9.99995V22C25.9998 22.2652 26.1051 22.5195 26.2927 22.7071C26.4802 22.8946 26.7345 23 26.9998 23Z" fill="#49536E"/>
</svg>
