<svg width="32" height="32" viewBox="0 0 32 32" fill="none" xmlns="http://www.w3.org/2000/svg">
<path d="M10.7123 18.2875C10.9 18.477 11.0054 18.7331 11.0054 19C11.0054 19.2668 10.9 19.5229 10.7123 19.7125C10.5211 19.8973 10.2656 20.0006 9.99977 20.0006C9.73388 20.0006 9.47841 19.8973 9.28727 19.7125L3.28727 13.7125C3.09948 13.5229 2.99414 13.2668 2.99414 13C2.99414 12.7331 3.09948 12.477 3.28727 12.2875L9.28727 6.28745C9.48156 6.12799 9.72822 6.0465 9.97928 6.05883C10.2303 6.07116 10.4678 6.17643 10.6456 6.35416C10.8233 6.5319 10.9286 6.76939 10.9409 7.02044C10.9532 7.27149 10.8717 7.51816 10.7123 7.71245L5.41227 13L10.7123 18.2875ZM16.9998 12.0375V6.99995C17.0004 6.80253 16.9425 6.60934 16.8335 6.44473C16.7246 6.28012 16.5693 6.15145 16.3873 6.07495C16.2026 6.00291 16.0012 5.98463 15.8066 6.02223C15.6119 6.05984 15.4319 6.15179 15.2873 6.28745L9.28727 12.2875C9.09948 12.477 8.99414 12.7331 8.99414 13C8.99414 13.2668 9.09948 13.5229 9.28727 13.7125L15.2873 19.7125C15.4792 19.8959 15.7342 19.9988 15.9998 20C16.1325 19.9994 16.2639 19.9739 16.3873 19.925C16.5693 19.8484 16.7246 19.7198 16.8335 19.5552C16.9425 19.3906 17.0004 19.1974 16.9998 19V14.05C19.7308 14.3021 22.2695 15.5643 24.119 17.5895C25.9686 19.6148 26.9958 22.2573 26.9998 25C26.9998 25.2652 27.1051 25.5195 27.2927 25.7071C27.4802 25.8946 27.7345 26 27.9998 26C28.265 26 28.5193 25.8946 28.7069 25.7071C28.8944 25.5195 28.9998 25.2652 28.9998 25C28.9971 21.7259 27.7604 18.5732 25.5362 16.1706C23.312 13.768 20.2639 12.2922 16.9998 12.0375V12.0375Z" fill="#49536E"/>
</svg>
