<svg width="32" height="32" viewBox="0 0 32 32" fill="none" xmlns="http://www.w3.org/2000/svg">
<path d="M20.4623 25.0875C20.5348 25.271 20.5521 25.4717 20.5122 25.6649C20.4722 25.8581 20.3766 26.0354 20.2373 26.175L16.7123 29.7125C16.5211 29.8973 16.2656 30.0007 15.9998 30.0007C15.7339 30.0007 15.4784 29.8973 15.2873 29.7125L11.7623 26.175C11.621 26.0359 11.5243 25.8579 11.4844 25.6637C11.4445 25.4694 11.4633 25.2677 11.5383 25.0842C11.6133 24.9006 11.7412 24.7435 11.9057 24.6328C12.0703 24.5221 12.264 24.4629 12.4623 24.4625H14.9998V20C14.9998 19.7348 15.1051 19.4805 15.2927 19.2929C15.4802 19.1054 15.7345 19 15.9998 19C16.265 19 16.5193 19.1054 16.7069 19.2929C16.8944 19.4805 16.9998 19.7348 16.9998 20V24.4625H19.5373C19.7354 24.4662 19.9282 24.5271 20.0923 24.638C20.2565 24.749 20.385 24.9051 20.4623 25.0875ZM12.4623 7.53753H14.9998V12C14.9998 12.2652 15.1051 12.5196 15.2927 12.7071C15.4802 12.8947 15.7345 13 15.9998 13C16.265 13 16.5193 12.8947 16.7069 12.7071C16.8944 12.5196 16.9998 12.2652 16.9998 12V7.53753H19.5373C19.7356 7.53719 19.9293 7.47792 20.0938 7.36723C20.2583 7.25655 20.3862 7.09945 20.4612 6.9159C20.5363 6.73235 20.555 6.53064 20.5152 6.3364C20.4753 6.14216 20.3785 5.96416 20.2373 5.82503L16.7123 2.28753C16.5211 2.10271 16.2656 1.99939 15.9998 1.99939C15.7339 1.99939 15.4784 2.10271 15.2873 2.28753L11.7623 5.82503C11.621 5.96416 11.5243 6.14216 11.4844 6.3364C11.4445 6.53064 11.4633 6.73235 11.5383 6.9159C11.6133 7.09945 11.7412 7.25655 11.9057 7.36723C12.0703 7.47792 12.264 7.53719 12.4623 7.53753V7.53753ZM11.9998 17C12.265 17 12.5193 16.8947 12.7069 16.7071C12.8944 16.5196 12.9998 16.2652 12.9998 16C12.9998 15.7348 12.8944 15.4805 12.7069 15.2929C12.5193 15.1054 12.265 15 11.9998 15H7.53727V12.4625C7.53693 12.2642 7.47766 12.0705 7.36697 11.906C7.25629 11.7415 7.09919 11.6136 6.91564 11.5385C6.73209 11.4635 6.53038 11.4447 6.33614 11.4846C6.1419 11.5245 5.9639 11.6212 5.82477 11.7625L2.28727 15.2875C2.09948 15.4771 1.99414 15.7332 1.99414 16C1.99414 16.2669 2.09948 16.5229 2.28727 16.7125L5.82477 20.2375C5.91768 20.3323 6.02853 20.4077 6.15085 20.4592C6.27318 20.5107 6.40454 20.5373 6.53727 20.5375C6.66602 20.5379 6.79354 20.5124 6.91227 20.4625C7.0947 20.3852 7.25082 20.2567 7.36174 20.0926C7.47266 19.9284 7.53363 19.7356 7.53727 19.5375V17H11.9998ZM29.7123 15.2875L26.1748 11.7625C26.0356 11.6212 25.8576 11.5245 25.6634 11.4846C25.4692 11.4447 25.2674 11.4635 25.0839 11.5385C24.9003 11.6136 24.7432 11.7415 24.6326 11.906C24.5219 12.0705 24.4626 12.2642 24.4623 12.4625V15H19.9998C19.7345 15 19.4802 15.1054 19.2927 15.2929C19.1051 15.4805 18.9998 15.7348 18.9998 16C18.9998 16.2652 19.1051 16.5196 19.2927 16.7071C19.4802 16.8947 19.7345 17 19.9998 17H24.4623V19.5375C24.4659 19.7356 24.5269 19.9284 24.6378 20.0926C24.7487 20.2567 24.9048 20.3852 25.0873 20.4625C25.206 20.5124 25.3335 20.5379 25.4623 20.5375C25.595 20.5373 25.7264 20.5107 25.8487 20.4592C25.971 20.4077 26.0819 20.3323 26.1748 20.2375L29.7123 16.7125C29.9 16.5229 30.0054 16.2669 30.0054 16C30.0054 15.7332 29.9 15.4771 29.7123 15.2875V15.2875Z" fill="#49536E"/>
</svg>
