<svg width="32" height="32" viewBox="0 0 32 32" fill="none" xmlns="http://www.w3.org/2000/svg">
<path d="M29.0246 6.46247V12.4625C29.0246 12.7277 28.9193 12.982 28.7317 13.1696C28.5442 13.3571 28.2898 13.4625 28.0246 13.4625H22.0246C21.8278 13.4621 21.6355 13.4038 21.4717 13.2946C21.308 13.1855 21.18 13.0305 21.104 12.849C21.0279 12.6675 21.0071 12.4676 21.0441 12.2743C21.0811 12.0811 21.1744 11.903 21.3121 11.7625L23.6121 9.46247L23.0746 8.92497C21.1957 7.05331 18.6517 6.00243 15.9996 6.00243C13.3475 6.00243 10.8035 7.05331 8.92461 8.92497C8.83264 9.01908 8.72278 9.09386 8.6015 9.14492C8.48022 9.19598 8.34995 9.22228 8.21836 9.22228C8.08677 9.22228 7.9565 9.19598 7.83522 9.14492C7.71394 9.09386 7.60408 9.01908 7.51211 8.92497C7.3251 8.7375 7.22007 8.48352 7.22007 8.21872C7.22007 7.95392 7.3251 7.69994 7.51211 7.51247C9.76597 5.26679 12.8179 4.00586 15.9996 4.00586C19.1813 4.00586 22.2333 5.26679 24.4871 7.51247L25.0246 8.04997L27.3121 5.76247C27.4508 5.62169 27.6282 5.52518 27.8218 5.48513C28.0153 5.44509 28.2164 5.4633 28.3996 5.53747C28.582 5.61475 28.7382 5.74325 28.8491 5.90742C28.96 6.07158 29.021 6.26438 29.0246 6.46247ZM23.0746 23.075C21.1957 24.9466 18.6517 25.9975 15.9996 25.9975C13.3475 25.9975 10.8035 24.9466 8.92461 23.075L8.38711 22.5375L10.6871 20.2375C10.8249 20.0969 10.9181 19.9189 10.9551 19.7256C10.9921 19.5323 10.9713 19.3324 10.8952 19.1509C10.8192 18.9694 10.6912 18.8144 10.5275 18.7053C10.3637 18.5962 10.1714 18.5378 9.97461 18.5375H3.97461C3.70939 18.5375 3.45504 18.6428 3.2675 18.8304C3.07997 19.0179 2.97461 19.2723 2.97461 19.5375V25.5375C2.97824 25.7356 3.03921 25.9284 3.15013 26.0925C3.26106 26.2567 3.41718 26.3852 3.59961 26.4625C3.71862 26.5114 3.84595 26.5368 3.97461 26.5375C4.10755 26.5387 4.23934 26.5127 4.36186 26.4611C4.48439 26.4095 4.59508 26.3334 4.68711 26.2375L6.97461 23.95L7.51211 24.4875C9.76435 26.7362 12.8169 27.9992 15.9996 27.9992C19.1823 27.9992 22.2349 26.7362 24.4871 24.4875C24.6741 24.3 24.7791 24.046 24.7791 23.7812C24.7791 23.5164 24.6741 23.2624 24.4871 23.075C24.3951 22.9809 24.2853 22.9061 24.164 22.855C24.0427 22.804 23.9125 22.7777 23.7809 22.7777C23.6493 22.7777 23.519 22.804 23.3977 22.855C23.2764 22.9061 23.1666 22.9809 23.0746 23.075V23.075Z" fill="#49536E"/>
</svg>
