<svg width="32" height="32" viewBox="0 0 32 32" fill="none" xmlns="http://www.w3.org/2000/svg">
<path d="M28.9247 15.3875C28.8482 15.5695 28.7195 15.7248 28.5549 15.8338C28.3903 15.9428 28.1971 16.0006 27.9997 16H22.9997V26C22.9997 26.5304 22.789 27.0391 22.4139 27.4142C22.0388 27.7893 21.5301 28 20.9997 28H10.9997C10.4693 28 9.96057 27.7893 9.58549 27.4142C9.21042 27.0391 8.99971 26.5304 8.99971 26V16H3.99971C3.80228 16.0006 3.60909 15.9428 3.44448 15.8338C3.27987 15.7248 3.15121 15.5695 3.07471 15.3875C3.00266 15.2028 2.98439 15.0015 3.02199 14.8068C3.0596 14.6121 3.15155 14.4321 3.28721 14.2875L15.2872 2.28751C15.4768 2.09973 15.7329 1.99438 15.9997 1.99438C16.2666 1.99438 16.5226 2.09973 16.7122 2.28751L28.7122 14.2875C28.8479 14.4321 28.9398 14.6121 28.9774 14.8068C29.015 15.0015 28.9968 15.2028 28.9247 15.3875V15.3875Z" fill="#49536E"/>
</svg>
