<svg width="32" height="32" viewBox="0 0 32 32" fill="none" xmlns="http://www.w3.org/2000/svg">
<path d="M17.9998 13V7.99996C17.9991 7.80254 18.057 7.60935 18.166 7.44474C18.275 7.28013 18.4303 7.15146 18.6123 7.07496C18.797 7.00292 18.9983 6.98464 19.193 7.02225C19.3876 7.05985 19.5677 7.1518 19.7123 7.28746L21.4998 9.08746L25.2873 5.28746C25.4816 5.128 25.7282 5.04651 25.9793 5.05884C26.2303 5.07117 26.4678 5.17644 26.6456 5.35417C26.8233 5.53191 26.9286 5.7694 26.9409 6.02045C26.9532 6.2715 26.8717 6.51817 26.7123 6.71246L22.9123 10.5L24.7123 12.2875C24.8479 12.432 24.9399 12.6121 24.9775 12.8068C25.0151 13.0014 24.9968 13.2028 24.9248 13.3875C24.8483 13.5695 24.7196 13.7247 24.555 13.8337C24.3904 13.9427 24.1972 14.0006 23.9998 14H18.9998C18.7345 14 18.4802 13.8946 18.2927 13.7071C18.1051 13.5195 17.9998 13.2652 17.9998 13ZM12.9998 18H7.99977C7.80234 17.9993 7.60915 18.0572 7.44454 18.1662C7.27993 18.2752 7.15127 18.4305 7.07477 18.6125C7.00272 18.7972 6.98444 18.9985 7.02205 19.1932C7.05965 19.3878 7.15161 19.5679 7.28727 19.7125L9.08727 21.5L5.28727 25.2875C5.09948 25.4771 4.99414 25.7331 4.99414 26C4.99414 26.2668 5.09948 26.5229 5.28727 26.7125C5.47841 26.8973 5.73388 27.0006 5.99977 27.0006C6.26565 27.0006 6.52113 26.8973 6.71227 26.7125L10.4998 22.9125L12.2873 24.7125C12.4792 24.8959 12.7342 24.9988 12.9998 25C13.1325 24.9994 13.2639 24.9739 13.3873 24.925C13.5693 24.8485 13.7246 24.7198 13.8335 24.5552C13.9425 24.3906 14.0004 24.1974 13.9998 24V19C13.9998 18.7347 13.8944 18.4804 13.7069 18.2929C13.5193 18.1053 13.265 18 12.9998 18ZM22.9123 21.5L24.7123 19.7125C24.8479 19.5679 24.9399 19.3878 24.9775 19.1932C25.0151 18.9985 24.9968 18.7972 24.9248 18.6125C24.8483 18.4305 24.7196 18.2752 24.555 18.1662C24.3904 18.0572 24.1972 17.9993 23.9998 18H18.9998C18.7345 18 18.4802 18.1053 18.2927 18.2929C18.1051 18.4804 17.9998 18.7347 17.9998 19V24C17.9991 24.1974 18.057 24.3906 18.166 24.5552C18.275 24.7198 18.4303 24.8485 18.6123 24.925C18.7356 24.9739 18.867 24.9994 18.9998 25C19.2653 24.9988 19.5203 24.8959 19.7123 24.7125L21.4998 22.9125L25.2873 26.7125C25.4784 26.8973 25.7339 27.0006 25.9998 27.0006C26.2656 27.0006 26.5211 26.8973 26.7123 26.7125C26.9 26.5229 27.0054 26.2668 27.0054 26C27.0054 25.7331 26.9 25.4771 26.7123 25.2875L22.9123 21.5ZM13.3873 7.07496C13.2026 7.00292 13.0012 6.98464 12.8066 7.02225C12.6119 7.05985 12.4319 7.1518 12.2873 7.28746L10.4998 9.08746L6.71227 5.28746C6.51797 5.128 6.27131 5.04651 6.02025 5.05884C5.7692 5.07117 5.53171 5.17644 5.35398 5.35417C5.17624 5.53191 5.07097 5.7694 5.05864 6.02045C5.04631 6.2715 5.1278 6.51817 5.28727 6.71246L9.08727 10.5L7.28727 12.2875C7.15161 12.432 7.05965 12.6121 7.02205 12.8068C6.98444 13.0014 7.00272 13.2028 7.07477 13.3875C7.15127 13.5695 7.27993 13.7247 7.44454 13.8337C7.60915 13.9427 7.80234 14.0006 7.99977 14H12.9998C13.265 14 13.5193 13.8946 13.7069 13.7071C13.8944 13.5195 13.9998 13.2652 13.9998 13V7.99996C14.0004 7.80254 13.9425 7.60935 13.8335 7.44474C13.7246 7.28013 13.5693 7.15146 13.3873 7.07496V7.07496Z" fill="#49536E"/>
</svg>
