<svg width="32" height="32" viewBox="0 0 32 32" fill="none" xmlns="http://www.w3.org/2000/svg">
<path d="M27.7125 16.7125L18.7125 25.7125C18.5205 25.8959 18.2655 25.9988 18 26C17.8673 25.9994 17.7358 25.9739 17.6125 25.925C17.4305 25.8484 17.2752 25.7198 17.1662 25.5552C17.0572 25.3906 16.9994 25.1974 17 25V17H5C4.73478 17 4.48043 16.8946 4.29289 16.7071C4.10536 16.5195 4 16.2652 4 16C4 15.7347 4.10536 15.4804 4.29289 15.2928C4.48043 15.1053 4.73478 15 5 15H17V6.99995C16.9994 6.80253 17.0572 6.60934 17.1662 6.44473C17.2752 6.28012 17.4305 6.15145 17.6125 6.07495C17.7972 6.00291 17.9985 5.98463 18.1932 6.02223C18.3879 6.05984 18.5679 6.15179 18.7125 6.28745L27.7125 15.2875C27.9003 15.477 28.0056 15.7331 28.0056 16C28.0056 16.2668 27.9003 16.5229 27.7125 16.7125V16.7125Z" fill="#49536E"/>
</svg>
