<svg width="32" height="32" viewBox="0 0 32 32" fill="none" xmlns="http://www.w3.org/2000/svg">
<path d="M14.9247 21.6125C14.9968 21.7972 15.015 21.9986 14.9774 22.1932C14.9398 22.3879 14.8479 22.5679 14.7122 22.7125L10.7122 26.7125C10.5211 26.8973 10.2656 27.0006 9.99971 27.0006C9.73383 27.0006 9.47835 26.8973 9.28721 26.7125L5.28721 22.7125C5.15155 22.5679 5.0596 22.3879 5.02199 22.1932C4.98439 21.9986 5.00266 21.7972 5.07471 21.6125C5.15121 21.4305 5.27987 21.2752 5.44448 21.1662C5.60909 21.0572 5.80228 20.9994 5.99971 21H8.99971V6.00001C8.99971 5.73479 9.10506 5.48044 9.2926 5.2929C9.48014 5.10537 9.73449 5.00001 9.99971 5.00001C10.2649 5.00001 10.5193 5.10537 10.7068 5.2929C10.8944 5.48044 10.9997 5.73479 10.9997 6.00001V21H13.9997C14.1971 20.9994 14.3903 21.0572 14.5549 21.1662C14.7195 21.2752 14.8482 21.4305 14.9247 21.6125ZM26.7122 9.28751L22.7122 5.28751C22.5226 5.09973 22.2666 4.99438 21.9997 4.99438C21.7329 4.99438 21.4768 5.09973 21.2872 5.28751L17.2872 9.28751C17.1515 9.4321 17.0596 9.61214 17.022 9.8068C16.9844 10.0015 17.0027 10.2028 17.0747 10.3875C17.1512 10.5695 17.2799 10.7248 17.4445 10.8338C17.6091 10.9428 17.8023 11.0006 17.9997 11H20.9997V26C20.9997 26.2652 21.1051 26.5196 21.2926 26.7071C21.4801 26.8947 21.7345 27 21.9997 27C22.2649 27 22.5193 26.8947 22.7068 26.7071C22.8944 26.5196 22.9997 26.2652 22.9997 26V11H25.9997C26.1971 11.0006 26.3903 10.9428 26.5549 10.8338C26.7195 10.7248 26.8482 10.5695 26.9247 10.3875C26.9968 10.2028 27.015 10.0015 26.9774 9.8068C26.9398 9.61214 26.8479 9.4321 26.7122 9.28751V9.28751Z" fill="#49536E"/>
</svg>
