<svg width="32" height="32" viewBox="0 0 32 32" fill="none" xmlns="http://www.w3.org/2000/svg">
<path d="M20.9247 24.6125C20.9968 24.7972 21.015 24.9986 20.9774 25.1932C20.9398 25.3879 20.8479 25.5679 20.7122 25.7125L16.7122 29.7125C16.5211 29.8973 16.2656 30.0006 15.9997 30.0006C15.7338 30.0006 15.4783 29.8973 15.2872 29.7125L11.2872 25.7125C11.1515 25.5679 11.0596 25.3879 11.022 25.1932C10.9844 24.9986 11.0027 24.7972 11.0747 24.6125C11.1512 24.4305 11.2799 24.2752 11.4445 24.1662C11.6091 24.0572 11.8023 23.9994 11.9997 24H14.9997V8.00001H11.9997C11.8023 8.00063 11.6091 7.94279 11.4445 7.83379C11.2799 7.7248 11.1512 7.56951 11.0747 7.38751C11.0027 7.2028 10.9844 7.00147 11.022 6.8068C11.0596 6.61214 11.1515 6.4321 11.2872 6.28751L15.2872 2.28751C15.4768 2.09973 15.7329 1.99438 15.9997 1.99438C16.2666 1.99438 16.5226 2.09973 16.7122 2.28751L20.7122 6.28751C20.8479 6.4321 20.9398 6.61214 20.9774 6.8068C21.015 7.00147 20.9968 7.2028 20.9247 7.38751C20.8482 7.56951 20.7195 7.7248 20.5549 7.83379C20.3903 7.94279 20.1971 8.00063 19.9997 8.00001H16.9997V24H19.9997C20.1971 23.9994 20.3903 24.0572 20.5549 24.1662C20.7195 24.2752 20.8482 24.4305 20.9247 24.6125Z" fill="#49536E"/>
</svg>
