<svg width="32" height="32" viewBox="0 0 32 32" fill="none" xmlns="http://www.w3.org/2000/svg">
<path d="M16.6125 28.925C16.4305 28.8484 16.2752 28.7198 16.1662 28.5552C16.0572 28.3906 15.9994 28.1974 16 28V23H6C5.46957 23 4.96086 22.7892 4.58579 22.4142C4.21071 22.0391 4 21.5304 4 21V11C4 10.4695 4.21071 9.96081 4.58579 9.58574C4.96086 9.21067 5.46957 8.99995 6 8.99995H16V3.99995C15.9994 3.80253 16.0572 3.60934 16.1662 3.44473C16.2752 3.28012 16.4305 3.15145 16.6125 3.07495C16.7972 3.00291 16.9985 2.98463 17.1932 3.02223C17.3879 3.05984 17.5679 3.15179 17.7125 3.28745L29.7125 15.2875C29.9003 15.477 30.0056 15.7331 30.0056 16C30.0056 16.2668 29.9003 16.5229 29.7125 16.7125L17.7125 28.7125C17.5679 28.8481 17.3879 28.9401 17.1932 28.9777C16.9985 29.0153 16.7972 28.997 16.6125 28.925V28.925Z" fill="#49536E"/>
</svg>
