<svg width="32" height="32" viewBox="0 0 32 32" fill="none" xmlns="http://www.w3.org/2000/svg">
<path d="M28.9998 25C28.9998 25.2652 28.8944 25.5195 28.7069 25.7071C28.5193 25.8946 28.265 26 27.9998 26C27.7345 26 27.4802 25.8946 27.2927 25.7071C27.1051 25.5195 26.9998 25.2652 26.9998 25C26.9965 22.0836 25.8365 19.2876 23.7743 17.2254C21.7121 15.1632 18.9161 14.0033 15.9998 14H10.9998V19C11.0004 19.1974 10.9425 19.3906 10.8335 19.5552C10.7246 19.7198 10.5693 19.8484 10.3873 19.925C10.2639 19.9739 10.1325 19.9994 9.99977 20C9.73423 19.9988 9.47922 19.8959 9.28727 19.7125L3.28727 13.7125C3.09948 13.5229 2.99414 13.2668 2.99414 13C2.99414 12.7331 3.09948 12.477 3.28727 12.2875L9.28727 6.28745C9.43185 6.15179 9.61189 6.05984 9.80656 6.02223C10.0012 5.98463 10.2026 6.00291 10.3873 6.07495C10.5693 6.15145 10.7246 6.28012 10.8335 6.44473C10.9425 6.60934 11.0004 6.80253 10.9998 6.99995V12H15.9998C19.4455 12.0066 22.7483 13.3783 25.1849 15.8149C27.6214 18.2514 28.9932 21.5542 28.9998 25V25Z" fill="#49536E"/>
</svg>
