<svg width="32" height="32" viewBox="0 0 32 32" fill="none" xmlns="http://www.w3.org/2000/svg">
<path d="M25.9997 11V22C25.9997 22.2652 25.8944 22.5196 25.7068 22.7071C25.5193 22.8946 25.2649 23 24.9997 23C24.7345 23 24.4801 22.8946 24.2926 22.7071C24.1051 22.5196 23.9997 22.2652 23.9997 22V11C23.9997 9.4087 23.3676 7.88258 22.2423 6.75736C21.1171 5.63214 19.591 5 17.9997 5C16.4084 5 14.8823 5.63214 13.7571 6.75736C12.6318 7.88258 11.9997 9.4087 11.9997 11V21H16.9997C17.1971 20.9994 17.3903 21.0572 17.5549 21.1662C17.7195 21.2752 17.8482 21.4305 17.9247 21.6125C17.9968 21.7972 18.015 21.9985 17.9774 22.1932C17.9398 22.3879 17.8479 22.5679 17.7122 22.7125L11.7122 28.7125C11.5211 28.8973 11.2656 29.0006 10.9997 29.0006C10.7338 29.0006 10.4783 28.8973 10.2872 28.7125L4.28721 22.7125C4.15155 22.5679 4.0596 22.3879 4.02199 22.1932C3.98439 21.9985 4.00266 21.7972 4.07471 21.6125C4.15121 21.4305 4.27987 21.2752 4.44448 21.1662C4.60909 21.0572 4.80228 20.9994 4.99971 21H9.99971V11C9.99971 8.87827 10.8426 6.84344 12.3429 5.34315C13.8431 3.84285 15.878 3 17.9997 3C20.1214 3 22.1563 3.84285 23.6566 5.34315C25.1569 6.84344 25.9997 8.87827 25.9997 11V11Z" fill="#49536E"/>
</svg>
