<svg width="32" height="32" viewBox="0 0 32 32" fill="none" xmlns="http://www.w3.org/2000/svg">
<path d="M9.97461 13.4625H3.97461C3.70939 13.4625 3.45504 13.3571 3.2675 13.1696C3.07997 12.982 2.97461 12.7277 2.97461 12.4625V6.46247C2.97824 6.26438 3.03921 6.07158 3.15013 5.90742C3.26106 5.74325 3.41718 5.61475 3.59961 5.53747C3.78282 5.4633 3.98391 5.44509 4.17746 5.48513C4.37102 5.52518 4.54837 5.62169 4.68711 5.76247L6.97461 8.04997L7.51211 7.51247C9.76597 5.26679 12.8179 4.00586 15.9996 4.00586C19.1813 4.00586 22.2333 5.26679 24.4871 7.51247C24.6741 7.69994 24.7791 7.95392 24.7791 8.21872C24.7791 8.48352 24.6741 8.7375 24.4871 8.92497C24.3951 9.01908 24.2853 9.09386 24.164 9.14492C24.0427 9.19598 23.9125 9.22228 23.7809 9.22228C23.6493 9.22228 23.519 9.19598 23.3977 9.14492C23.2764 9.09386 23.1666 9.01908 23.0746 8.92497C21.1957 7.05331 18.6517 6.00243 15.9996 6.00243C13.3475 6.00243 10.8035 7.05331 8.92461 8.92497L8.38711 9.46247L10.6871 11.7625C10.8249 11.903 10.9181 12.0811 10.9551 12.2743C10.9921 12.4676 10.9713 12.6675 10.8952 12.849C10.8192 13.0305 10.6912 13.1855 10.5275 13.2946C10.3637 13.4038 10.1714 13.4621 9.97461 13.4625V13.4625ZM28.0246 18.5375H22.0246C21.8278 18.5378 21.6355 18.5962 21.4717 18.7053C21.308 18.8144 21.18 18.9694 21.104 19.1509C21.0279 19.3324 21.0071 19.5323 21.0441 19.7256C21.0811 19.9189 21.1744 20.0969 21.3121 20.2375L23.6121 22.5375L23.0746 23.075C21.1957 24.9466 18.6517 25.9975 15.9996 25.9975C13.3475 25.9975 10.8035 24.9466 8.92461 23.075C8.83264 22.9809 8.72278 22.9061 8.6015 22.855C8.48022 22.804 8.34995 22.7777 8.21836 22.7777C8.08677 22.7777 7.9565 22.804 7.83522 22.855C7.71394 22.9061 7.60408 22.9809 7.51211 23.075C7.3251 23.2624 7.22007 23.5164 7.22007 23.7812C7.22007 24.046 7.3251 24.3 7.51211 24.4875C9.76435 26.7362 12.8169 27.9992 15.9996 27.9992C19.1823 27.9992 22.2349 26.7362 24.4871 24.4875L25.0246 23.95L27.3121 26.2375C27.4041 26.3334 27.5148 26.4095 27.6374 26.4611C27.7599 26.5127 27.8917 26.5387 28.0246 26.5375C28.1533 26.5368 28.2806 26.5114 28.3996 26.4625C28.582 26.3852 28.7382 26.2567 28.8491 26.0925C28.96 25.9284 29.021 25.7356 29.0246 25.5375V19.5375C29.0246 19.4061 28.9987 19.2761 28.9485 19.1548C28.8982 19.0335 28.8246 18.9232 28.7317 18.8304C28.6389 18.7375 28.5286 18.6638 28.4073 18.6136C28.286 18.5633 28.1559 18.5375 28.0246 18.5375Z" fill="#49536E"/>
</svg>
