<svg width="32" height="32" viewBox="0 0 32 32" fill="none" xmlns="http://www.w3.org/2000/svg">
<path d="M28.9997 8C28.9997 8.26522 28.8944 8.51957 28.7068 8.70711C28.5193 8.89464 28.2649 9 27.9997 9H10.9997V19H15.9997C16.1971 18.9994 16.3903 19.0572 16.5549 19.1662C16.7195 19.2752 16.8482 19.4305 16.9247 19.6125C16.9968 19.7972 17.015 19.9985 16.9774 20.1932C16.9398 20.3879 16.8479 20.5679 16.7122 20.7125L10.7122 26.7125C10.5211 26.8973 10.2656 27.0006 9.99971 27.0006C9.73383 27.0006 9.47835 26.8973 9.28721 26.7125L3.28721 20.7125C3.15155 20.5679 3.0596 20.3879 3.02199 20.1932C2.98439 19.9985 3.00266 19.7972 3.07471 19.6125C3.15121 19.4305 3.27987 19.2752 3.44448 19.1662C3.60909 19.0572 3.80228 18.9994 3.99971 19H8.99971V8C8.99971 7.73478 9.10506 7.48043 9.2926 7.29289C9.48014 7.10536 9.73449 7 9.99971 7H27.9997C28.2649 7 28.5193 7.10536 28.7068 7.29289C28.8944 7.48043 28.9997 7.73478 28.9997 8Z" fill="#49536E"/>
</svg>
