<svg width="32" height="32" viewBox="0 0 32 32" fill="none" xmlns="http://www.w3.org/2000/svg">
<path d="M27.9998 16C27.9998 16.2652 27.8944 16.5195 27.7069 16.7071C27.5193 16.8946 27.265 17 26.9998 17H14.9998V25C15.0004 25.1974 14.9425 25.3906 14.8335 25.5552C14.7246 25.7198 14.5693 25.8484 14.3873 25.925C14.2639 25.9739 14.1325 25.9994 13.9998 26C13.7342 25.9988 13.4792 25.8959 13.2873 25.7125L4.28727 16.7125C4.09948 16.5229 3.99414 16.2668 3.99414 16C3.99414 15.7331 4.09948 15.477 4.28727 15.2875L13.2873 6.28745C13.4319 6.15179 13.6119 6.05984 13.8066 6.02223C14.0012 5.98463 14.2026 6.00291 14.3873 6.07495C14.5693 6.15145 14.7246 6.28012 14.8335 6.44473C14.9425 6.60934 15.0004 6.80253 14.9998 6.99995V15H26.9998C27.265 15 27.5193 15.1053 27.7069 15.2928C27.8944 15.4804 27.9998 15.7347 27.9998 16Z" fill="#49536E"/>
</svg>
