<svg width="32" height="32" viewBox="0 0 32 32" fill="none" xmlns="http://www.w3.org/2000/svg">
<path d="M25.9997 4C25.9997 4.26522 25.8944 4.51957 25.7068 4.70711C25.5193 4.89464 25.2649 5 24.9997 5C22.0833 5.00331 19.2874 6.1633 17.2252 8.22548C15.163 10.2877 14.003 13.0836 13.9997 16V21H18.9997C19.1971 20.9994 19.3903 21.0572 19.5549 21.1662C19.7195 21.2752 19.8482 21.4305 19.9247 21.6125C19.9968 21.7972 20.015 21.9985 19.9774 22.1932C19.9398 22.3879 19.8479 22.5679 19.7122 22.7125L13.7122 28.7125C13.5211 28.8973 13.2656 29.0006 12.9997 29.0006C12.7338 29.0006 12.4783 28.8973 12.2872 28.7125L6.28721 22.7125C6.15155 22.5679 6.0596 22.3879 6.02199 22.1932C5.98439 21.9985 6.00266 21.7972 6.07471 21.6125C6.15121 21.4305 6.27987 21.2752 6.44448 21.1662C6.60909 21.0572 6.80228 20.9994 6.99971 21H11.9997V16C12.0063 12.5542 13.3781 9.25145 15.8146 6.81491C18.2512 4.37837 21.5539 3.00661 24.9997 3C25.2649 3 25.5193 3.10536 25.7068 3.29289C25.8944 3.48043 25.9997 3.73478 25.9997 4Z" fill="#49536E"/>
</svg>
