<svg width="32" height="32" viewBox="0 0 32 32" fill="none" xmlns="http://www.w3.org/2000/svg">
<path d="M28.9998 14C28.9965 16.1207 28.1525 18.1536 26.653 19.6532C25.1534 21.1528 23.1205 21.9967 20.9998 22H10.9998V27C11.0004 27.1974 10.9425 27.3906 10.8335 27.5552C10.7246 27.7198 10.5693 27.8485 10.3873 27.925C10.2639 27.974 10.1325 27.9994 9.99977 28C9.73423 27.9989 9.47922 27.896 9.28727 27.7125L3.28727 21.7125C3.09948 21.5229 2.99414 21.2668 2.99414 21C2.99414 20.7332 3.09948 20.4771 3.28727 20.2875L9.28727 14.2875C9.43185 14.1518 9.61189 14.0599 9.80656 14.0223C10.0012 13.9847 10.2026 14.003 10.3873 14.075C10.5693 14.1515 10.7246 14.2802 10.8335 14.4448C10.9425 14.6094 11.0004 14.8026 10.9998 15V20H20.9998C22.5911 20 24.1172 19.3679 25.2424 18.2426C26.3676 17.1174 26.9998 15.5913 26.9998 14C26.9998 12.4087 26.3676 10.8826 25.2424 9.75736C24.1172 8.63214 22.5911 8 20.9998 8H9.99977C9.73455 8 9.4802 7.89464 9.29266 7.70711C9.10512 7.51957 8.99977 7.26522 8.99977 7C8.99977 6.73478 9.10512 6.48043 9.29266 6.29289C9.4802 6.10536 9.73455 6 9.99977 6H20.9998C23.1205 6.00331 25.1534 6.84722 26.653 8.3468C28.1525 9.84637 28.9965 11.8793 28.9998 14V14Z" fill="#49536E"/>
</svg>
