<svg width="32" height="32" viewBox="0 0 32 32" fill="none" xmlns="http://www.w3.org/2000/svg">
<path d="M28.9998 18C28.9965 20.1207 28.1525 22.1536 26.653 23.6532C25.1534 25.1527 23.1205 25.9966 20.9998 26H9.99977C9.73455 26 9.4802 25.8946 9.29266 25.7071C9.10512 25.5195 8.99977 25.2652 8.99977 25C8.99977 24.7347 9.10512 24.4804 9.29266 24.2928C9.4802 24.1053 9.73455 24 9.99977 24H20.9998C22.5911 24 24.1172 23.3678 25.2424 22.2426C26.3676 21.1174 26.9998 19.5913 26.9998 18C26.9998 16.4087 26.3676 14.8825 25.2424 13.7573C24.1172 12.6321 22.5911 12 20.9998 12H10.9998V17C11.0004 17.1974 10.9425 17.3906 10.8335 17.5552C10.7246 17.7198 10.5693 17.8484 10.3873 17.925C10.2639 17.9739 10.1325 17.9994 9.99977 18C9.73423 17.9988 9.47922 17.8959 9.28727 17.7125L3.28727 11.7125C3.09948 11.5229 2.99414 11.2668 2.99414 11C2.99414 10.7331 3.09948 10.477 3.28727 10.2875L9.28727 4.28745C9.43185 4.15179 9.61189 4.05984 9.80656 4.02223C10.0012 3.98463 10.2026 4.00291 10.3873 4.07495C10.5693 4.15145 10.7246 4.28012 10.8335 4.44473C10.9425 4.60934 11.0004 4.80253 10.9998 4.99995V9.99995H20.9998C23.1205 10.0033 25.1534 10.8472 26.653 12.3467C28.1525 13.8463 28.9965 15.8792 28.9998 18V18Z" fill="#49536E"/>
</svg>
