<svg width="32" height="32" viewBox="0 0 32 32" fill="none" xmlns="http://www.w3.org/2000/svg">
<path d="M25.7122 18.7125L16.7122 27.7125C16.5211 27.8973 16.2656 28.0006 15.9997 28.0006C15.7338 28.0006 15.4783 27.8973 15.2872 27.7125L6.28721 18.7125C6.15155 18.5679 6.0596 18.3879 6.02199 18.1932C5.98439 17.9985 6.00266 17.7972 6.07471 17.6125C6.15121 17.4305 6.27987 17.2752 6.44448 17.1662C6.60909 17.0572 6.80228 16.9994 6.99971 17H14.9997V5C14.9997 4.73478 15.1051 4.48043 15.2926 4.29289C15.4801 4.10536 15.7345 4 15.9997 4C16.2649 4 16.5193 4.10536 16.7068 4.29289C16.8944 4.48043 16.9997 4.73478 16.9997 5V17H24.9997C25.1971 16.9994 25.3903 17.0572 25.5549 17.1662C25.7195 17.2752 25.8482 17.4305 25.9247 17.6125C25.9968 17.7972 26.015 17.9985 25.9774 18.1932C25.9398 18.3879 25.8479 18.5679 25.7122 18.7125Z" fill="#49536E"/>
</svg>
