<svg width="32" height="32" viewBox="0 0 32 32" fill="none" xmlns="http://www.w3.org/2000/svg">
<path d="M16.9998 5V27C16.9998 27.2652 16.8944 27.5196 16.7069 27.7071C16.5193 27.8946 16.265 28 15.9998 28C15.7345 28 15.4802 27.8946 15.2927 27.7071C15.1051 27.5196 14.9998 27.2652 14.9998 27V5C14.9998 4.73478 15.1051 4.48043 15.2927 4.29289C15.4802 4.10536 15.7345 4 15.9998 4C16.265 4 16.5193 4.10536 16.7069 4.29289C16.8944 4.48043 16.9998 4.73478 16.9998 5ZM11.9998 15H6.99977V12C7.00038 11.8026 6.94255 11.6094 6.83355 11.4448C6.72455 11.2802 6.56927 11.1515 6.38727 11.075C6.20256 11.003 6.00122 10.9847 5.80656 11.0223C5.61189 11.0599 5.43185 11.1518 5.28727 11.2875L1.28727 15.2875C1.09948 15.4771 0.994141 15.7332 0.994141 16C0.994141 16.2668 1.09948 16.5229 1.28727 16.7125L5.28727 20.7125C5.47922 20.896 5.73423 20.9989 5.99977 21C6.13248 20.9994 6.26392 20.974 6.38727 20.925C6.56927 20.8485 6.72455 20.7198 6.83355 20.5552C6.94255 20.3906 7.00038 20.1974 6.99977 20V17H11.9998C12.265 17 12.5193 16.8946 12.7069 16.7071C12.8944 16.5196 12.9998 16.2652 12.9998 16C12.9998 15.7348 12.8944 15.4804 12.7069 15.2929C12.5193 15.1054 12.265 15 11.9998 15ZM30.7123 15.2875L26.7123 11.2875C26.5677 11.1518 26.3876 11.0599 26.193 11.0223C25.9983 10.9847 25.797 11.003 25.6123 11.075C25.4303 11.1515 25.275 11.2802 25.166 11.4448C25.057 11.6094 24.9991 11.8026 24.9998 12V15H19.9998C19.7345 15 19.4802 15.1054 19.2927 15.2929C19.1051 15.4804 18.9998 15.7348 18.9998 16C18.9998 16.2652 19.1051 16.5196 19.2927 16.7071C19.4802 16.8946 19.7345 17 19.9998 17H24.9998V20C24.9991 20.1974 25.057 20.3906 25.166 20.5552C25.275 20.7198 25.4303 20.8485 25.6123 20.925C25.7356 20.974 25.867 20.9994 25.9998 21C26.2653 20.9989 26.5203 20.896 26.7123 20.7125L30.7123 16.7125C30.9 16.5229 31.0054 16.2668 31.0054 16C31.0054 15.7332 30.9 15.4771 30.7123 15.2875V15.2875Z" fill="#49536E"/>
</svg>
