<svg width="32" height="32" viewBox="0 0 32 32" fill="none" xmlns="http://www.w3.org/2000/svg">
<path d="M28.9997 24C28.9997 24.2652 28.8944 24.5196 28.7068 24.7071C28.5193 24.8947 28.2649 25 27.9997 25H9.99971C9.73449 25 9.48014 24.8947 9.2926 24.7071C9.10506 24.5196 8.99971 24.2652 8.99971 24V13H3.99971C3.80228 13.0006 3.60909 12.9428 3.44448 12.8338C3.27987 12.7248 3.15121 12.5695 3.07471 12.3875C3.00266 12.2028 2.98439 12.0015 3.02199 11.8068C3.0596 11.6121 3.15155 11.4321 3.28721 11.2875L9.28721 5.28751C9.4768 5.09973 9.73286 4.99438 9.99971 4.99438C10.2666 4.99438 10.5226 5.09973 10.7122 5.28751L16.7122 11.2875C16.8479 11.4321 16.9398 11.6121 16.9774 11.8068C17.015 12.0015 16.9968 12.2028 16.9247 12.3875C16.8482 12.5695 16.7195 12.7248 16.5549 12.8338C16.3903 12.9428 16.1971 13.0006 15.9997 13H10.9997V23H27.9997C28.2649 23 28.5193 23.1054 28.7068 23.2929C28.8944 23.4804 28.9997 23.7348 28.9997 24Z" fill="#49536E"/>
</svg>
