<svg width="32" height="32" viewBox="0 0 32 32" fill="none" xmlns="http://www.w3.org/2000/svg">
<path d="M24.4871 24.4875C22.2349 26.7362 19.1823 27.9992 15.9996 27.9992C12.8169 27.9992 9.76435 26.7362 7.51211 24.4875C7.3251 24.3 7.22007 24.046 7.22007 23.7812C7.22007 23.5164 7.3251 23.2624 7.51211 23.075C7.60408 22.9809 7.71394 22.9061 7.83522 22.855C7.9565 22.804 8.08677 22.7777 8.21836 22.7777C8.34995 22.7777 8.48022 22.804 8.6015 22.855C8.72278 22.9061 8.83264 22.9809 8.92461 23.075C10.3236 24.4724 12.1054 25.4237 14.0449 25.8086C15.9844 26.1936 17.9945 25.9949 19.8211 25.2377C21.6478 24.4805 23.2089 23.1988 24.3072 21.5545C25.4055 19.9103 25.9917 17.9773 25.9917 16C25.9917 14.0226 25.4055 12.0897 24.3072 10.4454C23.2089 8.80117 21.6478 7.51944 19.8211 6.76223C17.9945 6.00503 15.9844 5.80635 14.0449 6.1913C12.1054 6.57625 10.3236 7.52755 8.92461 8.92496L8.38711 9.46246L10.6871 11.7625C10.8249 11.903 10.9181 12.0811 10.9551 12.2743C10.9921 12.4676 10.9713 12.6675 10.8952 12.849C10.8192 13.0305 10.6912 13.1855 10.5275 13.2946C10.3637 13.4038 10.1714 13.4621 9.97461 13.4625H3.97461C3.70939 13.4625 3.45504 13.3571 3.2675 13.1696C3.07997 12.982 2.97461 12.7277 2.97461 12.4625V6.46246C2.97824 6.26437 3.03921 6.07158 3.15013 5.90741C3.26106 5.74325 3.41718 5.61475 3.59961 5.53746C3.78282 5.46329 3.98391 5.44508 4.17746 5.48513C4.37102 5.52517 4.54837 5.62168 4.68711 5.76246L6.97461 8.04996L7.51211 7.51246C9.76313 5.26144 12.8162 3.99683 15.9996 3.99683C19.183 3.99683 22.2361 5.26144 24.4871 7.51246C26.7381 9.76349 28.0027 12.8165 28.0027 16C28.0027 19.1834 26.7381 22.2364 24.4871 24.4875V24.4875Z" fill="#49536E"/>
</svg>
