<svg width="32" height="32" viewBox="0 0 32 32" fill="none" xmlns="http://www.w3.org/2000/svg">
<path d="M29.7123 16.7125L25.7123 20.7125C25.5203 20.8959 25.2653 20.9988 24.9998 21C24.867 20.9994 24.7356 20.9739 24.6123 20.925C24.4303 20.8484 24.275 20.7198 24.166 20.5552C24.057 20.3906 23.9991 20.1974 23.9998 20V17H7.99977V20C8.00038 20.1974 7.94255 20.3906 7.83355 20.5552C7.72455 20.7198 7.56927 20.8484 7.38727 20.925C7.26392 20.9739 7.13248 20.9994 6.99977 21C6.73423 20.9988 6.47922 20.8959 6.28727 20.7125L2.28727 16.7125C2.09948 16.5229 1.99414 16.2668 1.99414 16C1.99414 15.7331 2.09948 15.477 2.28727 15.2875L6.28727 11.2875C6.43185 11.1518 6.61189 11.0598 6.80656 11.0222C7.00122 10.9846 7.20256 11.0029 7.38727 11.075C7.56927 11.1515 7.72455 11.2801 7.83355 11.4447C7.94255 11.6093 8.00038 11.8025 7.99977 12V15H23.9998V12C23.9991 11.8025 24.057 11.6093 24.166 11.4447C24.275 11.2801 24.4303 11.1515 24.6123 11.075C24.797 11.0029 24.9983 10.9846 25.193 11.0222C25.3876 11.0598 25.5677 11.1518 25.7123 11.2875L29.7123 15.2875C29.9 15.477 30.0054 15.7331 30.0054 16C30.0054 16.2668 29.9 16.5229 29.7123 16.7125V16.7125Z" fill="#49536E"/>
</svg>
