<svg width="32" height="32" viewBox="0 0 32 32" fill="none" xmlns="http://www.w3.org/2000/svg">
<path d="M18.9996 13C18.9996 12.7348 19.105 12.4804 19.2925 12.2929C19.4801 12.1054 19.7344 12 19.9996 12H29.9996C30.2648 12 30.5192 12.1054 30.7067 12.2929C30.8943 12.4804 30.9996 12.7348 30.9996 13C30.9996 13.2652 30.8943 13.5196 30.7067 13.7071C30.5192 13.8946 30.2648 14 29.9996 14H19.9996C19.7344 14 19.4801 13.8946 19.2925 13.7071C19.105 13.5196 18.9996 13.2652 18.9996 13ZM29.9996 16H19.9996C19.7344 16 19.4801 16.1054 19.2925 16.2929C19.105 16.4804 18.9996 16.7348 18.9996 17C18.9996 17.2652 19.105 17.5196 19.2925 17.7071C19.4801 17.8947 19.7344 18 19.9996 18H29.9996C30.2648 18 30.5192 17.8947 30.7067 17.7071C30.8943 17.5196 30.9996 17.2652 30.9996 17C30.9996 16.7348 30.8943 16.4804 30.7067 16.2929C30.5192 16.1054 30.2648 16 29.9996 16ZM29.9996 20H19.9996C19.7344 20 19.4801 20.1054 19.2925 20.2929C19.105 20.4804 18.9996 20.7348 18.9996 21C18.9996 21.2652 19.105 21.5196 19.2925 21.7071C19.4801 21.8946 19.7344 22 19.9996 22H29.9996C30.2648 22 30.5192 21.8946 30.7067 21.7071C30.8943 21.5196 30.9996 21.2652 30.9996 21C30.9996 20.7348 30.8943 20.4804 30.7067 20.2929C30.5192 20.1054 30.2648 20 29.9996 20ZM29.9996 24H8.99963C8.73441 24 8.48006 24.1054 8.29252 24.2929C8.10499 24.4804 7.99963 24.7348 7.99963 25C7.99963 25.2652 8.10499 25.5196 8.29252 25.7071C8.48006 25.8946 8.73441 26 8.99963 26H29.9996C30.2648 26 30.5192 25.8946 30.7067 25.7071C30.8943 25.5196 30.9996 25.2652 30.9996 25C30.9996 24.7348 30.8943 24.4804 30.7067 24.2929C30.5192 24.1054 30.2648 24 29.9996 24ZM9.98713 22C8.78049 22.0026 7.59374 21.6927 6.54244 21.1004C5.49115 20.5082 4.61114 19.6538 3.9881 18.6204C3.36507 17.5871 3.02025 16.41 2.98722 15.2038C2.95419 13.9976 3.23408 12.8034 3.79963 11.7375C3.23145 11.2849 2.8182 10.6667 2.61716 9.96859C2.41613 9.27053 2.43728 8.52721 2.67769 7.84171C2.91809 7.15621 3.36584 6.5625 3.95884 6.1429C4.55183 5.72331 5.2607 5.49862 5.98713 5.50001C6.17672 5.49933 6.36278 5.55126 6.52463 5.65001L14.2496 10.475C14.6167 10.4072 14.9453 10.2049 15.1712 9.9078C15.3971 9.61066 15.5041 9.23996 15.4713 8.86813C15.4385 8.49631 15.2682 8.15007 14.9938 7.89708C14.7193 7.64408 14.3604 7.5025 13.9871 7.50001C13.7219 7.50001 13.4676 7.39465 13.28 7.20711C13.0925 7.01958 12.9871 6.76522 12.9871 6.50001C12.9871 6.23479 13.0925 5.98044 13.28 5.7929C13.4676 5.60536 13.7219 5.50001 13.9871 5.50001C14.9154 5.50001 15.8056 5.86876 16.462 6.52513C17.1184 7.18151 17.4871 8.07175 17.4871 9.00001C17.4871 9.92826 17.1184 10.8185 16.462 11.4749C15.8056 12.1313 14.9154 12.5 13.9871 12.5C13.8015 12.5003 13.6196 12.4484 13.4621 12.35L9.71213 10.0125C8.50139 10.0828 7.35749 10.5908 6.49344 11.4418C5.6294 12.2929 5.10412 13.4289 5.01543 14.6385C4.92674 15.848 5.28069 17.0485 6.01136 18.0165C6.74203 18.9844 7.7996 19.6538 8.98713 19.9V14.3125C8.98713 14.0473 9.09249 13.7929 9.28002 13.6054C9.46756 13.4179 9.72191 13.3125 9.98713 13.3125V13.3125C10.2523 13.3125 10.5067 13.4179 10.6942 13.6054C10.8818 13.7929 10.9871 14.0473 10.9871 14.3125V19.9C11.9136 19.7133 12.7683 19.2677 13.4519 18.6151C14.1355 17.9624 14.6202 17.1294 14.8496 16.2125C14.8804 16.0858 14.9359 15.9665 15.0129 15.8614C15.09 15.7563 15.1871 15.6675 15.2986 15.6001C15.4102 15.5327 15.534 15.4881 15.6629 15.4687C15.7918 15.4494 15.9232 15.4558 16.0496 15.4875C16.306 15.5498 16.5274 15.7109 16.6655 15.9356C16.8036 16.1604 16.8474 16.4306 16.7871 16.6875C16.4101 18.2054 15.5356 19.5533 14.3031 20.5162C13.0706 21.4791 11.5512 22.0014 9.98713 22ZM4.98713 10.1125C5.65462 9.42935 6.45419 8.88922 7.33713 8.52501L5.73713 7.52501C5.38829 7.58397 5.07151 7.76434 4.84278 8.03424C4.61405 8.30415 4.48808 8.64622 4.48713 9.00001C4.48632 9.21037 4.53051 9.41848 4.61675 9.61036C4.70299 9.80224 4.82927 9.97345 4.98713 10.1125Z" fill="#49536E"/>
</svg>
