<svg width="32" height="32" viewBox="0 0 32 32" fill="none" xmlns="http://www.w3.org/2000/svg">
<path d="M26.7747 13.55L17.6122 16.525L23.2747 24.3125C23.363 24.4175 23.4287 24.5395 23.4678 24.671C23.5069 24.8025 23.5185 24.9406 23.5019 25.0767C23.4854 25.2129 23.441 25.3442 23.3715 25.4624C23.3021 25.5807 23.209 25.6834 23.0982 25.7642C22.9873 25.845 22.861 25.9021 22.7272 25.932C22.5933 25.9619 22.4547 25.9639 22.32 25.938C22.1854 25.912 22.0575 25.8586 21.9443 25.7811C21.8311 25.7036 21.7351 25.6037 21.6622 25.4875L15.9997 17.7L10.3372 25.4875C10.2643 25.6037 10.1683 25.7036 10.0551 25.7811C9.94192 25.8586 9.81402 25.912 9.67934 25.938C9.54465 25.9639 9.40607 25.9619 9.2722 25.932C9.13834 25.9021 9.01205 25.845 8.9012 25.7642C8.79035 25.6834 8.6973 25.5807 8.62783 25.4624C8.55837 25.3442 8.51398 25.2129 8.49743 25.0767C8.48087 24.9406 8.4925 24.8025 8.5316 24.671C8.5707 24.5395 8.63642 24.4175 8.72469 24.3125L14.3872 16.525L5.22469 13.55C4.97273 13.4671 4.76402 13.2875 4.64447 13.0508C4.52491 12.814 4.50431 12.5395 4.58719 12.2875C4.67007 12.0355 4.84964 11.8268 5.08641 11.7073C5.32317 11.5877 5.59773 11.5671 5.84969 11.65L14.9997 14.625V5C14.9997 4.73478 15.105 4.48043 15.2926 4.29289C15.4801 4.10536 15.7345 4 15.9997 4C16.2649 4 16.5193 4.10536 16.7068 4.29289C16.8943 4.48043 16.9997 4.73478 16.9997 5V14.625L26.1497 11.65C26.4016 11.5671 26.6762 11.5877 26.913 11.7073C27.1497 11.8268 27.3293 12.0355 27.4122 12.2875C27.4951 12.5395 27.4745 12.814 27.3549 13.0508C27.2354 13.2875 27.0266 13.4671 26.7747 13.55V13.55Z" fill="#49536E"/>
</svg>
