<svg width="32" height="32" viewBox="0 0 32 32" fill="none" xmlns="http://www.w3.org/2000/svg">
<path d="M26.0263 20.6375L18.0013 16L26.0263 11.3625C26.1506 11.3029 26.2613 11.2182 26.3513 11.1137C26.4414 11.0092 26.5088 10.8873 26.5494 10.7555C26.5901 10.6237 26.603 10.485 26.5874 10.348C26.5719 10.2109 26.5281 10.0786 26.459 9.95932C26.3898 9.84002 26.2967 9.73631 26.1856 9.65471C26.0744 9.57311 25.9476 9.51538 25.813 9.48516C25.6785 9.45494 25.5391 9.45287 25.4037 9.47909C25.2683 9.5053 25.1398 9.55924 25.0263 9.6375L17.0013 14.2625V5C17.0013 4.73478 16.896 4.48043 16.7084 4.29289C16.5209 4.10536 16.2665 4 16.0013 4C15.7361 4 15.4817 4.10536 15.2942 4.29289C15.1067 4.48043 15.0013 4.73478 15.0013 5V14.2625L6.97631 9.6375C6.74936 9.52865 6.48971 9.50938 6.24918 9.58355C6.00865 9.65772 5.80494 9.81986 5.6787 10.0376C5.55247 10.2554 5.51299 10.5127 5.56815 10.7583C5.62332 11.0039 5.76907 11.2196 5.97631 11.3625L14.0013 16L5.97631 20.6375C5.74818 20.7707 5.58201 20.9887 5.51409 21.244C5.44617 21.4993 5.48202 21.7711 5.61381 22C5.69822 22.1541 5.82323 22.2822 5.97528 22.3704C6.12732 22.4585 6.30059 22.5033 6.47631 22.5C6.65276 22.5035 6.82644 22.4557 6.97631 22.3625L15.0013 17.7375V27C15.0013 27.2652 15.1067 27.5196 15.2942 27.7071C15.4817 27.8946 15.7361 28 16.0013 28C16.2665 28 16.5209 27.8946 16.7084 27.7071C16.896 27.5196 17.0013 27.2652 17.0013 27V17.7375L25.0263 22.3625C25.1762 22.4557 25.3498 22.5035 25.5263 22.5C25.702 22.5033 25.8753 22.4585 26.0273 22.3704C26.1794 22.2822 26.3044 22.1541 26.3888 22C26.5206 21.7711 26.5564 21.4993 26.4885 21.244C26.4206 20.9887 26.2544 20.7707 26.0263 20.6375Z" fill="#49536E"/>
</svg>
