<svg width="32" height="32" viewBox="0 0 32 32" fill="none" xmlns="http://www.w3.org/2000/svg">
<path d="M15.9991 3C14.2494 3.00207 12.5182 3.35696 10.9089 4.04344C9.29956 4.72992 7.8452 5.73389 6.63278 6.99532C5.42036 8.25675 4.47477 9.74974 3.85257 11.385C3.23037 13.0202 2.94433 14.7642 3.01156 16.5125C3.27406 23.35 8.88656 28.8625 15.7366 29C18.032 29.0447 20.2984 28.4807 22.3052 27.3653C24.312 26.25 25.9876 24.623 27.1616 22.65C27.2107 22.568 27.2353 22.4736 27.2325 22.3781C27.2296 22.2825 27.1995 22.1898 27.1455 22.1109C27.0916 22.0319 27.0162 21.9701 26.9282 21.9327C26.8402 21.8954 26.7433 21.884 26.6491 21.9C26.2694 21.967 25.8846 22.0005 25.4991 22C23.2116 22 21.9366 21 21.2616 20.1625C21.1057 19.9642 20.9637 19.7554 20.8366 19.5375C20.2314 20.3665 19.4237 21.0265 18.4907 21.4542C17.5576 21.8819 16.5305 22.0631 15.5074 21.9805C14.4843 21.8979 13.4996 21.5542 12.6472 20.9823C11.7949 20.4105 11.1036 19.6295 10.6393 18.7141C10.175 17.7987 9.95328 16.7795 9.99537 15.754C10.0375 14.7284 10.3419 13.7308 10.8797 12.8566C11.4174 11.9823 12.1704 11.2606 13.0667 10.7605C13.963 10.2603 14.9727 9.9985 15.9991 10C17.4775 9.99549 18.9043 10.5439 19.9991 11.5375V11.0375C19.995 10.778 20.0894 10.5266 20.2634 10.3341C20.4374 10.1415 20.678 10.0221 20.9366 10C21.073 9.99145 21.2098 10.011 21.3385 10.0574C21.4671 10.1038 21.5848 10.1761 21.6844 10.2698C21.784 10.3636 21.8633 10.4767 21.9174 10.6023C21.9715 10.7279 21.9993 10.8632 21.9991 11V16C21.9991 17.825 22.6116 20 25.4991 20C28.3866 20 28.9491 17.975 28.9991 16.1875V16C28.9958 12.5532 27.6251 9.24852 25.1878 6.81127C22.7505 4.37401 19.4459 3.00331 15.9991 3V3Z" fill="#49536E"/>
<path d="M16 20C18.2091 20 20 18.2091 20 16C20 13.7909 18.2091 12 16 12C13.7909 12 12 13.7909 12 16C12 18.2091 13.7909 20 16 20Z" fill="#49536E"/>
</svg>
