<svg width="32" height="32" viewBox="0 0 32 32" fill="none" xmlns="http://www.w3.org/2000/svg">
<path d="M24.5119 15.9999C25.4425 14.7185 26.2463 13.3496 26.9119 11.9124C28.2994 8.83744 28.3119 6.38744 26.9619 5.03744C24.7744 2.86244 20.3119 4.42494 15.9994 7.49994C11.6869 4.42494 7.22435 2.86244 5.03685 5.03744C3.68685 6.38744 3.69935 8.83744 5.08685 11.9124C5.75237 13.3496 6.55616 14.7185 7.48685 15.9999C6.55616 17.2814 5.75237 18.6503 5.08685 20.0874C3.69935 23.1624 3.68685 25.6124 5.03685 26.9624C5.73685 27.6624 6.67435 27.9749 7.77435 27.9749C10.0744 27.9749 13.0744 26.5874 15.9994 24.4999C18.9244 26.5874 21.9244 27.9749 24.2244 27.9749C25.3244 27.9749 26.2619 27.6624 26.9619 26.9624C28.3119 25.6124 28.2994 23.1624 26.9119 20.0874C26.2463 18.6503 25.4425 17.2814 24.5119 15.9999V15.9999ZM24.2244 6.03744C24.8244 6.03744 25.2744 6.17494 25.5494 6.44994C26.2494 7.16244 26.0744 8.88744 25.0869 11.0874C24.5664 12.2188 23.9474 13.3022 23.2369 14.3249C22.4369 13.3374 21.5494 12.3624 20.5994 11.3999C19.6494 10.4374 18.6744 9.58744 17.6619 8.76244C20.3994 6.89994 22.7494 6.03744 24.2244 6.03744V6.03744ZM22.0119 15.9999C21.1364 17.1193 20.193 18.1838 19.1869 19.1874C18.1766 20.1904 17.1125 21.1376 15.9994 22.0249C14.8862 21.1376 13.8221 20.1904 12.8119 19.1874C11.8057 18.1838 10.8623 17.1193 9.98685 15.9999C10.8623 14.8805 11.8057 13.816 12.8119 12.8124C13.8221 11.8095 14.8862 10.8623 15.9994 9.97494C17.1125 10.8623 18.1766 11.8095 19.1869 12.8124C20.193 13.816 21.1364 14.8805 22.0119 15.9999V15.9999ZM6.91185 11.0874C5.92435 8.88744 5.74935 7.16244 6.44935 6.44994C6.72435 6.17494 7.17435 6.03744 7.77435 6.03744C9.24935 6.03744 11.5994 6.89994 14.3369 8.76244C13.3244 9.58744 12.3369 10.4749 11.3994 11.3999C10.4619 12.3249 9.56185 13.3374 8.76185 14.3249C8.05135 13.3022 7.43229 12.2188 6.91185 11.0874V11.0874ZM6.44935 25.5499C5.74935 24.8374 5.92435 23.1124 6.91185 20.9124C7.43229 19.7811 8.05135 18.6977 8.76185 17.6749C9.56185 18.6624 10.4494 19.6374 11.3994 20.5999C12.3494 21.5624 13.3244 22.4124 14.3369 23.2374C10.4869 25.8499 7.39935 26.4999 6.44935 25.5499ZM25.5494 25.5499C25.2744 25.8249 24.8244 25.9624 24.2244 25.9624C22.7494 25.9624 20.3994 25.0999 17.6619 23.2374C18.6744 22.4124 19.6619 21.5249 20.5994 20.5999C21.5369 19.6749 22.4369 18.6624 23.2369 17.6749C23.9474 18.6977 24.5664 19.7811 25.0869 20.9124C26.0744 23.1124 26.2494 24.8374 25.5494 25.5499ZM17.4994 15.9999C17.4994 16.2966 17.4114 16.5866 17.2466 16.8333C17.0817 17.08 16.8475 17.2722 16.5734 17.3858C16.2993 17.4993 15.9977 17.529 15.7067 17.4711C15.4157 17.4132 15.1485 17.2704 14.9387 17.0606C14.7289 16.8508 14.5861 16.5835 14.5282 16.2926C14.4703 16.0016 14.5 15.7 14.6135 15.4259C14.7271 15.1518 14.9193 14.9176 15.166 14.7527C15.4127 14.5879 15.7027 14.4999 15.9994 14.4999C16.3972 14.4999 16.7787 14.658 17.06 14.9393C17.3413 15.2206 17.4994 15.6021 17.4994 15.9999Z" fill="#49536E"/>
</svg>
