<svg width="32" height="32" viewBox="0 0 32 32" fill="none" xmlns="http://www.w3.org/2000/svg">
<path d="M16.7744 3.02494C16.686 3.01798 16.5974 3.03526 16.5181 3.0749C16.4389 3.11455 16.3719 3.17507 16.3244 3.24994C15.0369 5.19994 14.9994 6.98744 14.9994 6.99994C14.9974 7.14988 15.0295 7.29832 15.0933 7.434C15.1572 7.56967 15.2511 7.68902 15.368 7.78299C15.4849 7.87696 15.6216 7.94309 15.7678 7.97634C15.914 8.0096 16.0659 8.00912 16.2119 7.97494C16.6744 7.88744 16.9869 7.44994 16.9994 6.97494C17.004 6.83747 17.0365 6.70236 17.095 6.57788C17.1535 6.4534 17.2368 6.34214 17.3398 6.2509C17.4427 6.15966 17.5631 6.09036 17.6937 6.04721C17.8243 6.00406 17.9624 5.98798 18.0994 5.99994C18.3512 6.03083 18.5826 6.15401 18.7489 6.34566C18.9151 6.5373 19.0044 6.78379 18.9994 7.03744C18.9969 7.43141 18.9169 7.82103 18.7639 8.18406C18.6108 8.5471 18.3878 8.87643 18.1075 9.15327C17.8272 9.4301 17.4951 9.64901 17.1301 9.7975C16.7652 9.94599 16.3746 10.0212 15.9807 10.0187C15.5867 10.0162 15.1971 9.93619 14.834 9.78315C14.471 9.63012 14.1417 9.40707 13.8648 9.12675C13.3057 8.56063 12.9944 7.79559 12.9994 6.99994C12.9994 6.92494 13.0119 5.64994 13.6744 3.99994C13.7087 3.9152 13.7191 3.82269 13.7045 3.73245C13.6899 3.64221 13.6508 3.5577 13.5916 3.48811C13.5323 3.41852 13.4551 3.36652 13.3683 3.33775C13.2815 3.30898 13.1885 3.30455 13.0994 3.32494C10.1539 4.00247 7.53616 5.6842 5.69546 8.08143C3.85476 10.4787 2.90596 13.4419 3.01191 16.4624C3.24941 23.3499 8.89941 28.8874 15.7869 28.9999C19.185 29.0546 22.4694 27.7765 24.9366 25.4393C27.4038 23.102 28.8577 19.8915 28.9868 16.4955C29.1159 13.0994 27.91 9.78785 25.6273 7.27003C23.3447 4.75222 20.1668 3.22839 16.7744 3.02494V3.02494ZM9.99941 15.9999C9.99941 15.7033 10.0874 15.4133 10.2522 15.1666C10.417 14.9199 10.6513 14.7277 10.9254 14.6141C11.1995 14.5006 11.5011 14.4709 11.792 14.5288C12.083 14.5866 12.3503 14.7295 12.5601 14.9393C12.7698 15.1491 12.9127 15.4163 12.9706 15.7073C13.0285 15.9983 12.9988 16.2999 12.8852 16.574C12.7717 16.8481 12.5794 17.0823 12.3328 17.2471C12.0861 17.412 11.7961 17.4999 11.4994 17.4999C11.1016 17.4999 10.7201 17.3419 10.4387 17.0606C10.1574 16.7793 9.99941 16.3978 9.99941 15.9999ZM19.8744 21.8374C18.7244 22.596 17.3771 23.0004 15.9994 23.0004C14.6218 23.0004 13.2744 22.596 12.1244 21.8374C11.9065 21.6878 11.7558 21.4589 11.7044 21.1997C11.6531 20.9404 11.7051 20.6714 11.8494 20.4499C11.9215 20.3398 12.0146 20.2449 12.1234 20.1708C12.2322 20.0967 12.3545 20.0447 12.4835 20.018C12.6124 19.9913 12.7453 19.9903 12.8746 20.0151C13.0039 20.0399 13.127 20.09 13.2369 20.1624C14.0547 20.7085 15.016 20.9999 15.9994 20.9999C16.9828 20.9999 17.9441 20.7085 18.7619 20.1624C18.8718 20.09 18.9949 20.0399 19.1242 20.0151C19.2535 19.9903 19.3865 19.9913 19.5154 20.018C19.6443 20.0447 19.7666 20.0967 19.8755 20.1708C19.9843 20.2449 20.0774 20.3398 20.1494 20.4499C20.2937 20.6714 20.3458 20.9404 20.2944 21.1997C20.243 21.4589 20.0923 21.6878 19.8744 21.8374V21.8374ZM20.4994 17.4999C20.2027 17.4999 19.9127 17.412 19.6661 17.2471C19.4194 17.0823 19.2271 16.8481 19.1136 16.574C19.0001 16.2999 18.9704 15.9983 19.0282 15.7073C19.0861 15.4163 19.229 15.1491 19.4387 14.9393C19.6485 14.7295 19.9158 14.5866 20.2068 14.5288C20.4977 14.4709 20.7993 14.5006 21.0734 14.6141C21.3475 14.7277 21.5818 14.9199 21.7466 15.1666C21.9114 15.4133 21.9994 15.7033 21.9994 15.9999C21.9994 16.3978 21.8414 16.7793 21.5601 17.0606C21.2788 17.3419 20.8972 17.4999 20.4994 17.4999Z" fill="#49536E"/>
</svg>
