<svg width="32" height="32" viewBox="0 0 32 32" fill="none" xmlns="http://www.w3.org/2000/svg">
<path d="M16 17.5C16.8284 17.5 17.5 16.8284 17.5 16C17.5 15.1716 16.8284 14.5 16 14.5C15.1716 14.5 14.5 15.1716 14.5 16C14.5 16.8284 15.1716 17.5 16 17.5Z" fill="#49536E"/>
<path d="M23.0739 16L26.5364 12.5375C27.4746 11.5993 28.0017 10.3268 28.0017 8.99997C28.0017 7.67315 27.4746 6.40068 26.5364 5.46247C26.0718 4.99792 25.5203 4.62942 24.9134 4.37801C24.3064 4.12659 23.6558 3.99719 22.9989 3.99719C21.6721 3.99719 20.3996 4.52427 19.4614 5.46247L15.9989 8.92497L12.5364 5.46247C11.5982 4.52427 10.3257 3.99719 8.99887 3.99719C7.67205 3.99719 6.39958 4.52427 5.46137 5.46247C4.52317 6.40068 3.99609 7.67315 3.99609 8.99997C3.99609 10.3268 4.52317 11.5993 5.46137 12.5375L8.92387 16L5.46137 19.4625C4.52317 20.4007 3.99609 21.6732 3.99609 23C3.99609 23.6569 4.12549 24.3075 4.37691 24.9145C4.62832 25.5214 4.99682 26.0729 5.46137 26.5375C5.92593 27.002 6.47743 27.3705 7.08439 27.6219C7.69136 27.8734 8.3419 28.0028 8.99887 28.0028C10.3257 28.0028 11.5982 27.4757 12.5364 26.5375L15.9989 23.075L19.4614 26.5375C20.3996 27.4757 21.6721 28.0028 22.9989 28.0028C24.3257 28.0028 25.5982 27.4757 26.5364 26.5375C27.4746 25.5993 28.0017 24.3268 28.0017 23C28.0017 21.6732 27.4746 20.4007 26.5364 19.4625L23.0739 16ZM15.9989 11.7625L20.2364 16L15.9989 20.2375L11.7614 16L15.9989 11.7625ZM20.8739 6.87497C21.4375 6.31139 22.2018 5.99477 22.9989 5.99477C23.7959 5.99477 24.5603 6.31139 25.1239 6.87497C25.6875 7.43856 26.0041 8.20294 26.0041 8.99997C26.0041 9.797 25.6875 10.5614 25.1239 11.125L21.6614 14.5875L17.4114 10.3375L20.8739 6.87497ZM11.1239 25.125C10.5603 25.6886 9.7959 26.0052 8.99887 26.0052C8.20184 26.0052 7.43746 25.6886 6.87387 25.125C6.31029 24.5614 5.99367 23.797 5.99367 23C5.99367 22.2029 6.31029 21.4386 6.87387 20.875L10.3364 17.4125L14.5864 21.6625L11.1239 25.125Z" fill="#49536E"/>
</svg>
