<svg width="32" height="32" viewBox="0 0 32 32" fill="none" xmlns="http://www.w3.org/2000/svg">
<path d="M31 25.9999C31 26.2651 30.8946 26.5195 30.7071 26.707C30.5196 26.8945 30.2652 26.9999 30 26.9999H2C1.73478 26.9999 1.48043 26.8945 1.29289 26.707C1.10536 26.5195 1 26.2651 1 25.9999C1 25.7347 1.10536 25.4803 1.29289 25.2928C1.48043 25.1053 1.73478 24.9999 2 24.9999H30C30.2652 24.9999 30.5196 25.1053 30.7071 25.2928C30.8946 25.4803 31 25.7347 31 25.9999ZM2.0375 12.2749C1.97791 12.0653 1.98839 11.842 2.06736 11.6389C2.14634 11.4359 2.28947 11.2642 2.475 11.1499L15.475 3.1499C15.6323 3.05116 15.8143 2.99878 16 2.99878C16.1857 2.99878 16.3677 3.05116 16.525 3.1499L29.525 11.1499C29.7097 11.2644 29.8521 11.4359 29.9306 11.6385C30.0092 11.8412 30.0196 12.0638 29.9602 12.2729C29.9009 12.482 29.7751 12.666 29.6018 12.7972C29.4286 12.9283 29.2173 12.9995 29 12.9999H26V20.9999H28C28.2652 20.9999 28.5196 21.1053 28.7071 21.2928C28.8946 21.4803 29 21.7347 29 21.9999C29 22.2651 28.8946 22.5195 28.7071 22.707C28.5196 22.8945 28.2652 22.9999 28 22.9999H4C3.73478 22.9999 3.48043 22.8945 3.29289 22.707C3.10536 22.5195 3 22.2651 3 21.9999C3 21.7347 3.10536 21.4803 3.29289 21.2928C3.48043 21.1053 3.73478 20.9999 4 20.9999H6V12.9999H3C2.78256 13.0001 2.57097 12.9295 2.39729 12.7987C2.2236 12.6678 2.0973 12.484 2.0375 12.2749V12.2749ZM18 19.9999C18 20.2651 18.1054 20.5195 18.2929 20.707C18.4804 20.8945 18.7348 20.9999 19 20.9999C19.2652 20.9999 19.5196 20.8945 19.7071 20.707C19.8946 20.5195 20 20.2651 20 19.9999V13.9999C20 13.7347 19.8946 13.4803 19.7071 13.2928C19.5196 13.1053 19.2652 12.9999 19 12.9999C18.7348 12.9999 18.4804 13.1053 18.2929 13.2928C18.1054 13.4803 18 13.7347 18 13.9999V19.9999ZM12 19.9999C12 20.2651 12.1054 20.5195 12.2929 20.707C12.4804 20.8945 12.7348 20.9999 13 20.9999C13.2652 20.9999 13.5196 20.8945 13.7071 20.707C13.8946 20.5195 14 20.2651 14 19.9999V13.9999C14 13.7347 13.8946 13.4803 13.7071 13.2928C13.5196 13.1053 13.2652 12.9999 13 12.9999C12.7348 12.9999 12.4804 13.1053 12.2929 13.2928C12.1054 13.4803 12 13.7347 12 13.9999V19.9999Z" fill="#49536E"/>
</svg>
