<svg width="32" height="32" viewBox="0 0 32 32" fill="none" xmlns="http://www.w3.org/2000/svg">
<path d="M6.48691 7.98749C6.43738 7.93654 6.37756 7.89674 6.31144 7.87073C6.24531 7.84471 6.1744 7.83309 6.10343 7.83664C6.03246 7.84019 5.96307 7.85883 5.89987 7.8913C5.83667 7.92378 5.78111 7.96936 5.73691 8.02499C3.96308 10.305 3 13.1113 3 16C3 18.8887 3.96308 21.695 5.73691 23.975C5.78111 24.0306 5.83667 24.0762 5.89987 24.1087C5.96307 24.1412 6.03246 24.1598 6.10343 24.1633C6.1744 24.1669 6.24531 24.1553 6.31144 24.1293C6.37756 24.1033 6.43738 24.0634 6.48691 24.0125L7.39941 23.1C7.49493 22.9883 7.6139 22.899 7.74786 22.8385C7.88181 22.778 8.02745 22.7478 8.17441 22.75C8.41425 22.7516 8.6453 22.8405 8.82441 23C9.01961 23.1812 9.1366 23.4313 9.1506 23.6973C9.1646 23.9633 9.07451 24.2243 8.89941 24.425C8.59404 24.7848 8.26852 25.127 7.92441 25.45C7.87082 25.4976 7.82837 25.5563 7.80009 25.6222C7.7718 25.688 7.75837 25.7593 7.76076 25.8309C7.76315 25.9025 7.78129 25.9727 7.8139 26.0365C7.8465 26.1003 7.89277 26.1561 7.94941 26.2C10.241 28.0129 13.0774 28.9991 15.9994 28.9991C18.9214 28.9991 21.7578 28.0129 24.0494 26.2C24.1061 26.1561 24.1523 26.1003 24.1849 26.0365C24.2175 25.9727 24.2357 25.9025 24.2381 25.8309C24.2405 25.7593 24.227 25.688 24.1987 25.6222C24.1705 25.5563 24.128 25.4976 24.0744 25.45C23.7263 25.1227 23.3966 24.7763 23.0869 24.4125C23.0007 24.3132 22.935 24.1979 22.8933 24.0731C22.8517 23.9484 22.8351 23.8167 22.8444 23.6855C22.8537 23.5544 22.8887 23.4263 22.9475 23.3087C23.0062 23.1911 23.0876 23.0862 23.1869 23C23.2862 22.9138 23.4015 22.848 23.5263 22.8064C23.651 22.7648 23.7827 22.7482 23.9139 22.7575C24.1788 22.7762 24.4254 22.8994 24.5994 23.1L25.5119 24.0125C25.5614 24.0634 25.6213 24.1033 25.6874 24.1293C25.7535 24.1553 25.8244 24.1669 25.8954 24.1633C25.9664 24.1598 26.0358 24.1412 26.099 24.1087C26.1622 24.0762 26.2177 24.0306 26.2619 23.975C28.0357 21.695 28.9988 18.8887 28.9988 16C28.9988 13.1113 28.0357 10.305 26.2619 8.02499C26.2177 7.96936 26.1622 7.92378 26.099 7.8913C26.0358 7.85883 25.9664 7.84019 25.8954 7.83664C25.8244 7.83309 25.7535 7.84471 25.6874 7.87073C25.6213 7.89674 25.5614 7.93654 25.5119 7.98749L24.5994 8.89999C24.5047 9.00944 24.3877 9.09731 24.2561 9.15769C24.1246 9.21806 23.9816 9.24954 23.8369 9.24999C23.5921 9.25515 23.3548 9.16559 23.1744 8.99999C22.9792 8.81877 22.8622 8.56868 22.8482 8.30269C22.8342 8.0367 22.9243 7.77571 23.0994 7.57499C23.4048 7.21518 23.7303 6.87296 24.0744 6.54999C24.128 6.50244 24.1705 6.44365 24.1987 6.37782C24.227 6.31199 24.2405 6.24073 24.2381 6.16912C24.2357 6.09751 24.2175 6.02731 24.1849 5.96351C24.1523 5.89971 24.1061 5.84388 24.0494 5.79999C21.7578 3.98714 18.9214 3.00085 15.9994 3.00085C13.0774 3.00085 10.241 3.98714 7.94941 5.79999C7.89277 5.84388 7.8465 5.89971 7.8139 5.96351C7.78129 6.02731 7.76315 6.09751 7.76076 6.16912C7.75837 6.24073 7.7718 6.31199 7.80009 6.37782C7.82837 6.44365 7.87082 6.50244 7.92441 6.54999C8.26852 6.87296 8.59404 7.21518 8.89941 7.57499C9.03034 7.71811 9.11683 7.89621 9.14832 8.08761C9.17982 8.27901 9.15497 8.47544 9.07681 8.65296C8.99865 8.83049 8.87054 8.98145 8.7081 9.08745C8.54565 9.19346 8.35588 9.24993 8.16191 9.24999V9.24999C8.01719 9.24954 7.87424 9.21806 7.7427 9.15769C7.61117 9.09731 7.49411 9.00944 7.39941 8.89999L6.48691 7.98749ZM9.89941 11.025C10.011 10.9784 10.129 10.9489 10.2494 10.9375C10.4629 10.9297 10.6733 10.9895 10.8507 11.1085C11.028 11.2275 11.1632 11.3995 11.2369 11.6C11.4756 12.2715 11.6595 12.9613 11.7869 13.6625C11.8398 13.9157 11.7926 14.1796 11.655 14.3987C11.5175 14.6178 11.3004 14.7751 11.0494 14.8375C10.9726 14.8621 10.8925 14.8747 10.8119 14.875V14.875C10.5765 14.8757 10.3485 14.7933 10.1678 14.6424C9.98721 14.4915 9.8656 14.2817 9.82441 14.05C9.72033 13.4586 9.56559 12.8773 9.36191 12.3125C9.18691 11.8125 9.39941 11.225 9.89941 11.025ZM11.7869 18.3375C11.6595 19.0387 11.4756 19.7285 11.2369 20.4C11.1653 20.5943 11.0359 20.762 10.866 20.8805C10.6961 20.999 10.494 21.0625 10.2869 21.0625V21.0625C10.1527 21.0634 10.0202 21.0335 9.89941 20.975C9.66384 20.8679 9.4775 20.6756 9.3778 20.4368C9.27811 20.198 9.27243 19.9303 9.36191 19.6875C9.56559 19.1227 9.72033 18.5413 9.82441 17.95C9.86698 17.7235 9.98556 17.5182 10.1606 17.3682C10.3356 17.2182 10.5565 17.1324 10.7869 17.125L11.0369 17.15C11.2896 17.2152 11.5079 17.3744 11.6473 17.5951C11.7866 17.8158 11.8366 18.0813 11.7869 18.3375V18.3375ZM22.0994 20.975C21.9787 21.0335 21.8461 21.0634 21.7119 21.0625C21.5048 21.0625 21.3027 20.999 21.1328 20.8805C20.963 20.762 20.8335 20.5943 20.7619 20.4C20.5233 19.7285 20.3393 19.0387 20.2119 18.3375C20.1655 18.0949 20.2082 17.8437 20.3322 17.6301C20.4563 17.4166 20.6532 17.2549 20.8869 17.175C21.0224 17.1339 21.1651 17.1217 21.3056 17.1392C21.4462 17.1567 21.5815 17.2034 21.7028 17.2765C21.8242 17.3495 21.9288 17.4472 22.0101 17.5632C22.0913 17.6792 22.1473 17.811 22.1744 17.95C22.2785 18.5413 22.4332 19.1227 22.6369 19.6875C22.7264 19.9303 22.7207 20.198 22.621 20.4368C22.5213 20.6756 22.335 20.8679 22.0994 20.975V20.975ZM22.5494 12.475C22.3102 12.9118 22.1855 13.402 22.1869 13.9C22.1804 14.1609 22.0722 14.4088 21.8853 14.591C21.6985 14.7732 21.4479 14.8751 21.1869 14.875L21.0119 14.85C20.4744 14.7625 20.1119 14.1875 20.2119 13.65C20.3395 12.9664 20.5192 12.2936 20.7494 11.6375C20.8351 11.3948 21.0079 11.1926 21.2342 11.0702C21.4606 10.9477 21.7244 10.9138 21.9744 10.975C22.1248 11.017 22.2633 11.0936 22.3788 11.1987C22.4943 11.3038 22.5835 11.4345 22.6394 11.5803C22.6953 11.7261 22.7163 11.883 22.7007 12.0383C22.685 12.1937 22.6332 12.3432 22.5494 12.475V12.475Z" fill="#49536E"/>
</svg>
