<svg width="32" height="32" viewBox="0 0 32 32" fill="none" xmlns="http://www.w3.org/2000/svg">
<path d="M7.95089 5.79997C9.82767 4.31659 12.0764 3.37818 14.4509 3.08747C14.5206 3.08046 14.5911 3.08819 14.6576 3.11016C14.7242 3.13213 14.7854 3.16784 14.8372 3.21499C14.8891 3.26214 14.9305 3.31966 14.9587 3.38383C14.9869 3.448 15.0012 3.51738 15.0009 3.58747V15H11.9634C11.7129 11.7798 10.2738 8.76794 7.92589 6.54997C7.8723 6.50241 7.82985 6.44362 7.80156 6.37779C7.77328 6.31196 7.75985 6.24071 7.76224 6.1691C7.76462 6.09749 7.78277 6.02728 7.81537 5.96348C7.84798 5.89968 7.89425 5.84385 7.95089 5.79997V5.79997ZM5.75089 8.01247C4.30071 9.87512 3.38079 12.095 3.08839 14.4375C3.08148 14.5078 3.0892 14.5788 3.11105 14.646C3.13291 14.7133 3.16843 14.7752 3.21539 14.8281C3.26235 14.8809 3.31973 14.9234 3.38392 14.953C3.44811 14.9826 3.51772 14.9986 3.58839 15H9.95089C9.70363 12.3039 8.47081 9.7938 6.48839 7.94997C6.43734 7.90253 6.37693 7.86628 6.31105 7.84356C6.24516 7.82084 6.17526 7.81214 6.10581 7.81803C6.03637 7.82391 5.96892 7.84425 5.9078 7.87773C5.84668 7.91122 5.79323 7.95711 5.75089 8.01247ZM24.0509 5.79997C22.1741 4.31659 19.9254 3.37818 17.5509 3.08747C17.4812 3.08046 17.4107 3.08819 17.3442 3.11016C17.2776 3.13213 17.2164 3.16784 17.1645 3.21499C17.1127 3.26214 17.0713 3.31966 17.0431 3.38383C17.0149 3.448 17.0005 3.51738 17.0009 3.58747V15H20.0384C20.2889 11.7798 21.728 8.76794 24.0759 6.54997C24.1295 6.50241 24.1719 6.44362 24.2002 6.37779C24.2285 6.31196 24.2419 6.24071 24.2395 6.1691C24.2372 6.09749 24.219 6.02728 24.1864 5.96348C24.1538 5.89968 24.1075 5.84385 24.0509 5.79997V5.79997ZM28.9134 14.4375C28.621 12.095 27.7011 9.87512 26.2509 8.01247C26.2086 7.95711 26.1551 7.91122 26.094 7.87773C26.0329 7.84425 25.9654 7.82391 25.896 7.81803C25.8265 7.81214 25.7566 7.82084 25.6907 7.84356C25.6249 7.86628 25.5644 7.90253 25.5134 7.94997C23.531 9.7938 22.2982 12.3039 22.0509 15H28.4134C28.4841 14.9986 28.5537 14.9826 28.6179 14.953C28.6821 14.9234 28.7394 14.8809 28.7864 14.8281C28.8334 14.7752 28.8689 14.7133 28.8907 14.646C28.9126 14.5788 28.9203 14.5078 28.9134 14.4375V14.4375ZM3.08839 17.5625C3.38079 19.9049 4.30071 22.1248 5.75089 23.9875C5.79323 24.0428 5.84668 24.0887 5.9078 24.1222C5.96892 24.1557 6.03637 24.176 6.10581 24.1819C6.17526 24.1878 6.24516 24.1791 6.31105 24.1564C6.37693 24.1337 6.43734 24.0974 6.48839 24.05C8.47081 22.2061 9.70363 19.696 9.95089 17H3.58839C3.51772 17.0014 3.44811 17.0173 3.38392 17.0469C3.31973 17.0765 3.26235 17.1191 3.21539 17.1719C3.16843 17.2247 3.13291 17.2867 3.11105 17.3539C3.0892 17.4211 3.08148 17.4921 3.08839 17.5625V17.5625ZM26.2509 23.9875C27.7011 22.1248 28.621 19.9049 28.9134 17.5625C28.9203 17.4921 28.9126 17.4211 28.8907 17.3539C28.8689 17.2867 28.8334 17.2247 28.7864 17.1719C28.7394 17.1191 28.6821 17.0765 28.6179 17.0469C28.5537 17.0173 28.4841 17.0014 28.4134 17H22.0509C22.2982 19.696 23.531 22.2061 25.5134 24.05C25.5644 24.0974 25.6249 24.1337 25.6907 24.1564C25.7566 24.1791 25.8265 24.1878 25.896 24.1819C25.9654 24.176 26.0329 24.1557 26.094 24.1222C26.1551 24.0887 26.2086 24.0428 26.2509 23.9875V23.9875ZM7.95089 26.2C9.82767 27.6833 12.0764 28.6218 14.4509 28.9125C14.5206 28.9195 14.5911 28.9117 14.6576 28.8898C14.7242 28.8678 14.7854 28.8321 14.8372 28.7849C14.8891 28.7378 14.9305 28.6803 14.9587 28.6161C14.9869 28.5519 15.0012 28.4826 15.0009 28.4125V17H11.9634C11.7129 20.2201 10.2738 23.232 7.92589 25.45C7.8723 25.4975 7.82985 25.5563 7.80156 25.6221C7.77328 25.688 7.75985 25.7592 7.76224 25.8308C7.76462 25.9024 7.78277 25.9727 7.81537 26.0365C7.84798 26.1003 7.89425 26.1561 7.95089 26.2V26.2ZM20.0384 17H17.0009V28.4125C17.0005 28.4826 17.0149 28.5519 17.0431 28.6161C17.0713 28.6803 17.1127 28.7378 17.1645 28.7849C17.2164 28.8321 17.2776 28.8678 17.3442 28.8898C17.4107 28.9117 17.4812 28.9195 17.5509 28.9125C19.9254 28.6218 22.1741 27.6833 24.0509 26.2C24.1075 26.1561 24.1538 26.1003 24.1864 26.0365C24.219 25.9727 24.2372 25.9024 24.2395 25.8308C24.2419 25.7592 24.2285 25.688 24.2002 25.6221C24.1719 25.5563 24.1295 25.4975 24.0759 25.45C21.728 23.232 20.2889 20.2201 20.0384 17V17Z" fill="#49536E"/>
</svg>
