<svg width="32" height="32" viewBox="0 0 32 32" fill="none" xmlns="http://www.w3.org/2000/svg">
<path d="M30.7128 5.28746L26.7128 1.28746C26.5185 1.128 26.2718 1.04651 26.0208 1.05884C25.7697 1.07117 25.5323 1.17644 25.3545 1.35417C25.1768 1.53191 25.0715 1.7694 25.0592 2.02045C25.0469 2.2715 25.1283 2.51817 25.2878 2.71246L25.4753 2.88746L18.5878 8.06246L13.8003 9.02496C13.6086 9.06362 13.4312 9.15446 13.2878 9.28746L11.2878 11.2875L4.28781 18.2875L2.71281 19.875C2.43162 20.1528 2.20838 20.4837 2.05602 20.8485C1.90365 21.2133 1.8252 21.6046 1.8252 22C1.8252 22.3953 1.90365 22.7867 2.05602 23.1514C2.20838 23.5162 2.43162 23.8471 2.71281 24.125L7.87531 29.2875C8.15317 29.5686 8.48407 29.7919 8.84884 29.9443C9.21361 30.0966 9.60499 30.1751 10.0003 30.1751C10.3956 30.1751 10.787 30.0966 11.1518 29.9443C11.5165 29.7919 11.8474 29.5686 12.1253 29.2875L13.7128 27.7125L20.7128 20.7125L22.7128 18.7125C22.8458 18.569 22.9366 18.3917 22.9753 18.2L23.9378 13.4125L29.1128 6.52496L29.2878 6.71246C29.4789 6.89728 29.7344 7.0006 30.0003 7.0006C30.2662 7.0006 30.5217 6.89728 30.7128 6.71246C30.9006 6.52287 31.0059 6.26681 31.0059 5.99996C31.0059 5.73311 30.9006 5.47706 30.7128 5.28746V5.28746ZM9.28781 27.875L4.12531 22.7125C4.03082 22.6194 3.95579 22.5085 3.90457 22.3862C3.85336 22.2639 3.82698 22.1326 3.82698 22C3.82698 21.8674 3.85336 21.7361 3.90457 21.6137C3.95579 21.4914 4.03082 21.3805 4.12531 21.2875L5.00031 20.4125L11.5878 27L10.7128 27.875C10.5232 28.0627 10.2672 28.1681 10.0003 28.1681C9.73346 28.1681 9.4774 28.0627 9.28781 27.875V27.875ZM22.2003 12.4C22.1143 12.5194 22.0546 12.6557 22.0253 12.8L21.0753 17.5125L20.0003 18.5875L13.4128 12L14.4878 10.925L19.2003 9.97496C19.3445 9.94566 19.4809 9.88601 19.6003 9.79996L26.9003 4.32496L27.6753 5.09996L22.2003 12.4Z" fill="#49536E"/>
</svg>
