<svg width="32" height="32" viewBox="0 0 32 32" fill="none" xmlns="http://www.w3.org/2000/svg">
<path d="M26.7377 26.325C26.8279 26.4211 26.8979 26.5343 26.9437 26.6578C26.9894 26.7814 27.01 26.9128 27.0042 27.0445C26.9984 27.1761 26.9663 27.3052 26.9098 27.4243C26.8533 27.5433 26.7735 27.6498 26.6752 27.7375C26.4897 27.9043 26.2497 27.9976 26.0002 28C25.8615 28 25.7243 27.9711 25.5973 27.9151C25.4703 27.8592 25.3564 27.7774 25.2627 27.675L22.8252 25H6.12523C5.77291 25.0001 5.42683 24.907 5.12202 24.7304C4.8172 24.5537 4.56447 24.2996 4.3894 23.9939C4.21433 23.6881 4.12313 23.3416 4.12503 22.9892C4.12693 22.6369 4.22187 22.2914 4.40023 21.9875C5.13773 20.7125 6.02523 18.2875 6.02523 14V13C6.02353 11.2408 6.4848 9.51207 7.36273 7.98754L5.26273 5.67504C5.09041 5.47838 5.00197 5.22206 5.01636 4.96099C5.03074 4.69992 5.14681 4.45487 5.33969 4.27833C5.53256 4.1018 5.78691 4.00783 6.04823 4.01656C6.30955 4.02529 6.55706 4.13603 6.73773 4.32504L26.7377 26.325ZM20.0002 27H12.0002C11.735 27 11.4807 27.1054 11.2931 27.2929C11.1056 27.4805 11.0002 27.7348 11.0002 28C11.0002 28.2653 11.1056 28.5196 11.2931 28.7071C11.4807 28.8947 11.735 29 12.0002 29H20.0002C20.2654 29 20.5198 28.8947 20.7073 28.7071C20.8949 28.5196 21.0002 28.2653 21.0002 28C21.0002 27.7348 20.8949 27.4805 20.7073 27.2929C20.5198 27.1054 20.2654 27 20.0002 27ZM25.3627 21.8375C25.4564 21.9399 25.5703 22.0217 25.6973 22.0776C25.8243 22.1336 25.9615 22.1625 26.1002 22.1625C26.2858 22.1629 26.4678 22.1109 26.6252 22.0125C26.825 21.8906 26.9757 21.7025 27.0511 21.481C27.1264 21.2594 27.1217 21.0185 27.0377 20.8C26.3377 19.025 25.9752 16.725 25.9752 14V13.1125C25.9752 7.57504 21.5377 3.03754 16.0752 3.00004C14.3194 2.98692 12.5909 3.43521 11.0627 4.30004C10.9334 4.37484 10.8225 4.47767 10.7381 4.60097C10.6538 4.72427 10.5981 4.8649 10.5752 5.01254C10.5526 5.16193 10.5633 5.31448 10.6065 5.45927C10.6497 5.60405 10.7244 5.73749 10.8252 5.85004L25.3627 21.8375Z" fill="#49536E"/>
</svg>
