<svg width="32" height="32" viewBox="0 0 32 32" fill="none" xmlns="http://www.w3.org/2000/svg">
<path d="M25.9749 13.9999C25.9848 11.362 24.9482 8.82781 23.0923 6.95316C21.2364 5.07851 18.7127 4.01645 16.0749 3.99992H15.9999C14.6883 4.00156 13.3899 4.26152 12.1788 4.76496C10.9676 5.26839 9.86755 6.00544 8.94129 6.93403C8.01502 7.86262 7.28072 8.96455 6.78032 10.1769C6.27992 11.3893 6.02321 12.6883 6.02486 13.9999C6.02486 18.2874 5.13736 20.7124 4.39986 21.9874C4.22253 22.2927 4.12809 22.639 4.12589 22.992C4.1237 23.345 4.21384 23.6925 4.38736 23.9999C4.56237 24.3056 4.81549 24.5593 5.12079 24.735C5.42609 24.9108 5.77261 25.0022 6.12486 24.9999H10.9999C10.9999 26.326 11.5266 27.5978 12.4643 28.5355C13.402 29.4731 14.6738 29.9999 15.9999 29.9999C17.3259 29.9999 18.5977 29.4731 19.5354 28.5355C20.4731 27.5978 20.9999 26.326 20.9999 24.9999H25.8749C26.2271 25.0022 26.5736 24.9108 26.8789 24.735C27.1842 24.5593 27.4373 24.3056 27.6124 23.9999C27.7859 23.6925 27.876 23.345 27.8738 22.992C27.8716 22.639 27.7772 22.2927 27.5999 21.9874C26.8624 20.7124 25.9749 18.2874 25.9749 13.9999ZM15.9999 27.9999C15.2052 27.9966 14.4441 27.6795 13.8822 27.1176C13.3203 26.5557 13.0031 25.7946 12.9999 24.9999H18.9999C18.9966 25.7946 18.6794 26.5557 18.1175 27.1176C17.5556 27.6795 16.7945 27.9966 15.9999 27.9999ZM28.1124 9.16242C27.9744 9.22386 27.8258 9.25782 27.6749 9.26242C27.4869 9.26406 27.3023 9.212 27.1429 9.11236C26.9834 9.01272 26.8558 8.86963 26.7749 8.69992C25.7876 6.7135 24.2744 5.03596 22.3999 3.84992C22.2882 3.78016 22.1914 3.68909 22.115 3.58192C22.0386 3.47475 21.984 3.35357 21.9544 3.22531C21.9248 3.09705 21.9208 2.96422 21.9425 2.83439C21.9642 2.70457 22.0113 2.5803 22.0811 2.46867C22.1509 2.35705 22.2419 2.26026 22.3491 2.18383C22.4563 2.1074 22.5775 2.05283 22.7057 2.02323C22.834 1.99363 22.9668 1.98959 23.0966 2.01132C23.2265 2.03306 23.3507 2.08016 23.4624 2.14992C25.6563 3.5314 27.4222 5.49645 28.5624 7.82492C28.6795 8.06206 28.6979 8.33592 28.6135 8.58659C28.5292 8.83725 28.349 9.0443 28.1124 9.16242V9.16242ZM4.32486 9.26242C4.17391 9.25782 4.02531 9.22386 3.88736 9.16242C3.65073 9.0443 3.47053 8.83725 3.38619 8.58659C3.30186 8.33592 3.32025 8.06206 3.43736 7.82492C4.5775 5.49645 6.34344 3.5314 8.53736 2.14992C8.76279 2.00903 9.03496 1.96345 9.294 2.02323C9.42226 2.05283 9.54343 2.1074 9.6506 2.18383C9.75777 2.26026 9.84884 2.35705 9.91861 2.46867C9.98837 2.5803 10.0355 2.70457 10.0572 2.83439C10.0789 2.96422 10.0749 3.09705 10.0453 3.22531C10.0157 3.35357 9.96113 3.47475 9.8847 3.58192C9.80827 3.68909 9.71148 3.78016 9.59986 3.84992C7.72533 5.03596 6.21209 6.7135 5.22486 8.69992C5.14395 8.86963 5.01628 9.01272 4.85685 9.11236C4.69742 9.212 4.51286 9.26406 4.32486 9.26242V9.26242Z" fill="#49536E"/>
</svg>
