<svg width="32" height="32" viewBox="0 0 32 32" fill="none" xmlns="http://www.w3.org/2000/svg">
<path d="M20.9999 27.9999C20.9999 28.2651 20.8945 28.5195 20.707 28.707C20.5194 28.8946 20.2651 28.9999 19.9999 28.9999H11.9999C11.7346 28.9999 11.4803 28.8946 11.2927 28.707C11.1052 28.5195 10.9999 28.2651 10.9999 27.9999C10.9999 27.7347 11.1052 27.4804 11.2927 27.2928C11.4803 27.1053 11.7346 26.9999 11.9999 26.9999H19.9999C20.2651 26.9999 20.5194 27.1053 20.707 27.2928C20.8945 27.4804 20.9999 27.7347 20.9999 27.9999ZM25.9749 13.9999C25.9848 11.362 24.9482 8.82781 23.0923 6.95316C21.2364 5.07851 18.7127 4.01645 16.0749 3.99992H15.9999C14.6883 4.00156 13.3899 4.26152 12.1788 4.76496C10.9676 5.26839 9.86755 6.00544 8.94129 6.93403C8.01502 7.86262 7.28072 8.96455 6.78032 10.1769C6.27992 11.3893 6.02321 12.6883 6.02486 13.9999C6.02486 18.2874 5.13736 20.7124 4.39986 21.9874C4.22253 22.2927 4.12809 22.639 4.12589 22.992C4.1237 23.345 4.21384 23.6925 4.38736 23.9999C4.56237 24.3056 4.81549 24.5593 5.12079 24.735C5.42609 24.9108 5.77261 25.0022 6.12486 24.9999H25.8749C26.2271 25.0022 26.5736 24.9108 26.8789 24.735C27.1842 24.5593 27.4373 24.3056 27.6124 23.9999C27.7859 23.6925 27.876 23.345 27.8738 22.992C27.8716 22.639 27.7772 22.2927 27.5999 21.9874C26.8624 20.7124 25.9749 18.2874 25.9749 13.9999ZM28.5624 7.82492C27.4222 5.49645 25.6563 3.5314 23.4624 2.14992C23.2369 2.00903 22.9647 1.96345 22.7057 2.02323C22.4467 2.08301 22.222 2.24324 22.0811 2.46867C21.9402 2.69411 21.8946 2.96628 21.9544 3.22531C22.0142 3.48435 22.1744 3.70903 22.3999 3.84992C24.2744 5.03596 25.7876 6.7135 26.7749 8.69992C26.8558 8.86963 26.9834 9.01272 27.1429 9.11236C27.3023 9.212 27.4869 9.26406 27.6749 9.26242C27.8258 9.25782 27.9744 9.22386 28.1124 9.16242C28.349 9.0443 28.5292 8.83725 28.6135 8.58659C28.6979 8.33592 28.6795 8.06206 28.5624 7.82492ZM5.22486 8.69992C6.21209 6.7135 7.72533 5.03596 9.59986 3.84992C9.71148 3.78016 9.80827 3.68909 9.8847 3.58192C9.96113 3.47475 10.0157 3.35357 10.0453 3.22531C10.0749 3.09705 10.0789 2.96422 10.0572 2.83439C10.0355 2.70457 9.98837 2.5803 9.91861 2.46867C9.84884 2.35705 9.75777 2.26026 9.6506 2.18383C9.54343 2.1074 9.42226 2.05283 9.294 2.02323C9.03496 1.96345 8.76279 2.00903 8.53736 2.14992C6.34344 3.5314 4.5775 5.49645 3.43736 7.82492C3.32025 8.06206 3.30186 8.33592 3.38619 8.58659C3.47053 8.83725 3.65073 9.0443 3.88736 9.16242C4.02531 9.22386 4.17391 9.25782 4.32486 9.26242C4.51286 9.26406 4.69742 9.212 4.85685 9.11236C5.01628 9.01272 5.14395 8.86963 5.22486 8.69992V8.69992Z" fill="#49536E"/>
</svg>
