<svg width="32" height="32" viewBox="0 0 32 32" fill="none" xmlns="http://www.w3.org/2000/svg">
<path d="M27.601 21.9875C26.8635 20.7125 25.976 18.2875 25.976 14V13.1125C25.976 7.575 21.5385 3.0375 16.076 3H16.001C14.6894 3.00164 13.391 3.2616 12.1799 3.76503C10.9687 4.26847 9.86865 5.00552 8.94238 5.93411C8.01612 6.86269 7.28182 7.96463 6.78142 9.177C6.28102 10.3894 6.02431 11.6884 6.02595 13V14C6.02595 18.2875 5.13845 20.7125 4.40095 21.9875C4.22363 22.2928 4.12918 22.6391 4.12699 22.9921C4.1248 23.3451 4.21493 23.6926 4.38845 24C4.56347 24.3057 4.81658 24.5594 5.12189 24.7351C5.42719 24.9108 5.7737 25.0022 6.12595 25H11.001C11.001 26.3261 11.5277 27.5979 12.4654 28.5355C13.4031 29.4732 14.6749 30 16.001 30C17.327 30 18.5988 29.4732 19.5365 28.5355C20.4742 27.5979 21.001 26.3261 21.001 25H25.876C26.2282 25.0022 26.5747 24.9108 26.88 24.7351C27.1853 24.5594 27.4384 24.3057 27.6135 24C27.787 23.6926 27.8771 23.3451 27.8749 22.9921C27.8727 22.6391 27.7783 22.2928 27.601 21.9875V21.9875ZM16.001 28C15.2063 27.9967 14.4452 27.6796 13.8833 27.1177C13.3214 26.5558 13.0042 25.7946 13.001 25H19.001C18.9977 25.7946 18.6805 26.5558 18.1186 27.1177C17.5567 27.6796 16.7956 27.9967 16.001 28ZM18.501 19H13.501C13.3116 19.0005 13.1261 18.9466 12.9665 18.8447C12.8069 18.7427 12.6801 18.597 12.601 18.425C12.5176 18.2538 12.4863 18.062 12.5107 17.8732C12.5351 17.6844 12.6143 17.5068 12.7385 17.3625L16.3635 13H13.501C13.2357 13 12.9814 12.8946 12.7938 12.7071C12.6063 12.5196 12.501 12.2652 12.501 12C12.501 11.7348 12.6063 11.4804 12.7938 11.2929C12.9814 11.1054 13.2357 11 13.501 11H18.501C18.6903 10.9995 18.8758 11.0534 19.0354 11.1553C19.195 11.2573 19.3219 11.403 19.401 11.575C19.4843 11.7462 19.5156 11.938 19.4912 12.1268C19.4668 12.3156 19.3876 12.4932 19.2635 12.6375L15.6385 17H18.501C18.7662 17 19.0205 17.1054 19.2081 17.2929C19.3956 17.4804 19.501 17.7348 19.501 18C19.501 18.2652 19.3956 18.5196 19.2081 18.7071C19.0205 18.8946 18.7662 19 18.501 19Z" fill="#49536E"/>
</svg>
