<svg width="32" height="32" viewBox="0 0 32 32" fill="none" xmlns="http://www.w3.org/2000/svg">
<path d="M27.6256 21.9875C26.8881 20.7125 26.0006 18.2875 26.0006 14V13.1125C26.0006 7.57501 21.5506 3.03751 16.0756 3.00001H16.0006C14.6869 2.99836 13.3858 3.2559 12.1718 3.75786C10.9578 4.25983 9.85478 4.99636 8.92587 5.92527C7.99696 6.85418 7.26043 7.95723 6.75846 9.17123C6.2565 10.3852 5.99896 11.6863 6.00061 13V14C6.00061 18.2875 5.11311 20.7125 4.37561 21.9875C4.19332 22.291 4.09599 22.638 4.09379 22.992C4.09159 23.3461 4.18461 23.6942 4.36311 24C4.53812 24.3057 4.79124 24.5594 5.09654 24.7351C5.40184 24.9108 5.74836 25.0023 6.10061 25H25.9006C26.2529 25.0023 26.5994 24.9108 26.9047 24.7351C27.21 24.5594 27.4631 24.3057 27.6381 24C27.8166 23.6942 27.9096 23.3461 27.9074 22.992C27.9052 22.638 27.8079 22.291 27.6256 21.9875V21.9875Z" fill="#49536E"/>
<path d="M19.9883 27H11.9883C11.7231 27 11.4687 27.1054 11.2812 27.2929C11.0936 27.4804 10.9883 27.7348 10.9883 28C10.9883 28.2652 11.0936 28.5196 11.2812 28.7071C11.4687 28.8946 11.7231 29 11.9883 29H19.9883C20.2535 29 20.5079 28.8946 20.6954 28.7071C20.8829 28.5196 20.9883 28.2652 20.9883 28C20.9883 27.7348 20.8829 27.4804 20.6954 27.2929C20.5079 27.1054 20.2535 27 19.9883 27Z" fill="#49536E"/>
</svg>
