<svg width="32" height="32" viewBox="0 0 32 32" fill="none" xmlns="http://www.w3.org/2000/svg">
<path d="M6.73773 4.32504C6.55706 4.13603 6.30955 4.02529 6.04823 4.01656C5.78691 4.00783 5.53256 4.1018 5.33969 4.27833C5.14681 4.45487 5.03074 4.69992 5.01636 4.96099C5.00197 5.22206 5.09041 5.47838 5.26273 5.67504L7.36273 7.98754C6.4848 9.51207 6.02353 11.2408 6.02523 13V14C6.02523 18.2875 5.13773 20.7125 4.40023 21.9875C4.22187 22.2914 4.12693 22.6369 4.12503 22.9892C4.12313 23.3416 4.21433 23.6881 4.3894 23.9939C4.56447 24.2996 4.8172 24.5537 5.12202 24.7304C5.42683 24.907 5.77291 25.0001 6.12523 25H11.0002C11.0002 26.3261 11.527 27.5979 12.4647 28.5356C13.4024 29.4733 14.6741 30 16.0002 30C17.3263 30 18.5981 29.4733 19.5358 28.5356C20.4734 27.5979 21.0002 26.3261 21.0002 25H22.8252L25.2627 27.675C25.3564 27.7774 25.4703 27.8592 25.5973 27.9151C25.7243 27.9711 25.8615 28 26.0002 28C26.2497 27.9976 26.4897 27.9043 26.6752 27.7375C26.7735 27.6498 26.8533 27.5433 26.9098 27.4243C26.9663 27.3052 26.9984 27.1761 27.0042 27.0445C27.01 26.9128 26.9894 26.7814 26.9437 26.6578C26.8979 26.5343 26.8279 26.4211 26.7377 26.325L6.73773 4.32504ZM16.0002 28C15.2056 27.9967 14.4444 27.6796 13.8825 27.1177C13.3206 26.5558 13.0035 25.7947 13.0002 25H19.0002C18.9969 25.7947 18.6798 26.5558 18.1179 27.1177C17.556 27.6796 16.7949 27.9967 16.0002 28ZM10.8252 5.85004C10.7247 5.73857 10.6503 5.60616 10.6072 5.46238C10.5642 5.31861 10.5537 5.16706 10.5764 5.01872C10.5991 4.87037 10.6546 4.72893 10.7387 4.60464C10.8228 4.48034 10.9335 4.3763 11.0627 4.30004C12.5909 3.43521 14.3194 2.98692 16.0752 3.00004C21.5377 3.03754 25.9752 7.57504 25.9752 13.1125V14C25.9752 16.7375 26.3252 19.0125 27.0252 20.8C27.1057 21.016 27.1091 21.2532 27.0349 21.4715C26.9606 21.6897 26.8132 21.8756 26.6176 21.9976C26.422 22.1197 26.1903 22.1704 25.9616 22.1412C25.733 22.1121 25.5214 22.0048 25.3627 21.8375L10.8252 5.85004Z" fill="#49536E"/>
</svg>
