<svg width="32" height="32" viewBox="0 0 32 32" fill="none" xmlns="http://www.w3.org/2000/svg">
<path d="M21.001 28C21.001 28.2652 20.8956 28.5196 20.7081 28.7071C20.5205 28.8946 20.2662 29 20.001 29H12.001C11.7357 29 11.4814 28.8946 11.2938 28.7071C11.1063 28.5196 11.001 28.2652 11.001 28C11.001 27.7348 11.1063 27.4804 11.2938 27.2929C11.4814 27.1054 11.7357 27 12.001 27H20.001C20.2662 27 20.5205 27.1054 20.7081 27.2929C20.8956 27.4804 21.001 27.7348 21.001 28ZM27.6135 24C27.4384 24.3057 27.1853 24.5594 26.88 24.7351C26.5747 24.9108 26.2282 25.0022 25.876 25H6.12595C5.7737 25.0022 5.42719 24.9108 5.12189 24.7351C4.81658 24.5594 4.56347 24.3057 4.38845 24C4.21493 23.6926 4.1248 23.3451 4.12699 22.9921C4.12918 22.6391 4.22363 22.2928 4.40095 21.9875C5.13845 20.7125 6.02595 18.2875 6.02595 14V13C6.02431 11.6884 6.28102 10.3894 6.78142 9.177C7.28182 7.96463 8.01612 6.86269 8.94238 5.93411C9.86865 5.00552 10.9687 4.26847 12.1799 3.76503C13.391 3.2616 14.6894 3.00164 16.001 3H16.076C21.5385 3.0375 25.976 7.575 25.976 13.1125V14C25.976 18.2875 26.8635 20.7125 27.601 21.9875C27.7783 22.2928 27.8727 22.6391 27.8749 22.9921C27.8771 23.3451 27.787 23.6926 27.6135 24V24ZM19.501 18C19.501 17.7348 19.3956 17.4804 19.2081 17.2929C19.0205 17.1054 18.7662 17 18.501 17H15.6385L19.2635 12.6375C19.3876 12.4932 19.4668 12.3156 19.4912 12.1268C19.5156 11.938 19.4843 11.7462 19.401 11.575C19.3219 11.403 19.195 11.2573 19.0354 11.1553C18.8758 11.0534 18.6903 10.9995 18.501 11H13.501C13.2357 11 12.9814 11.1054 12.7938 11.2929C12.6063 11.4804 12.501 11.7348 12.501 12C12.501 12.2652 12.6063 12.5196 12.7938 12.7071C12.9814 12.8946 13.2357 13 13.501 13H16.3635L12.7385 17.3625C12.6143 17.5068 12.5351 17.6844 12.5107 17.8732C12.4863 18.062 12.5176 18.2538 12.601 18.425C12.6801 18.597 12.8069 18.7427 12.9665 18.8447C13.1261 18.9466 13.3116 19.0005 13.501 19H18.501C18.7662 19 19.0205 18.8946 19.2081 18.7071C19.3956 18.5196 19.501 18.2652 19.501 18Z" fill="#49536E"/>
</svg>
