<svg width="32" height="32" viewBox="0 0 32 32" fill="none" xmlns="http://www.w3.org/2000/svg">
<path d="M29.5502 9.16257L26.6502 7.23757C26.1097 5.53071 24.9763 4.07353 23.4551 3.12943C21.9338 2.18532 20.125 1.81657 18.3555 2.08984C16.5861 2.36311 14.9728 3.26036 13.8072 4.61941C12.6416 5.97846 12.0007 7.70965 12.0002 9.50007V11.6501L0.225248 26.3751C0.107792 26.5218 0.0340493 26.6986 0.0124729 26.8853C-0.00910342 27.072 0.02236 27.2609 0.103256 27.4306C0.184153 27.6002 0.311208 27.7436 0.469856 27.8443C0.628505 27.945 0.812326 27.999 1.00025 28.0001H14.0002C17.446 27.9935 20.7488 26.6217 23.1853 24.1852C25.6219 21.7486 26.9936 18.4459 27.0002 15.0001V12.5376L29.5502 10.8376C29.6895 10.7467 29.8039 10.6225 29.8831 10.4763C29.9623 10.3301 30.0038 10.1664 30.0038 10.0001C30.0038 9.83377 29.9623 9.67009 29.8831 9.52386C29.8039 9.37762 29.6895 9.25345 29.5502 9.16257ZM13.7627 17.6376L8.76275 23.6376C8.58501 23.8078 8.35075 23.9065 8.10479 23.9148C7.85883 23.9231 7.61844 23.8404 7.42964 23.6826C7.24083 23.5247 7.11687 23.3028 7.08146 23.0592C7.04606 22.8157 7.1017 22.5677 7.23775 22.3626L12.2377 16.3626C12.3155 16.2454 12.4171 16.1459 12.5359 16.0706C12.6547 15.9954 12.788 15.946 12.9272 15.9258C13.0664 15.9055 13.2082 15.9149 13.3436 15.9532C13.4789 15.9915 13.6046 16.058 13.7125 16.1482C13.8204 16.2384 13.908 16.3503 13.9697 16.4767C14.0314 16.6031 14.0657 16.7411 14.0705 16.8816C14.0752 17.0222 14.0503 17.1622 13.9972 17.2924C13.9442 17.4227 13.8643 17.5403 13.7627 17.6376V17.6376ZM20.5002 10.0001C20.2036 10.0001 19.9136 9.9121 19.6669 9.74728C19.4202 9.58246 19.228 9.34819 19.1144 9.0741C19.0009 8.80001 18.9712 8.49841 19.0291 8.20744C19.0869 7.91647 19.2298 7.64919 19.4396 7.43941C19.6494 7.22963 19.9166 7.08677 20.2076 7.02889C20.4986 6.97102 20.8002 7.00072 21.0743 7.11425C21.3484 7.22778 21.5826 7.42004 21.7475 7.66672C21.9123 7.91339 22.0002 8.2034 22.0002 8.50007C22.0002 8.8979 21.8422 9.27943 21.5609 9.56073C21.2796 9.84204 20.8981 10.0001 20.5002 10.0001Z" fill="#49536E"/>
</svg>
