<svg width="32" height="32" viewBox="0 0 32 32" fill="none" xmlns="http://www.w3.org/2000/svg">
<path d="M26.7366 26.325L22.8116 22.0125L18.8991 17.7H18.8866L6.73656 4.32502C6.55589 4.13601 6.30838 4.02528 6.04706 4.01655C5.78574 4.00782 5.53139 4.10179 5.33851 4.27832C5.14564 4.45485 5.02957 4.6999 5.01519 4.96097C5.0008 5.22205 5.08924 5.47837 5.26156 5.67502L14.1116 15.4125L6.39906 21.2C6.23115 21.326 6.10712 21.5015 6.04454 21.7019C5.98196 21.9022 5.984 22.1171 6.05037 22.3162C6.11674 22.5154 6.24408 22.6885 6.41435 22.8113C6.58461 22.934 6.78917 23 6.99906 23C7.21587 23.0028 7.42729 22.9324 7.59906 22.8L13.9991 18V28C14.0006 28.1858 14.0525 28.3677 14.1494 28.5262C14.2463 28.6847 14.3844 28.8139 14.5491 28.9C14.6905 28.9641 14.8438 28.9981 14.9991 29C15.2159 29.0028 15.4273 28.9324 15.5991 28.8L21.9491 24.0375L25.2616 27.675C25.3552 27.7774 25.4691 27.8592 25.5961 27.9151C25.7231 27.9711 25.8603 28 25.9991 28C26.2485 27.9976 26.4885 27.9042 26.6741 27.7375C26.7724 27.6498 26.8521 27.5433 26.9086 27.4242C26.9651 27.3052 26.9972 27.1761 27.003 27.0444C27.0089 26.9128 26.9883 26.7814 26.9425 26.6578C26.8967 26.5342 26.8267 26.4211 26.7366 26.325V26.325ZM15.9991 26V18L17.4741 19.1L20.5991 22.55L15.9991 26Z" fill="#49536E"/>
<path d="M15 9.95C15.2652 9.95 15.5196 9.84464 15.7071 9.65711C15.8946 9.46957 16 9.21522 16 8.95V6L21.3375 10L18.2125 12.3375C18.1061 12.4152 18.0163 12.5135 17.9484 12.6265C17.8805 12.7394 17.836 12.8649 17.8173 12.9953C17.7987 13.1258 17.8063 13.2587 17.8399 13.3862C17.8734 13.5136 17.9321 13.6331 18.0125 13.7375C18.1043 13.8632 18.2248 13.9651 18.3639 14.0346C18.5031 14.1042 18.6569 14.1395 18.8125 14.1375C19.0287 14.1366 19.239 14.0665 19.4125 13.9375L23.6 10.8C23.7242 10.7069 23.825 10.5861 23.8944 10.4472C23.9639 10.3084 24 10.1552 24 10C24 9.84476 23.9639 9.69164 23.8944 9.55279C23.825 9.41393 23.7242 9.29315 23.6 9.2L15.6 3.2C15.4514 3.08857 15.2748 3.02072 15.0898 3.00404C14.9048 2.98736 14.7189 3.02252 14.5528 3.10557C14.3867 3.18863 14.247 3.31629 14.1493 3.47427C14.0517 3.63225 14 3.81429 14 4V8.95C14 9.21522 14.1054 9.46957 14.2929 9.65711C14.4804 9.84464 14.7348 9.95 15 9.95Z" fill="#49536E"/>
</svg>
