<svg width="32" height="32" viewBox="0 0 32 32" fill="none" xmlns="http://www.w3.org/2000/svg">
<path d="M23.6 21.2L16.6625 16L19.6 13.8C19.7051 13.7212 19.7936 13.6225 19.8605 13.5095C19.9274 13.3965 19.9714 13.2714 19.99 13.1414C20.0085 13.0114 20.0013 12.879 19.9687 12.7518C19.9361 12.6246 19.8788 12.5051 19.8 12.4C19.6389 12.1906 19.4023 12.0524 19.1407 12.0151C18.8791 11.9777 18.6133 12.0441 18.4 12.2L16 14V6L18.4 7.8C18.6122 7.95913 18.8789 8.02746 19.1414 7.98995C19.404 7.95244 19.6409 7.81217 19.8 7.6C19.9559 7.38669 20.0223 7.12087 19.9849 6.8593C19.9476 6.59772 19.8094 6.36112 19.6 6.2L15.6 3.2C15.4514 3.08857 15.2748 3.02072 15.0898 3.00404C14.9048 2.98736 14.7189 3.02252 14.5528 3.10557C14.3867 3.18863 14.247 3.31629 14.1493 3.47427C14.0517 3.63225 14 3.81429 14 4V14L7.6 9.2C7.38669 9.04407 7.12087 8.9777 6.8593 9.01507C6.59772 9.05244 6.36112 9.19058 6.2 9.4C6.12121 9.50506 6.06388 9.62461 6.03129 9.75182C5.99869 9.87903 5.99148 10.0114 6.01005 10.1414C6.02862 10.2714 6.07262 10.3965 6.13953 10.5095C6.20643 10.6225 6.29494 10.7212 6.4 10.8L13.3375 16L6.4 21.2C6.23209 21.3259 6.10807 21.5015 6.04549 21.7018C5.98291 21.9022 5.98495 22.1171 6.05132 22.3162C6.11769 22.5153 6.24502 22.6885 6.41529 22.8112C6.58556 22.934 6.79012 23 7 23C7.21682 23.0028 7.42824 22.9323 7.6 22.8L14 18V28C14.0015 28.1858 14.0535 28.3676 14.1504 28.5262C14.2472 28.6847 14.3854 28.8139 14.55 28.9C14.6919 28.9627 14.8449 28.9967 15 29C15.2168 29.0028 15.4282 28.9323 15.6 28.8L23.6 22.8C23.7242 22.7069 23.825 22.5861 23.8944 22.4472C23.9639 22.3084 24 22.1552 24 22C24 21.8448 23.9639 21.6916 23.8944 21.5528C23.825 21.4139 23.7242 21.2931 23.6 21.2ZM16 26V18L21.3375 22L16 26Z" fill="#49536E"/>
<path d="M27.4123 9.99996L29.7123 7.71246C29.8717 7.51817 29.9532 7.2715 29.9409 7.02045C29.9286 6.7694 29.8233 6.53191 29.6456 6.35417C29.4678 6.17644 29.2303 6.07117 28.9793 6.05884C28.7282 6.04651 28.4816 6.128 28.2873 6.28746L25.9998 8.58746L23.7123 6.28746C23.518 6.128 23.2713 6.04651 23.0203 6.05884C22.7692 6.07117 22.5317 6.17644 22.354 6.35417C22.1762 6.53191 22.071 6.7694 22.0586 7.02045C22.0463 7.2715 22.1278 7.51817 22.2873 7.71246L24.5873 9.99996L22.2873 12.2875C22.0995 12.4771 21.9941 12.7331 21.9941 13C21.9941 13.2668 22.0995 13.5229 22.2873 13.7125C22.4784 13.8973 22.7339 14.0006 22.9998 14.0006C23.2656 14.0006 23.5211 13.8973 23.7123 13.7125L25.9998 11.4125L28.2873 13.7125C28.4784 13.8973 28.7339 14.0006 28.9998 14.0006C29.2656 14.0006 29.5211 13.8973 29.7123 13.7125C29.9 13.5229 30.0054 13.2668 30.0054 13C30.0054 12.7331 29.9 12.4771 29.7123 12.2875L27.4123 9.99996Z" fill="#49536E"/>
</svg>
