<svg width="32" height="32" viewBox="0 0 32 32" fill="none" xmlns="http://www.w3.org/2000/svg">
<path d="M10.837 5.53733L4.18703 15.9998L10.837 26.4623C10.9086 26.572 10.9577 26.6948 10.9814 26.8236C11.005 26.9524 11.0029 27.0847 10.9749 27.2126C10.947 27.3406 10.8939 27.4617 10.8187 27.569C10.7436 27.6762 10.6478 27.7674 10.537 27.8373C10.3787 27.9451 10.1911 28.0018 9.99953 27.9998C9.83218 28 9.66752 27.9577 9.52103 27.8768C9.37453 27.7959 9.251 27.6791 9.16203 27.5373L2.16203 16.5373C2.05819 16.3773 2.00293 16.1906 2.00293 15.9998C2.00293 15.8091 2.05819 15.6224 2.16203 15.4623L9.16203 4.46233C9.22551 4.33797 9.31433 4.22829 9.42277 4.14033C9.53121 4.05238 9.65686 3.98811 9.79164 3.95167C9.92642 3.91522 10.0673 3.9074 10.2053 3.92871C10.3433 3.95002 10.4753 3.99999 10.5928 4.07541C10.7103 4.15082 10.8107 4.25 10.8876 4.36657C10.9644 4.48314 11.016 4.61451 11.039 4.75222C11.062 4.88994 11.0559 5.03094 11.0211 5.16616C10.9864 5.30138 10.9236 5.42781 10.837 5.53733V5.53733ZM29.837 15.4623L22.837 4.46233C22.7735 4.33797 22.6847 4.22829 22.5763 4.14033C22.4678 4.05238 22.3422 3.98811 22.2074 3.95167C22.0726 3.91522 21.9317 3.9074 21.7937 3.92871C21.6557 3.95002 21.5237 3.99999 21.4062 4.07541C21.2887 4.15082 21.1883 4.25 21.1115 4.36657C21.0346 4.48314 20.983 4.61451 20.96 4.75222C20.937 4.88994 20.9431 5.03094 20.9779 5.16616C21.0127 5.30138 21.0754 5.42781 21.162 5.53733L27.812 15.9998L21.162 26.4623C21.0904 26.572 21.0414 26.6948 21.0177 26.8236C20.994 26.9524 20.9962 27.0847 21.0241 27.2126C21.052 27.3406 21.1051 27.4617 21.1803 27.569C21.2555 27.6762 21.3513 27.7674 21.462 27.8373C21.6204 27.9451 21.808 28.0018 21.9995 27.9998C22.1669 28 22.3315 27.9577 22.478 27.8768C22.6245 27.7959 22.7481 27.6791 22.837 27.5373L29.837 16.5373C29.9409 16.3773 29.9961 16.1906 29.9961 15.9998C29.9961 15.8091 29.9409 15.6224 29.837 15.4623V15.4623Z" fill="#49536E"/>
</svg>
