<svg width="32" height="32" viewBox="0 0 32 32" fill="none" xmlns="http://www.w3.org/2000/svg">
<path d="M31.0009 16.5C31.001 15.1753 30.6252 13.8777 29.9171 12.7581C29.2091 11.6385 28.1978 10.7428 27.0009 10.175V9.00003C27.0001 7.71144 26.5843 6.45738 25.8153 5.42342C25.0463 4.38946 23.9649 3.63055 22.731 3.25899C21.4972 2.88744 20.1765 2.92297 18.9644 3.36035C17.7523 3.79773 16.7132 4.61371 16.0009 5.68753C15.2886 4.61371 14.2496 3.79773 13.0375 3.36035C11.8254 2.92297 10.5047 2.88744 9.27086 3.25899C8.03701 3.63055 6.95555 4.38946 6.18654 5.42342C5.41753 6.45738 5.00182 7.71144 5.00094 9.00003V10.175C3.80386 10.7426 2.79243 11.6383 2.0842 12.7579C1.37596 13.8776 1 15.1752 1 16.5C1 17.8249 1.37596 19.1225 2.0842 20.2421C2.79243 21.3618 3.80386 22.2574 5.00094 22.825V23C5.00182 24.2886 5.41753 25.5427 6.18654 26.5766C6.95555 27.6106 8.03701 28.3695 9.27086 28.7411C10.5047 29.1126 11.8254 29.0771 13.0375 28.6397C14.2496 28.2023 15.2886 27.3863 16.0009 26.3125C16.7132 27.3863 17.7523 28.2023 18.9644 28.6397C20.1765 29.0771 21.4972 29.1126 22.731 28.7411C23.9649 28.3695 25.0463 27.6106 25.8153 26.5766C26.5843 25.5427 27.0001 24.2886 27.0009 23V22.825C28.1969 22.2561 29.2073 21.3601 29.9152 20.2407C30.6231 19.1214 30.9995 17.8244 31.0009 16.5V16.5ZM11.0009 27C10.0141 26.9994 9.06224 26.6341 8.32847 25.9741C7.5947 25.3142 7.13079 24.4063 7.02594 23.425C7.34844 23.4758 7.67446 23.5009 8.00094 23.5H9.00094C9.26615 23.5 9.52051 23.3947 9.70804 23.2071C9.89558 23.0196 10.0009 22.7652 10.0009 22.5C10.0009 22.2348 9.89558 21.9805 9.70804 21.7929C9.52051 21.6054 9.26615 21.5 9.00094 21.5H8.00094C6.82259 21.498 5.68281 21.0799 4.78268 20.3195C3.88256 19.559 3.27993 18.5051 3.08113 17.3436C2.88232 16.1822 3.1001 14.9878 3.69606 13.9713C4.29201 12.9547 5.22784 12.1813 6.33844 11.7875C6.53277 11.7159 6.70047 11.5865 6.81894 11.4166C6.9374 11.2467 7.00092 11.0446 7.00094 10.8375V9.00003C7.00094 7.93916 7.42236 6.92175 8.17251 6.1716C8.92266 5.42146 9.94007 5.00003 11.0009 5.00003C12.0618 5.00003 13.0792 5.42146 13.8294 6.1716C14.5795 6.92175 15.0009 7.93916 15.0009 9.00003V18.5375C13.9061 17.5439 12.4794 16.9955 11.0009 17C10.7357 17 10.4814 17.1054 10.2938 17.2929C10.1063 17.4805 10.0009 17.7348 10.0009 18C10.0009 18.2652 10.1063 18.5196 10.2938 18.7071C10.4814 18.8947 10.7357 19 11.0009 19C12.0618 19 13.0792 19.4215 13.8294 20.1716C14.5795 20.9217 15.0009 21.9392 15.0009 23C15.0009 24.0609 14.5795 25.0783 13.8294 25.8285C13.0792 26.5786 12.0618 27 11.0009 27ZM24.0009 21.5H23.0009C22.7357 21.5 22.4814 21.6054 22.2938 21.7929C22.1063 21.9805 22.0009 22.2348 22.0009 22.5C22.0009 22.7652 22.1063 23.0196 22.2938 23.2071C22.4814 23.3947 22.7357 23.5 23.0009 23.5H24.0009C24.3274 23.5009 24.6534 23.4758 24.9759 23.425C24.8938 24.1938 24.5906 24.9222 24.1032 25.5222C23.6157 26.1223 22.9648 26.5682 22.2291 26.806C21.4935 27.0439 20.7048 27.0634 19.9583 26.8624C19.2118 26.6613 18.5395 26.2482 18.0229 25.6731C17.5063 25.098 17.1674 24.3855 17.0472 23.6217C16.927 22.858 17.0308 22.0759 17.3458 21.3699C17.6609 20.6639 18.1738 20.0643 18.8225 19.6438C19.4712 19.2232 20.2278 18.9996 21.0009 19C21.2662 19 21.5205 18.8947 21.708 18.7071C21.8956 18.5196 22.0009 18.2652 22.0009 18C22.0009 17.7348 21.8956 17.4805 21.708 17.2929C21.5205 17.1054 21.2662 17 21.0009 17C19.5225 16.9955 18.0957 17.5439 17.0009 18.5375V9.00003C17.0009 7.93916 17.4224 6.92175 18.1725 6.1716C18.9227 5.42146 19.9401 5.00003 21.0009 5.00003C22.0618 5.00003 23.0792 5.42146 23.8294 6.1716C24.5795 6.92175 25.0009 7.93916 25.0009 9.00003V10.8375C25.001 11.0446 25.0645 11.2467 25.1829 11.4166C25.3014 11.5865 25.4691 11.7159 25.6634 11.7875C26.774 12.1813 27.7099 12.9547 28.3058 13.9713C28.9018 14.9878 29.1196 16.1822 28.9207 17.3436C28.7219 18.5051 28.1193 19.559 27.2192 20.3195C26.3191 21.0799 25.1793 21.498 24.0009 21.5V21.5ZM7.50094 16C7.23572 16 6.98137 15.8947 6.79383 15.7071C6.60629 15.5196 6.50094 15.2652 6.50094 15C6.50094 14.7348 6.60629 14.4805 6.79383 14.2929C6.98137 14.1054 7.23572 14 7.50094 14C8.16297 13.9967 8.79694 13.7323 9.26507 13.2642C9.7332 12.796 9.99765 12.1621 10.0009 11.5V10.5C10.0009 10.2348 10.1063 9.98046 10.2938 9.79292C10.4814 9.60539 10.7357 9.50003 11.0009 9.50003C11.2662 9.50003 11.5205 9.60539 11.708 9.79292C11.8956 9.98046 12.0009 10.2348 12.0009 10.5V11.5C12.0009 12.6935 11.5268 13.8381 10.6829 14.682C9.839 15.5259 8.69441 16 7.50094 16V16ZM25.5009 15C25.5009 15.2652 25.3956 15.5196 25.208 15.7071C25.0205 15.8947 24.7662 16 24.5009 16C23.3075 16 22.1629 15.5259 21.319 14.682C20.475 13.8381 20.0009 12.6935 20.0009 11.5V10.5C20.0009 10.2348 20.1063 9.98046 20.2938 9.79292C20.4814 9.60539 20.7357 9.50003 21.0009 9.50003C21.2662 9.50003 21.5205 9.60539 21.708 9.79292C21.8956 9.98046 22.0009 10.2348 22.0009 10.5V11.5C22.0042 12.1621 22.2687 12.796 22.7368 13.2642C23.2049 13.7323 23.8389 13.9967 24.5009 14C24.7662 14 25.0205 14.1054 25.208 14.2929C25.3956 14.4805 25.5009 14.7348 25.5009 15Z" fill="#49536E"/>
</svg>
