<svg width="32" height="32" viewBox="0 0 32 32" fill="none" xmlns="http://www.w3.org/2000/svg">
<path d="M27.9996 11C28.0005 8.67528 27.3275 6.40015 26.0621 4.45C25.9693 4.31293 25.8446 4.20039 25.6987 4.12203C25.5529 4.04366 25.3902 4.00179 25.2246 4H6.77464C6.60908 4.00179 6.44641 4.04366 6.30056 4.12203C6.15471 4.20039 6.03001 4.31293 5.93714 4.45C4.80638 6.19114 4.14617 8.19562 4.02091 10.2679C3.89565 12.3403 4.30962 14.4097 5.22243 16.2743C6.13525 18.139 7.51575 19.7352 9.22929 20.9074C10.9428 22.0796 12.9309 22.7876 14.9996 22.9625V27H10.9996C10.7344 27 10.4801 27.1054 10.2925 27.2929C10.105 27.4804 9.99964 27.7348 9.99964 28C9.99964 28.2652 10.105 28.5196 10.2925 28.7071C10.4801 28.8946 10.7344 29 10.9996 29H20.9996C21.2649 29 21.5192 28.8946 21.7067 28.7071C21.8943 28.5196 21.9996 28.2652 21.9996 28C21.9996 27.7348 21.8943 27.4804 21.7067 27.2929C21.5192 27.1054 21.2649 27 20.9996 27H16.9996V22.9625C19.9972 22.7061 22.7898 21.3353 24.8263 19.1207C26.8627 16.9061 27.9949 14.0086 27.9996 11V11ZM7.33714 6H24.6621C25.374 7.2252 25.8132 8.58958 25.9496 10H6.04964C6.18609 8.58958 6.62525 7.2252 7.33714 6V6Z" fill="#49536E"/>
</svg>
