<svg width="32" height="32" viewBox="0 0 32 32" fill="none" xmlns="http://www.w3.org/2000/svg">
<path d="M16 21C18.7614 21 21 18.7614 21 16C21 13.2386 18.7614 11 16 11C13.2386 11 11 13.2386 11 16C11 18.7614 13.2386 21 16 21Z" fill="#49536E"/>
<path d="M10.3376 10.3375C10.4317 10.2455 10.5065 10.1356 10.5576 10.0144C10.6086 9.89308 10.6349 9.76281 10.6349 9.63122C10.6349 9.49963 10.6086 9.36937 10.5576 9.24808C10.5065 9.1268 10.4317 9.01695 10.3376 8.92497C10.1502 8.73796 9.89618 8.63293 9.63139 8.63293C9.36659 8.63293 9.1126 8.73796 8.92514 8.92497C8.01352 9.8395 7.28766 10.9219 6.78764 12.1125C6.26783 13.3426 6 14.6645 6 16C6 17.3354 6.26783 18.6573 6.78764 19.8875C7.28766 21.078 8.01352 22.1604 8.92514 23.075C9.11709 23.2585 9.3721 23.3613 9.63764 23.3625C9.89962 23.362 10.151 23.2588 10.3376 23.075C10.4317 22.983 10.5065 22.8731 10.5576 22.7519C10.6086 22.6306 10.6349 22.5003 10.6349 22.3687C10.6349 22.2371 10.6086 22.1069 10.5576 21.9856C10.5065 21.8643 10.4317 21.7544 10.3376 21.6625C9.61081 20.9283 9.02972 20.063 8.62514 19.1125C8.21258 18.1266 8.00013 17.0686 8.00013 16C8.00013 14.9313 8.21258 13.8733 8.62514 12.8875C9.02972 11.9369 9.61081 11.0716 10.3376 10.3375V10.3375Z" fill="#49536E"/>
<path d="M26 16C26.0046 14.6641 25.7366 13.3413 25.2125 12.1125C24.7125 10.9219 23.9867 9.8395 23.075 8.92497C22.8876 8.73796 22.6336 8.63293 22.3688 8.63293C22.104 8.63293 21.85 8.73796 21.6625 8.92497C21.5684 9.01695 21.4936 9.1268 21.4426 9.24808C21.3915 9.36937 21.3652 9.49963 21.3652 9.63122C21.3652 9.76281 21.3915 9.89308 21.4426 10.0144C21.4936 10.1356 21.5684 10.2455 21.6625 10.3375C22.3894 11.0716 22.9705 11.9369 23.375 12.8875C23.7876 13.8733 24.0001 14.9313 24.0001 16C24.0001 17.0686 23.7876 18.1266 23.375 19.1125C22.9705 20.063 22.3894 20.9283 21.6625 21.6625C21.5684 21.7544 21.4936 21.8643 21.4426 21.9856C21.3915 22.1069 21.3652 22.2371 21.3652 22.3687C21.3652 22.5003 21.3915 22.6306 21.4426 22.7519C21.4936 22.8731 21.5684 22.983 21.6625 23.075C21.8492 23.2588 22.1006 23.362 22.3625 23.3625C22.6281 23.3613 22.8831 23.2585 23.075 23.075C23.9867 22.1604 24.7125 21.078 25.2125 19.8875C25.7366 18.6587 26.0046 17.3359 26 16V16Z" fill="#49536E"/>
<path d="M4.02505 21.0626C3.34848 19.4605 2.99989 17.7391 2.99989 16.0001C2.99989 14.261 3.34848 12.5396 4.02505 10.9376C4.67209 9.39165 5.61957 7.98955 6.81255 6.81256C6.97201 6.61826 7.05351 6.3716 7.04118 6.12055C7.02885 5.8695 6.92357 5.632 6.74584 5.45427C6.56811 5.27654 6.33061 5.17126 6.07956 5.15893C5.82851 5.1466 5.58185 5.2281 5.38755 5.38756C4.02289 6.76052 2.93258 8.38114 2.17505 10.1626C1.39946 12.011 1 13.9955 1 16.0001C1 18.0046 1.39946 19.9891 2.17505 21.8376C2.93258 23.619 4.02289 25.2396 5.38755 26.6126C5.58087 26.7939 5.835 26.8965 6.10005 26.9001C6.36559 26.8989 6.62059 26.796 6.81255 26.6126C7.00033 26.423 7.10568 26.1669 7.10568 25.9001C7.10568 25.6332 7.00033 25.3772 6.81255 25.1876C5.61957 24.0106 4.67209 22.6085 4.02505 21.0626Z" fill="#49536E"/>
<path d="M29.8241 10.1625C29.0665 8.38107 27.9762 6.76045 26.6116 5.38749C26.5219 5.27824 26.4104 5.18898 26.2841 5.12544C26.1579 5.06189 26.0197 5.02549 25.8786 5.01855C25.7374 5.01162 25.5964 5.03432 25.4645 5.08518C25.3326 5.13605 25.2129 5.21395 25.113 5.31389C25.013 5.41382 24.9351 5.53357 24.8843 5.66543C24.8334 5.79729 24.8107 5.93834 24.8176 6.0795C24.8246 6.22066 24.861 6.35881 24.9245 6.48505C24.988 6.61129 25.0773 6.72283 25.1866 6.81249C26.3968 8.01661 27.3567 9.44835 28.0111 11.0252C28.6654 12.602 29.0012 14.2928 28.9991 16C29.0012 17.7072 28.6654 19.398 28.0111 20.9748C27.3567 22.5516 26.3968 23.9834 25.1866 25.1875C24.9988 25.3771 24.8934 25.6331 24.8934 25.9C24.8934 26.1668 24.9988 26.4229 25.1866 26.6125C25.3785 26.796 25.6335 26.8989 25.8991 26.9C26.1641 26.8964 26.4182 26.7938 26.6116 26.6125C27.9762 25.2395 29.0665 23.6189 29.8241 21.8375C30.5997 19.989 30.9991 18.0046 30.9991 16C30.9991 13.9954 30.5997 12.0109 29.8241 10.1625V10.1625Z" fill="#49536E"/>
</svg>
