<svg width="32" height="32" viewBox="0 0 32 32" fill="none" xmlns="http://www.w3.org/2000/svg">
<path d="M23.9133 5.87505L25.6758 4.23755C25.8675 4.05298 25.9798 3.8011 25.9892 3.53517C25.9985 3.26924 25.9041 3.01011 25.7258 2.81255C25.545 2.61875 25.2947 2.50463 25.0299 2.49526C24.765 2.48588 24.5073 2.58202 24.3133 2.76255L22.3883 4.56255C20.5236 3.22173 18.285 2.50041 15.9883 2.50041C13.6916 2.50041 11.4529 3.22173 9.58829 4.56255L7.67579 2.76255C7.48019 2.58187 7.22083 2.48629 6.95477 2.49684C6.6887 2.50739 6.43772 2.6232 6.25704 2.8188C6.07636 3.0144 5.98078 3.27376 5.99133 3.53983C6.00188 3.80589 6.11769 4.05687 6.31329 4.23755L8.07579 5.87505C6.09246 7.91736 4.98468 10.6532 4.98829 13.5001V18.5001C4.98829 21.4174 6.14722 24.2153 8.21012 26.2782C10.273 28.3411 13.0709 29.5001 15.9883 29.5001C18.9057 29.5001 21.7036 28.3411 23.7665 26.2782C25.8294 24.2153 26.9883 21.4174 26.9883 18.5001V13.5001C26.9913 10.6557 25.8887 7.92155 23.9133 5.87505V5.87505ZM15.9883 4.50005C18.3742 4.50336 20.6615 5.45263 22.3486 7.13974C24.0357 8.82685 24.985 11.1141 24.9883 13.5001V15.0001H6.98829V13.5001C6.9916 11.1141 7.94087 8.82685 9.62798 7.13974C11.3151 5.45263 13.6024 4.50336 15.9883 4.50005V4.50005ZM17.9883 11.5001C17.9883 11.2034 18.0763 10.9134 18.2411 10.6667C18.4059 10.42 18.6402 10.2278 18.9143 10.1142C19.1884 10.0007 19.49 9.971 19.7809 10.0289C20.0719 10.0868 20.3392 10.2296 20.549 10.4394C20.7587 10.6492 20.9016 10.9164 20.9595 11.2074C21.0173 11.4984 20.9876 11.8 20.8741 12.0741C20.7606 12.3482 20.5683 12.5824 20.3216 12.7473C20.075 12.9121 19.785 13.0001 19.4883 13.0001C19.0905 13.0001 18.7089 12.842 18.4276 12.5607C18.1463 12.2794 17.9883 11.8979 17.9883 11.5001ZM10.9883 11.5001C10.9883 11.2034 11.0763 10.9134 11.2411 10.6667C11.4059 10.42 11.6402 10.2278 11.9143 10.1142C12.1884 10.0007 12.49 9.971 12.7809 10.0289C13.0719 10.0868 13.3392 10.2296 13.549 10.4394C13.7587 10.6492 13.9016 10.9164 13.9595 11.2074C14.0173 11.4984 13.9876 11.8 13.8741 12.0741C13.7606 12.3482 13.5683 12.5824 13.3216 12.7473C13.075 12.9121 12.785 13.0001 12.4883 13.0001C12.0905 13.0001 11.7089 12.842 11.4276 12.5607C11.1463 12.2794 10.9883 11.8979 10.9883 11.5001Z" fill="#49536E"/>
</svg>
