<svg width="32" height="32" viewBox="0 0 32 32" fill="none" xmlns="http://www.w3.org/2000/svg">
<path d="M17 10.9375V7C17 6.73478 16.8946 6.48043 16.7071 6.29289C16.5196 6.10536 16.2652 6 16 6C15.7348 6 15.4804 6.10536 15.2929 6.29289C15.1054 6.48043 15 6.73478 15 7V10.9375C15.3731 11.4405 15.7074 11.9712 16 12.525C16.2926 11.9712 16.6269 11.4405 17 10.9375V10.9375Z" fill="#49536E"/>
<path d="M28.9254 6.3C28.4629 5.7 27.5879 5 26.0004 5C23.9129 5 21.2379 6.4125 18.8504 8.7875C18.1782 9.45446 17.5597 10.1734 17.0004 10.9375V21.5C17.0004 21.7652 16.8951 22.0196 16.7075 22.2071C16.52 22.3946 16.2656 22.5 16.0004 22.5C15.7352 22.5 15.4808 22.3946 15.2933 22.2071C15.1058 22.0196 15.0004 21.7652 15.0004 21.5V10.9375C14.4412 10.1734 13.8226 9.45446 13.1504 8.7875C10.7629 6.4125 8.08792 5 6.00042 5C4.41292 5 3.53792 5.7 3.07542 6.3C2.22542 7.3875 1.55042 9.3125 3.02542 15.2375C3.85042 18.525 5.77542 19.6 7.21292 19.925C6.86397 20.5043 6.63615 21.1483 6.54324 21.8181C6.45033 22.4879 6.49426 23.1696 6.67237 23.822C6.85048 24.4743 7.15907 25.0838 7.57947 25.6135C7.99987 26.1431 8.52335 26.582 9.11824 26.9036C9.71313 27.2252 10.3671 27.4227 11.0405 27.4843C11.7139 27.5459 12.3928 27.4702 13.0362 27.2619C13.6795 27.0535 14.2739 26.7169 14.7834 26.2722C15.2929 25.8276 15.7069 25.2842 16.0004 24.675C16.2939 25.2842 16.7079 25.8276 17.2174 26.2722C17.7269 26.7169 18.3213 27.0535 18.9647 27.2619C19.608 27.4702 20.2869 27.5459 20.9603 27.4843C21.6338 27.4227 22.2877 27.2252 22.8826 26.9036C23.4775 26.582 24.001 26.1431 24.4214 25.6135C24.8418 25.0838 25.1504 24.4743 25.3285 23.822C25.5066 23.1696 25.5505 22.4879 25.4576 21.8181C25.3647 21.1483 25.1369 20.5043 24.7879 19.925C26.2254 19.6 28.1504 18.525 28.9754 15.2375C29.8004 11.95 30.4504 8.25 28.9254 6.3Z" fill="#49536E"/>
</svg>
