<svg width="32" height="32" viewBox="0 0 32 32" fill="none" xmlns="http://www.w3.org/2000/svg">
<path d="M16.5256 3.1499C16.3682 3.05116 16.1863 2.99878 16.0006 2.99878C15.8148 2.99878 15.6329 3.05116 15.4756 3.1499C14.2183 3.96209 13.0605 4.91859 12.0256 5.9999C9.72555 8.3874 8.50055 10.9874 8.50055 13.4999C8.50055 15.489 9.29073 17.3967 10.6973 18.8032C12.1038 20.2097 14.0114 20.9999 16.0006 20.9999C17.9897 20.9999 19.8973 20.2097 21.3039 18.8032C22.7104 17.3967 23.5006 15.489 23.5006 13.4999C23.5006 7.5124 16.8131 3.3249 16.5256 3.1499ZM16.0006 18.9999C15.6061 19.0016 15.2153 18.9251 14.8505 18.7749C14.4858 18.6247 14.1544 18.4038 13.8755 18.1249C13.5966 17.846 13.3757 17.5146 13.2255 17.1499C13.0754 16.7852 12.9989 16.3943 13.0006 15.9999C13.0006 12.9999 16.0006 10.9999 16.0006 10.9999C16.0006 10.9999 19.0006 12.9999 19.0006 15.9999C19.0022 16.3943 18.9257 16.7852 18.7756 17.1499C18.6254 17.5146 18.4045 17.846 18.1256 18.1249C17.8467 18.4038 17.5153 18.6247 17.1506 18.7749C16.7858 18.9251 16.395 19.0016 16.0006 18.9999ZM27.9506 28.2999C27.8869 28.5023 27.7606 28.6791 27.5898 28.805C27.419 28.9308 27.2127 28.9991 27.0006 28.9999C26.8983 29.0017 26.7967 28.9847 26.7006 28.9499L16.0006 25.5499L5.30055 28.9499C5.20444 28.9847 5.10277 29.0017 5.00055 28.9999C4.78843 28.9991 4.58207 28.9308 4.41129 28.805C4.24052 28.6791 4.11419 28.5023 4.05055 28.2999C4.00995 28.1752 3.99459 28.0436 4.00538 27.9129C4.01617 27.7822 4.0529 27.6549 4.11341 27.5386C4.17392 27.4222 4.257 27.3191 4.35781 27.2352C4.45862 27.1513 4.57513 27.0883 4.70055 27.0499L12.7006 24.4999L4.70055 21.9499C4.56525 21.9198 4.43768 21.8618 4.32596 21.7798C4.21424 21.6977 4.12081 21.5933 4.05158 21.4732C3.98236 21.3531 3.93886 21.2199 3.92385 21.0821C3.90884 20.9443 3.92264 20.8049 3.96439 20.6727C4.00613 20.5405 4.0749 20.4184 4.16633 20.3142C4.25776 20.21 4.36986 20.126 4.4955 20.0674C4.62115 20.0089 4.75759 19.9771 4.89618 19.9741C5.03477 19.971 5.17248 19.9969 5.30055 20.0499L16.0006 23.4499L26.7006 20.0499C26.8286 19.9969 26.9663 19.971 27.1049 19.9741C27.2435 19.9771 27.38 20.0089 27.5056 20.0674C27.6312 20.126 27.7433 20.21 27.8348 20.3142C27.9262 20.4184 27.995 20.5405 28.0367 20.6727C28.0785 20.8049 28.0923 20.9443 28.0773 21.0821C28.0622 21.2199 28.0187 21.3531 27.9495 21.4732C27.8803 21.5933 27.7869 21.6977 27.6751 21.7798C27.5634 21.8618 27.4359 21.9198 27.3006 21.9499L19.3006 24.4999L27.3006 27.0499C27.426 27.0883 27.5425 27.1513 27.6433 27.2352C27.7441 27.3191 27.8272 27.4222 27.8877 27.5386C27.9482 27.6549 27.9849 27.7822 27.9957 27.9129C28.0065 28.0436 27.9912 28.1752 27.9506 28.2999V28.2999Z" fill="#49536E"/>
</svg>
