<svg width="32" height="32" viewBox="0 0 32 32" fill="none" xmlns="http://www.w3.org/2000/svg">
<path d="M26.7122 19.2875L16.7122 9.28751C16.5226 9.09973 16.2666 8.99438 15.9997 8.99438C15.7329 8.99438 15.4768 9.09973 15.2872 9.28751L5.28721 19.2875C5.15155 19.4321 5.0596 19.6121 5.02199 19.8068C4.98439 20.0015 5.00266 20.2028 5.07471 20.3875C5.15121 20.5695 5.27987 20.7248 5.44448 20.8338C5.60909 20.9428 5.80228 21.0006 5.99971 21H25.9997C26.1971 21.0006 26.3903 20.9428 26.5549 20.8338C26.7195 20.7248 26.8482 20.5695 26.9247 20.3875C26.9968 20.2028 27.015 20.0015 26.9774 19.8068C26.9398 19.6121 26.8479 19.4321 26.7122 19.2875V19.2875Z" fill="#49536E"/>
</svg>
