<svg width="32" height="32" viewBox="0 0 32 32" fill="none" xmlns="http://www.w3.org/2000/svg">
<path d="M25.3873 5.07495C25.2026 5.00291 25.0012 4.98463 24.8066 5.02223C24.6119 5.05984 24.4319 5.15179 24.2873 5.28745L15.9998 13.5875V5.99995C16.0004 5.80253 15.9425 5.60934 15.8335 5.44473C15.7246 5.28012 15.5693 5.15145 15.3873 5.07495C15.2026 5.00291 15.0012 4.98463 14.8066 5.02223C14.6119 5.05984 14.4319 5.15179 14.2873 5.28745L4.28727 15.2875C4.09948 15.477 3.99414 15.7331 3.99414 16C3.99414 16.2668 4.09948 16.5229 4.28727 16.7125L14.2873 26.7125C14.4792 26.8959 14.7342 26.9988 14.9998 27C15.1325 26.9994 15.2639 26.9739 15.3873 26.925C15.5693 26.8484 15.7246 26.7198 15.8335 26.5552C15.9425 26.3906 16.0004 26.1974 15.9998 26V18.4125L24.2873 26.7125C24.4792 26.8959 24.7342 26.9988 24.9998 27C25.1325 26.9994 25.2639 26.9739 25.3873 26.925C25.5693 26.8484 25.7246 26.7198 25.8335 26.5552C25.9425 26.3906 26.0004 26.1974 25.9998 26V5.99995C26.0004 5.80253 25.9425 5.60934 25.8335 5.44473C25.7246 5.28012 25.5693 5.15145 25.3873 5.07495V5.07495Z" fill="#49536E"/>
</svg>
