<svg width="32" height="32" viewBox="0 0 32 32" fill="none" xmlns="http://www.w3.org/2000/svg">
<path d="M20.3873 5.07495C20.2026 5.00291 20.0012 4.98463 19.8066 5.02223C19.6119 5.05984 19.4319 5.15179 19.2873 5.28745L9.28727 15.2875C9.09949 15.477 8.99414 15.7331 8.99414 16C8.99414 16.2668 9.09949 16.5229 9.28727 16.7125L19.2873 26.7125C19.4792 26.8959 19.7342 26.9988 19.9998 27C20.1325 26.9994 20.2639 26.9739 20.3873 26.925C20.5693 26.8484 20.7246 26.7198 20.8336 26.5552C20.9425 26.3906 21.0004 26.1974 20.9998 26V5.99995C21.0004 5.80253 20.9425 5.60934 20.8336 5.44473C20.7246 5.28012 20.5693 5.15145 20.3873 5.07495V5.07495Z" fill="#49536E"/>
</svg>
