<svg width="32" height="32" viewBox="0 0 32 32" fill="none" xmlns="http://www.w3.org/2000/svg">
<path d="M25.9997 15H18.4122L26.7122 6.7125C26.8479 6.56792 26.9398 6.38788 26.9774 6.19321C27.015 5.99855 26.9968 5.79722 26.9247 5.61251C26.8482 5.4305 26.7195 5.27522 26.5549 5.16622C26.3903 5.05722 26.1971 4.99939 25.9997 5H5.99971C5.80228 4.99939 5.60909 5.05722 5.44448 5.16622C5.27987 5.27522 5.15121 5.4305 5.07471 5.61251C5.00266 5.79722 4.98439 5.99855 5.02199 6.19321C5.0596 6.38788 5.15155 6.56792 5.28721 6.7125L13.5872 15H5.99971C5.80228 14.9994 5.60909 15.0572 5.44448 15.1662C5.27987 15.2752 5.15121 15.4305 5.07471 15.6125C5.00266 15.7972 4.98439 15.9985 5.02199 16.1932C5.0596 16.3879 5.15155 16.5679 5.28721 16.7125L15.2872 26.7125C15.4783 26.8973 15.7338 27.0006 15.9997 27.0006C16.2656 27.0006 16.5211 26.8973 16.7122 26.7125L26.7122 16.7125C26.8479 16.5679 26.9398 16.3879 26.9774 16.1932C27.015 15.9985 26.9968 15.7972 26.9247 15.6125C26.8482 15.4305 26.7195 15.2752 26.5549 15.1662C26.3903 15.0572 26.1971 14.9994 25.9997 15V15Z" fill="#49536E"/>
</svg>
