<svg width="32" height="32" viewBox="0 0 32 32" fill="none" xmlns="http://www.w3.org/2000/svg">
<path d="M18.4122 17H25.9997C26.1971 17.0006 26.3903 16.9428 26.5549 16.8338C26.7195 16.7248 26.8482 16.5695 26.9247 16.3875C26.9968 16.2028 27.015 16.0015 26.9774 15.8068C26.9398 15.6121 26.8479 15.4321 26.7122 15.2875L16.7122 5.28751C16.5226 5.09973 16.2666 4.99438 15.9997 4.99438C15.7329 4.99438 15.4768 5.09973 15.2872 5.28751L5.28721 15.2875C5.15155 15.4321 5.0596 15.6121 5.02199 15.8068C4.98439 16.0015 5.00266 16.2028 5.07471 16.3875C5.15121 16.5695 5.27987 16.7248 5.44448 16.8338C5.60909 16.9428 5.80228 17.0006 5.99971 17H13.5872L5.28721 25.2875C5.15155 25.4321 5.0596 25.6121 5.02199 25.8068C4.98439 26.0015 5.00266 26.2028 5.07471 26.3875C5.15121 26.5695 5.27987 26.7248 5.44448 26.8338C5.60909 26.9428 5.80228 27.0006 5.99971 27H25.9997C26.1971 27.0006 26.3903 26.9428 26.5549 26.8338C26.7195 26.7248 26.8482 26.5695 26.9247 26.3875C26.9968 26.2028 27.015 26.0015 26.9774 25.8068C26.9398 25.6121 26.8479 25.4321 26.7122 25.2875L18.4122 17Z" fill="#49536E"/>
</svg>
