<svg width="32" height="32" viewBox="0 0 32 32" fill="none" xmlns="http://www.w3.org/2000/svg">
<path d="M28.7116 18.2875C28.8994 18.477 29.0047 18.7331 29.0047 19C29.0047 19.2668 28.8994 19.5229 28.7116 19.7125C28.5205 19.8973 28.265 20.0006 27.9991 20.0006C27.7332 20.0006 27.4777 19.8973 27.2866 19.7125L24.9991 17.4125L22.7116 19.7125C22.5205 19.8973 22.265 20.0006 21.9991 20.0006C21.7332 20.0006 21.4777 19.8973 21.2866 19.7125C21.0988 19.5229 20.9935 19.2668 20.9935 19C20.9935 18.7331 21.0988 18.477 21.2866 18.2875L23.5866 16L21.2866 13.7125C21.1271 13.5182 21.0456 13.2715 21.058 13.0204C21.0703 12.7694 21.1756 12.5319 21.3533 12.3542C21.531 12.1764 21.7685 12.0712 22.0196 12.0588C22.2706 12.0465 22.5173 12.128 22.7116 12.2875L24.9991 14.5875L27.2866 12.2875C27.4809 12.128 27.7276 12.0465 27.9786 12.0588C28.2297 12.0712 28.4672 12.1764 28.6449 12.3542C28.8226 12.5319 28.9279 12.7694 28.9402 13.0204C28.9526 13.2715 28.8711 13.5182 28.7116 13.7125L26.4116 16L28.7116 18.2875ZM25.3491 20.6C25.3037 20.5531 25.2493 20.5158 25.1891 20.4904C25.129 20.4649 25.0644 20.4518 24.9991 20.4518C24.9338 20.4518 24.8692 20.4649 24.8091 20.4904C24.7489 20.5158 24.6945 20.5531 24.6491 20.6L24.1241 21.125C23.8448 21.4033 23.5133 21.6239 23.1487 21.774C22.7841 21.9241 22.3934 22.0009 21.9991 22C21.5975 22.0022 21.1996 21.9225 20.8299 21.7655C20.4602 21.6086 20.1265 21.3779 19.8491 21.0875C18.6991 19.9 18.7616 18 19.9241 16.825L20.7616 16L19.9241 15.175C18.7366 13.975 18.7116 12 19.9241 10.8375C20.4913 10.2957 21.2474 9.99655 22.0317 10.0036C22.816 10.0106 23.5667 10.3232 24.1241 10.875L24.6491 11.4C24.6945 11.4468 24.7489 11.4841 24.8091 11.5095C24.8692 11.535 24.9338 11.5481 24.9991 11.5481C25.0644 11.5481 25.129 11.535 25.1891 11.5095C25.2493 11.4841 25.3037 11.4468 25.3491 11.4L25.8741 10.875C25.9151 10.8394 25.9476 10.7952 25.9693 10.7454C25.9909 10.6957 26.0011 10.6417 25.9991 10.5875V5.47496C26.0024 5.08606 25.8963 4.70406 25.693 4.37254C25.4896 4.04102 25.1972 3.77331 24.8491 3.59996C24.477 3.42418 24.0595 3.36825 23.6542 3.4399C23.2489 3.51155 22.8759 3.70724 22.5866 3.99996L2.0366 24.55C1.76027 24.8202 1.56653 25.1636 1.47799 25.5398C1.38946 25.9161 1.40978 26.3098 1.5366 26.675C1.67367 27.0626 1.92761 27.3983 2.26342 27.6356C2.59924 27.8729 3.00039 28.0002 3.4116 28H23.9991C24.5295 28 25.0382 27.7892 25.4133 27.4142C25.7884 27.0391 25.9991 26.5304 25.9991 26V21.4C25.9985 21.348 25.987 21.2967 25.9655 21.2493C25.944 21.202 25.9129 21.1596 25.8741 21.125V21.125L25.3491 20.6Z" fill="#49536E"/>
</svg>
