<svg width="32" height="32" viewBox="0 0 32 32" fill="none" xmlns="http://www.w3.org/2000/svg">
<path d="M12.5 14.5624C12.6525 14.4729 12.7789 14.345 12.8666 14.1915C12.9543 14.038 13.0003 13.8642 13 13.6874V4.6874C13.0014 4.52631 12.9639 4.36727 12.8906 4.22381C12.8173 4.08035 12.7104 3.95672 12.5791 3.86344C12.4478 3.77015 12.2958 3.70998 12.1363 3.68803C11.9767 3.66609 11.8141 3.68302 11.6625 3.7374C9.13078 4.63926 6.93964 6.3015 5.38898 8.49658C3.83832 10.6917 3.00392 13.3123 3 15.9999C3.00135 16.7963 3.07246 17.591 3.2125 18.3749C3.24255 18.5315 3.30915 18.6788 3.4069 18.8048C3.50465 18.9308 3.63077 19.0319 3.775 19.0999C3.9081 19.1626 4.05289 19.1967 4.2 19.1999C4.37586 19.1988 4.54832 19.1514 4.7 19.0624L12.5 14.5624ZM11 6.1999V13.1124L5.0125 16.5749C5 16.3749 5 16.1874 5 15.9999C5.00384 13.973 5.56576 11.9862 6.62413 10.2575C7.68251 8.52885 9.19647 7.12499 11 6.1999V6.1999Z" fill="#49536E"/>
<path d="M27.2884 9.55C27.2755 9.53605 27.2668 9.5187 27.2634 9.5L27.2134 9.4375C26.0694 7.47875 24.4323 5.85378 22.4651 4.72435C20.4979 3.59492 18.2693 3.00041 16.0009 3C15.7357 3 15.4813 3.10536 15.2938 3.29289C15.1063 3.48043 15.0009 3.73478 15.0009 4V15.425L5.11339 21.1375C4.99815 21.2012 4.8968 21.2873 4.81532 21.3907C4.73384 21.4941 4.67386 21.6128 4.63892 21.7398C4.60398 21.8667 4.59478 21.9994 4.61186 22.1299C4.62895 22.2605 4.67197 22.3863 4.73839 22.5V22.525L4.77589 22.5875C6.21783 25.0558 8.43316 26.9801 11.079 28.0624C13.7248 29.1447 16.6537 29.3247 19.4121 28.5746C22.1706 27.8245 24.605 26.1861 26.3383 23.9129C28.0717 21.6398 29.0075 18.8586 29.0009 16C29.0039 13.7372 28.4135 11.5132 27.2884 9.55Z" fill="#49536E"/>
</svg>
