<svg width="32" height="32" viewBox="0 0 32 32" fill="none" xmlns="http://www.w3.org/2000/svg">
<path d="M27.2869 9.55C27.274 9.53604 27.2653 9.5187 27.2619 9.5L27.2119 9.4375C25.4409 6.54521 22.6099 4.45947 19.3227 3.62528C16.0355 2.79108 12.5525 3.27447 9.61673 4.97233C6.68096 6.67018 4.5249 9.44806 3.60856 12.7133C2.69222 15.9785 3.08814 19.4726 4.71187 22.45L4.73687 22.5L4.77437 22.55C6.5287 25.4745 9.36196 27.5925 12.6634 28.4475C15.9648 29.3024 19.47 28.8258 22.4233 27.1204C25.3766 25.415 27.5415 22.6174 28.4513 19.3306C29.3611 16.0439 28.9429 12.5313 27.2869 9.55ZM24.9869 9.6625L16.9994 14.2625V5.05C18.5849 5.19644 20.1198 5.68457 21.4987 6.48081C22.8775 7.27704 24.0675 8.36249 24.9869 9.6625V9.6625ZM15.9994 27C14.2374 26.9995 12.5013 26.5757 10.9373 25.7643C9.37325 24.9529 8.02701 23.7777 7.01187 22.3375L25.9869 11.3875C26.7611 13.0636 27.1009 14.9077 26.9751 16.7497C26.8492 18.5917 26.2618 20.3724 25.2668 21.9277C24.2719 23.483 22.9015 24.7628 21.2819 25.6493C19.6623 26.5357 17.8457 27.0002 15.9994 27Z" fill="#49536E"/>
</svg>
