<svg width="32" height="32" viewBox="0 0 32 32" fill="none" xmlns="http://www.w3.org/2000/svg">
<path d="M15.999 3C13.7413 2.99983 11.5224 3.58766 9.5609 4.70562C7.59937 5.82357 5.96282 7.43311 4.81237 9.37575C3.66192 11.3184 3.03724 13.5272 2.99983 15.7846C2.96242 18.042 3.51358 20.2703 4.59903 22.25L3.53653 25.9875C3.43661 26.3314 3.43026 26.6958 3.51816 27.0429C3.60605 27.3901 3.785 27.7076 4.03653 27.9625C4.28805 28.2152 4.6033 28.3952 4.94882 28.4832C5.29434 28.5712 5.65725 28.5641 5.99903 28.4625L9.74903 27.4C11.4869 28.3525 13.4195 28.8951 15.3992 28.9862C17.3788 29.0774 19.3532 28.7148 21.1712 27.926C22.9892 27.1373 24.6029 25.9433 25.8888 24.4354C27.1748 22.9275 28.0989 21.1456 28.5907 19.2258C29.0824 17.306 29.1287 15.2992 28.7261 13.3588C28.3235 11.4183 27.4825 9.59563 26.2675 8.02999C25.0525 6.46435 23.4957 5.19721 21.716 4.32542C19.9363 3.45363 17.9808 3.00027 15.999 3V3ZM19.999 19H11.999C11.7338 19 11.4795 18.8946 11.2919 18.7071C11.1044 18.5196 10.999 18.2652 10.999 18C10.999 17.7348 11.1044 17.4804 11.2919 17.2929C11.4795 17.1054 11.7338 17 11.999 17H19.999C20.2643 17 20.5186 17.1054 20.7061 17.2929C20.8937 17.4804 20.999 17.7348 20.999 18C20.999 18.2652 20.8937 18.5196 20.7061 18.7071C20.5186 18.8946 20.2643 19 19.999 19ZM19.999 15H11.999C11.7338 15 11.4795 14.8946 11.2919 14.7071C11.1044 14.5196 10.999 14.2652 10.999 14C10.999 13.7348 11.1044 13.4804 11.2919 13.2929C11.4795 13.1054 11.7338 13 11.999 13H19.999C20.2643 13 20.5186 13.1054 20.7061 13.2929C20.8937 13.4804 20.999 13.7348 20.999 14C20.999 14.2652 20.8937 14.5196 20.7061 14.7071C20.5186 14.8946 20.2643 15 19.999 15Z" fill="#49536E"/>
</svg>
