<svg width="32" height="32" viewBox="0 0 32 32" fill="none" xmlns="http://www.w3.org/2000/svg">
<path d="M15.999 3C13.7413 2.99983 11.5224 3.58766 9.5609 4.70562C7.59937 5.82357 5.96282 7.43311 4.81237 9.37575C3.66192 11.3184 3.03724 13.5272 2.99983 15.7846C2.96242 18.042 3.51358 20.2703 4.59903 22.25L3.53653 25.9875C3.43661 26.3314 3.43026 26.6958 3.51816 27.0429C3.60605 27.3901 3.785 27.7076 4.03653 27.9625C4.28805 28.2152 4.6033 28.3952 4.94882 28.4832C5.29434 28.5712 5.65725 28.5641 5.99903 28.4625L9.74903 27.4C11.4869 28.3525 13.4195 28.8951 15.3992 28.9862C17.3788 29.0774 19.3532 28.7148 21.1712 27.926C22.9892 27.1373 24.6029 25.9433 25.8888 24.4354C27.1748 22.9275 28.0989 21.1456 28.5907 19.2258C29.0824 17.306 29.1287 15.2992 28.7261 13.3588C28.3235 11.4183 27.4825 9.59563 26.2675 8.02999C25.0525 6.46435 23.4957 5.19721 21.716 4.32542C19.9363 3.45363 17.9808 3.00027 15.999 3V3ZM9.99903 17.5C9.70236 17.5 9.41235 17.412 9.16568 17.2472C8.91901 17.0824 8.72675 16.8481 8.61321 16.574C8.49968 16.2999 8.46998 15.9983 8.52786 15.7074C8.58573 15.4164 8.7286 15.1491 8.93837 14.9393C9.14815 14.7296 9.41543 14.5867 9.7064 14.5288C9.99737 14.4709 10.299 14.5006 10.5731 14.6142C10.8471 14.7277 11.0814 14.92 11.2462 15.1666C11.4111 15.4133 11.499 15.7033 11.499 16C11.499 16.3978 11.341 16.7794 11.0597 17.0607C10.7784 17.342 10.3969 17.5 9.99903 17.5ZM15.999 17.5C15.7024 17.5 15.4124 17.412 15.1657 17.2472C14.919 17.0824 14.7267 16.8481 14.6132 16.574C14.4997 16.2999 14.47 15.9983 14.5279 15.7074C14.5857 15.4164 14.7286 15.1491 14.9384 14.9393C15.1482 14.7296 15.4154 14.5867 15.7064 14.5288C15.9974 14.4709 16.299 14.5006 16.5731 14.6142C16.8471 14.7277 17.0814 14.92 17.2462 15.1666C17.4111 15.4133 17.499 15.7033 17.499 16C17.499 16.3978 17.341 16.7794 17.0597 17.0607C16.7784 17.342 16.3969 17.5 15.999 17.5ZM21.999 17.5C21.7024 17.5 21.4124 17.412 21.1657 17.2472C20.919 17.0824 20.7267 16.8481 20.6132 16.574C20.4997 16.2999 20.47 15.9983 20.5279 15.7074C20.5857 15.4164 20.7286 15.1491 20.9384 14.9393C21.1482 14.7296 21.4154 14.5867 21.7064 14.5288C21.9974 14.4709 22.299 14.5006 22.5731 14.6142C22.8471 14.7277 23.0814 14.92 23.2462 15.1666C23.4111 15.4133 23.499 15.7033 23.499 16C23.499 16.3978 23.341 16.7794 23.0597 17.0607C22.7784 17.342 22.3969 17.5 21.999 17.5Z" fill="#49536E"/>
</svg>
