<svg width="32" height="32" viewBox="0 0 32 32" fill="none" xmlns="http://www.w3.org/2000/svg">
<path d="M28.8112 23.725C29.5792 22.2914 29.9861 20.692 29.9963 19.0656C30.0066 17.4392 29.62 15.8348 28.8701 14.3916C28.1201 12.9484 27.0295 11.7098 25.6927 10.7834C24.3559 9.85695 22.8133 9.27054 21.1987 9.07502C20.667 7.83507 19.89 6.71551 18.9143 5.78374C17.9387 4.85197 16.7845 4.12726 15.5214 3.65323C14.2583 3.1792 12.9124 2.96566 11.5646 3.02545C10.2168 3.08525 8.89503 3.41715 7.67888 4.00118C6.46272 4.5852 5.37731 5.40927 4.488 6.42379C3.59868 7.4383 2.92384 8.62227 2.5041 9.90444C2.08437 11.1866 1.92841 12.5404 2.04563 13.8845C2.16284 15.2285 2.55081 16.5349 3.18616 17.725L2.41116 20.425C2.32133 20.7254 2.31444 21.0444 2.39121 21.3484C2.46797 21.6523 2.62554 21.9298 2.84721 22.1515C3.06888 22.3731 3.34639 22.5307 3.65033 22.6075C3.95427 22.6842 4.27332 22.6773 4.57366 22.5875L7.27366 21.8125C8.37022 22.397 9.56523 22.7742 10.7987 22.925C11.3435 24.2019 12.1482 25.3513 13.1615 26.3001C14.1749 27.2489 15.3747 27.9764 16.6846 28.4361C17.9944 28.8959 19.3857 29.0779 20.7697 28.9705C22.1538 28.8631 23.5004 28.4688 24.7237 27.8125L27.4237 28.5875C27.724 28.6773 28.043 28.6842 28.347 28.6075C28.6509 28.5307 28.9284 28.3731 29.1501 28.1515C29.3718 27.9298 29.5293 27.6523 29.6061 27.3484C29.6829 27.0444 29.676 26.7254 29.5862 26.425L28.8112 23.725ZM26.8862 23.0875C26.8134 23.2013 26.7657 23.3293 26.7463 23.4629C26.7269 23.5965 26.7363 23.7328 26.7737 23.8625L27.5487 26.55L24.8612 25.775C24.7314 25.7376 24.5952 25.7283 24.4615 25.7477C24.3279 25.7671 24.1999 25.8148 24.0862 25.8875C23.1698 26.4282 22.1551 26.7813 21.101 26.9262C20.0469 27.0711 18.9746 27.0049 17.9463 26.7316C16.9181 26.4582 15.9544 25.9831 15.1115 25.3339C14.2685 24.6847 13.5631 23.8744 13.0362 22.95C15.4939 22.6881 17.7682 21.5274 19.4224 19.691C21.0766 17.8545 21.9941 15.4717 21.9987 13C21.9959 12.4006 21.9415 11.8026 21.8362 11.2125C23.5905 11.6265 25.1535 12.6208 26.272 14.0343C27.3906 15.4478 27.999 17.1975 27.9987 19C27.997 20.4371 27.613 21.8478 26.8862 23.0875V23.0875Z" fill="#49536E"/>
</svg>
