<svg width="32" height="32" viewBox="0 0 32 32" fill="none" xmlns="http://www.w3.org/2000/svg">
<path d="M15.999 3C13.7413 2.99983 11.5224 3.58766 9.5609 4.70562C7.59937 5.82357 5.96282 7.43311 4.81237 9.37575C3.66192 11.3184 3.03724 13.5272 2.99983 15.7846C2.96242 18.042 3.51358 20.2703 4.59903 22.25L3.53653 26C3.43742 26.3417 3.43184 26.7038 3.5204 27.0484C3.60896 27.393 3.78839 27.7075 4.03998 27.9591C4.29157 28.2106 4.60607 28.3901 4.95067 28.4786C5.29527 28.5672 5.65732 28.5616 5.99903 28.4625L9.74903 27.4C11.4869 28.3525 13.4195 28.8951 15.3992 28.9862C17.3788 29.0774 19.3532 28.7148 21.1712 27.926C22.9892 27.1373 24.6029 25.9433 25.8888 24.4354C27.1748 22.9275 28.0989 21.1456 28.5907 19.2258C29.0824 17.306 29.1287 15.2992 28.7261 13.3588C28.3235 11.4183 27.4825 9.59563 26.2675 8.02999C25.0525 6.46435 23.4957 5.19721 21.716 4.32542C19.9363 3.45363 17.9808 3.00027 15.999 3V3Z" fill="#49536E"/>
</svg>
