<svg width="32" height="32" viewBox="0 0 32 32" fill="none" xmlns="http://www.w3.org/2000/svg">
<path d="M25.5 4.5H6.5C5.96957 4.5 5.46086 4.71071 5.08579 5.08579C4.71071 5.46086 4.5 5.96957 4.5 6.5V17.9125C4.5 18.1777 4.60536 18.4321 4.79289 18.6196C4.98043 18.8071 5.23478 18.9125 5.5 18.9125C5.76522 18.9125 6.01957 18.8071 6.20711 18.6196C6.39464 18.4321 6.5 18.1777 6.5 17.9125V6.5H25.5V25.5H16.95C16.6848 25.5 16.4304 25.6054 16.2429 25.7929C16.0554 25.9804 15.95 26.2348 15.95 26.5C15.95 26.7652 16.0554 27.0196 16.2429 27.2071C16.4304 27.3946 16.6848 27.5 16.95 27.5H25.5C26.0304 27.5 26.5391 27.2893 26.9142 26.9142C27.2893 26.5391 27.5 26.0304 27.5 25.5V6.5C27.5 5.96957 27.2893 5.46086 26.9142 5.08579C26.5391 4.71071 26.0304 4.5 25.5 4.5V4.5Z" fill="#49536E"/>
<path d="M16.7134 18.2875C16.5238 18.0997 16.2678 17.9944 16.0009 17.9944C15.7341 17.9944 15.478 18.0997 15.2884 18.2875L8.00094 25.5875L4.71344 22.2875C4.51914 22.128 4.27248 22.0466 4.02143 22.0589C3.77037 22.0712 3.53288 22.1765 3.35515 22.3542C3.17741 22.532 3.07214 22.7694 3.05981 23.0205C3.04748 23.2716 3.12898 23.5182 3.28844 23.7125L7.28844 27.7125C7.47958 27.8973 7.73506 28.0006 8.00094 28.0006C8.26682 28.0006 8.5223 27.8973 8.71344 27.7125L16.7134 19.7125C16.9012 19.5229 17.0066 19.2669 17.0066 19C17.0066 18.7332 16.9012 18.4771 16.7134 18.2875V18.2875Z" fill="#49536E"/>
</svg>
