<svg width="32" height="32" viewBox="0 0 32 32" fill="none" xmlns="http://www.w3.org/2000/svg">
<path d="M13.0009 24C12.7359 23.9964 12.4818 23.8938 12.2884 23.7125L5.28844 16.7125C5.12898 16.5182 5.04748 16.2715 5.05981 16.0205C5.07214 15.7694 5.17741 15.5319 5.35515 15.3542C5.53288 15.1764 5.77037 15.0712 6.02143 15.0588C6.27248 15.0465 6.51914 15.128 6.71344 15.2875L13.0009 21.5875L26.2884 8.28746C26.4827 8.128 26.7294 8.04651 26.9804 8.05884C27.2315 8.07117 27.469 8.17644 27.6467 8.35417C27.8245 8.53191 27.9297 8.7694 27.9421 9.02045C27.9544 9.2715 27.8729 9.51817 27.7134 9.71246L13.7134 23.7125C13.5201 23.8938 13.266 23.9964 13.0009 24Z" fill="#49536E"/>
</svg>
