<svg width="32" height="32" viewBox="0 0 32 32" fill="none" xmlns="http://www.w3.org/2000/svg">
<path d="M19.2134 11.2125L8.21344 22.2125C8.0223 22.3973 7.76682 22.5006 7.50094 22.5006C7.23506 22.5006 6.97958 22.3973 6.78844 22.2125L1.28844 16.7125C1.12898 16.5182 1.04748 16.2716 1.05981 16.0205C1.07214 15.7694 1.17741 15.532 1.35515 15.3542C1.53288 15.1765 1.77037 15.0712 2.02143 15.0589C2.27248 15.0466 2.51914 15.128 2.71344 15.2875L7.50094 20.0875L17.7884 9.78751C17.9827 9.62805 18.2294 9.54656 18.4804 9.55889C18.7315 9.57122 18.969 9.67649 19.1467 9.85422C19.3245 10.032 19.4297 10.2694 19.4421 10.5205C19.4544 10.7716 19.3729 11.0182 19.2134 11.2125V11.2125ZM30.7134 9.78751C30.5238 9.59973 30.2678 9.49438 30.0009 9.49438C29.7341 9.49438 29.478 9.59973 29.2884 9.78751L19.0009 20.0875L16.7884 17.875C16.5982 17.7027 16.349 17.61 16.0924 17.6164C15.8358 17.6227 15.5914 17.7274 15.4099 17.909C15.2284 18.0905 15.1236 18.3348 15.1173 18.5914C15.111 18.8481 15.2036 19.0973 15.3759 19.2875L18.2884 22.2125C18.4796 22.3973 18.7351 22.5006 19.0009 22.5006C19.2668 22.5006 19.5223 22.3973 19.7134 22.2125L30.7134 11.2125C30.9012 11.0229 31.0066 10.7669 31.0066 10.5C31.0066 10.2332 30.9012 9.9771 30.7134 9.78751V9.78751Z" fill="#49536E"/>
</svg>
