<svg width="32" height="32" viewBox="0 0 32 32" fill="none" xmlns="http://www.w3.org/2000/svg">
<path d="M8.22363 6.81246C8.41064 6.99993 8.51566 7.25391 8.51566 7.51871C8.51566 7.78351 8.41064 8.0375 8.22363 8.22496C6.8567 9.58716 5.87358 11.2861 5.37362 13.15C5.31656 13.3626 5.19173 13.5509 5.01805 13.6862C4.84436 13.8216 4.63129 13.8966 4.41112 13.9L4.14862 13.8625C4.02126 13.8291 3.90175 13.7708 3.79695 13.6911C3.69215 13.6114 3.60413 13.5118 3.53793 13.398C3.47173 13.2841 3.42865 13.1584 3.41118 13.0279C3.39371 12.8974 3.40219 12.7647 3.43612 12.6375C4.02572 10.4313 5.19038 8.42118 6.81112 6.81246C6.9031 6.71835 7.01295 6.64357 7.13424 6.59251C7.25552 6.54146 7.38578 6.51515 7.51737 6.51515C7.64897 6.51515 7.77923 6.54146 7.90051 6.59251C8.0218 6.64357 8.13165 6.71835 8.22363 6.81246ZM5.37362 18.85C5.30566 18.593 5.13842 18.3736 4.90869 18.24C4.67896 18.1064 4.40555 18.0695 4.14862 18.1375C3.8917 18.2054 3.67229 18.3727 3.53867 18.6024C3.40505 18.8321 3.36816 19.1055 3.43612 19.3625C4.03249 21.5695 5.19603 23.582 6.81112 25.2C6.99779 25.3838 7.24914 25.487 7.51112 25.4875C7.70786 25.4838 7.89926 25.4229 8.06193 25.3122C8.2246 25.2015 8.35148 25.0457 8.42707 24.8641C8.50265 24.6824 8.52367 24.4826 8.48753 24.2892C8.4514 24.0958 8.3597 23.9171 8.22363 23.775C6.85622 22.4131 5.87303 20.7141 5.37362 18.85V18.85ZM18.8486 26.625C16.9816 27.1252 15.0157 27.1252 13.1486 26.625C12.8917 26.557 12.6183 26.5939 12.3886 26.7275C12.1588 26.8611 11.9916 27.0805 11.9236 27.3375C11.8557 27.5944 11.8925 27.8678 12.0262 28.0975C12.1598 28.3273 12.3792 28.4945 12.6361 28.5625C13.7379 28.8514 14.8721 28.9984 16.0111 29C17.1419 28.9985 18.2679 28.8515 19.3611 28.5625C19.6181 28.4945 19.8375 28.3273 19.9711 28.0975C20.1047 27.8678 20.1416 27.5944 20.0736 27.3375C20.0057 27.0805 19.8384 26.8611 19.6087 26.7275C19.379 26.5939 19.1056 26.557 18.8486 26.625V26.625ZM27.8486 18.1375C27.7214 18.1035 27.5887 18.0951 27.4582 18.1125C27.3277 18.13 27.2019 18.1731 27.0881 18.2393C26.9743 18.3055 26.8747 18.3935 26.795 18.4983C26.7153 18.6031 26.657 18.7226 26.6236 18.85C26.1237 20.7139 25.1406 22.4128 23.7736 23.775C23.6376 23.9171 23.5458 24.0958 23.5097 24.2892C23.4736 24.4826 23.4946 24.6824 23.5702 24.8641C23.6458 25.0457 23.7727 25.2015 23.9353 25.3122C24.098 25.4229 24.2894 25.4838 24.4861 25.4875C24.6171 25.4877 24.7467 25.4612 24.8671 25.4096C24.9874 25.3581 25.096 25.2825 25.1861 25.1875C26.8069 23.5787 27.9715 21.5686 28.5611 19.3625C28.5951 19.2352 28.6035 19.1026 28.5861 18.9721C28.5686 18.8416 28.5255 18.7158 28.4593 18.602C28.3931 18.4881 28.3051 18.3885 28.2003 18.3088C28.0955 18.2291 27.976 18.1709 27.8486 18.1375ZM26.6236 13.15C26.6807 13.3626 26.8055 13.5509 26.9792 13.6862C27.1529 13.8216 27.366 13.8966 27.5861 13.9L27.8486 13.8625C27.976 13.8291 28.0955 13.7708 28.2003 13.6911C28.3051 13.6114 28.3931 13.5118 28.4593 13.398C28.5255 13.2841 28.5686 13.1584 28.5861 13.0279C28.6035 12.8974 28.5951 12.7647 28.5611 12.6375C27.9648 10.4305 26.8012 8.41797 25.1861 6.79996C25.0933 6.70666 24.9828 6.63284 24.8611 6.58286C24.7393 6.53287 24.6088 6.50772 24.4772 6.50889C24.3457 6.51005 24.2156 6.53751 24.0948 6.58964C23.974 6.64177 23.8648 6.71753 23.7736 6.81246C23.5866 6.99993 23.4816 7.25391 23.4816 7.51871C23.4816 7.78351 23.5866 8.0375 23.7736 8.22496C25.141 9.5868 26.1242 11.2858 26.6236 13.15V13.15ZM13.1486 5.37496C15.0157 4.87473 16.9816 4.87473 18.8486 5.37496C18.9339 5.39967 19.0223 5.41229 19.1111 5.41246C19.3596 5.41986 19.6019 5.33443 19.7909 5.17285C19.9798 5.01127 20.1017 4.78511 20.133 4.53848C20.1642 4.29186 20.1024 4.04245 19.9597 3.83889C19.817 3.63533 19.6036 3.49221 19.3611 3.43746C17.158 2.84995 14.8393 2.84995 12.6361 3.43746C12.3792 3.50542 12.1598 3.67267 12.0262 3.9024C11.8925 4.13213 11.8557 4.40553 11.9236 4.66246C11.9916 4.91939 12.1588 5.1388 12.3886 5.27242C12.6183 5.40604 12.8917 5.44292 13.1486 5.37496Z" fill="#49536E"/>
</svg>
