<svg width="32" height="32" viewBox="0 0 32 32" fill="none" xmlns="http://www.w3.org/2000/svg">
<path d="M16.9995 10V15.425L21.6995 18.1375C21.8884 18.2483 22.0357 18.4181 22.1187 18.6208C22.2018 18.8234 22.216 19.0478 22.1592 19.2593C22.1025 19.4708 21.9778 19.6579 21.8044 19.7917C21.631 19.9255 21.4185 19.9987 21.1995 20C21.0228 20.005 20.8487 19.9571 20.6995 19.8625L15.4995 16.8625H15.4745L15.4245 16.8375L15.387 16.8L15.3495 16.775L15.312 16.7375L15.287 16.7125C15.262 16.7 15.2495 16.675 15.237 16.6625L15.212 16.6375L15.187 16.5875L15.162 16.55L15.137 16.5125C15.1292 16.5067 15.1229 16.4991 15.1186 16.4905C15.1142 16.4818 15.112 16.4722 15.112 16.4625L15.087 16.425C15.087 16.4125 15.0745 16.4 15.0745 16.375C15.0699 16.3699 15.0665 16.364 15.0644 16.3575C15.0622 16.3511 15.0614 16.3443 15.062 16.3375L15.037 16.2875C15.0375 16.2807 15.0367 16.2739 15.0346 16.2675C15.0324 16.261 15.029 16.2551 15.0245 16.25C15.0245 16.225 15.0245 16.2125 15.012 16.2V16.15C15.012 16.125 14.9995 16.1125 14.9995 16.1V10C14.9995 9.73479 15.1048 9.48044 15.2924 9.2929C15.4799 9.10536 15.7343 9.00001 15.9995 9.00001C16.2647 9.00001 16.519 9.10536 16.7066 9.2929C16.8941 9.48044 16.9995 9.73479 16.9995 10V10ZM28.3995 6.53751C28.2163 6.46333 28.0152 6.44512 27.8216 6.48517C27.6281 6.52522 27.4507 6.62172 27.312 6.76251L25.5245 8.55001L24.487 7.51251C22.8085 5.8349 20.6703 4.69264 18.3427 4.23012C16.0151 3.76761 13.6026 4.00562 11.4103 4.91405C9.21791 5.82249 7.34413 7.36056 6.02584 9.33382C4.70754 11.3071 4.00391 13.6269 4.00391 16C4.00391 18.3731 4.70754 20.6929 6.02584 22.6662C7.34413 24.6395 9.21791 26.1775 11.4103 27.086C13.6026 27.9944 16.0151 28.2324 18.3427 27.7699C20.6703 27.3074 22.8085 26.1651 24.487 24.4875C24.674 24.3 24.779 24.0461 24.779 23.7813C24.779 23.5165 24.674 23.2625 24.487 23.075C24.395 22.9809 24.2851 22.9061 24.1639 22.8551C24.0426 22.804 23.9123 22.7777 23.7807 22.7777C23.6491 22.7777 23.5189 22.804 23.3976 22.8551C23.2763 22.9061 23.1664 22.9809 23.0745 23.075C21.6755 24.4724 19.8937 25.4237 17.9541 25.8087C16.0146 26.1936 14.0045 25.9949 12.1779 25.2377C10.3513 24.4805 8.79019 23.1988 7.69187 21.5546C6.59354 19.9103 6.00733 17.9773 6.00733 16C6.00733 14.0227 6.59354 12.0897 7.69187 10.4455C8.79019 8.80121 10.3513 7.51948 12.1779 6.76227C14.0045 6.00507 16.0146 5.80639 17.9541 6.19134C19.8937 6.57629 21.6755 7.52759 23.0745 8.92501L24.112 9.9625L22.312 11.7625C22.1742 11.903 22.081 12.0811 22.044 12.2744C22.0069 12.4677 22.0278 12.6676 22.1038 12.849C22.1799 13.0305 22.3078 13.1856 22.4716 13.2947C22.6354 13.4038 22.8277 13.4622 23.0245 13.4625H28.0245C28.2897 13.4625 28.544 13.3571 28.7316 13.1696C28.9191 12.9821 29.0245 12.7277 29.0245 12.4625V7.46251C29.0208 7.26441 28.9599 7.07162 28.8489 6.90745C28.738 6.74329 28.5819 6.61479 28.3995 6.53751V6.53751Z" fill="#49536E"/>
</svg>
