<svg width="32" height="32" viewBox="0 0 32 32" fill="none" xmlns="http://www.w3.org/2000/svg">
<path d="M16.9996 9.99997V15.425L21.6996 18.1375C21.8885 18.2483 22.0358 18.4181 22.1189 18.6207C22.2019 18.8234 22.2162 19.0477 22.1594 19.2593C22.1026 19.4708 21.9779 19.6578 21.8045 19.7916C21.6312 19.9255 21.4186 19.9986 21.1996 20C21.023 20.0049 20.8489 19.9571 20.6996 19.8625L15.4996 16.8625H15.4746L15.4246 16.8375L15.3871 16.8L15.3496 16.775L15.3121 16.7375L15.2871 16.7125C15.2621 16.7 15.2496 16.675 15.2371 16.6625L15.2121 16.6375L15.1871 16.5875L15.1621 16.55L15.1371 16.5125C15.1293 16.5066 15.123 16.4991 15.1187 16.4904C15.1144 16.4817 15.1121 16.4722 15.1121 16.4625L15.0871 16.425C15.0871 16.4125 15.0746 16.4 15.0746 16.375C15.0701 16.3699 15.0666 16.364 15.0645 16.3575C15.0623 16.3511 15.0615 16.3442 15.0621 16.3375L15.0371 16.2875C15.0377 16.2807 15.0369 16.2739 15.0347 16.2674C15.0326 16.261 15.0291 16.255 15.0246 16.25C15.0246 16.225 15.0246 16.2125 15.0121 16.2V16.15C15.0121 16.125 14.9996 16.1125 14.9996 16.1V9.99997C14.9996 9.73475 15.105 9.4804 15.2925 9.29286C15.48 9.10533 15.7344 8.99997 15.9996 8.99997C16.2648 8.99997 16.5192 9.10533 16.7067 9.29286C16.8943 9.4804 16.9996 9.73475 16.9996 9.99997V9.99997ZM24.4871 7.51247C22.2333 5.26679 19.1813 4.00586 15.9996 4.00586C12.8179 4.00586 9.76597 5.26679 7.51211 7.51247L6.47461 8.54997L4.68711 6.76247C4.54837 6.62169 4.37102 6.52518 4.17746 6.48513C3.98391 6.44509 3.78282 6.4633 3.59961 6.53747C3.41718 6.61475 3.26106 6.74325 3.15013 6.90742C3.03921 7.07158 2.97824 7.26438 2.97461 7.46247V12.4625C2.97461 12.7277 3.07997 12.982 3.2675 13.1696C3.45504 13.3571 3.70939 13.4625 3.97461 13.4625H8.97461C9.1714 13.4621 9.36372 13.4038 9.52748 13.2946C9.69125 13.1855 9.81917 13.0305 9.89524 12.849C9.97131 12.6675 9.99213 12.4676 9.95511 12.2743C9.91809 12.0811 9.82486 11.903 9.68711 11.7625L7.88711 9.96247L8.92461 8.92497C10.3236 7.52756 12.1054 6.57625 14.0449 6.1913C15.9844 5.80635 17.9945 6.00504 19.8211 6.76224C21.6478 7.51944 23.2089 8.80117 24.3072 10.4454C25.4055 12.0897 25.9917 14.0226 25.9917 16C25.9917 17.9773 25.4055 19.9103 24.3072 21.5545C23.2089 23.1988 21.6478 24.4805 19.8211 25.2377C17.9945 25.9949 15.9844 26.1936 14.0449 25.8086C12.1054 25.4237 10.3236 24.4724 8.92461 23.075C8.83264 22.9809 8.72278 22.9061 8.6015 22.855C8.48022 22.804 8.34995 22.7777 8.21836 22.7777C8.08677 22.7777 7.9565 22.804 7.83522 22.855C7.71394 22.9061 7.60408 22.9809 7.51211 23.075C7.3251 23.2624 7.22007 23.5164 7.22007 23.7812C7.22007 24.046 7.3251 24.3 7.51211 24.4875C9.76313 26.7385 12.8162 28.0031 15.9996 28.0031C19.183 28.0031 22.2361 26.7385 24.4871 24.4875C26.7381 22.2364 28.0027 19.1834 28.0027 16C28.0027 12.8165 26.7381 9.76349 24.4871 7.51247V7.51247Z" fill="#49536E"/>
</svg>
