<svg width="32" height="32" viewBox="0 0 32 32" fill="none" xmlns="http://www.w3.org/2000/svg">
<path d="M6.7375 4.32502C6.55683 4.13601 6.30933 4.02528 6.048 4.01655C5.78668 4.00782 5.53234 4.10179 5.33946 4.27832C5.14658 4.45485 5.03052 4.6999 5.01613 4.96097C5.00175 5.22205 5.09019 5.47837 5.2625 5.67502L10.1625 11.0625V11.0875C9.77796 11.0273 9.38922 10.998 9 11C6.87827 11 4.84344 11.8429 3.34315 13.3432C1.84285 14.8435 1 16.8783 1 19C1 21.1218 1.84285 23.1566 3.34315 24.6569C4.84344 26.1572 6.87827 27 9 27H20C21.3592 27.0022 22.707 26.7521 23.975 26.2625L25.2625 27.675C25.3562 27.7774 25.4701 27.8592 25.5971 27.9151C25.724 27.9711 25.8613 28 26 28C26.2494 27.9976 26.4894 27.9042 26.675 27.7375C26.7733 27.6498 26.853 27.5433 26.9095 27.4242C26.966 27.3052 26.9981 27.1761 27.004 27.0444C27.0098 26.9128 26.9892 26.7814 26.9435 26.6578C26.8977 26.5342 26.8277 26.4211 26.7375 26.325L6.7375 4.32502Z" fill="#49536E"/>
<path d="M20.0014 5.00004C17.6572 4.9937 15.3734 5.74327 13.4889 7.13754C13.3767 7.21952 13.2831 7.32424 13.2142 7.44486C13.1453 7.56548 13.1026 7.69929 13.0889 7.83754C13.0722 7.97711 13.086 8.11862 13.1291 8.25239C13.1723 8.38616 13.2438 8.50901 13.3389 8.61254L26.7264 23.3375C26.8205 23.4393 26.9346 23.5207 27.0614 23.5766C27.1883 23.6325 27.3253 23.6617 27.4639 23.6625V23.6625C27.6038 23.6625 27.7422 23.6324 27.8694 23.5741C27.9967 23.5159 28.1099 23.4309 28.2014 23.325C29.6144 21.742 30.5394 19.784 30.8649 17.6871C31.1903 15.5903 30.9024 13.444 30.0356 11.5071C29.1689 9.57021 27.7605 7.92534 25.9801 6.77078C24.1997 5.61622 22.1234 5.00127 20.0014 5.00004V5.00004Z" fill="#49536E"/>
</svg>
