<svg width="32" height="32" viewBox="0 0 32 32" fill="none" xmlns="http://www.w3.org/2000/svg">
<path d="M8.76391 10.3624C8.68171 10.2601 8.5797 10.1754 8.46399 10.1135C8.34828 10.0515 8.22125 10.0136 8.09052 10.0019C7.95979 9.99024 7.82805 10.0051 7.70319 10.0455C7.57834 10.086 7.46294 10.1513 7.36391 10.2374L1.36391 15.2374C1.25134 15.3301 1.16068 15.4465 1.09843 15.5783C1.03619 15.7101 1.00391 15.8541 1.00391 15.9999C1.00391 16.1457 1.03619 16.2897 1.09843 16.4215C1.16068 16.5534 1.25134 16.6698 1.36391 16.7624L7.36391 21.7624C7.46294 21.8486 7.57834 21.9138 7.70319 21.9543C7.82805 21.9947 7.95979 22.0096 8.09052 21.9979C8.22125 21.9862 8.34828 21.9483 8.46399 21.8864C8.5797 21.8244 8.68171 21.7397 8.76391 21.6374C8.85005 21.5384 8.91531 21.423 8.95578 21.2981C8.99625 21.1733 9.01109 21.0415 8.99942 20.9108C8.98774 20.7801 8.9498 20.6531 8.88785 20.5373C8.8259 20.4216 8.74123 20.3196 8.63891 20.2374L3.56391 15.9999L8.63891 11.7624C8.74123 11.6802 8.8259 11.5782 8.88785 11.4625C8.9498 11.3468 8.98774 11.2198 8.99942 11.089C9.01109 10.9583 8.99625 10.8266 8.95578 10.7017C8.91531 10.5768 8.85005 10.4614 8.76391 10.3624V10.3624Z" fill="#49536E"/>
<path d="M30.6378 15.2375L24.6378 10.2375C24.4328 10.1014 24.1847 10.0458 23.9412 10.0812C23.6976 10.1166 23.4757 10.2406 23.3178 10.4294C23.16 10.6182 23.0773 10.8586 23.0856 11.1045C23.0939 11.3505 23.1926 11.5848 23.3628 11.7625L28.4378 16L23.3628 20.2375C23.2073 20.3694 23.0958 20.5458 23.0434 20.7429C22.9909 20.94 23 21.1484 23.0694 21.3402C23.1388 21.532 23.2651 21.698 23.4315 21.8159C23.5979 21.9338 23.7964 21.9981 24.0003 22C24.2347 22.0011 24.4613 21.9166 24.6378 21.7625L30.6378 16.7625C30.7504 16.6699 30.8411 16.5534 30.9033 16.4216C30.9656 16.2898 30.9978 16.1458 30.9978 16C30.9978 15.8542 30.9656 15.7102 30.9033 15.5784C30.8411 15.4466 30.7504 15.3301 30.6378 15.2375V15.2375Z" fill="#49536E"/>
<path d="M20.3384 4.06242C20.2154 4.01687 20.0845 3.99628 19.9534 4.00187C19.8224 4.00746 19.6937 4.03911 19.575 4.09497C19.4563 4.15083 19.35 4.22978 19.2621 4.3272C19.1743 4.42463 19.1067 4.53859 19.0634 4.66242L11.0634 26.6624C11.0178 26.7854 10.9973 26.9163 11.0028 27.0474C11.0084 27.1784 11.0401 27.3071 11.0959 27.4258C11.1518 27.5445 11.2308 27.6509 11.3282 27.7387C11.4256 27.8265 11.5396 27.8941 11.6634 27.9374C11.7718 27.9762 11.8858 27.9973 12.0009 27.9999C12.2067 28.001 12.4077 27.9377 12.5758 27.8189C12.7439 27.7001 12.8707 27.5318 12.9384 27.3374L20.9384 5.33742C20.9839 5.21439 21.0045 5.08353 20.9989 4.95246C20.9933 4.8214 20.9617 4.69276 20.9058 4.57406C20.85 4.45536 20.771 4.34898 20.6736 4.26113C20.5762 4.17329 20.4622 4.10573 20.3384 4.06242V4.06242Z" fill="#49536E"/>
</svg>
