<svg width="32" height="32" viewBox="0 0 32 32" fill="none" xmlns="http://www.w3.org/2000/svg">
<path d="M30 12.6251V20.6251C30.0003 20.8034 29.953 20.9785 29.8629 21.1324C29.7728 21.2862 29.6432 21.4132 29.4875 21.5001L17.75 28.1626C17.6737 28.2067 17.587 28.2298 17.4989 28.2296C17.4107 28.2294 17.3242 28.2059 17.248 28.1615C17.1719 28.1171 17.1089 28.0533 17.0653 27.9767C17.0217 27.9 16.9992 27.8132 17 27.7251V20.5876L23.975 16.6251L28 18.9126V14.3376L23.975 16.6251L21.95 15.4751L26.975 12.6251L17 6.96258V12.6626L21.95 15.4751L16 18.8501L10.05 15.4751L15 12.6626V6.96258L5.025 12.6251L10.05 15.4751L8.025 16.6251L4 14.3376V18.9126L8.025 16.6251L15 20.5876V27.7251C15.0008 27.8132 14.9783 27.9 14.9347 27.9767C14.8911 28.0533 14.8281 28.1171 14.752 28.1615C14.6758 28.2059 14.5893 28.2294 14.5011 28.2296C14.413 28.2298 14.3263 28.2067 14.25 28.1626L2.5125 21.5001C2.35683 21.4132 2.22723 21.2862 2.13712 21.1324C2.04701 20.9785 1.99967 20.8034 2 20.6251V12.6251C1.99967 12.4468 2.04701 12.2717 2.13712 12.1178C2.22723 11.964 2.35683 11.837 2.5125 11.7501L15.0125 4.66258C15.3131 4.49046 15.6536 4.3999 16 4.3999C16.3464 4.3999 16.6869 4.49046 16.9875 4.66258L29.4875 11.7501C29.6432 11.837 29.7728 11.964 29.8629 12.1178C29.953 12.2717 30.0003 12.4468 30 12.6251V12.6251Z" fill="#49536E"/>
</svg>
