<svg width="32" height="32" viewBox="0 0 32 32" fill="none" xmlns="http://www.w3.org/2000/svg">
<path d="M29 15.8499V9.8374C29.0018 9.49075 28.9112 9.14988 28.7375 8.8499H28.725C28.5478 8.53961 28.2882 8.28437 27.975 8.1124L16.975 1.9249C16.677 1.7585 16.3413 1.67114 16 1.67114C15.6587 1.67114 15.323 1.7585 15.025 1.9249L4.025 8.1124C3.7144 8.28788 3.45567 8.54229 3.275 8.8499C3.275 8.85321 3.27368 8.85639 3.27134 8.85874C3.26899 8.86108 3.26582 8.8624 3.2625 8.8624V8.8874C3.09185 9.17499 3.00122 9.50299 3 9.8374V15.8499V22.1624C3.00063 22.5187 3.09586 22.8685 3.27594 23.176C3.45603 23.4834 3.71452 23.7376 4.025 23.9124L9.525 26.9999L15.025 30.0999C15.3019 30.251 15.6098 30.3365 15.925 30.3499H16.0875C16.3987 30.3364 16.7025 30.2508 16.975 30.0999L22.475 26.9999L27.975 23.9124C28.2855 23.7376 28.544 23.4834 28.7241 23.176C28.9041 22.8685 28.9994 22.5187 29 22.1624V15.8499ZM10.4875 18.3749L5 15.2749V10.9499L15.1125 16.5874L15.0125 27.7999L11 25.5374V19.2374C10.9994 19.061 10.9516 18.8879 10.8614 18.7362C10.7713 18.5845 10.6422 18.4598 10.4875 18.3749V18.3749ZM9.875 7.0874L15.5125 10.2499C15.6594 10.3393 15.828 10.3866 16 10.3866C16.172 10.3866 16.3406 10.3393 16.4875 10.2499L22.125 7.0874L25.9625 9.2499L16.1125 14.8499L6.05 9.2499L9.875 7.0874ZM17.1125 16.5874L27 10.9624V15.2749L21.5125 18.3749C21.3578 18.4598 21.2287 18.5845 21.1386 18.7362C21.0484 18.8879 21.0006 19.061 21 19.2374V25.5374L17.0125 27.7874L17.1125 16.5874Z" fill="#49536E"/>
</svg>
