<svg width="32" height="32" viewBox="0 0 32 32" fill="none" xmlns="http://www.w3.org/2000/svg">
<path d="M13.813 6.4C13.5781 6.16097 13.2859 5.98607 12.9642 5.89198C12.6426 5.79789 12.3022 5.78774 11.9755 5.8625C11.6458 5.93536 11.34 6.09049 11.0865 6.31343C10.8329 6.53637 10.6399 6.81987 10.5255 7.1375L3.78801 25.65C3.68294 25.9513 3.65102 26.2733 3.69489 26.5893C3.73876 26.9054 3.85715 27.2065 4.0403 27.4678C4.22345 27.7291 4.46611 27.9431 4.74826 28.0921C5.0304 28.2412 5.34394 28.321 5.66301 28.325C5.89678 28.3253 6.12904 28.2873 6.35051 28.2125L24.863 21.475C25.1806 21.3606 25.4641 21.1676 25.6871 20.9141C25.91 20.6605 26.0651 20.3547 26.138 20.025C26.2128 19.6983 26.2026 19.3579 26.1085 19.0363C26.0144 18.7146 25.8395 18.4224 25.6005 18.1875L13.813 6.4ZM7.97551 19.975L10.3755 13.375L18.6255 21.625L12.0255 24.025L7.97551 19.975ZM20.0005 9C20.0189 8.32369 20.1808 7.65901 20.4755 7.05C21.138 5.725 22.388 5 24.0005 5C24.838 5 25.3755 4.7125 25.713 4.1C25.8851 3.75316 25.983 3.37428 26.0005 2.9875C26.0005 2.85676 26.0264 2.72732 26.0769 2.60669C26.1273 2.48606 26.2011 2.37664 26.2941 2.28478C26.3872 2.19291 26.4975 2.12044 26.6188 2.07155C26.74 2.02267 26.8698 1.99835 27.0005 2C27.2657 2 27.5201 2.10536 27.7076 2.29289C27.8952 2.48043 28.0005 2.73478 28.0005 3C28.0005 4.6125 26.938 7 24.0005 7C23.163 7 22.6255 7.2875 22.288 7.9C22.116 8.24684 22.018 8.62572 22.0005 9.0125C22.0005 9.14324 21.9746 9.27268 21.9242 9.39331C21.8738 9.51394 21.7999 9.62336 21.7069 9.71523C21.6138 9.80709 21.5035 9.87956 21.3822 9.92845C21.261 9.97733 21.1312 10.0017 21.0005 10C20.7353 10 20.4809 9.89464 20.2934 9.70711C20.1059 9.51957 20.0005 9.26522 20.0005 9ZM17.0005 5V2C17.0005 1.73478 17.1059 1.48043 17.2934 1.29289C17.4809 1.10536 17.7353 1 18.0005 1C18.2657 1 18.5201 1.10536 18.7076 1.29289C18.8952 1.48043 19.0005 1.73478 19.0005 2V5C19.0005 5.26522 18.8952 5.51957 18.7076 5.70711C18.5201 5.89464 18.2657 6 18.0005 6C17.7353 6 17.4809 5.89464 17.2934 5.70711C17.1059 5.51957 17.0005 5.26522 17.0005 5ZM29.713 15.2875C29.9008 15.4771 30.0061 15.7332 30.0061 16C30.0061 16.2668 29.9008 16.5229 29.713 16.7125C29.5219 16.8973 29.2664 17.0006 29.0005 17.0006C28.7346 17.0006 28.4791 16.8973 28.288 16.7125L26.288 14.7125C26.1285 14.5182 26.0471 14.2715 26.0594 14.0205C26.0717 13.7694 26.177 13.5319 26.3547 13.3542C26.5325 13.1765 26.7699 13.0712 27.021 13.0589C27.272 13.0465 27.5187 13.128 27.713 13.2875L29.713 15.2875ZM30.313 9.95L27.313 10.95C27.2125 10.9847 27.1068 11.0017 27.0005 11C26.7627 11.0001 26.5326 10.9154 26.3516 10.7611C26.1706 10.6068 26.0505 10.3931 26.0129 10.1582C25.9752 9.9234 26.0225 9.68284 26.1463 9.47973C26.27 9.27662 26.4621 9.12426 26.688 9.05L29.688 8.05C29.8128 8.00896 29.9444 7.9929 30.0753 8.00273C30.2063 8.01255 30.3341 8.04808 30.4513 8.10728C30.5685 8.16648 30.6729 8.24818 30.7586 8.34774C30.8443 8.44729 30.9095 8.56274 30.9505 8.6875C30.9915 8.81226 31.0076 8.94387 30.9978 9.07484C30.988 9.2058 30.9524 9.33355 30.8932 9.45078C30.834 9.56801 30.7523 9.67244 30.6528 9.7581C30.5532 9.84375 30.4378 9.90896 30.313 9.95Z" fill="#49536E"/>
</svg>
