<svg width="32" height="32" viewBox="0 0 32 32" fill="none" xmlns="http://www.w3.org/2000/svg">
<path d="M28.2377 14.3625C28.0058 14.1758 27.7346 14.044 27.4446 13.9769C27.1545 13.9098 26.8531 13.9092 26.5627 13.975C26.1265 14.0762 25.6731 14.078 25.2361 13.9804C24.7991 13.8827 24.3896 13.6881 24.038 13.4108C23.6864 13.1336 23.4015 12.7809 23.2046 12.3787C23.0076 11.9766 22.9036 11.5353 22.9002 11.0875C22.8969 10.5614 22.6865 10.0578 22.3145 9.68575C21.9424 9.31373 21.4388 9.10328 20.9127 9.1C20.4649 9.09659 20.0237 8.99257 19.6215 8.79563C19.2193 8.59869 18.8666 8.31386 18.5894 7.96222C18.3121 7.61057 18.1175 7.2011 18.0198 6.76409C17.9222 6.32708 17.924 5.87371 18.0252 5.4375C18.0884 5.14531 18.0856 4.84273 18.0172 4.55174C17.9488 4.26075 17.8164 3.98865 17.6296 3.75523C17.4429 3.5218 17.2065 3.33291 16.9376 3.20227C16.6687 3.07164 16.3741 3.00254 16.0752 3H16.0002C14.2861 3.00162 12.5892 3.34188 11.007 4.00124C9.4248 4.6606 7.98845 5.62607 6.78046 6.84218C5.57248 8.05829 4.61667 9.50109 3.96794 11.0877C3.31921 12.6743 2.99034 14.3734 3.00022 16.0875C3.02177 19.5353 4.41207 22.8334 6.86528 25.2561C8.07999 26.4557 9.51908 27.4043 11.1004 28.0478C12.6817 28.6912 14.3743 29.0169 16.0815 29.0063C17.7887 28.9956 19.477 28.6488 21.0502 27.9856C22.6233 27.3224 24.0504 26.3559 25.2501 25.1412C26.4497 23.9265 27.3983 22.4874 28.0417 20.9061C28.6852 19.3248 29.0109 17.6322 29.0002 15.925V15.925C29.0017 15.6235 28.9337 15.3257 28.8014 15.0547C28.6692 14.7837 28.4763 14.5469 28.2377 14.3625V14.3625ZM9.43772 12.4375C9.6477 12.2282 9.91498 12.0859 10.2058 12.0284C10.4966 11.971 10.798 12.001 11.0718 12.1147C11.3455 12.2284 11.5795 12.4206 11.7441 12.6672C11.9087 12.9137 11.9965 13.2035 11.9965 13.5C11.9965 13.7965 11.9087 14.0863 11.7441 14.3328C11.5795 14.5794 11.3455 14.7716 11.0718 14.8853C10.798 14.999 10.4966 15.029 10.2058 14.9716C9.91498 14.9141 9.6477 14.7718 9.43772 14.5625C9.29788 14.4231 9.18692 14.2576 9.11121 14.0752C9.0355 13.8929 8.99653 13.6974 8.99653 13.5C8.99653 13.3026 9.0355 13.1071 9.11121 12.9248C9.18692 12.7424 9.29788 12.5769 9.43772 12.4375V12.4375ZM12.5627 21.5625C12.3527 21.7718 12.0854 21.9141 11.7946 21.9716C11.5038 22.029 11.2025 21.999 10.9287 21.8853C10.6549 21.7716 10.4209 21.5794 10.2563 21.3328C10.0917 21.0863 10.0039 20.7965 10.0039 20.5C10.0039 20.2035 10.0917 19.9137 10.2563 19.6672C10.4209 19.4206 10.6549 19.2284 10.9287 19.1147C11.2025 19.001 11.5038 18.971 11.7946 19.0284C12.0854 19.0859 12.3527 19.2282 12.5627 19.4375C12.7026 19.5769 12.8135 19.7424 12.8892 19.9248C12.9649 20.1071 13.0039 20.3026 13.0039 20.5C13.0039 20.6974 12.9649 20.8929 12.8892 21.0752C12.8135 21.2576 12.7026 21.4231 12.5627 21.5625ZM15.9377 16.5625C15.7285 16.3525 15.5861 16.0852 15.5287 15.7944C15.4712 15.5036 15.5012 15.2022 15.6149 14.9285C15.7286 14.6547 15.9208 14.4207 16.1674 14.2561C16.414 14.0915 16.7038 14.0037 17.0002 14.0037C17.2967 14.0037 17.5865 14.0915 17.833 14.2561C18.0796 14.4207 18.2719 14.6547 18.3855 14.9285C18.4992 15.2022 18.5292 15.5036 18.4718 15.7944C18.4143 16.0852 18.272 16.3525 18.0627 16.5625C17.9234 16.7023 17.7578 16.8133 17.5754 16.889C17.3931 16.9647 17.1976 17.0037 17.0002 17.0037C16.8028 17.0037 16.6073 16.9647 16.425 16.889C16.2427 16.8133 16.0771 16.7023 15.9377 16.5625V16.5625ZM20.5627 22.5625C20.3527 22.7718 20.0854 22.9141 19.7946 22.9716C19.5038 23.029 19.2025 22.999 18.9287 22.8853C18.6549 22.7716 18.4209 22.5794 18.2563 22.3328C18.0917 22.0863 18.0039 21.7965 18.0039 21.5C18.0039 21.2035 18.0917 20.9137 18.2563 20.6672C18.4209 20.4206 18.6549 20.2284 18.9287 20.1147C19.2025 20.001 19.5038 19.971 19.7946 20.0284C20.0854 20.0859 20.3527 20.2282 20.5627 20.4375C20.7026 20.5769 20.8135 20.7424 20.8892 20.9248C20.9649 21.1071 21.0039 21.3026 21.0039 21.5C21.0039 21.6974 20.9649 21.8929 20.8892 22.0752C20.8135 22.2576 20.7026 22.4231 20.5627 22.5625V22.5625Z" fill="#49536E"/>
</svg>
