<svg width="32" height="32" viewBox="0 0 32 32" fill="none" xmlns="http://www.w3.org/2000/svg">
<path d="M19.0007 12V5.99995C19.0001 5.80253 19.0579 5.60934 19.1669 5.44473C19.2759 5.28012 19.4312 5.15145 19.6132 5.07495C19.7979 5.00291 19.9992 4.98463 20.1939 5.02223C20.3886 5.05984 20.5686 5.15179 20.7132 5.28745L26.7132 11.2875C26.8488 11.432 26.9408 11.6121 26.9784 11.8067C27.016 12.0014 26.9977 12.2027 26.9257 12.3875C26.8492 12.5695 26.7205 12.7247 26.5559 12.8337C26.3913 12.9427 26.1981 13.0006 26.0007 13H20.0007C19.7355 13 19.4811 12.8946 19.2936 12.7071C19.106 12.5195 19.0007 12.2652 19.0007 12ZM12.0007 19H6.00068C5.80326 18.9993 5.61007 19.0572 5.44546 19.1662C5.28085 19.2752 5.15219 19.4305 5.07568 19.6125C5.00364 19.7972 4.98536 19.9985 5.02297 20.1932C5.06057 20.3878 5.15252 20.5679 5.28818 20.7125L11.2882 26.7125C11.4801 26.8959 11.7351 26.9988 12.0007 27C12.1334 26.9994 12.2648 26.9739 12.3882 26.925C12.5702 26.8484 12.7255 26.7198 12.8345 26.5552C12.9435 26.3906 13.0013 26.1974 13.0007 26V20C13.0007 19.7347 12.8953 19.4804 12.7078 19.2928C12.5203 19.1053 12.2659 19 12.0007 19ZM12.3882 5.07495C12.2035 5.00291 12.0021 4.98463 11.8075 5.02223C11.6128 5.05984 11.4328 5.15179 11.2882 5.28745L5.28818 11.2875C5.15252 11.432 5.06057 11.6121 5.02297 11.8067C4.98536 12.0014 5.00364 12.2027 5.07568 12.3875C5.15219 12.5695 5.28085 12.7247 5.44546 12.8337C5.61007 12.9427 5.80326 13.0006 6.00068 13H12.0007C12.2659 13 12.5203 12.8946 12.7078 12.7071C12.8953 12.5195 13.0007 12.2652 13.0007 12V5.99995C13.0013 5.80253 12.9435 5.60934 12.8345 5.44473C12.7255 5.28012 12.5702 5.15145 12.3882 5.07495V5.07495ZM26.0007 19H20.0007C19.7355 19 19.4811 19.1053 19.2936 19.2928C19.106 19.4804 19.0007 19.7347 19.0007 20V26C19.0001 26.1974 19.0579 26.3906 19.1669 26.5552C19.2759 26.7198 19.4312 26.8484 19.6132 26.925C19.7365 26.9739 19.868 26.9994 20.0007 27C20.2662 26.9988 20.5212 26.8959 20.7132 26.7125L26.7132 20.7125C26.8488 20.5679 26.9408 20.3878 26.9784 20.1932C27.016 19.9985 26.9977 19.7972 26.9257 19.6125C26.8492 19.4305 26.7205 19.2752 26.5559 19.1662C26.3913 19.0572 26.1981 18.9993 26.0007 19V19Z" fill="#49536E"/>
</svg>
