<svg width="32" height="32" viewBox="0 0 32 32" fill="none" xmlns="http://www.w3.org/2000/svg">
<path d="M25.7746 6.63759L18.1121 16.0001H21.9996C22.2648 16.0001 22.5192 16.1055 22.7067 16.293C22.8942 16.4805 22.9996 16.7349 22.9996 17.0001C22.9996 17.2653 22.8942 17.5197 22.7067 17.7072C22.5192 17.8947 22.2648 18.0001 21.9996 18.0001H16.9996V20.0001H21.9996C22.2648 20.0001 22.5192 20.1055 22.7067 20.293C22.8942 20.4805 22.9996 20.7349 22.9996 21.0001C22.9996 21.2653 22.8942 21.5197 22.7067 21.7072C22.5192 21.8947 22.2648 22.0001 21.9996 22.0001H16.9996V27.0001C16.9996 27.2653 16.8942 27.5197 16.7067 27.7072C16.5192 27.8947 16.2648 28.0001 15.9996 28.0001C15.7344 28.0001 15.48 27.8947 15.2925 27.7072C15.105 27.5197 14.9996 27.2653 14.9996 27.0001V22.0001H9.9996C9.73439 22.0001 9.48003 21.8947 9.2925 21.7072C9.10496 21.5197 8.9996 21.2653 8.9996 21.0001C8.9996 20.7349 9.10496 20.4805 9.2925 20.293C9.48003 20.1055 9.73439 20.0001 9.9996 20.0001H14.9996V18.0001H9.9996C9.73439 18.0001 9.48003 17.8947 9.2925 17.7072C9.10496 17.5197 8.9996 17.2653 8.9996 17.0001C8.9996 16.7349 9.10496 16.4805 9.2925 16.293C9.48003 16.1055 9.73439 16.0001 9.9996 16.0001H13.8871L6.2246 6.63759C6.14089 6.53582 6.07803 6.41855 6.03964 6.29249C6.00124 6.16642 5.98805 6.03403 6.00081 5.90287C6.0266 5.63797 6.15656 5.39417 6.3621 5.22509C6.56765 5.05602 6.83194 4.97552 7.09683 5.00131C7.36173 5.02709 7.60553 5.15705 7.7746 5.36259L15.9996 15.4251L24.2246 5.36259C24.3937 5.15705 24.6375 5.02709 24.9024 5.00131C25.1673 4.97552 25.4316 5.05602 25.6371 5.22509C25.8426 5.39417 25.9726 5.63797 25.9984 5.90287C26.0242 6.16776 25.9437 6.43205 25.7746 6.63759V6.63759Z" fill="#49536E"/>
</svg>
