<svg width="32" height="32" viewBox="0 0 32 32" fill="none" xmlns="http://www.w3.org/2000/svg">
<path d="M11.0008 9.41255C10.6298 9.03603 10.4219 8.52865 10.4219 8.00005C10.4219 7.47146 10.6298 6.96408 11.0008 6.58755L14.5883 3.00005C14.7732 2.81335 14.9932 2.66514 15.2356 2.56399C15.478 2.46285 15.7381 2.41077 16.0008 2.41077C16.2636 2.41077 16.5236 2.46285 16.7661 2.56399C17.0085 2.66514 17.2285 2.81335 17.4133 3.00005L21.0008 6.58755C21.3719 6.96408 21.5798 7.47146 21.5798 8.00005C21.5798 8.52865 21.3719 9.03603 21.0008 9.41255L17.4133 13.0001C17.2285 13.1868 17.0085 13.335 16.7661 13.4361C16.5236 13.5373 16.2636 13.5893 16.0008 13.5893C15.7381 13.5893 15.478 13.5373 15.2356 13.4361C14.9932 13.335 14.7732 13.1868 14.5883 13.0001L11.0008 9.41255ZM29.0008 14.5876L25.4133 11.0001C25.2285 10.8134 25.0085 10.6651 24.7661 10.564C24.5236 10.4628 24.2635 10.4108 24.0008 10.4108C23.7381 10.4108 23.478 10.4628 23.2356 10.564C22.9932 10.6651 22.7732 10.8134 22.5883 11.0001L19.0008 14.5876C18.6298 14.9641 18.4219 15.4715 18.4219 16.0001C18.4219 16.5287 18.6298 17.036 19.0008 17.4126L22.5883 21.0001C22.7732 21.1868 22.9932 21.335 23.2356 21.4361C23.478 21.5373 23.7381 21.5893 24.0008 21.5893C24.2635 21.5893 24.5236 21.5373 24.7661 21.4361C25.0085 21.335 25.2285 21.1868 25.4133 21.0001L29.0008 17.4126C29.3719 17.036 29.5798 16.5287 29.5798 16.0001C29.5798 15.4715 29.3719 14.9641 29.0008 14.5876V14.5876ZM13.0008 14.5876L9.41335 11.0001C9.22854 10.8134 9.00854 10.6651 8.7661 10.564C8.52365 10.4628 8.26355 10.4108 8.00085 10.4108C7.73815 10.4108 7.47805 10.4628 7.2356 10.564C6.99315 10.6651 6.77316 10.8134 6.58835 11.0001L3.00085 14.5876C2.62984 14.9641 2.42188 15.4715 2.42188 16.0001C2.42188 16.5287 2.62984 17.036 3.00085 17.4126L6.58835 21.0001C6.77316 21.1868 6.99315 21.335 7.2356 21.4361C7.47805 21.5373 7.73815 21.5893 8.00085 21.5893C8.26355 21.5893 8.52365 21.5373 8.7661 21.4361C9.00854 21.335 9.22854 21.1868 9.41335 21.0001L13.0008 17.4126C13.3719 17.036 13.5798 16.5287 13.5798 16.0001C13.5798 15.4715 13.3719 14.9641 13.0008 14.5876V14.5876ZM17.4133 19.0001C17.2285 18.8134 17.0085 18.6651 16.7661 18.564C16.5236 18.4628 16.2636 18.4108 16.0008 18.4108C15.7381 18.4108 15.478 18.4628 15.2356 18.564C14.9932 18.6651 14.7732 18.8134 14.5883 19.0001L11.0008 22.5876C10.6298 22.9641 10.4219 23.4715 10.4219 24.0001C10.4219 24.5287 10.6298 25.036 11.0008 25.4126L14.5883 29.0001C14.7732 29.1868 14.9932 29.335 15.2356 29.4361C15.478 29.5373 15.7381 29.5893 16.0008 29.5893C16.2636 29.5893 16.5236 29.5373 16.7661 29.4361C17.0085 29.335 17.2285 29.1868 17.4133 29.0001L21.0008 25.4126C21.3719 25.036 21.5798 24.5287 21.5798 24.0001C21.5798 23.4715 21.3719 22.9641 21.0008 22.5876L17.4133 19.0001Z" fill="#49536E"/>
</svg>
