<svg width="32" height="32" viewBox="0 0 32 32" fill="none" xmlns="http://www.w3.org/2000/svg">
<path d="M29.5008 17.4125L17.4133 29.5C17.2285 29.6867 17.0085 29.8349 16.7661 29.9361C16.5236 30.0372 16.2636 30.0893 16.0008 30.0893C15.7381 30.0893 15.478 30.0372 15.2356 29.9361C14.9932 29.8349 14.7732 29.6867 14.5883 29.5L2.50085 17.4125C2.12984 17.036 1.92187 16.5286 1.92188 16C1.92188 15.4714 2.12984 14.964 2.50085 14.5875L14.5883 2.49999C14.9649 2.12899 15.4723 1.92102 16.0008 1.92102C16.5294 1.92102 17.0368 2.12899 17.4133 2.49999L29.5008 14.5875C29.8719 14.964 30.0798 15.4714 30.0798 16C30.0798 16.5286 29.8719 17.036 29.5008 17.4125V17.4125Z" fill="#49536E"/>
</svg>
