<svg width="32" height="32" viewBox="0 0 32 32" fill="none" xmlns="http://www.w3.org/2000/svg">
<path d="M30.9122 21.2249L26.6622 7.07494C26.5805 6.78875 26.4344 6.52505 26.2351 6.30405C26.0358 6.08305 25.7885 5.91061 25.5122 5.79994H25.4372L25.5122 5.77494C24.1177 5.21618 22.6739 4.78931 21.1997 4.49994C21.0709 4.47447 20.9382 4.47463 20.8094 4.50043C20.6806 4.52622 20.5582 4.57714 20.4491 4.65027C20.34 4.7234 20.2463 4.81731 20.1735 4.92664C20.1007 5.03596 20.0501 5.15856 20.0247 5.28744C19.9974 5.41555 19.9958 5.54782 20.0201 5.67655C20.0444 5.80528 20.094 5.92789 20.1661 6.03725C20.2383 6.1466 20.3314 6.24051 20.4402 6.31351C20.549 6.38651 20.6712 6.43713 20.7997 6.46244C21.3622 6.57494 21.9122 6.71244 22.4497 6.86244C22.6477 6.9652 22.8056 7.1312 22.8984 7.33404C22.9912 7.53689 23.0135 7.76493 22.9618 7.9819C22.91 8.19888 22.7872 8.39233 22.6129 8.5315C22.4386 8.67066 22.2228 8.74755 21.9997 8.74994H21.8997C19.9734 8.24757 17.9904 7.9955 15.9997 7.99994C14.0558 7.99414 12.1191 8.2378 10.2372 8.72494C9.99774 8.78812 9.74334 8.76019 9.52328 8.64656C9.30322 8.53293 9.13316 8.34167 9.04602 8.10984C8.95889 7.878 8.96089 7.62208 9.05163 7.39164C9.14238 7.16119 9.31541 6.97262 9.53722 6.86244H9.54972C10.0872 6.71244 10.6372 6.57494 11.1997 6.46244C11.3286 6.43702 11.4512 6.38646 11.5605 6.31364C11.6698 6.24083 11.7638 6.14719 11.8369 6.03808C11.91 5.92896 11.9609 5.80651 11.9867 5.67771C12.0125 5.54892 12.0127 5.4163 11.9872 5.28744C11.9329 5.02878 11.7796 4.80163 11.56 4.65448C11.3405 4.50734 11.0721 4.45188 10.8122 4.49994C9.33275 4.79578 7.88462 5.23106 6.48722 5.79994C6.21094 5.91061 5.96367 6.08305 5.76433 6.30405C5.565 6.52505 5.4189 6.78875 5.33722 7.07494L1.08722 21.2249C0.976961 21.5949 0.976126 21.9888 1.08481 22.3593C1.19349 22.7297 1.40705 23.0607 1.69972 23.3124C1.81471 23.4232 1.93572 23.5275 2.06222 23.6249H2.07472C4.09972 25.2749 6.76222 26.5374 9.76222 27.2624C9.839 27.287 9.9191 27.2997 9.99972 27.2999C10.247 27.3039 10.4869 27.216 10.6732 27.0534C10.8595 26.8908 10.9789 26.665 11.0084 26.4195C11.0379 26.174 10.9754 25.9262 10.833 25.7241C10.6906 25.5219 10.4783 25.3797 10.2372 25.3249C8.88853 24.9991 7.57733 24.5341 6.32472 23.9374V23.9374C6.15327 23.7768 6.04387 23.5609 6.01569 23.3277C5.98751 23.0944 6.04235 22.8587 6.1706 22.6618C6.29886 22.465 6.49232 22.3196 6.71707 22.2511C6.94182 22.1827 7.1835 22.1955 7.39972 22.2874C9.77472 23.3374 12.7622 23.9999 15.9997 23.9999C19.2372 23.9999 22.2247 23.3374 24.5997 22.2874C24.8159 22.1955 25.0576 22.1827 25.2824 22.2511C25.5071 22.3196 25.7006 22.465 25.8288 22.6618C25.9571 22.8587 26.0119 23.0944 25.9837 23.3277C25.9556 23.5609 25.8462 23.7768 25.6747 23.9374C24.4221 24.5341 23.1109 24.9991 21.7622 25.3249C21.5211 25.3797 21.3088 25.5219 21.1664 25.7241C21.024 25.9262 20.9615 26.174 20.991 26.4195C21.0205 26.665 21.14 26.8908 21.3263 27.0534C21.5125 27.216 21.7525 27.3039 21.9997 27.2999C22.0803 27.2997 22.1604 27.287 22.2372 27.2624C25.2372 26.5374 27.8997 25.2749 29.9247 23.6249H29.9372C30.0637 23.5275 30.1847 23.4232 30.2997 23.3124C30.5924 23.0607 30.8059 22.7297 30.9146 22.3593C31.0233 21.9888 31.0225 21.5949 30.9122 21.2249V21.2249ZM11.9997 19.4999C11.703 19.4999 11.413 19.412 11.1664 19.2471C10.9197 19.0823 10.7274 18.848 10.6139 18.574C10.5004 18.2999 10.4707 17.9983 10.5285 17.7073C10.5864 17.4163 10.7293 17.1491 10.9391 16.9393C11.1488 16.7295 11.4161 16.5866 11.7071 16.5288C11.9981 16.4709 12.2997 16.5006 12.5737 16.6141C12.8478 16.7276 13.0821 16.9199 13.2469 17.1666C13.4117 17.4133 13.4997 17.7033 13.4997 17.9999C13.4997 18.3978 13.3417 18.7793 13.0604 19.0606C12.7791 19.3419 12.3975 19.4999 11.9997 19.4999ZM19.9997 19.4999C19.703 19.4999 19.413 19.412 19.1664 19.2471C18.9197 19.0823 18.7274 18.848 18.6139 18.574C18.5004 18.2999 18.4707 17.9983 18.5285 17.7073C18.5864 17.4163 18.7293 17.1491 18.9391 16.9393C19.1488 16.7295 19.4161 16.5866 19.7071 16.5288C19.9981 16.4709 20.2997 16.5006 20.5737 16.6141C20.8478 16.7276 21.0821 16.9199 21.2469 17.1666C21.4117 17.4133 21.4997 17.7033 21.4997 17.9999C21.4997 18.3978 21.3417 18.7793 21.0604 19.0606C20.7791 19.3419 20.3975 19.4999 19.9997 19.4999Z" fill="#49536E"/>
</svg>
