<svg width="32" height="32" viewBox="0 0 32 32" fill="none" xmlns="http://www.w3.org/2000/svg">
<path d="M23.5366 5.41252L23.4616 5.35002L23.3616 5.30002C21.2005 3.79822 18.6308 2.99545 15.9991 3.00002C12.895 2.99763 9.89232 4.10496 7.533 6.12214C5.17367 8.13932 3.61316 10.9335 3.13313 14.0002C2.6531 17.067 3.28518 20.2043 4.91527 22.8459C6.54537 25.4876 9.06609 27.4595 12.0225 28.4057C14.9788 29.3519 18.176 29.2102 21.0371 28.006C23.8981 26.8018 26.2344 24.6145 27.6243 21.839C29.0142 19.0635 29.3661 15.8825 28.6165 12.8703C27.8669 9.85802 26.0652 7.21296 23.5366 5.41252V5.41252ZM15.9991 19C15.4058 19 14.8258 18.8241 14.3324 18.4944C13.8391 18.1648 13.4545 17.6962 13.2275 17.1481C13.0004 16.5999 12.941 15.9967 13.0568 15.4147C13.1725 14.8328 13.4582 14.2983 13.8778 13.8787C14.2974 13.4591 14.8319 13.1734 15.4139 13.0577C15.9958 12.9419 16.599 13.0013 17.1472 13.2284C17.6954 13.4554 18.1639 13.84 18.4935 14.3333C18.8232 14.8267 18.9991 15.4067 18.9991 16C18.9958 16.7947 18.6787 17.5558 18.1168 18.1177C17.5549 18.6796 16.7938 18.9967 15.9991 19ZM26.9991 16C26.9991 16.3125 26.9866 16.6125 26.9616 16.9125L20.9991 15.8625C20.9655 14.6301 20.4755 13.4542 19.6241 12.5625L23.0991 7.60002C24.3215 8.63186 25.3038 9.91816 25.9774 11.369C26.651 12.8199 26.9997 14.4004 26.9991 16V16Z" fill="#49536E"/>
</svg>
