<svg width="32" height="32" viewBox="0 0 32 32" fill="none" xmlns="http://www.w3.org/2000/svg">
<path d="M13.0009 17.5C13.0009 17.7967 12.9129 18.0867 12.7481 18.3334C12.5833 18.5801 12.349 18.7723 12.0749 18.8859C11.8008 18.9994 11.4992 19.0291 11.2083 18.9712C10.9173 18.9133 10.65 18.7705 10.4402 18.5607C10.2305 18.3509 10.0876 18.0837 10.0297 17.7927C9.97185 17.5017 10.0016 17.2001 10.1151 16.926C10.2286 16.6519 10.4209 16.4177 10.6675 16.2528C10.9142 16.088 11.2042 16 11.5009 16C11.8987 16 12.2803 16.1581 12.5616 16.4394C12.8429 16.7207 13.0009 17.1022 13.0009 17.5ZM20.5009 16C20.2042 16 19.9142 16.088 19.6675 16.2528C19.4209 16.4177 19.2286 16.6519 19.1151 16.926C19.0016 17.2001 18.9718 17.5017 19.0297 17.7927C19.0876 18.0837 19.2305 18.3509 19.4402 18.5607C19.65 18.7705 19.9173 18.9133 20.2083 18.9712C20.4992 19.0291 20.8008 18.9994 21.0749 18.8859C21.349 18.7723 21.5833 18.5801 21.7481 18.3334C21.9129 18.0867 22.0009 17.7967 22.0009 17.5C22.0009 17.1022 21.8429 16.7207 21.5616 16.4394C21.2803 16.1581 20.8987 16 20.5009 16ZM29.0884 18C28.825 18.1177 28.5394 18.1774 28.2509 18.175C27.7944 18.176 27.352 18.0167 27.0009 17.725V23C27.0009 24.3261 26.4741 25.5979 25.5364 26.5356C24.5988 27.4733 23.327 28 22.0009 28H10.0009C8.67482 28 7.40305 27.4733 6.46537 26.5356C5.52768 25.5979 5.0009 24.3261 5.0009 23V17.725C4.64975 18.0167 4.2074 18.176 3.7509 18.175C3.46242 18.1774 3.1768 18.1177 2.9134 18C2.50133 17.818 2.16386 17.5006 1.95696 17.1005C1.75006 16.7003 1.68618 16.2415 1.7759 15.8L3.8259 4.86254C3.87744 4.59517 3.9827 4.34104 4.13531 4.11553C4.28792 3.89002 4.4847 3.69783 4.71375 3.55059C4.9428 3.40334 5.19934 3.30411 5.46785 3.25889C5.73637 3.21368 6.01126 3.22343 6.2759 3.28754L13.1259 5.00004H18.8759L25.7259 3.28754C25.9905 3.22343 26.2654 3.21368 26.5339 3.25889C26.8025 3.30411 27.059 3.40334 27.2881 3.55059C27.5171 3.69783 27.7139 3.89002 27.8665 4.11553C28.0191 4.34104 28.1244 4.59517 28.1759 4.86254L30.2259 15.8C30.3156 16.2415 30.2517 16.7003 30.0448 17.1005C29.8379 17.5006 29.5005 17.818 29.0884 18V18ZM25.0009 23V15.25L18.5134 7.00004H13.4884L7.0009 15.25V23C7.00419 23.7947 7.32132 24.5558 7.88322 25.1177C8.44511 25.6796 9.20627 25.9968 10.0009 26H15.0009V24.4125L13.2884 22.7125C13.1289 22.5182 13.0474 22.2716 13.0598 22.0205C13.0721 21.7695 13.1774 21.532 13.3551 21.3543C13.5328 21.1765 13.7703 21.0712 14.0214 21.0589C14.2724 21.0466 14.5191 21.1281 14.7134 21.2875L16.0009 22.5875L17.2884 21.2875C17.4827 21.1281 17.7294 21.0466 17.9804 21.0589C18.2315 21.0712 18.469 21.1765 18.6467 21.3543C18.8244 21.532 18.9297 21.7695 18.942 22.0205C18.9544 22.2716 18.8729 22.5182 18.7134 22.7125L17.0009 24.4125V26H22.0009C22.7955 25.9968 23.5567 25.6796 24.1186 25.1177C24.6805 24.5558 24.9976 23.7947 25.0009 23V23Z" fill="#49536E"/>
</svg>
