<svg width="32" height="32" viewBox="0 0 32 32" fill="none" xmlns="http://www.w3.org/2000/svg">
<path d="M26.7375 26.325C26.8277 26.4211 26.8977 26.5343 26.9435 26.6578C26.9892 26.7814 27.0098 26.9128 27.004 27.0445C26.9982 27.1761 26.966 27.3052 26.9096 27.4243C26.8531 27.5433 26.7733 27.6498 26.675 27.7375C26.4894 27.9043 26.2495 27.9976 26 28C25.8613 28 25.724 27.9711 25.5971 27.9151C25.4701 27.8592 25.3562 27.7774 25.2625 27.675L20.525 22.4625C20.3511 22.4875 20.1757 22.5 20 22.5C19.0728 22.4968 18.1844 22.1269 17.5288 21.4713C16.8731 20.8156 16.5033 19.9273 16.5 19C16.4969 18.7102 16.5263 18.4209 16.5875 18.1375L12 13.0875C11.9884 13.3528 11.8719 13.6025 11.6762 13.7818C11.4804 13.9612 11.2215 14.0554 10.9563 14.0438C10.691 14.0322 10.4413 13.9157 10.262 13.72C10.0826 13.5242 9.9884 13.2653 10 13C10.0028 12.3857 10.0955 11.7751 10.275 11.1875L8.06251 8.75005C7.36076 10.0564 6.99559 11.5171 7.00001 13C7.00001 16.3375 8.06251 17.3625 9.20001 18.45C10.3375 19.5375 11.5 20.675 11.5 23.5C11.4993 24.4275 11.7852 25.3326 12.3186 26.0914C12.852 26.8501 13.6068 27.4256 14.4798 27.7389C15.3527 28.0522 16.3012 28.0882 17.1954 27.8418C18.0895 27.5954 18.8857 27.0788 19.475 26.3625C19.5573 26.2608 19.6591 26.1764 19.7743 26.1143C19.8895 26.0522 20.016 26.0136 20.1462 26.0008C20.2765 25.988 20.408 26.0013 20.5331 26.0398C20.6582 26.0783 20.7745 26.1412 20.875 26.225C21.0785 26.3955 21.2069 26.639 21.2326 26.9032C21.2584 27.1674 21.1793 27.4311 21.0125 27.6375C20.1605 28.6696 19.0107 29.4135 17.7201 29.7676C16.4295 30.1218 15.0611 30.0689 13.8016 29.6163C12.5422 29.1637 11.4532 28.3333 10.6833 27.2386C9.91339 26.144 9.50015 24.8383 9.50001 23.5C9.50001 21.525 8.78751 20.8375 7.81251 19.9C6.56251 18.6875 5.00001 17.1875 5.00001 13C4.99767 10.9506 5.56925 8.9414 6.65001 7.20005L5.26251 5.67505C5.09019 5.47839 5.00175 5.22207 5.01614 4.961C5.03052 4.69993 5.14659 4.45488 5.33947 4.27835C5.53234 4.10181 5.78669 4.00785 6.04801 4.01658C6.30933 4.0253 6.55684 4.13604 6.73751 4.32505L8.65001 6.43755H8.66251L12.1625 10.2875L21.5875 20.6625L26.7375 26.325ZM11.3875 5.27505C12.7534 4.45985 14.3108 4.0212 15.9014 4.00377C17.4919 3.98634 19.0586 4.39075 20.442 5.17581C21.8254 5.96087 22.976 7.09854 23.7767 8.47295C24.5773 9.84737 24.9994 11.4094 25 13C25 13.2653 25.1054 13.5196 25.2929 13.7072C25.4804 13.8947 25.7348 14 26 14C26.2652 14 26.5196 13.8947 26.7071 13.7072C26.8947 13.5196 27 13.2653 27 13C27.0008 11.0552 26.486 9.14501 25.508 7.464C24.53 5.78299 23.1238 4.39132 21.4328 3.43081C19.7417 2.4703 17.8262 1.9753 15.8815 1.99624C13.9369 2.01719 12.0325 2.55334 10.3625 3.55005C10.2489 3.61704 10.1497 3.70584 10.0706 3.81133C9.99143 3.91682 9.93394 4.03692 9.90141 4.16472C9.86888 4.29252 9.86195 4.42549 9.88102 4.55598C9.90008 4.68647 9.94477 4.8119 10.0125 4.92505C10.1501 5.15193 10.3713 5.31572 10.6284 5.38117C10.8856 5.44663 11.1582 5.40852 11.3875 5.27505V5.27505ZM19.7875 15.675C19.9593 15.8074 20.1707 15.8779 20.3875 15.875C20.5428 15.875 20.6959 15.8389 20.8347 15.7695C20.9736 15.7 21.0944 15.5992 21.1875 15.475C21.7304 14.7657 22.0168 13.8932 22 13C22 11.4087 21.3679 9.88262 20.2426 8.75741C19.1174 7.63219 17.5913 7.00005 16 7.00005C15.3366 7.00118 14.6779 7.11097 14.05 7.32505C13.8147 7.42248 13.6255 7.60602 13.5209 7.83822C13.4162 8.07041 13.4042 8.33377 13.4871 8.57457C13.57 8.81536 13.7417 9.01544 13.9671 9.134C14.1925 9.25255 14.4546 9.28065 14.7 9.21255C15.1191 9.07232 15.5581 9.00057 16 9.00005C17.0599 9.00334 18.0754 9.42583 18.8248 10.1753C19.5742 10.9247 19.9967 11.9402 20 13C20.0132 13.4598 19.8675 13.9101 19.5875 14.275C19.5071 14.3795 19.4484 14.4989 19.4149 14.6264C19.3813 14.7539 19.3737 14.8867 19.3923 15.0172C19.411 15.1477 19.4555 15.2731 19.5234 15.3861C19.5913 15.4991 19.6811 15.5973 19.7875 15.675V15.675Z" fill="#49536E"/>
</svg>
