<svg width="32" height="32" viewBox="0 0 32 32" fill="none" xmlns="http://www.w3.org/2000/svg">
<path d="M23.3379 7.44995L23.2504 7.31245C23.2061 7.25151 23.1489 7.2011 23.0828 7.16479C23.0168 7.12849 22.9436 7.10719 22.8684 7.10242C22.7932 7.09765 22.7179 7.10951 22.6478 7.13717C22.5777 7.16483 22.5146 7.20761 22.4629 7.26245L17.9379 12.3L20.1879 13.175C20.4064 13.2609 20.5881 13.4202 20.7021 13.6254C20.8162 13.8306 20.8553 14.0691 20.8129 14.3L19.9129 18.9375C19.8669 19.1658 19.7435 19.3713 19.5637 19.5193C19.3838 19.6673 19.1584 19.7488 18.9254 19.75H18.7379C18.4763 19.6872 18.2488 19.5264 18.1022 19.3008C17.9557 19.0752 17.9014 18.802 17.9504 18.5375L18.6879 14.75L15.8629 13.6625C15.7134 13.6015 15.5802 13.5065 15.4738 13.3849C15.3675 13.2634 15.291 13.1187 15.2504 12.9625C15.2135 12.8054 15.2146 12.6417 15.2538 12.4852C15.2929 12.3286 15.3689 12.1837 15.4754 12.0625L21.3004 5.57495C21.3866 5.4805 21.4334 5.35659 21.4311 5.22871C21.4288 5.10083 21.3775 4.9787 21.2879 4.88745C19.5254 3.04995 17.6629 2.01245 16.0004 2.01245C13.6879 2.01245 10.9379 4.04995 8.66291 7.46245C6.38791 10.875 5.16291 14.6625 5.01291 18.3125C4.75041 24.625 9.70041 30.0125 16.0254 30C18.9374 29.99 21.727 28.8271 23.7838 26.7657C25.8406 24.7042 26.9971 21.912 27.0004 19C27.0004 15.15 25.6629 10.9375 23.3379 7.44995Z" fill="#49536E"/>
</svg>
