<svg width="32" height="32" viewBox="0 0 32 32" fill="none" xmlns="http://www.w3.org/2000/svg">
<path d="M3.3 19.8624C3.13466 19.5213 3.07034 19.14 3.11464 18.7634C3.15894 18.3869 3.31 18.0309 3.55 17.7374L14.45 4.32494C14.6376 4.09493 14.874 3.90955 15.1421 3.78223C15.4101 3.65492 15.7032 3.58887 16 3.58887C16.2968 3.58887 16.5899 3.65492 16.858 3.78223C17.126 3.90955 17.3624 4.09493 17.55 4.32494L28.45 17.7374C28.6887 18.0307 28.8393 18.3855 28.8845 18.7609C28.9297 19.1362 28.8676 19.5167 28.7053 19.8582C28.5431 20.1997 28.2874 20.4882 27.9679 20.6903C27.6483 20.8924 27.2781 20.9997 26.9 20.9999H5.1C4.72265 21.0021 4.35258 20.8961 4.03358 20.6945C3.71458 20.493 3.46001 20.2042 3.3 19.8624V19.8624ZM28 24.9999H4C3.73478 24.9999 3.48043 25.1053 3.29289 25.2928C3.10536 25.4804 3 25.7347 3 25.9999C3 26.2652 3.10536 26.5195 3.29289 26.7071C3.48043 26.8946 3.73478 26.9999 4 26.9999H28C28.2652 26.9999 28.5196 26.8946 28.7071 26.7071C28.8946 26.5195 29 26.2652 29 25.9999C29 25.7347 28.8946 25.4804 28.7071 25.2928C28.5196 25.1053 28.2652 24.9999 28 24.9999Z" fill="#49536E"/>
</svg>
