<svg width="32" height="32" viewBox="0 0 32 32" fill="none" xmlns="http://www.w3.org/2000/svg">
<path d="M26.9988 25.975H16.2863L20.6363 21.6375L27.7113 14.5625C28.2693 13.9985 28.5823 13.2371 28.5823 12.4437C28.5823 11.6504 28.2693 10.889 27.7113 10.325L22.0488 4.66249C21.4864 4.10145 20.7244 3.78638 19.93 3.78638C19.1356 3.78638 18.3737 4.10145 17.8113 4.66249L10.7363 11.7375L3.66127 18.8125C3.10023 19.3749 2.78516 20.1368 2.78516 20.9312C2.78516 21.7256 3.10023 22.4876 3.66127 23.05L8.29877 27.6875C8.3923 27.7806 8.50353 27.854 8.62591 27.9034C8.74829 27.9528 8.87932 27.9771 9.01127 27.975H26.9988C27.264 27.975 27.5183 27.8696 27.7059 27.6821C27.8934 27.4946 27.9988 27.2402 27.9988 26.975C27.9988 26.7098 27.8934 26.4554 27.7059 26.2679C27.5183 26.0803 27.264 25.975 26.9988 25.975ZM19.2238 6.07499C19.4128 5.89097 19.6662 5.788 19.93 5.788C20.1938 5.788 20.4472 5.89097 20.6363 6.07499L26.2863 11.7375C26.3804 11.8295 26.4552 11.9393 26.5062 12.0606C26.5573 12.1819 26.5836 12.3121 26.5836 12.4437C26.5836 12.5753 26.5573 12.7056 26.5062 12.8269C26.4552 12.9482 26.3804 13.058 26.2863 13.15L19.9238 19.5125L12.8613 12.4375L19.2238 6.07499Z" fill="#49536E"/>
</svg>
