<svg width="32" height="32" viewBox="0 0 32 32" fill="none" xmlns="http://www.w3.org/2000/svg">
<path d="M26.4387 16.15C27.2904 15.4195 28.0729 14.6119 28.7762 13.7375C28.8593 13.6361 28.9214 13.5193 28.9589 13.3937C28.9964 13.2681 29.0085 13.1363 28.9945 13.006C28.9805 12.8757 28.9408 12.7495 28.8775 12.6347C28.8143 12.5199 28.7289 12.4189 28.6262 12.3375C28.5256 12.2537 28.4094 12.1907 28.2843 12.1522C28.1592 12.1137 28.0277 12.1005 27.8974 12.1132C27.7671 12.126 27.6407 12.1646 27.5255 12.2267C27.4102 12.2888 27.3085 12.3732 27.2262 12.475C26.4437 13.4505 25.5502 14.3314 24.5637 15.1H24.5387C22.4762 16.7 19.6637 17.9875 16.0012 17.9875C12.907 18.0172 9.89374 16.9996 7.45117 15.1H7.43867C6.45216 14.3314 5.55862 13.4505 4.77617 12.475C4.69384 12.3732 4.5921 12.2888 4.47687 12.2267C4.36164 12.1646 4.23521 12.126 4.10494 12.1132C3.97467 12.1005 3.84315 12.1137 3.71804 12.1522C3.59293 12.1907 3.47672 12.2537 3.37617 12.3375C3.27348 12.4189 3.18802 12.5199 3.12479 12.6347C3.06155 12.7495 3.02179 12.8757 3.00783 13.006C2.99387 13.1363 3.00598 13.2681 3.04347 13.3937C3.08095 13.5193 3.14306 13.6361 3.22617 13.7375C3.9294 14.6119 4.71189 15.4195 5.56367 16.15L3.12617 20.375C3.03855 20.5267 2.99234 20.6988 2.99219 20.8741C2.99203 21.0493 3.03793 21.2215 3.12528 21.3734C3.21263 21.5254 3.33837 21.6516 3.4899 21.7397C3.64143 21.8277 3.81343 21.8743 3.98867 21.875C4.1631 21.8719 4.33387 21.8244 4.4848 21.7369C4.63573 21.6494 4.76183 21.5248 4.85117 21.375L7.16367 17.3625C8.51623 18.273 10.0059 18.9608 11.5762 19.4L10.8387 23.525C10.7949 23.7865 10.8554 24.0549 11.0074 24.2722C11.1593 24.4896 11.3905 24.6387 11.6512 24.6875H11.8262C12.0615 24.6881 12.2896 24.6058 12.4702 24.4549C12.6509 24.304 12.7725 24.0942 12.8137 23.8625L13.5262 19.8125C14.3457 19.9335 15.1728 19.9962 16.0012 20C16.8251 20.0008 17.6481 19.9423 18.4637 19.825L19.1762 23.875C19.2174 24.1067 19.339 24.3165 19.5196 24.4674C19.7002 24.6183 19.9283 24.7006 20.1637 24.7H20.3387C20.5994 24.6512 20.8305 24.5021 20.9825 24.2847C21.1344 24.0674 21.195 23.799 21.1512 23.5375L20.4262 19.425C21.9922 18.9791 23.4774 18.2872 24.8262 17.375L27.1262 21.35C27.2147 21.5033 27.3423 21.6304 27.4961 21.7182C27.6498 21.8061 27.8241 21.8515 28.0012 21.85C28.1774 21.8514 28.3505 21.8038 28.5012 21.7125C28.7293 21.5793 28.8955 21.3612 28.9634 21.106C29.0313 20.8507 28.9955 20.5789 28.8637 20.35L26.4387 16.15Z" fill="#49536E"/>
</svg>
