<svg width="32" height="32" viewBox="0 0 32 32" fill="none" xmlns="http://www.w3.org/2000/svg">
<path d="M27.9997 8.4375C27.9951 7.83413 27.8674 7.23805 27.6245 6.68569C27.3817 6.13334 27.0287 5.63631 26.5872 5.225C24.8372 3.575 21.9997 3.6375 20.2622 5.375L17.5247 8.1125C16.9521 7.59383 16.2021 7.31499 15.4298 7.3336C14.6574 7.35221 13.9217 7.66686 13.3747 8.2125L12.4997 9.0875C12.1287 9.46403 11.9208 9.97141 11.9208 10.5C11.9208 11.0286 12.1287 11.536 12.4997 11.9125L12.7622 12.175L6.46223 18.4625C5.88797 19.0414 5.46282 19.7511 5.22332 20.5306C4.98382 21.31 4.93712 22.136 5.08723 22.9375L3.86223 25.7375C3.72238 26.0535 3.68216 26.4046 3.74692 26.7441C3.81168 27.0835 3.97836 27.3952 4.22473 27.6375C4.40927 27.8244 4.62925 27.9727 4.87179 28.0736C5.11433 28.1744 5.37455 28.2259 5.63723 28.225C5.91213 28.2254 6.18426 28.1701 6.43723 28.0625L9.06223 26.9125C9.86373 27.0626 10.6897 27.0159 11.4692 26.7764C12.2486 26.5369 12.9583 26.1118 13.5372 25.5375L19.8247 19.2375L20.0872 19.5C20.272 19.6867 20.492 19.8349 20.7345 19.9361C20.9769 20.0372 21.237 20.0893 21.4997 20.0893C21.7624 20.0893 22.0225 20.0372 22.265 19.9361C22.5074 19.8349 22.7274 19.6867 22.9122 19.5L23.7872 18.625C24.3329 18.078 24.6475 17.3423 24.6661 16.57C24.6847 15.7976 24.4059 15.0476 23.8872 14.475L26.6872 11.6875C27.1111 11.2603 27.4456 10.7528 27.6709 10.1947C27.8963 9.63669 28.0081 9.03929 27.9997 8.4375V8.4375ZM17.2372 19H8.76223L14.1747 13.5875L18.4122 17.825L17.2372 19ZM25.2622 10.2625L21.7622 13.7625C21.5745 13.9521 21.4691 14.2082 21.4691 14.475C21.4691 14.7419 21.5745 14.9979 21.7622 15.1875L22.3747 15.7875C22.5625 15.9771 22.6679 16.2332 22.6679 16.5C22.6679 16.7669 22.5625 17.0229 22.3747 17.2125L21.4997 18.0875L13.9122 10.5L14.7872 9.625C14.8803 9.53052 14.9912 9.45549 15.1135 9.40427C15.2358 9.35305 15.3671 9.32668 15.4997 9.32668C15.6323 9.32668 15.7636 9.35305 15.8859 9.40427C16.0083 9.45549 16.1192 9.53052 16.2122 9.625L16.8122 10.2375C17.0018 10.4253 17.2579 10.5306 17.5247 10.5306C17.7916 10.5306 18.0476 10.4253 18.2372 10.2375L21.6747 6.7875C22.6622 5.8125 24.2497 5.7625 25.2122 6.6875C25.457 6.91454 25.653 7.18897 25.7883 7.4941C25.9237 7.79924 25.9956 8.12871 25.9997 8.4625C26.0077 8.79719 25.9463 9.1299 25.8194 9.43969C25.6924 9.74948 25.5028 10.0296 25.2622 10.2625V10.2625Z" fill="#49536E"/>
</svg>
