<svg width="32" height="32" viewBox="0 0 32 32" fill="none" xmlns="http://www.w3.org/2000/svg">
<path d="M27.9997 8.4375C27.9951 7.83413 27.8674 7.23805 27.6245 6.68569C27.3817 6.13334 27.0287 5.63631 26.5872 5.225C24.8372 3.575 21.9997 3.6375 20.2622 5.375L17.5247 8.1125C16.9521 7.59383 16.2021 7.31499 15.4298 7.3336C14.6574 7.35221 13.9217 7.66686 13.3747 8.2125L12.4997 9.0875C12.1287 9.46403 11.9208 9.97141 11.9208 10.5C11.9208 11.0286 12.1287 11.536 12.4997 11.9125L12.7622 12.175L6.46223 18.4625C5.88797 19.0414 5.46282 19.7511 5.22332 20.5306C4.98382 21.31 4.93712 22.136 5.08723 22.9375L3.86223 25.7375C3.72238 26.0535 3.68216 26.4046 3.74692 26.7441C3.81168 27.0835 3.97836 27.3952 4.22473 27.6375C4.40927 27.8244 4.62925 27.9727 4.87179 28.0736C5.11433 28.1744 5.37455 28.2259 5.63723 28.225C5.91213 28.2254 6.18426 28.1701 6.43723 28.0625L9.06223 26.9125C9.86373 27.0626 10.6897 27.0159 11.4692 26.7764C12.2486 26.5369 12.9583 26.1118 13.5372 25.5375L19.8247 19.2375L20.0872 19.5C20.272 19.6867 20.492 19.8349 20.7345 19.9361C20.9769 20.0372 21.237 20.0893 21.4997 20.0893C21.7624 20.0893 22.0225 20.0372 22.265 19.9361C22.5074 19.8349 22.7274 19.6867 22.9122 19.5L23.7872 18.625C24.3329 18.078 24.6475 17.3423 24.6661 16.57C24.6847 15.7976 24.4059 15.0476 23.8872 14.475L26.6872 11.6875C27.1111 11.2603 27.4456 10.7528 27.6709 10.1947C27.8963 9.63669 28.0081 9.03929 27.9997 8.4375V8.4375ZM12.1247 24.125C11.7499 24.4943 11.2855 24.7599 10.7772 24.8958C10.2688 25.0316 9.73384 25.0331 9.22473 24.9C9.00465 24.8407 8.77091 24.8583 8.56223 24.95L5.87473 26.125L7.04973 23.4375C7.14141 23.2288 7.15906 22.9951 7.09973 22.775C6.96665 22.2659 6.96811 21.731 7.10397 21.2226C7.23983 20.7142 7.50542 20.2499 7.87473 19.875L14.1747 13.5875L18.4122 17.825L12.1247 24.125Z" fill="#49536E"/>
</svg>
