<svg width="32" height="32" viewBox="0 0 32 32" fill="none" xmlns="http://www.w3.org/2000/svg">
<path d="M30.9124 15.6C30.8749 15.5 29.8124 13.15 27.4624 10.7875C24.3249 7.66253 20.3624 6.00003 15.9999 6.00003C15.0785 5.99835 14.1587 6.07361 13.2499 6.22503C13.0743 6.25793 12.9105 6.33671 12.7752 6.45337C12.6399 6.57003 12.5378 6.72041 12.4794 6.88926C12.421 7.0581 12.4084 7.23938 12.4427 7.41471C12.477 7.59004 12.5571 7.75317 12.6749 7.88753L25.3374 21.8125C25.431 21.9149 25.5449 21.9967 25.6719 22.0526C25.7989 22.1086 25.9361 22.1375 26.0749 22.1375C26.3219 22.1342 26.5603 22.046 26.7499 21.8875C29.5999 19.325 30.8624 16.525 30.9124 16.4125C30.9677 16.2842 30.9963 16.146 30.9963 16.0063C30.9963 15.8666 30.9677 15.7283 30.9124 15.6V15.6Z" fill="#49536E"/>
<path d="M6.73785 4.32502C6.55718 4.13601 6.30968 4.02528 6.04835 4.01655C5.78703 4.00782 5.53269 4.10179 5.33981 4.27832C5.14693 4.45485 5.03087 4.6999 5.01648 4.96097C5.0021 5.22205 5.09054 5.47837 5.26285 5.67502L7.66285 8.31252C3.12535 11.1 1.17535 15.4 1.08785 15.6C1.03247 15.7283 1.00391 15.8665 1.00391 16.0063C1.00391 16.146 1.03247 16.2842 1.08785 16.4125C1.12535 16.5 2.18785 18.85 4.53785 21.2125C7.67535 24.3375 11.6379 26 16.0004 26C18.2422 26.0153 20.4618 25.5552 22.5129 24.65L25.2629 27.675C25.3565 27.7774 25.4704 27.8592 25.5974 27.9151C25.7244 27.9711 25.8616 28 26.0004 28C26.2498 27.9976 26.4898 27.9042 26.6754 27.7375C26.7736 27.6498 26.8534 27.5433 26.9099 27.4242C26.9664 27.3052 26.9985 27.1761 27.0043 27.0444C27.0101 26.9128 26.9896 26.7814 26.9438 26.6578C26.898 26.5342 26.828 26.4211 26.7379 26.325L6.73785 4.32502ZM16.0004 20.5C15.178 20.4995 14.3715 20.2736 13.6685 19.8469C12.9655 19.4203 12.3929 18.8091 12.0128 18.0799C11.6327 17.3506 11.4597 16.5312 11.5126 15.7105C11.5655 14.8899 11.8423 14.0994 12.3129 13.425L18.2129 19.9125C17.5396 20.299 16.7766 20.5016 16.0004 20.5V20.5Z" fill="#49536E"/>
</svg>
