<svg width="32" height="32" viewBox="0 0 32 32" fill="none" xmlns="http://www.w3.org/2000/svg">
<path d="M28 9.00005H27.875C27.7735 8.73017 27.6148 8.48544 27.4098 8.28263C27.2048 8.07982 26.9584 7.92372 26.6875 7.82505L16.6875 4.18755C16.2436 4.02505 15.7564 4.02505 15.3125 4.18755L5.3125 7.82505C5.04156 7.92372 4.79516 8.07982 4.59019 8.28263C4.38523 8.48544 4.22653 8.73017 4.125 9.00005H4C2.94015 9.00335 1.92465 9.42583 1.17521 10.1753C0.425783 10.9247 0.00329661 11.9402 0 13.0001L0 16.0001C0.00329661 17.0599 0.425783 18.0754 1.17521 18.8248C1.92465 19.5743 2.94015 19.9968 4 20.0001H4.65C5.475 21.8001 7.0625 23.3751 9.35 24.6501C11.9875 26.1126 14.8 26.7751 15.5875 26.9376L16 26.9751L16.4125 26.9376C17.2 26.7751 20.0125 26.1126 22.65 24.6501C24.9375 23.3751 26.525 21.8001 27.35 20.0001H28C29.0599 19.9968 30.0754 19.5743 30.8248 18.8248C31.5742 18.0754 31.9967 17.0599 32 16.0001V13.0001C31.9967 11.9402 31.5742 10.9247 30.8248 10.1753C30.0754 9.42583 29.0599 9.00335 28 9.00005V9.00005ZM4 18.0001C3.46957 18.0001 2.96086 17.7893 2.58579 17.4143C2.21071 17.0392 2 16.5305 2 16.0001V13.0001C2 12.4696 2.21071 11.9609 2.58579 11.5858C2.96086 11.2108 3.46957 11.0001 4 11.0001V17.0001C3.99965 17.3348 4.02472 17.6691 4.075 18.0001H4ZM21 19.0001H11C10.7348 19.0001 10.4804 18.8947 10.2929 18.7072C10.1054 18.5196 10 18.2653 10 18.0001C10 17.7348 10.1054 17.4805 10.2929 17.2929C10.4804 17.1054 10.7348 17.0001 11 17.0001H21C21.2652 17.0001 21.5196 17.1054 21.7071 17.2929C21.8946 17.4805 22 17.7348 22 18.0001C22 18.2653 21.8946 18.5196 21.7071 18.7072C21.5196 18.8947 21.2652 19.0001 21 19.0001ZM21 15.0001H11C10.7348 15.0001 10.4804 14.8947 10.2929 14.7072C10.1054 14.5196 10 14.2653 10 14.0001C10 13.7348 10.1054 13.4805 10.2929 13.2929C10.4804 13.1054 10.7348 13.0001 11 13.0001H21C21.2652 13.0001 21.5196 13.1054 21.7071 13.2929C21.8946 13.4805 22 13.7348 22 14.0001C22 14.2653 21.8946 14.5196 21.7071 14.7072C21.5196 14.8947 21.2652 15.0001 21 15.0001ZM30 16.0001C30 16.5305 29.7893 17.0392 29.4142 17.4143C29.0391 17.7893 28.5304 18.0001 28 18.0001H27.925C27.9753 17.6691 28.0003 17.3348 28 17.0001V11.0001C28.5304 11.0001 29.0391 11.2108 29.4142 11.5858C29.7893 11.9609 30 12.4696 30 13.0001V16.0001Z" fill="#49536E"/>
</svg>
