<svg width="32" height="32" viewBox="0 0 32 32" fill="none" xmlns="http://www.w3.org/2000/svg">
<path d="M23.3247 11.75C24.222 11.0992 24.8903 10.1812 25.2339 9.12728C25.5775 8.07341 25.5787 6.93783 25.2373 5.88324C24.896 4.82864 24.2296 3.90915 23.3336 3.2565C22.4377 2.60385 21.3581 2.25152 20.2497 2.25H11.7497C10.6412 2.25152 9.56168 2.60385 8.66572 3.2565C7.76977 3.90915 7.10338 4.82864 6.76202 5.88324C6.42067 6.93783 6.42186 8.07341 6.76544 9.12728C7.10902 10.1812 7.77735 11.0992 8.67468 11.75C8.001 12.2352 7.45231 12.8736 7.07386 13.6125C6.69541 14.3515 6.49805 15.1698 6.49805 16C6.49805 16.8302 6.69541 17.6485 7.07386 18.3875C7.45231 19.1264 8.001 19.7648 8.67468 20.25C7.94597 20.7766 7.36471 21.4815 6.98659 22.2972C6.60846 23.1129 6.44614 24.012 6.51519 24.9084C6.58423 25.8048 6.88232 26.6685 7.3809 27.4166C7.87947 28.1648 8.56183 28.7723 9.36258 29.1811C10.1633 29.5899 11.0556 29.7862 11.954 29.7512C12.8524 29.7162 13.7267 29.4511 14.4933 28.9813C15.2598 28.5114 15.8928 27.8526 16.3317 27.068C16.7706 26.2833 17.0006 25.3991 16.9997 24.5V20.1125C17.5446 20.5723 18.1775 20.9163 18.8597 21.1235C19.542 21.3306 20.2592 21.3967 20.9678 21.3176C21.6764 21.2385 22.3615 21.0158 22.9812 20.6633C23.6009 20.3107 24.1424 19.8356 24.5725 19.267C25.0026 18.6983 25.3123 18.048 25.4829 17.3557C25.6534 16.6634 25.6812 15.9436 25.5644 15.2403C25.4476 14.5369 25.1888 13.8647 24.8038 13.2646C24.4187 12.6645 23.9154 12.1492 23.3247 11.75ZM23.4997 7.5C23.4964 8.36094 23.1529 9.18568 22.5441 9.79446C21.9354 10.4032 21.1106 10.7467 20.2497 10.75H16.9997V4.25H20.2497C21.1106 4.25329 21.9354 4.59676 22.5441 5.20554C23.1529 5.81432 23.4964 6.63906 23.4997 7.5ZM20.2497 19.25C19.3877 19.25 18.5611 18.9076 17.9516 18.2981C17.3421 17.6886 16.9997 16.862 16.9997 16C16.9997 15.138 17.3421 14.3114 17.9516 13.7019C18.5611 13.0924 19.3877 12.75 20.2497 12.75V12.75C21.1116 12.75 21.9383 13.0924 22.5478 13.7019C23.1573 14.3114 23.4997 15.138 23.4997 16C23.4997 16.862 23.1573 17.6886 22.5478 18.2981C21.9383 18.9076 21.1116 19.25 20.2497 19.25V19.25Z" fill="#49536E"/>
</svg>
