<svg width="32" height="32" viewBox="0 0 32 32" fill="none" xmlns="http://www.w3.org/2000/svg">
<path d="M26.7 10.2876L19.7125 3.2876L19.675 3.2626L19.6375 3.2251L19.6 3.2001L19.5625 3.1751C19.55 3.1626 19.5375 3.1626 19.5375 3.1501L19.475 3.1126H19.45L19.3875 3.0751H19.375L19.2875 3.0376H7C6.476 3.03751 5.97289 3.24306 5.59888 3.61006C5.22487 3.97706 5.00982 4.47619 5 5.0001V27.0001C5 27.5305 5.21071 28.0392 5.58579 28.4143C5.96086 28.7894 6.46957 29.0001 7 29.0001H25C25.5304 29.0001 26.0391 28.7894 26.4142 28.4143C26.7893 28.0392 27 27.5305 27 27.0001V11.0001C27.0012 10.8672 26.9752 10.7354 26.9236 10.6128C26.872 10.4903 26.7959 10.3796 26.7 10.2876V10.2876ZM20.675 23.6876C20.4883 23.8714 20.237 23.9747 19.975 23.9751C19.7095 23.974 19.4545 23.8711 19.2625 23.6876L17.9 22.3126C17.1787 22.7586 16.3481 22.9966 15.5 23.0001C14.61 23.0001 13.74 22.7362 12.9999 22.2417C12.2599 21.7472 11.6831 21.0444 11.3425 20.2222C11.0019 19.3999 10.9128 18.4951 11.0865 17.6222C11.2601 16.7493 11.6887 15.9475 12.318 15.3181C12.9474 14.6888 13.7492 14.2602 14.6221 14.0866C15.495 13.9129 16.3998 14.002 17.2221 14.3426C18.0443 14.6832 18.7471 15.26 19.2416 16C19.7361 16.7401 20 17.6101 20 18.5001C20.0031 19.3491 19.7647 20.1815 19.3125 20.9001L20.675 22.2626C20.7695 22.3556 20.8445 22.4666 20.8957 22.5889C20.947 22.7112 20.9733 22.8425 20.9733 22.9751C20.9733 23.1077 20.947 23.239 20.8957 23.3613C20.8445 23.4836 20.7695 23.5945 20.675 23.6876ZM19 11.0001V5.4126L24.5875 11.0001H19Z" fill="#49536E"/>
<path d="M15.4999 16C15.172 16.0007 14.8475 16.0662 14.545 16.1928C14.2426 16.3194 13.9681 16.5045 13.7374 16.7375C13.5038 16.9678 13.3184 17.2422 13.1918 17.5447C13.0652 17.8473 13 18.172 13 18.5C13 18.828 13.0652 19.1527 13.1918 19.4553C13.3184 19.7578 13.5038 20.0322 13.7374 20.2625C13.9685 20.4946 14.2432 20.6787 14.5456 20.8043C14.8481 20.93 15.1724 20.9947 15.4999 20.9947C15.8274 20.9947 16.1517 20.93 16.4542 20.8043C16.7566 20.6787 17.0313 20.4946 17.2624 20.2625C17.496 20.0322 17.6814 19.7578 17.808 19.4553C17.9346 19.1527 17.9998 18.828 17.9998 18.5C17.9998 18.172 17.9346 17.8473 17.808 17.5447C17.6814 17.2422 17.496 16.9678 17.2624 16.7375C17.0317 16.5045 16.7573 16.3194 16.4548 16.1928C16.1523 16.0662 15.8278 16.0007 15.4999 16V16Z" fill="#49536E"/>
</svg>
