<svg width="32" height="32" viewBox="0 0 32 32" fill="none" xmlns="http://www.w3.org/2000/svg">
<path d="M26.7131 10.2875L19.7131 3.28752C19.5226 3.10179 19.2666 2.99852 19.0006 3.00002H7.00058C6.47015 3.00002 5.96144 3.21073 5.58637 3.5858C5.2113 3.96088 5.00058 4.46958 5.00058 5.00002V17C5.00058 17.2652 5.10594 17.5196 5.29348 17.7071C5.48101 17.8947 5.73537 18 6.00058 18C6.2658 18 6.52015 17.8947 6.70769 17.7071C6.89523 17.5196 7.00058 17.2652 7.00058 17V5.00002H18.0006V11C18.0006 11.2652 18.1059 11.5196 18.2935 11.7071C18.481 11.8947 18.7354 12 19.0006 12H25.0006V27H24.0006C23.7354 27 23.481 27.1054 23.2935 27.2929C23.1059 27.4804 23.0006 27.7348 23.0006 28C23.0006 28.2652 23.1059 28.5196 23.2935 28.7071C23.481 28.8947 23.7354 29 24.0006 29H25.0006C25.531 29 26.0397 28.7893 26.4148 28.4142C26.7899 28.0392 27.0006 27.5304 27.0006 27V11C27.0021 10.734 26.8988 10.478 26.7131 10.2875V10.2875ZM20.0006 10V6.41252L23.5881 10H20.0006ZM19.8381 27.45C19.9346 27.6019 19.9899 27.7762 19.9987 27.9559C20.0075 28.1356 19.9693 28.3145 19.8881 28.475C19.8018 28.6349 19.6736 28.7682 19.5172 28.8607C19.3609 28.9532 19.1823 29.0014 19.0006 29H3.00058C2.82104 28.9991 2.64504 28.9499 2.49108 28.8575C2.33712 28.7651 2.21087 28.633 2.12558 28.475C2.03979 28.3186 1.99798 28.1419 2.00458 27.9636C2.01119 27.7853 2.06596 27.6122 2.16308 27.4625L6.23808 21.1125C6.37384 20.9009 6.5606 20.7268 6.78121 20.6063C7.00181 20.4857 7.24918 20.4225 7.50058 20.4225C7.75199 20.4225 7.99936 20.4857 8.21996 20.6063C8.44057 20.7268 8.62733 20.9009 8.76308 21.1125L9.56308 22.3625L11.7506 19.075C11.8874 18.8687 12.0732 18.6995 12.2913 18.5825C12.5094 18.4654 12.7531 18.4042 13.0006 18.4042C13.2481 18.4042 13.4918 18.4654 13.7099 18.5825C13.928 18.6995 14.1138 18.8687 14.2506 19.075L19.8381 27.45Z" fill="#49536E"/>
</svg>
