<svg width="32" height="32" viewBox="0 0 32 32" fill="none" xmlns="http://www.w3.org/2000/svg">
<path d="M23.5009 22V23H25.5009C25.7661 23 26.0205 23.1054 26.208 23.2929C26.3956 23.4804 26.5009 23.7348 26.5009 24C26.5009 24.2652 26.3956 24.5196 26.208 24.7071C26.0205 24.8947 25.7661 25 25.5009 25H23.5009V26H26.0009C26.2661 26 26.5205 26.1054 26.708 26.2929C26.8956 26.4804 27.0009 26.7348 27.0009 27C27.0009 27.2652 26.8956 27.5196 26.708 27.7071C26.5205 27.8947 26.2661 28 26.0009 28H22.5009C22.2357 28 21.9814 27.8947 21.7938 27.7071C21.6063 27.5196 21.5009 27.2652 21.5009 27V21C21.5009 20.7348 21.6063 20.4804 21.7938 20.2929C21.9814 20.1054 22.2357 20 22.5009 20H26.0009C26.2661 20 26.5205 20.1054 26.708 20.2929C26.8956 20.4804 27.0009 20.7348 27.0009 21C27.0009 21.2652 26.8956 21.5196 26.708 21.7071C26.5205 21.8947 26.2661 22 26.0009 22H23.5009ZM10.8884 20.075C10.767 20.0237 10.6366 19.997 10.5048 19.9962C10.373 19.9955 10.2424 20.0209 10.1204 20.0708C9.99843 20.1208 9.88753 20.1944 9.79409 20.2873C9.70065 20.3803 9.62651 20.4908 9.57593 20.6125L8.00093 24.4L6.42593 20.6125C6.32316 20.3672 6.12714 20.1727 5.881 20.0719C5.63486 19.9711 5.35876 19.9722 5.11343 20.075C4.86811 20.1778 4.67366 20.3738 4.57286 20.6199C4.47205 20.8661 4.47316 21.1422 4.57593 21.3875L7.07593 27.3875C7.15127 27.5709 7.27944 27.7278 7.44414 27.8382C7.60885 27.9486 7.80265 28.0075 8.00093 28.0075C8.19922 28.0075 8.39302 27.9486 8.55772 27.8382C8.72243 27.7278 8.85059 27.5709 8.92593 27.3875L11.4259 21.3875C11.4772 21.2661 11.504 21.1357 11.5047 21.0039C11.5054 20.8721 11.4801 20.7415 11.4301 20.6195C11.3802 20.4975 11.3066 20.3866 11.2136 20.2932C11.1207 20.1997 11.0102 20.1256 10.8884 20.075V20.075ZM18.5009 20C18.2357 20 17.9814 20.1054 17.7938 20.2929C17.6063 20.4804 17.5009 20.7348 17.5009 21V24.75C17.5009 25.0815 17.3692 25.3995 17.1348 25.6339C16.9004 25.8683 16.5825 26 16.2509 26C15.9194 26 15.6015 25.8683 15.3671 25.6339C15.1326 25.3995 15.0009 25.0815 15.0009 24.75V21C15.0009 20.7348 14.8956 20.4804 14.708 20.2929C14.5205 20.1054 14.2662 20 14.0009 20C13.7357 20 13.4814 20.1054 13.2938 20.2929C13.1063 20.4804 13.0009 20.7348 13.0009 21V24.75C13.0009 25.612 13.3433 26.4386 13.9528 27.0481C14.5623 27.6576 15.389 28 16.2509 28C17.1129 28 17.9395 27.6576 18.549 27.0481C19.1585 26.4386 19.5009 25.612 19.5009 24.75V21C19.5009 20.7348 19.3956 20.4804 19.208 20.2929C19.0205 20.1054 18.7662 20 18.5009 20ZM27.0009 11V16C27.0009 16.2652 26.8956 16.5196 26.708 16.7071C26.5205 16.8947 26.2661 17 26.0009 17H6.00093C5.73572 17 5.48136 16.8947 5.29383 16.7071C5.10629 16.5196 5.00093 16.2652 5.00093 16V5.00002C5.00093 4.46958 5.21165 3.96088 5.58672 3.5858C5.96179 3.21073 6.4705 3.00002 7.00093 3.00002H19.0009C19.267 2.99852 19.5229 3.10179 19.7134 3.28752L26.7134 10.2875C26.8992 10.478 27.0024 10.734 27.0009 11V11ZM24.5009 11L19.0009 5.50002V11H24.5009Z" fill="#49536E"/>
</svg>
