<svg width="32" height="32" viewBox="0 0 32 32" fill="none" xmlns="http://www.w3.org/2000/svg">
<path d="M27.0009 13.0001H12.6009L26.5134 9.27506C26.64 9.23979 26.7583 9.17961 26.8613 9.09804C26.9644 9.01648 27.0501 8.91517 27.1134 8.80006C27.1813 8.68886 27.2252 8.56473 27.2425 8.4356C27.2597 8.30646 27.2498 8.17516 27.2134 8.05006L26.1759 4.18756C26.1107 3.93357 25.9955 3.69512 25.8371 3.48612C25.6787 3.27713 25.4802 3.10177 25.2533 2.97028C25.0264 2.8388 24.7756 2.75382 24.5155 2.7203C24.2554 2.68678 23.9913 2.7054 23.7384 2.77506L4.41344 7.95006C4.15897 8.01674 3.92026 8.13327 3.71117 8.29289C3.50207 8.45252 3.32674 8.65207 3.19535 8.87997C3.06396 9.10787 2.97912 9.35959 2.94575 9.62052C2.91237 9.88146 2.93113 10.1464 3.00094 10.4001L4.00094 14.1376V25.0001C4.00094 25.5305 4.21165 26.0392 4.58673 26.4143C4.9618 26.7893 5.47051 27.0001 6.00094 27.0001H26.0009C26.5314 27.0001 27.0401 26.7893 27.4152 26.4143C27.7902 26.0392 28.0009 25.5305 28.0009 25.0001V14.0001C28.0009 13.7348 27.8956 13.4805 27.708 13.293C27.5205 13.1054 27.2662 13.0001 27.0009 13.0001ZM21.1634 8.63756L12.4634 10.9626L8.80094 8.83756L17.4884 6.51256L21.1634 8.63756ZM26.0009 25.0001H6.00094V15.0001H26.0009V25.0001Z" fill="#49536E"/>
</svg>
