<svg width="32" height="32" viewBox="0 0 32 32" fill="none" xmlns="http://www.w3.org/2000/svg">
<path d="M21.9999 15C21.7347 15 21.4804 15.1054 21.2928 15.2929C21.1053 15.4804 20.9999 15.7348 20.9999 16C21.0095 19.7825 20.2703 23.5295 18.8249 27.025C18.7636 27.1766 18.7404 27.341 18.7573 27.5037C18.7743 27.6664 18.8309 27.8225 18.9222 27.9582C19.0135 28.0939 19.1367 28.2052 19.281 28.2822C19.4254 28.3592 19.5864 28.3997 19.7499 28.4C19.9492 28.4013 20.1441 28.3423 20.3092 28.2308C20.4743 28.1192 20.6018 27.9603 20.6749 27.775C22.2143 24.0403 23.0043 20.0395 22.9999 16C22.9999 15.7348 22.8946 15.4804 22.707 15.2929C22.5195 15.1054 22.2651 15 21.9999 15Z" fill="#49536E"/>
<path d="M16.0009 11C16.7032 11.0029 17.3973 11.1522 18.0387 11.4384C18.6801 11.7247 19.2547 12.1416 19.7259 12.6625C19.8128 12.7611 19.9183 12.8416 20.0364 12.8993C20.1545 12.9571 20.2828 12.991 20.414 12.9991C20.5452 13.0072 20.6767 12.9894 20.801 12.9467C20.9253 12.9039 21.0399 12.8371 21.1384 12.75C21.2361 12.6622 21.3155 12.556 21.3721 12.4375C21.4288 12.319 21.4615 12.1905 21.4685 12.0593C21.4754 11.9282 21.4565 11.7969 21.4127 11.673C21.369 11.5492 21.3012 11.4352 21.2134 11.3375C20.2681 10.283 19.0252 9.53991 17.6488 9.20651C16.2724 8.87311 14.8272 8.96504 13.5042 9.47016C12.1811 9.97528 11.0424 10.8698 10.2383 12.0357C9.43432 13.2015 9.00284 14.5838 9.00087 16C8.99994 18.8813 8.26885 21.7154 6.87587 24.2375C6.75007 24.4683 6.7202 24.7394 6.79272 24.992C6.86524 25.2447 7.03431 25.4586 7.26337 25.5875C7.41276 25.6696 7.58044 25.7126 7.75087 25.7125C7.92942 25.7142 8.10509 25.6674 8.25917 25.5772C8.41325 25.4869 8.53998 25.3566 8.62587 25.2C10.1829 22.3836 11.0001 19.2182 11.0009 16C11.0042 14.675 11.532 13.4051 12.469 12.4681C13.4059 11.5312 14.6758 11.0033 16.0009 11Z" fill="#49536E"/>
<path d="M8.66217 7.79998C8.75984 7.71215 8.83926 7.60595 8.89588 7.48744C8.95251 7.36893 8.98524 7.24042 8.99221 7.10926C8.99917 6.9781 8.98023 6.84685 8.93647 6.723C8.89271 6.59916 8.82499 6.48515 8.73717 6.38748C8.64935 6.2898 8.54315 6.21039 8.42463 6.15376C8.30612 6.09713 8.17761 6.0644 8.04645 6.05744C7.91529 6.05047 7.78404 6.06941 7.66019 6.11317C7.53635 6.15693 7.42234 6.22465 7.32467 6.31248C5.96438 7.53336 4.87629 9.02688 4.13115 10.6959C3.386 12.365 3.00049 14.1722 2.99967 16C3.00196 17.5835 2.66078 19.1486 1.99967 20.5875C1.89242 20.8283 1.88335 21.1015 1.97438 21.349C2.06542 21.5964 2.24939 21.7986 2.48717 21.9125C2.62108 21.9713 2.76592 22.0011 2.91217 22C3.10325 22.001 3.29042 21.9459 3.45043 21.8414C3.61044 21.737 3.73623 21.5878 3.81217 21.4125C4.59846 19.7167 5.00379 17.8692 4.99967 16C5.00134 14.4528 5.32826 12.9233 5.95922 11.5106C6.59018 10.098 7.51108 8.83375 8.66217 7.79998V7.79998Z" fill="#49536E"/>
<path d="M15.9993 3C14.5221 2.99882 13.0555 3.24819 11.6618 3.7375C11.4134 3.82804 11.2104 4.01208 11.0959 4.25031C10.9815 4.48855 10.9647 4.76208 11.0493 5.0125C11.0927 5.13645 11.1602 5.25062 11.2478 5.34849C11.3354 5.44636 11.4415 5.52601 11.5599 5.58289C11.6783 5.63977 11.8067 5.67276 11.9379 5.67999C12.069 5.68722 12.2003 5.66853 12.3243 5.625C13.9842 5.03962 15.7603 4.86065 17.5036 5.1031C19.247 5.34555 20.9069 6.00234 22.3441 7.01844C23.7813 8.03454 24.9541 9.38035 25.764 10.9431C26.574 12.5058 26.9976 14.2399 26.9993 16C26.9972 18.6161 26.7037 21.2239 26.1243 23.775C26.0715 24.0348 26.1215 24.3049 26.2636 24.5287C26.4058 24.7524 26.6291 24.9124 26.8868 24.975L27.1118 25C27.3364 24.9996 27.5542 24.9226 27.7292 24.7817C27.9042 24.6408 28.0259 24.4444 28.0743 24.225C28.6889 21.5265 28.9992 18.7676 28.9993 16C28.9926 12.5542 27.6209 9.25146 25.1843 6.81491C22.7478 4.37837 19.445 3.00661 15.9993 3V3Z" fill="#49536E"/>
<path d="M14.2373 25.0875C13.9949 24.9811 13.7205 24.9738 13.4728 25.0673C13.2251 25.1607 13.0239 25.3475 12.9123 25.5875C12.6748 26.1125 12.3998 26.6375 12.1248 27.1375C11.9984 27.3702 11.9681 27.6431 12.0406 27.8978C12.113 28.1525 12.2823 28.3686 12.5123 28.5C12.661 28.5836 12.8291 28.6267 12.9998 28.625C13.1778 28.624 13.3524 28.5761 13.506 28.4862C13.6597 28.3962 13.7868 28.2673 13.8748 28.1125C14.1748 27.5625 14.4623 26.9875 14.7248 26.4125C14.8354 26.1721 14.8462 25.8976 14.7548 25.6493C14.6634 25.4009 14.4773 25.1989 14.2373 25.0875Z" fill="#49536E"/>
<path d="M16.001 15C15.7358 15 15.4814 15.1054 15.2939 15.2929C15.1063 15.4804 15.001 15.7348 15.001 16C14.9994 17.9394 14.7559 19.871 14.276 21.75C14.242 21.8772 14.2336 22.0099 14.251 22.1404C14.2685 22.2709 14.3116 22.3967 14.3778 22.5105C14.444 22.6243 14.532 22.7239 14.6368 22.8036C14.7416 22.8834 14.8611 22.9416 14.9885 22.975L15.2385 23C15.4608 22.9994 15.6767 22.9256 15.8529 22.79C16.0291 22.6545 16.1558 22.4647 16.2135 22.25C16.7387 20.2083 17.0033 18.1082 17.001 16C17.001 15.7348 16.8956 15.4804 16.7081 15.2929C16.5205 15.1054 16.2662 15 16.001 15Z" fill="#49536E"/>
</svg>
