<svg width="32" height="32" viewBox="0 0 32 32" fill="none" xmlns="http://www.w3.org/2000/svg">
<path d="M16.0003 3C12.5546 3.00661 9.25179 4.37837 6.81525 6.81491C4.37871 9.25145 3.00695 12.5542 3.00034 16C3.00119 17.2474 2.78984 18.4859 2.37534 19.6625C2.28702 19.9145 2.30183 20.1912 2.41655 20.4323C2.53127 20.6735 2.7366 20.8595 2.98784 20.95C3.09278 20.984 3.20252 21.0009 3.31284 21C3.51994 21 3.72205 20.9365 3.89192 20.818C4.06179 20.6995 4.19125 20.5318 4.26284 20.3375C4.75215 18.9438 5.00152 17.4771 5.00034 16C5.00034 13.0826 6.15927 10.2847 8.22217 8.22183C10.2851 6.15893 13.083 5 16.0003 5C18.9177 5 21.7156 6.15893 23.7785 8.22183C25.8414 10.2847 27.0003 13.0826 27.0003 16C26.9998 18.2869 26.7779 20.5684 26.3378 22.8125C26.2898 23.0724 26.3452 23.3408 26.4924 23.5603C26.6395 23.7799 26.8667 23.9332 27.1253 23.9875H27.3253C27.5556 23.9888 27.7791 23.9095 27.9572 23.7634C28.1352 23.6173 28.2566 23.4136 28.3003 23.1875C28.7644 20.8198 28.9989 18.4128 29.0003 16C28.997 12.5532 27.6263 9.24852 25.1891 6.81127C22.7518 4.37401 19.4471 3.00331 16.0003 3V3Z" fill="#49536E"/>
<path d="M11.6246 10.5375C11.8318 10.3717 11.9647 10.1304 11.994 9.86671C12.0233 9.60299 11.9467 9.33843 11.7809 9.13123C11.6151 8.92403 11.3739 8.79116 11.1101 8.76186C10.8464 8.73256 10.5818 8.80922 10.3746 8.97498C9.31881 9.81568 8.46678 10.8843 7.88233 12.1008C7.29787 13.3174 6.99611 14.6503 6.99964 16C7.00701 18.3164 6.4719 20.6025 5.43714 22.675C5.32337 22.9126 5.30673 23.1853 5.39075 23.435C5.47477 23.6848 5.65285 23.8919 5.88714 24.0125C6.02699 24.0813 6.18131 24.1156 6.33714 24.1125C6.52321 24.1124 6.70565 24.061 6.86442 23.9639C7.02319 23.8669 7.15215 23.728 7.23714 23.5625C8.39978 21.2112 9.003 18.623 8.99964 16C8.99902 14.9508 9.23467 13.915 9.6891 12.9693C10.1435 12.0237 10.8051 11.1925 11.6246 10.5375Z" fill="#49536E"/>
<path d="M15.9988 15C15.7336 15 15.4792 15.1054 15.2917 15.2929C15.1042 15.4804 14.9988 15.7348 14.9988 16C15.0031 19.8966 14.0136 23.7299 12.1238 27.1375C11.9984 27.3717 11.9701 27.6458 12.0449 27.9006C12.1197 28.1555 12.2917 28.3708 12.5238 28.5C12.6682 28.5831 12.8322 28.6263 12.9988 28.625C13.1771 28.6253 13.3522 28.578 13.5061 28.4879C13.6599 28.3978 13.7869 28.2682 13.8738 28.1125C15.9261 24.4055 17.0015 20.2372 16.9988 16C16.9988 15.7348 16.8934 15.4804 16.7059 15.2929C16.5184 15.1054 16.264 15 15.9988 15Z" fill="#49536E"/>
<path d="M16 11C14.6749 11.0033 13.4051 11.5311 12.4681 12.4681C11.5311 13.4051 11.0033 14.6749 11 16C11 16.2652 11.1054 16.5196 11.2929 16.7071C11.4804 16.8946 11.7348 17 12 17C12.2652 17 12.5196 16.8946 12.7071 16.7071C12.8946 16.5196 13 16.2652 13 16C13 15.2044 13.3161 14.4413 13.8787 13.8787C14.4413 13.3161 15.2044 13 16 13C16.7956 13 17.5587 13.3161 18.1213 13.8787C18.6839 14.4413 19 15.2044 19 16C19.0099 19.976 18.1345 23.9043 16.4375 27.5C16.3804 27.6189 16.3474 27.748 16.3403 27.8797C16.3333 28.0115 16.3524 28.1433 16.3966 28.2676C16.4407 28.392 16.509 28.5063 16.5976 28.6041C16.6861 28.7019 16.7932 28.7812 16.9125 28.8375C17.0464 28.8963 17.1912 28.9261 17.3375 28.925C17.5283 28.9249 17.7152 28.8708 17.8767 28.7691C18.0381 28.6674 18.1675 28.5221 18.25 28.35C20.0724 24.4886 21.0118 20.2698 21 16C20.9967 14.6749 20.4689 13.4051 19.5319 12.4681C18.5949 11.5311 17.3251 11.0033 16 11Z" fill="#49536E"/>
<path d="M11.8001 19.025C11.672 18.9977 11.5397 18.9961 11.411 19.0204C11.2823 19.0447 11.1597 19.0943 11.0503 19.1665C10.941 19.2386 10.8471 19.3317 10.7741 19.4405C10.7011 19.5493 10.6504 19.6715 10.6251 19.8C10.2127 21.7973 9.48705 23.7169 8.47514 25.4875C8.34335 25.7165 8.3075 25.9883 8.37542 26.2435C8.44334 26.4988 8.6095 26.7169 8.83763 26.85C8.98998 26.9375 9.16202 26.9848 9.33763 26.9875C9.51207 26.9845 9.68284 26.937 9.83377 26.8495C9.9847 26.762 10.1108 26.6374 10.2001 26.4875C11.334 24.5374 12.1365 22.4128 12.5751 20.2C12.6025 20.0719 12.6041 19.9397 12.5798 19.8109C12.5555 19.6822 12.5058 19.5596 12.4337 19.4502C12.3616 19.3409 12.2684 19.247 12.1597 19.174C12.0509 19.101 11.9287 19.0503 11.8001 19.025V19.025Z" fill="#49536E"/>
<path d="M15.9996 7C15.6233 7.00007 15.2475 7.02513 14.8746 7.075C14.7352 7.07915 14.5982 7.11239 14.4725 7.17259C14.3467 7.23279 14.235 7.31862 14.1444 7.42457C14.0537 7.53052 13.9863 7.65425 13.9463 7.78781C13.9063 7.92138 13.8947 8.06182 13.9122 8.20014C13.9297 8.33845 13.976 8.47158 14.048 8.59097C14.12 8.71036 14.2161 8.81337 14.3303 8.8934C14.4444 8.97343 14.5741 9.0287 14.7109 9.05567C14.8476 9.08264 14.9886 9.08071 15.1246 9.05C15.4121 9.025 15.7121 9 15.9996 9C17.8561 9 19.6365 9.7375 20.9493 11.0503C22.2621 12.363 22.9996 14.1435 22.9996 16C23.0022 17.2954 22.9229 18.5896 22.7621 19.875C22.7446 20.0048 22.7531 20.1369 22.7871 20.2634C22.8211 20.3899 22.88 20.5084 22.9603 20.6119C23.0406 20.7154 23.1406 20.802 23.2547 20.8665C23.3687 20.9309 23.4944 20.9721 23.6246 20.9875H23.7496C23.9937 20.9867 24.2294 20.8978 24.4132 20.737C24.5969 20.5762 24.7164 20.3544 24.7496 20.1125C24.9141 18.7436 24.9976 17.3662 24.9996 15.9875C24.9929 13.6037 24.0422 11.3197 22.3555 9.63526C20.6687 7.95085 18.3833 7.0033 15.9996 7V7Z" fill="#49536E"/>
<path d="M23.2379 23.0375C23.1115 23.0037 22.9796 22.9954 22.85 23.013C22.7203 23.0306 22.5955 23.0738 22.4826 23.1401C22.3698 23.2064 22.2713 23.2945 22.1928 23.3992C22.1143 23.5039 22.0574 23.6231 22.0254 23.75C21.8379 24.4625 21.6254 25.175 21.4004 25.875C21.3574 25.9989 21.3394 26.1301 21.3476 26.261C21.3558 26.3919 21.39 26.5198 21.4482 26.6373C21.5064 26.7548 21.5874 26.8596 21.6865 26.9455C21.7856 27.0314 21.9008 27.0966 22.0254 27.1375C22.1302 27.1725 22.2401 27.1894 22.3504 27.1875C22.5578 27.1877 22.7599 27.1226 22.9282 27.0014C23.0965 26.8803 23.2223 26.7092 23.2879 26.5125C23.5379 25.7625 23.7629 25.0125 23.9629 24.25C24.0273 23.9931 23.9871 23.7212 23.8512 23.4938C23.7153 23.2665 23.4947 23.1024 23.2379 23.0375Z" fill="#49536E"/>
</svg>
