<svg width="32" height="32" viewBox="0 0 32 32" fill="none" xmlns="http://www.w3.org/2000/svg">
<path d="M27.4883 17.5001C27.4883 20.55 26.2767 23.4751 24.12 25.6318C21.9633 27.7884 19.0383 29.0001 15.9883 29.0001C12.9383 29.0001 10.0132 27.7884 7.85655 25.6318C5.69988 23.4751 4.48828 20.55 4.48828 17.5001C4.48828 14.6126 5.72578 11.2876 8.16328 7.61255C8.30799 7.39458 8.53237 7.242 8.78828 7.18755C9.05228 7.13553 9.32616 7.18941 9.55078 7.33755L13.5758 10.0251L17.4383 1.92505C17.5062 1.78195 17.6075 1.65728 17.7337 1.56156C17.8598 1.46584 18.0072 1.40187 18.1633 1.37505C18.3224 1.34672 18.486 1.3569 18.6404 1.40474C18.7948 1.45258 18.9355 1.5367 19.0508 1.65005C20.8883 3.48755 22.9883 5.72505 24.6258 8.32505C26.5508 11.3876 27.4883 14.3876 27.4883 17.5001Z" fill="#49536E"/>
</svg>
