<svg width="33" height="32" viewBox="0 0 33 32" fill="none" xmlns="http://www.w3.org/2000/svg">
<path d="M22.0001 9.49997C22.0001 9.79664 21.9122 10.0866 21.7473 10.3333C21.5825 10.58 21.3482 10.7723 21.0742 10.8858C20.8001 10.9993 20.4985 11.029 20.2075 10.9711C19.9165 10.9133 19.6492 10.7704 19.4395 10.5606C19.2297 10.3508 19.0868 10.0836 19.0289 9.7926C18.9711 9.50163 19.0008 9.20003 19.1143 8.92594C19.2278 8.65185 19.4201 8.41758 19.6668 8.25276C19.9134 8.08794 20.2035 7.99997 20.5001 7.99997C20.898 7.99997 21.2795 8.158 21.5608 8.43931C21.8421 8.72061 22.0001 9.10214 22.0001 9.49997ZM26.7126 19.9375C24.1626 23.175 20.0626 24.95 14.5251 25.2L11.9251 31.3875C11.8473 31.5685 11.7183 31.7229 11.554 31.8317C11.3897 31.9405 11.1972 31.999 11.0001 32H10.9376C10.7305 31.989 10.532 31.913 10.3705 31.7829C10.2089 31.6527 10.0925 31.475 10.0376 31.275L8.18763 24.8125L1.72513 22.9625C1.52465 22.9065 1.34665 22.7893 1.21593 22.6273C1.08521 22.4653 1.0083 22.2666 0.995913 22.0588C0.983528 21.851 1.03629 21.6446 1.14684 21.4682C1.25739 21.2918 1.42022 21.1544 1.61263 21.075L7.80013 18.475C8.05013 12.9375 9.81263 8.83747 13.0626 6.28747C18.2001 2.23747 25.4876 3.41247 27.6001 3.87497C27.9741 3.95543 28.317 4.14212 28.5875 4.41263C28.858 4.68314 29.0447 5.02597 29.1251 5.39997C29.5876 7.51247 30.7626 14.8 26.7126 19.9375ZM27.1751 5.82497C25.2751 5.42497 18.7501 4.34997 14.3001 7.86247C13.8283 8.22796 13.393 8.6382 13.0001 9.08747C13.0263 10.3973 13.5642 11.6448 14.4987 12.563C15.4332 13.4812 16.69 13.997 18.0001 14C18.2653 14 18.5197 14.1053 18.7072 14.2929C18.8948 14.4804 19.0001 14.7347 19.0001 15C19.0031 16.3101 19.5189 17.5669 20.4371 18.5014C21.3553 19.4359 22.6028 19.9738 23.9126 20C24.3589 19.604 24.7689 19.169 25.1376 18.7C28.6501 14.25 27.5751 7.72497 27.1751 5.82497V5.82497Z" fill="#49536E"/>
</svg>
