<svg width="32" height="32" viewBox="0 0 32 32" fill="none" xmlns="http://www.w3.org/2000/svg">
<path d="M27.45 5.09993C27.2824 5.01988 27.0961 4.9869 26.9111 5.00451C26.7262 5.02212 26.5495 5.08967 26.4 5.19993C22.8625 7.84993 19.8625 6.57493 16.4 5.08743C12.9375 3.59993 8.8625 1.84993 4.4 5.19993C4.2758 5.29308 4.175 5.41386 4.10557 5.55272C4.03614 5.69157 4 5.84469 4 5.99993V26.9999C4 27.2651 4.10536 27.5195 4.29289 27.707C4.48043 27.8946 4.73478 27.9999 5 27.9999C5.26522 27.9999 5.51957 27.8946 5.70711 27.707C5.89464 27.5195 6 27.2651 6 26.9999V21.5124C9.3625 19.2499 12.2625 20.4874 15.6 21.9249C17.6375 22.7874 19.825 23.7249 22.175 23.7249C23.9 23.7249 25.7125 23.2249 27.6 21.7999C27.7235 21.7061 27.8238 21.5852 27.8931 21.4465C27.9625 21.3078 27.999 21.155 28 20.9999V5.99993C27.9985 5.81416 27.9465 5.63228 27.8496 5.47376C27.7528 5.31523 27.6146 5.18602 27.45 5.09993ZM19.5 21.2874V14.5999C17.1375 13.9249 14.8625 12.6124 12.5 11.9374V18.6374C10.4625 18.1124 8.3 18.0374 6 19.1999V12.5999C8.2875 11.2749 10.425 11.3499 12.5 11.9374V5.71243C13.5547 6.0597 14.5896 6.46448 15.6 6.92493C16.85 7.44993 18.15 8.01243 19.5 8.36243V14.5999C21.575 15.1874 23.7125 15.2624 26 13.9374V20.4874C23.7125 22.0249 21.6375 21.9499 19.5 21.2874Z" fill="#49536E"/>
</svg>
