<svg width="32" height="32" viewBox="0 0 32 32" fill="none" xmlns="http://www.w3.org/2000/svg">
<path d="M27.45 5.09993C27.2824 5.01988 27.0961 4.9869 26.9111 5.00451C26.7262 5.02212 26.5495 5.08967 26.4 5.19993C22.8625 7.84993 19.8625 6.57493 16.4 5.08743C12.9375 3.59993 8.8625 1.84993 4.4 5.19993H4.3875L4.3375 5.23743L4.3125 5.26243L4.275 5.29993L4.2375 5.33743L4.2125 5.37493L4.175 5.41243C4.175 5.42493 4.1625 5.43743 4.15 5.44993L4.125 5.49993C4.125 5.51243 4.1125 5.52493 4.1125 5.53743C4.09958 5.55138 4.09091 5.56873 4.0875 5.58743C4.075 5.59993 4.075 5.61243 4.0625 5.63743C4.05 5.66243 4.05 5.66243 4.05 5.67493C4.05 5.68743 4.0375 5.71243 4.0375 5.72493C4.0375 5.73743 4.025 5.74993 4.025 5.76243C4.025 5.77493 4.0125 5.79993 4.0125 5.81243V5.87493C4.0125 5.88743 4 5.91243 4 5.92493V26.9999C4 27.2651 4.10536 27.5195 4.29289 27.707C4.48043 27.8946 4.73478 27.9999 5 27.9999C5.26522 27.9999 5.51957 27.8946 5.70711 27.707C5.89464 27.5195 6 27.2651 6 26.9999V21.5124C9.3625 19.2499 12.2625 20.4874 15.6 21.9249C17.6375 22.7874 19.825 23.7249 22.175 23.7249C23.9 23.7249 25.7125 23.2249 27.6 21.7999C27.7235 21.7061 27.8238 21.5852 27.8931 21.4465C27.9625 21.3078 27.999 21.155 28 20.9999V5.99993C27.9985 5.81416 27.9465 5.63228 27.8496 5.47376C27.7528 5.31523 27.6146 5.18602 27.45 5.09993Z" fill="#49536E"/>
</svg>
