<svg width="32" height="32" viewBox="0 0 32 32" fill="none" xmlns="http://www.w3.org/2000/svg">
<path d="M31.3113 15.1624C31.1785 14.9311 31.0005 14.7289 30.7879 14.5679C30.5753 14.4068 30.3325 14.2902 30.0738 14.2249C28.9348 13.938 27.7528 13.8618 26.5863 13.9999C26.8881 12.2943 26.7767 10.5411 26.2613 8.88743C26.1109 8.41703 25.7908 8.01947 25.3633 7.77222C24.9358 7.52496 24.4316 7.44572 23.9488 7.54993C22.7873 7.80718 21.6792 8.26395 20.6738 8.89993C19.8724 7.21164 18.6813 5.73786 17.1988 4.59993C16.8535 4.33835 16.4321 4.19678 15.9988 4.19678C15.5656 4.19678 15.1442 4.33835 14.7988 4.59993C13.3163 5.73786 12.1253 7.21164 11.3238 8.89993C10.3184 8.26395 9.21035 7.80718 8.04884 7.54993C7.5661 7.44572 7.06186 7.52496 6.63436 7.77222C6.20686 8.01947 5.88673 8.41703 5.73634 8.88743C5.221 10.5411 5.10955 12.2943 5.41134 13.9999C4.24484 13.8618 3.06291 13.938 1.92384 14.2249C1.66549 14.29 1.42286 14.4064 1.21038 14.5671C0.997897 14.7278 0.819898 14.9296 0.686963 15.1605C0.554028 15.3914 0.46887 15.6467 0.436552 15.9111C0.404234 16.1756 0.425415 16.4438 0.498836 16.6999C0.936336 18.2749 2.28634 21.2874 6.38634 23.6499C10.4863 26.0124 14.0613 25.9999 15.9863 25.9999H16.0113C17.9363 25.9999 21.5363 25.9999 25.6113 23.6499C29.6863 21.2999 31.0613 18.2749 31.4988 16.6999C31.5714 16.4441 31.5922 16.1763 31.56 15.9123C31.5278 15.6483 31.4432 15.3934 31.3113 15.1624V15.1624ZM15.9988 6.19993C17.1988 7.09993 19.9988 9.74993 19.9988 14.9999C19.9988 20.2499 17.1988 22.8999 15.9988 23.7999C14.7988 22.8999 11.9988 20.2499 11.9988 14.9999C11.9988 9.74993 14.7988 7.09993 15.9988 6.19993ZM2.41134 16.1624C3.18634 15.9624 4.39884 15.8124 5.96134 16.0874C6.27864 16.996 6.68477 17.8711 7.17384 18.6999C8.2457 20.5519 9.65302 22.1881 11.3238 23.5249C9.94315 23.1719 8.61805 22.6292 7.38634 21.9124C3.91134 19.8999 2.78634 17.4374 2.41134 16.1624ZM24.6113 21.9124C23.3796 22.6292 22.0545 23.1719 20.6738 23.5249C22.3447 22.1881 23.752 20.5519 24.8238 18.6999C25.3129 17.8711 25.719 16.996 26.0363 16.0874C27.2071 15.8629 28.4117 15.8841 29.5738 16.1499C29.2113 17.4374 28.0863 19.8999 24.6113 21.9124Z" fill="#49536E"/>
</svg>
