<svg width="32" height="32" viewBox="0 0 32 32" fill="none" xmlns="http://www.w3.org/2000/svg">
<path d="M27 9.00007H16.3375L12.8625 6.40007C12.5181 6.1371 12.0958 5.99636 11.6625 6.00007H5C4.46957 6.00007 3.96086 6.21079 3.58579 6.58586C3.21071 6.96093 3 7.46964 3 8.00007V25.0001C3 25.5305 3.21071 26.0392 3.58579 26.4143C3.96086 26.7894 4.46957 27.0001 5 27.0001H27C27.5304 27.0001 28.0391 26.7894 28.4142 26.4143C28.7893 26.0392 29 25.5305 29 25.0001V11.0001C29 10.4696 28.7893 9.96093 28.4142 9.58586C28.0391 9.21079 27.5304 9.00007 27 9.00007ZM5 12.0001V8.00007H11.6625L14.3375 10.0001L11.6625 12.0001H5ZM19 19.5001H13C12.7348 19.5001 12.4804 19.3947 12.2929 19.2072C12.1054 19.0196 12 18.7653 12 18.5001C12 18.2349 12.1054 17.9805 12.2929 17.793C12.4804 17.6054 12.7348 17.5001 13 17.5001H19C19.2652 17.5001 19.5196 17.6054 19.7071 17.793C19.8946 17.9805 20 18.2349 20 18.5001C20 18.7653 19.8946 19.0196 19.7071 19.2072C19.5196 19.3947 19.2652 19.5001 19 19.5001Z" fill="#49536E"/>
</svg>
