<svg width="32" height="32" viewBox="0 0 32 32" fill="none" xmlns="http://www.w3.org/2000/svg">
<path d="M28.3375 27.2501C28.3755 27.3974 28.3795 27.5514 28.349 27.7005C28.3185 27.8495 28.2544 27.9896 28.1616 28.1102C28.0688 28.2307 27.9497 28.3285 27.8134 28.3961C27.6771 28.4636 27.5271 28.4992 27.375 28.5001H19.625C19.4729 28.4992 19.3229 28.4636 19.1866 28.3961C19.0503 28.3285 18.9312 28.2307 18.8384 28.1102C18.7456 27.9896 18.6815 27.8495 18.651 27.7005C18.6205 27.5514 18.6245 27.3974 18.6625 27.2501C18.9669 26.068 19.6912 25.0372 20.7 24.3501C20.1326 23.7939 19.7437 23.0813 19.5828 22.3033C19.422 21.5252 19.4965 20.7168 19.7969 19.9813C20.0973 19.2457 20.6099 18.6163 21.2694 18.1732C21.9289 17.7301 22.7055 17.4935 23.5 17.4935C24.2945 17.4935 25.0711 17.7301 25.7306 18.1732C26.3901 18.6163 26.9027 19.2457 27.2031 19.9813C27.5035 20.7168 27.578 21.5252 27.4172 22.3033C27.2563 23.0813 26.8674 23.7939 26.3 24.3501C27.3088 25.0372 28.0331 26.068 28.3375 27.2501ZM27 9.00007H16.3375L12.8625 6.40007C12.5181 6.1371 12.0958 5.99636 11.6625 6.00007H5C4.46957 6.00007 3.96086 6.21079 3.58579 6.58586C3.21071 6.96093 3 7.46964 3 8.00007V25.0001C3 25.5305 3.21071 26.0392 3.58579 26.4143C3.96086 26.7894 4.46957 27.0001 5 27.0001H15C15.2652 27.0001 15.5196 26.8947 15.7071 26.7072C15.8946 26.5196 16 26.2653 16 26.0001C16 25.7349 15.8946 25.4805 15.7071 25.293C15.5196 25.1054 15.2652 25.0001 15 25.0001H5V8.00007H11.6625L15.1375 10.6001C15.4819 10.863 15.9042 11.0038 16.3375 11.0001H27V15.0001C27 15.2653 27.1054 15.5196 27.2929 15.7072C27.4804 15.8947 27.7348 16.0001 28 16.0001C28.2652 16.0001 28.5196 15.8947 28.7071 15.7072C28.8946 15.5196 29 15.2653 29 15.0001V11.0001C29 10.4696 28.7893 9.96093 28.4142 9.58586C28.0391 9.21079 27.5304 9.00007 27 9.00007Z" fill="#49536E"/>
</svg>
