<svg width="32" height="32" viewBox="0 0 32 32" fill="none" xmlns="http://www.w3.org/2000/svg">
<path d="M27 9.00007H16.3375L12.8625 6.40007C12.5181 6.1371 12.0958 5.99636 11.6625 6.00007H5C4.46957 6.00007 3.96086 6.21079 3.58579 6.58586C3.21071 6.96093 3 7.46964 3 8.00007V25.0001C3 25.5305 3.21071 26.0392 3.58579 26.4143C3.96086 26.7894 4.46957 27.0001 5 27.0001H27.1125C27.6121 26.9968 28.0903 26.7969 28.4435 26.4436C28.7968 26.0903 28.9967 25.6122 29 25.1126V11.0001C29 10.4696 28.7893 9.96093 28.4142 9.58586C28.0391 9.21079 27.5304 9.00007 27 9.00007Z" fill="#49536E"/>
</svg>
