<svg width="32" height="32" viewBox="0 0 32 32" fill="none" xmlns="http://www.w3.org/2000/svg">
<path d="M30.2375 13.8251C30.05 13.5701 29.8053 13.3627 29.5231 13.2194C29.2408 13.0762 28.929 13.001 28.6125 13.0001H27V11.0001C27 10.4696 26.7893 9.96093 26.4142 9.58586C26.0391 9.21079 25.5304 9.00007 25 9.00007H16.3375L12.8625 6.40007C12.5181 6.1371 12.0958 5.99636 11.6625 6.00007H5C4.46957 6.00007 3.96086 6.21079 3.58579 6.58586C3.21071 6.96093 3 7.46964 3 8.00007V26.0001C3.00204 26.2007 3.06288 26.3962 3.175 26.5626C3.26575 26.6979 3.38857 26.8087 3.53252 26.885C3.67647 26.9613 3.83707 27.0009 4 27.0001H26C26.2106 27.0001 26.4158 26.9336 26.5864 26.8102C26.7569 26.6867 26.8842 26.5126 26.95 26.3126L30.5125 15.6376C30.6115 15.335 30.6381 15.0134 30.5904 14.6986C30.5426 14.3839 30.4218 14.0847 30.2375 13.8251V13.8251ZM11.6625 8.00007L15.1375 10.6001C15.4819 10.863 15.9042 11.0038 16.3375 11.0001H25V13.0001H18.3C17.9039 12.9999 17.5167 13.1174 17.1875 13.3376L14.7 15.0001H8.675C8.27467 14.9967 7.88289 15.1158 7.55221 15.3415C7.22153 15.5672 6.96778 15.8886 6.825 16.2626L5 20.8126V8.00007H11.6625Z" fill="#49536E"/>
</svg>
