<svg width="32" height="32" viewBox="0 0 32 32" fill="none" xmlns="http://www.w3.org/2000/svg">
<path d="M30.2376 13.8251C30.05 13.5701 29.8053 13.3627 29.5231 13.2194C29.2409 13.0762 28.9291 13.001 28.6126 13.0001H27.0001V11.0001C27.0001 10.4696 26.7894 9.96093 26.4143 9.58586C26.0392 9.21079 25.5305 9.00007 25.0001 9.00007H16.3376L12.8626 6.40007C12.5181 6.1371 12.0959 5.99636 11.6626 6.00007H5.00008C4.46965 6.00007 3.96094 6.21079 3.58587 6.58586C3.21079 6.96093 3.00008 7.46964 3.00008 8.00007V26.0001C2.9984 26.1319 3.02312 26.2626 3.07278 26.3847C3.12244 26.5068 3.19604 26.6177 3.28923 26.7109C3.38243 26.8041 3.49334 26.8777 3.61542 26.9274C3.7375 26.977 3.86829 27.0017 4.00008 27.0001H26.0001C26.2106 27.0001 26.4158 26.9336 26.5864 26.8102C26.757 26.6867 26.8843 26.5126 26.9501 26.3126L30.5126 15.6376C30.6115 15.335 30.6382 15.0134 30.5904 14.6986C30.5427 14.3839 30.4218 14.0847 30.2376 13.8251V13.8251ZM11.6626 8.00007L15.1376 10.6001C15.482 10.863 15.9042 11.0038 16.3376 11.0001H25.0001V13.0001H8.72508C8.30549 12.9992 7.89623 13.1302 7.55525 13.3748C7.21427 13.6193 6.95882 13.9649 6.82508 14.3626L5.00008 19.8376V8.00007H11.6626Z" fill="#49536E"/>
</svg>
