<svg width="32" height="32" viewBox="0 0 32 32" fill="none" xmlns="http://www.w3.org/2000/svg">
<path d="M5 8.00007V25.0001H15C15.2652 25.0001 15.5196 25.1054 15.7071 25.293C15.8946 25.4805 16 25.7349 16 26.0001C16 26.2653 15.8946 26.5196 15.7071 26.7072C15.5196 26.8947 15.2652 27.0001 15 27.0001H5C4.46957 27.0001 3.96086 26.7894 3.58579 26.4143C3.21071 26.0392 3 25.5305 3 25.0001V8.00007C3 7.46964 3.21071 6.96093 3.58579 6.58586C3.96086 6.21079 4.46957 6.00007 5 6.00007H11.6625C12.0958 5.99636 12.5181 6.1371 12.8625 6.40007L16.3375 9.00007H27C27.5304 9.00007 28.0391 9.21079 28.4142 9.58586C28.7893 9.96093 29 10.4696 29 11.0001V15.0001C29 15.2653 28.8946 15.5196 28.7071 15.7072C28.5196 15.8947 28.2652 16.0001 28 16.0001C27.7348 16.0001 27.4804 15.8947 27.2929 15.7072C27.1054 15.5196 27 15.2653 27 15.0001V11.0001H16.3375C15.9042 11.0038 15.4819 10.863 15.1375 10.6001L11.6625 8.00007H5ZM30.45 19.9001C30.3893 19.7102 30.2738 19.5425 30.1182 19.418C29.9625 19.2935 29.7736 19.2177 29.575 19.2001L25.85 18.9126L24.4125 15.6001C24.3336 15.4241 24.2055 15.2746 24.0436 15.1698C23.8817 15.0649 23.6929 15.0091 23.5 15.0091C23.3071 15.0091 23.1183 15.0649 22.9564 15.1698C22.7945 15.2746 22.6664 15.4241 22.5875 15.6001L21.15 18.9126L17.425 19.2001C17.2276 19.2193 17.0402 19.2961 16.8861 19.4208C16.732 19.5456 16.6179 19.7129 16.558 19.9019C16.498 20.091 16.495 20.2934 16.5491 20.4842C16.6033 20.675 16.7122 20.8457 16.8625 20.9751L19.675 23.3001L18.825 26.7626C18.7772 26.9532 18.7873 27.1537 18.8541 27.3386C18.9209 27.5234 19.0414 27.6841 19.2 27.8001C19.3571 27.9171 19.5451 27.9854 19.7406 27.9965C19.9362 28.0076 20.1307 27.961 20.3 27.8626L23.5 25.9751L26.7 27.8626C26.8569 27.95 27.0329 27.9973 27.2125 28.0001C27.4255 28.003 27.633 27.9324 27.8 27.8001C27.9586 27.6841 28.0791 27.5234 28.1459 27.3386C28.2127 27.1537 28.2228 26.9532 28.175 26.7626L27.325 23.3001L30.1375 20.9751C30.2909 20.8475 30.4026 20.677 30.4583 20.4854C30.514 20.2938 30.5111 20.09 30.45 19.9001V19.9001Z" fill="#49536E"/>
</svg>
