<svg width="32" height="32" viewBox="0 0 32 32" fill="none" xmlns="http://www.w3.org/2000/svg">
<path d="M27 9.00007H16.3375L12.8625 6.40007C12.5181 6.1371 12.0958 5.99636 11.6625 6.00007H5C4.46957 6.00007 3.96086 6.21079 3.58579 6.58586C3.21071 6.96093 3 7.46964 3 8.00007V25.0001C3 25.5305 3.21071 26.0392 3.58579 26.4143C3.96086 26.7894 4.46957 27.0001 5 27.0001H27.1125C27.6121 26.9968 28.0903 26.7969 28.4435 26.4436C28.7968 26.0903 28.9967 25.6122 29 25.1126V11.0001C29 10.4696 28.7893 9.96093 28.4142 9.58586C28.0391 9.21079 27.5304 9.00007 27 9.00007ZM19 19.0001H17V21.0001C17 21.2653 16.8946 21.5196 16.7071 21.7072C16.5196 21.8947 16.2652 22.0001 16 22.0001C15.7348 22.0001 15.4804 21.8947 15.2929 21.7072C15.1054 21.5196 15 21.2653 15 21.0001V19.0001H13C12.7348 19.0001 12.4804 18.8947 12.2929 18.7072C12.1054 18.5196 12 18.2653 12 18.0001C12 17.7349 12.1054 17.4805 12.2929 17.293C12.4804 17.1054 12.7348 17.0001 13 17.0001H15V15.0001C15 14.7349 15.1054 14.4805 15.2929 14.293C15.4804 14.1054 15.7348 14.0001 16 14.0001C16.2652 14.0001 16.5196 14.1054 16.7071 14.293C16.8946 14.4805 17 14.7349 17 15.0001V17.0001H19C19.2652 17.0001 19.5196 17.1054 19.7071 17.293C19.8946 17.4805 20 17.7349 20 18.0001C20 18.2653 19.8946 18.5196 19.7071 18.7072C19.5196 18.8947 19.2652 19.0001 19 19.0001Z" fill="#49536E"/>
</svg>
