<svg width="32" height="32" viewBox="0 0 32 32" fill="none" xmlns="http://www.w3.org/2000/svg">
<path d="M3 10.0001V8.00007C3 7.46964 3.21071 6.96093 3.58579 6.58586C3.96086 6.21079 4.46957 6.00007 5 6.00007H11.6625C12.0958 5.99636 12.5181 6.1371 12.8625 6.40007L16.6 9.20007C16.7679 9.326 16.8919 9.50157 16.9545 9.7019C17.0171 9.90224 17.0151 10.1172 16.9487 10.3163C16.8823 10.5154 16.755 10.6886 16.5847 10.8113C16.4144 10.934 16.2099 11.0001 16 11.0001C15.7832 11.0029 15.5718 10.9324 15.4 10.8001L11.6625 8.00007H5V10.0001C5 10.2653 4.89464 10.5196 4.70711 10.7072C4.51957 10.8947 4.26522 11.0001 4 11.0001C3.73478 11.0001 3.48043 10.8947 3.29289 10.7072C3.10536 10.5196 3 10.2653 3 10.0001ZM11 25.0001H5V24.0001C5 23.7349 4.89464 23.4805 4.70711 23.293C4.51957 23.1054 4.26522 23.0001 4 23.0001C3.73478 23.0001 3.48043 23.1054 3.29289 23.293C3.10536 23.4805 3 23.7349 3 24.0001V25.0751C3 25.5856 3.20281 26.0752 3.56382 26.4363C3.92483 26.7973 4.41446 27.0001 4.925 27.0001H11C11.2652 27.0001 11.5196 26.8947 11.7071 26.7072C11.8946 26.5196 12 26.2653 12 26.0001C12 25.7349 11.8946 25.4805 11.7071 25.293C11.5196 25.1054 11.2652 25.0001 11 25.0001ZM20 25.0001H16C15.7348 25.0001 15.4804 25.1054 15.2929 25.293C15.1054 25.4805 15 25.7349 15 26.0001C15 26.2653 15.1054 26.5196 15.2929 26.7072C15.4804 26.8947 15.7348 27.0001 16 27.0001H20C20.2652 27.0001 20.5196 26.8947 20.7071 26.7072C20.8946 26.5196 21 26.2653 21 26.0001C21 25.7349 20.8946 25.4805 20.7071 25.293C20.5196 25.1054 20.2652 25.0001 20 25.0001ZM28 18.0001C27.7348 18.0001 27.4804 18.1054 27.2929 18.293C27.1054 18.4805 27 18.7349 27 19.0001V25.0001H25C24.7348 25.0001 24.4804 25.1054 24.2929 25.293C24.1054 25.4805 24 25.7349 24 26.0001C24 26.2653 24.1054 26.5196 24.2929 26.7072C24.4804 26.8947 24.7348 27.0001 25 27.0001H27.1125C27.6121 26.9968 28.0903 26.7969 28.4435 26.4436C28.7968 26.0903 28.9967 25.6122 29 25.1126V19.0001C29 18.7349 28.8946 18.4805 28.7071 18.293C28.5196 18.1054 28.2652 18.0001 28 18.0001ZM27 9.00007H21C20.7348 9.00007 20.4804 9.10543 20.2929 9.29296C20.1054 9.4805 20 9.73486 20 10.0001C20 10.2653 20.1054 10.5196 20.2929 10.7072C20.4804 10.8947 20.7348 11.0001 21 11.0001H27V14.0001C27 14.2653 27.1054 14.5196 27.2929 14.7072C27.4804 14.8947 27.7348 15.0001 28 15.0001C28.2652 15.0001 28.5196 14.8947 28.7071 14.7072C28.8946 14.5196 29 14.2653 29 14.0001V11.0001C29 10.4696 28.7893 9.96093 28.4142 9.58586C28.0391 9.21079 27.5304 9.00007 27 9.00007ZM4 20.0001C4.26522 20.0001 4.51957 19.8947 4.70711 19.7072C4.89464 19.5196 5 19.2653 5 19.0001V15.0001C5 14.7349 4.89464 14.4805 4.70711 14.293C4.51957 14.1054 4.26522 14.0001 4 14.0001C3.73478 14.0001 3.48043 14.1054 3.29289 14.293C3.10536 14.4805 3 14.7349 3 15.0001V19.0001C3 19.2653 3.10536 19.5196 3.29289 19.7072C3.48043 19.8947 3.73478 20.0001 4 20.0001Z" fill="#49536E"/>
</svg>
