<svg width="32" height="32" viewBox="0 0 32 32" fill="none" xmlns="http://www.w3.org/2000/svg">
<path d="M28 8.00007H19.3375L15.8625 5.40007C15.5181 5.1371 15.0958 4.99636 14.6625 5.00007H9C8.46957 5.00007 7.96086 5.21079 7.58579 5.58586C7.21071 5.96093 7 6.46964 7 7.00007V9.00007H5C4.46957 9.00007 3.96086 9.21079 3.58579 9.58586C3.21071 9.96093 3 10.4696 3 11.0001V25.0001C3 25.5305 3.21071 26.0392 3.58579 26.4143C3.96086 26.7894 4.46957 27.0001 5 27.0001H24.1125C24.6121 26.9968 25.0903 26.7969 25.4435 26.4436C25.7968 26.0903 25.9967 25.6122 26 25.1126V23.0001H28.1125C28.6121 22.9968 29.0903 22.7969 29.4435 22.4436C29.7968 22.0903 29.9967 21.6122 30 21.1126V10.0001C30 9.46964 29.7893 8.96093 29.4142 8.58586C29.0391 8.21079 28.5304 8.00007 28 8.00007V8.00007ZM28 21.0001H26V14.0001C26 13.4696 25.7893 12.9609 25.4142 12.5859C25.0391 12.2108 24.5304 12.0001 24 12.0001H15.3375L11.8625 9.40007C11.5181 9.1371 11.0958 8.99636 10.6625 9.00007H9V7.00007H14.6625L18.1375 9.60007C18.4819 9.86304 18.9042 10.0038 19.3375 10.0001H28V21.0001Z" fill="#49536E"/>
</svg>
