<svg width="32" height="32" viewBox="0 0 32 32" fill="none" xmlns="http://www.w3.org/2000/svg">
<path d="M29 11.0001V13.0001C29 13.2653 28.8946 13.5196 28.7071 13.7072C28.5196 13.8947 28.2652 14.0001 28 14.0001C27.7348 14.0001 27.4804 13.8947 27.2929 13.7072C27.1054 13.5196 27 13.2653 27 13.0001V11.0001H16.3375C15.9042 11.0038 15.4819 10.863 15.1375 10.6001L11.6625 8.00007H5V25.0001H14C14.2652 25.0001 14.5196 25.1054 14.7071 25.293C14.8946 25.4805 15 25.7349 15 26.0001C15 26.2653 14.8946 26.5196 14.7071 26.7072C14.5196 26.8947 14.2652 27.0001 14 27.0001H5C4.46957 27.0001 3.96086 26.7894 3.58579 26.4143C3.21071 26.0392 3 25.5305 3 25.0001V8.00007C3 7.46964 3.21071 6.96093 3.58579 6.58586C3.96086 6.21079 4.46957 6.00007 5 6.00007H11.6625C12.0958 5.99636 12.5181 6.1371 12.8625 6.40007L16.3375 9.00007H27C27.5304 9.00007 28.0391 9.21079 28.4142 9.58586C28.7893 9.96093 29 10.4696 29 11.0001ZM29 20.5001V26.0001C29 26.2653 28.8946 26.5196 28.7071 26.7072C28.5196 26.8947 28.2652 27.0001 28 27.0001H19C18.7348 27.0001 18.4804 26.8947 18.2929 26.7072C18.1054 26.5196 18 26.2653 18 26.0001V20.5001C18 20.2349 18.1054 19.9805 18.2929 19.793C18.4804 19.6054 18.7348 19.5001 19 19.5001H20V19.0001C20 18.0718 20.3687 17.1816 21.0251 16.5252C21.6815 15.8688 22.5717 15.5001 23.5 15.5001C24.4283 15.5001 25.3185 15.8688 25.9749 16.5252C26.6313 17.1816 27 18.0718 27 19.0001V19.5001H28C28.2652 19.5001 28.5196 19.6054 28.7071 19.793C28.8946 19.9805 29 20.2349 29 20.5001ZM25 19.0001C25 18.6022 24.842 18.2207 24.5607 17.9394C24.2794 17.6581 23.8978 17.5001 23.5 17.5001C23.1022 17.5001 22.7206 17.6581 22.4393 17.9394C22.158 18.2207 22 18.6022 22 19.0001V19.5001H25V19.0001Z" fill="#49536E"/>
</svg>
