<svg width="32" height="32" viewBox="0 0 32 32" fill="none" xmlns="http://www.w3.org/2000/svg">
<path d="M28.2503 7.03757C28.108 6.21758 27.7157 5.46162 27.1272 4.87314C26.5388 4.28465 25.7828 3.8924 24.9628 3.75007C21.0378 3.08757 13.6628 2.78757 8.22531 8.22507C2.78781 13.6626 3.08781 21.0376 3.75031 24.9626C3.89264 25.7825 4.2849 26.5385 4.87338 27.127C5.46187 27.7155 6.21783 28.1077 7.03781 28.2501C8.41356 28.4791 9.80563 28.5962 11.2003 28.6001C15.0878 28.6001 19.9253 27.6376 23.7753 23.7751C29.2128 18.3376 28.9128 10.9626 28.2503 7.03757ZM7.37531 26.2751C6.96144 26.2091 6.57901 26.014 6.28268 25.7177C5.98634 25.4214 5.79125 25.0389 5.72531 24.6251C5.50323 23.3621 5.39031 22.0824 5.38781 20.8001L11.2003 26.6126C9.91801 26.6096 8.63832 26.4967 7.37531 26.2751V26.2751ZM20.7128 12.7126L18.8253 14.5876L19.9503 15.7126C20.1373 15.9 20.2423 16.154 20.2423 16.4188C20.2423 16.6836 20.1373 16.9376 19.9503 17.1251C19.7584 17.3085 19.5033 17.4114 19.2378 17.4126C18.9758 17.4121 18.7245 17.3089 18.5378 17.1251L17.4128 16.0001L16.0003 17.4126L17.1253 18.5376C17.3123 18.725 17.4173 18.979 17.4173 19.2438C17.4173 19.5086 17.3123 19.7626 17.1253 19.9501C17.0322 20.0437 16.9211 20.1175 16.7986 20.167C16.6761 20.2164 16.5449 20.2404 16.4128 20.2376C16.2827 20.2402 16.1534 20.216 16.0329 20.1665C15.9125 20.1171 15.8036 20.0434 15.7128 19.9501L14.5878 18.8251L12.7128 20.7126C12.5217 20.8974 12.2662 21.0007 12.0003 21.0007C11.7344 21.0007 11.479 20.8974 11.2878 20.7126C11.1 20.523 10.9947 20.2669 10.9947 20.0001C10.9947 19.7332 11.1 19.4772 11.2878 19.2876L13.1753 17.4126L12.0503 16.2876C11.878 16.0973 11.7853 15.8481 11.7917 15.5915C11.798 15.3349 11.9027 15.0905 12.0843 14.909C12.2658 14.7275 12.5101 14.6227 12.7667 14.6164C13.0234 14.6101 13.2726 14.7027 13.4628 14.8751L14.5878 16.0001L16.0003 14.5876L14.8753 13.4626C14.703 13.2723 14.6103 13.0231 14.6167 12.7665C14.623 12.5099 14.7277 12.2655 14.9093 12.084C15.0908 11.9025 15.3351 11.7977 15.5917 11.7914C15.8484 11.7851 16.0976 11.8777 16.2878 12.0501L17.4128 13.1751L19.2878 11.2876C19.4821 11.1281 19.7288 11.0466 19.9798 11.0589C20.2309 11.0713 20.4684 11.1765 20.6461 11.3543C20.8238 11.532 20.9291 11.7695 20.9414 12.0206C20.9538 12.2716 20.8723 12.5183 20.7128 12.7126V12.7126ZM20.8003 5.38757C22.0826 5.39056 23.3623 5.50347 24.6253 5.72507C25.0392 5.79101 25.4216 5.98609 25.7179 6.28243C26.0143 6.57877 26.2094 6.9612 26.2753 7.37507C26.4974 8.63801 26.6103 9.91774 26.6128 11.2001L20.8003 5.38757Z" fill="#49536E"/>
</svg>
