<svg width="32" height="32" viewBox="0 0 32 32" fill="none" xmlns="http://www.w3.org/2000/svg">
<path d="M28.5619 6.18751C28.4063 5.83347 28.1507 5.53255 27.8265 5.32162C27.5024 5.11068 27.1237 4.99892 26.7369 5.00001H5.26194C4.8753 5.00312 4.49774 5.11754 4.17442 5.32959C3.8511 5.54164 3.59571 5.84234 3.4388 6.19573C3.28188 6.54911 3.23009 6.94021 3.28962 7.32226C3.34914 7.7043 3.51746 8.06111 3.77444 8.35001L11.9994 17.3875V27.1375C11.9988 27.5003 12.0975 27.8563 12.2848 28.167C12.4721 28.4777 12.7408 28.7312 13.0619 28.9C13.351 29.0528 13.6725 29.1342 13.9994 29.1375C14.3955 29.1376 14.7827 29.0202 15.1119 28.8L19.1119 26.125C19.3859 25.943 19.6104 25.6958 19.7653 25.4056C19.9202 25.1155 20.0006 24.7914 19.9994 24.4625V17.3875L28.2244 8.35001C28.4862 8.06215 28.6577 7.70381 28.7177 7.3194C28.7777 6.93499 28.7235 6.54143 28.5619 6.18751V6.18751Z" fill="#49536E"/>
</svg>
