<svg width="32" height="32" viewBox="0 0 32 32" fill="none" xmlns="http://www.w3.org/2000/svg">
<path d="M30.9367 22.7125H30.9242L28.8867 12.15C28.8867 12.1375 28.8867 12.1375 28.8742 12.125C28.561 10.3969 27.6512 8.83343 26.3035 7.70726C24.9557 6.5811 23.2555 5.96364 21.4992 5.96252V5.96252L10.4992 6.00002C8.73466 5.99731 7.02587 6.61786 5.67426 7.7522C4.32266 8.88654 3.4151 10.4618 3.11168 12.2V12.225L1.07418 22.7C0.969939 23.2821 0.981769 23.8791 1.10899 24.4566C1.23622 25.034 1.47633 25.5807 1.81552 26.0651C2.15471 26.5495 2.58629 26.9621 3.08546 27.2791C3.58463 27.5962 4.14154 27.8114 4.72418 27.9125C4.97944 27.9628 5.23902 27.9879 5.49918 27.9875C6.6927 27.985 7.83745 27.5137 8.68668 26.675L8.73668 26.6125L13.8242 20.9875L18.1867 20.9625L23.2617 26.625L23.3242 26.6875C24.1673 27.5277 25.3089 27.9996 26.4992 28C26.7635 27.9999 27.0271 27.9747 27.2867 27.925C28.4603 27.7147 29.503 27.0483 30.1869 26.0717C30.8708 25.095 31.1403 23.8873 30.9367 22.7125V22.7125ZM12.9992 14.5H11.9992V15.5C11.9992 15.7652 11.8938 16.0196 11.7063 16.2071C11.5188 16.3947 11.2644 16.5 10.9992 16.5C10.734 16.5 10.4796 16.3947 10.2921 16.2071C10.1045 16.0196 9.99918 15.7652 9.99918 15.5V14.5H8.99918C8.73397 14.5 8.47961 14.3947 8.29208 14.2071C8.10454 14.0196 7.99918 13.7652 7.99918 13.5C7.99918 13.2348 8.10454 12.9805 8.29208 12.7929C8.47961 12.6054 8.73397 12.5 8.99918 12.5H9.99918V11.5C9.99918 11.2348 10.1045 10.9805 10.2921 10.7929C10.4796 10.6054 10.734 10.5 10.9992 10.5C11.2644 10.5 11.5188 10.6054 11.7063 10.7929C11.8938 10.9805 11.9992 11.2348 11.9992 11.5V12.5H12.9992C13.2644 12.5 13.5188 12.6054 13.7063 12.7929C13.8938 12.9805 13.9992 13.2348 13.9992 13.5C13.9992 13.7652 13.8938 14.0196 13.7063 14.2071C13.5188 14.3947 13.2644 14.5 12.9992 14.5ZM17.9992 13.5C17.9992 13.2348 18.1045 12.9805 18.2921 12.7929C18.4796 12.6054 18.734 12.5 18.9992 12.5H22.9992C23.2644 12.5 23.5188 12.6054 23.7063 12.7929C23.8938 12.9805 23.9992 13.2348 23.9992 13.5C23.9992 13.7652 23.8938 14.0196 23.7063 14.2071C23.5188 14.3947 23.2644 14.5 22.9992 14.5H18.9992C18.734 14.5 18.4796 14.3947 18.2921 14.2071C18.1045 14.0196 17.9992 13.7652 17.9992 13.5ZM26.9367 25.9625C26.5447 26.0313 26.1419 26.006 25.7616 25.8886C25.3813 25.7713 25.0343 25.5653 24.7492 25.2875L20.8617 20.975H21.4992C22.7749 20.9763 24.0299 20.652 25.1455 20.033C26.261 19.414 27.2002 18.5207 27.8742 17.4375L28.9617 23.0875C29.0707 23.7368 28.9193 24.403 28.5401 24.9412C28.161 25.4795 27.5848 25.8465 26.9367 25.9625Z" fill="#49536E"/>
</svg>
