<svg width="32" height="32" viewBox="0 0 32 32" fill="none" xmlns="http://www.w3.org/2000/svg">
<path d="M29.6879 13.0375C29.6569 12.8977 29.5962 12.7662 29.5099 12.6519C29.4236 12.5376 29.3138 12.4432 29.1879 12.375L26.2129 10.725C26.0546 10.4 25.8796 10.0875 25.6879 9.78748L25.7379 6.38748C25.7391 6.24487 25.7108 6.10355 25.6549 5.97236C25.599 5.84117 25.5166 5.72291 25.4129 5.62498C23.9316 4.28193 22.1798 3.27177 20.2754 2.66248C20.1387 2.61983 19.9944 2.6067 19.8522 2.62393C19.71 2.64117 19.573 2.68839 19.4504 2.76248L16.5379 4.51248C16.1754 4.49998 15.8254 4.49998 15.4629 4.51248L12.5504 2.76248C12.4278 2.68839 12.2909 2.64117 12.1487 2.62393C12.0064 2.6067 11.8622 2.61983 11.7254 2.66248C9.8185 3.27224 8.06596 4.28709 6.58792 5.63748C6.48335 5.73204 6.40024 5.84791 6.34418 5.97727C6.28812 6.10664 6.26041 6.24651 6.26292 6.38748L6.32542 9.78748C6.12542 10.0875 5.95042 10.4 5.77542 10.725L2.81292 12.375C2.68543 12.4411 2.57436 12.5349 2.48784 12.6496C2.40132 12.7642 2.34156 12.8967 2.31292 13.0375C1.88788 14.9896 1.88788 17.0103 2.31292 18.9625C2.34397 19.1023 2.40468 19.2338 2.49094 19.3481C2.5772 19.4623 2.687 19.5568 2.81292 19.625L5.78792 21.275C5.9474 21.5984 6.12692 21.9115 6.32542 22.2125L6.26292 25.6125C6.26178 25.7551 6.29005 25.8964 6.34597 26.0276C6.40189 26.1588 6.48425 26.277 6.58792 26.375C8.07126 27.7152 9.82242 28.725 11.7254 29.3375C11.8622 29.3801 12.0064 29.3933 12.1487 29.376C12.2909 29.3588 12.4278 29.3116 12.5504 29.2375L15.4629 27.4875H16.5379L19.4629 29.2375C19.615 29.3375 19.7935 29.3897 19.9754 29.3875C20.0771 29.3831 20.1778 29.3663 20.2754 29.3375C22.1823 28.7277 23.9349 27.7129 25.4129 26.3625C25.5175 26.2679 25.6006 26.152 25.6567 26.0227C25.7127 25.8933 25.7404 25.7534 25.7379 25.6125L25.6879 22.2125C25.8754 21.9125 26.0504 21.6 26.2254 21.275L29.2004 19.625C29.3245 19.5561 29.4323 19.4612 29.5164 19.3469C29.6006 19.2326 29.6591 19.1015 29.6879 18.9625C30.113 17.0103 30.113 14.9896 29.6879 13.0375V13.0375ZM21.5004 16C21.5004 17.0878 21.1779 18.1511 20.5735 19.0556C19.9692 19.9601 19.1102 20.665 18.1052 21.0813C17.1002 21.4976 15.9943 21.6065 14.9274 21.3943C13.8605 21.1821 12.8805 20.6583 12.1113 19.8891C11.3421 19.1199 10.8183 18.1399 10.6061 17.073C10.3939 16.0061 10.5028 14.9002 10.9191 13.8952C11.3354 12.8902 12.0403 12.0312 12.9448 11.4269C13.8493 10.8225 14.9126 10.5 16.0004 10.5C17.4591 10.5 18.8581 11.0794 19.8895 12.1109C20.921 13.1423 21.5004 14.5413 21.5004 16Z" fill="#49536E"/>
</svg>
