<svg width="32" height="32" viewBox="0 0 32 32" fill="none" xmlns="http://www.w3.org/2000/svg">
<path d="M25.9991 2H20.9991C20.7338 2 20.4795 2.10536 20.292 2.29289C20.1044 2.48043 19.9991 2.73478 19.9991 3C19.9991 3.26522 20.1044 3.51957 20.292 3.70711C20.4795 3.89464 20.7338 4 20.9991 4H23.5866L20.5366 7.05C19.5291 6.18406 18.3326 5.56633 17.0432 5.24638C15.7538 4.92642 14.4074 4.91315 13.112 5.20763C11.8165 5.50211 10.6081 6.09614 9.58376 6.94205C8.55939 7.78796 7.74756 8.86221 7.21341 10.0786C6.67927 11.295 6.43767 12.6196 6.50802 13.9463C6.57836 15.2729 6.95869 16.5646 7.61848 17.7176C8.27826 18.8707 9.19914 19.8531 10.3072 20.5859C11.4153 21.3188 12.6797 21.7817 13.9991 21.9375V24.5H10.9991C10.7338 24.5 10.4795 24.6054 10.292 24.7929C10.1044 24.9804 9.99906 25.2348 9.99906 25.5C9.99906 25.7652 10.1044 26.0196 10.292 26.2071C10.4795 26.3946 10.7338 26.5 10.9991 26.5H13.9991V29C13.9991 29.2652 14.1044 29.5196 14.292 29.7071C14.4795 29.8946 14.7338 30 14.9991 30C15.2643 30 15.5186 29.8946 15.7062 29.7071C15.8937 29.5196 15.9991 29.2652 15.9991 29V26.5H18.9991C19.2643 26.5 19.5186 26.3946 19.7062 26.2071C19.8937 26.0196 19.9991 25.7652 19.9991 25.5C19.9991 25.2348 19.8937 24.9804 19.7062 24.7929C19.5186 24.6054 19.2643 24.5 18.9991 24.5H15.9991V21.9375C17.47 21.7658 18.8704 21.2123 20.0612 20.3318C21.252 19.4514 22.1917 18.2747 22.787 16.9187C23.3822 15.5626 23.6123 14.0744 23.4543 12.6019C23.2964 11.1295 22.7559 9.72394 21.8866 8.525L24.9991 5.4125V8C24.9991 8.26522 25.1044 8.51957 25.292 8.70711C25.4795 8.89464 25.7338 9 25.9991 9C26.2643 9 26.5186 8.89464 26.7062 8.70711C26.8937 8.51957 26.9991 8.26522 26.9991 8V3C26.9991 2.73478 26.8937 2.48043 26.7062 2.29289C26.5186 2.10536 26.2643 2 25.9991 2V2ZM14.9991 20C13.7135 20 12.4568 19.6188 11.3879 18.9046C10.3189 18.1903 9.48582 17.1752 8.99385 15.9874C8.50188 14.7997 8.37316 13.4928 8.62396 12.2319C8.87476 10.971 9.49383 9.81285 10.4029 8.90381C11.3119 7.99476 12.4701 7.3757 13.731 7.1249C14.9919 6.87409 16.2988 7.00281 17.4865 7.49478C18.6742 7.98675 19.6894 8.81987 20.4036 9.88879C21.1178 10.9577 21.4991 12.2144 21.4991 13.5C21.4991 15.2239 20.8142 16.8772 19.5953 18.0962C18.3763 19.3152 16.723 20 14.9991 20V20Z" fill="#49536E"/>
</svg>
