<svg width="32" height="32" viewBox="0 0 32 32" fill="none" xmlns="http://www.w3.org/2000/svg">
<path d="M27.0006 4H21.0006C20.7353 4 20.481 4.10536 20.2934 4.29289C20.1059 4.48043 20.0006 4.73478 20.0006 5C20.0006 5.26522 20.1059 5.51957 20.2934 5.70711C20.481 5.89464 20.7353 6 21.0006 6H24.5881L19.3256 11.2625C17.3393 9.63861 14.8048 8.84027 12.2465 9.0326C9.68808 9.22492 7.30148 10.3932 5.58031 12.2958C3.85913 14.1984 2.93506 16.6897 2.99922 19.2545C3.06339 21.8193 4.11087 24.2614 5.92503 26.0755C7.73918 27.8897 10.1812 28.9372 12.746 29.0013C15.3108 29.0655 17.8022 28.1414 19.7048 26.4202C21.6073 24.6991 22.7756 22.3125 22.968 19.7541C23.1603 17.1957 22.3619 14.6613 20.7381 12.675L26.0006 7.4125V11C26.0006 11.2652 26.1059 11.5196 26.2934 11.7071C26.481 11.8946 26.7353 12 27.0006 12C27.2658 12 27.5201 11.8946 27.7077 11.7071C27.8952 11.5196 28.0006 11.2652 28.0006 11V5C28.0006 4.73478 27.8952 4.48043 27.7077 4.29289C27.5201 4.10536 27.2658 4 27.0006 4V4ZM18.6631 24.6625C17.5436 25.7797 16.1181 26.5401 14.5667 26.8474C13.0153 27.1548 11.4076 26.9955 9.9467 26.3895C8.48582 25.7835 7.23733 24.7581 6.35899 23.4429C5.48064 22.1277 5.01185 20.5816 5.01185 19C5.01185 17.4184 5.48064 15.8723 6.35899 14.5571C7.23733 13.2419 8.48582 12.2165 9.9467 11.6105C11.4076 11.0045 13.0153 10.8452 14.5667 11.1526C16.1181 11.4599 17.5436 12.2203 18.6631 13.3375C20.1577 14.8431 20.9964 16.8785 20.9964 19C20.9964 21.1215 20.1577 23.1569 18.6631 24.6625V24.6625Z" fill="#49536E"/>
</svg>
