<svg width="32" height="32" viewBox="0 0 32 32" fill="none" xmlns="http://www.w3.org/2000/svg">
<path d="M28.9879 21.2252L17.1379 29.4252C16.8056 29.6615 16.4081 29.7884 16.0004 29.7884C15.5927 29.7884 15.1951 29.6615 14.8629 29.4252L3.01287 21.2252C2.67402 20.9901 2.41556 20.6566 2.27248 20.2698C2.12939 19.8831 2.10858 19.4617 2.21287 19.0627L5.62537 6.25016C5.70532 5.93995 5.88247 5.66349 6.1309 5.46125C6.37932 5.25901 6.68597 5.14161 7.00594 5.12624C7.32591 5.11087 7.64239 5.19834 7.90906 5.37584C8.17572 5.55334 8.37856 5.81155 8.48787 6.11266L11.0629 13.0002H20.9379L23.5129 6.11266C23.6222 5.81155 23.825 5.55334 24.0917 5.37584C24.3583 5.19834 24.6748 5.11087 24.9948 5.12624C25.3148 5.14161 25.6214 5.25901 25.8698 5.46125C26.1183 5.66349 26.2954 5.93995 26.3754 6.25016L29.7879 19.0627C29.8922 19.4617 29.8713 19.8831 29.7283 20.2698C29.5852 20.6566 29.3267 20.9901 28.9879 21.2252V21.2252Z" fill="#49536E"/>
</svg>
