<svg width="32" height="32" viewBox="0 0 32 32" fill="none" xmlns="http://www.w3.org/2000/svg">
<path d="M29.7879 19.0627L26.3754 6.25016C26.2954 5.93995 26.1183 5.66349 25.8698 5.46125C25.6214 5.25901 25.3148 5.14161 24.9948 5.12624C24.6748 5.11087 24.3583 5.19834 24.0917 5.37584C23.825 5.55334 23.6222 5.81155 23.5129 6.11266L20.9379 13.0002H11.0629L8.48787 6.11266C8.37856 5.81155 8.17572 5.55334 7.90906 5.37584C7.64239 5.19834 7.32591 5.11087 7.00594 5.12624C6.68597 5.14161 6.37932 5.25901 6.1309 5.46125C5.88247 5.66349 5.70532 5.93995 5.62537 6.25016L2.21287 19.0627C2.10858 19.4617 2.12939 19.8831 2.27248 20.2698C2.41556 20.6566 2.67402 20.9901 3.01287 21.2252L14.8629 29.4252C15.1261 29.6095 15.4311 29.7255 15.7504 29.7627H16.2504C16.5696 29.7255 16.8746 29.6095 17.1379 29.4252L28.9879 21.2252C29.3267 20.9901 29.5852 20.6566 29.7283 20.2698C29.8713 19.8831 29.8922 19.4617 29.7879 19.0627V19.0627ZM4.15037 19.5752L5.36287 15.0002H9.68787L13.9379 26.3627L4.15037 19.5752ZM18.0629 26.3627L22.3129 15.0002H26.6379L27.8504 19.5752L18.0629 26.3627Z" fill="#49536E"/>
</svg>
