<svg width="32" height="32" viewBox="0 0 32 32" fill="none" xmlns="http://www.w3.org/2000/svg">
<path d="M27.9368 21.15C27.9629 21.1024 27.9838 21.0521 27.9993 21C29.138 18.2678 29.3102 15.2287 28.4874 12.3853C27.6646 9.5419 25.8961 7.06443 23.4743 5.36251L23.3243 5.27501C21.1704 3.7901 18.6154 2.99654 15.9993 3.00001C13.626 3.00086 11.2982 3.65137 9.26834 4.88101C7.23846 6.11066 5.58392 7.87251 4.4841 9.97556C3.38428 12.0786 2.88114 14.4426 3.02925 16.8113C3.17735 19.1799 3.97104 21.4628 5.32426 23.4125V23.4375C5.35459 23.4855 5.38799 23.5314 5.42426 23.575C6.43979 24.9906 7.72951 26.1877 9.21678 27.0951C10.7041 28.0024 12.3585 28.6016 14.0819 28.857C15.8053 29.1123 17.5625 29.0187 19.249 28.5816C20.9354 28.1445 22.5169 27.3728 23.8993 26.3125L24.0743 26.175C25.7518 24.8396 27.0778 23.1146 27.9368 21.15ZM7.68676 23.2L8.17426 22.9C8.46833 22.7244 8.71168 22.4754 8.88042 22.1773C9.04917 21.8793 9.13751 21.5425 9.13676 21.2L9.16177 16.975C9.1655 16.7843 9.22172 16.5983 9.32426 16.4375L11.0743 13.6875C11.1473 13.5731 11.243 13.4747 11.3553 13.3984C11.4676 13.3221 11.5943 13.2695 11.7277 13.2437C11.861 13.218 11.9982 13.2197 12.1308 13.2487C12.2635 13.2777 12.3888 13.3335 12.4993 13.4125L14.0993 14.575C14.5203 14.8729 15.0376 15.0022 15.5493 14.9375L19.4743 14.4C19.9602 14.3378 20.4057 14.0973 20.7243 13.725L23.4868 10.525C23.6565 10.3355 23.787 10.1141 23.8707 9.87382C23.9544 9.63352 23.9896 9.37901 23.9743 9.12501L23.9493 8.40001C25.9095 10.4442 27.0025 13.1678 26.9993 16C27.0004 16.9887 26.8659 17.9729 26.5993 18.925L24.6118 17.1C24.3309 16.8446 23.9835 16.6739 23.6097 16.6075C23.2359 16.5412 22.8509 16.5819 22.4993 16.725L18.6868 18.3125C18.3689 18.4455 18.0904 18.6578 17.8781 18.9292C17.6658 19.2006 17.5268 19.522 17.4743 19.8625L17.1743 21.8875C17.1053 22.3761 17.2171 22.8732 17.4887 23.2852C17.7603 23.6972 18.173 23.9958 18.6493 24.125L21.3368 24.825L21.8368 25.325C19.6124 26.7166 16.9638 27.2673 14.369 26.8776C11.7743 26.4879 9.40429 25.1836 7.68676 23.2V23.2Z" fill="#49536E"/>
</svg>
