<svg width="32" height="32" viewBox="0 0 32 32" fill="none" xmlns="http://www.w3.org/2000/svg">
<path d="M27.7002 21.6623C28.5597 19.8987 29.0044 17.9618 29.0002 15.9999C28.9963 13.1363 28.0489 10.3539 26.3045 8.08297C24.5601 5.81208 22.1159 4.17934 19.3502 3.43735H19.2877C17.2597 2.90342 15.1325 2.86901 13.0883 3.33706C11.0441 3.80512 9.14381 4.76169 7.55019 6.12485L7.38769 6.27485C5.40891 8.02125 4.00915 10.3291 3.37483 12.8909C2.74051 15.4528 2.90175 18.1471 3.83707 20.615C4.77238 23.0829 6.43738 25.2073 8.61031 26.7053C10.7832 28.2032 13.361 29.0036 16.0002 28.9998H16.3002C18.6607 28.9415 20.961 28.2432 22.9556 26.9796C24.9502 25.7159 26.5642 23.9342 27.6252 21.8249V21.8249L27.7002 21.6623ZM27.0002 15.9999C26.9979 17.3094 26.7652 18.6084 26.3127 19.8373L20.5127 16.2748C20.2735 16.1245 20.0051 16.0265 19.7252 15.9874L16.8752 15.6124C16.5091 15.565 16.1371 15.6193 15.7998 15.7692C15.4624 15.9191 15.1729 16.1589 14.9627 16.4623H13.8877L13.4127 15.4749C13.2796 15.2021 13.087 14.9628 12.849 14.7746C12.611 14.5864 12.3337 14.454 12.0377 14.3874L11.2127 14.2123L11.5252 13.4749C11.603 13.2938 11.732 13.1394 11.8963 13.0306C12.0606 12.9218 12.2531 12.8634 12.4502 12.8624H14.4627C14.7994 12.8608 15.1303 12.7749 15.4252 12.6124L16.9502 11.7624C17.0848 11.6894 17.2106 11.6013 17.3252 11.4999L20.6877 8.44985C20.9804 8.19322 21.1902 7.85534 21.2903 7.47917C21.3905 7.10301 21.3765 6.70555 21.2502 6.33735C22.9891 7.28181 24.4411 8.67787 25.4531 10.3784C26.465 12.0789 26.9995 14.021 27.0002 15.9999ZM5.00019 15.9999C4.99734 14.275 5.40435 12.5741 6.18769 11.0374L7.48769 14.5248C7.60658 14.8372 7.80139 15.1151 8.05454 15.3333C8.30769 15.5515 8.61121 15.7033 8.93769 15.7748L9.62519 15.9249H9.63769L11.1377 16.2499C11.2862 16.2799 11.4256 16.3441 11.5449 16.4374C11.6643 16.5307 11.7602 16.6505 11.8252 16.7874L12.0877 17.3373C12.2531 17.674 12.5093 17.9577 12.8273 18.1565C13.1454 18.3552 13.5126 18.4612 13.8877 18.4623H14.0377L13.0752 20.6123C12.9125 20.969 12.859 21.3658 12.9213 21.7528C12.9836 22.1398 13.1589 22.4997 13.4252 22.7873L15.4377 24.9623C15.5413 25.0782 15.6176 25.2159 15.6608 25.3652C15.7041 25.5144 15.7133 25.6715 15.6877 25.8249L15.4627 26.9873C12.6427 26.8463 9.98456 25.6275 8.03747 23.5827C6.09038 21.5379 5.00308 18.8234 5.00019 15.9999V15.9999Z" fill="#49536E"/>
</svg>
