<svg width="32" height="32" viewBox="0 0 32 32" fill="none" xmlns="http://www.w3.org/2000/svg">
<path d="M27.9496 14.2752L6.98711 2.26265C6.67818 2.08682 6.3284 1.9954 5.97294 1.9976C5.61747 1.99979 5.26885 2.09552 4.96211 2.27515C4.66156 2.44867 4.41205 2.69832 4.23869 2.99896C4.06532 3.2996 3.97424 3.64061 3.97461 3.98765V28.0127C3.97791 28.5409 4.19008 29.0464 4.5648 29.4188C4.93951 29.7912 5.44634 30.0002 5.97461 30.0002C6.32878 29.9989 6.67695 29.9086 6.98711 29.7377L27.9496 17.7252C28.2602 17.5567 28.5195 17.3075 28.7002 17.0039C28.8809 16.7002 28.9763 16.3535 28.9763 16.0002C28.9763 15.6468 28.8809 15.3001 28.7002 14.9964C28.5195 14.6928 28.2602 14.4436 27.9496 14.2752V14.2752ZM17.9996 17.4127L20.3621 19.7752L9.33711 26.0752L17.9996 17.4127ZM9.33711 5.91265L20.3621 12.2252L17.9996 14.5877L9.33711 5.91265ZM22.1496 18.7377L19.4121 16.0002L22.1496 13.2627L26.9496 16.0002L22.1496 18.7377Z" fill="#49536E"/>
</svg>
