<svg width="32" height="32" viewBox="0 0 32 32" fill="none" xmlns="http://www.w3.org/2000/svg">
<path d="M23.4985 10.5C22.8543 10.4971 22.2221 10.6746 21.6735 11.0125C21.2755 10.1706 20.5595 9.52126 19.6828 9.20717C18.8062 8.89307 17.8406 8.93995 16.9985 9.3375V4.5C16.9985 3.57174 16.6298 2.6815 15.9734 2.02513C15.317 1.36875 14.4268 1 13.4985 1C12.5703 1 11.68 1.36875 11.0237 2.02513C10.3673 2.6815 9.99855 3.57174 9.99855 4.5V15.925L9.12355 14.4125C8.66439 13.6052 7.90336 13.0135 7.00787 12.7673C6.11239 12.5212 5.1558 12.6408 4.34855 13.1C3.54129 13.5592 2.9495 14.3202 2.70336 15.2157C2.45722 16.1112 2.57689 17.0677 3.03605 17.875C7.09855 26.425 9.79855 30 15.9985 30C18.9149 29.9967 21.7109 28.8367 23.7731 26.7745C25.8353 24.7123 26.9952 21.9164 26.9985 19V14C26.9953 13.0728 26.6254 12.1844 25.9698 11.5288C25.3141 10.8731 24.4258 10.5033 23.4985 10.5V10.5ZM24.9985 19C24.9952 21.3859 24.046 23.6732 22.3589 25.3603C20.6717 27.0474 18.3845 27.9967 15.9985 28C13.4735 28 11.7235 27.3125 10.1235 25.725C8.52355 24.1375 7.03605 21.625 4.83605 16.9875L4.79855 16.9125C4.69748 16.7431 4.63204 16.5548 4.60625 16.3592C4.58046 16.1636 4.59485 15.9648 4.64855 15.775C4.69817 15.5838 4.7857 15.4045 4.90595 15.2477C5.02619 15.091 5.1767 14.96 5.34855 14.8625C5.69285 14.6637 6.10198 14.6098 6.48605 14.7125C6.67558 14.7623 6.85305 14.85 7.00774 14.9703C7.16242 15.0906 7.29112 15.2411 7.38605 15.4125L10.136 20.1625C10.2482 20.3511 10.4185 20.4981 10.6214 20.5815C10.8242 20.6649 11.0487 20.6802 11.261 20.625C11.4735 20.5694 11.6614 20.4446 11.7949 20.2703C11.9285 20.096 12.0001 19.8821 11.9985 19.6625V4.5C11.9985 4.10218 12.1566 3.72064 12.4379 3.43934C12.7192 3.15804 13.1007 3 13.4985 3C13.8964 3 14.2779 3.15804 14.5592 3.43934C14.8405 3.72064 14.9985 4.10218 14.9985 4.5V13C14.9985 13.2652 15.1039 13.5196 15.2914 13.7071C15.479 13.8946 15.7333 14 15.9985 14C16.2638 14 16.5181 13.8946 16.7057 13.7071C16.8932 13.5196 16.9985 13.2652 16.9985 13V12.5C16.9985 12.1022 17.1566 11.7206 17.4379 11.4393C17.7192 11.158 18.1007 11 18.4985 11C18.8964 11 19.2779 11.158 19.5592 11.4393C19.8405 11.7206 19.9985 12.1022 19.9985 12.5V14C19.9985 14.2652 20.1039 14.5196 20.2914 14.7071C20.479 14.8946 20.7333 15 20.9985 15C21.2638 15 21.5181 14.8946 21.7057 14.7071C21.8932 14.5196 21.9985 14.2652 21.9985 14C21.9985 13.6022 22.1566 13.2206 22.4379 12.9393C22.7192 12.658 23.1007 12.5 23.4985 12.5C23.8964 12.5 24.2779 12.658 24.5592 12.9393C24.8405 13.2206 24.9985 13.6022 24.9985 14V19Z" fill="#49536E"/>
</svg>
