<svg width="32" height="32" viewBox="0 0 32 32" fill="none" xmlns="http://www.w3.org/2000/svg">
<path d="M23.4985 5.00009C22.9798 5.00085 22.4676 5.11609 21.9985 5.33759V4.50009C21.9943 3.66928 21.6947 2.86705 21.1533 2.23689C20.6118 1.60673 19.8639 1.18972 19.0432 1.06045C18.2225 0.931186 17.3825 1.09808 16.6736 1.5313C15.9646 1.96452 15.4329 2.6358 15.1735 3.42509C14.6599 3.14464 14.0838 2.99846 13.4985 3.00009C12.5713 3.00339 11.683 3.37319 11.0273 4.02886C10.3716 4.68452 10.0018 5.57285 9.99855 6.50009V15.9251L9.12355 14.4126C8.66439 13.6053 7.90336 13.0135 7.00787 12.7674C6.11239 12.5213 5.1558 12.6409 4.34855 13.1001C3.54129 13.5592 2.9495 14.3203 2.70336 15.2158C2.45722 16.1113 2.57689 17.0678 3.03605 17.8751C7.09855 26.4251 9.79855 30.0001 15.9985 30.0001C18.9149 29.9968 21.7109 28.8368 23.7731 26.7746C25.8353 24.7124 26.9952 21.9165 26.9985 19.0001V8.50009C26.9953 7.57285 26.6254 6.68452 25.9698 6.02886C25.3141 5.37319 24.4258 5.00339 23.4985 5.00009V5.00009ZM24.9985 19.0001C24.9952 21.386 24.046 23.6733 22.3589 25.3604C20.6717 27.0475 18.3845 27.9968 15.9985 28.0001C13.4735 28.0001 11.7235 27.3126 10.1235 25.7251C8.52355 24.1376 7.03605 21.6251 4.83605 16.9876L4.79855 16.9126C4.69748 16.7432 4.63204 16.5549 4.60625 16.3593C4.58046 16.1637 4.59485 15.9649 4.64855 15.7751C4.69817 15.5839 4.7857 15.4046 4.90595 15.2478C5.02619 15.0911 5.1767 14.9601 5.34855 14.8626C5.69285 14.6638 6.10198 14.6099 6.48605 14.7126C6.67558 14.7624 6.85305 14.8501 7.00774 14.9704C7.16242 15.0907 7.29112 15.2412 7.38605 15.4126L10.136 20.1626C10.2482 20.3511 10.4185 20.4982 10.6214 20.5816C10.8242 20.665 11.0487 20.6803 11.261 20.6251C11.4735 20.5695 11.6614 20.4447 11.7949 20.2704C11.9285 20.0961 12.0001 19.8822 11.9985 19.6626V6.50009C11.9985 6.10227 12.1566 5.72074 12.4379 5.43943C12.7192 5.15813 13.1007 5.00009 13.4985 5.00009C13.8964 5.00009 14.2779 5.15813 14.5592 5.43943C14.8405 5.72074 14.9985 6.10227 14.9985 6.50009V15.0001C14.9985 15.2653 15.1039 15.5197 15.2914 15.7072C15.479 15.8947 15.7333 16.0001 15.9985 16.0001C16.2638 16.0001 16.5181 15.8947 16.7057 15.7072C16.8932 15.5197 16.9985 15.2653 16.9985 15.0001V4.50009C16.9985 4.10227 17.1566 3.72074 17.4379 3.43943C17.7192 3.15813 18.1007 3.00009 18.4985 3.00009C18.8964 3.00009 19.2779 3.15813 19.5592 3.43943C19.8405 3.72074 19.9985 4.10227 19.9985 4.50009V15.0001C19.9985 15.2653 20.1039 15.5197 20.2914 15.7072C20.479 15.8947 20.7333 16.0001 20.9985 16.0001C21.2638 16.0001 21.5181 15.8947 21.7057 15.7072C21.8932 15.5197 21.9985 15.2653 21.9985 15.0001V8.50009C21.9985 8.10227 22.1566 7.72074 22.4379 7.43943C22.7192 7.15813 23.1007 7.00009 23.4985 7.00009C23.8964 7.00009 24.2779 7.15813 24.5592 7.43943C24.8405 7.72074 24.9985 8.10227 24.9985 8.50009V19.0001Z" fill="#49536E"/>
</svg>
