<svg width="32" height="32" viewBox="0 0 32 32" fill="none" xmlns="http://www.w3.org/2000/svg">
<path d="M20.0004 10C20.0004 9.73478 20.1057 9.48043 20.2933 9.29289C20.4808 9.10536 20.7352 9 21.0004 9H30.0004C30.2656 9 30.52 9.10536 30.7075 9.29289C30.895 9.48043 31.0004 9.73478 31.0004 10C31.0004 10.2652 30.895 10.5196 30.7075 10.7071C30.52 10.8946 30.2656 11 30.0004 11H21.0004C20.7352 11 20.4808 10.8946 20.2933 10.7071C20.1057 10.5196 20.0004 10.2652 20.0004 10ZM30.0004 21H21.0004C20.7352 21 20.4808 21.1054 20.2933 21.2929C20.1057 21.4804 20.0004 21.7348 20.0004 22C20.0004 22.2652 20.1057 22.5196 20.2933 22.7071C20.4808 22.8946 20.7352 23 21.0004 23H30.0004C30.2656 23 30.52 22.8946 30.7075 22.7071C30.895 22.5196 31.0004 22.2652 31.0004 22C31.0004 21.7348 30.895 21.4804 30.7075 21.2929C30.52 21.1054 30.2656 21 30.0004 21ZM30.0004 13H21.0004C20.7352 13 20.4808 13.1054 20.2933 13.2929C20.1057 13.4804 20.0004 13.7348 20.0004 14C20.0004 14.2652 20.1057 14.5196 20.2933 14.7071C20.4808 14.8946 20.7352 15 21.0004 15H30.0004C30.2656 15 30.52 14.8946 30.7075 14.7071C30.895 14.5196 31.0004 14.2652 31.0004 14C31.0004 13.7348 30.895 13.4804 30.7075 13.2929C30.52 13.1054 30.2656 13 30.0004 13ZM30.0004 17H21.0004C20.7352 17 20.4808 17.1054 20.2933 17.2929C20.1057 17.4804 20.0004 17.7348 20.0004 18C20.0004 18.2652 20.1057 18.5196 20.2933 18.7071C20.4808 18.8946 20.7352 19 21.0004 19H30.0004C30.2656 19 30.52 18.8946 30.7075 18.7071C30.895 18.5196 31.0004 18.2652 31.0004 18C31.0004 17.7348 30.895 17.4804 30.7075 17.2929C30.52 17.1054 30.2656 17 30.0004 17ZM16.0004 6H11.1129C5.57538 6 1.03788 10.45 1.00038 15.925C0.988818 17.245 1.23903 18.5541 1.73655 19.7768C2.23407 20.9995 2.96903 22.1114 3.89894 23.0483C4.82884 23.9852 5.93524 24.7284 7.15417 25.2351C8.37309 25.7417 9.68036 26.0017 11.0004 26H16.0004C16.5308 26 17.0395 25.7893 17.4146 25.4142C17.7897 25.0391 18.0004 24.5304 18.0004 24V8C18.0004 7.46957 17.7897 6.96086 17.4146 6.58579C17.0395 6.21071 16.5308 6 16.0004 6V6Z" fill="#49536E"/>
</svg>
