<svg width="32" height="32" viewBox="0 0 32 32" fill="none" xmlns="http://www.w3.org/2000/svg">
<path d="M25.3375 7.77505C24.1364 6.57384 22.7097 5.62194 21.1394 4.97408C19.5691 4.32623 17.8862 3.9952 16.1875 4.00005H16.0875C14.373 3.98851 12.6731 4.31625 11.0857 4.96439C9.49839 5.61253 8.05494 6.56828 6.8385 7.77659C5.62205 8.9849 4.65665 10.4219 3.99787 12.0049C3.33909 13.5878 2.99996 15.2855 3 17.0001V24C3.00329 24.7947 3.32042 25.5558 3.88231 26.1177C4.44421 26.6796 5.20536 26.9968 6 27H8C8.79464 26.9968 9.55579 26.6796 10.1177 26.1177C10.6796 25.5558 10.9967 24.7947 11 24V19.0001C10.9967 18.2054 10.6796 17.4443 10.1177 16.8824C9.55579 16.3205 8.79464 16.0033 8 16.0001H5.05C5.29509 13.2506 6.56722 10.6945 8.61283 8.84121C10.6584 6.98788 13.3273 5.97343 16.0875 6.00005H16.1C18.8586 5.97923 21.5243 6.99567 23.5686 8.84788C25.613 10.7001 26.8868 13.2528 27.1375 16.0001H24.1875C23.3919 16.0001 22.6288 16.3161 22.0662 16.8787C21.5036 17.4413 21.1875 18.2044 21.1875 19.0001V24C21.1875 24.7957 21.5036 25.5588 22.0662 26.1214C22.6288 26.684 23.3919 27 24.1875 27H26.1875C26.9821 26.9968 27.7433 26.6796 28.3052 26.1177C28.8671 25.5558 29.1842 24.7947 29.1875 24V17.0001C29.1897 15.2839 28.8504 13.5845 28.1894 12.0007C27.5285 10.4169 26.559 8.9805 25.3375 7.77505V7.77505Z" fill="#49536E"/>
</svg>
