<svg width="32" height="32" viewBox="0 0 32 32" fill="none" xmlns="http://www.w3.org/2000/svg">
<path d="M29.9001 11.875C29.7728 13.8347 28.9324 15.68 27.5376 17.0625L17.4126 27.1875C17.2278 27.3742 17.0078 27.5224 16.7654 27.6235C16.5229 27.7247 16.2628 27.7768 16.0001 27.7768C15.7374 27.7768 15.4773 27.7247 15.2349 27.6235C14.9924 27.5224 14.7724 27.3742 14.5876 27.1875L4.2001 16.8C3.47912 16.0809 2.91238 15.2224 2.53454 14.2768C2.1567 13.3312 1.9757 12.3185 2.00262 11.3006C2.02953 10.2827 2.26378 9.28095 2.69105 8.35666C3.11832 7.43237 3.72963 6.60495 4.4876 5.92498C5.215 5.27146 6.06769 4.77267 6.99384 4.45894C7.92 4.14521 8.90028 4.02308 9.8751 4.09998C11.4009 4.20081 12.8664 4.73411 14.1001 5.63748C14.1595 5.6797 14.209 5.7344 14.245 5.79775C14.2811 5.86109 14.3028 5.93155 14.3088 6.00419C14.3147 6.07683 14.3047 6.14989 14.2795 6.21826C14.2542 6.28663 14.2143 6.34865 14.1626 6.39998L11.8626 8.69998C11.6756 8.88745 11.5706 9.14144 11.5706 9.40623C11.5706 9.67103 11.6756 9.92502 11.8626 10.1125L16.1626 14.4L14.2876 16.2875C14.1935 16.3795 14.1187 16.4893 14.0677 16.6106C14.0166 16.7319 13.9903 16.8621 13.9903 16.9937C13.9903 17.1253 14.0166 17.2556 14.0677 17.3769C14.1187 17.4982 14.1935 17.608 14.2876 17.7C14.4743 17.8838 14.7256 17.987 14.9876 17.9875C15.2531 17.9864 15.5081 17.8835 15.7001 17.7L18.2876 15.1125C18.4746 14.925 18.5796 14.671 18.5796 14.4062C18.5796 14.1414 18.4746 13.8874 18.2876 13.7L13.9876 9.39998L16.7001 6.69998L17.2001 6.19998C17.9192 5.479 18.7777 4.91226 19.7233 4.53442C20.6689 4.15658 21.6816 3.97558 22.6995 4.00249C23.7174 4.0294 24.7191 4.26366 25.6434 4.69093C26.5677 5.1182 27.3951 5.72951 28.0751 6.48748C28.7286 7.21488 29.2274 8.06757 29.5411 8.99372C29.8549 9.91988 29.977 10.9002 29.9001 11.875V11.875Z" fill="#49536E"/>
</svg>
