<svg width="32" height="32" viewBox="0 0 32 32" fill="none" xmlns="http://www.w3.org/2000/svg">
<path d="M25.1881 6.81249C23.9828 5.60381 22.5508 4.64484 20.9743 3.99052C19.3977 3.3362 17.7075 2.99939 16.0006 2.99939C14.2936 2.99939 12.6035 3.3362 11.0269 3.99052C9.45036 4.64484 8.01841 5.60381 6.8131 6.81249C5.60442 8.0178 4.64545 9.44975 3.99113 11.0263C3.33681 12.6029 3 14.293 3 16C3 17.7069 3.33681 19.3971 3.99113 20.9737C4.64545 22.5502 5.60442 23.9822 6.8131 25.1875C8.01841 26.3962 9.45036 27.3551 11.0269 28.0095C12.6035 28.6638 14.2936 29.0006 16.0006 29.0006C17.7075 29.0006 19.3977 28.6638 20.9743 28.0095C22.5508 27.3551 23.9828 26.3962 25.1881 25.1875C26.3968 23.9822 27.3557 22.5502 28.0101 20.9737C28.6644 19.3971 29.0012 17.7069 29.0012 16C29.0012 14.293 28.6644 12.6029 28.0101 11.0263C27.3557 9.44975 26.3968 8.0178 25.1881 6.81249V6.81249ZM12.0006 26.25V19H20.0006V26.25C17.4278 27.2504 14.5734 27.2504 12.0006 26.25V26.25ZM23.7756 23.775C23.2368 24.3196 22.6418 24.8057 22.0006 25.225V19C22.0006 18.4696 21.7899 17.9608 21.4148 17.5858C21.0397 17.2107 20.531 17 20.0006 17V8.99999C20.0016 8.82934 19.9584 8.66134 19.8751 8.51237C19.7919 8.3634 19.6715 8.23855 19.5256 8.14999C19.3809 8.05903 19.2153 8.00667 19.0446 7.99792C18.8739 7.98917 18.7038 8.02431 18.5506 8.09999L12.5506 11.1C12.386 11.1861 12.2478 11.3153 12.1509 11.4738C12.0541 11.6323 12.0021 11.8142 12.0006 12V17C11.4702 17 10.9615 17.2107 10.5864 17.5858C10.2113 17.9608 10.0006 18.4696 10.0006 19V25.225C8.47028 24.2197 7.21273 22.8511 6.34025 21.2414C5.46777 19.6317 5.00752 17.8309 5.0006 16C4.99955 14.1906 5.44488 12.4088 6.29711 10.8127C7.14934 9.21653 8.38215 7.85525 9.8863 6.8495C11.3904 5.84374 13.1195 5.22456 14.9201 5.04683C16.7208 4.8691 18.5375 5.13832 20.2093 5.83061C21.881 6.5229 23.3561 7.6169 24.504 9.01564C25.6518 10.4144 26.4369 12.0747 26.7896 13.8494C27.1423 15.6241 27.0518 17.4584 26.526 19.1898C26.0003 20.9211 25.0556 22.4961 23.7756 23.775V23.775Z" fill="#49536E"/>
</svg>
