<svg width="32" height="32" viewBox="0 0 32 32" fill="none" xmlns="http://www.w3.org/2000/svg">
<path d="M25.2613 6.87508C24.0548 5.64284 22.6135 4.66502 21.0225 3.99945C19.4316 3.33387 17.7234 2.99405 15.9988 3.00008H14.9988C14.7336 3.00008 14.4793 3.10544 14.2917 3.29297C14.1042 3.48051 13.9988 3.73486 13.9988 4.00008V7.43758L1.47383 15.1501C1.35858 15.2222 1.25924 15.317 1.18187 15.4287C1.1045 15.5405 1.05072 15.6668 1.02383 15.8001C0.993361 15.9353 0.992096 16.0756 1.02012 16.2114C1.04814 16.3472 1.1048 16.4754 1.18633 16.5876L2.91133 18.9751C3.34494 19.585 3.94288 20.0592 4.63555 20.3425C5.32821 20.6257 6.0871 20.7064 6.82383 20.5751C8.53633 20.2876 11.6488 20.0501 14.5238 21.3501L11.2488 25.9251C10.3115 25.4711 9.44089 24.8907 8.66133 24.2001C8.56367 24.1122 8.44966 24.0445 8.32582 24.0007C8.20197 23.9569 8.07071 23.938 7.93954 23.945C7.80837 23.9519 7.67986 23.9847 7.56135 24.0413C7.44283 24.0979 7.33664 24.1774 7.24883 24.2751C7.16174 24.3735 7.09492 24.4882 7.05218 24.6125C7.00944 24.7368 6.99162 24.8683 6.99975 24.9995C7.00788 25.1307 7.04179 25.259 7.09954 25.377C7.15729 25.4951 7.23776 25.6006 7.33633 25.6876C9.71525 27.8243 12.8012 29.0044 15.9988 29.0001H16.2613C18.8023 28.9499 21.2729 28.156 23.3675 26.7165C25.4621 25.277 27.0887 23.2552 28.0464 20.901C29.004 18.5468 29.2506 15.9635 28.7556 13.4707C28.2606 10.9779 27.0458 8.68479 25.2613 6.87508V6.87508ZM15.4988 14.0001C15.2022 14.0001 14.9121 13.9121 14.6655 13.7473C14.4188 13.5825 14.2265 13.3482 14.113 13.0741C13.9995 12.8 13.9698 12.4984 14.0277 12.2074C14.0855 11.9165 14.2284 11.6492 14.4382 11.4394C14.6479 11.2296 14.9152 11.0868 15.2062 11.0289C15.4972 10.971 15.7988 11.0007 16.0729 11.1143C16.3469 11.2278 16.5812 11.4201 16.746 11.6667C16.9109 11.9134 16.9988 12.2034 16.9988 12.5001C16.9988 12.8979 16.8408 13.2794 16.5595 13.5607C16.2782 13.842 15.8967 14.0001 15.4988 14.0001V14.0001Z" fill="#49536E"/>
</svg>
