<svg width="32" height="32" viewBox="0 0 32 32" fill="none" xmlns="http://www.w3.org/2000/svg">
<path d="M25.0005 9.45V5C25.0005 4.46957 24.7898 3.96086 24.4147 3.58579C24.0396 3.21071 23.5309 3 23.0005 3H9.00047C8.47004 3 7.96133 3.21071 7.58626 3.58579C7.21118 3.96086 7.00047 4.46957 7.00047 5V9.5C7.00143 9.81032 7.07414 10.1162 7.21292 10.3938C7.3517 10.6713 7.55279 10.913 7.80047 11.1L14.338 16L7.80047 20.9C7.56645 21.0734 7.37424 21.297 7.23797 21.5544C7.10169 21.8118 7.02481 22.0965 7.01297 22.3875C7.00273 22.4241 6.9985 22.4621 7.00047 22.5V27C7.00047 27.5304 7.21118 28.0391 7.58626 28.4142C7.96133 28.7893 8.47004 29 9.00047 29H23.0005C23.5309 29 24.0396 28.7893 24.4147 28.4142C24.7898 28.0391 25.0005 27.5304 25.0005 27V22.55C25.0024 22.5121 24.9982 22.4741 24.988 22.4375C24.9761 22.1465 24.8992 21.8618 24.763 21.6044C24.6267 21.347 24.4345 21.1234 24.2005 20.95L17.663 16L24.2005 11.05C24.4481 10.863 24.6492 10.6213 24.788 10.3438C24.9268 10.0662 24.9995 9.76032 25.0005 9.45V9.45ZM10.3255 21.5125L16.0005 17.25L21.663 21.5375L10.3255 21.5125ZM23.0005 9.45L16.0005 14.75L9.00047 9.5V5H23.0005V9.45Z" fill="#49536E"/>
</svg>
