<svg width="32" height="32" viewBox="0 0 32 32" fill="none" xmlns="http://www.w3.org/2000/svg">
<path d="M31.0005 16C31.0006 17.3846 30.5901 18.738 29.821 19.8893C29.0518 21.0405 27.9585 21.9378 26.6794 22.4677C25.4002 22.9975 23.9927 23.1361 22.6347 22.866C21.2768 22.5959 20.0295 21.9291 19.0505 20.95L19.013 20.9L11.513 12.45C11.0523 11.9883 10.5047 11.6225 9.90184 11.3736C9.29896 11.1247 8.65274 10.9977 8.00051 11C6.67443 11 5.40266 11.5268 4.46497 12.4645C3.52729 13.4022 3.00051 14.6739 3.00051 16C3.00051 17.3261 3.52729 18.5979 4.46497 19.5356C5.40266 20.4732 6.67443 21 8.00051 21C8.65274 21.0023 9.29896 20.8753 9.90184 20.6265C10.5047 20.3776 11.0523 20.0117 11.513 19.55L12.5755 18.35C12.7512 18.1511 12.9987 18.0301 13.2636 18.0137C13.5285 17.9973 13.7891 18.0868 13.988 18.2625C14.1869 18.4382 14.3079 18.6858 14.3243 18.9506C14.3407 19.2155 14.2512 19.4761 14.0755 19.675L12.988 20.9L12.9505 20.95C12.3005 21.6001 11.5288 22.1158 10.6795 22.4676C9.83013 22.8194 8.91982 23.0005 8.00051 23.0005C7.0812 23.0005 6.17089 22.8194 5.32156 22.4676C4.47223 22.1158 3.70053 21.6001 3.05051 20.95C2.07144 19.9711 1.40467 18.7237 1.13453 17.3658C0.864395 16.0079 1.00302 14.6003 1.53287 13.3212C2.06273 12.042 2.96002 10.9487 4.11125 10.1796C5.26249 9.41041 6.61597 8.99992 8.00051 9.00002C8.92029 8.99652 9.83159 9.17596 10.6814 9.52789C11.5312 9.87983 12.3025 10.3972 12.9505 11.05L12.988 11.1L20.488 19.55C20.9487 20.0117 21.4963 20.3776 22.0992 20.6265C22.7021 20.8753 23.3483 21.0023 24.0005 21C25.3266 21 26.5984 20.4732 27.536 19.5356C28.4737 18.5979 29.0005 17.3261 29.0005 16C29.0005 14.6739 28.4737 13.4022 27.536 12.4645C26.5984 11.5268 25.3266 11 24.0005 11C23.3483 10.9977 22.7021 11.1247 22.0992 11.3736C21.4963 11.6225 20.9487 11.9883 20.488 12.45L19.4255 13.65C19.2498 13.8489 19.0023 13.9699 18.7374 13.9863C18.4725 14.0027 18.2119 13.9132 18.013 13.7375C17.8141 13.5618 17.6931 13.3143 17.6767 13.0494C17.6603 12.7845 17.7498 12.5239 17.9255 12.325L19.013 11.1L19.0505 11.05C20.0295 10.071 21.2768 9.40418 22.6347 9.13405C23.9927 8.86391 25.4002 9.00253 26.6794 9.53239C27.9585 10.0622 29.0518 10.9595 29.821 12.1108C30.5901 13.262 31.0006 14.6155 31.0005 16V16Z" fill="#49536E"/>
</svg>
