<svg width="32" height="32" viewBox="0 0 32 32" fill="none" xmlns="http://www.w3.org/2000/svg">
<path d="M28.9752 4.02498C28.315 3.36942 27.4217 3.00255 26.4913 3.00489C25.5609 3.00724 24.6695 3.3786 24.0127 4.03748L2.28765 26.3C2.16313 26.4267 2.07463 26.5843 2.03125 26.7566C1.98786 26.9289 1.99117 27.1097 2.04082 27.2803C2.09047 27.4508 2.18467 27.6051 2.31374 27.7272C2.4428 27.8493 2.60207 27.9349 2.77515 27.975C4.20958 28.3083 5.6775 28.4761 7.15015 28.475C11.3252 28.475 15.5002 27.1125 19.4377 24.45C21.8388 22.8287 23.9834 20.8568 25.8001 18.6C25.9443 18.4066 26.0146 18.1682 25.9986 17.9276C25.9825 17.687 25.8811 17.46 25.7127 17.2875L23.3626 14.95L28.9876 8.96248C29.6386 8.30495 30.0028 7.41641 30.0004 6.49115C29.9981 5.56588 29.6295 4.6792 28.9752 4.02498V4.02498ZM23.6502 18.0625C22.0643 19.8764 20.2539 21.481 18.2627 22.8375C13.9502 25.7375 9.51265 26.9125 5.03765 26.35L18.3252 12.7375L21.2376 15.65C21.2501 15.6625 21.2627 15.6875 21.2877 15.7H21.3001L23.6502 18.0625Z" fill="#49536E"/>
</svg>
