<svg width="32" height="32" viewBox="0 0 32 32" fill="none" xmlns="http://www.w3.org/2000/svg">
<path d="M30.1498 19.1C29.97 19.3771 29.7236 19.6046 29.4332 19.7619C29.1428 19.9191 28.8175 20.001 28.4873 20H25.9998V24C25.9998 24.2652 25.8944 24.5196 25.7069 24.7071C25.5194 24.8947 25.265 25 24.9998 25C24.7346 25 24.4802 24.8947 24.2927 24.7071C24.1051 24.5196 23.9998 24.2652 23.9998 24V20H16.9998V26H19.9998C20.265 26 20.5194 26.1054 20.7069 26.2929C20.8944 26.4804 20.9998 26.7348 20.9998 27C20.9998 27.2652 20.8944 27.5196 20.7069 27.7071C20.5194 27.8947 20.265 28 19.9998 28H11.9998C11.7346 28 11.4802 27.8947 11.2927 27.7071C11.1051 27.5196 10.9998 27.2652 10.9998 27C10.9998 26.7348 11.1051 26.4804 11.2927 26.2929C11.4802 26.1054 11.7346 26 11.9998 26H14.9998V20H3.51228C3.18256 19.9968 2.85868 19.9126 2.56913 19.7548C2.27958 19.597 2.03324 19.3705 1.85176 19.0952C1.67028 18.8199 1.55922 18.5042 1.52836 18.176C1.4975 17.8477 1.54778 17.5168 1.67478 17.2125L6.82478 5.21251C6.97751 4.85184 7.2334 4.54433 7.56032 4.32861C7.88724 4.11289 8.27061 3.99857 8.66228 4.00001H23.3373C23.729 3.99857 24.1123 4.11289 24.4392 4.32861C24.7662 4.54433 25.0221 4.85184 25.1748 5.21251L30.3248 17.2125C30.4551 17.5168 30.5074 17.8488 30.4768 18.1785C30.4462 18.5081 30.3338 18.8249 30.1498 19.1Z" fill="#49536E"/>
</svg>
