<svg width="32" height="32" viewBox="0 0 32 32" fill="none" xmlns="http://www.w3.org/2000/svg">
<path d="M27.9993 4.93747C27.9819 4.69459 27.8775 4.46612 27.7053 4.29393C27.5331 4.12175 27.3047 4.01738 27.0618 3.99997C17.5243 3.43747 9.88679 6.31247 6.62429 11.7C5.49506 13.5423 4.9382 15.6783 5.02429 17.8375C5.09929 19.825 5.67429 21.85 6.74929 23.8375L19.2868 11.2875C19.4811 11.128 19.7278 11.0465 19.9788 11.0588C20.2299 11.0712 20.4673 11.1764 20.6451 11.3542C20.8228 11.5319 20.9281 11.7694 20.9404 12.0205C20.9527 12.2715 20.8713 12.5182 20.7118 12.7125L8.16179 25.25C10.1493 26.325 12.1743 26.9 14.1618 26.975H14.5743C16.5942 26.9837 18.5766 26.4296 20.2993 25.375C25.6868 22.1125 28.5618 14.475 27.9993 4.93747Z" fill="#49536E"/>
<path d="M7.13727 24.5124C6.99977 24.2874 6.87477 24.0624 6.74977 23.8374L4.28727 26.2874C4.09948 26.477 3.99414 26.7331 3.99414 26.9999C3.99414 27.2668 4.09948 27.5228 4.28727 27.7124C4.47841 27.8972 4.73388 28.0005 4.99977 28.0005C5.26565 28.0005 5.52113 27.8972 5.71227 27.7124L8.16227 25.2499L7.48727 24.8624C7.34683 24.7722 7.22745 24.6528 7.13727 24.5124V24.5124Z" fill="#49536E"/>
</svg>
