<svg width="32" height="32" viewBox="0 0 32 32" fill="none" xmlns="http://www.w3.org/2000/svg">
<path d="M25.2762 25.1C27.6641 22.673 29.0024 19.4047 29.0024 16C29.0024 12.5952 27.6641 9.32692 25.2762 6.89996C25.2537 6.86479 25.2239 6.83493 25.1887 6.81246C25.1662 6.77729 25.1364 6.74743 25.1012 6.72496C22.6742 4.33706 19.4059 2.99878 16.0012 2.99878C12.5964 2.99878 9.32814 4.33706 6.90118 6.72496C6.86601 6.74743 6.83615 6.77729 6.81368 6.81246C6.77851 6.83493 6.74865 6.86479 6.72618 6.89996C4.33828 9.32692 3 12.5952 3 16C3 19.4047 4.33828 22.673 6.72618 25.1L6.81368 25.1875C6.83615 25.2226 6.86601 25.2525 6.90118 25.275C9.32814 27.6629 12.5964 29.0011 16.0012 29.0011C19.4059 29.0011 22.6742 27.6629 25.1012 25.275C25.1364 25.2525 25.1662 25.2226 25.1887 25.1875C25.2239 25.165 25.2537 25.1351 25.2762 25.1ZM12.0012 16C12.0012 15.2088 12.2358 14.4355 12.6753 13.7777C13.1148 13.1199 13.7395 12.6072 14.4704 12.3044C15.2014 12.0017 16.0056 11.9225 16.7815 12.0768C17.5575 12.2312 18.2702 12.6121 18.8296 13.1715C19.389 13.7309 19.77 14.4437 19.9243 15.2196C20.0787 15.9955 19.9995 16.7998 19.6967 17.5307C19.394 18.2616 18.8813 18.8863 18.2235 19.3258C17.5657 19.7654 16.7923 20 16.0012 20C14.9413 19.9967 13.9258 19.5742 13.1764 18.8247C12.427 18.0753 12.0045 17.0598 12.0012 16V16ZM23.0387 7.54996L19.4762 11.1125C18.4617 10.3894 17.2469 10.0009 16.0012 10.0009C14.7554 10.0009 13.5407 10.3894 12.5262 11.1125L8.96368 7.54996C10.9388 5.90264 13.4293 5.0004 16.0012 5.0004C18.5731 5.0004 21.0635 5.90264 23.0387 7.54996V7.54996ZM8.96368 24.45L12.5262 20.8875C13.5407 21.6105 14.7554 21.999 16.0012 21.999C17.2469 21.999 18.4617 21.6105 19.4762 20.8875L23.0387 24.45C21.0635 26.0973 18.5731 26.9995 16.0012 26.9995C13.4293 26.9995 10.9388 26.0973 8.96368 24.45V24.45Z" fill="#49536E"/>
</svg>
