<svg width="32" height="32" viewBox="0 0 32 32" fill="none" xmlns="http://www.w3.org/2000/svg">
<path d="M26.9745 14.775C26.9374 14.6138 26.8609 14.4643 26.7518 14.34C26.6427 14.2157 26.5045 14.1203 26.3495 14.0625L19.1495 11.3625L20.9745 2.2C21.0165 1.98776 20.9894 1.76766 20.8972 1.57195C20.8049 1.37625 20.6524 1.21523 20.462 1.1125C20.2698 1.01022 20.049 0.97437 19.8343 1.01054C19.6195 1.04671 19.4227 1.15287 19.2745 1.3125L5.27454 16.3125C5.15983 16.4315 5.07682 16.5774 5.03314 16.7369C4.98947 16.8963 4.98651 17.0641 5.02454 17.225C5.06368 17.3853 5.14093 17.5338 5.24974 17.6578C5.35855 17.7819 5.49571 17.8778 5.64954 17.9375L12.8495 20.6375L11.0245 29.8C10.9826 30.0122 11.0097 30.2323 11.1019 30.428C11.1941 30.6238 11.3466 30.7848 11.537 30.8875C11.6806 30.9599 11.8388 30.9984 11.9995 31C12.1354 31.0006 12.2699 30.9731 12.3946 30.9194C12.5194 30.8656 12.6317 30.7867 12.7245 30.6875L26.7245 15.6875C26.8393 15.5685 26.9223 15.4226 26.9659 15.2631C27.0096 15.1037 27.0126 14.9359 26.9745 14.775V14.775Z" fill="#49536E"/>
</svg>
