<svg width="32" height="32" viewBox="0 0 32 32" fill="none" xmlns="http://www.w3.org/2000/svg">
<path d="M6.73704 4.32514C6.55637 4.13613 6.30887 4.0254 6.04754 4.01667C5.78622 4.00794 5.53188 4.10191 5.339 4.27844C5.14612 4.45497 5.03006 4.70003 5.01567 4.9611C5.00129 5.22217 5.08973 5.47849 5.26204 5.67514L10.162 11.0626L5.27454 16.3126C5.15983 16.4317 5.07682 16.5776 5.03314 16.737C4.98947 16.8964 4.98651 17.0643 5.02454 17.2251C5.06368 17.3854 5.14093 17.5339 5.24974 17.658C5.35855 17.782 5.49571 17.878 5.64954 17.9376L12.8495 20.6376L11.0245 29.8001C10.9826 30.0124 11.0097 30.2325 11.1019 30.4282C11.1941 30.6239 11.3466 30.7849 11.537 30.8876C11.6806 30.9601 11.8388 30.9985 11.9995 31.0001C12.1366 31.0007 12.2721 30.972 12.3971 30.9159C12.5222 30.8599 12.6338 30.7778 12.7245 30.6751L20.462 22.4001L25.262 27.6751C25.3557 27.7775 25.4696 27.8593 25.5966 27.9152C25.7236 27.9712 25.8608 28.0001 25.9995 28.0001C26.249 27.9977 26.489 27.9044 26.6745 27.7376C26.7728 27.6499 26.8526 27.5434 26.9091 27.4244C26.9656 27.3053 26.9977 27.1762 27.0035 27.0446C27.0093 26.9129 26.9888 26.7815 26.943 26.6579C26.8972 26.5344 26.8272 26.4212 26.737 26.3251L6.73704 4.32514Z" fill="#49536E"/>
<path d="M22.4761 18.6624C22.5684 18.7632 22.6803 18.8441 22.805 18.8999C22.9297 18.9558 23.0645 18.9856 23.2011 18.9874H23.2136C23.3507 18.9879 23.4862 18.9592 23.6112 18.9032C23.7363 18.8471 23.8479 18.765 23.9386 18.6624L26.7261 15.6749C26.8401 15.5563 26.9226 15.4111 26.9663 15.2526C27.0099 15.094 27.0132 14.9271 26.976 14.7669C26.9387 14.6067 26.8621 14.4584 26.753 14.3353C26.6438 14.2123 26.5057 14.1185 26.3511 14.0624L19.1511 11.3624L20.9761 2.18736C21.0139 1.97674 20.9832 1.75956 20.8884 1.56773C20.7936 1.3759 20.6398 1.21953 20.4495 1.12161C20.2593 1.02368 20.0426 0.989367 19.8314 1.0237C19.6202 1.05803 19.4256 1.15921 19.2761 1.31236L13.5386 7.46236C13.3656 7.64375 13.268 7.88418 13.2657 8.13489C13.2633 8.38559 13.3565 8.62779 13.5261 8.81236L22.4761 18.6624Z" fill="#49536E"/>
</svg>
