<svg width="32" height="32" viewBox="0 0 32 32" fill="none" xmlns="http://www.w3.org/2000/svg">
<path d="M29.8253 9.82497C29.4562 10.1988 29.0163 10.4953 28.5312 10.6971C28.0461 10.8989 27.5256 11.0018 27.0003 11C26.6803 11.0004 26.3614 10.9626 26.0503 10.8875L22.7128 17.0625L22.8253 17.175C23.1972 17.5454 23.4923 17.9857 23.6936 18.4705C23.895 18.9553 23.9986 19.475 23.9986 20C23.9986 20.5249 23.895 21.0447 23.6936 21.5295C23.4923 22.0142 23.1972 22.4545 22.8253 22.825C22.4548 23.1969 22.0146 23.492 21.5298 23.6933C21.045 23.8947 20.5252 23.9983 20.0003 23.9983C19.4754 23.9983 18.9556 23.8947 18.4708 23.6933C17.986 23.492 17.5458 23.1969 17.1753 22.825C16.5464 22.1987 16.1437 21.381 16.0305 20.5007C15.9174 19.6204 16.1002 18.7274 16.5503 17.9625L14.0378 15.45C13.4185 15.8085 12.7159 15.9981 12.0003 16C11.6803 16.0004 11.3614 15.9626 11.0503 15.8875L7.71279 22.0625L7.82529 22.175C8.19718 22.5454 8.49227 22.9857 8.69362 23.4705C8.89497 23.9553 8.99862 24.475 8.99862 25C8.99862 25.5249 8.89497 26.0447 8.69362 26.5295C8.49227 27.0142 8.19718 27.4545 7.82529 27.825C7.45482 28.1969 7.01456 28.492 6.52978 28.6933C6.04499 28.8947 5.52522 28.9983 5.00029 28.9983C4.47535 28.9983 3.95558 28.8947 3.4708 28.6933C2.98601 28.492 2.54576 28.1969 2.17529 27.825C1.80339 27.4545 1.5083 27.0142 1.30695 26.5295C1.1056 26.0447 1.00195 25.5249 1.00195 25C1.00195 24.475 1.1056 23.9553 1.30695 23.4705C1.5083 22.9857 1.80339 22.5454 2.17529 22.175V22.175C2.66103 21.6897 3.26319 21.3371 3.92414 21.1511C4.58509 20.9651 5.28272 20.9518 5.95029 21.1125L9.28779 14.9375L9.17529 14.825C8.80339 14.4545 8.5083 14.0142 8.30695 13.5295C8.1056 13.0447 8.00195 12.5249 8.00195 12C8.00195 11.475 8.1056 10.9553 8.30695 10.4705C8.5083 9.9857 8.80339 9.54544 9.17529 9.17497V9.17497C9.86338 8.48403 10.7802 8.06825 11.7533 8.00578C12.7264 7.94331 13.6888 8.23847 14.4596 8.83575C15.2304 9.43304 15.7565 10.2913 15.9389 11.2492C16.1213 12.2071 15.9476 13.1987 15.4503 14.0375L17.9628 16.55C18.865 16.0245 19.9353 15.8678 20.9503 16.1125L24.2878 9.93747L24.1753 9.82497C23.8034 9.4545 23.5083 9.01424 23.3069 8.52946C23.1056 8.04467 23.002 7.5249 23.002 6.99997C23.002 6.47503 23.1056 5.95526 23.3069 5.47048C23.5083 4.9857 23.8034 4.54544 24.1753 4.17497V4.17497C24.9362 3.48553 25.9331 3.1151 26.9595 3.14037C27.986 3.16565 28.9635 3.58469 29.6895 4.31073C30.4156 5.03678 30.8346 6.01423 30.8599 7.04071C30.8852 8.06718 30.5147 9.06407 29.8253 9.82497V9.82497Z" fill="#49536E"/>
</svg>
