<svg width="32" height="32" viewBox="0 0 32 32" fill="none" xmlns="http://www.w3.org/2000/svg">
<path d="M26.8253 10.825C26.4562 11.1989 26.0163 11.4954 25.5312 11.6971C25.0461 11.8989 24.5256 12.0019 24.0003 12C23.2847 11.9982 22.5821 11.8085 21.9628 11.45L11.4503 21.9625C11.9003 22.7275 12.0832 23.6204 11.97 24.5007C11.8569 25.381 11.4542 26.1987 10.8253 26.825C10.4548 27.1969 10.0146 27.492 9.52978 27.6933C9.04499 27.8947 8.52522 27.9983 8.00029 27.9983C7.47535 27.9983 6.95558 27.8947 6.4708 27.6933C5.98602 27.492 5.54576 27.1969 5.17529 26.825C4.80339 26.4545 4.5083 26.0143 4.30695 25.5295C4.1056 25.0447 4.00195 24.5249 4.00195 24C4.00195 23.4751 4.1056 22.9553 4.30695 22.4705C4.5083 21.9857 4.80339 21.5455 5.17529 21.175V21.175C5.80159 20.5461 6.61926 20.1434 7.49957 20.0303C8.37987 19.9171 9.27281 20.1 10.0378 20.55L20.5503 10.0375C20.1693 9.39361 19.9765 8.65578 19.9939 7.90782C20.0113 7.15986 20.238 6.43177 20.6485 5.80624C21.0589 5.18071 21.6365 4.68283 22.3158 4.36916C22.995 4.05548 23.7486 3.93858 24.4909 4.03174C25.2332 4.12491 25.9346 4.42439 26.5152 4.89618C27.0959 5.36797 27.5326 5.99315 27.7757 6.7007C28.0188 7.40824 28.0587 8.1698 27.8907 8.89885C27.7227 9.6279 27.3536 10.2952 26.8253 10.825V10.825Z" fill="#49536E"/>
</svg>
