<svg width="32" height="32" viewBox="0 0 32 32" fill="none" xmlns="http://www.w3.org/2000/svg">
<path d="M26.2489 5.75015C25.647 5.14431 24.9313 4.6635 24.143 4.3354C23.3546 4.00729 22.5091 3.83838 21.6551 3.83838C20.8012 3.83838 19.9557 4.00729 19.1673 4.3354C18.3789 4.6635 17.6632 5.14431 17.0614 5.75015L14.5864 8.22515C14.414 8.41537 14.3214 8.66459 14.3277 8.92121C14.334 9.17783 14.4388 9.42219 14.6203 9.60371C14.8018 9.78522 15.0462 9.88998 15.3028 9.8963C15.5594 9.90261 15.8086 9.81001 15.9989 9.63765L18.4739 7.16265C19.3193 6.32223 20.463 5.85051 21.6551 5.85051C22.8472 5.85051 23.9909 6.32223 24.8364 7.16265C25.2555 7.57964 25.5881 8.07536 25.8151 8.6213C26.042 9.16725 26.1588 9.75266 26.1588 10.3439C26.1588 10.9351 26.042 11.5205 25.8151 12.0665C25.5881 12.6124 25.2555 13.1081 24.8364 13.5251L21.2989 17.0626C20.4534 17.9031 19.3097 18.3748 18.1176 18.3748C16.9255 18.3748 15.7818 17.9031 14.9364 17.0626C14.8454 16.9623 14.735 16.8814 14.6118 16.825C14.4887 16.7686 14.3554 16.7377 14.2199 16.7344C14.0845 16.7311 13.9498 16.7553 13.824 16.8056C13.6982 16.8559 13.584 16.9312 13.4882 17.027C13.3924 17.1228 13.3171 17.237 13.2668 17.3628C13.2165 17.4886 13.1923 17.6233 13.1956 17.7587C13.1989 17.8941 13.2298 18.0275 13.2862 18.1506C13.3426 18.2738 13.4235 18.3842 13.5239 18.4751C14.7426 19.6926 16.3949 20.3765 18.1176 20.3765C19.8403 20.3765 21.4926 19.6926 22.7114 18.4751L26.2489 14.9376C26.8547 14.3358 27.3355 13.6201 27.6636 12.8317C27.9917 12.0433 28.1606 11.1978 28.1606 10.3439C28.1606 9.48996 27.9917 8.64445 27.6636 7.85606C27.3355 7.06766 26.8547 6.35196 26.2489 5.75015V5.75015Z" fill="#49536E"/>
<path d="M16.0014 22.3624L13.5264 24.8374C12.6767 25.6515 11.5419 26.1003 10.3651 26.0877C9.18844 26.0751 8.06349 25.6021 7.23138 24.7699C6.39928 23.9378 5.92623 22.8129 5.91362 21.6362C5.90101 20.4595 6.34985 19.3246 7.16393 18.4749L10.7014 14.9374C11.5469 14.097 12.6906 13.6253 13.8827 13.6253C15.0748 13.6253 16.2185 14.097 17.0639 14.9374C17.2542 15.1098 17.5034 15.2024 17.76 15.196C18.0166 15.1897 18.261 15.085 18.4425 14.9035C18.624 14.7219 18.7288 14.4776 18.7351 14.221C18.7414 13.9643 18.6488 13.7151 18.4764 13.5249C17.2576 12.3074 15.6054 11.6235 13.8827 11.6235C12.16 11.6235 10.5077 12.3074 9.28893 13.5249L5.75143 17.0624C5.11547 17.6582 4.6058 18.3757 4.25273 19.1724C3.89965 19.9691 3.71039 20.8287 3.69618 21.7C3.68197 22.5713 3.84311 23.4366 4.17001 24.2444C4.49692 25.0522 4.98292 25.786 5.59912 26.4022C6.21531 27.0184 6.94912 27.5044 7.75691 27.8313C8.56471 28.1582 9.42998 28.3194 10.3013 28.3052C11.1726 28.2909 12.0322 28.1017 12.8289 27.7486C13.6256 27.3955 14.3432 26.8859 14.9389 26.2499L17.4139 23.7749C17.5863 23.5847 17.6789 23.3355 17.6726 23.0788C17.6663 22.8222 17.5615 22.5779 17.38 22.3963C17.1985 22.2148 16.9541 22.1101 16.6975 22.1037C16.4409 22.0974 16.1917 22.19 16.0014 22.3624V22.3624Z" fill="#49536E"/>
</svg>
