<svg width="32" height="32" viewBox="0 0 32 32" fill="none" xmlns="http://www.w3.org/2000/svg">
<path d="M17.4113 21.6625L13.8738 25.1875C13.4122 25.655 12.8624 26.0262 12.2562 26.2795C11.65 26.5329 10.9995 26.6633 10.3425 26.6633C9.68555 26.6633 9.0351 26.5329 8.42892 26.2795C7.82274 26.0262 7.2729 25.655 6.81129 25.1875C5.87623 24.2501 5.35111 22.9802 5.35111 21.6562C5.35111 20.3322 5.87623 19.0623 6.81129 18.125L10.3363 14.5875C10.5087 14.3972 10.6013 14.148 10.5949 13.8914C10.5886 13.6348 10.4839 13.3904 10.3024 13.2089C10.1208 13.0274 9.87648 12.9226 9.61986 12.9163C9.36324 12.91 9.11402 13.0026 8.92379 13.175L5.38629 16.7125C4.07347 18.0253 3.33594 19.8059 3.33594 21.6625C3.33594 23.5191 4.07347 25.2996 5.38629 26.6125C6.69912 27.9253 8.47968 28.6628 10.3363 28.6628C12.1929 28.6628 13.9735 27.9253 15.2863 26.6125L18.8238 23.075C19.0108 22.8875 19.1158 22.6335 19.1158 22.3687C19.1158 22.1039 19.0108 21.8499 18.8238 21.6625C18.7318 21.5684 18.622 21.4936 18.5007 21.4425C18.3794 21.3915 18.2491 21.3652 18.1175 21.3652C17.986 21.3652 17.8557 21.3915 17.7344 21.4425C17.6131 21.4936 17.5033 21.5684 17.4113 21.6625V21.6625Z" fill="#49536E"/>
<path d="M26.6125 5.38742C25.9624 4.73733 25.1907 4.22165 24.3414 3.86983C23.4921 3.518 22.5818 3.33691 21.6625 3.33691C20.7432 3.33691 19.8328 3.518 18.9835 3.86983C18.1342 4.22165 17.3625 4.73733 16.7125 5.38742L13.175 8.92492C13.0026 9.11514 12.91 9.36437 12.9163 9.62098C12.9226 9.8776 13.0274 10.122 13.2089 10.3035C13.3904 10.485 13.6348 10.5897 13.8914 10.5961C14.148 10.6024 14.3972 10.5098 14.5875 10.3374L18.125 6.81242C18.5866 6.34491 19.1364 5.97372 19.7426 5.72037C20.3488 5.46702 20.9992 5.33656 21.6562 5.33656C22.3132 5.33656 22.9637 5.46702 23.5698 5.72037C24.176 5.97372 24.7259 6.34491 25.1875 6.81242C26.1225 7.74975 26.6477 9.01968 26.6477 10.3437C26.6477 11.6677 26.1225 12.9376 25.1875 13.8749L21.6625 17.4124C21.5684 17.5044 21.4936 17.6142 21.4425 17.7355C21.3915 17.8568 21.3652 17.9871 21.3652 18.1187C21.3652 18.2503 21.3915 18.3805 21.4425 18.5018C21.4936 18.6231 21.5684 18.7329 21.6625 18.8249C21.7526 18.9199 21.8612 18.9955 21.9815 19.0471C22.1019 19.0987 22.2315 19.1252 22.3625 19.1249C22.4952 19.1247 22.6266 19.0981 22.7489 19.0466C22.8712 18.995 22.9821 18.9197 23.075 18.8249L26.6125 15.2874C27.9223 13.973 28.6578 12.193 28.6578 10.3374C28.6578 8.48179 27.9223 6.70181 26.6125 5.38742V5.38742Z" fill="#49536E"/>
</svg>
