<svg width="32" height="32" viewBox="0 0 32 32" fill="none" xmlns="http://www.w3.org/2000/svg">
<path d="M20.1504 27.2126C20.2032 27.2878 20.2343 27.376 20.2403 27.4676C20.2463 27.5593 20.2269 27.6508 20.1843 27.7322C20.1416 27.8135 20.0774 27.8816 19.9987 27.9288C19.92 27.9761 19.8297 28.0008 19.7379 28.0001H12.2629C12.1711 28.0008 12.0808 27.9761 12.0021 27.9288C11.9234 27.8816 11.8592 27.8135 11.8166 27.7322C11.7739 27.6508 11.7546 27.5593 11.7605 27.4676C11.7665 27.376 11.7976 27.2878 11.8504 27.2126C12.3078 26.532 12.9255 25.9743 13.6492 25.5887C14.373 25.2031 15.1804 25.0015 16.0004 25.0015C16.8204 25.0015 17.6279 25.2031 18.3516 25.5887C19.0753 25.9743 19.693 26.532 20.1504 27.2126V27.2126ZM28.7254 27.6876C28.6283 27.7881 28.5117 27.8676 28.3827 27.9214C28.2537 27.9751 28.1151 28.0019 27.9754 28.0001H23.0754C22.9713 27.9988 22.8701 27.9658 22.7853 27.9055C22.7004 27.8452 22.6359 27.7605 22.6004 27.6626C22.118 26.2976 21.2243 25.1158 20.0423 24.2798C18.8603 23.4439 17.4481 22.995 16.0004 22.995C14.5527 22.995 13.1406 23.4439 11.9585 24.2798C10.7765 25.1158 9.88279 26.2976 9.40041 27.6626C9.36487 27.7605 9.30039 27.8452 9.21554 27.9055C9.13069 27.9658 9.02949 27.9988 8.92541 28.0001H4.02541C3.88549 28.0034 3.74643 27.9773 3.61724 27.9235C3.48805 27.8697 3.37159 27.7893 3.27541 27.6876C3.12583 27.532 3.03139 27.3315 3.00656 27.1171C2.98172 26.9026 3.02786 26.6859 3.13791 26.5001C3.17541 26.4376 7.00041 19.6251 7.00041 12.0001C7.00204 10.8134 7.23801 9.63873 7.69479 8.54346C8.15157 7.44819 8.82016 6.45391 9.66219 5.61769C10.5042 4.78147 11.5031 4.11977 12.6015 3.67058C13.6999 3.22139 14.8762 2.99355 16.0629 3.00014C21.0129 3.03764 24.9879 7.11264 25.0004 12.0626C25.0254 19.6626 28.8254 26.4376 28.8629 26.5001C28.973 26.6859 29.0191 26.9026 28.9943 27.1171C28.9694 27.3315 28.875 27.532 28.7254 27.6876V27.6876ZM11.0004 13.5001C11.0004 13.7968 11.0884 14.0868 11.2532 14.3335C11.418 14.5802 11.6523 14.7724 11.9264 14.886C12.2005 14.9995 12.5021 15.0292 12.793 14.9713C13.084 14.9134 13.3513 14.7706 13.5611 14.5608C13.7708 14.351 13.9137 14.0837 13.9716 13.7928C14.0295 13.5018 13.9998 13.2002 13.8862 12.9261C13.7727 12.652 13.5804 12.4178 13.3338 12.2529C13.0871 12.0881 12.7971 12.0001 12.5004 12.0001C12.1026 12.0001 11.7211 12.1582 11.4397 12.4395C11.1584 12.7208 11.0004 13.1023 11.0004 13.5001V13.5001ZM20.9004 17.5501C20.7774 17.3149 20.568 17.1366 20.3162 17.0527C20.0644 16.9688 19.7899 16.9858 19.5504 17.1001L16.0004 18.8876L12.4504 17.1001C12.3322 17.041 12.2035 17.0058 12.0717 16.9964C11.9399 16.9871 11.8076 17.0038 11.6822 17.0455C11.5569 17.0873 11.441 17.1534 11.3411 17.24C11.2413 17.3266 11.1595 17.4319 11.1004 17.5501C11.0413 17.6683 11.0061 17.797 10.9967 17.9288C10.9873 18.0606 11.004 18.193 11.0458 18.3183C11.0876 18.4437 11.1537 18.5596 11.2402 18.6594C11.3268 18.7592 11.4322 18.841 11.5504 18.9001L15.5504 20.9001C15.6913 20.966 15.8449 21.0001 16.0004 21.0001C16.1559 21.0001 16.3095 20.966 16.4504 20.9001L20.4504 18.9001C20.6856 18.7772 20.8639 18.5677 20.9479 18.316C21.0318 18.0642 21.0148 17.7896 20.9004 17.5501ZM21.0004 13.5001C21.0004 13.2035 20.9124 12.9135 20.7476 12.6668C20.5828 12.4201 20.3485 12.2279 20.0744 12.1143C19.8003 12.0008 19.4987 11.9711 19.2078 12.029C18.9168 12.0868 18.6495 12.2297 18.4397 12.4395C18.23 12.6493 18.0871 12.9165 18.0292 13.2075C17.9714 13.4985 18.0011 13.8001 18.1146 14.0742C18.2281 14.3483 18.4204 14.5825 18.6671 14.7473C18.9137 14.9122 19.2037 15.0001 19.5004 15.0001C19.8982 15.0001 20.2798 14.8421 20.5611 14.5608C20.8424 14.2795 21.0004 13.898 21.0004 13.5001Z" fill="#49536E"/>
</svg>
