<svg width="32" height="32" viewBox="0 0 32 32" fill="none" xmlns="http://www.w3.org/2000/svg">
<path d="M28.0003 16C28.0003 16.2652 27.895 16.5195 27.7075 16.7071C27.5199 16.8946 27.2656 17 27.0003 17H16.0003C15.7351 17 15.4808 16.8946 15.2932 16.7071C15.1057 16.5195 15.0003 16.2652 15.0003 16C15.0003 15.7348 15.1057 15.4804 15.2932 15.2929C15.4808 15.1053 15.7351 15 16.0003 15H27.0003C27.2656 15 27.5199 15.1053 27.7075 15.2929C27.895 15.4804 28.0003 15.7348 28.0003 16ZM16.0003 8.99997H27.0003C27.2656 8.99997 27.5199 8.89461 27.7075 8.70708C27.895 8.51954 28.0003 8.26519 28.0003 7.99997C28.0003 7.73475 27.895 7.4804 27.7075 7.29286C27.5199 7.10533 27.2656 6.99997 27.0003 6.99997H16.0003C15.7351 6.99997 15.4808 7.10533 15.2932 7.29286C15.1057 7.4804 15.0003 7.73475 15.0003 7.99997C15.0003 8.26519 15.1057 8.51954 15.2932 8.70708C15.4808 8.89461 15.7351 8.99997 16.0003 8.99997V8.99997ZM27.0003 23H16.0003C15.7351 23 15.4808 23.1053 15.2932 23.2929C15.1057 23.4804 15.0003 23.7348 15.0003 24C15.0003 24.2652 15.1057 24.5195 15.2932 24.7071C15.4808 24.8946 15.7351 25 16.0003 25H27.0003C27.2656 25 27.5199 24.8946 27.7075 24.7071C27.895 24.5195 28.0003 24.2652 28.0003 24C28.0003 23.7348 27.895 23.4804 27.7075 23.2929C27.5199 23.1053 27.2656 23 27.0003 23ZM10.8253 5.26247L7.16285 8.63747L5.67535 7.26247C5.47869 7.09015 5.22237 7.00172 4.9613 7.0161C4.70023 7.03049 4.45518 7.14655 4.27864 7.33943C4.10211 7.53231 4.00815 7.78665 4.01687 8.04797C4.0256 8.30929 4.13634 8.5568 4.32535 8.73747L6.48785 10.7375C6.67214 10.9062 6.91295 10.9999 7.16285 11C7.41661 11.0006 7.66157 10.9071 7.85035 10.7375L12.1753 6.73747C12.2755 6.64972 12.3571 6.54286 12.4154 6.42316C12.4737 6.30345 12.5075 6.17331 12.5148 6.04037C12.5221 5.90743 12.5028 5.77436 12.458 5.64897C12.4133 5.52359 12.3439 5.40841 12.254 5.31019C12.1641 5.21198 12.0555 5.1327 11.9346 5.07701C11.8136 5.02133 11.6828 4.99035 11.5497 4.98591C11.4166 4.98146 11.284 5.00364 11.1596 5.05113C11.0352 5.09862 10.9216 5.17047 10.8253 5.26247ZM10.8253 13.2625L7.16285 16.6375L5.67535 15.2625C5.5791 15.1705 5.46545 15.0986 5.34106 15.0511C5.21668 15.0036 5.08406 14.9815 4.95099 14.9859C4.81792 14.9904 4.68708 15.0213 4.56614 15.077C4.4452 15.1327 4.3366 15.212 4.2467 15.3102C4.15681 15.4084 4.08743 15.5236 4.04265 15.649C3.99786 15.7744 3.97856 15.9074 3.98589 16.0404C3.99321 16.1733 4.02701 16.3035 4.08531 16.4232C4.1436 16.5429 4.22521 16.6497 4.32535 16.7375L6.48785 18.7375C6.67214 18.9062 6.91295 18.9999 7.16285 19C7.41661 19.0006 7.66157 18.9071 7.85035 18.7375L12.1753 14.7375C12.2755 14.6497 12.3571 14.5429 12.4154 14.4232C12.4737 14.3035 12.5075 14.1733 12.5148 14.0404C12.5221 13.9074 12.5028 13.7744 12.458 13.649C12.4133 13.5236 12.3439 13.4084 12.254 13.3102C12.1641 13.212 12.0555 13.1327 11.9346 13.077C11.8136 13.0213 11.6828 12.9904 11.5497 12.9859C11.4166 12.9815 11.284 13.0036 11.1596 13.0511C11.0352 13.0986 10.9216 13.1705 10.8253 13.2625ZM10.8253 21.2625L7.16285 24.6375L5.67535 23.2625C5.5791 23.1705 5.46545 23.0986 5.34106 23.0511C5.21668 23.0036 5.08406 22.9815 4.95099 22.9859C4.81792 22.9904 4.68708 23.0213 4.56614 23.077C4.4452 23.1327 4.3366 23.212 4.2467 23.3102C4.15681 23.4084 4.08743 23.5236 4.04265 23.649C3.99786 23.7744 3.97856 23.9074 3.98589 24.0404C3.99321 24.1733 4.02701 24.3035 4.08531 24.4232C4.1436 24.5429 4.22521 24.6497 4.32535 24.7375L6.48785 26.7375C6.67214 26.9062 6.91295 26.9999 7.16285 27C7.41661 27.0006 7.66157 26.9071 7.85035 26.7375L12.1753 22.7375C12.3644 22.5568 12.4751 22.3093 12.4838 22.048C12.4925 21.7867 12.3986 21.5323 12.222 21.3394C12.0455 21.1466 11.8005 21.0305 11.5394 21.0161C11.2783 21.0017 11.022 21.0902 10.8253 21.2625V21.2625Z" fill="#49536E"/>
</svg>
