<svg width="32" height="32" viewBox="0 0 32 32" fill="none" xmlns="http://www.w3.org/2000/svg">
<path d="M30.9994 19C30.9994 19.2652 30.8941 19.5196 30.7066 19.7071C30.519 19.8946 30.2647 20 29.9994 20H27.9994V22C27.9994 22.2652 27.8941 22.5196 27.7066 22.7071C27.519 22.8946 27.2647 23 26.9994 23C26.7342 23 26.4799 22.8946 26.2923 22.7071C26.1048 22.5196 25.9994 22.2652 25.9994 22V20H23.9994C23.7342 20 23.4799 19.8946 23.2923 19.7071C23.1048 19.5196 22.9994 19.2652 22.9994 19C22.9994 18.7348 23.1048 18.4804 23.2923 18.2929C23.4799 18.1053 23.7342 18 23.9994 18H25.9994V16C25.9994 15.7348 26.1048 15.4804 26.2923 15.2929C26.4799 15.1054 26.7342 15 26.9994 15C27.2647 15 27.519 15.1054 27.7066 15.2929C27.8941 15.4804 27.9994 15.7348 27.9994 16V18H29.9994C30.2647 18 30.519 18.1053 30.7066 18.2929C30.8941 18.4804 30.9994 18.7348 30.9994 19ZM7.99944 8.49999H9.49944V9.99999C9.49944 10.2652 9.6048 10.5196 9.79234 10.7071C9.97987 10.8946 10.2342 11 10.4994 11C10.7647 11 11.019 10.8946 11.2065 10.7071C11.3941 10.5196 11.4994 10.2652 11.4994 9.99999V8.49999H12.9994C13.2647 8.49999 13.519 8.39464 13.7065 8.2071C13.8941 8.01956 13.9994 7.76521 13.9994 7.49999C13.9994 7.23478 13.8941 6.98042 13.7065 6.79289C13.519 6.60535 13.2647 6.49999 12.9994 6.49999H11.4994V4.99999C11.4994 4.73478 11.3941 4.48042 11.2065 4.29289C11.019 4.10535 10.7647 3.99999 10.4994 3.99999C10.2342 3.99999 9.97987 4.10535 9.79234 4.29289C9.6048 4.48042 9.49944 4.73478 9.49944 4.99999V6.49999H7.99944C7.73423 6.49999 7.47987 6.60535 7.29234 6.79289C7.1048 6.98042 6.99944 7.23478 6.99944 7.49999C6.99944 7.76521 7.1048 8.01956 7.29234 8.2071C7.47987 8.39464 7.73423 8.49999 7.99944 8.49999ZM22.9994 24H21.9994V23C21.9994 22.7348 21.8941 22.4804 21.7066 22.2929C21.519 22.1053 21.2647 22 20.9994 22C20.7342 22 20.4799 22.1053 20.2923 22.2929C20.1048 22.4804 19.9994 22.7348 19.9994 23V24H18.9994C18.7342 24 18.4799 24.1053 18.2923 24.2929C18.1048 24.4804 17.9994 24.7348 17.9994 25C17.9994 25.2652 18.1048 25.5196 18.2923 25.7071C18.4799 25.8946 18.7342 26 18.9994 26H19.9994V27C19.9994 27.2652 20.1048 27.5196 20.2923 27.7071C20.4799 27.8946 20.7342 28 20.9994 28C21.2647 28 21.519 27.8946 21.7066 27.7071C21.8941 27.5196 21.9994 27.2652 21.9994 27V26H22.9994C23.2647 26 23.519 25.8946 23.7066 25.7071C23.8941 25.5196 23.9994 25.2652 23.9994 25C23.9994 24.7348 23.8941 24.4804 23.7066 24.2929C23.519 24.1053 23.2647 24 22.9994 24ZM22.7119 14.7125L9.41194 28C9.22713 28.1867 9.00714 28.3349 8.76469 28.4361C8.52224 28.5372 8.26215 28.5893 7.99944 28.5893C7.73674 28.5893 7.47664 28.5372 7.2342 28.4361C6.99175 28.3349 6.77176 28.1867 6.58694 28L3.99944 25.4125C3.81274 25.2277 3.66453 25.0077 3.56338 24.7652C3.46224 24.5228 3.41016 24.2627 3.41016 24C3.41016 23.7373 3.46224 23.4772 3.56338 23.2347C3.66453 22.9923 3.81274 22.7723 3.99944 22.5875L22.5869 3.99999C22.9635 3.62899 23.4708 3.42102 23.9994 3.42102C24.528 3.42102 25.0354 3.62899 25.4119 3.99999L27.9994 6.58749C28.1861 6.77231 28.3344 6.9923 28.4355 7.23475C28.5366 7.4772 28.5887 7.73729 28.5887 7.99999C28.5887 8.2627 28.5366 8.52279 28.4355 8.76524C28.3344 9.00769 28.1861 9.22768 27.9994 9.41249L22.7119 14.7125V14.7125ZM19.4119 9.99999L21.9994 12.5875L26.5869 7.99999L23.9994 5.41249L19.4119 9.99999Z" fill="#49536E"/>
</svg>
