<svg width="32" height="32" viewBox="0 0 32 32" fill="none" xmlns="http://www.w3.org/2000/svg">
<path d="M25.8743 6.27508C24.8559 5.23975 23.642 4.41709 22.3029 3.85488C20.9639 3.29267 19.5266 3.00211 18.0743 3.00008H18.0368C16.5898 2.99446 15.1561 3.27669 13.8191 3.83035C12.4822 4.38401 11.2687 5.19805 10.2493 6.22508L6.03681 10.4876L1.98681 14.5876C1.61747 14.9657 1.41174 15.474 1.41408 16.0026C1.41642 16.5312 1.62664 17.0377 1.99931 17.4126L5.57431 20.9876C5.75799 21.1757 5.97781 21.3247 6.22054 21.4256C6.46328 21.5266 6.72393 21.5774 6.98681 21.5751H6.99931C7.26498 21.5761 7.52812 21.5234 7.77297 21.4203C8.01782 21.3172 8.23935 21.1658 8.42431 20.9751L12.4243 16.8751L16.6243 12.5876C16.9964 12.2207 17.4967 12.013 18.0193 12.0083C18.5418 12.0036 19.0457 12.2024 19.4243 12.5626C19.6103 12.7452 19.7581 12.9631 19.8589 13.2035C19.9598 13.4438 20.0118 13.7019 20.0118 13.9626C20.0138 14.5238 19.7936 15.0631 19.3993 15.4626L15.1368 19.5876L11.0368 23.5751C10.8447 23.7586 10.6913 23.9788 10.5857 24.2227C10.4802 24.4665 10.4246 24.7291 10.4223 24.9948C10.4199 25.2605 10.4709 25.524 10.5722 25.7697C10.6734 26.0153 10.8229 26.2382 11.0118 26.4251L14.5868 30.0126C14.9648 30.3794 15.4701 30.5856 15.9968 30.5879C16.5235 30.5903 17.0306 30.3885 17.4118 30.0251L21.5243 25.9751L25.7243 21.8626C30.0243 17.5626 30.0993 10.5751 25.8743 6.27508ZM6.98681 19.5751L3.41181 16.0001L6.74931 12.6126L10.3118 16.1751L6.98681 19.5751ZM16.0118 28.5876L12.4243 25.0126L15.8368 21.7001L19.3993 25.2626L16.0118 28.5876Z" fill="#49536E"/>
</svg>
