<svg width="32" height="32" viewBox="0 0 32 32" fill="none" xmlns="http://www.w3.org/2000/svg">
<path d="M28.6992 27.2874L23.2992 21.8874C25.2095 19.6132 26.168 16.6892 25.9748 13.7255C25.7817 10.7617 24.4518 7.98686 22.2625 5.97976C20.0732 3.97266 17.1936 2.88824 14.2242 2.95267C11.2549 3.01709 8.42498 4.22539 6.32482 6.32555C4.22465 8.42571 3.01636 11.2556 2.95193 14.225C2.88751 17.1943 3.97193 20.074 5.97903 22.2632C7.98612 24.4525 10.7609 25.7824 13.7247 25.9756C16.6885 26.1687 19.6124 25.2102 21.8867 23.2999L27.2867 28.7124C27.4787 28.8959 27.7337 28.9988 27.9992 28.9999C28.1975 28.9996 28.3912 28.9403 28.5557 28.8297C28.7203 28.719 28.8482 28.5619 28.9232 28.3783C28.9982 28.1948 29.017 27.9931 28.9771 27.7988C28.9372 27.6046 28.8405 27.4266 28.6992 27.2874ZM18.4992 15.4999H10.4992C10.234 15.4999 9.97965 15.3946 9.79211 15.2071C9.60457 15.0195 9.49922 14.7652 9.49922 14.4999C9.49922 14.2347 9.60457 13.9804 9.79211 13.7928C9.97965 13.6053 10.234 13.4999 10.4992 13.4999H18.4992C18.7644 13.4999 19.0188 13.6053 19.2063 13.7928C19.3939 13.9804 19.4992 14.2347 19.4992 14.4999C19.4992 14.7652 19.3939 15.0195 19.2063 15.2071C19.0188 15.3946 18.7644 15.4999 18.4992 15.4999Z" fill="#49536E"/>
</svg>
