<svg width="32" height="32" viewBox="0 0 32 32" fill="none" xmlns="http://www.w3.org/2000/svg">
<path d="M25.1881 6.81249C23.9828 5.60381 22.5508 4.64484 20.9743 3.99052C19.3977 3.3362 17.7075 2.99939 16.0006 2.99939C14.2936 2.99939 12.6035 3.3362 11.0269 3.99052C9.45036 4.64484 8.01841 5.60381 6.8131 6.81249C5.60442 8.0178 4.64545 9.44975 3.99113 11.0263C3.33681 12.6029 3 14.293 3 16C3 17.7069 3.33681 19.3971 3.99113 20.9737C4.64545 22.5502 5.60442 23.9822 6.8131 25.1875C8.01841 26.3962 9.45036 27.3551 11.0269 28.0095C12.6035 28.6638 14.2936 29.0006 16.0006 29.0006C17.7075 29.0006 19.3977 28.6638 20.9743 28.0095C22.5508 27.3551 23.9828 26.3962 25.1881 25.1875C26.3968 23.9822 27.3557 22.5502 28.0101 20.9737C28.6644 19.3971 29.0012 17.7069 29.0012 16C29.0012 14.293 28.6644 12.6029 28.0101 11.0263C27.3557 9.44975 26.3968 8.0178 25.1881 6.81249V6.81249ZM11.0006 25.8V22H21.0006V25.8C19.45 26.5823 17.7374 26.9899 16.0006 26.9899C14.2638 26.9899 12.5512 26.5823 11.0006 25.8V25.8ZM13.0006 17H19.0006V20H13.0006V17ZM23.7756 23.775C23.5256 24.025 23.2631 24.2625 23.0006 24.4875V22C23.0006 21.4696 22.7899 20.9608 22.4148 20.5858C22.0397 20.2107 21.531 20 21.0006 20V17C20.9996 16.5201 20.826 16.0566 20.5117 15.694C20.1973 15.3314 19.763 15.094 19.2881 15.025L17.9506 9.16249C17.8499 8.72062 17.6021 8.32606 17.2478 8.04344C16.8936 7.76081 16.4538 7.6069 16.0006 7.6069C15.5474 7.6069 15.1076 7.76081 14.7534 8.04344C14.3991 8.32606 14.1513 8.72062 14.0506 9.16249L12.7131 15.025C12.2382 15.094 11.8039 15.3314 11.4895 15.694C11.1751 16.0566 11.0016 16.5201 11.0006 17V20C10.4702 20 9.96146 20.2107 9.58638 20.5858C9.21131 20.9608 9.0006 21.4696 9.0006 22V24.4875C8.7381 24.2625 8.4756 24.025 8.2256 23.775C6.68632 22.237 5.63778 20.277 5.21262 18.1429C4.78745 16.0089 5.00476 13.7967 5.83706 11.7862C6.66936 9.77568 8.07926 8.05719 9.88839 6.8481C11.6975 5.639 13.8246 4.99364 16.0006 4.99364C18.1766 4.99364 20.3037 5.639 22.1128 6.8481C23.9219 8.05719 25.3318 9.77568 26.1641 11.7862C26.9964 13.7967 27.2137 16.0089 26.7886 18.1429C26.3634 20.277 25.3149 22.237 23.7756 23.775V23.775Z" fill="#49536E"/>
</svg>
