<svg width="32" height="32" viewBox="0 0 32 32" fill="none" xmlns="http://www.w3.org/2000/svg">
<path d="M29.7122 5.7125C29.8479 5.56792 29.9398 5.38788 29.9774 5.19321C30.015 4.99855 29.9968 4.79722 29.9247 4.61251C29.8482 4.4305 29.7195 4.27522 29.5549 4.16622C29.3903 4.05722 29.1971 3.99939 28.9997 4H2.99971C2.80228 3.99939 2.60909 4.05722 2.44448 4.16622C2.27987 4.27522 2.15121 4.4305 2.07471 4.61251C2.00266 4.79722 1.98439 4.99855 2.02199 5.19321C2.0596 5.38788 2.15155 5.56792 2.28721 5.7125L14.9997 18.4125V26H10.9997C10.7345 26 10.4801 26.1054 10.2926 26.2929C10.1051 26.4804 9.99971 26.7348 9.99971 27C9.99971 27.2652 10.1051 27.5196 10.2926 27.7071C10.4801 27.8946 10.7345 28 10.9997 28H20.9997C21.2649 28 21.5193 27.8946 21.7068 27.7071C21.8944 27.5196 21.9997 27.2652 21.9997 27C21.9997 26.7348 21.8944 26.4804 21.7068 26.2929C21.5193 26.1054 21.2649 26 20.9997 26H16.9997V18.4125L29.7122 5.7125ZM26.5872 6.00001L24.5872 8H7.41221L5.41221 6.00001H26.5872Z" fill="#49536E"/>
</svg>
