<svg width="32" height="32" viewBox="0 0 32 32" fill="none" xmlns="http://www.w3.org/2000/svg">
<path d="M13 22H10V19C10 18.7348 9.89464 18.4804 9.70711 18.2929C9.51957 18.1054 9.26522 18 9 18C8.73478 18 8.48043 18.1054 8.29289 18.2929C8.10536 18.4804 8 18.7348 8 19V22H5C4.73478 22 4.48043 22.1054 4.29289 22.2929C4.10536 22.4804 4 22.7348 4 23C4 23.2652 4.10536 23.5196 4.29289 23.7071C4.48043 23.8946 4.73478 24 5 24H8V27C8 27.2652 8.10536 27.5196 8.29289 27.7071C8.48043 27.8946 8.73478 28 9 28C9.26522 28 9.51957 27.8946 9.70711 27.7071C9.89464 27.5196 10 27.2652 10 27V24H13C13.2652 24 13.5196 23.8946 13.7071 23.7071C13.8946 23.5196 14 23.2652 14 23C14 22.7348 13.8946 22.4804 13.7071 22.2929C13.5196 22.1054 13.2652 22 13 22Z" fill="#49536E"/>
<path d="M13 8H5C4.73478 8 4.48043 8.10536 4.29289 8.29289C4.10536 8.48043 4 8.73478 4 9C4 9.26522 4.10536 9.51957 4.29289 9.70711C4.48043 9.89464 4.73478 10 5 10H13C13.2652 10 13.5196 9.89464 13.7071 9.70711C13.8946 9.51957 14 9.26522 14 9C14 8.73478 13.8946 8.48043 13.7071 8.29289C13.5196 8.10536 13.2652 8 13 8Z" fill="#49536E"/>
<path d="M19 22.0125H27C27.2652 22.0125 27.5196 21.9071 27.7071 21.7196C27.8946 21.532 28 21.2777 28 21.0125C28 20.7472 27.8946 20.4929 27.7071 20.3053C27.5196 20.1178 27.2652 20.0125 27 20.0125H19C18.7348 20.0125 18.4804 20.1178 18.2929 20.3053C18.1054 20.4929 18 20.7472 18 21.0125C18 21.2777 18.1054 21.532 18.2929 21.7196C18.4804 21.9071 18.7348 22.0125 19 22.0125Z" fill="#49536E"/>
<path d="M27 23.9875H19C18.7348 23.9875 18.4804 24.0929 18.2929 24.2804C18.1054 24.468 18 24.7223 18 24.9875C18 25.2528 18.1054 25.5071 18.2929 25.6947C18.4804 25.8822 18.7348 25.9875 19 25.9875H27C27.2652 25.9875 27.5196 25.8822 27.7071 25.6947C27.8946 25.5071 28 25.2528 28 24.9875C28 24.7223 27.8946 24.468 27.7071 24.2804C27.5196 24.0929 27.2652 23.9875 27 23.9875Z" fill="#49536E"/>
<path d="M19.2873 12.7125C19.4784 12.8973 19.7339 13.0006 19.9998 13.0006C20.2656 13.0006 20.5211 12.8973 20.7123 12.7125L22.9998 10.4125L25.2873 12.7125C25.4784 12.8973 25.7339 13.0006 25.9998 13.0006C26.2656 13.0006 26.5211 12.8973 26.7123 12.7125C26.9 12.5229 27.0054 12.2668 27.0054 12C27.0054 11.7331 26.9 11.4771 26.7123 11.2875L24.4123 8.99996L26.7123 6.71246C26.8717 6.51817 26.9532 6.2715 26.9409 6.02045C26.9286 5.7694 26.8233 5.53191 26.6456 5.35417C26.4678 5.17644 26.2303 5.07117 25.9793 5.05884C25.7282 5.04651 25.4816 5.128 25.2873 5.28746L22.9998 7.58746L20.7123 5.28746C20.518 5.128 20.2713 5.04651 20.0203 5.05884C19.7692 5.07117 19.5317 5.17644 19.354 5.35417C19.1762 5.53191 19.071 5.7694 19.0586 6.02045C19.0463 6.2715 19.1278 6.51817 19.2873 6.71246L21.5873 8.99996L19.2873 11.2875C19.0995 11.4771 18.9941 11.7331 18.9941 12C18.9941 12.2668 19.0995 12.5229 19.2873 12.7125V12.7125Z" fill="#49536E"/>
</svg>
