<svg width="32" height="32" viewBox="0 0 32 32" fill="none" xmlns="http://www.w3.org/2000/svg">
<path d="M30.0002 14.9999C30.0002 13.4086 29.368 11.8825 28.2428 10.7573C27.1176 9.63206 25.5915 8.99992 24.0002 8.99992H19.0002C18.9377 8.99992 12.4502 8.91242 6.28767 3.73742C5.99556 3.49089 5.63855 3.33382 5.25943 3.28505C4.88032 3.23627 4.49518 3.29786 4.15017 3.46242C3.80317 3.6202 3.50963 3.87563 3.3054 4.1975C3.10118 4.51937 2.99512 4.89376 3.00017 5.27492V24.7249C2.99512 25.1061 3.10118 25.4805 3.3054 25.8023C3.50963 26.1242 3.80317 26.3796 4.15017 26.5374C4.41682 26.66 4.70668 26.724 5.00017 26.7249C5.47055 26.728 5.92676 26.5641 6.28767 26.2624C11.0252 22.2874 15.9377 21.3124 18.0002 21.0749V25.4624C17.999 25.7913 18.0795 26.1154 18.2343 26.4055C18.3892 26.6957 18.6137 26.9429 18.8877 27.1249L20.2627 28.0499C20.5334 28.2212 20.8397 28.3283 21.1582 28.3629C21.4767 28.3976 21.7989 28.359 22.1002 28.2499C22.3993 28.1337 22.6658 27.9468 22.8769 27.7052C23.0881 27.4635 23.2376 27.1744 23.3127 26.8624L24.8002 20.9499C26.2384 20.7511 27.5564 20.0397 28.5118 18.9465C29.4673 17.8532 29.9958 16.4518 30.0002 14.9999V14.9999ZM21.3752 26.3749L20.0002 25.4624V20.9999H22.7252L21.3752 26.3749ZM24.0002 18.9999H20.0002V10.9999H24.0002C25.061 10.9999 26.0785 11.4213 26.8286 12.1715C27.5787 12.9216 28.0002 13.939 28.0002 14.9999C28.0002 16.0608 27.5787 17.0782 26.8286 17.8283C26.0785 18.5785 25.061 18.9999 24.0002 18.9999Z" fill="#49536E"/>
</svg>
