<svg width="32" height="32" viewBox="0 0 32 32" fill="none" xmlns="http://www.w3.org/2000/svg">
<path d="M12.0004 11C11.998 11.3216 12.0147 11.643 12.0504 11.9625L2.70039 24.7125C2.41723 25.0982 2.2817 25.5726 2.31839 26.0496C2.35509 26.5266 2.56158 26.9747 2.90039 27.3125L4.68789 29.1C5.0257 29.4388 5.47378 29.6453 5.95082 29.682C6.42785 29.7187 6.90224 29.5832 7.28789 29.3L20.0379 19.95C20.3575 19.9857 20.6789 20.0024 21.0004 20C22.8374 20.0002 24.6304 19.4374 26.1379 18.3875C26.1973 18.3453 26.2468 18.2906 26.2828 18.2273C26.3189 18.1639 26.3406 18.0935 26.3466 18.0208C26.3525 17.9482 26.3425 17.8751 26.3173 17.8067C26.292 17.7384 26.2521 17.6764 26.2004 17.625L14.3754 5.80002C14.3241 5.74828 14.262 5.70839 14.1937 5.68314C14.1253 5.65789 14.0522 5.6479 13.9796 5.65385C13.907 5.6598 13.8365 5.68157 13.7732 5.71761C13.7098 5.75366 13.6551 5.80312 13.6129 5.86252C12.563 7.36998 12.0002 9.16297 12.0004 11V11ZM14.2129 19.2125L11.7129 21.7125C11.5218 21.8973 11.2663 22.0007 11.0004 22.0007C10.7345 22.0007 10.479 21.8973 10.2879 21.7125C10.1001 21.5229 9.99477 21.2669 9.99477 21C9.99477 20.7332 10.1001 20.4771 10.2879 20.2875L12.7879 17.7875C12.9822 17.6281 13.2289 17.5466 13.4799 17.5589C13.731 17.5712 13.9684 17.6765 14.1462 17.8542C14.3239 18.032 14.4292 18.2695 14.4415 18.5205C14.4538 18.7716 14.3724 19.0182 14.2129 19.2125V19.2125ZM29.9879 10.5C30.0984 12.5051 29.5352 14.4895 28.3879 16.1375C28.3457 16.1969 28.291 16.2464 28.2276 16.2824C28.1643 16.3185 28.0938 16.3402 28.0212 16.3462C27.9485 16.3522 27.8755 16.3422 27.8071 16.3169C27.7387 16.2917 27.6767 16.2518 27.6254 16.2L15.8004 4.37502C15.7487 4.32369 15.7088 4.26167 15.6835 4.1933C15.6583 4.12493 15.6483 4.05187 15.6542 3.97923C15.6602 3.90659 15.6819 3.83613 15.718 3.77279C15.754 3.70944 15.8035 3.65474 15.8629 3.61252C17.1777 2.69806 18.7126 2.151 20.3094 2.02778C21.9062 1.90456 23.5069 2.20965 24.9464 2.91157C26.3859 3.61348 27.612 4.6868 28.4983 6.02076C29.3845 7.35471 29.8987 8.90099 29.9879 10.5V10.5Z" fill="#49536E"/>
</svg>
