<svg width="32" height="32" viewBox="0 0 32 32" fill="none" xmlns="http://www.w3.org/2000/svg">
<path d="M26.7366 26.325L6.73656 4.32502C6.55589 4.13601 6.30838 4.02528 6.04706 4.01655C5.78574 4.00782 5.53139 4.10179 5.33851 4.27832C5.14564 4.45485 5.02957 4.6999 5.01519 4.96097C5.0008 5.22205 5.08924 5.47837 5.26156 5.67502L9.99906 10.8875V16C9.99934 17.0767 10.2893 18.1334 10.8386 19.0595C11.3879 19.9855 12.1762 20.7466 13.121 21.2631C14.0657 21.7795 15.1319 22.0323 16.208 21.9948C17.284 21.9573 18.3301 21.631 19.2366 21.05L20.5991 22.55C19.4621 23.3488 18.1367 23.8377 16.7534 23.9685C15.3701 24.0993 13.9765 23.8676 12.71 23.2962C11.4434 22.7247 10.3475 21.8332 9.53027 20.7095C8.713 19.5857 8.2025 18.2685 8.04906 16.8875C8.03428 16.757 7.99395 16.6307 7.93036 16.5158C7.86677 16.4009 7.78117 16.2996 7.67844 16.2178C7.57572 16.136 7.45788 16.0752 7.33166 16.0389C7.20544 16.0026 7.07331 15.9915 6.94281 16.0063C6.8123 16.021 6.68599 16.0614 6.57108 16.125C6.45616 16.1886 6.3549 16.2742 6.27307 16.3769C6.19124 16.4796 6.13044 16.5974 6.09415 16.7237C6.05786 16.8499 6.04678 16.982 6.06156 17.1125C6.31374 19.3864 7.33897 21.5048 8.96581 23.1135C10.5926 24.7221 12.7224 25.7234 14.9991 25.95V29C14.9991 29.2652 15.1044 29.5196 15.2919 29.7071C15.4795 29.8947 15.7338 30 15.9991 30C16.2643 30 16.5186 29.8947 16.7062 29.7071C16.8937 29.5196 16.9991 29.2652 16.9991 29V25.95C18.7924 25.7749 20.5038 25.1136 21.9491 24.0375L25.2616 27.675C25.3552 27.7774 25.4691 27.8592 25.5961 27.9151C25.7231 27.9711 25.8603 28 25.9991 28C26.2485 27.9976 26.4885 27.9042 26.6741 27.7375C26.7724 27.6498 26.8521 27.5433 26.9086 27.4242C26.9651 27.3052 26.9972 27.1761 27.003 27.0444C27.0089 26.9128 26.9883 26.7814 26.9425 26.6578C26.8967 26.5342 26.8267 26.4211 26.7366 26.325V26.325Z" fill="#49536E"/>
<path d="M20.2629 16.2251C20.3561 16.3281 20.4699 16.4102 20.597 16.4662C20.7241 16.5222 20.8615 16.5508 21.0004 16.5501C21.1242 16.5537 21.2475 16.5325 21.3629 16.4876C21.5516 16.4142 21.7135 16.2853 21.8274 16.1179C21.9412 15.9505 22.0015 15.7525 22.0004 15.5501V8.00007C22.0004 6.40877 21.3683 4.88265 20.2431 3.75743C19.1178 2.63221 17.5917 2.00007 16.0004 2.00007C14.9768 1.99518 13.9692 2.25503 13.0756 2.7544C12.182 3.25376 11.4327 3.97568 10.9004 4.85007C10.7845 5.0338 10.7315 5.2503 10.7495 5.46681C10.7676 5.68332 10.8557 5.88806 11.0004 6.05007L20.2629 16.2251Z" fill="#49536E"/>
<path d="M24.0253 20.2125C24.142 20.2524 24.2644 20.2735 24.3878 20.275C24.5889 20.2771 24.7857 20.217 24.9513 20.1028C25.1169 19.9887 25.2432 19.8262 25.3128 19.6375C25.632 18.8272 25.8421 17.9781 25.9378 17.1125C25.9676 16.8489 25.8915 16.5843 25.7263 16.3768C25.561 16.1694 25.3201 16.0361 25.0565 16.0062C24.926 15.9915 24.7939 16.0025 24.6677 16.0388C24.5415 16.0751 24.4236 16.1359 24.3209 16.2177C24.1134 16.383 23.9801 16.6239 23.9503 16.8875C23.8786 17.5824 23.7103 18.264 23.4503 18.9125C23.3562 19.1613 23.3637 19.4371 23.4713 19.6803C23.5789 19.9236 23.7779 20.1148 24.0253 20.2125V20.2125Z" fill="#49536E"/>
</svg>
