<svg width="32" height="32" viewBox="0 0 32 32" fill="none" xmlns="http://www.w3.org/2000/svg">
<path d="M16 22C17.5913 22 19.1174 21.3679 20.2426 20.2426C21.3679 19.1174 22 17.5913 22 16V8C22 6.4087 21.3679 4.88258 20.2426 3.75736C19.1174 2.63214 17.5913 2 16 2C14.4087 2 12.8826 2.63214 11.7574 3.75736C10.6321 4.88258 10 6.4087 10 8V16C10 17.5913 10.6321 19.1174 11.7574 20.2426C12.8826 21.3679 14.4087 22 16 22Z" fill="#49536E"/>
<path d="M25.0491 16.0125C24.7875 15.9843 24.5254 16.0603 24.3195 16.2241C24.1136 16.3879 23.9805 16.6262 23.9491 16.8875C23.7295 18.8423 22.7974 20.6477 21.3309 21.9587C19.8644 23.2697 17.9662 23.9944 15.9991 23.9944C14.032 23.9944 12.1339 23.2697 10.6674 21.9587C9.20082 20.6477 8.26872 18.8423 8.04913 16.8875C8.01776 16.6262 7.8847 16.3879 7.67879 16.2241C7.47288 16.0603 7.21072 15.9843 6.94913 16.0125C6.81802 16.0249 6.69071 16.0634 6.57471 16.1257C6.4587 16.1881 6.35634 16.273 6.27364 16.3755C6.19095 16.478 6.12959 16.596 6.09318 16.7226C6.05677 16.8491 6.04604 16.9817 6.06163 17.1125C6.31738 19.3814 7.34473 21.4936 8.9717 23.0955C10.5987 24.6974 12.7265 25.6919 14.9991 25.9125V29C14.9991 29.2652 15.1045 29.5195 15.292 29.7071C15.4796 29.8946 15.7339 30 15.9991 30C16.2643 30 16.5187 29.8946 16.7062 29.7071C16.8938 29.5195 16.9991 29.2652 16.9991 29V25.9125C19.2717 25.6919 21.3996 24.6974 23.0266 23.0955C24.6535 21.4936 25.6809 19.3814 25.9366 17.1125C25.9522 16.9817 25.9415 16.8491 25.9051 16.7226C25.8687 16.596 25.8073 16.478 25.7246 16.3755C25.6419 16.273 25.5396 16.1881 25.4236 16.1257C25.3075 16.0634 25.1802 16.0249 25.0491 16.0125Z" fill="#49536E"/>
</svg>
