<svg width="32" height="32" viewBox="0 0 32 32" fill="none" xmlns="http://www.w3.org/2000/svg">
<path d="M28.0389 18.7876C27.9744 18.5798 27.8448 18.3984 27.6692 18.2701C27.4936 18.1417 27.2814 18.0734 27.0639 18.0751L26.7889 18.1251C24.9985 18.6192 23.109 18.6297 21.3132 18.1552C19.5175 17.6808 17.8797 16.7386 16.567 15.4246C15.2543 14.1106 14.3136 12.4719 13.8409 10.6757C13.3682 8.87946 13.3805 6.99 13.8764 5.20007C13.9009 5.12757 13.9135 5.05159 13.9139 4.97507C13.9258 4.81375 13.8978 4.65198 13.8325 4.50399C13.7673 4.35599 13.6666 4.2263 13.5395 4.12631C13.4123 4.02632 13.2626 3.9591 13.1033 3.93054C12.9441 3.90199 12.7803 3.91299 12.6264 3.96257C10.5249 4.55159 8.61425 5.68057 7.08451 7.2372C5.55476 8.79383 4.45924 10.7238 3.90691 12.8353C3.35459 14.9467 3.3647 17.1659 3.93626 19.2723C4.50781 21.3786 5.62088 23.2985 7.16475 24.8411C8.70862 26.3837 10.6295 27.4953 12.7362 28.0651C14.843 28.6349 17.0623 28.6433 19.1732 28.0892C21.2842 27.5352 23.2133 26.4381 24.7687 24.9071C26.3241 23.3761 27.4515 21.4645 28.0389 19.3626C28.1017 19.1761 28.1017 18.9741 28.0389 18.7876V18.7876Z" fill="#49536E"/>
</svg>
