<svg width="33" height="32" viewBox="0 0 33 32" fill="none" xmlns="http://www.w3.org/2000/svg">
<path d="M18.5002 6.5C18.5002 5.90666 18.6761 5.32664 19.0058 4.83329C19.3354 4.33994 19.804 3.95543 20.3521 3.72836C20.9003 3.5013 21.5035 3.44189 22.0855 3.55765C22.6674 3.6734 23.202 3.95912 23.6215 4.37868C24.0411 4.79824 24.3268 5.33279 24.4425 5.91473C24.5583 6.49667 24.4989 7.09987 24.2718 7.64805C24.0448 8.19623 23.6602 8.66477 23.1669 8.99441C22.6735 9.32405 22.0935 9.5 21.5002 9.5C20.7056 9.49671 19.9444 9.17958 19.3825 8.61769C18.8206 8.05579 18.5035 7.29464 18.5002 6.5ZM32.8752 25.5C32.7857 25.6525 32.6578 25.7789 32.5043 25.8666C32.3508 25.9543 32.177 26.0003 32.0002 26H2.00019C1.82473 26.002 1.652 25.9566 1.5002 25.8686C1.3484 25.7806 1.22316 25.6532 1.13769 25.5C1.0463 25.3469 0.998047 25.172 0.998047 24.9938C0.998047 24.8155 1.0463 24.6406 1.13769 24.4875L10.2752 8.9625C10.4516 8.66175 10.7037 8.41236 11.0063 8.23907C11.3089 8.06578 11.6515 7.97462 12.0002 7.97462C12.3489 7.97462 12.6915 8.06578 12.9941 8.23907C13.2967 8.41236 13.5487 8.66175 13.7252 8.9625L19.0127 17.95L22.2752 12.4375C22.4541 12.1398 22.7069 11.8935 23.0092 11.7225C23.3115 11.5515 23.6529 11.4616 24.0002 11.4616C24.3475 11.4616 24.6889 11.5515 24.9911 11.7225C25.2934 11.8935 25.5463 12.1398 25.7252 12.4375L32.8627 24.4875C32.9511 24.6411 32.9987 24.8149 33.0008 24.9921C33.003 25.1694 32.9598 25.3442 32.8752 25.5V25.5ZM9.03769 15H14.9627L12.0002 9.975L9.03769 15Z" fill="#49536E"/>
</svg>
