<svg width="32" height="32" viewBox="0 0 32 32" fill="none" xmlns="http://www.w3.org/2000/svg">
<path d="M26.6125 3.21247C26.4946 3.11835 26.3566 3.05251 26.2093 3.02001C26.0619 2.98751 25.9091 2.9892 25.7625 3.02497L9.7625 7.02497C9.5444 7.07829 9.35059 7.20346 9.21228 7.38032C9.07396 7.55718 8.99919 7.77544 9 7.99997V21.7625C8.26279 21.2617 7.39122 20.9958 6.5 21C5.60999 21 4.73996 21.2639 3.99994 21.7584C3.25991 22.2528 2.68314 22.9556 2.34254 23.7779C2.00195 24.6002 1.91283 25.505 2.08647 26.3779C2.2601 27.2508 2.68868 28.0526 3.31802 28.6819C3.94736 29.3113 4.74918 29.7399 5.6221 29.9135C6.49501 30.0871 7.39981 29.998 8.22208 29.6574C9.04434 29.3168 9.74715 28.7401 10.2416 28C10.7361 27.26 11 26.39 11 25.5V8.77496L25 5.27497V17.7625C24.2628 17.2617 23.3912 16.9958 22.5 17C21.61 17 20.74 17.2639 19.9999 17.7584C19.2599 18.2528 18.6831 18.9556 18.3425 19.7779C18.002 20.6002 17.9128 21.505 18.0865 22.3779C18.2601 23.2508 18.6887 24.0526 19.318 24.6819C19.9474 25.3113 20.7492 25.7399 21.6221 25.9135C22.495 26.0871 23.3998 25.998 24.2221 25.6574C25.0443 25.3168 25.7471 24.7401 26.2416 24C26.7361 23.26 27 22.39 27 21.5V3.99996C27.0015 3.84755 26.9672 3.69691 26.8999 3.56015C26.8326 3.42338 26.7342 3.3043 26.6125 3.21247V3.21247Z" fill="#49536E"/>
</svg>
