<svg width="32" height="32" viewBox="0 0 32 32" fill="none" xmlns="http://www.w3.org/2000/svg">
<path d="M26.2875 7.03756L16.2875 4.03756C16.137 3.99515 15.9787 3.98774 15.8249 4.01591C15.6711 4.04407 15.5257 4.10706 15.4 4.20006C15.2765 4.29387 15.1762 4.41479 15.1069 4.5535C15.0375 4.6922 15.001 4.84499 15 5.00006V18.5376C13.9052 17.544 12.4785 16.9956 11 17.0001C9.81331 17.0001 8.65328 17.352 7.66658 18.0112C6.67989 18.6705 5.91085 19.6076 5.45673 20.704C5.0026 21.8003 4.88378 23.0067 5.11529 24.1706C5.3468 25.3345 5.91825 26.4036 6.75736 27.2427C7.59648 28.0818 8.66558 28.6533 9.82946 28.8848C10.9933 29.1163 12.1997 28.9975 13.2961 28.5433C14.3925 28.0892 15.3295 27.3202 15.9888 26.3335C16.6481 25.3468 17 24.1867 17 23.0001V12.3501L25.7125 14.9626C25.863 15.005 26.0213 15.0124 26.1751 14.9842C26.3289 14.956 26.4743 14.8931 26.6 14.8001C26.7235 14.7063 26.8238 14.5853 26.8931 14.4466C26.9625 14.3079 26.999 14.1551 27 14.0001V8.00006C26.999 7.78471 26.9294 7.57527 26.8013 7.40218C26.6732 7.22909 26.4932 7.10137 26.2875 7.03756V7.03756Z" fill="#49536E"/>
</svg>
