<svg width="32" height="32" viewBox="0 0 32 32" fill="none" xmlns="http://www.w3.org/2000/svg">
<path d="M27.4389 11.05L6.27642 3.72495C5.92081 3.59997 5.53711 3.57803 5.16957 3.66166C4.80203 3.74528 4.4656 3.93107 4.19907 4.1976C3.93253 4.46414 3.74675 4.80057 3.66312 5.16811C3.5795 5.53565 3.60144 5.91934 3.72642 6.27495L11.0514 27.4375C11.1833 27.8329 11.4369 28.1764 11.776 28.4189C12.115 28.6614 12.5221 28.7904 12.9389 28.7875H12.9764C13.3983 28.7884 13.8092 28.6524 14.1473 28.4C14.4853 28.1475 14.7324 27.7922 14.8514 27.3875L17.8014 17.8125L27.3764 14.85C27.7815 14.7296 28.1372 14.4826 28.3915 14.1451C28.6457 13.8076 28.785 13.3975 28.7889 12.975C28.7979 12.5522 28.6719 12.1376 28.4291 11.7914C28.1863 11.4452 27.8394 11.1855 27.4389 11.05V11.05Z" fill="#49536E"/>
</svg>
