<svg width="32" height="32" viewBox="0 0 32 32" fill="none" xmlns="http://www.w3.org/2000/svg">
<path d="M26.5373 5.46249C25.5978 4.52666 24.3258 4.00122 22.9998 4.00122C21.6737 4.00122 20.4017 4.52666 19.4623 5.46249L16.4623 8.46249C16.3181 8.60952 16.2221 8.79702 16.1873 8.99999C15.0873 15.4125 4.49977 26.0875 4.29977 26.2875H4.28727C4.09948 26.4771 3.99414 26.7331 3.99414 27C3.99414 27.2668 4.09948 27.5229 4.28727 27.7125C4.47841 27.8973 4.73388 28.0006 4.99977 28.0006C5.26565 28.0006 5.52113 27.8973 5.71227 27.7125V27.7125C5.81227 27.6 16.5623 16.9125 22.9998 15.8125C23.2027 15.7776 23.3902 15.6817 23.5373 15.5375L26.5373 12.5375C27.4731 11.598 27.9985 10.326 27.9985 8.99999C27.9985 7.67396 27.4731 6.40195 26.5373 5.46249V5.46249ZM23.7123 9.71249L21.7123 11.7125C21.5211 11.8973 21.2656 12.0006 20.9998 12.0006C20.7339 12.0006 20.4784 11.8973 20.2873 11.7125C20.0995 11.5229 19.9941 11.2668 19.9941 11C19.9941 10.7331 20.0995 10.4771 20.2873 10.2875L22.2873 8.28749C22.4816 8.12803 22.7282 8.04653 22.9793 8.05886C23.2303 8.07119 23.4678 8.17646 23.6456 8.3542C23.8233 8.53193 23.9286 8.76942 23.9409 9.02048C23.9532 9.27153 23.8717 9.51819 23.7123 9.71249V9.71249Z" fill="#49536E"/>
</svg>
