<svg width="32" height="32" viewBox="0 0 32 32" fill="none" xmlns="http://www.w3.org/2000/svg">
<path d="M16.4999 29.0001C16.2347 29.0001 15.9804 28.8947 15.7928 28.7072C15.6053 28.5196 15.4999 28.2653 15.4999 28.0001V5.87507L11.0499 8.82507C10.9408 8.89814 10.8183 8.949 10.6895 8.97472C10.5607 9.00045 10.4281 9.00055 10.2992 8.97501C10.1704 8.94947 10.0478 8.8988 9.93854 8.82589C9.82928 8.75297 9.73546 8.65925 9.66242 8.55007C9.51932 8.32715 9.46927 8.05703 9.52302 7.79765C9.57676 7.53826 9.73002 7.31027 9.94992 7.16257L15.9499 3.16257C16.1018 3.06608 16.2761 3.01073 16.4558 3.00196C16.6355 2.9932 16.8144 3.03131 16.9749 3.11257C17.1348 3.19886 17.2681 3.32707 17.3606 3.48343C17.4531 3.6398 17.5013 3.8184 17.4999 4.00007V28.0001C17.4999 28.2653 17.3946 28.5196 17.207 28.7072C17.0195 28.8947 16.7651 29.0001 16.4999 29.0001Z" fill="#49536E"/>
</svg>
