<svg width="32" height="32" viewBox="0 0 32 32" fill="none" xmlns="http://www.w3.org/2000/svg">
<path d="M20.6494 15.3376C21.3939 16.0806 21.9846 16.9633 22.3877 17.9349C22.7907 18.9066 22.9982 19.9481 22.9982 21.0001C22.9982 22.052 22.7907 23.0936 22.3877 24.0652C21.9846 25.0369 21.3939 25.9195 20.6494 26.6626C19.1395 28.1587 17.1 28.9981 14.9744 28.9981C12.8488 28.9981 10.8092 28.1587 9.29938 26.6626C9.19831 26.5725 9.1166 26.4628 9.05919 26.3402C9.00178 26.2175 8.96987 26.0845 8.96539 25.9492C8.96091 25.8139 8.98397 25.6791 9.03315 25.5529C9.08233 25.4268 9.15662 25.3119 9.25151 25.2153C9.3464 25.1187 9.45991 25.0424 9.58517 24.991C9.71043 24.9396 9.84483 24.9142 9.98021 24.9163C10.1156 24.9183 10.2491 24.9479 10.3728 25.0031C10.4964 25.0584 10.6075 25.1381 10.6994 25.2376C11.8332 26.3665 13.3681 27.0003 14.9681 27.0003C16.5682 27.0003 18.103 26.3665 19.2369 25.2376C20.0754 24.397 20.6457 23.3265 20.8756 22.1616C21.1055 20.9968 20.9846 19.7899 20.5282 18.6938C20.0718 17.5977 19.3005 16.6616 18.3118 16.0041C17.3232 15.3466 16.1617 14.9971 14.9744 15.0001C14.1809 14.9985 13.395 15.1534 12.6615 15.4558C11.9279 15.7582 11.2612 16.2023 10.6994 16.7626C10.5489 16.9103 10.3557 17.0067 10.1472 17.038C9.93866 17.0692 9.72561 17.0338 9.53844 16.9368C9.35127 16.8397 9.19956 16.686 9.10499 16.4976C9.01043 16.3091 8.97784 16.0956 9.01188 15.8876L10.9744 3.83757C11.0105 3.60244 11.1303 3.38825 11.3117 3.23438C11.4931 3.08051 11.724 2.99731 11.9619 3.00007H21.9994C22.2646 3.00007 22.5189 3.10542 22.7065 3.29296C22.894 3.4805 22.9994 3.73485 22.9994 4.00007C22.9994 4.26528 22.894 4.51964 22.7065 4.70717C22.5189 4.89471 22.2646 5.00007 21.9994 5.00007H12.8119L11.3744 13.8501C12.4899 13.2849 13.7239 12.9936 14.9744 13.0001C17.1005 12.9992 19.1406 13.8395 20.6494 15.3376V15.3376Z" fill="#49536E"/>
</svg>
