<svg width="32" height="32" viewBox="0 0 32 32" fill="none" xmlns="http://www.w3.org/2000/svg">
<path d="M22.5009 12.0001V28.0001C22.5009 28.2653 22.3956 28.5196 22.208 28.7072C22.0205 28.8947 21.7662 29.0001 21.5009 29.0001C21.2357 29.0001 20.9814 28.8947 20.7938 28.7072C20.6063 28.5196 20.5009 28.2653 20.5009 28.0001V21.0001H9.50094C9.34143 20.9992 9.18445 20.9601 9.04311 20.8862C8.90176 20.8122 8.78016 20.7056 8.68844 20.5751C8.59503 20.4446 8.53482 20.2933 8.51304 20.1343C8.49126 19.9753 8.50856 19.8134 8.56344 19.6626L14.5634 2.66257C14.668 2.43488 14.8542 2.25473 15.0852 2.15776C15.3162 2.0608 15.5752 2.05408 15.8109 2.13895C16.0467 2.22381 16.242 2.39407 16.3582 2.61603C16.4744 2.83799 16.503 3.09549 16.4384 3.33757L10.9134 19.0001H20.5009V12.0001C20.5009 11.7349 20.6063 11.4805 20.7938 11.293C20.9814 11.1054 21.2357 11.0001 21.5009 11.0001C21.7662 11.0001 22.0205 11.1054 22.208 11.293C22.3956 11.4805 22.5009 11.7349 22.5009 12.0001V12.0001Z" fill="#49536E"/>
</svg>
