<svg width="32" height="32" viewBox="0 0 32 32" fill="none" xmlns="http://www.w3.org/2000/svg">
<path d="M21.9868 16.25C21.3764 15.6778 20.6858 15.1978 19.9368 14.825C20.3804 14.5606 20.7951 14.2506 21.1743 13.9C21.8606 13.2723 22.4087 12.5085 22.7836 11.6574C23.1586 10.8062 23.3522 9.88635 23.3522 8.95627C23.3522 8.0262 23.1586 7.10631 22.7836 6.25517C22.4087 5.40402 21.8606 4.64027 21.1743 4.01252C19.7615 2.71865 17.9151 2.00098 15.9993 2.00098C14.0835 2.00098 12.2372 2.71865 10.8243 4.01252C10.1381 4.64027 9.58999 5.40402 9.21503 6.25517C8.84007 7.10631 8.64642 8.0262 8.64642 8.95627C8.64642 9.88635 8.84007 10.8062 9.21503 11.6574C9.58999 12.5085 10.1381 13.2723 10.8243 13.9C11.2035 14.2506 11.6183 14.5606 12.0618 14.825C11.3128 15.1978 10.6222 15.6778 10.0118 16.25C9.22026 16.9749 8.58818 17.8566 8.15575 18.839C7.72331 19.8213 7.5 20.8829 7.5 21.9563C7.5 23.0296 7.72331 24.0912 8.15575 25.0736C8.58818 26.056 9.22026 26.9376 10.0118 27.6625C11.6435 29.1656 13.7809 29.9999 15.9993 29.9999C18.2178 29.9999 20.3551 29.1656 21.9868 27.6625C22.7784 26.9376 23.4105 26.056 23.8429 25.0736C24.2753 24.0912 24.4987 23.0296 24.4987 21.9563C24.4987 20.8829 24.2753 19.8213 23.8429 18.839C23.4105 17.8566 22.7784 16.9749 21.9868 16.25V16.25ZM12.1993 12.4375C11.7119 11.998 11.3222 11.461 11.0554 10.8613C10.7887 10.2616 10.6509 9.61261 10.6509 8.95627C10.6509 8.29994 10.7887 7.65091 11.0554 7.05122C11.3222 6.45153 11.7119 5.91455 12.1993 5.47502C13.238 4.52726 14.5933 4.00182 15.9993 4.00182C17.4054 4.00182 18.7607 4.52726 19.7993 5.47502C20.2868 5.91455 20.6765 6.45153 20.9432 7.05122C21.21 7.65091 21.3478 8.29994 21.3478 8.95627C21.3478 9.61261 21.21 10.2616 20.9432 10.8613C20.6765 11.461 20.2868 11.998 19.7993 12.4375C18.7607 13.3853 17.4054 13.9107 15.9993 13.9107C14.5933 13.9107 13.238 13.3853 12.1993 12.4375ZM20.6243 26.2125C19.3588 27.3632 17.7098 28.0008 15.9993 28.0008C14.2889 28.0008 12.6399 27.3632 11.3743 26.2125C10.783 25.6737 10.3107 25.0174 9.98746 24.2855C9.66425 23.5537 9.49731 22.7625 9.49731 21.9625C9.49731 21.1625 9.66425 20.3713 9.98746 19.6395C10.3107 18.9077 10.783 18.2514 11.3743 17.7125C12.6359 16.5539 14.2864 15.911 15.9993 15.911C17.7122 15.911 19.3627 16.5539 20.6243 17.7125C21.2156 18.2514 21.688 18.9077 22.0112 19.6395C22.3344 20.3713 22.5013 21.1625 22.5013 21.9625C22.5013 22.7625 22.3344 23.5537 22.0112 24.2855C21.688 25.0174 21.2156 25.6737 20.6243 26.2125V26.2125Z" fill="#49536E"/>
</svg>
