<svg width="32" height="32" viewBox="0 0 32 32" fill="none" xmlns="http://www.w3.org/2000/svg">
<path d="M27.4875 8.33758L16.9875 2.41258C16.6869 2.24046 16.3464 2.1499 16 2.1499C15.6536 2.1499 15.3131 2.24046 15.0125 2.41258L4.5125 8.33758C4.2052 8.515 3.94992 8.77005 3.77222 9.07718C3.59452 9.38432 3.50065 9.73275 3.5 10.0876V21.9126C3.50065 22.2674 3.59452 22.6159 3.77222 22.923C3.94992 23.2301 4.2052 23.4852 4.5125 23.6626L15.0125 29.5876C15.3131 29.7597 15.6536 29.8503 16 29.8503C16.3464 29.8503 16.6869 29.7597 16.9875 29.5876L27.4875 23.6626C27.7948 23.4852 28.0501 23.2301 28.2278 22.923C28.4055 22.6159 28.4994 22.2674 28.5 21.9126V10.0876C28.4994 9.73275 28.4055 9.38432 28.2278 9.07718C28.0501 8.77005 27.7948 8.515 27.4875 8.33758V8.33758ZM16 20.5001C15.11 20.5001 14.24 20.2362 13.4999 19.7417C12.7599 19.2472 12.1831 18.5444 11.8425 17.7222C11.5019 16.8999 11.4128 15.9951 11.5865 15.1222C11.7601 14.2493 12.1887 13.4474 12.818 12.8181C13.4474 12.1888 14.2492 11.7602 15.1221 11.5865C15.995 11.4129 16.8998 11.502 17.7221 11.8426C18.5443 12.1832 19.2471 12.76 19.7416 13.5C20.2361 14.24 20.5 15.1101 20.5 16.0001C20.5 17.1936 20.0259 18.3382 19.182 19.1821C18.3381 20.026 17.1935 20.5001 16 20.5001V20.5001Z" fill="#49536E"/>
</svg>
