<svg width="32" height="32" viewBox="0 0 32 32" fill="none" xmlns="http://www.w3.org/2000/svg">
<path d="M22.9877 18.5C22.9877 18.7967 22.8998 19.0867 22.7349 19.3334C22.5701 19.58 22.3359 19.7723 22.0618 19.8858C21.7877 19.9994 21.4861 20.0291 21.1951 19.9712C20.9041 19.9133 20.6369 19.7705 20.4271 19.5607C20.2173 19.3509 20.0744 19.0836 20.0166 18.7927C19.9587 18.5017 19.9884 18.2001 20.1019 17.926C20.2155 17.6519 20.4077 17.4176 20.6544 17.2528C20.9011 17.088 21.1911 17 21.4877 17C21.8856 17 22.2671 17.1581 22.5484 17.4394C22.8297 17.7207 22.9877 18.1022 22.9877 18.5V18.5ZM26.6627 20.6625C26.0746 23.0472 24.7027 25.1653 22.767 26.6772C20.8312 28.1891 18.4439 29.0071 15.9877 29C14.5004 29.0041 13.0282 28.702 11.6627 28.1125L11.5127 28.05C9.78861 27.277 8.29151 26.0747 7.16448 24.5582C6.03744 23.0416 5.31812 21.2613 5.07524 19.3875V19.3875C5.02079 18.9311 4.99158 18.4721 4.98774 18.0125C4.9822 15.8919 5.59466 13.8156 6.75024 12.0375C5.83754 11.5883 5.10395 10.8432 4.66913 9.92352C4.23431 9.00388 4.1239 7.96405 4.35592 6.97361C4.58794 5.98318 5.1487 5.10057 5.94673 4.46975C6.74477 3.83892 7.73299 3.4971 8.75024 3.50002C8.90153 3.50182 9.05069 3.53592 9.18774 3.60002L23.4627 10.4875C24.0982 10.4244 24.6854 10.1204 25.1039 9.63802C25.5224 9.15563 25.7404 8.53139 25.7132 7.89336C25.686 7.25533 25.4157 6.65189 24.9577 6.20685C24.4997 5.7618 23.8888 5.5089 23.2502 5.50002C22.985 5.50002 22.7307 5.39466 22.5431 5.20713C22.3556 5.01959 22.2502 4.76524 22.2502 4.50002C22.2502 4.2348 22.3556 3.98045 22.5431 3.79291C22.7307 3.60538 22.985 3.50002 23.2502 3.50002C24.4437 3.50002 25.5883 3.97412 26.4322 4.81804C27.2761 5.66195 27.7502 6.80654 27.7502 8.00002C27.7502 9.19349 27.2761 10.3381 26.4322 11.182C25.5883 12.0259 24.4437 12.5 23.2502 12.5C23.099 12.4982 22.9498 12.4641 22.8127 12.4L15.7877 9.00002C13.496 9.05555 11.3116 9.98228 9.67906 11.5916C8.04652 13.2009 7.08859 15.3718 7.00024 17.6625L11.5127 15.25L15.5252 13.1125C15.6777 13.033 15.8481 12.9941 16.02 12.9997C16.1919 13.0052 16.3595 13.055 16.5065 13.1442C16.6536 13.2335 16.7751 13.3591 16.8594 13.509C16.9437 13.6589 16.9879 13.828 16.9877 14V26.9375C18.8153 26.7398 20.5379 25.985 21.9219 24.7753C23.306 23.5657 24.2847 21.9597 24.7252 20.175C24.7994 19.9287 24.9657 19.7204 25.1894 19.5935C25.4132 19.4666 25.6773 19.4308 25.9268 19.4935C26.1763 19.5563 26.392 19.7128 26.529 19.9305C26.6661 20.1482 26.714 20.4104 26.6627 20.6625V20.6625ZM14.9877 15.6625L12.9877 16.7375V26.4875C13.6349 26.7137 14.306 26.8647 14.9877 26.9375V15.6625ZM8.05024 10.4C9.3266 9.06032 10.9223 8.06676 12.6877 7.51252L8.53774 5.51252C7.95813 5.56409 7.41466 5.81624 7.001 6.22551C6.58734 6.63477 6.3294 7.17552 6.27165 7.75455C6.21389 8.33358 6.35994 8.91462 6.6846 9.39754C7.00927 9.88045 7.49223 10.235 8.05024 10.4V10.4ZM10.9877 25.475V17.8L7.17524 19.8375C7.66046 22.1427 9.02897 24.1663 10.9877 25.475V25.475Z" fill="#49536E"/>
</svg>
