<svg width="32" height="32" viewBox="0 0 32 32" fill="none" xmlns="http://www.w3.org/2000/svg">
<path d="M28.1259 2.875C25.4634 2.875 22.4634 4.35 19.2384 7.2375C16.9759 9.2625 15.0384 11.575 13.7009 13.325C12.579 12.9835 11.3928 12.9094 10.2372 13.1087C9.08158 13.3079 7.98863 13.7748 7.04585 14.4722C6.10306 15.1696 5.33663 16.078 4.80788 17.1247C4.27914 18.1714 4.00277 19.3273 4.00091 20.5C4.00091 24.4 1.97591 26.1375 1.87591 26.225C1.71306 26.3508 1.59483 26.5256 1.53859 26.7236C1.48235 26.9215 1.49104 27.1323 1.56341 27.325C1.62734 27.5227 1.75278 27.6949 1.92142 27.8163C2.09007 27.9377 2.2931 28.0021 2.50091 28H11.5009C12.6736 27.9981 13.8295 27.7218 14.8762 27.193C15.9229 26.6643 16.8313 25.8978 17.5287 24.9551C18.2261 24.0123 18.693 22.9193 18.8923 21.7637C19.0915 20.6081 19.0174 19.4219 18.6759 18.3C20.4259 16.9625 22.7384 15.025 24.7634 12.7625C27.6509 9.5375 29.1259 6.5375 29.1259 3.875C29.1259 3.60978 29.0205 3.35543 28.833 3.16789C28.6455 2.98036 28.3911 2.875 28.1259 2.875V2.875ZM15.5509 14.2C15.9134 13.7375 16.3384 13.2125 16.8259 12.6375C17.8264 13.313 18.6879 14.1745 19.3634 15.175C18.7884 15.6625 18.2634 16.0875 17.8009 16.45C17.2223 15.5462 16.4547 14.7786 15.5509 14.2V14.2ZM20.8759 13.8375C20.128 12.7895 19.2114 11.8729 18.1634 11.125C20.6134 8.475 23.9134 5.575 27.0134 4.9875C26.4259 8.0875 23.5259 11.3875 20.8759 13.8375V13.8375Z" fill="#49536E"/>
</svg>
