<svg width="32" height="32" viewBox="0 0 32 32" fill="none" xmlns="http://www.w3.org/2000/svg">
<path d="M25.0987 6.7375C22.6766 4.34086 19.4061 2.99762 15.9987 3H15.8612C12.8039 3.0299 9.85499 4.1364 7.53268 6.12505C5.21037 8.1137 3.66328 10.8572 3.16331 13.8735C2.66333 16.8898 3.24246 19.9858 4.79892 22.6174C6.35539 25.249 8.78958 27.2478 11.6737 28.2625C12.2769 28.4743 12.922 28.5384 13.555 28.4495C14.188 28.3606 14.7905 28.1212 15.312 27.7515C15.8335 27.3818 16.2588 26.8925 16.5523 26.3246C16.8458 25.7567 16.9988 25.1267 16.9987 24.4875V24C16.9987 23.4696 17.2094 22.9609 17.5845 22.5858C17.9596 22.2107 18.4683 22 18.9987 22H24.7737C25.682 22.0068 26.5652 21.7013 27.2751 21.1347C27.9851 20.5681 28.4789 19.7747 28.6737 18.8875C28.901 17.904 29.0101 16.8969 28.9987 15.8875C28.9886 14.1798 28.6385 12.4912 27.9689 10.9203C27.2993 9.3493 26.3236 7.9274 25.0987 6.7375V6.7375ZM11.1237 20.55C10.8667 20.6981 10.5716 20.7666 10.2756 20.747C9.97968 20.7274 9.69618 20.6205 9.46098 20.4398C9.22578 20.2591 9.04943 20.0127 8.95422 19.7318C8.85901 19.4509 8.84921 19.1481 8.92607 18.8616C9.00293 18.5751 9.16299 18.3179 9.38602 18.1224C9.60905 17.9268 9.88505 17.8018 10.1791 17.7631C10.4732 17.7244 10.7721 17.7738 11.0381 17.9049C11.3042 18.0361 11.5253 18.2432 11.6737 18.5C11.7723 18.6707 11.8363 18.8591 11.862 19.0546C11.8877 19.25 11.8747 19.4486 11.8236 19.639C11.7725 19.8294 11.6844 20.0078 11.5643 20.1642C11.4442 20.3205 11.2945 20.4516 11.1237 20.55ZM11.6737 13.5C11.5253 13.7568 11.3042 13.9639 11.0381 14.0951C10.7721 14.2262 10.4732 14.2756 10.1791 14.2369C9.88505 14.1982 9.60905 14.0732 9.38602 13.8776C9.16299 13.6821 9.00293 13.4249 8.92607 13.1384C8.84921 12.8519 8.85901 12.5491 8.95422 12.2682C9.04943 11.9873 9.22578 11.7409 9.46098 11.5602C9.69618 11.3795 9.97968 11.2726 10.2756 11.253C10.5716 11.2334 10.8667 11.3019 11.1237 11.45C11.4661 11.6511 11.7158 11.9788 11.8187 12.3623C11.9216 12.7459 11.8695 13.1545 11.6737 13.5V13.5ZM15.9987 11C15.702 11 15.412 10.912 15.1653 10.7472C14.9187 10.5824 14.7264 10.3481 14.6129 10.074C14.4993 9.79994 14.4696 9.49834 14.5275 9.20737C14.5854 8.9164 14.7283 8.64912 14.938 8.43934C15.1478 8.22956 15.4151 8.0867 15.7061 8.02883C15.997 7.97095 16.2986 8.00065 16.5727 8.11418C16.8468 8.22772 17.0811 8.41997 17.2459 8.66665C17.4107 8.91332 17.4987 9.20333 17.4987 9.5C17.4987 9.89783 17.3407 10.2794 17.0594 10.5607C16.7781 10.842 16.3965 11 15.9987 11ZM22.3737 14.05C22.1167 14.1981 21.8216 14.2666 21.5256 14.247C21.2297 14.2274 20.9462 14.1205 20.711 13.9398C20.4758 13.7591 20.2994 13.5127 20.2042 13.2318C20.109 12.9509 20.0992 12.6481 20.1761 12.3616C20.2529 12.0751 20.413 11.8179 20.636 11.6224C20.8591 11.4268 21.135 11.3018 21.4291 11.2631C21.7232 11.2244 22.0221 11.2738 22.2881 11.4049C22.5542 11.5361 22.7753 11.7432 22.9237 12C23.1195 12.3455 23.1716 12.7541 23.0687 13.1377C22.9658 13.5212 22.7161 13.8489 22.3737 14.05V14.05Z" fill="#49536E"/>
</svg>
