<svg width="32" height="32" viewBox="0 0 32 32" fill="none" xmlns="http://www.w3.org/2000/svg">
<path d="M23.9996 23H5.74961C3.04961 23 0.849609 20.7625 0.849609 18C0.849609 15.2375 3.04961 13 5.74961 13H23.7496C24.5453 13 25.3083 13.3161 25.8709 13.8787C26.4335 14.4413 26.7496 15.2044 26.7496 16C26.7496 16.7956 26.4335 17.5587 25.8709 18.1213C25.3083 18.6839 24.5453 19 23.7496 19H9.74961C9.48439 19 9.23004 18.8946 9.0425 18.7071C8.85497 18.5196 8.74961 18.2652 8.74961 18C8.74961 17.7348 8.85497 17.4804 9.0425 17.2929C9.23004 17.1054 9.48439 17 9.74961 17H23.7496C24.0148 17 24.2692 16.8946 24.4567 16.7071C24.6443 16.5196 24.7496 16.2652 24.7496 16C24.7496 15.7348 24.6443 15.4804 24.4567 15.2929C24.2692 15.1054 24.0148 15 23.7496 15H5.74961C4.14961 15 2.84961 16.35 2.84961 18C2.84961 19.65 4.14961 21 5.74961 21H23.9996C25.3257 21 26.5975 20.4732 27.5351 19.5355C28.4728 18.5979 28.9996 17.3261 28.9996 16C28.9996 14.6739 28.4728 13.4021 27.5351 12.4645C26.5975 11.5268 25.3257 11 23.9996 11H9.99961C9.73439 11 9.48004 10.8946 9.2925 10.7071C9.10497 10.5196 8.99961 10.2652 8.99961 10C8.99961 9.73478 9.10497 9.48043 9.2925 9.29289C9.48004 9.10536 9.73439 9 9.99961 9H23.9996C25.8561 9 27.6366 9.7375 28.9494 11.0503C30.2621 12.363 30.9996 14.1435 30.9996 16C30.9996 17.8565 30.2621 19.637 28.9494 20.9497C27.6366 22.2625 25.8561 23 23.9996 23Z" fill="#49536E"/>
</svg>
