<svg width="32" height="32" viewBox="0 0 32 32" fill="none" xmlns="http://www.w3.org/2000/svg">
<path d="M27.926 14.25L6.86345 2.46247C6.51251 2.25781 6.10839 2.16275 5.70301 2.18947C5.29763 2.2162 4.90949 2.36351 4.58845 2.61247C4.26059 2.87115 4.02254 3.22655 3.9081 3.62819C3.79366 4.02984 3.80866 4.45733 3.95095 4.84997L7.46345 14.6625C7.49899 14.7603 7.56347 14.845 7.64832 14.9053C7.73317 14.9656 7.83437 14.9986 7.93845 15H16.9635C17.2229 14.9959 17.4743 15.0903 17.6669 15.2643C17.8594 15.4383 17.9788 15.6789 18.001 15.9375C18.0095 16.074 17.99 16.2107 17.9435 16.3394C17.8971 16.468 17.8248 16.5858 17.7311 16.6853C17.6374 16.7849 17.5242 16.8642 17.3986 16.9183C17.2731 16.9725 17.1377 17.0002 17.001 17H7.93845C7.83437 17.0013 7.73317 17.0344 7.64832 17.0946C7.56347 17.1549 7.49899 17.2396 7.46345 17.3375L3.95095 27.15C3.84556 27.4523 3.8138 27.7753 3.85832 28.0924C3.90283 28.4094 4.02234 28.7112 4.20691 28.9728C4.39148 29.2344 4.63578 29.4481 4.91954 29.5963C5.2033 29.7446 5.51832 29.8229 5.83845 29.825C6.17911 29.8234 6.51409 29.7375 6.81345 29.575L27.926 17.75C28.2353 17.5743 28.4925 17.3198 28.6714 17.0124C28.8504 16.705 28.9446 16.3557 28.9446 16C28.9446 15.6443 28.8504 15.2949 28.6714 14.9875C28.4925 14.6801 28.2353 14.4256 27.926 14.25V14.25Z" fill="#49536E"/>
</svg>
