<svg width="32" height="32" viewBox="0 0 32 32" fill="none" xmlns="http://www.w3.org/2000/svg">
<path d="M28.463 6.03751L21.913 29.275C21.8038 29.6685 21.576 30.0188 21.2607 30.2782C20.9453 30.5377 20.5577 30.6937 20.1505 30.725H19.9755C19.5988 30.7242 19.23 30.6169 18.9116 30.4157C18.5931 30.2145 18.338 29.9274 18.1755 29.5875L13.713 20.1625C13.6692 20.0679 13.6553 19.9621 13.6732 19.8594C13.6911 19.7566 13.7398 19.6618 13.813 19.5875L20.2255 13.175C20.3259 13.084 20.4068 12.9736 20.4632 12.8505C20.5196 12.7273 20.5504 12.594 20.5538 12.4586C20.5571 12.3231 20.5329 12.1885 20.4826 12.0627C20.4323 11.9369 20.357 11.8226 20.2612 11.7269C20.1654 11.6311 20.0511 11.5557 19.9254 11.5054C19.7996 11.4551 19.6649 11.4309 19.5295 11.4343C19.394 11.4376 19.2607 11.4684 19.1376 11.5248C19.0144 11.5813 18.904 11.6621 18.813 11.7625L12.4005 18.1875C12.3262 18.2607 12.2314 18.3095 12.1287 18.3273C12.0259 18.3452 11.9202 18.3313 11.8255 18.2875L2.45053 13.85C2.0836 13.6767 1.77554 13.3996 1.56448 13.053C1.35341 12.7064 1.24861 12.3055 1.26303 11.9C1.28516 11.4825 1.43841 11.0825 1.70099 10.7571C1.96356 10.4317 2.32208 10.1974 2.72553 10.0875L26.013 3.52501C26.4203 3.40869 26.8541 3.42469 27.2517 3.57071C27.6493 3.71673 27.9903 3.98523 28.2255 4.33751C28.3834 4.58784 28.4862 4.86888 28.5271 5.16197C28.568 5.45505 28.5462 5.7535 28.463 6.03751Z" fill="#49536E"/>
</svg>
