<svg width="32" height="32" viewBox="0 0 32 32" fill="none" xmlns="http://www.w3.org/2000/svg">
<path d="M26.2129 15.2873C26.399 15.4786 26.5021 15.7355 26.4997 16.0024C26.4974 16.2692 26.3898 16.5244 26.2004 16.7123L15.9504 26.9498C14.6375 28.2626 12.857 29.0002 11.0004 29.0002C9.14375 29.0002 7.36318 28.2626 6.05036 26.9498C4.73754 25.637 4 23.8564 4 21.9998C4 20.1432 4.73754 18.3626 6.05036 17.0498L18.4629 4.47482C18.9221 3.99059 19.4736 3.60319 20.085 3.33547C20.6963 3.06775 21.355 2.92512 22.0223 2.916C22.6897 2.90687 23.3521 3.03142 23.9705 3.28232C24.5889 3.53322 25.1508 3.90538 25.6231 4.37687C26.0955 4.84836 26.4686 5.40963 26.7206 6.02761C26.9726 6.64558 27.0983 7.30775 27.0904 7.97508C27.0824 8.64241 26.941 9.30139 26.6743 9.91319C26.4077 10.525 26.0213 11.0772 25.5379 11.5373L13.1254 24.1123C12.8479 24.394 12.5171 24.6176 12.1522 24.77C11.7873 24.9224 11.3958 25.0005 11.0004 24.9998C10.4059 25.0013 9.82449 24.8261 9.32979 24.4966C8.83508 24.167 8.44943 23.698 8.22176 23.1489C7.99409 22.5998 7.93466 21.9954 8.05103 21.4125C8.1674 20.8296 8.45431 20.2944 8.87536 19.8748L19.2879 9.29982C19.378 9.19876 19.4876 9.11704 19.6103 9.05963C19.7329 9.00222 19.8659 8.97031 20.0012 8.96583C20.1366 8.96136 20.2714 8.98441 20.3975 9.03359C20.5237 9.08277 20.6385 9.15706 20.7351 9.25195C20.8317 9.34684 20.908 9.46036 20.9594 9.58562C21.0108 9.71087 21.0362 9.84527 21.0342 9.98065C21.0321 10.116 21.0025 10.2496 20.9473 10.3732C20.8921 10.4968 20.8123 10.6079 20.7129 10.6998L10.3004 21.2873C10.2056 21.3802 10.1302 21.4911 10.0787 21.6134C10.0272 21.7357 10.0006 21.8671 10.0004 21.9998C10.004 22.1966 10.0649 22.388 10.1757 22.5506C10.2864 22.7133 10.4421 22.8402 10.6237 22.9158C10.8054 22.9913 11.0052 23.0124 11.1986 22.9762C11.392 22.9401 11.5707 22.8484 11.7129 22.7123L24.1129 10.1248C24.3946 9.84737 24.6182 9.51654 24.7706 9.15168C24.9229 8.78681 25.0011 8.39523 25.0004 7.99982C25.0018 7.40541 24.8267 6.82395 24.4971 6.32925C24.1676 5.83455 23.6985 5.44889 23.1494 5.22122C22.6003 4.99355 21.996 4.93413 21.4131 5.05049C20.8301 5.16686 20.2949 5.45377 19.8754 5.87482L7.47536 18.4623C6.99112 18.9216 6.60373 19.4731 6.33601 20.0844C6.06829 20.6958 5.92566 21.3545 5.91653 22.0218C5.9074 22.6891 6.03196 23.3515 6.28286 23.9699C6.53375 24.5884 6.90592 25.1503 7.37741 25.6226C7.84889 26.0949 8.41017 26.4681 9.02814 26.7201C9.64612 26.9721 10.3083 27.0978 10.9756 27.0898C11.6429 27.0819 12.3019 26.9404 12.9137 26.6738C13.5255 26.4072 14.0778 26.0207 14.5379 25.5373L24.7879 15.2873C24.9775 15.0995 25.2335 14.9942 25.5004 14.9942C25.7672 14.9942 26.0233 15.0995 26.2129 15.2873V15.2873Z" fill="#49536E"/>
</svg>
