<svg width="32" height="32" viewBox="0 0 32 32" fill="none" xmlns="http://www.w3.org/2000/svg">
<path d="M25.1881 6.81261C23.9828 5.60393 22.5508 4.64496 20.9743 3.99064C19.3977 3.33632 17.7075 2.99951 16.0006 2.99951C14.2936 2.99951 12.6035 3.33632 11.0269 3.99064C9.45036 4.64496 8.01841 5.60393 6.8131 6.81261C5.60442 8.01792 4.64545 9.44987 3.99113 11.0264C3.33681 12.603 3 14.2932 3 16.0001C3 17.7071 3.33681 19.3972 3.99113 20.9738C4.64545 22.5503 5.60442 23.9823 6.8131 25.1876C8.01841 26.3963 9.45036 27.3553 11.0269 28.0096C12.6035 28.6639 14.2936 29.0007 16.0006 29.0007C17.7075 29.0007 19.3977 28.6639 20.9743 28.0096C22.5508 27.3553 23.9828 26.3963 25.1881 25.1876C26.3968 23.9823 27.3557 22.5503 28.0101 20.9738C28.6644 19.3972 29.0012 17.7071 29.0012 16.0001C29.0012 14.2932 28.6644 12.603 28.0101 11.0264C27.3557 9.44987 26.3968 8.01792 25.1881 6.81261V6.81261ZM16.0006 21.3626C15.5095 20.8013 14.8708 20.3889 14.1571 20.1723C13.4434 19.9558 12.6833 19.9438 11.9631 20.1376L13.8756 16.0001H18.1256L20.0381 20.1376C19.3179 19.9438 18.5578 19.9558 17.8441 20.1723C17.1303 20.3889 16.4917 20.8013 16.0006 21.3626V21.3626ZM21.0006 25.8001C19.7515 26.4317 18.3944 26.8218 17.0006 26.9501V24.0001C17.0006 23.4697 17.2113 22.961 17.5864 22.5859C17.9615 22.2108 18.4702 22.0001 19.0006 22.0001C19.531 22.0001 20.0397 22.2108 20.4148 22.5859C20.7899 22.961 21.0006 23.4697 21.0006 24.0001V25.8001ZM23.7756 23.7751C23.5256 24.0251 23.2631 24.2626 23.0006 24.4876V22.0001C22.997 21.8544 22.9673 21.7104 22.9131 21.5751L16.9131 8.57511H16.9006C16.8846 8.53513 16.8636 8.49733 16.8381 8.46261C16.8381 8.45011 16.8381 8.45011 16.8256 8.43761L16.7631 8.35011H16.7506C16.7247 8.31788 16.6953 8.28854 16.6631 8.26261H16.6381L16.5506 8.18761H16.5256L16.4256 8.12511H16.4131L16.3006 8.08761H16.2631L16.1506 8.06261H15.8506L15.7256 8.08761H15.7006L15.6006 8.12511H15.5756L15.4631 8.17511H15.4506L15.3631 8.25011H15.3381L15.2506 8.33761H15.2381L15.1756 8.42511L15.1506 8.45011C15.1346 8.49009 15.1136 8.52788 15.0881 8.56261L12.3256 14.5626L9.0881 21.5751C9.03387 21.7104 9.00424 21.8544 9.0006 22.0001V24.4876C8.7381 24.2626 8.4756 24.0251 8.2256 23.7751C6.68632 22.2371 5.63778 20.2771 5.21262 18.1431C4.78745 16.009 5.00476 13.7968 5.83706 11.7863C6.66936 9.77581 8.07926 8.05731 9.88839 6.84822C11.6975 5.63913 13.8246 4.99376 16.0006 4.99376C18.1766 4.99376 20.3037 5.63913 22.1128 6.84822C23.9219 8.05731 25.3318 9.77581 26.1641 11.7863C26.9964 13.7968 27.2137 16.009 26.7886 18.1431C26.3634 20.2771 25.3149 22.2371 23.7756 23.7751V23.7751Z" fill="#49536E"/>
</svg>
