<svg width="32" height="32" viewBox="0 0 32 32" fill="none" xmlns="http://www.w3.org/2000/svg">
<path d="M28 9.58743L22.4125 3.99993C22.2277 3.81323 22.0077 3.66502 21.7652 3.56387C21.5228 3.46272 21.2627 3.41064 21 3.41064C20.7373 3.41064 20.4772 3.46272 20.2348 3.56387C19.9923 3.66502 19.7723 3.81323 19.5875 3.99993L4.5875 18.9999C4.38977 19.194 4.23627 19.4285 4.1375 19.6874L4.1125 19.7499C4.0379 19.9628 3.99987 20.1868 4 20.4124V25.9999C4 26.5304 4.21071 27.0391 4.58579 27.4141C4.96086 27.7892 5.46957 27.9999 6 27.9999H27C27.2652 27.9999 27.5196 27.8946 27.7071 27.707C27.8946 27.5195 28 27.2651 28 26.9999C28 26.7347 27.8946 26.4804 27.7071 26.2928C27.5196 26.1053 27.2652 25.9999 27 25.9999H14.4125L28 12.4124C28.371 12.0359 28.579 11.5285 28.579 10.9999C28.579 10.4713 28.371 9.96396 28 9.58743V9.58743ZM18 8.41243L20.0875 10.4999L8.5 22.0874L6.4125 19.9999L18 8.41243ZM6 25.9999V22.4124L9.5875 25.9999H6ZM12 25.5874L9.9125 23.4999L21.5 11.9124L23.5875 13.9999L12 25.5874Z" fill="#49536E"/>
</svg>
