<svg width="32" height="32" viewBox="0 0 32 32" fill="none" xmlns="http://www.w3.org/2000/svg">
<path d="M27 26.0001H14.4125L24.7125 15.7126L28 12.4126C28.1867 12.2278 28.3349 12.0078 28.4361 11.7654C28.5372 11.5229 28.5893 11.2628 28.5893 11.0001C28.5893 10.7374 28.5372 10.4773 28.4361 10.2349C28.3349 9.99242 28.1867 9.77243 28 9.58762L22.4125 4.00012C22.036 3.62911 21.5286 3.42114 21 3.42114C20.4714 3.42114 19.964 3.62911 19.5875 4.00012L4.5875 19.0001C4.40112 19.1851 4.25324 19.4051 4.1524 19.6476C4.05157 19.89 3.99977 20.15 4 20.4126V26.0001C4 26.5305 4.21071 27.0393 4.58579 27.4143C4.96086 27.7894 5.46957 28.0001 6 28.0001H27C27.2652 28.0001 27.5196 27.8948 27.7071 27.7072C27.8946 27.5197 28 27.2653 28 27.0001C28 26.7349 27.8946 26.4805 27.7071 26.293C27.5196 26.1055 27.2652 26.0001 27 26.0001ZM6 20.4126L18 8.41262L23.5875 14.0001L11.5875 26.0001H6V20.4126Z" fill="#49536E"/>
</svg>
