<svg width="32" height="32" viewBox="0 0 32 32" fill="none" xmlns="http://www.w3.org/2000/svg">
<path d="M28 9.58743L22.4125 3.99993C22.2277 3.81323 22.0077 3.66502 21.7652 3.56387C21.5228 3.46272 21.2627 3.41064 21 3.41064C20.7373 3.41064 20.4772 3.46272 20.2348 3.56387C19.9923 3.66502 19.7723 3.81323 19.5875 3.99993L16.2875 7.28743L4.5875 18.9999C4.40112 19.1849 4.25324 19.4049 4.1524 19.6474C4.05157 19.8898 3.99977 20.1499 4 20.4124V25.9999C4 26.5304 4.21071 27.0391 4.58579 27.4141C4.96086 27.7892 5.46957 27.9999 6 27.9999H11.5875C11.8501 28.0002 12.1101 27.9484 12.3525 27.8475C12.595 27.7467 12.815 27.5988 13 27.4124L28 12.4124C28.371 12.0359 28.579 11.5285 28.579 10.9999C28.579 10.4713 28.371 9.96396 28 9.58743V9.58743ZM6.4125 19.9999L18 8.41243L20.0875 10.4999L8.5 22.0874L6.4125 19.9999ZM6 22.4124L9.5875 25.9999H6V22.4124ZM12 25.5874L9.9125 23.4999L21.5 11.9124L23.5875 13.9999L12 25.5874Z" fill="#49536E"/>
</svg>
