<svg width="32" height="32" viewBox="0 0 32 32" fill="none" xmlns="http://www.w3.org/2000/svg">
<path d="M28 9.5874L22.4625 4.0374C22.0896 3.65505 21.5837 3.4312 21.05 3.4124C20.7791 3.40616 20.5098 3.45502 20.2584 3.55601C20.007 3.657 19.7788 3.80802 19.5875 3.9999L16.2875 7.2874L4.5875 18.9999C4.40112 19.1849 4.25324 19.4049 4.1524 19.6474C4.05157 19.8898 3.99977 20.1498 4 20.4124V25.9999C4 26.5303 4.21071 27.039 4.58579 27.4141C4.96086 27.7892 5.46957 27.9999 6 27.9999H11.5875C12.1173 27.9976 12.6249 27.7865 13 27.4124L28 12.4124C28.371 12.0359 28.579 11.5285 28.579 10.9999C28.579 10.4713 28.371 9.96392 28 9.5874V9.5874ZM24 13.5874L18.4125 7.9999L21 5.4124L26.5875 10.9999L24 13.5874Z" fill="#49536E"/>
</svg>
