<svg width="32" height="32" viewBox="0 0 32 32" fill="none" xmlns="http://www.w3.org/2000/svg">
<path d="M28.9993 11.5875L20.4118 2.99999C20.0352 2.62899 19.5279 2.42102 18.9993 2.42102C18.4707 2.42102 17.9633 2.62899 17.5868 2.99999L14.4493 6.13749L7.18677 8.86249C6.85979 8.98525 6.57094 9.19199 6.3493 9.46191C6.12766 9.73183 5.98106 10.0554 5.92427 10.4L3.32427 25.975C3.30537 26.0803 3.32075 26.1889 3.36815 26.2848C3.41555 26.3807 3.49246 26.4589 3.58759 26.5079C3.68271 26.5568 3.79103 26.574 3.89664 26.5568C4.00224 26.5397 4.09955 26.4891 4.17427 26.4125L11.0493 19.525C10.6873 18.9117 10.4973 18.2122 10.4993 17.5C10.4993 16.7089 10.7339 15.9355 11.1734 15.2777C11.6129 14.6199 12.2376 14.1072 12.9685 13.8045C13.6994 13.5017 14.5037 13.4225 15.2796 13.5769C16.0556 13.7312 16.7683 14.1122 17.3277 14.6716C17.8871 15.231 18.2681 15.9437 18.4224 16.7196C18.5767 17.4956 18.4975 18.2998 18.1948 19.0307C17.892 19.7616 17.3793 20.3863 16.7215 20.8259C16.0638 21.2654 15.2904 21.5 14.4993 21.5C13.7871 21.502 13.0876 21.312 12.4743 20.95L5.58677 27.825C5.51019 27.8997 5.45961 27.997 5.44244 28.1026C5.42527 28.2082 5.44243 28.3165 5.49139 28.4117C5.54035 28.5068 5.61854 28.5837 5.71445 28.6311C5.81037 28.6785 5.91896 28.6939 6.02427 28.675L21.5993 26.0875C21.9439 26.026 22.2667 25.8762 22.5362 25.6527C22.8056 25.4293 23.0126 25.1398 23.1368 24.8125L25.8618 17.55L28.9993 14.4125C29.186 14.2277 29.3342 14.0077 29.4353 13.7652C29.5365 13.5228 29.5886 13.2627 29.5886 13C29.5886 12.7373 29.5365 12.4772 29.4353 12.2347C29.3342 11.9923 29.186 11.7723 28.9993 11.5875V11.5875ZM24.9993 15.5875L16.4118 6.99999L18.9993 4.41249L27.5868 13L24.9993 15.5875Z" fill="#49536E"/>
<path d="M14.5 19.5C15.6046 19.5 16.5 18.6046 16.5 17.5C16.5 16.3954 15.6046 15.5 14.5 15.5C13.3954 15.5 12.5 16.3954 12.5 17.5C12.5 18.6046 13.3954 19.5 14.5 19.5Z" fill="#49536E"/>
</svg>
