<svg width="32" height="32" viewBox="0 0 32 32" fill="none" xmlns="http://www.w3.org/2000/svg">
<path d="M16 18.5C17.1046 18.5 18 17.6046 18 16.5C18 15.3954 17.1046 14.5 16 14.5C14.8954 14.5 14 15.3954 14 16.5C14 17.6046 14.8954 18.5 16 18.5Z" fill="#49536E"/>
<path d="M27.3245 15.4875L23.9995 8.7625V4C23.9995 3.46957 23.7888 2.96086 23.4137 2.58579C23.0387 2.21071 22.53 2 21.9995 2H9.99954C9.4691 2 8.96039 2.21071 8.58532 2.58579C8.21025 2.96086 7.99953 3.46957 7.99953 4V8.7625L4.67454 15.4875C4.51348 15.8176 4.44582 16.1854 4.47887 16.5512C4.51192 16.9169 4.64443 17.2667 4.86204 17.5625L14.0995 30.1C14.1625 30.184 14.2503 30.246 14.3505 30.2773C14.4506 30.3085 14.5581 30.3075 14.6576 30.2743C14.7572 30.2412 14.8438 30.1775 14.9052 30.0924C14.9665 30.0072 14.9995 29.9049 14.9995 29.8V20.375C14.0569 20.1316 13.2353 19.5528 12.6889 18.747C12.1425 17.9412 11.9087 16.9638 12.0314 15.998C12.1541 15.0322 12.6248 14.1443 13.3553 13.5007C14.0858 12.8571 15.026 12.502 15.9995 12.502C16.9731 12.502 17.9133 12.8571 18.6438 13.5007C19.3743 14.1443 19.845 15.0322 19.9677 15.998C20.0903 16.9638 19.8565 17.9412 19.3101 18.747C18.7637 19.5528 17.9422 20.1316 16.9995 20.375V29.8C16.9995 29.9049 17.0326 30.0072 17.0939 30.0924C17.1553 30.1775 17.2419 30.2412 17.3414 30.2743C17.441 30.3075 17.5485 30.3085 17.6486 30.2773C17.7488 30.246 17.8366 30.184 17.8995 30.1L27.137 17.5625C27.3546 17.2667 27.4871 16.9169 27.5202 16.5512C27.5532 16.1854 27.4856 15.8176 27.3245 15.4875V15.4875ZM21.9995 8H9.99954V4H21.9995V8Z" fill="#49536E"/>
</svg>
