<svg width="32" height="32" viewBox="0 0 32 32" fill="none" xmlns="http://www.w3.org/2000/svg">
<path d="M25.7132 7.7125L7.71323 25.7125C7.52209 25.8973 7.26661 26.0006 7.00073 26.0006C6.73485 26.0006 6.47937 25.8973 6.28823 25.7125C6.10045 25.5229 5.9951 25.2668 5.9951 25C5.9951 24.7331 6.10045 24.4771 6.28823 24.2875L24.2882 6.2875C24.4825 6.12803 24.7292 6.04654 24.9802 6.05887C25.2313 6.0712 25.4688 6.17647 25.6465 6.35421C25.8243 6.53194 25.9295 6.76943 25.9419 7.02049C25.9542 7.27154 25.8727 7.5182 25.7132 7.7125V7.7125ZM6.31323 12.6875C5.47204 11.8399 5 10.6942 5 9.5C5 8.30584 5.47204 7.16009 6.31323 6.3125C7.16082 5.47131 8.30657 4.99927 9.50073 4.99927C10.6949 4.99927 11.8406 5.47131 12.6882 6.3125C13.471 7.17015 13.893 8.29654 13.8666 9.45741C13.8401 10.6183 13.3671 11.7242 12.546 12.5453C11.725 13.3664 10.619 13.8393 9.45814 13.8658C8.29728 13.8923 7.17088 13.4703 6.31323 12.6875V12.6875ZM7.00073 9.5C7.00004 9.82809 7.06493 10.153 7.19158 10.4557C7.31823 10.7584 7.50408 11.0327 7.73823 11.2625C7.96935 11.4946 8.24401 11.6787 8.54647 11.8043C8.84892 11.93 9.17322 11.9946 9.50073 11.9946C9.82824 11.9946 10.1525 11.93 10.455 11.8043C10.7574 11.6787 11.0321 11.4946 11.2632 11.2625C11.4968 11.0322 11.6823 10.7578 11.8089 10.4553C11.9354 10.1527 12.0006 9.82798 12.0006 9.5C12.0006 9.17201 11.9354 8.8473 11.8089 8.54473C11.6823 8.24215 11.4968 7.96776 11.2632 7.7375C11.033 7.50393 10.7586 7.31846 10.456 7.19187C10.1534 7.06528 9.82872 7.00009 9.50073 7.00009C9.17274 7.00009 8.84803 7.06528 8.54546 7.19187C8.24289 7.31846 7.96849 7.50393 7.73823 7.7375C7.50408 7.96733 7.31823 8.24164 7.19158 8.54431C7.06493 8.84697 7.00004 9.1719 7.00073 9.5V9.5ZM27.0007 22.5C26.9989 23.2392 26.815 23.9666 26.4653 24.6179C26.1155 25.2692 25.6108 25.8242 24.9955 26.2341C24.3803 26.6439 23.6736 26.8958 22.9379 26.9677C22.2021 27.0395 21.46 26.9289 20.7772 26.6458C20.0943 26.3626 19.4917 25.9156 19.0227 25.3443C18.5536 24.7729 18.2325 24.0948 18.0878 23.3699C17.9431 22.645 17.9792 21.8955 18.1929 21.1879C18.4067 20.4802 18.7914 19.8361 19.3132 19.3125C20.1608 18.4713 21.3066 17.9993 22.5007 17.9993C23.6949 17.9993 24.8406 18.4713 25.6882 19.3125C26.1063 19.7311 26.4375 20.2282 26.6628 20.7752C26.888 21.3222 27.0029 21.9084 27.0007 22.5V22.5ZM25.0007 22.5C25.0014 22.1719 24.9365 21.847 24.8099 21.5443C24.6832 21.2416 24.4974 20.9673 24.2632 20.7375C24.033 20.5039 23.7586 20.3185 23.456 20.1919C23.1534 20.0653 22.8287 20.0001 22.5007 20.0001C22.1727 20.0001 21.848 20.0653 21.5455 20.1919C21.2429 20.3185 20.9685 20.5039 20.7382 20.7375C20.4529 21.0281 20.2433 21.3843 20.1279 21.7749C20.0124 22.1654 19.9946 22.5784 20.076 22.9774C20.1574 23.3765 20.3356 23.7494 20.5948 24.0635C20.8541 24.3776 21.1864 24.6232 21.5628 24.7789C21.9392 24.9345 22.348 24.9953 22.7533 24.956C23.1587 24.9167 23.5482 24.7785 23.8877 24.5535C24.2271 24.3285 24.5061 24.0236 24.7002 23.6655C24.8943 23.3075 24.9975 22.9072 25.0007 22.5V22.5Z" fill="#49536E"/>
</svg>
