<svg width="32" height="32" viewBox="0 0 32 32" fill="none" xmlns="http://www.w3.org/2000/svg">
<path d="M15.9883 10C18.4736 10 20.4883 7.98528 20.4883 5.5C20.4883 3.01472 18.4736 1 15.9883 1C13.503 1 11.4883 3.01472 11.4883 5.5C11.4883 7.98528 13.503 10 15.9883 10Z" fill="#49536E"/>
<path d="M26.4639 17.4375L21.5389 11.1125L21.4639 11.025C21.1397 10.6989 20.754 10.4404 20.3291 10.2644C19.9043 10.0885 19.4487 9.99861 18.9889 10H12.9889C12.529 9.99861 12.0735 10.0885 11.6487 10.2644C11.2238 10.4404 10.8381 10.6989 10.5139 11.025L10.4264 11.1125L5.51389 17.4375C5.04479 17.9066 4.78125 18.5429 4.78125 19.2063C4.78125 19.8697 5.04479 20.5059 5.51389 20.975C5.98299 21.4441 6.61923 21.7077 7.28264 21.7077C7.94605 21.7077 8.58229 21.4441 9.05139 20.975L10.8139 19.6L8.32639 27.4375C8.07945 28.022 8.0616 28.678 8.27639 29.275C8.38871 29.5848 8.56147 29.8692 8.78464 30.1117C9.00781 30.3542 9.27694 30.5499 9.57639 30.6875C9.87127 30.828 10.1913 30.9081 10.5176 30.9232C10.8438 30.9382 11.1698 30.8878 11.4764 30.775C12.0773 30.557 12.5731 30.1193 12.8639 29.55L15.9889 24.625L19.1139 29.55C19.4036 30.1154 19.894 30.5522 20.4889 30.775C20.7659 30.8732 21.0575 30.9239 21.3514 30.925C21.7149 30.9268 22.074 30.8456 22.4014 30.6875C23.0038 30.4062 23.4709 29.8986 23.7014 29.275C23.9186 28.6774 23.8962 28.019 23.6389 27.4375L21.1639 19.6L22.9264 20.975C23.3996 21.4227 24.0289 21.668 24.6803 21.6587C25.3317 21.6493 25.9537 21.3861 26.4139 20.925C26.6458 20.6941 26.8293 20.4194 26.9538 20.1167C27.0783 19.8141 27.1412 19.4897 27.1389 19.1625C27.1444 18.5221 26.9026 17.9042 26.4639 17.4375Z" fill="#49536E"/>
</svg>
