<svg width="32" height="32" viewBox="0 0 32 32" fill="none" xmlns="http://www.w3.org/2000/svg">
<path d="M15.0011 7C15.0011 6.20888 15.2357 5.43552 15.6752 4.77772C16.1147 4.11992 16.7394 3.60723 17.4704 3.30448C18.2013 3.00173 19.0055 2.92252 19.7814 3.07686C20.5574 3.2312 21.2701 3.61216 21.8295 4.17157C22.3889 4.73098 22.7699 5.44372 22.9242 6.21964C23.0786 6.99556 22.9994 7.79983 22.6966 8.53074C22.3939 9.26164 21.8812 9.88635 21.2234 10.3259C20.5656 10.7654 19.7922 11 19.0011 11C17.9412 10.9967 16.9257 10.5742 16.1763 9.82479C15.4269 9.07536 15.0044 8.05985 15.0011 7V7ZM28.0011 16.7C28.0011 16.4348 27.8957 16.1804 27.7082 15.9929C27.5207 15.8054 27.2663 15.7 27.0011 15.7C26.84 15.6987 26.6811 15.7374 26.5386 15.8125H26.5511C26.5386 15.8125 25.7386 16.2 24.2761 16.05C22.8136 15.9 20.5886 15.25 17.6136 12.9125C15.7386 11.45 12.8261 9.8375 9.56358 10.4625C7.58858 10.8375 6.45108 11.85 6.32608 11.9625C6.22779 12.0502 6.14804 12.1568 6.09154 12.2758C6.03504 12.3948 6.00294 12.5239 5.99711 12.6556C5.99129 12.7872 6.01186 12.9187 6.05763 13.0422C6.10339 13.1658 6.17342 13.2789 6.26358 13.375C6.44264 13.5705 6.69202 13.687 6.95689 13.6987C7.22177 13.7104 7.48046 13.6165 7.67608 13.4375C7.81358 13.3125 10.9011 10.6375 15.7511 14.0125C15.1569 16.0032 14.2314 17.8794 13.0136 19.5625V19.5625L12.7136 19.95C10.3511 22.975 7.45108 24.325 4.10108 23.9875C3.83587 23.961 3.57098 24.0409 3.36469 24.2097C3.1584 24.3785 3.02761 24.6223 3.00108 24.8875C2.97456 25.1527 3.05448 25.4176 3.22327 25.6239C3.39205 25.8302 3.63587 25.961 3.90108 25.9875C4.31358 26.025 4.70108 26.0375 5.08858 26.0375C9.16358 26.0375 12.1636 23.8625 14.2386 21.25C16.6636 21.9 21.0011 23.775 21.0011 28.9875C21.0011 29.2527 21.1064 29.5071 21.294 29.6946C21.4815 29.8821 21.7359 29.9875 22.0011 29.9875C22.2663 29.9875 22.5207 29.8821 22.7082 29.6946C22.8957 29.5071 23.0011 29.2527 23.0011 28.9875C23.0011 25.9 21.7386 23.3125 19.3511 21.5C18.0511 20.5125 16.6011 19.9 15.4511 19.525C16.2788 18.1854 16.9498 16.7552 17.4511 15.2625C20.6761 17.5 23.2261 18.05 24.9511 18.05C26.6761 18.05 27.3886 17.6125 27.4636 17.5625C27.6238 17.4821 27.7588 17.359 27.8536 17.2068C27.9484 17.0547 27.9995 16.8793 28.0011 16.7V16.7Z" fill="#49536E"/>
</svg>
