<svg width="32" height="32" viewBox="0 0 32 32" fill="none" xmlns="http://www.w3.org/2000/svg">
<path d="M4 15.0001V17.0001H2C1.73478 17.0001 1.48043 16.8948 1.29289 16.7072C1.10536 16.5197 1 16.2653 1 16.0001C1 15.7349 1.10536 15.4805 1.29289 15.293C1.48043 15.1055 1.73478 15.0001 2 15.0001H4ZM4 22.1626C3.9981 22.6316 4.16104 23.0863 4.46035 23.4473C4.75967 23.8083 5.17632 24.0526 5.6375 24.1376L25.6375 27.7751L26 27.8001C26.4693 27.7969 26.9235 27.6338 27.2875 27.3376C27.5109 27.1486 27.6904 26.9131 27.8135 26.6475C27.9365 26.382 28.0002 26.0928 28 25.8001V17.0001H4V22.1626ZM30 15.0001H28V17.0001H30C30.2652 17.0001 30.5196 16.8948 30.7071 16.7072C30.8946 16.5197 31 16.2653 31 16.0001C31 15.7349 30.8946 15.4805 30.7071 15.293C30.5196 15.1055 30.2652 15.0001 30 15.0001ZM28 6.20011C28.0002 5.90744 27.9365 5.61825 27.8135 5.35271C27.6904 5.08717 27.5109 4.85166 27.2875 4.66261C27.0592 4.47684 26.7941 4.34176 26.5096 4.26633C26.2251 4.1909 25.9278 4.17685 25.6375 4.22511L5.6375 7.86261C5.17632 7.9476 4.75967 8.19195 4.46035 8.55296C4.16104 8.91396 3.9981 9.36866 4 9.83761V15.0001H28V6.20011Z" fill="#49536E"/>
</svg>
