<svg width="32" height="32" viewBox="0 0 32 32" fill="none" xmlns="http://www.w3.org/2000/svg">
<path d="M11.9869 6C11.9869 5.20888 12.2215 4.43552 12.661 3.77772C13.1005 3.11992 13.7252 2.60723 14.4561 2.30448C15.187 2.00173 15.9913 1.92252 16.7672 2.07686C17.5432 2.2312 18.2559 2.61216 18.8153 3.17157C19.3747 3.73098 19.7557 4.44372 19.91 5.21964C20.0644 5.99556 19.9851 6.79983 19.6824 7.53074C19.3796 8.26164 18.867 8.88635 18.2092 9.32588C17.5514 9.76541 16.778 10 15.9869 10C14.926 10 13.9086 9.57857 13.1584 8.82843C12.4083 8.07828 11.9869 7.06087 11.9869 6V6ZM28.5119 15.1375C28.2994 15.0125 23.1994 12 15.9994 12C8.79937 12 3.69937 15.0125 3.48687 15.1375C3.25812 15.2734 3.09274 15.4947 3.0271 15.7525C2.96146 16.0104 3.00095 16.2838 3.13687 16.5125C3.2728 16.7413 3.49402 16.9066 3.75189 16.9723C4.00975 17.0379 4.28312 16.9984 4.51187 16.8625C4.56187 16.825 8.87437 14.2875 14.9994 14.025V18.625L7.24937 27.3375C7.07367 27.5364 6.98417 27.797 7.00058 28.0619C7.01699 28.3268 7.13796 28.5743 7.33687 28.75C7.53578 28.9257 7.79635 29.0152 8.06124 28.9988C8.32614 28.9824 8.57367 28.8614 8.74937 28.6625L15.9994 20.5L23.2494 28.6625C23.3433 28.7687 23.4588 28.8537 23.5881 28.9119C23.7174 28.9701 23.8576 29.0001 23.9994 29C24.2431 28.9991 24.4783 28.9104 24.6619 28.75C24.7604 28.6631 24.8409 28.5575 24.8987 28.4395C24.9564 28.3214 24.9903 28.1931 24.9985 28.0619C25.0066 27.9307 24.9888 27.7992 24.946 27.6749C24.9033 27.5506 24.8365 27.436 24.7494 27.3375L16.9994 18.625V14.025C23.0994 14.2875 27.4369 16.825 27.4869 16.8625C27.6437 16.9499 27.8198 16.9972 27.9994 17C28.2195 17.0014 28.4339 16.9302 28.6094 16.7974C28.7849 16.6645 28.9116 16.4775 28.97 16.2653C29.0284 16.0531 29.0152 15.8276 28.9323 15.6237C28.8495 15.4198 28.7017 15.2489 28.5119 15.1375Z" fill="#49536E"/>
</svg>
