<svg width="32" height="32" viewBox="0 0 32 32" fill="none" xmlns="http://www.w3.org/2000/svg">
<path d="M27.75 19.8L21.8875 17.3C21.585 17.1644 21.253 17.1082 20.9227 17.1366C20.5924 17.1651 20.2749 17.2772 20 17.4625L16.8625 19.55C14.9503 18.6213 13.4021 17.0819 12.4625 15.175V15.175L14.5375 12C14.7216 11.7249 14.834 11.4081 14.8645 11.0785C14.8951 10.7488 14.8428 10.4168 14.7125 10.1125L12.2 4.25001C12.0247 3.85415 11.7278 3.52443 11.3525 3.30866C10.9771 3.0929 10.5428 3.0023 10.1125 3.05001C8.42449 3.27114 6.87421 4.09773 5.7499 5.37608C4.62559 6.65444 4.00375 8.29758 4 10C4 19.925 12.075 28 22 28C23.7024 27.9963 25.3456 27.3744 26.6239 26.2501C27.9023 25.1258 28.7289 23.5755 28.95 21.8875C28.9977 21.4572 28.9071 21.0229 28.6913 20.6475C28.4756 20.2722 28.1459 19.9753 27.75 19.8Z" fill="#49536E"/>
<path d="M19.6736 5.96246C21.1957 6.37832 22.5831 7.18387 23.6989 8.29964C24.8146 9.4154 25.6202 10.8028 26.0361 12.325C26.0912 12.5387 26.2156 12.7281 26.3897 12.8638C26.5638 12.9994 26.7778 13.0737 26.9986 13.075C27.0874 13.0748 27.1757 13.0622 27.2611 13.0375C27.3882 13.0042 27.5074 12.9459 27.6117 12.866C27.716 12.7861 27.8033 12.6861 27.8685 12.5721C27.9337 12.458 27.9754 12.332 27.9913 12.2016C28.0072 12.0712 27.9969 11.9389 27.9611 11.8125C27.4611 9.94832 26.4794 8.24853 25.1147 6.8838C23.75 5.51907 22.0502 4.53743 20.1861 4.03746C20.0556 3.98994 19.9167 3.9701 19.7782 3.9792C19.6396 3.98831 19.5045 4.02616 19.3814 4.09034C19.2583 4.15452 19.1499 4.24364 19.0632 4.35201C18.9764 4.46037 18.9131 4.58562 18.8774 4.71978C18.8417 4.85393 18.8343 4.99406 18.8557 5.13123C18.8771 5.2684 18.9268 5.3996 19.0017 5.5165C19.0766 5.6334 19.175 5.73342 19.2907 5.8102C19.4064 5.88698 19.5367 5.93883 19.6736 5.96246V5.96246Z" fill="#49536E"/>
<path d="M18.6384 9.82501C19.4845 10.0566 20.2557 10.5046 20.876 11.1249C21.4963 11.7452 21.9443 12.5164 22.1759 13.3625C22.2291 13.5773 22.3529 13.768 22.5274 13.904C22.702 14.04 22.9171 14.1134 23.1384 14.1125C23.2232 14.1133 23.3076 14.1007 23.3884 14.075C23.5166 14.0431 23.6372 13.9858 23.7429 13.9065C23.8486 13.8272 23.9373 13.7274 24.0037 13.6132C24.0701 13.499 24.113 13.3725 24.1297 13.2415C24.1464 13.1104 24.1366 12.9773 24.1009 12.85C23.7852 11.6619 23.1611 10.5783 22.2919 9.70905C21.4226 8.83978 20.339 8.21569 19.1509 7.90001C19.0205 7.85249 18.8815 7.83265 18.743 7.84175C18.6045 7.85086 18.4694 7.88871 18.3463 7.95289C18.2232 8.01707 18.1148 8.10619 18.028 8.21455C17.9412 8.32292 17.878 8.44817 17.8423 8.58233C17.8065 8.71648 17.7991 8.85661 17.8205 8.99378C17.842 9.13094 17.8917 9.26215 17.9666 9.37905C18.0415 9.49595 18.1399 9.59597 18.2555 9.67275C18.3712 9.74953 18.5016 9.80138 18.6384 9.82501V9.82501Z" fill="#49536E"/>
</svg>
