<svg width="32" height="32" viewBox="0 0 32 32" fill="none" xmlns="http://www.w3.org/2000/svg">
<path d="M15.1125 13.5375H15.1L11.225 9.25002H11.2125L6.73755 4.32502C6.55688 4.13601 6.30937 4.02528 6.04805 4.01655C5.78673 4.00782 5.53238 4.10179 5.33951 4.27832C5.14663 4.45485 5.03056 4.6999 5.01618 4.96097C5.00179 5.22205 5.09023 5.47837 5.26255 5.67502L8.75005 9.51252C6.70727 10.4159 4.85061 11.6918 3.27505 13.275C2.07194 14.4808 1.34882 16.0832 1.24071 17.7831C1.1326 19.483 1.64689 21.1641 2.68755 22.5125C2.87635 22.7493 3.11586 22.9407 3.38843 23.0727C3.66101 23.2046 3.95971 23.2738 4.26255 23.275C4.51456 23.273 4.76424 23.2265 5.00005 23.1375L10.925 20.7625C11.2326 20.6384 11.5044 20.4397 11.716 20.1844C11.9277 19.9291 12.0725 19.6252 12.1375 19.3L12.875 15.6125C13.247 15.4836 13.627 15.3792 14.0125 15.3L25.2625 27.675C25.3562 27.7774 25.4701 27.8592 25.5971 27.9151C25.7241 27.9711 25.8613 28 26 28C26.2495 27.9976 26.4895 27.9042 26.675 27.7375C26.7733 27.6498 26.8531 27.5433 26.9096 27.4242C26.9661 27.3052 26.9982 27.1761 27.004 27.0444C27.0098 26.9128 26.9893 26.7814 26.9435 26.6578C26.8977 26.5342 26.8277 26.4211 26.7375 26.325L15.1125 13.5375Z" fill="#49536E"/>
<path d="M28.7258 13.2751C26.9356 11.488 24.7898 10.0972 22.4275 9.19274C20.0652 8.28831 17.5392 7.89049 15.0133 8.02508C14.8236 8.03443 14.6404 8.09762 14.4853 8.20725C14.3302 8.31689 14.2095 8.46844 14.1374 8.64416C14.0653 8.81989 14.0447 9.01252 14.078 9.19952C14.1114 9.38652 14.1973 9.56014 14.3258 9.70008L26.1258 22.6751C26.2241 22.7871 26.3486 22.873 26.4883 22.9251L27.0008 23.1376C27.2366 23.2265 27.4863 23.2731 27.7383 23.2751C28.0411 23.2738 28.3398 23.2047 28.6124 23.0727C28.885 22.9408 29.1245 22.7494 29.3133 22.5126C30.354 21.1641 30.8682 19.483 30.7601 17.7831C30.652 16.0833 29.9289 14.4808 28.7258 13.2751V13.2751Z" fill="#49536E"/>
</svg>
