<svg width="32" height="32" viewBox="0 0 32 32" fill="none" xmlns="http://www.w3.org/2000/svg">
<path d="M27.75 19.8L21.8875 17.3C21.585 17.1644 21.253 17.1082 20.9227 17.1366C20.5924 17.1651 20.2749 17.2772 20 17.4625L16.8625 19.55C14.9503 18.6213 13.4021 17.0819 12.4625 15.175V15.175L14.5375 12C14.7216 11.7249 14.834 11.4081 14.8645 11.0785C14.8951 10.7488 14.8428 10.4168 14.7125 10.1125L12.2 4.25001C12.0247 3.85415 11.7278 3.52443 11.3525 3.30866C10.9771 3.0929 10.5428 3.0023 10.1125 3.05001C8.42449 3.27114 6.87421 4.09773 5.7499 5.37608C4.62559 6.65444 4.00375 8.29758 4 10C4 19.925 12.075 28 22 28C23.7024 27.9963 25.3456 27.3744 26.6239 26.2501C27.9023 25.1258 28.7289 23.5755 28.95 21.8875C28.9977 21.4572 28.9071 21.0229 28.6913 20.6475C28.4756 20.2722 28.1459 19.9753 27.75 19.8Z" fill="#49536E"/>
<path d="M19.2873 12.7125C19.4784 12.8973 19.7339 13.0006 19.9998 13.0006C20.2656 13.0006 20.5211 12.8973 20.7123 12.7125L22.9998 10.4125L25.2873 12.7125C25.4784 12.8973 25.7339 13.0006 25.9998 13.0006C26.2656 13.0006 26.5211 12.8973 26.7123 12.7125C26.9 12.5229 27.0054 12.2668 27.0054 12C27.0054 11.7331 26.9 11.4771 26.7123 11.2875L24.4123 8.99996L26.7123 6.71246C26.8717 6.51817 26.9532 6.2715 26.9409 6.02045C26.9286 5.7694 26.8233 5.53191 26.6456 5.35417C26.4678 5.17644 26.2303 5.07117 25.9793 5.05884C25.7282 5.04651 25.4816 5.128 25.2873 5.28746L22.9998 7.58746L20.7123 5.28746C20.518 5.128 20.2713 5.04651 20.0203 5.05884C19.7692 5.07117 19.5317 5.17644 19.354 5.35417C19.1762 5.53191 19.071 5.7694 19.0586 6.02045C19.0463 6.2715 19.1278 6.51817 19.2873 6.71246L21.5873 8.99996L19.2873 11.2875C19.0995 11.4771 18.9941 11.7331 18.9941 12C18.9941 12.2668 19.0995 12.5229 19.2873 12.7125V12.7125Z" fill="#49536E"/>
</svg>
