<svg width="32" height="32" viewBox="0 0 32 32" fill="none" xmlns="http://www.w3.org/2000/svg">
<path d="M26.7129 5.28748C25.4617 4.04022 23.7671 3.33984 22.0004 3.33984C20.2337 3.33984 18.5391 4.04022 17.2879 5.28748L5.28792 17.2875C4.03809 18.5373 3.33594 20.2325 3.33594 22C3.33594 23.7675 4.03809 25.4626 5.28792 26.7125C6.53775 27.9623 8.23289 28.6645 10.0004 28.6645C11.7679 28.6645 13.4631 27.9623 14.7129 26.7125L26.7129 14.7125C27.9571 13.4597 28.6554 11.7657 28.6554 9.99998C28.6554 8.23431 27.9571 6.54028 26.7129 5.28748V5.28748ZM25.2879 13.2875L20.0004 18.5875L13.4129 12L18.7129 6.71248C19.1421 6.27634 19.6539 5.92996 20.2183 5.69353C20.7827 5.45709 21.3885 5.33533 22.0004 5.33533C22.6123 5.33533 23.2182 5.45709 23.7826 5.69353C24.347 5.92996 24.8587 6.27634 25.2879 6.71248C25.721 7.14341 26.0647 7.65569 26.2993 8.21986C26.5338 8.78404 26.6545 9.389 26.6545 9.99998C26.6545 10.611 26.5338 11.2159 26.2993 11.7801C26.0647 12.3443 25.721 12.8565 25.2879 13.2875V13.2875ZM23.7754 10.3625C23.8679 10.4561 23.9408 10.5673 23.9897 10.6895C24.0386 10.8117 24.0626 10.9424 24.0603 11.074C24.058 11.2056 24.0293 11.3354 23.9761 11.4558C23.9229 11.5762 23.8462 11.6847 23.7504 11.775L20.7004 14.725C20.6068 14.8175 20.4956 14.8903 20.3734 14.9393C20.2512 14.9882 20.1205 15.0122 19.9889 15.0099C19.8573 15.0075 19.7275 14.9789 19.6071 14.9257C19.4867 14.8725 19.3782 14.7957 19.2879 14.7C19.1954 14.6064 19.1226 14.4952 19.0736 14.373C19.0247 14.2508 19.0007 14.1201 19.003 13.9885C19.0054 13.8569 19.034 13.7271 19.0872 13.6067C19.1404 13.4863 19.2172 13.3778 19.3129 13.2875L22.3629 10.3375C22.5537 10.1537 22.8095 10.0532 23.0743 10.0579C23.3391 10.0626 23.5913 10.1721 23.7754 10.3625Z" fill="#49536E"/>
</svg>
