<svg width="32" height="32" viewBox="0 0 32 32" fill="none" xmlns="http://www.w3.org/2000/svg">
<path d="M28.7133 27.2875L22.6633 21.2375L23.0758 21.1125C24.0044 20.7776 24.8573 20.2615 25.5847 19.5941C26.3122 18.9268 26.8997 18.1215 27.3133 17.225C28.1491 15.4201 28.239 13.3583 27.5633 11.4875C27.4658 11.2404 27.2781 11.0394 27.0383 10.925C26.9198 10.8684 26.7909 10.8369 26.6596 10.8326C26.5284 10.8283 26.3977 10.8513 26.2758 10.9L20.7258 12.9125L20.8508 12.6625C21.48 11.3179 21.6961 9.81669 21.4715 8.34915C21.2469 6.8816 20.5918 5.51373 19.5893 4.41877C18.5867 3.32382 17.2817 2.55105 15.8395 2.19836C14.3974 1.84566 12.883 1.9289 11.4883 2.43754C11.2411 2.53506 11.0401 2.72267 10.9258 2.96254C10.8691 3.08101 10.8377 3.20993 10.8334 3.34117C10.8291 3.47241 10.852 3.60312 10.9008 3.72504L12.9133 9.27504L12.6633 9.15004C11.3186 8.52078 9.81742 8.30475 8.34988 8.52933C6.88234 8.7539 5.51446 9.40897 4.4195 10.4116C3.32455 11.4142 2.55179 12.7192 2.19909 14.1613C1.84639 15.6034 1.92964 17.1178 2.43827 18.5125C2.53579 18.7597 2.7234 18.9607 2.96327 19.075C3.09643 19.1362 3.24179 19.1661 3.38827 19.1625C3.50394 19.166 3.61901 19.1447 3.72577 19.1L9.27577 17.0875L9.15077 17.3375C8.61696 18.4799 8.37981 19.7385 8.46123 20.9968C8.54265 22.2551 8.94001 23.4726 9.61659 24.5367C10.2932 25.6008 11.2271 26.4771 12.3321 27.0846C13.437 27.6922 14.6773 28.0113 15.9383 28.0125C16.8161 28.0114 17.6871 27.8592 18.5133 27.5625C18.7604 27.465 18.9615 27.2774 19.0758 27.0375C19.1324 26.9191 19.1639 26.7902 19.1682 26.6589C19.1725 26.5277 19.1495 26.397 19.1008 26.275L17.0883 20.725L17.3383 20.85C18.2171 21.2637 19.1682 21.5015 20.1383 21.55L27.2883 28.7125C27.4794 28.8974 27.7349 29.0007 28.0008 29.0007C28.2667 29.0007 28.5221 28.8974 28.7133 28.7125C28.9011 28.5229 29.0064 28.2669 29.0064 28C29.0064 27.7332 28.9011 27.4771 28.7133 27.2875V27.2875ZM16.3883 4.50004C17.2928 4.92897 18.0638 5.59561 18.6189 6.42872C19.174 7.26184 19.4923 8.23011 19.5398 9.23009C19.5873 10.2301 19.3622 11.2241 18.8886 12.1061C18.415 12.9881 17.7106 13.7248 16.8508 14.2375L13.1508 4.06254C14.2493 3.8755 15.3788 4.02813 16.3883 4.50004ZM13.6133 25.5C12.7087 25.0711 11.9377 24.4045 11.3826 23.5714C10.8275 22.7382 10.5092 21.77 10.4617 20.77C10.4142 19.77 10.6393 18.7759 11.113 17.894C11.5866 17.012 12.2909 16.2753 13.1508 15.7625L16.8508 25.9375C15.7522 26.1246 14.6228 25.9719 13.6133 25.5Z" fill="#49536E"/>
</svg>
