<svg width="32" height="32" viewBox="0 0 32 32" fill="none" xmlns="http://www.w3.org/2000/svg">
<path d="M27.9128 14.5C27.9676 14.9981 27.9968 15.4988 28.0003 16C28.0004 18.2338 27.3769 20.4234 26.2 22.3221C25.0231 24.2209 23.3396 25.7534 21.339 26.7472C19.3383 27.741 17.1 28.1567 14.8759 27.9474C12.6519 27.7381 10.5304 26.9121 8.75033 25.5625C11.8253 24.7875 15.4378 23.25 19.0003 21.2C22.5628 19.15 25.7003 16.775 27.9128 14.5ZM30.7253 7.49997C30.0378 6.31247 28.1878 5.19997 23.2503 6.43747C21.4702 5.08783 19.3488 4.26187 17.1247 4.05255C14.9007 3.84324 12.6623 4.25889 10.6617 5.25271C8.66106 6.24654 6.97755 7.77907 5.80067 9.67781C4.6238 11.5765 4.00029 13.7661 4.00033 16C4.00384 16.5011 4.03304 17.0018 4.08783 17.5C0.550326 21.15 0.600326 23.3125 1.27533 24.5C1.73783 25.3 2.76283 26.1 5.00033 26.1C6.07397 26.0795 7.14242 25.9454 8.18783 25.7L8.75033 25.5625C8.10848 25.0644 7.51427 24.5079 6.97533 23.9C4.63783 24.3125 3.31283 24.025 3.01283 23.5C2.82533 23.175 2.92533 22.5625 3.30033 21.825C3.67284 21.1276 4.1214 20.4736 4.63783 19.875C5.14445 21.3574 5.93881 22.7252 6.97533 23.9L7.75033 23.7375C10.7503 23.075 14.3878 21.55 18.0003 19.4625C21.6128 17.375 24.7503 14.9875 26.8253 12.725C27.0148 12.5344 27.1942 12.3341 27.3628 12.125C26.8562 10.6425 26.0618 9.27469 25.0253 8.09997C25.8073 7.94746 26.6041 7.88455 27.4003 7.91247C28.2253 7.96247 28.8003 8.17497 28.9878 8.49997C29.2878 9.02497 28.8753 10.3125 27.3628 12.125C27.6179 12.8983 27.802 13.6932 27.9128 14.5L28.3003 14.0875C31.4628 10.65 31.3628 8.61247 30.7253 7.49997Z" fill="#49536E"/>
</svg>
