<svg width="32" height="32" viewBox="0 0 32 32" fill="none" xmlns="http://www.w3.org/2000/svg">
<path d="M25.2762 25.1C27.6641 22.673 29.0024 19.4047 29.0024 16C29.0024 12.5952 27.6641 9.32692 25.2762 6.89996C25.2537 6.86479 25.2239 6.83493 25.1887 6.81246C25.1662 6.77729 25.1364 6.74743 25.1012 6.72496C22.6742 4.33706 19.4059 2.99878 16.0012 2.99878C12.5964 2.99878 9.32814 4.33706 6.90118 6.72496C6.86601 6.74743 6.83615 6.77729 6.81368 6.81246C6.77851 6.83493 6.74865 6.86479 6.72618 6.89996C4.33828 9.32692 3 12.5952 3 16C3 19.4047 4.33828 22.673 6.72618 25.1L6.81368 25.1875C6.83615 25.2226 6.86601 25.2525 6.90118 25.275C9.32814 27.6629 12.5964 29.0011 16.0012 29.0011C19.4059 29.0011 22.6742 27.6629 25.1012 25.275C25.1364 25.2525 25.1662 25.2226 25.1887 25.1875C25.2239 25.165 25.2537 25.1351 25.2762 25.1ZM5.05118 17H8.06368C8.24367 18.4227 8.80517 19.7703 9.68868 20.9L7.55118 23.0375C6.12209 21.3267 5.24981 19.2202 5.05118 17V17ZM7.55118 8.96246L9.68868 11.1C8.80517 12.2296 8.24367 13.5772 8.06368 15H5.05118C5.24981 12.7797 6.12209 10.6732 7.55118 8.96246V8.96246ZM26.9512 15H23.9387C23.7587 13.5772 23.1972 12.2296 22.3137 11.1L24.4512 8.96246C25.8803 10.6732 26.7526 12.7797 26.9512 15V15ZM20.9012 9.68746C19.7715 8.80395 18.424 8.24245 17.0012 8.06246V5.04996C19.2214 5.24859 21.328 6.12087 23.0387 7.54996L20.9012 9.68746ZM15.0012 8.06246C13.5784 8.24245 12.2308 8.80395 11.1012 9.68746L8.96368 7.54996C10.6744 6.12087 12.7809 5.24859 15.0012 5.04996V8.06246ZM11.1012 22.3125C12.2308 23.196 13.5784 23.7575 15.0012 23.9375V26.95C12.7809 26.7513 10.6744 25.8791 8.96368 24.45L11.1012 22.3125ZM17.0012 23.9375C18.424 23.7575 19.7715 23.196 20.9012 22.3125L23.0387 24.45C21.328 25.8791 19.2214 26.7513 17.0012 26.95V23.9375ZM22.3137 20.9C23.1972 19.7703 23.7587 18.4227 23.9387 17H26.9512C26.7526 19.2202 25.8803 21.3267 24.4512 23.0375L22.3137 20.9Z" fill="#49536E"/>
</svg>
