<svg width="32" height="32" viewBox="0 0 32 32" fill="none" xmlns="http://www.w3.org/2000/svg">
<path d="M28.8253 6.17498C28.4548 5.80308 28.0146 5.50799 27.5298 5.30664C27.045 5.10529 26.5252 5.00164 26.0003 5.00164C25.4754 5.00164 24.9556 5.10529 24.4708 5.30664C23.986 5.50799 23.5458 5.80308 23.1753 6.17498V6.17498C22.9203 6.42218 22.7015 6.70413 22.5253 7.01248L19.0003 6.04998C19.0089 5.25559 18.7808 4.47663 18.345 3.81238C17.9092 3.14814 17.2855 2.62871 16.5534 2.32031C15.8212 2.0119 15.0138 1.92849 14.2341 2.0807C13.4544 2.23292 12.7377 2.61386 12.1753 3.17498V3.17498C11.573 3.77584 11.1779 4.55309 11.0476 5.39381C10.9172 6.23453 11.0583 7.09492 11.4503 7.84998L7.21279 11.6625C6.44287 11.1537 5.52072 10.9268 4.60262 11.0202C3.68452 11.1136 2.82696 11.5216 2.17529 12.175V12.175C1.80339 12.5454 1.5083 12.9857 1.30695 13.4705C1.1056 13.9553 1.00195 14.475 1.00195 15C1.00195 15.5249 1.1056 16.0447 1.30695 16.5295C1.5083 17.0142 1.80339 17.4545 2.17529 17.825C2.54437 18.1989 2.98432 18.4954 3.4694 18.6971C3.95448 18.8989 4.47493 19.0018 5.00029 19C5.92453 19.0012 6.82085 18.6833 7.53779 18.1L16.2878 24.5125C15.9976 25.2393 15.927 26.0353 16.0848 26.8018C16.2426 27.5684 16.6217 28.2718 17.1753 28.825C17.5458 29.1969 17.986 29.492 18.4708 29.6933C18.9556 29.8947 19.4754 29.9983 20.0003 29.9983C20.5252 29.9983 21.045 29.8947 21.5298 29.6933C22.0146 29.492 22.4548 29.1969 22.8253 28.825C23.1972 28.4545 23.4923 28.0143 23.6936 27.5295C23.895 27.0447 23.9986 26.5249 23.9986 26C23.9986 25.475 23.895 24.9553 23.6936 24.4705C23.4923 23.9857 23.1972 23.5454 22.8253 23.175C22.6416 22.9945 22.4453 22.8275 22.2378 22.675L25.6503 12.9875H26.0003C26.5256 12.9893 27.0461 12.8864 27.5312 12.6846C28.0163 12.4829 28.4562 12.1864 28.8253 11.8125C29.5726 11.0647 29.9924 10.0509 29.9924 8.99373C29.9924 7.93659 29.5726 6.92271 28.8253 6.17498V6.17498ZM20.3503 22.0125C19.3093 21.9249 18.2748 22.2428 17.4628 22.9L8.71279 16.4875C8.92469 15.9516 9.0198 15.3767 8.99178 14.8012C8.96376 14.2256 8.81324 13.6627 8.55029 13.15L12.7878 9.33748C13.4454 9.76837 14.2141 9.99857 15.0003 9.99998C15.5256 10.0018 16.0461 9.89887 16.5312 9.69711C17.0163 9.49535 17.4562 9.19886 17.8253 8.82498C18.0803 8.57778 18.2991 8.29583 18.4753 7.98748L22.0003 8.94998C21.9917 9.48372 22.0914 10.0137 22.2934 10.5078C22.4953 11.0019 22.7953 11.45 23.1753 11.825C23.359 12.0054 23.5553 12.1725 23.7628 12.325L20.3503 22.0125Z" fill="#49536E"/>
</svg>
