<svg width="32" height="32" viewBox="0 0 32 32" fill="none" xmlns="http://www.w3.org/2000/svg">
<path d="M28.013 9.98762L27.9755 9.93762C27.8951 9.13806 27.64 8.36592 27.2283 7.67578C26.8167 6.98563 26.2585 6.39432 25.5932 5.94362C24.9279 5.49293 24.1717 5.19386 23.3781 5.06754C22.5845 4.94123 21.7728 4.99075 21.0005 5.21262C20.5617 4.2552 19.8573 3.44388 18.971 2.87508C18.0846 2.30628 17.0536 2.00391 16.0005 2.00391C14.9473 2.00391 13.9163 2.30628 13.03 2.87508C12.1436 3.44388 11.4392 4.2552 11.0005 5.21262C10.2281 4.99075 9.41646 4.94123 8.62286 5.06754C7.82925 5.19386 7.07308 5.49293 6.40777 5.94362C5.74246 6.39432 5.18426 6.98563 4.77261 7.67578C4.36095 8.36592 4.1059 9.13806 4.02548 9.93762L3.98798 9.98762C3.73188 10.2246 3.5436 10.5256 3.44253 10.8596C3.34146 11.1935 3.33126 11.5484 3.41298 11.8876L6.85048 26.4626C6.95217 26.9001 7.19907 27.2903 7.55092 27.5695C7.90276 27.8487 8.33881 28.0005 8.78798 28.0001H23.213C23.6621 28.0005 24.0982 27.8487 24.45 27.5695C24.8019 27.2903 25.0488 26.9001 25.1505 26.4626L28.588 11.8876C28.6697 11.5484 28.6595 11.1935 28.5584 10.8596C28.4574 10.5256 28.2691 10.2246 28.013 9.98762V9.98762ZM9.50048 7.00012C10.0722 6.9988 10.6351 7.14061 11.138 7.41262C11.2751 7.48136 11.4256 7.51922 11.579 7.52354C11.7323 7.52786 11.8847 7.49853 12.0255 7.43762C12.1662 7.37128 12.29 7.27378 12.3875 7.1525C12.4849 7.03121 12.5535 6.88934 12.588 6.73762C12.7642 5.96435 13.1978 5.27386 13.8178 4.77928C14.4378 4.28469 15.2074 4.01534 16.0005 4.01534C16.7936 4.01534 17.5631 4.28469 18.1831 4.77928C18.8031 5.27386 19.2367 5.96435 19.413 6.73762C19.4475 6.88934 19.516 7.03121 19.6135 7.1525C19.7109 7.27378 19.8347 7.37128 19.9755 7.43762C20.1163 7.49853 20.2687 7.52786 20.422 7.52354C20.5753 7.51922 20.7259 7.48136 20.863 7.41262C21.3658 7.14061 21.9288 6.9988 22.5005 7.00012C23.2658 6.99949 24.0103 7.24974 24.6199 7.71255C25.2294 8.17537 25.6705 8.82523 25.8755 9.56262L21.0505 10.9501L16.738 9.22512C16.5047 9.1261 16.2539 9.07507 16.0005 9.07507C15.7471 9.07507 15.4962 9.1261 15.263 9.22512L10.9505 10.9501L6.12548 9.56262C6.33048 8.82523 6.77154 8.17537 7.3811 7.71255C7.99066 7.24974 8.73512 6.99949 9.50048 7.00012V7.00012ZM5.36298 11.4251L10.1005 12.7876L11.863 26.0001H8.78798L5.36298 11.4251ZM23.213 26.0001H20.138L21.9005 12.7876L26.638 11.4251L23.213 26.0001Z" fill="#49536E"/>
</svg>
