<svg width="32" height="32" viewBox="0 0 32 32" fill="none" xmlns="http://www.w3.org/2000/svg">
<path d="M26.7379 26.3249C26.828 26.4209 26.8981 26.5341 26.9438 26.6576C26.9896 26.7812 27.0102 26.9127 27.0044 27.0443C26.9985 27.1759 26.9664 27.3051 26.9099 27.4241C26.8534 27.5431 26.7737 27.6496 26.6754 27.7374C26.4898 27.9041 26.2498 27.9974 26.0004 27.9999C25.8616 27.9998 25.7244 27.9709 25.5974 27.915C25.4705 27.859 25.3565 27.7772 25.2629 27.6749L21.9629 24.0374C21.6504 25.8124 20.7254 27.3124 20.0379 28.2249C19.8643 28.4538 19.6442 28.6434 19.3922 28.7813C19.1401 28.9192 18.8618 29.0022 18.5754 29.0249H18.4379C17.9081 29.0226 17.4005 28.8115 17.0254 28.4374L11.0004 22.4124L6.71288 26.7124C6.52174 26.8972 6.26627 27.0005 6.00038 27.0005C5.7345 27.0005 5.47902 26.8972 5.28788 26.7124C5.1001 26.5228 4.99476 26.2667 4.99476 25.9999C4.99476 25.733 5.1001 25.477 5.28788 25.2874L9.58788 20.9999L3.53788 14.9499C3.33719 14.7521 3.18083 14.514 3.07918 14.2512C2.97753 13.9884 2.9329 13.7071 2.94827 13.4257C2.96364 13.1444 3.03864 12.8696 3.16831 12.6194C3.29798 12.3693 3.47935 12.1496 3.70038 11.9749C5.72538 10.3499 7.68788 9.96237 9.18788 9.99987L5.26288 5.67487C5.09057 5.47822 5.00213 5.2219 5.01652 4.96082C5.0309 4.69975 5.14697 4.4547 5.33984 4.27817C5.53272 4.10164 5.78707 4.00767 6.04839 4.0164C6.30971 4.02513 6.55722 4.13586 6.73788 4.32487L26.7379 26.3249ZM29.0004 10.5874L21.4129 2.99987C21.0364 2.62887 20.529 2.4209 20.0004 2.4209C19.4718 2.4209 18.9644 2.62887 18.5879 2.99987L13.8379 7.74987C13.6569 7.93075 13.5522 8.17412 13.5452 8.4299C13.5382 8.68568 13.6295 8.9344 13.8004 9.12487L22.3754 18.5499C22.4655 18.6509 22.5751 18.7328 22.6974 18.7908C22.8198 18.8488 22.9526 18.8816 23.0879 18.8874H23.1129C23.2456 18.8872 23.377 18.8605 23.4993 18.809C23.6216 18.7575 23.7325 18.6822 23.8254 18.5874L29.0004 13.4124C29.1871 13.2276 29.3353 13.0076 29.4364 12.7651C29.5376 12.5227 29.5897 12.2626 29.5897 11.9999C29.5897 11.7372 29.5376 11.4771 29.4364 11.2346C29.3353 10.9922 29.1871 10.7722 29.0004 10.5874V10.5874Z" fill="#49536E"/>
</svg>
