<svg width="32" height="32" viewBox="0 0 32 32" fill="none" xmlns="http://www.w3.org/2000/svg">
<path d="M29.0004 13.4124L21.6879 20.7249C22.2504 22.3124 22.4879 24.9624 20.0379 28.2249C19.8643 28.4538 19.6442 28.6434 19.3922 28.7813C19.1401 28.9192 18.8618 29.0022 18.5754 29.0249H18.4379C17.9081 29.0226 17.4005 28.8115 17.0254 28.4374L11.0004 22.4124L6.71288 26.7124C6.52174 26.8972 6.26627 27.0005 6.00038 27.0005C5.7345 27.0005 5.47902 26.8972 5.28788 26.7124C5.1001 26.5228 4.99476 26.2667 4.99476 25.9999C4.99476 25.733 5.1001 25.477 5.28788 25.2874L9.58788 20.9999L3.53788 14.9499C3.33719 14.7521 3.18083 14.514 3.07918 14.2512C2.97753 13.9884 2.9329 13.7071 2.94827 13.4257C2.96364 13.1444 3.03864 12.8696 3.16831 12.6194C3.29798 12.3693 3.47935 12.1496 3.70038 11.9749C6.87538 9.41237 9.91288 9.92487 11.2504 10.3374L18.5879 2.99987C18.9644 2.62887 19.4718 2.4209 20.0004 2.4209C20.529 2.4209 21.0364 2.62887 21.4129 2.99987L29.0004 10.5874C29.1871 10.7722 29.3353 10.9922 29.4364 11.2346C29.5376 11.4771 29.5897 11.7372 29.5897 11.9999C29.5897 12.2626 29.5376 12.5227 29.4364 12.7651C29.3353 13.0076 29.1871 13.2276 29.0004 13.4124V13.4124Z" fill="#49536E"/>
</svg>
