<svg width="32" height="32" viewBox="0 0 32 32" fill="none" xmlns="http://www.w3.org/2000/svg">
<path d="M9.0007 26C8.79722 25.9984 8.59893 25.9355 8.4317 25.8196C8.26447 25.7036 8.13605 25.54 8.0632 25.35L2.0632 9.34997C2.01724 9.22686 1.99598 9.09589 2.00063 8.96456C2.00528 8.83323 2.03575 8.7041 2.0903 8.58455C2.20048 8.34309 2.40206 8.1553 2.6507 8.06247C2.89934 7.96965 3.17468 7.97939 3.41613 8.08957C3.65758 8.19975 3.84538 8.40133 3.9382 8.64997L9.0007 22.15L14.0632 8.64997C14.1361 8.45996 14.2645 8.29632 14.4317 8.18037C14.5989 8.06442 14.7972 8.00156 15.0007 7.99997H29.0007C29.2659 7.99997 29.5203 8.10533 29.7078 8.29286C29.8953 8.4804 30.0007 8.73475 30.0007 8.99997V12C30.0007 12.2652 29.8953 12.5195 29.7078 12.7071C29.5203 12.8946 29.2659 13 29.0007 13C28.7355 13 28.4811 12.8946 28.2936 12.7071C28.1061 12.5195 28.0007 12.2652 28.0007 12V9.99997H15.6882L9.9382 25.35C9.86535 25.54 9.73694 25.7036 9.56971 25.8196C9.40248 25.9355 9.20419 25.9984 9.0007 26V26Z" fill="#49536E"/>
</svg>
