<svg width="32" height="32" viewBox="0 0 32 32" fill="none" xmlns="http://www.w3.org/2000/svg">
<path d="M29.5997 25.5C29.3372 25.9572 28.9584 26.3368 28.5017 26.6003C28.0451 26.8637 27.5268 27.0017 26.9997 27H19.9997V29C20.0003 29.1975 19.9424 29.3907 19.8334 29.5553C19.7244 29.7199 19.5692 29.8485 19.3872 29.925C19.2638 29.974 19.1324 29.9995 18.9997 30C18.7341 29.9989 18.4791 29.896 18.2872 29.7125L15.2872 26.7C15.1956 26.608 15.123 26.4988 15.0737 26.3787C15.0244 26.2586 14.9992 26.1299 14.9997 26C14.9982 25.734 15.1014 25.478 15.2872 25.2875L18.2872 22.2875C18.4317 22.1519 18.6118 22.0599 18.8064 22.0223C19.0011 21.9847 19.2024 22.003 19.3872 22.075C19.5692 22.1515 19.7244 22.2802 19.8334 22.4448C19.9424 22.6094 20.0003 22.8026 19.9997 23V25H26.9997C27.1748 25.0007 27.3471 24.9547 27.4986 24.8669C27.6502 24.779 27.7757 24.6524 27.8622 24.5C27.9524 24.3489 28.0001 24.1761 28.0001 24C28.0001 23.824 27.9524 23.6512 27.8622 23.5L24.8622 18.325C24.7295 18.0946 24.6939 17.821 24.7631 17.5643C24.8322 17.3076 25.0005 17.0889 25.2309 16.9563C25.4613 16.8237 25.735 16.788 25.9916 16.8572C26.2483 16.9263 26.467 17.0946 26.5997 17.325L29.5872 22.5C29.8561 22.9537 29.999 23.471 30.0012 23.9983C30.0034 24.5257 29.8648 25.0441 29.5997 25.5ZM10.9997 25H4.99965C4.82446 25.0007 4.65224 24.9547 4.50068 24.8669C4.34911 24.779 4.22364 24.6524 4.13715 24.5C4.04686 24.3489 3.99919 24.1761 3.99919 24C3.99919 23.824 4.04686 23.6512 4.13715 23.5L7.63715 17.4625L9.37465 18.4625C9.52633 18.5515 9.6988 18.599 9.87465 18.6C10.0928 18.5983 10.3041 18.5235 10.4747 18.3875C10.6321 18.268 10.7506 18.1044 10.8151 17.9175C10.8796 17.7306 10.8873 17.5288 10.8372 17.3375L9.73715 13.2375C9.66644 12.9852 9.50065 12.7702 9.27465 12.6375C9.16126 12.5694 9.03502 12.5253 8.90383 12.5081C8.77263 12.4909 8.6393 12.5009 8.51215 12.5375L4.41215 13.625C4.22223 13.6777 4.05209 13.7852 3.9231 13.9342C3.79411 14.0832 3.71202 14.267 3.68715 14.4625C3.65853 14.6589 3.68973 14.8593 3.77668 15.0377C3.86364 15.2161 4.00233 15.3641 4.17465 15.4625L5.89965 16.4625L2.41215 22.5C2.14524 22.9547 2.00339 23.4719 2.00101 23.9991C1.99863 24.5263 2.1358 25.0447 2.39859 25.5017C2.66139 25.9588 3.04045 26.3381 3.49728 26.6013C3.95412 26.8644 4.47245 27.002 4.99965 27H10.9997C11.2649 27 11.5192 26.8947 11.7068 26.7071C11.8943 26.5196 11.9997 26.2653 11.9997 26C11.9997 25.7348 11.8943 25.4805 11.7068 25.2929C11.5192 25.1054 11.2649 25 10.9997 25ZM15.9997 4.00004C16.1751 3.99806 16.3478 4.04347 16.4996 4.13147C16.6514 4.21947 16.7767 4.3468 16.8622 4.50004L20.3622 10.5375L18.6372 11.5375C18.4627 11.633 18.3211 11.779 18.231 11.9563C18.1408 12.1336 18.1063 12.334 18.132 12.5312C18.1577 12.7285 18.2423 12.9134 18.3748 13.0617C18.5073 13.21 18.6815 13.3149 18.8747 13.3625L22.9747 14.4625L23.2247 14.5C23.4453 14.5002 23.66 14.4282 23.836 14.295C24.012 14.1619 24.1397 13.9749 24.1997 13.7625L25.2997 9.66254C25.3508 9.46943 25.3436 9.26551 25.2791 9.07645C25.2146 8.88739 25.0957 8.72163 24.9372 8.60004C24.7788 8.48043 24.5885 8.41062 24.3904 8.39949C24.1923 8.38836 23.9954 8.43641 23.8247 8.53754L22.0872 9.53754L18.5997 3.50004C18.3366 3.04308 17.9578 2.66352 17.5013 2.39959C17.0449 2.13567 16.5269 1.9967 15.9997 1.9967C15.4724 1.9967 14.9544 2.13567 14.498 2.39959C14.0415 2.66352 13.6627 3.04308 13.3997 3.50004L10.4122 8.67504C10.3339 8.78858 10.28 8.91708 10.2537 9.05247C10.2275 9.18785 10.2296 9.3272 10.2598 9.46174C10.29 9.59629 10.3478 9.72313 10.4294 9.8343C10.511 9.94547 10.6147 10.0386 10.734 10.1077C10.8533 10.1769 10.9856 10.2206 11.1226 10.2362C11.2596 10.2518 11.3984 10.2388 11.5302 10.1982C11.6619 10.1575 11.7839 10.0901 11.8884 10.0001C11.9928 9.91004 12.0775 9.79938 12.1372 9.67504L15.1372 4.50004C15.2226 4.3468 15.3479 4.21947 15.4997 4.13147C15.6515 4.04347 15.8242 3.99806 15.9997 4.00004Z" fill="#49536E"/>
</svg>
