<svg width="32" height="32" viewBox="0 0 32 32" fill="none" xmlns="http://www.w3.org/2000/svg">
<path d="M30.9998 12.9999C30.999 12.2342 30.7785 11.4848 30.3644 10.8407C29.9503 10.1967 29.3601 9.68498 28.6638 9.36645C27.9675 9.04792 27.1944 8.93593 26.4363 9.04378C25.6783 9.15164 24.9671 9.47481 24.3873 9.9749C22.2873 8.8624 19.7873 8.1874 17.1748 8.0374L17.8248 4.1374L20.5498 4.5624C20.6776 5.26524 21.05 5.90015 21.6011 6.3547C22.1522 6.80925 22.8464 7.0541 23.5607 7.04589C24.275 7.03768 24.9634 6.77694 25.5039 6.30984C26.0444 5.84275 26.4021 5.19944 26.5138 4.49385C26.6254 3.78827 26.4838 3.06594 26.1139 2.45479C25.744 1.84365 25.1697 1.38312 24.4928 1.15479C23.816 0.926449 23.0801 0.94503 22.4156 1.20724C21.7511 1.46945 21.2008 1.95837 20.8623 2.5874L17.1498 2.0124C16.8898 1.9727 16.6246 2.03702 16.4117 2.19144C16.1988 2.34586 16.0553 2.57793 16.0123 2.8374L15.1498 8.0249C12.4248 8.1374 9.79977 8.8124 7.61227 9.9749C6.815 9.31574 5.79337 8.99109 4.76185 9.06909C3.73032 9.1471 2.76913 9.6217 2.08006 10.3933C1.39099 11.1648 1.02763 12.1733 1.06627 13.2071C1.10491 14.2408 1.54253 15.2194 2.28727 15.9374C2.09818 16.6086 2.00146 17.3025 1.99977 17.9999C1.99977 20.7374 3.49977 23.2999 6.23727 25.1874C8.97477 27.0749 12.3248 27.9999 15.9998 27.9999C19.6748 27.9999 23.1373 26.9999 25.7623 25.1874C28.3873 23.3749 29.9998 20.7374 29.9998 17.9999C29.999 17.3066 29.9022 16.6167 29.7123 15.9499C30.1171 15.5723 30.4402 15.1157 30.6617 14.6083C30.8831 14.1009 30.9982 13.5535 30.9998 12.9999V12.9999ZM8.99977 16.4999C8.99977 16.1043 9.11707 15.7177 9.33683 15.3888C9.55659 15.0599 9.86895 14.8035 10.2344 14.6521C10.5999 14.5008 11.002 14.4612 11.39 14.5383C11.7779 14.6155 12.1343 14.806 12.414 15.0857C12.6937 15.3654 12.8842 15.7218 12.9613 16.1097C13.0385 16.4977 12.9989 16.8998 12.8475 17.2653C12.6962 17.6307 12.4398 17.9431 12.1109 18.1628C11.782 18.3826 11.3953 18.4999 10.9998 18.4999C10.4693 18.4999 9.96063 18.2892 9.58556 17.9141C9.21049 17.539 8.99977 17.0303 8.99977 16.4999ZM20.5873 22.8874C19.1686 23.6187 17.5958 24.0002 15.9998 24.0002C14.4038 24.0002 12.8309 23.6187 11.4123 22.8874C11.1943 22.7569 11.0342 22.5483 10.9645 22.3041C10.8947 22.0598 10.9205 21.7982 11.0367 21.5723C11.1528 21.3463 11.3506 21.1731 11.5898 21.0877C11.829 21.0023 12.0918 21.0111 12.3248 21.1124C13.4613 21.6979 14.7213 22.0033 15.9998 22.0033C17.2783 22.0033 18.5382 21.6979 19.6748 21.1124C19.9077 21.0111 20.1705 21.0023 20.4097 21.0877C20.649 21.1731 20.8467 21.3463 20.9629 21.5723C21.079 21.7982 21.1048 22.0598 21.0351 22.3041C20.9653 22.5483 20.8052 22.7569 20.5873 22.8874ZM20.9998 18.4999C20.6042 18.4999 20.2175 18.3826 19.8886 18.1628C19.5597 17.9431 19.3034 17.6307 19.152 17.2653C19.0006 16.8998 18.961 16.4977 19.0382 16.1097C19.1154 15.7218 19.3059 15.3654 19.5856 15.0857C19.8653 14.806 20.2216 14.6155 20.6096 14.5383C20.9976 14.4612 21.3997 14.5008 21.7651 14.6521C22.1306 14.8035 22.4429 15.0599 22.6627 15.3888C22.8825 15.7177 22.9998 16.1043 22.9998 16.4999C22.9998 17.0303 22.7891 17.539 22.414 17.9141C22.0389 18.2892 21.5302 18.4999 20.9998 18.4999Z" fill="#49536E"/>
</svg>
