<svg width="32" height="32" viewBox="0 0 32 32" fill="none" xmlns="http://www.w3.org/2000/svg">
<path d="M2.99977 16C3.00307 13.614 3.95235 11.3268 5.63946 9.63964C7.32657 7.95253 9.61383 7.00326 11.9998 6.99995H23.9998V4.99995C23.9991 4.80253 24.057 4.60934 24.166 4.44473C24.275 4.28012 24.4303 4.15145 24.6123 4.07495C24.797 4.00291 24.9983 3.98463 25.193 4.02223C25.3876 4.05984 25.5677 4.15179 25.7123 4.28745L28.7123 7.28745C28.9 7.47705 29.0054 7.7331 29.0054 7.99995C29.0054 8.2668 28.9 8.52286 28.7123 8.71245L25.7123 11.7125C25.5203 11.8959 25.2653 11.9988 24.9998 12C24.867 11.9994 24.7356 11.9739 24.6123 11.925C24.4303 11.8485 24.275 11.7198 24.166 11.5552C24.057 11.3906 23.9991 11.1974 23.9998 11V8.99995H11.9998C10.1432 8.99995 8.36277 9.73745 7.05002 11.0502C5.73726 12.363 4.99977 14.1434 4.99977 16C4.99977 16.2652 4.89441 16.5195 4.70687 16.7071C4.51934 16.8946 4.26498 17 3.99977 17C3.73455 17 3.4802 16.8946 3.29266 16.7071C3.10512 16.5195 2.99977 16.2652 2.99977 16ZM27.9998 15C27.7345 15 27.4802 15.1053 27.2927 15.2928C27.1051 15.4804 26.9998 15.7347 26.9998 16C26.9998 17.8565 26.2623 19.6369 24.9495 20.9497C23.6368 22.2625 21.8563 23 19.9998 23H7.99977V21C8.00038 20.8025 7.94255 20.6093 7.83355 20.4447C7.72455 20.2801 7.56927 20.1515 7.38727 20.075C7.20256 20.0029 7.00122 19.9846 6.80656 20.0222C6.61189 20.0598 6.43185 20.1518 6.28727 20.2875L3.28727 23.2875C3.09948 23.477 2.99414 23.7331 2.99414 24C2.99414 24.2668 3.09948 24.5229 3.28727 24.7125L6.28727 27.7125C6.47922 27.8959 6.73423 27.9988 6.99977 28C7.13248 27.9994 7.26392 27.9739 7.38727 27.925C7.56927 27.8484 7.72455 27.7198 7.83355 27.5552C7.94255 27.3906 8.00038 27.1974 7.99977 27V25H19.9998C22.3857 24.9966 24.673 24.0474 26.3601 22.3603C28.0472 20.6731 28.9965 18.3859 28.9998 16C28.9998 15.7347 28.8944 15.4804 28.7069 15.2928C28.5193 15.1053 28.265 15 27.9998 15ZM16.4998 20C16.765 20 17.0193 19.8946 17.2069 19.7071C17.3944 19.5195 17.4998 19.2652 17.4998 19V13C17.5008 12.8293 17.4576 12.6613 17.3743 12.5123C17.2911 12.3634 17.1706 12.2385 17.0248 12.15C16.8801 12.059 16.7145 12.0066 16.5438 11.9979C16.3731 11.9891 16.203 12.0243 16.0498 12.1L14.0498 13.1C13.8146 13.2229 13.6362 13.4324 13.5523 13.6841C13.4684 13.9359 13.4854 14.2105 13.5998 14.45C13.7225 14.6853 13.9328 14.863 14.1853 14.9448C14.4378 15.0266 14.7123 15.006 14.9498 14.8875L15.4998 14.6125V19C15.4998 19.2652 15.6051 19.5195 15.7927 19.7071C15.9802 19.8946 16.2345 20 16.4998 20Z" fill="#49536E"/>
</svg>
