<svg width="32" height="32" viewBox="0 0 32 32" fill="none" xmlns="http://www.w3.org/2000/svg">
<path d="M1.26162 14.3125L12.4116 7.15001C12.7142 6.95396 13.0642 6.84335 13.4244 6.82989C13.7847 6.81642 14.142 6.9006 14.4583 7.07352C14.7747 7.24643 15.0385 7.50165 15.2217 7.81218C15.4049 8.1227 15.5007 8.47697 15.4991 8.83751V14.1625L26.4116 7.15001C26.7142 6.95396 27.0641 6.84335 27.4244 6.82989C27.7847 6.81642 28.142 6.9006 28.4583 7.07352C28.7747 7.24643 29.0385 7.50165 29.2217 7.81218C29.4049 8.1227 29.5007 8.47697 29.4991 8.83751V23.1625C29.4995 23.5222 29.4034 23.8754 29.2209 24.1854C29.0385 24.4953 28.7763 24.7508 28.4616 24.925C28.1431 25.0924 27.7863 25.1736 27.4266 25.1604C27.067 25.1473 26.7171 25.0403 26.4116 24.85L15.4991 17.8375V23.1625C15.4995 23.5222 15.4034 23.8754 15.2209 24.1854C15.0385 24.4953 14.7763 24.7508 14.4616 24.925C14.1431 25.0924 13.7863 25.1736 13.4266 25.1604C13.067 25.1473 12.7171 25.0403 12.4116 24.85L1.26162 17.6875C0.980453 17.5048 0.749396 17.2547 0.589442 16.96C0.429487 16.6653 0.345703 16.3353 0.345703 16C0.345703 15.6647 0.429487 15.3347 0.589442 15.04C0.749396 14.7453 0.980453 14.4952 1.26162 14.3125V14.3125Z" fill="#49536E"/>
</svg>
