<svg width="32" height="32" viewBox="0 0 32 32" fill="none" xmlns="http://www.w3.org/2000/svg">
<path d="M18 27H14C13.7348 27 13.4804 27.1054 13.2929 27.2929C13.1054 27.4804 13 27.7348 13 28C13 28.2652 13.1054 28.5196 13.2929 28.7071C13.4804 28.8946 13.7348 29 14 29H18C18.2652 29 18.5196 28.8946 18.7071 28.7071C18.8946 28.5196 19 28.2652 19 28C19 27.7348 18.8946 27.4804 18.7071 27.2929C18.5196 27.1054 18.2652 27 18 27Z" fill="#49536E"/>
<path d="M27.4495 17.9875L23.6745 13.45C23.5516 11.9555 23.2148 10.4864 22.6745 9.08754C21.2245 5.31254 18.662 2.83754 17.2495 1.70004C16.8972 1.4121 16.4567 1.25376 16.0017 1.25149C15.5467 1.24921 15.1047 1.40314 14.7495 1.68754C13.3245 2.82504 10.7245 5.30004 9.26201 9.07504C8.70107 10.5029 8.3597 12.0074 8.24951 13.5375L4.54951 17.9875C4.35325 18.222 4.21297 18.498 4.13933 18.7947C4.06569 19.0915 4.06062 19.4011 4.12451 19.7L5.67451 26.65C5.74743 26.9816 5.90405 27.2889 6.12943 27.5427C6.35481 27.7965 6.64144 27.9884 6.96201 28.1C7.17946 28.1738 7.40741 28.2118 7.63701 28.2125C8.08698 28.2101 8.52297 28.0559 8.87451 27.775L12.3495 25H19.6495L23.1245 27.775C23.476 28.0559 23.912 28.2101 24.362 28.2125C24.5916 28.2118 24.8196 28.1738 25.037 28.1C25.3576 27.9884 25.6442 27.7965 25.8696 27.5427C26.095 27.2889 26.2516 26.9816 26.3245 26.65L27.8745 19.7C27.9384 19.4011 27.9333 19.0915 27.8597 18.7947C27.7861 18.498 27.6458 18.222 27.4495 17.9875V17.9875ZM7.62451 26.2125L6.08701 19.2625L8.32451 16.575C8.61618 18.9167 9.41201 21.3084 10.712 23.75L7.62451 26.2125ZM15.9995 13.5C15.7028 13.5 15.4128 13.4121 15.1662 13.2472C14.9195 13.0824 14.7272 12.8482 14.6137 12.5741C14.5002 12.3 14.4705 11.9984 14.5283 11.7074C14.5862 11.4164 14.7291 11.1492 14.9389 10.9394C15.1486 10.7296 15.4159 10.5867 15.7069 10.5289C15.9978 10.471 16.2994 10.5007 16.5735 10.6142C16.8476 10.7278 17.0819 10.92 17.2467 11.1667C17.4115 11.4134 17.4995 11.7034 17.4995 12C17.4995 12.3979 17.3415 12.7794 17.0602 13.0607C16.7789 13.342 16.3973 13.5 15.9995 13.5ZM24.3745 26.2125L21.2745 23.7375C22.5745 21.275 23.3495 18.8625 23.6245 16.5125L25.912 19.2625L24.3745 26.2125Z" fill="#49536E"/>
</svg>
