<svg width="32" height="32" viewBox="0 0 32 32" fill="none" xmlns="http://www.w3.org/2000/svg">
<path d="M12.075 22.125C11.9511 22.0819 11.8199 22.064 11.689 22.0722C11.5582 22.0804 11.4302 22.1146 11.3127 22.1727C11.1952 22.2309 11.0904 22.3119 11.0045 22.411C10.9187 22.5101 10.8534 22.6254 10.8125 22.75C9.9875 25.2125 7.325 25.975 5.7875 26.2125C6.025 24.675 6.7875 22.0125 9.25 21.1875C9.38484 21.1548 9.5114 21.0944 9.62165 21.0102C9.73189 20.926 9.82341 20.8198 9.89037 20.6983C9.95733 20.5767 9.99828 20.4426 10.0106 20.3045C10.0229 20.1663 10.0064 20.027 9.96199 19.8956C9.9176 19.7641 9.84634 19.6434 9.75275 19.541C9.65916 19.4386 9.54528 19.3567 9.41836 19.3007C9.29143 19.2447 9.15424 19.2157 9.01551 19.2156C8.87677 19.2154 8.73953 19.2442 8.6125 19.3C6.5625 19.975 5.0625 21.6 4.2625 23.9875C3.90803 25.0614 3.71427 26.1819 3.6875 27.3125C3.6875 27.5777 3.79286 27.832 3.98039 28.0196C4.16793 28.2071 4.42228 28.3125 4.6875 28.3125C5.81811 28.2857 6.93856 28.0919 8.0125 27.7375C10.4 26.9375 12.025 25.4375 12.7 23.3875C12.7431 23.2636 12.761 23.1324 12.7528 23.0015C12.7446 22.8706 12.7104 22.7427 12.6522 22.6252C12.594 22.5076 12.513 22.4029 12.4139 22.317C12.3148 22.2311 12.1996 22.1658 12.075 22.125Z" fill="#49536E"/>
<path d="M28.4493 5.22492C28.3907 4.80137 28.1953 4.40855 27.893 4.10621C27.5906 3.80386 27.1978 3.60853 26.7743 3.54992C25.3618 3.33742 21.6993 3.23742 18.1243 6.81242L16.9993 7.92492H9.33677C8.80723 7.92853 8.30017 8.13943 7.92427 8.51242L3.88677 12.5624C3.63075 12.817 3.44893 13.1366 3.36084 13.4868C3.27275 13.8369 3.28171 14.2045 3.38677 14.5499C3.491 14.8979 3.68803 15.2109 3.9567 15.4553C4.22537 15.6998 4.55554 15.8664 4.91177 15.9374L9.84927 16.9249L15.0743 22.1499L16.0618 27.0874C16.1328 27.4437 16.2994 27.7738 16.5439 28.0425C16.7883 28.3112 17.1013 28.5082 17.4493 28.6124C17.6351 28.6719 17.8292 28.7015 18.0243 28.6999C18.2872 28.7023 18.5478 28.6514 18.7905 28.5505C19.0333 28.4495 19.2531 28.3005 19.4368 28.1124L23.4868 24.0749C23.8598 23.699 24.0707 23.192 24.0743 22.6624V14.9999L25.1868 13.8749C28.7618 10.2999 28.6618 6.63742 28.4493 5.22492ZM9.33677 9.92492H14.9993L10.0118 14.9124L5.29927 13.9749L9.33677 9.92492ZM22.0743 22.6624L18.0243 26.6999L17.0868 21.9874L22.0743 16.9999V22.6624Z" fill="#49536E"/>
</svg>
