<svg width="32" height="32" viewBox="0 0 32 32" fill="none" xmlns="http://www.w3.org/2000/svg">
<path d="M12.3625 19.6375C13.2005 20.4712 13.8651 21.4628 14.3178 22.5548C14.7705 23.6469 15.0024 24.8178 15 26C15 26.2652 14.8946 26.5195 14.7071 26.7071C14.5196 26.8946 14.2652 27 14 27C13.7348 27 13.4804 26.8946 13.2929 26.7071C13.1054 26.5195 13 26.2652 13 26C13 24.1434 12.2625 22.363 10.9497 21.0502C9.63699 19.7375 7.85652 19 6 19C5.73478 19 5.48043 18.8946 5.29289 18.7071C5.10536 18.5195 5 18.2652 5 18C5 17.7347 5.10536 17.4804 5.29289 17.2929C5.48043 17.1053 5.73478 17 6 17C7.18216 16.9976 8.35307 17.2295 9.44512 17.6822C10.5372 18.1349 11.5287 18.7994 12.3625 19.6375V19.6375ZM6 11C5.73478 11 5.48043 11.1053 5.29289 11.2929C5.10536 11.4804 5 11.7347 5 12C5 12.2652 5.10536 12.5195 5.29289 12.7071C5.48043 12.8946 5.73478 13 6 13C7.70782 12.9937 9.3998 13.3276 10.9772 13.9821C12.5546 14.6367 13.9859 15.5989 15.1875 16.8125C16.4011 18.0141 17.3633 19.4453 18.0178 21.0228C18.6724 22.6002 19.0063 24.2921 19 26C19 26.2652 19.1054 26.5195 19.2929 26.7071C19.4804 26.8946 19.7348 27 20 27C20.2652 27 20.5196 26.8946 20.7071 26.7071C20.8946 26.5195 21 26.2652 21 26C21.0054 24.0279 20.6193 22.0743 19.864 20.2526C19.1087 18.4309 17.9992 16.7772 16.6 15.3875C15.2103 13.9925 13.5581 12.8867 11.7388 12.1336C9.91946 11.3806 7.96901 10.9953 6 11V11ZM20.85 11.15C18.9044 9.19386 16.5901 7.6431 14.041 6.58745C11.492 5.5318 8.75895 4.99222 6 4.99996C5.73478 4.99996 5.48043 5.10532 5.29289 5.29285C5.10536 5.48039 5 5.73474 5 5.99996C5 6.26518 5.10536 6.51953 5.29289 6.70707C5.48043 6.8946 5.73478 6.99996 6 6.99996C8.49627 6.99315 10.9691 7.48124 13.2756 8.43601C15.5821 9.39078 17.6764 10.7933 19.4375 12.5625C21.2067 14.3236 22.6092 16.4179 23.5639 18.7244C24.5187 21.0308 25.0068 23.5037 25 26C25 26.2652 25.1054 26.5195 25.2929 26.7071C25.4804 26.8946 25.7348 27 26 27C26.2652 27 26.5196 26.8946 26.7071 26.7071C26.8946 26.5195 27 26.2652 27 26C27.0077 23.241 26.4682 20.5079 25.4125 17.9589C24.3569 15.4099 22.8061 13.0956 20.85 11.15V11.15ZM6.5 24C6.20333 24 5.91332 24.0879 5.66665 24.2528C5.41997 24.4176 5.22771 24.6518 5.11418 24.9259C5.00065 25.2 4.97094 25.5016 5.02882 25.7926C5.0867 26.0836 5.22956 26.3508 5.43934 26.5606C5.64912 26.7704 5.91639 26.9133 6.20737 26.9711C6.49834 27.029 6.79994 26.9993 7.07403 26.8858C7.34812 26.7722 7.58238 26.58 7.74721 26.3333C7.91203 26.0866 8 25.7966 8 25.5C8 25.1021 7.84197 24.7206 7.56066 24.4393C7.27936 24.158 6.89783 24 6.5 24Z" fill="#49536E"/>
</svg>
