<svg width="32" height="32" viewBox="0 0 32 32" fill="none" xmlns="http://www.w3.org/2000/svg">
<path d="M29.5869 11.0499C29.5681 11.5836 29.3443 12.0895 28.9619 12.4624L12.4119 28.9999C12.2271 29.1866 12.0071 29.3348 11.7647 29.4359C11.5222 29.5371 11.2621 29.5892 10.9994 29.5892C10.7367 29.5892 10.4766 29.5371 10.2342 29.4359C9.99175 29.3348 9.77175 29.1866 9.58694 28.9999L2.99944 22.4124C2.81274 22.2276 2.66453 22.0076 2.56338 21.7651C2.46224 21.5227 2.41016 21.2626 2.41016 20.9999C2.41016 20.7372 2.46224 20.4771 2.56338 20.2346C2.66453 19.9922 2.81274 19.7722 2.99944 19.5874L5.73694 16.8499C5.83041 16.7583 5.95607 16.7069 6.08694 16.7069C6.21782 16.7069 6.34348 16.7583 6.43694 16.8499L10.7869 21.2124C10.9803 21.3937 11.2344 21.4963 11.4994 21.4999C11.6443 21.5002 11.7875 21.4691 11.9192 21.4087C12.0508 21.3483 12.1678 21.26 12.2619 21.1499C12.4233 20.9503 12.5049 20.698 12.491 20.4417C12.4772 20.1854 12.3688 19.9434 12.1869 19.7624L7.84944 15.4374C7.75783 15.3439 7.70651 15.2182 7.70651 15.0874C7.70651 14.9565 7.75783 14.8308 7.84944 14.7374L10.2369 12.3499C10.3304 12.2583 10.4561 12.2069 10.5869 12.2069C10.7178 12.2069 10.8435 12.2583 10.9369 12.3499L15.2869 16.7124C15.4803 16.8937 15.7344 16.9963 15.9994 16.9999C16.1443 17.0002 16.2875 16.9691 16.4192 16.9087C16.5508 16.8483 16.6678 16.76 16.7619 16.6499C16.9233 16.4503 17.0049 16.198 16.991 15.9417C16.9772 15.6854 16.8688 15.4434 16.6869 15.2624L12.3494 10.9374C12.2578 10.8439 12.2065 10.7182 12.2065 10.5874C12.2065 10.4565 12.2578 10.3308 12.3494 10.2374L14.7369 7.84987C14.8304 7.75826 14.9561 7.70694 15.0869 7.70694C15.2178 7.70694 15.3435 7.75826 15.4369 7.84987L19.7869 12.2124C19.9803 12.3937 20.2344 12.4963 20.4994 12.4999C20.6443 12.5002 20.7875 12.4691 20.9192 12.4087C21.0508 12.3483 21.1678 12.26 21.2619 12.1499C21.4233 11.9503 21.5049 11.698 21.491 11.4417C21.4772 11.1854 21.3688 10.9434 21.1869 10.7624L16.8494 6.43737C16.7578 6.34391 16.7065 6.21825 16.7065 6.08737C16.7065 5.95649 16.7578 5.83084 16.8494 5.73737L19.5869 2.99987C19.9635 2.62887 20.4708 2.4209 20.9994 2.4209C21.528 2.4209 22.0354 2.62887 22.4119 2.99987L28.9994 9.58737C29.1913 9.77864 29.3423 10.0069 29.4433 10.2583C29.5443 10.5097 29.5932 10.779 29.5869 11.0499V11.0499Z" fill="#49536E"/>
</svg>
