<svg width="32" height="32" viewBox="0 0 32 32" fill="none" xmlns="http://www.w3.org/2000/svg">
<path d="M19.7121 14.1375C19.5633 13.9186 19.5074 13.6496 19.5566 13.3895C19.6058 13.1294 19.7561 12.8994 19.9746 12.75L28.4371 6.9625C28.656 6.81371 28.925 6.75779 29.1851 6.80699C29.4452 6.8562 29.6751 7.00652 29.8246 7.225C29.8999 7.33285 29.9529 7.45466 29.9805 7.58328C30.0081 7.71189 30.0097 7.84473 29.9853 7.97398C29.9608 8.10323 29.9108 8.2263 29.8381 8.33595C29.7654 8.4456 29.6716 8.53962 29.5621 8.6125L21.1121 14.4C20.9436 14.5174 20.7424 14.5787 20.5371 14.575C20.3744 14.5747 20.2142 14.5347 20.0704 14.4585C19.9266 14.3822 19.8036 14.272 19.7121 14.1375ZM29.8246 24.775C29.7338 24.9103 29.611 25.0211 29.4671 25.0974C29.3231 25.1738 29.1625 25.2133 28.9996 25.2125C28.799 25.2105 28.6034 25.1496 28.4371 25.0375L16.9996 17.2125L11.6871 20.85C11.8927 21.3758 11.9987 21.9354 11.9996 22.5C12.0029 23.537 11.6489 24.5434 10.9972 25.35C10.3456 26.1566 9.43597 26.7142 8.42149 26.9289C7.407 27.1436 6.34952 27.0024 5.42693 26.529C4.50435 26.0555 3.77297 25.2788 3.35583 24.3295C2.93869 23.3801 2.86124 22.316 3.13652 21.3163C3.41179 20.3165 4.023 19.4421 4.8673 18.8401C5.71161 18.238 6.73749 17.9452 7.77238 18.0107C8.80726 18.0763 9.788 18.4963 10.5496 19.2L15.2246 16L10.5496 12.8C9.72331 13.5746 8.63214 14.0039 7.49959 14C6.53754 13.9998 5.60088 13.6913 4.82702 13.1197C4.05317 12.5482 3.48285 11.7437 3.19975 10.8242C2.91665 9.90476 2.93567 8.91879 3.25401 8.01094C3.57236 7.10309 4.17327 6.32116 4.96859 5.77987C5.76391 5.23857 6.71177 4.96641 7.67311 5.00331C8.63445 5.04021 9.55866 5.38423 10.3101 5.9849C11.0616 6.58557 11.6008 7.41126 11.8486 8.34084C12.0965 9.27043 12.0398 10.255 11.6871 11.15L29.5621 23.3875C29.6716 23.4604 29.7654 23.5544 29.8381 23.6641C29.9108 23.7737 29.9608 23.8968 29.9853 24.026C30.0097 24.1553 30.0081 24.2881 29.9805 24.4167C29.9529 24.5453 29.8999 24.6672 29.8246 24.775V24.775ZM9.99959 22.5C10.0003 22.1719 9.93539 21.847 9.80874 21.5443C9.68209 21.2416 9.49623 20.9673 9.26209 20.7375C9.03182 20.5039 8.75743 20.3185 8.45486 20.1919C8.15229 20.0653 7.82758 20.0001 7.49959 20.0001C7.1716 20.0001 6.84689 20.0653 6.54432 20.1919C6.24175 20.3185 5.96735 20.5039 5.73709 20.7375C5.50352 20.9678 5.31805 21.2422 5.19146 21.5447C5.06487 21.8473 4.99968 22.172 4.99968 22.5C4.99968 22.828 5.06487 23.1527 5.19146 23.4553C5.31805 23.7578 5.50352 24.0322 5.73709 24.2625C5.96821 24.4946 6.24287 24.6787 6.54533 24.8043C6.84779 24.93 7.17208 24.9947 7.49959 24.9947C7.8271 24.9947 8.15139 24.93 8.45385 24.8043C8.75631 24.6787 9.03097 24.4946 9.26209 24.2625C9.49623 24.0327 9.68209 23.7584 9.80874 23.4557C9.93539 23.153 10.0003 22.8281 9.99959 22.5ZM9.26209 11.2625C9.49566 11.0322 9.68112 10.7578 9.80772 10.4553C9.93431 10.1527 9.9995 9.82799 9.9995 9.5C9.9995 9.17202 9.93431 8.8473 9.80772 8.54473C9.68112 8.24216 9.49566 7.96777 9.26209 7.7375C9.03182 7.50394 8.75743 7.31847 8.45486 7.19187C8.15229 7.06528 7.82758 7.00009 7.49959 7.00009C7.1716 7.00009 6.84689 7.06528 6.54432 7.19187C6.24175 7.31847 5.96735 7.50394 5.73709 7.7375C5.50352 7.96777 5.31805 8.24216 5.19146 8.54473C5.06487 8.8473 4.99968 9.17202 4.99968 9.5C4.99968 9.82799 5.06487 10.1527 5.19146 10.4553C5.31805 10.7578 5.50352 11.0322 5.73709 11.2625C5.96821 11.4946 6.24287 11.6787 6.54533 11.8043C6.84779 11.93 7.17208 11.9947 7.49959 11.9947C7.8271 11.9947 8.15139 11.93 8.45385 11.8043C8.75631 11.6787 9.03097 11.4946 9.26209 11.2625V11.2625Z" fill="#49536E"/>
</svg>
