<svg width="32" height="32" viewBox="0 0 32 32" fill="none" xmlns="http://www.w3.org/2000/svg">
<path d="M30.7613 19.3625C30.6113 19.175 27.8988 15.975 23.2863 14.1875C23.0238 11.9625 22.1738 9.9375 20.8363 8.3625C18.9613 6.1625 16.2488 5 12.9988 5C6.56125 5 2.36125 10.775 2.18625 11.0125C2.03044 11.228 1.96661 11.4965 2.0088 11.7591C2.051 12.0216 2.19576 12.2567 2.41125 12.4125C2.62674 12.5683 2.8953 12.6321 3.15785 12.5899C3.4204 12.5478 3.65544 12.403 3.81125 12.1875C3.84875 12.125 7.59875 7 12.9988 7C15.6488 7 17.8238 7.925 19.3113 9.6625C20.2411 10.7688 20.8735 12.0938 21.1488 13.5125C19.7922 13.1692 18.398 12.9971 16.9988 13C13.7363 13 11.0113 13.85 9.08625 15.4625C7.39875 16.8875 6.42375 18.875 6.42375 20.9C6.41436 21.6905 6.56325 22.4748 6.86165 23.2069C7.16005 23.9389 7.60193 24.6039 8.16125 25.1625C9.36125 26.3625 11.0363 27 12.9988 27C16.1488 27 18.8363 25.75 20.7613 23.4C22.2863 21.525 23.2112 19.0125 23.3612 16.4C25.5825 17.4066 27.5801 18.8474 29.2362 20.6375C29.314 20.7547 29.4156 20.8542 29.5344 20.9294C29.6532 21.0047 29.7865 21.0541 29.9257 21.0743C30.0649 21.0945 30.2068 21.0852 30.3421 21.0469C30.4774 21.0085 30.6031 20.9421 30.711 20.8519C30.8189 20.7617 30.9065 20.6497 30.9682 20.5233C31.0299 20.397 31.0642 20.259 31.069 20.1184C31.0737 19.9779 31.0488 19.8379 30.9958 19.7076C30.9427 19.5774 30.8628 19.4598 30.7613 19.3625V19.3625ZM12.9988 25C9.83625 25 8.42375 22.95 8.42375 20.9C8.42375 18.0625 11.1113 15 16.9988 15C18.4822 14.9982 19.9573 15.2216 21.3738 15.6625V15.7C21.3738 20.325 18.4988 25 12.9988 25Z" fill="#49536E"/>
</svg>
