<svg width="32" height="32" viewBox="0 0 32 32" fill="none" xmlns="http://www.w3.org/2000/svg">
<path d="M22.0001 20.0001C21.3332 19.999 20.6728 20.1324 20.0586 20.3923C19.4443 20.6521 18.8888 21.0332 18.4251 21.5126L12.6626 17.8126C13.1124 16.6461 13.1124 15.354 12.6626 14.1876L18.4251 10.4876C19.2358 11.3166 20.3094 11.8382 21.4622 11.9629C22.615 12.0877 23.7753 11.8079 24.7446 11.1714C25.7138 10.535 26.4317 9.58142 26.7754 8.47399C27.1191 7.36657 27.0672 6.17411 26.6286 5.10073C26.19 4.02734 25.392 3.13976 24.3712 2.58989C23.3503 2.04003 22.17 1.86207 21.0324 2.08648C19.8948 2.31089 18.8706 2.92371 18.135 3.82006C17.3994 4.71641 16.9982 5.84055 17.0001 7.00008C17.0021 7.61968 17.1165 8.23378 17.3376 8.81258L11.5751 12.5126C10.8813 11.7998 9.99075 11.3102 9.01722 11.1063C8.0437 10.9024 7.03147 10.9934 6.10998 11.3679C5.1885 11.7423 4.39962 12.3831 3.84423 13.2082C3.28885 14.0334 2.99219 15.0054 2.99219 16.0001C2.99219 16.9947 3.28885 17.9668 3.84423 18.7919C4.39962 19.6171 5.1885 20.2579 6.10998 20.6323C7.03147 21.0067 8.0437 21.0978 9.01722 20.8939C9.99075 20.69 10.8813 20.2003 11.5751 19.4876L17.3376 23.1876C17.1165 23.7664 17.0021 24.3805 17.0001 25.0001C17.0001 25.989 17.2934 26.9557 17.8428 27.7779C18.3922 28.6002 19.1731 29.241 20.0867 29.6195C21.0003 29.9979 22.0057 30.0969 22.9756 29.904C23.9455 29.7111 24.8364 29.2349 25.5356 28.5356C26.2349 27.8364 26.7111 26.9454 26.904 25.9755C27.097 25.0056 26.9979 24.0003 26.6195 23.0867C26.2411 22.173 25.6002 21.3921 24.778 20.8427C23.9557 20.2933 22.989 20.0001 22.0001 20.0001Z" fill="#49536E"/>
</svg>
