<svg width="32" height="32" viewBox="0 0 32 32" fill="none" xmlns="http://www.w3.org/2000/svg">
<path d="M28.7125 13.7125L22.7125 19.7125C22.5205 19.8959 22.2655 19.9988 22 20C21.8673 19.9994 21.7358 19.9739 21.6125 19.925C21.4305 19.8484 21.2752 19.7198 21.1662 19.5552C21.0572 19.3906 20.9994 19.1974 21 19V14C18.5609 13.998 16.1905 14.8076 14.2623 16.3013C12.3341 17.795 10.9577 19.8878 10.35 22.25C10.2924 22.4647 10.1657 22.6544 9.98945 22.79C9.81324 22.9255 9.59731 22.9993 9.375 23L9.125 22.9625C8.87053 22.8948 8.65299 22.7296 8.5196 22.5026C8.38621 22.2756 8.34772 22.0052 8.4125 21.75C9.13108 18.9583 10.758 16.4851 13.0369 14.7198C15.3159 12.9546 18.1174 11.9977 21 12V6.99995C20.9994 6.80253 21.0572 6.60934 21.1662 6.44473C21.2752 6.28012 21.4305 6.15145 21.6125 6.07495C21.7972 6.00291 21.9985 5.98463 22.1932 6.02223C22.3879 6.05984 22.5679 6.15179 22.7125 6.28745L28.7125 12.2875C28.9003 12.477 29.0056 12.7331 29.0056 13C29.0056 13.2668 28.9003 13.5229 28.7125 13.7125V13.7125ZM24 26H5V11C5 10.7347 4.89464 10.4804 4.70711 10.2928C4.51957 10.1053 4.26522 9.99995 4 9.99995C3.73478 9.99995 3.48043 10.1053 3.29289 10.2928C3.10536 10.4804 3 10.7347 3 11V26C3 26.5304 3.21071 27.0391 3.58579 27.4142C3.96086 27.7892 4.46957 28 5 28H24C24.2652 28 24.5196 27.8946 24.7071 27.7071C24.8946 27.5195 25 27.2652 25 27C25 26.7347 24.8946 26.4804 24.7071 26.2928C24.5196 26.1053 24.2652 26 24 26Z" fill="#49536E"/>
</svg>
