<svg width="32" height="32" viewBox="0 0 32 32" fill="none" xmlns="http://www.w3.org/2000/svg">
<path d="M29.7125 22.2875C29.9003 22.477 30.0056 22.7331 30.0056 23C30.0056 23.2668 29.9003 23.5229 29.7125 23.7125L26.7125 26.7125C26.5205 26.8959 26.2655 26.9988 26 27C25.8673 26.9994 25.7358 26.9739 25.6125 26.925C25.4305 26.8484 25.2752 26.7198 25.1662 26.5552C25.0572 26.3906 24.9994 26.1974 25 26V24H21.5125C21.1948 23.9985 20.8819 23.9219 20.5994 23.7764C20.317 23.6308 20.073 23.4204 19.8875 23.1625L10.4875 9.99995H4C3.73478 9.99995 3.48043 9.89459 3.29289 9.70706C3.10536 9.51952 3 9.26517 3 8.99995C3 8.73474 3.10536 8.48038 3.29289 8.29285C3.48043 8.10531 3.73478 7.99995 4 7.99995H10.4875C10.8052 8.00135 11.1181 8.07797 11.4006 8.22354C11.683 8.36911 11.927 8.57948 12.1125 8.83745L21.5125 22H25V20C24.9994 19.8025 25.0572 19.6093 25.1662 19.4447C25.2752 19.2801 25.4305 19.1515 25.6125 19.075C25.7972 19.0029 25.9985 18.9846 26.1932 19.0222C26.3879 19.0598 26.5679 19.1518 26.7125 19.2875L29.7125 22.2875ZM17.875 13.375C17.9823 13.4518 18.1038 13.5067 18.2325 13.5363C18.3611 13.566 18.4943 13.5699 18.6245 13.5478C18.7546 13.5258 18.8791 13.4781 18.9908 13.4077C19.1024 13.3373 19.199 13.2454 19.275 13.1375L21.5125 9.99995H25V12C24.9994 12.1974 25.0572 12.3906 25.1662 12.5552C25.2752 12.7198 25.4305 12.8485 25.6125 12.925C25.7358 12.9739 25.8673 12.9994 26 13C26.2655 12.9988 26.5205 12.8959 26.7125 12.7125L29.7125 9.71245C29.9003 9.52286 30.0056 9.2668 30.0056 8.99995C30.0056 8.7331 29.9003 8.47705 29.7125 8.28745L26.7125 5.28745C26.5679 5.15179 26.3879 5.05984 26.1932 5.02223C25.9985 4.98463 25.7972 5.00291 25.6125 5.07495C25.4305 5.15145 25.2752 5.28012 25.1662 5.44473C25.0572 5.60934 24.9994 5.80253 25 5.99995V7.99995H21.5125C21.1948 8.00135 20.8819 8.07797 20.5994 8.22354C20.317 8.36911 20.073 8.57948 19.8875 8.83745L17.65 11.975C17.5725 12.0815 17.5168 12.2024 17.4862 12.3305C17.4556 12.4587 17.4506 12.5916 17.4715 12.7217C17.4924 12.8518 17.5388 12.9765 17.608 13.0886C17.6773 13.2007 17.768 13.298 17.875 13.375ZM14.125 18.625C14.0177 18.5481 13.8962 18.4932 13.7675 18.4636C13.6389 18.4339 13.5057 18.43 13.3755 18.4521C13.2454 18.4741 13.1209 18.5218 13.0092 18.5922C12.8976 18.6626 12.801 18.7545 12.725 18.8625L10.4875 22H4C3.73478 22 3.48043 22.1053 3.29289 22.2928C3.10536 22.4804 3 22.7347 3 23C3 23.2652 3.10536 23.5195 3.29289 23.7071C3.48043 23.8946 3.73478 24 4 24H10.4875C10.8052 23.9985 11.1181 23.9219 11.4006 23.7764C11.683 23.6308 11.927 23.4204 12.1125 23.1625L14.35 20.025C14.4275 19.9184 14.4832 19.7975 14.5138 19.6694C14.5444 19.5412 14.5494 19.4083 14.5285 19.2782C14.5076 19.1481 14.4612 19.0234 14.392 18.9113C14.3227 18.7992 14.232 18.7019 14.125 18.625Z" fill="#49536E"/>
</svg>
