<svg width="32" height="32" viewBox="0 0 32 32" fill="none" xmlns="http://www.w3.org/2000/svg">
<path d="M30.7504 12.3375L23.7504 4.3375C23.6565 4.23129 23.5411 4.14627 23.4117 4.08808C23.2824 4.02989 23.1422 3.99987 23.0004 4H9.00044C8.85865 3.99987 8.71845 4.02989 8.58914 4.08808C8.45983 4.14627 8.34438 4.23129 8.25044 4.3375L1.25044 12.3375C1.08781 12.5262 1.00044 12.7682 1.00506 13.0173C1.00967 13.2663 1.10594 13.505 1.27544 13.6875L15.2754 28.6875C15.3689 28.7858 15.4813 28.8641 15.6059 28.9177C15.7306 28.9712 15.8648 28.9988 16.0004 28.9988C16.1361 28.9988 16.2703 28.9712 16.3949 28.9177C16.5196 28.8641 16.632 28.7858 16.7254 28.6875L30.7254 13.6875C30.895 13.505 30.9912 13.2663 30.9958 13.0173C31.0004 12.7682 30.9131 12.5262 30.7504 12.3375V12.3375ZM27.8004 12H22.6254L18.0254 6H22.5504L27.8004 12ZM9.18794 14L13.0129 23.325L4.30044 14H9.18794ZM22.8129 14H27.7004L18.9879 23.325L22.8129 14ZM9.45044 6H13.9754L9.37544 12H4.20044L9.45044 6Z" fill="#49536E"/>
</svg>
