<svg width="32" height="32" viewBox="0 0 32 32" fill="none" xmlns="http://www.w3.org/2000/svg">
<path d="M15.5115 2.01253C9.06154 2.25003 3.79904 7.46253 3.51154 13.925C3.40466 16.0667 3.85387 18.1995 4.81546 20.1162C5.77706 22.0328 7.21831 23.6679 8.99904 24.8625V27C8.99904 27.5305 9.20975 28.0392 9.58483 28.4142C9.9599 28.7893 10.4686 29 10.999 29H11.999C12.1316 29 12.2588 28.9474 12.3526 28.8536C12.4464 28.7598 12.499 28.6326 12.499 28.5V25.5375C12.4949 25.278 12.5894 25.0266 12.7634 24.8341C12.9374 24.6415 13.178 24.5222 13.4365 24.5C13.573 24.4915 13.7098 24.511 13.8384 24.5574C13.9671 24.6038 14.0848 24.6761 14.1844 24.7699C14.284 24.8636 14.3633 24.9768 14.4174 25.1023C14.4715 25.2279 14.4993 25.3633 14.499 25.5V28.5C14.499 28.6326 14.5517 28.7598 14.6455 28.8536C14.7393 28.9474 14.8664 29 14.999 29H16.999C17.1316 29 17.2588 28.9474 17.3526 28.8536C17.4464 28.7598 17.499 28.6326 17.499 28.5V25.5375C17.4949 25.278 17.5894 25.0266 17.7634 24.8341C17.9374 24.6415 18.178 24.5222 18.4365 24.5C18.573 24.4915 18.7098 24.511 18.8384 24.5574C18.9671 24.6038 19.0848 24.6761 19.1844 24.7699C19.284 24.8636 19.3633 24.9768 19.4174 25.1023C19.4715 25.2279 19.4993 25.3633 19.499 25.5V28.5C19.499 28.6326 19.5517 28.7598 19.6455 28.8536C19.7393 28.9474 19.8664 29 19.999 29H20.999C21.5295 29 22.0382 28.7893 22.4133 28.4142C22.7883 28.0392 22.999 27.5305 22.999 27V24.8625C25.2522 23.3412 26.948 21.1268 27.8293 18.5549C28.7106 15.983 28.7294 13.194 27.8828 10.6104C27.0363 8.02693 25.3705 5.78985 23.138 4.23831C20.9056 2.68676 18.2281 1.90535 15.5115 2.01253V2.01253ZM11.499 19C11.0046 19 10.5212 18.8534 10.1101 18.5787C9.69899 18.304 9.37856 17.9136 9.18934 17.4567C9.00012 16.9999 8.95061 16.4973 9.04707 16.0123C9.14354 15.5273 9.38164 15.0819 9.73127 14.7323C10.0809 14.3826 10.5264 14.1445 11.0113 14.0481C11.4963 13.9516 11.9989 14.0011 12.4557 14.1903C12.9126 14.3795 13.303 14.7 13.5777 15.1111C13.8524 15.5222 13.999 16.0056 13.999 16.5C13.9958 17.1621 13.7313 17.796 13.2632 18.2642C12.795 18.7323 12.1611 18.9967 11.499 19ZM20.499 19C20.0046 19 19.5212 18.8534 19.1101 18.5787C18.699 18.304 18.3786 17.9136 18.1893 17.4567C18.0001 16.9999 17.9506 16.4973 18.0471 16.0123C18.1435 15.5273 18.3816 15.0819 18.7313 14.7323C19.0809 14.3826 19.5264 14.1445 20.0113 14.0481C20.4963 13.9516 20.9989 14.0011 21.4557 14.1903C21.9126 14.3795 22.303 14.7 22.5777 15.1111C22.8524 15.5222 22.999 16.0056 22.999 16.5C22.9958 17.1621 22.7313 17.796 22.2632 18.2642C21.795 18.7323 21.1611 18.9967 20.499 19V19Z" fill="#49536E"/>
</svg>
