<svg width="32" height="32" viewBox="0 0 32 32" fill="none" xmlns="http://www.w3.org/2000/svg">
<path d="M27.6371 16.0001C28.2459 15.4631 28.677 14.7536 28.873 13.9659C29.069 13.1781 29.0207 12.3493 28.7344 11.5897C28.4482 10.83 27.9376 10.1755 27.2705 9.71291C26.6034 9.25036 25.8114 9.00173 24.9996 9.00006C24.2974 9.00172 23.6079 9.18702 22.9996 9.53756V7.00006C22.9979 6.18828 22.7493 5.39622 22.2867 4.72911C21.8242 4.062 21.1696 3.55141 20.4099 3.26519C19.6503 2.97896 18.8215 2.93064 18.0338 3.12665C17.246 3.32266 16.5365 3.75372 15.9996 4.36256C15.4626 3.75372 14.7531 3.32266 13.9654 3.12665C13.1776 2.93064 12.3489 2.97896 11.5892 3.26519C10.8296 3.55141 10.175 4.062 9.71243 4.72911C9.24987 5.39622 9.00124 6.18828 8.99957 7.00006C9.00123 7.7022 9.18653 8.39169 9.53707 9.00006H6.99957C6.18779 9.00173 5.39573 9.25036 4.72862 9.71291C4.06151 10.1755 3.55092 10.83 3.2647 11.5897C2.97847 12.3493 2.93016 13.1781 3.12617 13.9659C3.32217 14.7536 3.75323 15.4631 4.36207 16.0001C3.75323 16.537 3.32217 17.2465 3.12617 18.0342C2.93016 18.822 2.97847 19.6508 3.2647 20.4104C3.55092 21.1701 4.06151 21.8247 4.72862 22.2872C5.39573 22.7498 6.18779 22.9984 6.99957 23.0001C7.70171 22.9984 8.3912 22.8131 8.99957 22.4626V25.0001C9.00124 25.8118 9.24987 26.6039 9.71243 27.271C10.175 27.9381 10.8296 28.4487 11.5892 28.7349C12.3489 29.0212 13.1776 29.0695 13.9654 28.8735C14.7531 28.6775 15.4626 28.2464 15.9996 27.6376C16.5365 28.2464 17.246 28.6775 18.0338 28.8735C18.8215 29.0695 19.6503 29.0212 20.4099 28.7349C21.1696 28.4487 21.8242 27.9381 22.2867 27.271C22.7493 26.6039 22.9979 25.8118 22.9996 25.0001C22.9979 24.2979 22.8126 23.6084 22.4621 23.0001H24.9996C25.8114 22.9984 26.6034 22.7498 27.2705 22.2872C27.9376 21.8247 28.4482 21.1701 28.7344 20.4104C29.0207 19.6508 29.069 18.822 28.873 18.0342C28.677 17.2465 28.2459 16.537 27.6371 16.0001V16.0001ZM10.9996 7.00006C10.9996 6.46963 11.2103 5.96092 11.5854 5.58585C11.9604 5.21077 12.4691 5.00006 12.9996 5.00006C13.53 5.00006 14.0387 5.21077 14.4138 5.58585C14.7889 5.96092 14.9996 6.46963 14.9996 7.00006V9.00006H12.9996C12.4691 9.00006 11.9604 8.78935 11.5854 8.41427C11.2103 8.0392 10.9996 7.53049 10.9996 7.00006ZM4.99957 13.0001C4.99957 12.4696 5.21029 11.9609 5.58536 11.5858C5.96043 11.2108 6.46914 11.0001 6.99957 11.0001H12.9996C13.53 11.0001 14.0387 11.2108 14.4138 11.5858C14.7889 11.9609 14.9996 12.4696 14.9996 13.0001V15.0001H6.99957C6.46914 15.0001 5.96043 14.7893 5.58536 14.4143C5.21029 14.0392 4.99957 13.5305 4.99957 13.0001ZM20.9996 25.0001C20.9996 25.5305 20.7889 26.0392 20.4138 26.4143C20.0387 26.7893 19.53 27.0001 18.9996 27.0001C18.4691 27.0001 17.9604 26.7893 17.5854 26.4143C17.2103 26.0392 16.9996 25.5305 16.9996 25.0001V23.0001H18.9996C19.53 23.0001 20.0387 23.2108 20.4138 23.5858C20.7889 23.9609 20.9996 24.4696 20.9996 25.0001ZM24.9996 21.0001H18.9996C18.4691 21.0001 17.9604 20.7893 17.5854 20.4143C17.2103 20.0392 16.9996 19.5305 16.9996 19.0001V17.0001H24.9996C25.53 17.0001 26.0387 17.2108 26.4138 17.5858C26.7889 17.9609 26.9996 18.4696 26.9996 19.0001C26.9996 19.5305 26.7889 20.0392 26.4138 20.4143C26.0387 20.7893 25.53 21.0001 24.9996 21.0001Z" fill="#49536E"/>
</svg>
