<svg width="32" height="32" viewBox="0 0 32 32" fill="none" xmlns="http://www.w3.org/2000/svg">
<path d="M27.9887 18.6375C28.0246 18.7639 28.0349 18.8962 28.019 19.0266C28.0031 19.157 27.9613 19.283 27.8961 19.3971C27.8309 19.5111 27.7436 19.6111 27.6393 19.691C27.535 19.7709 27.4158 19.8292 27.2887 19.8625L24.1512 20.7125L24.9887 23.8375C25.0246 23.9639 25.0349 24.0962 25.019 24.2266C25.0031 24.357 24.9613 24.483 24.8961 24.5971C24.8309 24.7111 24.7436 24.8111 24.6393 24.891C24.535 24.9709 24.4158 25.0292 24.2887 25.0625L24.0262 25.1C23.8071 25.0994 23.5943 25.027 23.4204 24.8937C23.2465 24.7605 23.1212 24.5738 23.0637 24.3625L22.0762 20.6625L17.0012 17.7375V23.5875L19.7137 26.2875C19.9015 26.4771 20.0068 26.7331 20.0068 27C20.0068 27.2668 19.9015 27.5229 19.7137 27.7125C19.5226 27.8973 19.2671 28.0006 19.0012 28.0006C18.7353 28.0006 18.4798 27.8973 18.2887 27.7125L16.0012 25.4125L13.7137 27.7125C13.5194 27.8719 13.2728 27.9534 13.0217 27.9411C12.7706 27.9288 12.5332 27.8235 12.3554 27.6458C12.1777 27.468 12.0724 27.2305 12.0601 26.9795C12.0478 26.7284 12.1292 26.4818 12.2887 26.2875L15.0012 23.5875V17.7375L9.92621 20.6625L8.93871 24.3625C8.88121 24.5738 8.75588 24.7605 8.58199 24.8937C8.4081 25.027 8.19527 25.0994 7.97621 25.1L7.71371 25.0625C7.58659 25.0292 7.46739 24.9709 7.36309 24.891C7.25878 24.8111 7.17148 24.7111 7.10629 24.5971C7.0411 24.483 6.99933 24.357 6.98343 24.2266C6.96753 24.0962 6.97783 23.9639 7.01371 23.8375L7.85121 20.7125L4.71371 19.8625C4.57929 19.8355 4.45185 19.7812 4.33929 19.703C4.22673 19.6247 4.13147 19.5242 4.05942 19.4075C3.98736 19.2909 3.94006 19.1607 3.92045 19.025C3.90083 18.8894 3.90932 18.7511 3.94539 18.6188C3.98146 18.4866 4.04434 18.3631 4.13013 18.2562C4.21591 18.1493 4.32276 18.0611 4.44405 17.9972C4.56534 17.9333 4.69847 17.895 4.83517 17.8848C4.97187 17.8745 5.10923 17.8924 5.23871 17.9375L8.92621 18.925L14.0012 16L8.92621 13.075L5.23871 14.0625C5.15339 14.0872 5.06503 14.0998 4.97621 14.1C4.73545 14.0979 4.50353 14.009 4.32304 13.8497C4.14255 13.6903 4.02561 13.4712 3.99369 13.2326C3.96177 12.9939 4.01701 12.7518 4.14928 12.5506C4.28155 12.3494 4.48197 12.2027 4.71371 12.1375L7.85121 11.2875L7.01371 8.16246C6.96394 7.91403 7.01032 7.65597 7.14348 7.44043C7.27665 7.22488 7.48667 7.06792 7.73111 7.00125C7.97554 6.93459 8.23617 6.96319 8.46033 7.08129C8.68449 7.19938 8.85547 7.39816 8.93871 7.63746L9.92621 11.3375L15.0012 14.2625V8.41246L12.2887 5.71246C12.1292 5.51817 12.0478 5.2715 12.0601 5.02045C12.0724 4.7694 12.1777 4.53191 12.3554 4.35417C12.5332 4.17644 12.7706 4.07117 13.0217 4.05884C13.2728 4.04651 13.5194 4.128 13.7137 4.28746L16.0012 6.58746L18.2887 4.28746C18.483 4.128 18.7297 4.04651 18.9807 4.05884C19.2318 4.07117 19.4693 4.17644 19.647 4.35417C19.8247 4.53191 19.93 4.7694 19.9423 5.02045C19.9547 5.2715 19.8732 5.51817 19.7137 5.71246L17.0012 8.41246V14.2625L22.0762 11.3375L23.0637 7.63746C23.0906 7.50304 23.1449 7.3756 23.2232 7.26304C23.3014 7.15049 23.402 7.05522 23.5186 6.98317C23.6353 6.91112 23.7655 6.86381 23.9011 6.8442C24.0368 6.82458 24.1751 6.83307 24.3073 6.86915C24.4396 6.90522 24.563 6.9681 24.67 7.05388C24.7769 7.13966 24.8651 7.24651 24.929 7.3678C24.9928 7.48909 25.0311 7.62222 25.0414 7.75892C25.0517 7.89563 25.0337 8.03298 24.9887 8.16246L24.1512 11.2875L27.2887 12.1375C27.5205 12.2027 27.7209 12.3494 27.8531 12.5506C27.9854 12.7518 28.0407 12.9939 28.0087 13.2326C27.9768 13.4712 27.8599 13.6903 27.6794 13.8497C27.4989 14.009 27.267 14.0979 27.0262 14.1L26.7637 14.0625L23.0762 13.075L18.0012 16L23.0762 18.925L26.7637 17.9375C26.8901 17.9016 27.0224 17.8913 27.1528 17.9072C27.2833 17.9231 27.4092 17.9648 27.5233 18.03C27.6374 18.0952 27.7373 18.1825 27.8172 18.2868C27.8972 18.3911 27.9554 18.5103 27.9887 18.6375V18.6375Z" fill="#49536E"/>
</svg>
