<svg width="32" height="32" viewBox="0 0 32 32" fill="none" xmlns="http://www.w3.org/2000/svg">
<path d="M29 17.4999C29 19.3565 28.2625 21.1369 26.9497 22.4497C25.637 23.7624 23.8565 24.4999 22 24.4999C20.8717 24.502 19.76 24.2273 18.7625 23.6999L20.25 28.1874C20.302 28.3373 20.3167 28.4976 20.2928 28.6545C20.2688 28.8113 20.2069 28.9599 20.1125 29.0874C20.0214 29.2147 19.9013 29.3184 19.7622 29.3901C19.6231 29.4619 19.469 29.4995 19.3125 29.4999H12.6875C12.531 29.4995 12.3769 29.4619 12.2378 29.3901C12.0987 29.3184 11.9786 29.2147 11.8875 29.0874C11.7931 28.9599 11.7312 28.8113 11.7072 28.6545C11.6833 28.4976 11.698 28.3373 11.75 28.1874L13.2375 23.6999C12.24 24.2273 11.1283 24.502 10 24.4999C8.14348 24.4999 6.36301 23.7624 5.05025 22.4497C3.7375 21.1369 3 19.3565 3 17.4999C3 10.7999 15.2125 2.91244 15.725 2.57494C15.8082 2.52541 15.9032 2.49927 16 2.49927C16.0968 2.49927 16.1918 2.52541 16.275 2.57494C16.7875 2.91244 29 10.7999 29 17.4999Z" fill="#49536E"/>
</svg>
