<svg width="32" height="32" viewBox="0 0 32 32" fill="none" xmlns="http://www.w3.org/2000/svg">
<path d="M26.1111 18C26.1141 18.4101 25.9893 18.811 25.7541 19.147C25.5189 19.483 25.1849 19.7374 24.7986 19.875L18.2736 22.275L15.8736 28.8C15.7315 29.1828 15.4757 29.5129 15.1405 29.746C14.8053 29.9791 14.4068 30.104 13.9986 30.104C13.5903 30.104 13.1918 29.9791 12.8566 29.746C12.5214 29.5129 12.2656 29.1828 12.1236 28.8L9.72356 22.275L3.19856 19.875C2.81581 19.7329 2.4857 19.4771 2.25259 19.1419C2.01948 18.8068 1.89453 18.4083 1.89453 18C1.89453 17.5917 2.01948 17.1932 2.25259 16.8581C2.4857 16.5229 2.81581 16.2671 3.19856 16.125L9.72356 13.725L12.1236 7.2C12.2656 6.81725 12.5214 6.48714 12.8566 6.25403C13.1918 6.02092 13.5903 5.89597 13.9986 5.89597C14.4068 5.89597 14.8053 6.02092 15.1405 6.25403C15.4757 6.48714 15.7315 6.81725 15.8736 7.2L18.2736 13.725L24.7986 16.125C25.1849 16.2626 25.5189 16.517 25.7541 16.853C25.9893 17.189 26.1141 17.5899 26.1111 18V18ZM18.9986 6H20.9986V8C20.9986 8.26522 21.1039 8.51957 21.2915 8.70711C21.479 8.89464 21.7333 9 21.9986 9C22.2638 9 22.5181 8.89464 22.7057 8.70711C22.8932 8.51957 22.9986 8.26522 22.9986 8V6H24.9986C25.2638 6 25.5181 5.89464 25.7057 5.70711C25.8932 5.51957 25.9986 5.26522 25.9986 5C25.9986 4.73478 25.8932 4.48043 25.7057 4.29289C25.5181 4.10536 25.2638 4 24.9986 4H22.9986V2C22.9986 1.73478 22.8932 1.48043 22.7057 1.29289C22.5181 1.10536 22.2638 1 21.9986 1C21.7333 1 21.479 1.10536 21.2915 1.29289C21.1039 1.48043 20.9986 1.73478 20.9986 2V4H18.9986C18.7333 4 18.479 4.10536 18.2915 4.29289C18.1039 4.48043 17.9986 4.73478 17.9986 5C17.9986 5.26522 18.1039 5.51957 18.2915 5.70711C18.479 5.89464 18.7333 6 18.9986 6ZM29.9986 10H28.9986V9C28.9986 8.73478 28.8932 8.48043 28.7057 8.29289C28.5181 8.10536 28.2638 8 27.9986 8C27.7333 8 27.479 8.10536 27.2915 8.29289C27.1039 8.48043 26.9986 8.73478 26.9986 9V10H25.9986C25.7333 10 25.479 10.1054 25.2915 10.2929C25.1039 10.4804 24.9986 10.7348 24.9986 11C24.9986 11.2652 25.1039 11.5196 25.2915 11.7071C25.479 11.8946 25.7333 12 25.9986 12H26.9986V13C26.9986 13.2652 27.1039 13.5196 27.2915 13.7071C27.479 13.8946 27.7333 14 27.9986 14C28.2638 14 28.5181 13.8946 28.7057 13.7071C28.8932 13.5196 28.9986 13.2652 28.9986 13V12H29.9986C30.2638 12 30.5181 11.8946 30.7057 11.7071C30.8932 11.5196 30.9986 11.2652 30.9986 11C30.9986 10.7348 30.8932 10.4804 30.7057 10.2929C30.5181 10.1054 30.2638 10 29.9986 10Z" fill="#49536E"/>
</svg>
