<svg width="32" height="32" viewBox="0 0 32 32" fill="none" xmlns="http://www.w3.org/2000/svg">
<path d="M19.4375 3.09995C19.2694 3.01886 19.082 2.98642 18.8964 3.0063C18.7109 3.02618 18.5346 3.09759 18.3875 3.21245L9.6625 9.99995H4C3.46957 9.99995 2.96086 10.2107 2.58579 10.5857C2.21071 10.9608 2 11.4695 2 12V20C2 20.5304 2.21071 21.0391 2.58579 21.4142C2.96086 21.7892 3.46957 22 4 22H9.6625L18.3875 28.7875C18.5629 28.9235 18.7781 28.9982 19 29C19.1513 28.9981 19.3005 28.9641 19.4375 28.9C19.6063 28.8178 19.7485 28.6899 19.848 28.5307C19.9475 28.3716 20.0001 28.1876 20 28V3.99995C20.0001 3.81227 19.9475 3.62833 19.848 3.46917C19.7485 3.31002 19.6063 3.18206 19.4375 3.09995V3.09995ZM4 12H9V20H4V12Z" fill="#49536E"/>
<path d="M28.4123 16L30.7123 13.7125C30.8717 13.5182 30.9532 13.2715 30.9409 13.0205C30.9286 12.7694 30.8233 12.5319 30.6456 12.3542C30.4678 12.1764 30.2303 12.0712 29.9793 12.0588C29.7282 12.0465 29.4816 12.128 29.2873 12.2875L26.9998 14.5875L24.7123 12.2875C24.518 12.128 24.2713 12.0465 24.0203 12.0588C23.7692 12.0712 23.5317 12.1764 23.354 12.3542C23.1762 12.5319 23.071 12.7694 23.0586 13.0205C23.0463 13.2715 23.1278 13.5182 23.2873 13.7125L25.5873 16L23.2873 18.2875C23.0995 18.4771 22.9941 18.7331 22.9941 19C22.9941 19.2668 23.0995 19.5229 23.2873 19.7125C23.4784 19.8973 23.7339 20.0006 23.9998 20.0006C24.2656 20.0006 24.5211 19.8973 24.7123 19.7125L26.9998 17.4125L29.2873 19.7125C29.4784 19.8973 29.7339 20.0006 29.9998 20.0006C30.2656 20.0006 30.5211 19.8973 30.7123 19.7125C30.9 19.5229 31.0054 19.2668 31.0054 19C31.0054 18.7331 30.9 18.4771 30.7123 18.2875L28.4123 16Z" fill="#49536E"/>
</svg>
