<svg width="32" height="32" viewBox="0 0 32 32" fill="none" xmlns="http://www.w3.org/2000/svg">
<path d="M24 20C24.2652 20 24.5196 19.8946 24.7071 19.7071C24.8946 19.5196 25 19.2652 25 19V13C25 12.7348 24.8946 12.4804 24.7071 12.2929C24.5196 12.1054 24.2652 12 24 12C23.7348 12 23.4804 12.1054 23.2929 12.2929C23.1054 12.4804 23 12.7348 23 13V19C23 19.2652 23.1054 19.5196 23.2929 19.7071C23.4804 19.8946 23.7348 20 24 20Z" fill="#49536E"/>
<path d="M28 10C27.7348 10 27.4804 10.1054 27.2929 10.2929C27.1054 10.4804 27 10.7348 27 11V21C27 21.2652 27.1054 21.5196 27.2929 21.7071C27.4804 21.8946 27.7348 22 28 22C28.2652 22 28.5196 21.8946 28.7071 21.7071C28.8946 21.5196 29 21.2652 29 21V11C29 10.7348 28.8946 10.4804 28.7071 10.2929C28.5196 10.1054 28.2652 10 28 10Z" fill="#49536E"/>
<path d="M6.7375 4.32502C6.55683 4.13601 6.30933 4.02528 6.048 4.01655C5.78668 4.00782 5.53234 4.10179 5.33946 4.27832C5.14658 4.45485 5.03052 4.6999 5.01613 4.96097C5.00175 5.22205 5.09019 5.47837 5.2625 5.67502L9.2 10H4C3.46957 10 2.96086 10.2107 2.58579 10.5858C2.21071 10.9609 2 11.4696 2 12V20C2 20.5305 2.21071 21.0392 2.58579 21.4142C2.96086 21.7893 3.46957 22 4 22H9.6625L18.3875 28.7875C18.5629 28.9236 18.7781 28.9982 19 29C19.1513 28.9982 19.3005 28.9641 19.4375 28.9C19.6063 28.8179 19.7485 28.69 19.848 28.5308C19.9475 28.3716 20.0001 28.1877 20 28V21.8875L25.2625 27.675C25.3562 27.7774 25.4701 27.8592 25.5971 27.9151C25.724 27.9711 25.8613 28 26 28C26.2494 27.9976 26.4894 27.9042 26.675 27.7375C26.7733 27.6498 26.853 27.5433 26.9095 27.4242C26.966 27.3052 26.9981 27.1761 27.004 27.0444C27.0098 26.9128 26.9892 26.7814 26.9435 26.6578C26.8977 26.5342 26.8277 26.4211 26.7375 26.325L6.7375 4.32502Z" fill="#49536E"/>
<path d="M18.2621 14.025C18.3552 14.1279 18.4691 14.2101 18.5961 14.2661C18.7232 14.3221 18.8607 14.3507 18.9996 14.35C19.1234 14.3536 19.2466 14.3324 19.3621 14.2875C19.5507 14.2141 19.7127 14.0852 19.8265 13.9178C19.9403 13.7504 20.0007 13.5524 19.9996 13.35V3.99996C19.999 3.81317 19.9461 3.63026 19.847 3.47197C19.7478 3.31368 19.6062 3.18634 19.4384 3.10436C19.2705 3.02239 19.0831 2.98907 18.8973 3.00817C18.7115 3.02728 18.5347 3.09805 18.3871 3.21246L13.3996 7.08746C13.2923 7.17323 13.2037 7.2799 13.139 7.401C13.0743 7.5221 13.0349 7.65509 13.0232 7.79189C13.0115 7.92869 13.0278 8.06643 13.071 8.19675C13.1142 8.32708 13.1834 8.44725 13.2746 8.54996L18.2621 14.025Z" fill="#49536E"/>
</svg>
