<svg width="32" height="32" viewBox="0 0 32 32" fill="none" xmlns="http://www.w3.org/2000/svg">
<path d="M6.7375 4.32502C6.55683 4.13601 6.30933 4.02528 6.048 4.01655C5.78668 4.00782 5.53234 4.10179 5.33946 4.27832C5.14658 4.45485 5.03052 4.6999 5.01613 4.96097C5.00175 5.22205 5.09019 5.47837 5.2625 5.67502L9.2 10H4C3.46957 10 2.96086 10.2107 2.58579 10.5858C2.21071 10.9609 2 11.4696 2 12V20C2 20.5305 2.21071 21.0392 2.58579 21.4142C2.96086 21.7893 3.46957 22 4 22H9.6625L18.3875 28.7875C18.5619 28.9253 18.7777 29.0001 19 29C19.1513 28.9982 19.3005 28.9641 19.4375 28.9C19.6063 28.8179 19.7485 28.69 19.848 28.5308C19.9475 28.3716 20.0001 28.1877 20 28V21.8875L25.2625 27.675C25.3562 27.7774 25.4701 27.8592 25.5971 27.9151C25.724 27.9711 25.8613 28 26 28C26.2494 27.9976 26.4894 27.9042 26.675 27.7375C26.7733 27.6498 26.853 27.5433 26.9095 27.4242C26.966 27.3052 26.9981 27.1761 27.004 27.0444C27.0098 26.9128 26.9892 26.7814 26.9435 26.6578C26.8977 26.5342 26.8277 26.4211 26.7375 26.325L6.7375 4.32502ZM9 20H4V12H9V20Z" fill="#49536E"/>
<path d="M18.2612 14.025C18.3544 14.1279 18.4682 14.2101 18.5953 14.2661C18.7224 14.3221 18.8598 14.3507 18.9987 14.35C19.1225 14.3536 19.2458 14.3324 19.3612 14.2875C19.5498 14.2141 19.7118 14.0852 19.8256 13.9178C19.9395 13.7504 19.9998 13.5524 19.9987 13.35V3.99996C19.9981 3.81317 19.9453 3.63026 19.8461 3.47197C19.7469 3.31368 19.6054 3.18634 19.4375 3.10436C19.2697 3.02239 19.0822 2.98907 18.8964 3.00817C18.7106 3.02728 18.5338 3.09805 18.3862 3.21246L13.3987 7.08746C13.2928 7.17333 13.205 7.27947 13.1406 7.39967C13.0763 7.51987 13.0365 7.65171 13.0237 7.78746C13.0112 7.92489 13.0269 8.06341 13.0699 8.19454C13.1129 8.32566 13.1823 8.44661 13.2737 8.54996L18.2612 14.025Z" fill="#49536E"/>
<path d="M28.0611 8.92497C27.8736 8.73796 27.6196 8.63293 27.3548 8.63293C27.09 8.63293 26.8361 8.73796 26.6486 8.92497C26.4608 9.11457 26.3555 9.37062 26.3555 9.63747C26.3555 9.90432 26.4608 10.1604 26.6486 10.35C27.3928 11.092 27.9832 11.9735 28.3861 12.9442C28.7889 13.9148 28.9963 14.9553 28.9963 16.0062C28.9963 17.0571 28.7889 18.0977 28.3861 19.0683C27.9832 20.0389 27.3928 20.9205 26.6486 21.6625C26.4616 21.8499 26.3566 22.1039 26.3566 22.3687C26.3566 22.6335 26.4616 22.8875 26.6486 23.075C26.8406 23.2585 27.0956 23.3613 27.3611 23.3625C27.6231 23.362 27.8744 23.2588 28.0611 23.075C28.9924 22.1471 29.7313 21.0445 30.2354 19.8304C30.7396 18.6163 30.9992 17.3146 30.9992 16C30.9992 14.6854 30.7396 13.3837 30.2354 12.1696C29.7313 10.9555 28.9924 9.85286 28.0611 8.92497V8.92497Z" fill="#49536E"/>
<path d="M23.9998 16.0001C24.0006 16.3955 23.9224 16.7871 23.7701 17.1519C23.6177 17.5168 23.3941 17.8476 23.1123 18.1251C22.9746 18.2656 22.8814 18.4437 22.8443 18.6369C22.8073 18.8302 22.8282 19.0301 22.9042 19.2116C22.9803 19.3931 23.1082 19.5481 23.272 19.6572C23.4357 19.7664 23.6281 19.8247 23.8249 19.8251C23.9569 19.8279 24.0881 19.8039 24.2106 19.7544C24.3331 19.705 24.4443 19.6312 24.5373 19.5376C25.4732 18.5981 25.9986 17.3261 25.9986 16.0001C25.9986 14.674 25.4732 13.402 24.5373 12.4626C24.3478 12.2748 24.0917 12.1694 23.8249 12.1694C23.558 12.1694 23.3019 12.2748 23.1123 12.4626C22.9253 12.65 22.8203 12.904 22.8203 13.1688C22.8203 13.4336 22.9253 13.6876 23.1123 13.8751C23.3941 14.1525 23.6177 14.4833 23.7701 14.8482C23.9224 15.2131 24.0006 15.6047 23.9998 16.0001V16.0001Z" fill="#49536E"/>
</svg>
