<svg width="32" height="32" viewBox="0 0 32 32" fill="none" xmlns="http://www.w3.org/2000/svg">
<path d="M28.075 8.92499C27.9815 8.83225 27.8706 8.75884 27.7486 8.70896C27.6267 8.65908 27.4961 8.63371 27.3644 8.63429C27.2326 8.63487 27.1023 8.66139 26.9808 8.71234C26.8593 8.76329 26.749 8.83768 26.6563 8.93124C26.5635 9.02481 26.4901 9.13573 26.4403 9.25767C26.3904 9.3796 26.365 9.51017 26.3656 9.64191C26.3662 9.77366 26.3927 9.904 26.4436 10.0255C26.4946 10.147 26.569 10.2572 26.6625 10.35C28.1594 11.8519 28.9999 13.8858 28.9999 16.0062C28.9999 18.1267 28.1594 20.1606 26.6625 21.6625C26.5684 21.7545 26.4936 21.8643 26.4426 21.9856C26.3915 22.1069 26.3652 22.2372 26.3652 22.3687C26.3652 22.5003 26.3915 22.6306 26.4426 22.7519C26.4936 22.8732 26.5684 22.983 26.6625 23.075C26.8492 23.2588 27.1006 23.3621 27.3625 23.3625C27.6281 23.3614 27.8831 23.2585 28.075 23.075C29.9467 21.1961 30.9976 18.6521 30.9976 16C30.9976 13.3479 29.9467 10.8039 28.075 8.92499V8.92499Z" fill="#49536E"/>
<path d="M19.4375 3.09995C19.2694 3.01886 19.082 2.98642 18.8964 3.0063C18.7109 3.02618 18.5346 3.09759 18.3875 3.21245L9.6625 9.99995H4C3.46957 9.99995 2.96086 10.2107 2.58579 10.5857C2.21071 10.9608 2 11.4695 2 12V20C2 20.5304 2.21071 21.0391 2.58579 21.4142C2.96086 21.7892 3.46957 22 4 22H9.6625L18.3875 28.7875C18.5629 28.9235 18.7781 28.9982 19 29C19.1513 28.9981 19.3005 28.9641 19.4375 28.9C19.6082 28.8203 19.7521 28.6929 19.8519 28.5332C19.9518 28.3735 20.0032 28.1883 20 28V3.99995C19.9987 3.81258 19.9454 3.62924 19.8461 3.47034C19.7468 3.31145 19.6054 3.18323 19.4375 3.09995V3.09995ZM4 12H9V20H4V12Z" fill="#49536E"/>
<path d="M23.1254 12.4624C23.0313 12.5544 22.9565 12.6643 22.9055 12.7856C22.8544 12.9068 22.8281 13.0371 22.8281 13.1687C22.8281 13.3003 22.8544 13.4306 22.9055 13.5518C22.9565 13.6731 23.0313 13.783 23.1254 13.8749C23.6872 14.4395 24.0026 15.2035 24.0026 15.9999C24.0026 16.7964 23.6872 17.5604 23.1254 18.1249C23.0313 18.2169 22.9565 18.3268 22.9055 18.4481C22.8544 18.5693 22.8281 18.6996 22.8281 18.8312C22.8281 18.9628 22.8544 19.0931 22.9055 19.2143C22.9565 19.3356 23.0313 19.4455 23.1254 19.5374C23.2162 19.6308 23.3252 19.7044 23.4456 19.7539C23.566 19.8034 23.6953 19.8275 23.8254 19.8249C23.9575 19.8278 24.0887 19.8038 24.2112 19.7543C24.3337 19.7049 24.4448 19.6311 24.5379 19.5374C25.4738 18.598 25.9992 17.326 25.9992 15.9999C25.9992 14.6739 25.4738 13.4019 24.5379 12.4624C24.3505 12.2754 24.0965 12.1704 23.8317 12.1704C23.5669 12.1704 23.3129 12.2754 23.1254 12.4624Z" fill="#49536E"/>
</svg>
