<svg width="32" height="32" viewBox="0 0 32 32" fill="none" xmlns="http://www.w3.org/2000/svg">
<path d="M19.4375 3.09995C19.2694 3.01886 19.082 2.98642 18.8964 3.0063C18.7109 3.02618 18.5346 3.09759 18.3875 3.21245L9.6625 9.99995H4C3.46957 9.99995 2.96086 10.2107 2.58579 10.5857C2.21071 10.9608 2 11.4695 2 12V20C2 20.5304 2.21071 21.0391 2.58579 21.4142C2.96086 21.7892 3.46957 22 4 22H9.6625L18.3875 28.7875C18.5629 28.9235 18.7781 28.9982 19 29C19.1513 28.9981 19.3005 28.9641 19.4375 28.9C19.6063 28.8178 19.7485 28.6899 19.848 28.5307C19.9475 28.3716 20.0001 28.1876 20 28V3.99995C20.0001 3.81227 19.9475 3.62833 19.848 3.46917C19.7485 3.31002 19.6063 3.18206 19.4375 3.09995V3.09995ZM4 12H9V20H4V12Z" fill="#49536E"/>
</svg>
