<svg width="32" height="32" viewBox="0 0 32 32" fill="none" xmlns="http://www.w3.org/2000/svg">
<path d="M19.4375 3.09995C19.2694 3.01886 19.082 2.98642 18.8964 3.0063C18.7109 3.02618 18.5346 3.09759 18.3875 3.21245L9.6625 9.99995H4C3.46957 9.99995 2.96086 10.2107 2.58579 10.5857C2.21071 10.9608 2 11.4695 2 12V20C2 20.5304 2.21071 21.0391 2.58579 21.4142C2.96086 21.7892 3.46957 22 4 22H9.6625L18.3875 28.7875C18.5629 28.9235 18.7781 28.9982 19 29C19.1513 28.9981 19.3005 28.9641 19.4375 28.9C19.6063 28.8178 19.7485 28.6899 19.848 28.5307C19.9475 28.3716 20.0001 28.1876 20 28V3.99995C19.9987 3.81258 19.9454 3.62924 19.8461 3.47034C19.7468 3.31145 19.6054 3.18323 19.4375 3.09995V3.09995ZM4 12H9V20H4V12Z" fill="#49536E"/>
<path d="M24.5379 12.4624C24.3505 12.2754 24.0965 12.1704 23.8317 12.1704C23.5669 12.1704 23.3129 12.2754 23.1254 12.4624C23.0313 12.5544 22.9565 12.6643 22.9055 12.7856C22.8544 12.9068 22.8281 13.0371 22.8281 13.1687C22.8281 13.3003 22.8544 13.4306 22.9055 13.5518C22.9565 13.6731 23.0313 13.783 23.1254 13.8749C23.6872 14.4395 24.0026 15.2035 24.0026 15.9999C24.0026 16.7964 23.6872 17.5604 23.1254 18.1249C23.0313 18.2169 22.9565 18.3268 22.9055 18.4481C22.8544 18.5693 22.8281 18.6996 22.8281 18.8312C22.8281 18.9628 22.8544 19.0931 22.9055 19.2143C22.9565 19.3356 23.0313 19.4455 23.1254 19.5374C23.2162 19.6308 23.3252 19.7044 23.4456 19.7539C23.566 19.8034 23.6953 19.8275 23.8254 19.8249C23.9575 19.8278 24.0887 19.8038 24.2112 19.7543C24.3337 19.7049 24.4448 19.6311 24.5379 19.5374C25.4738 18.598 25.9992 17.326 25.9992 15.9999C25.9992 14.6739 25.4738 13.4019 24.5379 12.4624V12.4624Z" fill="#49536E"/>
</svg>
