<svg width="32" height="32" viewBox="0 0 32 32" fill="none" xmlns="http://www.w3.org/2000/svg">
<path d="M1.4998 13.8626L15.4998 21.8626C15.651 21.9529 15.8237 22.0006 15.9998 22.0006C16.1759 22.0006 16.3487 21.9529 16.4998 21.8626L30.4998 13.8626C30.6502 13.7744 30.7749 13.6484 30.8615 13.4971C30.9482 13.3458 30.9937 13.1745 30.9937 13.0001C30.9937 12.8258 30.9482 12.6545 30.8615 12.5032C30.7749 12.3519 30.6502 12.2258 30.4998 12.1376L16.4998 4.13762C16.3491 4.04601 16.1762 3.99756 15.9998 3.99756C15.8235 3.99756 15.6505 4.04601 15.4998 4.13762L1.4998 12.1376C1.34943 12.2258 1.22473 12.3519 1.13809 12.5032C1.05144 12.6545 1.00586 12.8258 1.00586 13.0001C1.00586 13.1745 1.05144 13.3458 1.13809 13.4971C1.22473 13.6484 1.34943 13.7744 1.4998 13.8626V13.8626Z" fill="#49536E"/>
<path d="M29.4989 17.1376L15.9989 24.8501L2.49887 17.1376C2.27193 17.0287 2.01227 17.0095 1.77175 17.0836C1.53122 17.1578 1.32751 17.32 1.20127 17.5377C1.07503 17.7555 1.03556 18.0128 1.09072 18.2584C1.14589 18.504 1.29163 18.7197 1.49887 18.8626L15.4989 26.8626C15.65 26.9529 15.8228 27.0006 15.9989 27.0006C16.1749 27.0006 16.3477 26.9529 16.4989 26.8626L30.4989 18.8626C30.6232 18.803 30.7339 18.7182 30.8239 18.6138C30.9139 18.5093 30.9814 18.3874 31.022 18.2556C31.0626 18.1238 31.0756 17.9851 31.06 17.848C31.0444 17.711 31.0007 17.5787 30.9315 17.4594C30.8624 17.3401 30.7693 17.2364 30.6581 17.1548C30.547 17.0732 30.4201 17.0155 30.2856 16.9853C30.151 16.955 30.0117 16.953 29.8763 16.9792C29.7409 17.0054 29.6124 17.0593 29.4989 17.1376V17.1376Z" fill="#49536E"/>
</svg>
