<svg width="32" height="32" viewBox="0 0 32 32" fill="none" xmlns="http://www.w3.org/2000/svg">
<path d="M27 19.0001V27.0001C27 27.2653 26.8946 27.5197 26.7071 27.7072C26.5196 27.8948 26.2652 28.0001 26 28.0001H6C5.73478 28.0001 5.48043 27.8948 5.29289 27.7072C5.10536 27.5197 5 27.2653 5 27.0001V19.0001C5 18.7349 5.10536 18.4805 5.29289 18.293C5.48043 18.1055 5.73478 18.0001 6 18.0001C6.26522 18.0001 6.51957 18.1055 6.70711 18.293C6.89464 18.4805 7 18.7349 7 19.0001V26.0001H25V19.0001C25 18.7349 25.1054 18.4805 25.2929 18.293C25.4804 18.1055 25.7348 18.0001 26 18.0001C26.2652 18.0001 26.5196 18.1055 26.7071 18.293C26.8946 18.4805 27 18.7349 27 19.0001ZM11 23.0001H21C21.2652 23.0001 21.5196 22.8948 21.7071 22.7072C21.8946 22.5197 22 22.2653 22 22.0001C22 21.7349 21.8946 21.4805 21.7071 21.293C21.5196 21.1055 21.2652 21.0001 21 21.0001H11C10.7348 21.0001 10.4804 21.1055 10.2929 21.293C10.1054 21.4805 10 21.7349 10 22.0001C10 22.2653 10.1054 22.5197 10.2929 22.7072C10.4804 22.8948 10.7348 23.0001 11 23.0001V23.0001ZM11.6125 16.3626L21.275 18.9501C21.3558 18.9758 21.4402 18.9884 21.525 18.9876C21.7658 18.9855 21.9977 18.8967 22.1782 18.7373C22.3587 18.578 22.4756 18.3589 22.5075 18.1202C22.5394 17.8816 22.4842 17.6394 22.3519 17.4383C22.2197 17.2371 22.0192 17.0904 21.7875 17.0251L12.125 14.4376C11.9946 14.3901 11.8557 14.3703 11.7171 14.3794C11.5786 14.3885 11.4435 14.4263 11.3204 14.4905C11.1973 14.5547 11.0889 14.6438 11.0021 14.7522C10.9153 14.8605 10.8521 14.9858 10.8164 15.1199C10.7806 15.2541 10.7733 15.3942 10.7947 15.5314C10.8161 15.6685 10.8658 15.7998 10.9407 15.9167C11.0156 16.0336 11.114 16.1336 11.2296 16.2104C11.3453 16.2871 11.4757 16.339 11.6125 16.3626V16.3626ZM13.9125 10.1126L22.575 15.1126C22.7249 15.2058 22.8985 15.2536 23.075 15.2501C23.2507 15.2535 23.424 15.2086 23.576 15.1205C23.7281 15.0323 23.8531 14.9043 23.9375 14.7501C24.0044 14.6372 24.0482 14.512 24.0662 14.382C24.0841 14.252 24.076 14.1196 24.0423 13.9928C24.0085 13.8659 23.9498 13.747 23.8696 13.6431C23.7893 13.5392 23.6892 13.4524 23.575 13.3876L14.9125 8.38761C14.6856 8.27876 14.4259 8.2595 14.1854 8.33366C13.9448 8.40783 13.7411 8.56998 13.6149 8.78773C13.4887 9.00549 13.4492 9.26285 13.5043 9.50843C13.5595 9.75401 13.7053 9.96976 13.9125 10.1126V10.1126ZM24.8375 11.7501C25.0242 11.9339 25.2755 12.0372 25.5375 12.0376C25.803 12.0365 26.058 11.9336 26.25 11.7501C26.437 11.5626 26.542 11.3087 26.542 11.0439C26.542 10.7791 26.437 10.5251 26.25 10.3376L19.175 3.26261C18.9848 3.09025 18.7356 2.99765 18.4789 3.00397C18.2223 3.01028 17.978 3.11504 17.7964 3.29656C17.6149 3.47807 17.5102 3.72243 17.5039 3.97905C17.4975 4.23567 17.5901 4.48489 17.7625 4.67511L24.8375 11.7501Z" fill="#49536E"/>
</svg>
