<svg width="32" height="32" viewBox="0 0 32 32" fill="none" xmlns="http://www.w3.org/2000/svg">
<path d="M29.8996 12.175C29.7744 11.7812 29.5332 11.4344 29.2075 11.1802C28.8818 10.9259 28.4869 10.7759 28.0746 10.75L20.6996 10.275C20.6887 10.2737 20.6783 10.2695 20.6695 10.2629C20.6608 10.2564 20.6539 10.2476 20.6496 10.2375L17.8996 3.29999C17.7511 2.91669 17.4902 2.58724 17.1511 2.35493C16.812 2.12261 16.4106 1.99829 15.9996 1.99829C15.5885 1.99829 15.1871 2.12261 14.848 2.35493C14.5089 2.58724 14.248 2.91669 14.0996 3.29999L11.3496 10.2375C11.3452 10.2476 11.3384 10.2564 11.3296 10.2629C11.3208 10.2695 11.3104 10.2737 11.2996 10.275L3.92456 10.75C3.51219 10.7759 3.11728 10.9259 2.79161 11.1802C2.46594 11.4344 2.22471 11.7812 2.09956 12.175C1.96948 12.5739 1.96188 13.0026 2.07774 13.4059C2.19359 13.8091 2.42759 14.1685 2.74956 14.4375L8.39956 19.1375C8.41241 19.1503 8.42153 19.1664 8.42593 19.184C8.43034 19.2016 8.42986 19.2201 8.42456 19.2375L6.73706 25.875C6.62204 26.3241 6.64389 26.7973 6.79981 27.2338C6.95572 27.6704 7.23858 28.0504 7.61206 28.325C7.97585 28.5861 8.40927 28.7327 8.85686 28.7461C9.30445 28.7594 9.74584 28.6389 10.1246 28.4L15.9871 24.6875H16.0121L22.3246 28.675C22.6484 28.8854 23.0259 28.9982 23.4121 29C23.838 28.9943 24.2522 28.8591 24.5996 28.6125C24.939 28.3664 25.1959 28.0233 25.3364 27.6284C25.477 27.2334 25.4947 26.8052 25.3871 26.4L23.5746 19.2375C23.5693 19.2201 23.5688 19.2016 23.5732 19.184C23.5776 19.1664 23.5867 19.1503 23.5996 19.1375L29.2496 14.4375C29.5715 14.1685 29.8055 13.8091 29.9214 13.4059C30.0372 13.0026 30.0296 12.5739 29.8996 12.175ZM27.9746 12.9L22.3121 17.6C22.0114 17.8551 21.7886 18.1897 21.6692 18.5655C21.5499 18.9413 21.5387 19.3431 21.6371 19.725L23.4496 26.8875C23.4621 26.9375 23.4621 26.95 23.4496 26.9625C23.4412 26.9786 23.4281 26.9917 23.4121 27H23.3871L17.0871 23C16.7622 22.7933 16.3846 22.6848 15.9996 22.6875V3.99999C16.0121 3.99999 16.0246 3.99999 16.0371 4.03749L18.7996 10.975C18.9404 11.3361 19.1807 11.65 19.4927 11.8801C19.8046 12.1102 20.1754 12.2471 20.5621 12.275L27.9496 12.75C27.9621 12.75 27.9746 12.75 27.9871 12.8C27.9996 12.85 27.9871 12.8875 27.9746 12.9V12.9Z" fill="#49536E"/>
</svg>
