<svg width="32" height="32" viewBox="0 0 32 32" fill="none" xmlns="http://www.w3.org/2000/svg">
<path d="M16 24.5C20.6944 24.5 24.5 20.6944 24.5 16C24.5 11.3056 20.6944 7.5 16 7.5C11.3056 7.5 7.5 11.3056 7.5 16C7.5 20.6944 11.3056 24.5 16 24.5Z" fill="#49536E"/>
<path d="M16 5.5C16.2652 5.5 16.5196 5.39464 16.7071 5.20711C16.8946 5.01957 17 4.76522 17 4.5V3.5C17 3.23478 16.8946 2.98043 16.7071 2.79289C16.5196 2.60536 16.2652 2.5 16 2.5C15.7348 2.5 15.4804 2.60536 15.2929 2.79289C15.1054 2.98043 15 3.23478 15 3.5V4.5C15 4.76522 15.1054 5.01957 15.2929 5.20711C15.4804 5.39464 15.7348 5.5 16 5.5Z" fill="#49536E"/>
<path d="M7.16286 8.57511C7.3519 8.75913 7.60529 8.8621 7.86911 8.8621C8.13292 8.8621 8.38632 8.75913 8.57536 8.57511C8.76237 8.38765 8.8674 8.13366 8.8674 7.86886C8.8674 7.60407 8.76237 7.35008 8.57536 7.16261L7.86286 6.45011C7.67263 6.27775 7.42341 6.18515 7.16679 6.19147C6.91017 6.19778 6.66581 6.30254 6.4843 6.48406C6.30279 6.66557 6.19803 6.90993 6.19171 7.16655C6.18539 7.42317 6.278 7.67239 6.45036 7.86261L7.16286 8.57511Z" fill="#49536E"/>
<path d="M4.5 15H3.5C3.23478 15 2.98043 15.1054 2.79289 15.2929C2.60536 15.4804 2.5 15.7348 2.5 16C2.5 16.2652 2.60536 16.5196 2.79289 16.7071C2.98043 16.8946 3.23478 17 3.5 17H4.5C4.76522 17 5.01957 16.8946 5.20711 16.7071C5.39464 16.5196 5.5 16.2652 5.5 16C5.5 15.7348 5.39464 15.4804 5.20711 15.2929C5.01957 15.1054 4.76522 15 4.5 15Z" fill="#49536E"/>
<path d="M7.16274 23.425L6.45024 24.1375C6.26323 24.3249 6.1582 24.5789 6.1582 24.8437C6.1582 25.1085 6.26323 25.3625 6.45024 25.55C6.6422 25.7334 6.8972 25.8363 7.16274 25.8375C7.42473 25.837 7.67608 25.7338 7.86274 25.55L8.57524 24.8375C8.7476 24.6472 8.84021 24.398 8.83389 24.1414C8.82757 23.8848 8.72281 23.6404 8.5413 23.4589C8.35979 23.2774 8.11543 23.1726 7.85881 23.1663C7.60219 23.16 7.35297 23.2526 7.16274 23.425V23.425Z" fill="#49536E"/>
<path d="M16 26.5C15.7348 26.5 15.4804 26.6054 15.2929 26.7929C15.1054 26.9804 15 27.2348 15 27.5V28.5C15 28.7652 15.1054 29.0196 15.2929 29.2071C15.4804 29.3946 15.7348 29.5 16 29.5C16.2652 29.5 16.5196 29.3946 16.7071 29.2071C16.8946 29.0196 17 28.7652 17 28.5V27.5C17 27.2348 16.8946 26.9804 16.7071 26.7929C16.5196 26.6054 16.2652 26.5 16 26.5Z" fill="#49536E"/>
<path d="M24.8375 23.425C24.6472 23.2526 24.398 23.16 24.1414 23.1663C23.8848 23.1726 23.6404 23.2774 23.4589 23.4589C23.2774 23.6404 23.1726 23.8848 23.1663 24.1414C23.16 24.398 23.2526 24.6472 23.425 24.8375L24.1375 25.55C24.3241 25.7338 24.5755 25.837 24.8375 25.8375C25.103 25.8363 25.358 25.7334 25.55 25.55C25.737 25.3625 25.842 25.1085 25.842 24.8437C25.842 24.5789 25.737 24.3249 25.55 24.1375L24.8375 23.425Z" fill="#49536E"/>
<path d="M28.5 15H27.5C27.2348 15 26.9804 15.1054 26.7929 15.2929C26.6054 15.4804 26.5 15.7348 26.5 16C26.5 16.2652 26.6054 16.5196 26.7929 16.7071C26.9804 16.8946 27.2348 17 27.5 17H28.5C28.7652 17 29.0196 16.8946 29.2071 16.7071C29.3946 16.5196 29.5 16.2652 29.5 16C29.5 15.7348 29.3946 15.4804 29.2071 15.2929C29.0196 15.1054 28.7652 15 28.5 15Z" fill="#49536E"/>
<path d="M24.1374 8.86239C24.2673 8.86353 24.3962 8.83869 24.5164 8.78932C24.6366 8.73995 24.7457 8.66704 24.8373 8.57489L25.5498 7.86239C25.6502 7.77143 25.7311 7.66102 25.7875 7.53787C25.8439 7.41471 25.8748 7.28138 25.8781 7.14595C25.8814 7.01053 25.8572 6.87584 25.8069 6.75005C25.7566 6.62427 25.6813 6.51002 25.5855 6.41423C25.4897 6.31844 25.3755 6.24311 25.2497 6.19282C25.1239 6.14252 24.9892 6.11831 24.8538 6.12164C24.7184 6.12498 24.585 6.15579 24.4619 6.21222C24.3387 6.26864 24.2283 6.3495 24.1374 6.44989L23.4248 7.16239C23.2378 7.34985 23.1328 7.60384 23.1328 7.86864C23.1328 8.13343 23.2378 8.38742 23.4248 8.57489C23.5179 8.66857 23.6291 8.74236 23.7516 8.79178C23.8741 8.8412 24.0053 8.86522 24.1374 8.86239V8.86239Z" fill="#49536E"/>
</svg>
