<svg width="32" height="32" viewBox="0 0 32 32" fill="none" xmlns="http://www.w3.org/2000/svg">
<path d="M28.5248 19.1248L26.1248 12.5373C25.9418 12.0405 25.5693 11.6366 25.089 11.414C24.6086 11.1914 24.0596 11.1683 23.5623 11.3498L16.0748 14.0748L17.4498 6.22482C17.4971 5.96571 17.4927 5.69982 17.4369 5.44241C17.3812 5.18499 17.2751 4.94113 17.1248 4.72482C16.82 4.29212 16.3578 3.99599 15.8373 3.89982L8.93731 2.68732C8.41565 2.59995 7.88056 2.72146 7.4478 3.02557C7.01503 3.32967 6.71939 3.79192 6.62481 4.31232L3.59981 21.4623C3.47122 22.1972 3.4901 22.9503 3.65534 23.6778C3.82059 24.4053 4.12889 25.0926 4.56231 25.6998C4.98007 26.2939 5.51286 26.7981 6.12911 27.1825C6.74536 27.5668 7.4325 27.8235 8.14981 27.9373C8.42732 27.9763 8.70708 27.9972 8.98731 27.9998H26.4998C27.0302 27.9998 27.5389 27.7891 27.914 27.414C28.2891 27.039 28.4998 26.5303 28.4998 25.9998V20.5373C28.6832 20.0859 28.6921 19.5824 28.5248 19.1248ZM8.99981 23.9998C8.70314 23.9998 8.41313 23.9118 8.16645 23.747C7.91978 23.5822 7.72752 23.3479 7.61399 23.0738C7.50046 22.7998 7.47075 22.4982 7.52863 22.2072C7.58651 21.9162 7.72937 21.6489 7.93915 21.4392C8.14893 21.2294 8.4162 21.0865 8.70717 21.0286C8.99814 20.9708 9.29975 21.0005 9.57383 21.114C9.84792 21.2275 10.0822 21.4198 10.247 21.6665C10.4118 21.9131 10.4998 22.2032 10.4998 22.4998C10.4998 22.8976 10.3418 23.2792 10.0605 23.5605C9.77917 23.8418 9.39763 23.9998 8.99981 23.9998ZM26.4998 25.9998H15.4623L26.4998 21.9873V25.9998ZM14.1873 24.3373C14.2886 24.0488 14.3639 23.7518 14.4123 23.4498L15.6748 16.3498L24.2498 13.2248L26.6373 19.7998L14.1873 24.3373Z" fill="#49536E"/>
</svg>
