<svg width="32" height="32" viewBox="0 0 32 32" fill="none" xmlns="http://www.w3.org/2000/svg">
<path d="M29.7123 9.71245C29.5211 9.89727 29.2656 10.0006 28.9998 10.0006C28.7339 10.0006 28.4784 9.89727 28.2873 9.71245L25.9998 7.41245L22.4123 11L26.7123 15.2875C26.9 15.477 27.0054 15.7331 27.0054 16C27.0054 16.2668 26.9 16.5229 26.7123 16.7125C26.5211 16.8973 26.2656 17.0006 25.9998 17.0006C25.7339 17.0006 25.4784 16.8973 25.2873 16.7125L24.4998 15.9125L13.9998 26.4125C13.6246 26.7866 13.1171 26.9977 12.5873 27H6.41227L3.71227 29.7125C3.52113 29.8973 3.26565 30.0006 2.99977 30.0006C2.73388 30.0006 2.47841 29.8973 2.28727 29.7125C2.09948 29.5229 1.99414 29.2668 1.99414 29C1.99414 28.7331 2.09948 28.477 2.28727 28.2875L4.99977 25.5875V19.4125C5.00204 18.8826 5.21314 18.3751 5.58727 18L6.98727 16.6C7.08073 16.5083 7.20639 16.457 7.33727 16.457C7.46814 16.457 7.5938 16.5083 7.68727 16.6L11.2873 20.2125C11.4784 20.3973 11.7339 20.5006 11.9998 20.5006C12.2656 20.5006 12.5211 20.3973 12.7123 20.2125C12.9 20.0229 13.0054 19.7668 13.0054 19.5C13.0054 19.2331 12.9 18.977 12.7123 18.7875L9.09977 15.1875C9.00815 15.094 8.95684 14.9683 8.95684 14.8375C8.95684 14.7066 9.00815 14.5809 9.09977 14.4875L11.4873 12.1C11.5807 12.0083 11.7064 11.957 11.8373 11.957C11.9681 11.957 12.0938 12.0083 12.1873 12.1L15.7873 15.7125C15.9784 15.8973 16.2339 16.0006 16.4998 16.0006C16.7656 16.0006 17.0211 15.8973 17.2123 15.7125C17.4 15.5229 17.5054 15.2668 17.5054 15C17.5054 14.7331 17.4 14.477 17.2123 14.2875L13.5998 10.6875C13.5082 10.594 13.4568 10.4683 13.4568 10.3375C13.4568 10.2066 13.5082 10.0809 13.5998 9.98745L16.0873 7.49995L15.3248 6.73745C15.1359 6.55131 15.0255 6.29992 15.0162 6.0349C15.0069 5.76989 15.0994 5.51137 15.2748 5.31245C15.3672 5.21594 15.4779 5.13868 15.6003 5.08514C15.7228 5.0316 15.8547 5.00284 15.9883 5.00052C16.1219 4.9982 16.2547 5.02235 16.379 5.0716C16.5032 5.12085 16.6165 5.19421 16.7123 5.28745L20.9998 9.58745L24.5873 5.99995L22.3248 3.73745C22.1359 3.55131 22.0255 3.29992 22.0162 3.0349C22.0069 2.76989 22.0994 2.51137 22.2748 2.31245C22.3672 2.21594 22.4779 2.13868 22.6003 2.08514C22.7228 2.0316 22.8547 2.00284 22.9883 2.00052C23.1219 1.9982 23.2547 2.02235 23.379 2.0716C23.5032 2.12085 23.6165 2.19421 23.7123 2.28745L29.7123 8.28745C29.9 8.47705 30.0054 8.73311 30.0054 8.99995C30.0054 9.2668 29.9 9.52286 29.7123 9.71245V9.71245Z" fill="#49536E"/>
</svg>
