<svg width="32" height="32" viewBox="0 0 32 32" fill="none" xmlns="http://www.w3.org/2000/svg">
<path d="M30.0002 15.8625L16.9377 2.8C16.7065 2.56673 16.4211 2.3944 16.107 2.29842C15.7929 2.20244 15.4599 2.18581 15.1377 2.25L5.05024 4.275C4.85896 4.3132 4.68328 4.40719 4.54536 4.54511C4.40743 4.68304 4.31344 4.85872 4.27524 5.05L2.25024 15.1375C2.18605 15.4596 2.20269 15.7926 2.29867 16.1067C2.39464 16.4208 2.56697 16.7063 2.80024 16.9375L15.8627 30C16.0476 30.1867 16.2675 30.3349 16.51 30.4361C16.7524 30.5372 17.0125 30.5893 17.2752 30.5893C17.5379 30.5893 17.798 30.5372 18.0405 30.4361C18.2829 30.3349 18.5029 30.1867 18.6877 30L30.0002 18.6875C30.1869 18.5027 30.3352 18.2827 30.4363 18.0402C30.5375 17.7978 30.5895 17.5377 30.5895 17.275C30.5895 17.0123 30.5375 16.7522 30.4363 16.5098C30.3352 16.2673 30.1869 16.0473 30.0002 15.8625V15.8625ZM10.5002 12C10.2036 12 9.91356 11.912 9.66689 11.7472C9.42022 11.5824 9.22796 11.3481 9.11442 11.074C9.00089 10.7999 8.97119 10.4983 9.02907 10.2074C9.08694 9.91639 9.22981 9.64912 9.43958 9.43934C9.64936 9.22956 9.91664 9.0867 10.2076 9.02882C10.4986 8.97094 10.8002 9.00065 11.0743 9.11418C11.3484 9.22771 11.5826 9.41997 11.7474 9.66665C11.9123 9.91332 12.0002 10.2033 12.0002 10.5C12.0002 10.8978 11.8422 11.2794 11.5609 11.5607C11.2796 11.842 10.8981 12 10.5002 12Z" fill="#49536E"/>
</svg>
