<svg width="32" height="32" viewBox="0 0 32 32" fill="none" xmlns="http://www.w3.org/2000/svg">
<path d="M29.4628 17.1126L24.1253 25.1126C23.9433 25.3865 23.6961 25.611 23.4059 25.7659C23.1158 25.9208 22.7917 26.0012 22.4628 26.0001H3.00029C2.82018 26.0019 2.64308 25.9538 2.48863 25.8612C2.33418 25.7685 2.20842 25.6348 2.12529 25.4751C2.03841 25.3167 1.99602 25.1378 2.00262 24.9574C2.00922 24.7769 2.06457 24.6016 2.16279 24.4501L7.80029 16.0001L2.16279 7.55005C2.06457 7.39851 2.00922 7.22319 2.00262 7.04273C1.99602 6.86226 2.03841 6.68337 2.12529 6.52505C2.20842 6.36526 2.33418 6.23162 2.48863 6.13894C2.64308 6.04627 2.82018 5.9982 3.00029 6.00005H22.4628C22.7917 5.99887 23.1158 6.07933 23.4059 6.23423C23.6961 6.38912 23.9433 6.61361 24.1253 6.88755L29.4628 14.8876C29.6831 15.2167 29.8008 15.6039 29.8008 16.0001C29.8008 16.3962 29.6831 16.7834 29.4628 17.1126V17.1126Z" fill="#49536E"/>
</svg>
