<svg width="32" height="32" viewBox="0 0 32 32" fill="none" xmlns="http://www.w3.org/2000/svg">
<path d="M26.4006 9.92501C26.2813 9.98127 26.1742 10.0606 26.0857 10.1584C25.9971 10.2562 25.9288 10.3706 25.8847 10.4949C25.8405 10.6192 25.8214 10.751 25.8284 10.8828C25.8354 11.0145 25.8685 11.1436 25.9256 11.2625C27.0947 13.7102 27.3182 16.5036 26.5531 19.1061C25.788 21.7086 24.0882 23.9366 21.7804 25.3621C19.4725 26.7876 16.7193 27.3101 14.0497 26.8293C11.38 26.3484 8.98222 24.898 7.31684 22.7568C5.65145 20.6156 4.83597 17.9346 5.02703 15.2287C5.21809 12.5228 6.40223 9.98295 8.35197 8.09701C10.3017 6.21107 12.8796 5.11206 15.5903 5.0111C18.301 4.91013 20.9535 5.81433 23.0381 7.55001L20.1881 10.4C18.7703 9.35462 17.0104 8.88223 15.2597 9.07709C13.5089 9.27195 11.896 10.1197 10.7427 11.4513C9.58944 12.7828 8.98059 14.5003 9.03766 16.2609C9.09473 18.0215 9.81351 19.6959 11.0506 20.95V20.95C12.0537 21.9528 13.3379 22.6272 14.7329 22.8839C16.1279 23.1405 17.5679 22.9673 18.8623 22.3872C20.1567 21.8071 21.2443 20.8475 21.9811 19.6355C22.7178 18.4234 23.069 17.0161 22.9881 15.6C22.9817 15.4692 22.9494 15.3409 22.893 15.2226C22.8366 15.1044 22.7572 14.9986 22.6595 14.9113C22.5617 14.8241 22.4476 14.7572 22.3238 14.7144C22.1999 14.6717 22.0688 14.6541 21.9381 14.6625C21.8067 14.6689 21.6779 14.7012 21.559 14.7574C21.4401 14.8137 21.3335 14.8929 21.2453 14.9904C21.157 15.0879 21.0889 15.2019 21.0447 15.3258C21.0006 15.4498 20.9814 15.5811 20.9881 15.7125C21.0424 16.6392 20.8376 17.5628 20.3967 18.3797C19.9557 19.1966 19.2961 19.8746 18.4916 20.3379C17.6872 20.8011 16.7696 21.0312 15.8417 21.0024C14.9139 20.9737 14.0123 20.6872 13.2381 20.175L16.2381 17.175L20.9506 12.4625L28.7131 4.71251C28.8726 4.51821 28.9541 4.27155 28.9417 4.0205C28.9294 3.76944 28.8241 3.53195 28.6464 3.35422C28.4687 3.17648 28.2312 3.07121 27.9801 3.05888C27.7291 3.04655 27.4824 3.12805 27.2881 3.28751L24.4631 6.12501C21.9754 3.99554 18.7756 2.88338 15.5034 3.01084C12.2312 3.13829 9.12766 4.49598 6.8131 6.81251C5.60442 8.01782 4.64545 9.44977 3.99113 11.0263C3.33681 12.6029 3 14.2931 3 16C3 17.707 3.33681 19.3971 3.99113 20.9737C4.64545 22.5502 5.60442 23.9822 6.8131 25.1875C8.01841 26.3962 9.45036 27.3552 11.0269 28.0095C12.6035 28.6638 14.2936 29.0006 16.0006 29.0006C17.7075 29.0006 19.3977 28.6638 20.9743 28.0095C22.5508 27.3552 23.9828 26.3962 25.1881 25.1875C27.0894 23.2885 28.3554 20.847 28.8121 18.1988C29.2687 15.5507 28.8935 12.8261 27.7381 10.4C27.6818 10.2807 27.6025 10.1736 27.5047 10.0851C27.4069 9.99655 27.2926 9.92823 27.1682 9.88408C27.0439 9.83993 26.9121 9.82081 26.7803 9.82784C26.6486 9.83486 26.5195 9.86789 26.4006 9.92501V9.92501Z" fill="#49536E"/>
</svg>
