<svg width="32" height="32" viewBox="0 0 32 32" fill="none" xmlns="http://www.w3.org/2000/svg">
<path d="M30 14.0001H28.575L25.15 8.01257C24.9776 7.70639 24.7272 7.45137 24.4242 7.27351C24.1211 7.09564 23.7764 7.00129 23.425 7.00007H20.675L19.175 3.26257C19.0322 2.88856 18.7785 2.56716 18.4478 2.34149C18.1171 2.11583 17.7253 1.99669 17.325 2.00007H14.675C14.2747 1.99669 13.8829 2.11583 13.5522 2.34149C13.2215 2.56716 12.9678 2.88856 12.825 3.26257L11.325 7.00007H8.575C8.22363 7.00129 7.87887 7.09564 7.57585 7.27351C7.27282 7.45137 7.02237 7.70639 6.85 8.01257L3.425 14.0001H2C1.73478 14.0001 1.48043 14.1054 1.29289 14.293C1.10536 14.4805 1 14.7349 1 15.0001C1 15.2653 1.10536 15.5196 1.29289 15.7072C1.48043 15.8947 1.73478 16.0001 2 16.0001H3V26.0001C3 26.5305 3.21071 27.0392 3.58579 27.4143C3.96086 27.7894 4.46957 28.0001 5 28.0001H8C8.53043 28.0001 9.03914 27.7894 9.41421 27.4143C9.78929 27.0392 10 26.5305 10 26.0001V24.0001H22V26.0001C22 26.5305 22.2107 27.0392 22.5858 27.4143C22.9609 27.7894 23.4696 28.0001 24 28.0001H27C27.5304 28.0001 28.0391 27.7894 28.4142 27.4143C28.7893 27.0392 29 26.5305 29 26.0001V16.0001H30C30.2652 16.0001 30.5196 15.8947 30.7071 15.7072C30.8946 15.5196 31 15.2653 31 15.0001C31 14.7349 30.8946 14.4805 30.7071 14.293C30.5196 14.1054 30.2652 14.0001 30 14.0001ZM14.675 4.00007H17.325L18.525 7.00007H13.475L14.675 4.00007ZM10 20.0001H8C7.73478 20.0001 7.48043 19.8947 7.29289 19.7072C7.10536 19.5196 7 19.2653 7 19.0001C7 18.7349 7.10536 18.4805 7.29289 18.293C7.48043 18.1054 7.73478 18.0001 8 18.0001H10C10.2652 18.0001 10.5196 18.1054 10.7071 18.293C10.8946 18.4805 11 18.7349 11 19.0001C11 19.2653 10.8946 19.5196 10.7071 19.7072C10.5196 19.8947 10.2652 20.0001 10 20.0001ZM24 20.0001H22C21.7348 20.0001 21.4804 19.8947 21.2929 19.7072C21.1054 19.5196 21 19.2653 21 19.0001C21 18.7349 21.1054 18.4805 21.2929 18.293C21.4804 18.1054 21.7348 18.0001 22 18.0001H24C24.2652 18.0001 24.5196 18.1054 24.7071 18.293C24.8946 18.4805 25 18.7349 25 19.0001C25 19.2653 24.8946 19.5196 24.7071 19.7072C24.5196 19.8947 24.2652 20.0001 24 20.0001Z" fill="#49536E"/>
</svg>
