<svg width="32" height="32" viewBox="0 0 32 32" fill="none" xmlns="http://www.w3.org/2000/svg">
<path d="M27 7.99996H18.4125L22.7125 3.71246C22.872 3.51817 22.9535 3.2715 22.9411 3.02045C22.9288 2.7694 22.8235 2.53191 22.6458 2.35417C22.4681 2.17644 22.2306 2.07117 21.9795 2.05884C21.7285 2.04651 21.4818 2.128 21.2875 2.28746L16 7.58746L10.7125 2.28746C10.5182 2.128 10.2715 2.04651 10.0205 2.05884C9.76944 2.07117 9.53195 2.17644 9.35421 2.35417C9.17648 2.53191 9.07121 2.7694 9.05888 3.02045C9.04655 3.2715 9.12804 3.51817 9.2875 3.71246L13.5875 7.99996H5C4.46957 7.99996 3.96086 8.21068 3.58579 8.58575C3.21071 8.96082 3 9.46953 3 9.99996V25C3 25.5304 3.21071 26.0391 3.58579 26.4142C3.96086 26.7892 4.46957 27 5 27H27C27.5304 27 28.0391 26.7892 28.4142 26.4142C28.7893 26.0391 29 25.5304 29 25V9.99996C29 9.46953 28.7893 8.96082 28.4142 8.58575C28.0391 8.21068 27.5304 7.99996 27 7.99996V7.99996ZM27 25H20V9.99996H27V25ZM25 14.5C25 14.7966 24.912 15.0866 24.7472 15.3333C24.5824 15.58 24.3481 15.7722 24.074 15.8858C23.7999 15.9993 23.4983 16.029 23.2074 15.9711C22.9164 15.9133 22.6491 15.7704 22.4393 15.5606C22.2296 15.3508 22.0867 15.0836 22.0288 14.7926C21.9709 14.5016 22.0007 14.2 22.1142 13.9259C22.2277 13.6518 22.42 13.4176 22.6666 13.2528C22.9133 13.0879 23.2033 13 23.5 13C23.8978 13 24.2794 13.158 24.5607 13.4393C24.842 13.7206 25 14.1021 25 14.5V14.5ZM25 20.5C25 20.7966 24.912 21.0866 24.7472 21.3333C24.5824 21.58 24.3481 21.7722 24.074 21.8858C23.7999 21.9993 23.4983 22.029 23.2074 21.9711C22.9164 21.9133 22.6491 21.7704 22.4393 21.5606C22.2296 21.3508 22.0867 21.0836 22.0288 20.7926C21.9709 20.5016 22.0007 20.2 22.1142 19.9259C22.2277 19.6518 22.42 19.4176 22.6666 19.2528C22.9133 19.0879 23.2033 19 23.5 19C23.8978 19 24.2794 19.158 24.5607 19.4393C24.842 19.7206 25 20.1021 25 20.5V20.5Z" fill="#49536E"/>
</svg>
