<svg width="32" height="32" viewBox="0 0 32 32" fill="none" xmlns="http://www.w3.org/2000/svg">
<path d="M29 9.99996V25C29 25.5304 28.7893 26.0391 28.4142 26.4142C28.0391 26.7892 27.5304 27 27 27H5C4.46957 27 3.96086 26.7892 3.58579 26.4142C3.21071 26.0391 3 25.5304 3 25V9.99996C3 9.46953 3.21071 8.96082 3.58579 8.58575C3.96086 8.21068 4.46957 7.99996 5 7.99996H13.5875L9.2875 3.71246C9.12804 3.51817 9.04655 3.2715 9.05888 3.02045C9.07121 2.7694 9.17648 2.53191 9.35421 2.35417C9.53195 2.17644 9.76944 2.07117 10.0205 2.05884C10.2715 2.04651 10.5182 2.128 10.7125 2.28746L16 7.58746L21.2875 2.28746C21.4818 2.128 21.7285 2.04651 21.9795 2.05884C22.2306 2.07117 22.4681 2.17644 22.6458 2.35417C22.8235 2.53191 22.9288 2.7694 22.9411 3.02045C22.9535 3.2715 22.872 3.51817 22.7125 3.71246L18.4125 7.99996H27C27.5304 7.99996 28.0391 8.21068 28.4142 8.58575C28.7893 8.96082 29 9.46953 29 9.99996Z" fill="#49536E"/>
</svg>
