<svg width="32" height="32" viewBox="0 0 32 32" fill="none" xmlns="http://www.w3.org/2000/svg">
<path d="M27.9997 17H28.4122C28.4824 17.0012 28.5516 17.0172 28.6152 17.0469C28.6788 17.0766 28.7355 17.1194 28.7815 17.1725C28.8274 17.2255 28.8617 17.2877 28.8821 17.3549C28.9025 17.4221 28.9085 17.4928 28.8997 17.5625C28.5336 20.5332 27.1556 23.2872 24.9974 25.3611C22.8392 27.4351 20.0326 28.7024 17.0497 28.95C16.9181 27.4318 17.1033 25.9029 17.5937 24.4601C18.0841 23.0172 18.869 21.6921 19.8985 20.5686C20.928 19.445 22.1797 18.5477 23.5743 17.9334C24.9688 17.3191 26.4758 17.0012 27.9997 17V17ZM18.8122 18.8125C20.0138 17.5989 21.4451 16.6367 23.0225 15.9822C24.5999 15.3276 26.2919 14.9937 27.9997 15H28.3872C28.4583 15.0021 28.5291 14.9891 28.5948 14.9617C28.6604 14.9343 28.7195 14.8931 28.768 14.8411C28.8165 14.789 28.8534 14.7272 28.8761 14.6598C28.8988 14.5923 28.9068 14.5208 28.8997 14.45C28.5512 11.5574 27.242 8.86548 25.1818 6.80533C23.1217 4.74518 20.4298 3.436 17.5372 3.08749C17.4664 3.08034 17.3949 3.08839 17.3274 3.1111C17.26 3.1338 17.1982 3.17064 17.1461 3.21916C17.094 3.26767 17.0529 3.32674 17.0255 3.39242C16.9981 3.45809 16.985 3.52886 16.9872 3.59999C17.0435 5.37304 16.7353 7.13879 16.0817 8.78792C15.4281 10.4371 14.4429 11.9345 13.1872 13.1875C11.9856 14.4011 10.5543 15.3632 8.97689 16.0178C7.39948 16.6724 5.7075 17.0063 3.99968 17H3.61218C3.54105 16.9979 3.47028 17.0109 3.40461 17.0383C3.33893 17.0657 3.27986 17.1068 3.23135 17.1589C3.18283 17.211 3.14599 17.2728 3.12329 17.3402C3.10058 17.4077 3.09253 17.4792 3.09968 17.55C3.4482 20.4426 4.75737 23.1345 6.81752 25.1947C8.87767 27.2548 11.5696 28.564 14.4622 28.9125C14.533 28.9196 14.6045 28.9116 14.6719 28.8889C14.7394 28.8662 14.8012 28.8293 14.8533 28.7808C14.9053 28.7323 14.9464 28.6732 14.9738 28.6076C15.0012 28.5419 15.0143 28.4711 15.0122 28.4C14.9558 26.6269 15.264 24.8612 15.9177 23.2121C16.5713 21.5629 17.5565 20.0655 18.8122 18.8125V18.8125ZM11.7747 11.775C12.8502 10.7036 13.6912 9.42022 14.2442 8.00643C14.7972 6.59263 15.0503 5.07929 14.9872 3.56249C14.9826 3.49443 14.9642 3.42802 14.933 3.36735C14.9018 3.30668 14.8585 3.25304 14.8059 3.20971C14.7532 3.16639 14.6922 3.13431 14.6266 3.11544C14.5611 3.09657 14.4923 3.09131 14.4247 3.09999C11.5437 3.45248 8.86346 4.75899 6.81107 6.81138C4.75868 8.86377 3.45217 11.544 3.09968 14.425C3.09097 14.4936 3.0966 14.5634 3.11623 14.6297C3.13585 14.6961 3.16904 14.7576 3.21369 14.8105C3.25834 14.8634 3.31348 14.9064 3.37561 14.9369C3.43775 14.9673 3.50554 14.9846 3.57468 14.9875C5.08923 15.0473 6.59975 14.7927 8.01104 14.2398C9.42233 13.6869 10.7038 12.8477 11.7747 11.775V11.775Z" fill="#49536E"/>
</svg>
