<svg width="32" height="32" viewBox="0 0 32 32" fill="none" xmlns="http://www.w3.org/2000/svg">
<path d="M14.9991 16C14.9992 15.8582 14.9692 15.718 14.911 15.5887C14.8528 15.4594 14.7678 15.3439 14.6616 15.25L5.66161 7.24997C5.56312 7.16297 5.44846 7.09622 5.32417 7.05353C5.19988 7.01085 5.0684 6.99306 4.93724 7.00118C4.80608 7.00931 4.6778 7.04319 4.55973 7.10089C4.44166 7.15859 4.33611 7.23898 4.24911 7.33747C4.16211 7.43596 4.09536 7.55063 4.05267 7.67491C4.00999 7.7992 3.9922 7.93068 4.00032 8.06184C4.00845 8.193 4.04233 8.32128 4.10003 8.43935C4.15773 8.55742 4.23812 8.66297 4.33661 8.74997L12.4991 16L4.33661 23.25C4.1842 23.3844 4.07636 23.562 4.02745 23.7593C3.97853 23.9565 3.99087 24.164 4.06282 24.354C4.13477 24.5441 4.26291 24.7077 4.43018 24.8231C4.59744 24.9385 4.7959 25.0002 4.99911 25C5.24284 24.9991 5.47806 24.9103 5.66161 24.75L14.6616 16.75C14.7678 16.656 14.8528 16.5406 14.911 16.4113C14.9692 16.282 14.9992 16.1418 14.9991 16V16Z" fill="#49536E"/>
<path d="M27 23H15C14.7348 23 14.4804 23.1054 14.2929 23.2929C14.1054 23.4804 14 23.7348 14 24C14 24.2652 14.1054 24.5196 14.2929 24.7071C14.4804 24.8946 14.7348 25 15 25H27C27.2652 25 27.5196 24.8946 27.7071 24.7071C27.8946 24.5196 28 24.2652 28 24C28 23.7348 27.8946 23.4804 27.7071 23.2929C27.5196 23.1054 27.2652 23 27 23Z" fill="#49536E"/>
</svg>
