<svg width="32" height="32" viewBox="0 0 32 32" fill="none" xmlns="http://www.w3.org/2000/svg">
<path d="M29.7128 10.7875L22.2128 3.28751C22.0232 3.09973 21.7672 2.99438 21.5003 2.99438C21.2335 2.99438 20.9774 3.09973 20.7878 3.28751L7.80031 16.2875L4.53781 19.5375C3.48689 20.5884 2.89648 22.0138 2.89648 23.5C2.89648 24.9862 3.48689 26.4116 4.53781 27.4625C5.58873 28.5134 7.01408 29.1038 8.50031 29.1038C9.98653 29.1038 11.4119 28.5134 12.4628 27.4625L22.2003 17.7125L26.5378 13.375L29.3128 12.45C29.4751 12.3943 29.6208 12.2987 29.7365 12.172C29.8523 12.0454 29.9344 11.8917 29.9753 11.725C30.0116 11.5592 30.0066 11.387 29.9608 11.2236C29.9151 11.0601 29.8299 10.9104 29.7128 10.7875ZM25.6878 11.55C25.54 11.6017 25.404 11.6825 25.2878 11.7875L20.8378 16.2375C20.5753 16.4375 18.6003 17.6875 15.4503 16.1C14.0753 15.4125 12.8503 15.15 11.8003 15.1125L21.5003 5.41251L27.1503 11.0625L25.6878 11.55Z" fill="#49536E"/>
</svg>
