<svg width="32" height="32" viewBox="0 0 32 32" fill="none" xmlns="http://www.w3.org/2000/svg">
<path d="M17.2382 18.525L10.8882 6.53748C10.8038 6.37496 10.6764 6.23874 10.5199 6.14365C10.3634 6.04857 10.1838 5.99829 10.0007 5.99829C9.81757 5.99829 9.63796 6.04857 9.48146 6.14365C9.32496 6.23874 9.19757 6.37496 9.11319 6.53748L2.76319 18.525L0.113189 23.5375C-0.00633722 23.7734 -0.0287895 24.0468 0.050635 24.2991C0.130059 24.5514 0.305054 24.7626 0.538189 24.8875C0.774138 25.007 1.04749 25.0295 1.29978 24.95C1.55207 24.8706 1.76326 24.6956 1.88819 24.4625L4.25069 20H15.7507L18.1132 24.4625C18.1967 24.6256 18.3239 24.7623 18.4807 24.8572C18.6374 24.9521 18.8175 25.0016 19.0007 25C19.1727 25.0001 19.3418 24.9559 19.4917 24.8716C19.6416 24.7873 19.7672 24.6658 19.8565 24.5188C19.9457 24.3717 19.9955 24.2042 20.001 24.0323C20.0066 23.8604 19.9677 23.69 19.8882 23.5375L17.2382 18.525ZM5.31319 18L10.0007 9.13748L14.6882 18H5.31319ZM26.0007 11.8625C24.6215 11.849 23.2924 12.3789 22.3007 13.3375C22.1996 13.4276 22.1179 13.5373 22.0605 13.6599C22.0031 13.7825 21.9712 13.9155 21.9667 14.0509C21.9622 14.1862 21.9853 14.321 22.0345 14.4472C22.0836 14.5733 22.1579 14.6881 22.2528 14.7847C22.3477 14.8813 22.4612 14.9576 22.5865 15.009C22.7117 15.0604 22.8461 15.0859 22.9815 15.0838C23.1169 15.0817 23.2505 15.0522 23.3741 14.9969C23.4977 14.9417 23.6088 14.8619 23.7007 14.7625C24.3191 14.1715 25.1455 13.8481 26.0007 13.8625C27.6507 13.8625 29.0007 14.9875 29.0007 16.3625V17.2625C28.1122 16.6713 27.0679 16.358 26.0007 16.3625C23.2382 16.3625 21.0007 18.375 21.0007 20.8625C21.0007 23.35 23.2382 25.3625 26.0007 25.3625C27.1044 25.367 28.1826 25.0309 29.0882 24.4C29.1644 24.5787 29.2916 24.7309 29.4539 24.8376C29.6163 24.9443 29.8064 25.0008 30.0007 25C30.2659 25 30.5203 24.8946 30.7078 24.7071C30.8953 24.5196 31.0007 24.2652 31.0007 24V16.3625C31.0007 13.875 28.7632 11.8625 26.0007 11.8625ZM26.0007 23.3625C24.3507 23.3625 23.0007 22.2375 23.0007 20.8625C23.0007 19.4875 24.3507 18.3625 26.0007 18.3625C27.6507 18.3625 29.0007 19.4875 29.0007 20.8625C29.0007 22.2375 27.6507 23.3625 26.0007 23.3625Z" fill="#49536E"/>
</svg>
