<svg width="32" height="32" viewBox="0 0 32 32" fill="none" xmlns="http://www.w3.org/2000/svg">
<path d="M21.3126 14.4626C22.1026 13.7021 22.6473 12.7228 22.8767 11.6505C23.106 10.5782 23.0096 9.46178 22.5998 8.44466C22.19 7.42753 21.4855 6.55613 20.5768 5.94235C19.6681 5.32857 18.5967 5.00043 17.5001 5.00008H8.00008C7.86829 4.9984 7.7375 5.02312 7.61542 5.07278C7.49333 5.12244 7.38243 5.19604 7.28923 5.28923C7.19604 5.38243 7.12244 5.49333 7.07278 5.61542C7.02312 5.7375 6.9984 5.86829 7.00008 6.00008V25.0001C7.00008 25.2653 7.10544 25.5197 7.29297 25.7072C7.48051 25.8947 7.73486 26.0001 8.00008 26.0001H19.0001C20.3871 26.0007 21.7315 25.5206 22.8046 24.6417C23.8776 23.7628 24.613 22.5392 24.8856 21.1792C25.1582 19.8192 24.9511 18.4068 24.2997 17.1822C23.6483 15.9576 22.5927 14.9966 21.3126 14.4626V14.4626ZM9.00008 7.00008H17.5001C18.4283 7.00008 19.3186 7.36883 19.975 8.02521C20.6313 8.68158 21.0001 9.57182 21.0001 10.5001C21.0001 11.4283 20.6313 12.3186 19.975 12.975C19.3186 13.6313 18.4283 14.0001 17.5001 14.0001H9.00008V7.00008ZM19.0001 24.0001H9.00008V16.0001H19.0001C20.0609 16.0001 21.0784 16.4215 21.8285 17.1717C22.5787 17.9218 23.0001 18.9392 23.0001 20.0001C23.0001 21.0609 22.5787 22.0784 21.8285 22.8285C21.0784 23.5787 20.0609 24.0001 19.0001 24.0001Z" fill="#49536E"/>
</svg>
