<svg width="32" height="32" viewBox="0 0 32 32" fill="none" xmlns="http://www.w3.org/2000/svg">
<path d="M30.5008 14.5874L17.4133 1.49993C17.2285 1.31323 17.0085 1.16502 16.7661 1.06387C16.5236 0.962725 16.2636 0.910645 16.0008 0.910645C15.7381 0.910645 15.478 0.962725 15.2356 1.06387C14.9932 1.16502 14.7732 1.31323 14.5883 1.49993L1.50085 14.5874C1.12984 14.964 0.921875 15.4713 0.921875 15.9999C0.921875 16.5285 1.12984 17.0359 1.50085 17.4124L14.5883 30.4999C14.7732 30.6866 14.9932 30.8348 15.2356 30.936C15.478 31.0371 15.7381 31.0892 16.0008 31.0892C16.2636 31.0892 16.5236 31.0371 16.7661 30.936C17.0085 30.8348 17.2285 30.6866 17.4133 30.4999L30.5008 17.4124C30.8719 17.0359 31.0798 16.5285 31.0798 15.9999C31.0798 15.4713 30.8719 14.964 30.5008 14.5874V14.5874ZM22.0008 14.9999V15.0999C21.9963 15.105 21.9929 15.1109 21.9907 15.1174C21.9886 15.1238 21.9878 15.1307 21.9883 15.1374C21.9903 15.159 21.986 15.1807 21.9758 15.1999C21.9761 15.2174 21.9718 15.2346 21.9633 15.2499V15.2874L21.9383 15.3374C21.9383 15.3499 21.9258 15.3624 21.9258 15.3874L21.9008 15.4249V15.4749L21.8758 15.5124C21.8633 15.5249 21.8508 15.5374 21.8508 15.5499L21.8133 15.5999L21.7883 15.6374L21.7258 15.6999L18.7258 18.6999C18.5347 18.8848 18.2792 18.9881 18.0133 18.9881C17.7475 18.9881 17.492 18.8848 17.3008 18.6999C17.1131 18.5103 17.0077 18.2543 17.0077 17.9874C17.0077 17.7206 17.1131 17.4645 17.3008 17.2749L18.5883 15.9999H14.0008C13.4704 15.9999 12.9617 16.2106 12.5866 16.5857C12.2116 16.9608 12.0008 17.4695 12.0008 17.9999V18.9999C12.0008 19.2651 11.8955 19.5195 11.708 19.707C11.5204 19.8946 11.2661 19.9999 11.0008 19.9999C10.7356 19.9999 10.4813 19.8946 10.2937 19.707C10.1062 19.5195 10.0008 19.2651 10.0008 18.9999V17.9999C10.0041 16.9401 10.4266 15.9246 11.1761 15.1751C11.9255 14.4257 12.941 14.0032 14.0008 13.9999H18.5883L17.2883 12.7124C17.1289 12.5181 17.0474 12.2715 17.0597 12.0204C17.0721 11.7694 17.1773 11.5319 17.3551 11.3541C17.5328 11.1764 17.7703 11.0711 18.0213 11.0588C18.2724 11.0465 18.5191 11.128 18.7133 11.2874L21.7133 14.2874L21.7758 14.3499L21.8008 14.3874L21.8383 14.4374C21.8383 14.4499 21.8508 14.4624 21.8633 14.4749L21.8883 14.5124V14.5624L21.9133 14.5999C21.9133 14.6249 21.9258 14.6374 21.9258 14.6499L21.9508 14.6999V14.7374C21.9593 14.7527 21.9636 14.77 21.9633 14.7874C21.9735 14.8066 21.9778 14.8283 21.9758 14.8499C21.9753 14.8567 21.9761 14.8635 21.9782 14.87C21.9804 14.8764 21.9838 14.8824 21.9883 14.8874V14.9874L22.0008 14.9999Z" fill="#49536E"/>
</svg>
