<svg width="32" height="32" viewBox="0 0 32 32" fill="none" xmlns="http://www.w3.org/2000/svg">
<path d="M20 10H12C11.7348 10 11.4804 10.1054 11.2929 10.2929C11.1054 10.4804 11 10.7348 11 11C11 11.2652 11.1054 11.5196 11.2929 11.7071C11.4804 11.8946 11.7348 12 12 12H20C20.2652 12 20.5196 11.8946 20.7071 11.7071C20.8946 11.5196 21 11.2652 21 11C21 10.7348 20.8946 10.4804 20.7071 10.2929C20.5196 10.1054 20.2652 10 20 10Z" fill="#49536E"/>
<path d="M28.0005 14.9875C28.0025 14.9537 27.9983 14.9198 27.988 14.8875V14.825C27.9755 14.8 27.9755 14.775 27.963 14.75L25.163 4.50001C25.0546 4.07153 24.8065 3.69142 24.4578 3.41976C24.1092 3.14811 23.68 3.0004 23.238 3.00001H8.76299C8.32433 2.99897 7.89765 3.14308 7.54945 3.40988C7.20126 3.67668 6.95111 4.05118 6.83799 4.47501L4.03799 14.725C4.02549 14.75 4.02549 14.775 4.01299 14.8V14.8625C4.0027 14.8948 3.99846 14.9287 4.00049 14.9625V14.9875C3.99853 15.0254 4.00275 15.0634 4.01299 15.1V15.1C4.01527 15.1386 4.02371 15.1766 4.03799 15.2125V15.2125L6.83799 25.475C6.94162 25.9081 7.1877 26.2939 7.53677 26.5704C7.88584 26.8469 8.31767 26.9982 8.76299 27H10.0005L8.20049 29.4C8.04136 29.6122 7.97304 29.8789 8.01054 30.1414C8.04805 30.404 8.18832 30.6409 8.40049 30.8C8.57225 30.9324 8.78367 31.0028 9.00049 31C9.15574 31 9.30885 30.9639 9.44771 30.8944C9.58656 30.825 9.70735 30.7242 9.80049 30.6L12.5005 27H19.5005L22.2005 30.6C22.2936 30.7242 22.4144 30.825 22.5533 30.8944C22.6921 30.9639 22.8452 31 23.0005 31C23.2173 31.0028 23.4287 30.9324 23.6005 30.8C23.7056 30.7212 23.7941 30.6225 23.861 30.5095C23.9279 30.3965 23.9719 30.2714 23.9904 30.1414C24.009 30.0114 24.0018 29.879 23.9692 29.7518C23.9366 29.6246 23.8793 29.5051 23.8005 29.4L22.0005 27H23.238C23.6767 27.001 24.1033 26.8569 24.4515 26.5901C24.7997 26.3233 25.0499 25.9488 25.163 25.525L27.963 15.2625C27.9773 15.2266 27.9857 15.1886 27.988 15.15V15.15C27.9982 15.1134 28.0025 15.0754 28.0005 15.0375V14.9875ZM17.0005 24C17.0005 24.2652 16.8951 24.5196 16.7076 24.7071C16.5201 24.8946 16.2657 25 16.0005 25C15.7353 25 15.4809 24.8946 15.2934 24.7071C15.1059 24.5196 15.0005 24.2652 15.0005 24V19C15.0005 18.7348 15.1059 18.4804 15.2934 18.2929C15.4809 18.1054 15.7353 18 16.0005 18C16.2657 18 16.5201 18.1054 16.7076 18.2929C16.8951 18.4804 17.0005 18.7348 17.0005 19V24ZM16.0005 15.9875L6.25049 14.2125L8.76299 5.00001H23.238L25.7505 14.2125L16.0005 15.9875Z" fill="#49536E"/>
</svg>
