<svg width="32" height="32" viewBox="0 0 32 32" fill="none" xmlns="http://www.w3.org/2000/svg">
<path d="M16 23.4875C15.6765 23.6959 15.3428 23.8878 15 24.0625V29C15 29.2653 15.1054 29.5196 15.2929 29.7072C15.4804 29.8947 15.7348 30 16 30C16.2652 30 16.5196 29.8947 16.7071 29.7072C16.8946 29.5196 17 29.2653 17 29V24.0625C16.6572 23.8878 16.3235 23.6959 16 23.4875V23.4875Z" fill="#49536E"/>
<path d="M24.7625 7.82491C24.0391 6.09772 22.8214 4.62283 21.2624 3.58556C19.7034 2.54828 17.8726 1.99487 16 1.99487C14.1275 1.99487 12.2967 2.54828 10.7376 3.58556C9.17862 4.62283 7.96092 6.09772 7.23753 7.82491C5.68101 8.54621 4.36194 9.69564 3.43448 11.1388C2.50703 12.582 2.00949 14.2594 2.00003 15.9749C1.98753 20.8249 5.92503 24.8749 10.7625 24.9999C12.2304 25.0383 13.6853 24.7164 15 24.0624V19.6124L9.55003 16.8999C9.31133 16.7806 9.12983 16.5713 9.04543 16.3181C9.00365 16.1928 8.98696 16.0604 8.99633 15.9286C9.0057 15.7968 9.04094 15.6681 9.10003 15.5499C9.15912 15.4317 9.24092 15.3263 9.34075 15.2398C9.44057 15.1532 9.55647 15.0871 9.68183 15.0453C9.93501 14.9609 10.2113 14.9806 10.45 15.0999L15 17.3874V10.9999C15 10.7347 15.1054 10.4803 15.2929 10.2928C15.4805 10.1053 15.7348 9.99992 16 9.99992C16.2652 9.99992 16.5196 10.1053 16.7071 10.2928C16.8947 10.4803 17 10.7347 17 10.9999V14.3874L21.55 12.0999C21.7887 11.9806 22.0651 11.9609 22.3182 12.0453C22.5714 12.1297 22.7807 12.3112 22.9 12.5499C23.0194 12.7886 23.039 13.0649 22.9546 13.3181C22.8702 13.5713 22.6887 13.7806 22.45 13.8999L17 16.6124V24.0624C18.2432 24.6791 19.6122 25 21 24.9999H21.2375C26.075 24.8749 30.0125 20.8249 30 15.9749C29.9906 14.2594 29.493 12.582 28.5656 11.1388C27.6381 9.69564 26.319 8.54621 24.7625 7.82491V7.82491Z" fill="#49536E"/>
</svg>
