<svg width="32" height="32" viewBox="0 0 32 32" fill="none" xmlns="http://www.w3.org/2000/svg">
<path d="M28.9009 24.4376C28.8188 24.6064 28.6909 24.7486 28.5317 24.8481C28.3726 24.9476 28.1886 25.0002 28.0009 25.0001H17.0009V30.0001C17.0009 30.2653 16.8956 30.5197 16.708 30.7072C16.5205 30.8947 16.2662 31.0001 16.0009 31.0001C15.7357 31.0001 15.4814 30.8947 15.2938 30.7072C15.1063 30.5197 15.0009 30.2653 15.0009 30.0001V25.0001H4.00094C3.81414 24.9995 3.63124 24.9467 3.47295 24.8475C3.31466 24.7483 3.18731 24.6068 3.10534 24.4389C3.02337 24.2711 2.99005 24.0836 3.00915 23.8978C3.02826 23.712 3.09903 23.5352 3.21344 23.3876L8.95094 16.0001H6.00094C5.81414 15.9995 5.63124 15.9467 5.47295 15.8475C5.31466 15.7483 5.18731 15.6068 5.10534 15.4389C5.02337 15.2711 4.99005 15.0836 5.00915 14.8978C5.02826 14.712 5.09903 14.5352 5.21344 14.3876L15.2134 1.38759C15.307 1.26807 15.4265 1.17141 15.5629 1.10493C15.6994 1.03845 15.8492 1.00391 16.0009 1.00391C16.1527 1.00391 16.3025 1.03845 16.4389 1.10493C16.5754 1.17141 16.6949 1.26807 16.7884 1.38759L26.7884 14.3876C26.9029 14.5352 26.9736 14.712 26.9927 14.8978C27.0118 15.0836 26.9785 15.2711 26.8965 15.4389C26.8146 15.6068 26.6872 15.7483 26.5289 15.8475C26.3706 15.9467 26.1877 15.9995 26.0009 16.0001H23.0509L28.7884 23.3876C28.9033 23.5347 28.9747 23.711 28.9946 23.8965C29.0145 24.0821 28.982 24.2695 28.9009 24.4376Z" fill="#49536E"/>
</svg>
