<svg width="32" height="32" viewBox="0 0 32 32" fill="none" xmlns="http://www.w3.org/2000/svg">
<path d="M30.0009 17V25C30.0009 25.2652 29.8956 25.5195 29.708 25.7071C29.5205 25.8946 29.2662 26 29.0009 26H21.0009C20.8039 25.999 20.6114 25.9405 20.4471 25.8317C20.2828 25.7229 20.1538 25.5685 20.0759 25.3875C20.0039 25.2028 19.9856 25.0014 20.0232 24.8068C20.0608 24.6121 20.1528 24.432 20.2884 24.2875L23.5884 21L17.0009 14.4125L12.7134 18.7125C12.5238 18.9002 12.2678 19.0056 12.0009 19.0056C11.7341 19.0056 11.478 18.9002 11.2884 18.7125L2.28844 9.71246C2.12898 9.51817 2.04748 9.2715 2.05981 9.02045C2.07214 8.7694 2.17741 8.53191 2.35515 8.35417C2.53288 8.17644 2.77037 8.07117 3.02143 8.05884C3.27248 8.04651 3.51914 8.128 3.71344 8.28746L12.0009 16.5875L16.2884 12.2875C16.478 12.0997 16.7341 11.9943 17.0009 11.9943C17.2678 11.9943 17.5238 12.0997 17.7134 12.2875L25.0009 19.5875L28.2884 16.2875C28.433 16.1518 28.6131 16.0599 28.8077 16.0222C29.0024 15.9846 29.2037 16.0029 29.3884 16.075C29.5704 16.1515 29.7257 16.2801 29.8347 16.4447C29.9437 16.6093 30.0016 16.8025 30.0009 17V17Z" fill="#49536E"/>
</svg>
