<svg width="32" height="32" viewBox="0 0 32 32" fill="none" xmlns="http://www.w3.org/2000/svg">
<path d="M29.5862 23.4999L18.5987 4.49992C18.3356 4.04296 17.9568 3.66339 17.5003 3.39947C17.0439 3.13554 16.5259 2.99658 15.9987 2.99658C15.4714 2.99658 14.9535 3.13554 14.497 3.39947C14.0406 3.66339 13.6617 4.04296 13.3987 4.49992V4.49992L2.41118 23.4999C2.14426 23.9546 2.00241 24.4717 2.00003 24.9989C1.99765 25.5261 2.13482 26.0446 2.39762 26.5016C2.66041 26.9587 3.03947 27.338 3.49631 27.6012C3.95314 27.8643 4.47148 28.0019 4.99868 27.9999H26.9987C27.5259 28.0019 28.0442 27.8643 28.501 27.6012C28.9579 27.338 29.3369 26.9587 29.5997 26.5016C29.8625 26.0446 29.9997 25.5261 29.9973 24.9989C29.9949 24.4717 29.8531 23.9546 29.5862 23.4999V23.4999Z" fill="#49536E"/>
</svg>
