<svg width="32" height="32" viewBox="0 0 32 32" fill="none" xmlns="http://www.w3.org/2000/svg">
<path d="M30.6746 7.6625L24.4996 4.1375C24.3479 4.0485 24.1754 4.00107 23.9996 4H19.9996C19.7344 4 19.48 4.10536 19.2925 4.29289C19.1049 4.48043 18.9996 4.73478 18.9996 5C18.9996 5.79565 18.6835 6.55871 18.1209 7.12132C17.5583 7.68393 16.7952 8 15.9996 8C15.2039 8 14.4409 7.68393 13.8783 7.12132C13.3156 6.55871 12.9996 5.79565 12.9996 5C12.9996 4.73478 12.8942 4.48043 12.7067 4.29289C12.5191 4.10536 12.2648 4 11.9996 4H7.99958C7.82372 4.00107 7.65126 4.0485 7.49958 4.1375L1.32458 7.6625C0.879338 7.9133 0.547806 8.32595 0.398832 8.81477C0.249859 9.30359 0.294891 9.83101 0.524578 10.2875L2.82458 14.9C2.99135 15.231 3.24681 15.5091 3.56244 15.7033C3.87807 15.8976 4.24147 16.0003 4.61208 16H6.99958V26C6.99958 26.5304 7.21029 27.0391 7.58536 27.4142C7.96044 27.7893 8.46915 28 8.99958 28H22.9996C23.53 28 24.0387 27.7893 24.4138 27.4142C24.7889 27.0391 24.9996 26.5304 24.9996 26V16H27.3871C27.7577 16.0003 28.1211 15.8976 28.4367 15.7033C28.7523 15.5091 29.0078 15.231 29.1746 14.9L31.4746 10.2875C31.7043 9.83101 31.7493 9.30359 31.6003 8.81477C31.4514 8.32595 31.1198 7.9133 30.6746 7.6625V7.6625ZM4.61208 14L2.31208 9.4L6.99958 6.725V14H4.61208ZM27.3871 14H24.9996V6.725L29.6871 9.4L27.3871 14Z" fill="#49536E"/>
</svg>
