<svg width="32" height="32" viewBox="0 0 32 32" fill="none" xmlns="http://www.w3.org/2000/svg">
<path d="M29.9513 15.825C29.6539 12.3289 28.0558 9.07163 25.4728 6.69695C22.8898 4.32227 19.5099 3.00303 16.0013 3V3C12.4926 3.00303 9.11268 4.32227 6.52969 6.69695C3.94671 9.07163 2.3486 12.3289 2.05125 15.825C2.02573 16.1019 2.05934 16.381 2.14985 16.6439C2.24036 16.9068 2.3857 17.1475 2.57625 17.35C2.76166 17.5538 2.98741 17.7168 3.23918 17.8287C3.49095 17.9406 3.76324 17.9989 4.03875 18H15.0013V25C15.0013 26.0609 15.4227 27.0783 16.1728 27.8284C16.923 28.5786 17.9404 29 19.0013 29C20.0621 29 21.0795 28.5786 21.8297 27.8284C22.5798 27.0783 23.0013 26.0609 23.0013 25C23.0013 24.7348 22.8959 24.4804 22.7084 24.2929C22.5208 24.1054 22.2665 24 22.0013 24C21.736 24 21.4817 24.1054 21.2941 24.2929C21.1066 24.4804 21.0013 24.7348 21.0013 25C21.0013 25.5304 20.7905 26.0391 20.4155 26.4142C20.0404 26.7893 19.5317 27 19.0013 27C18.4708 27 17.9621 26.7893 17.587 26.4142C17.212 26.0391 17.0013 25.5304 17.0013 25V18H27.9638C28.2393 17.9989 28.5115 17.9406 28.7633 17.8287C29.0151 17.7168 29.2408 17.5538 29.4263 17.35C29.6168 17.1475 29.7621 16.9068 29.8526 16.6439C29.9432 16.381 29.9768 16.1019 29.9513 15.825V15.825ZM4.03875 16C4.25307 13.4272 5.29225 10.9924 7.00169 9.05775C8.71112 7.12309 10.9995 5.792 13.5263 5.2625C12.0638 7.2625 10.2263 10.7625 10.0263 16H4.03875ZM21.9763 16C21.7763 10.7625 19.9388 7.2625 18.4763 5.2625C21.003 5.792 23.2914 7.12309 25.0008 9.05775C26.7102 10.9924 27.7494 13.4272 27.9638 16H21.9763Z" fill="#49536E"/>
</svg>
