<svg width="32" height="32" viewBox="0 0 32 32" fill="none" xmlns="http://www.w3.org/2000/svg">
<path d="M29.4263 17.3501C29.2408 17.5539 29.0151 17.7169 28.7633 17.8288C28.5115 17.9407 28.2393 17.999 27.9638 18.0001H17.0013V25.0001C17.0013 25.5305 17.212 26.0392 17.587 26.4143C17.9621 26.7894 18.4708 27.0001 19.0013 27.0001C19.5317 27.0001 20.0404 26.7894 20.4155 26.4143C20.7905 26.0392 21.0013 25.5305 21.0013 25.0001C21.0013 24.7349 21.1066 24.4805 21.2941 24.293C21.4817 24.1054 21.736 24.0001 22.0013 24.0001C22.2665 24.0001 22.5208 24.1054 22.7084 24.293C22.8959 24.4805 23.0013 24.7349 23.0013 25.0001C23.0013 26.0609 22.5798 27.0784 21.8297 27.8285C21.0795 28.5787 20.0621 29.0001 19.0013 29.0001C17.9404 29.0001 16.923 28.5787 16.1728 27.8285C15.4227 27.0784 15.0013 26.0609 15.0013 25.0001V18.0001H4.03875C3.76324 17.999 3.49095 17.9407 3.23918 17.8288C2.98741 17.7169 2.76166 17.5539 2.57625 17.3501C2.3857 17.1476 2.24036 16.9069 2.14985 16.644C2.05934 16.3811 2.02573 16.102 2.05125 15.8251C2.26818 13.211 3.21577 10.7107 4.78583 8.60943C6.35589 6.50819 8.48515 4.89077 10.9305 3.94182C13.3759 2.99288 16.0388 2.75065 18.6152 3.2428C21.1917 3.73494 23.5778 4.94162 25.5013 6.72508C28.0794 9.08844 29.669 12.339 29.9513 15.8251C29.9768 16.102 29.9432 16.3811 29.8526 16.644C29.7621 16.9069 29.6168 17.1476 29.4263 17.3501Z" fill="#49536E"/>
</svg>
