<svg width="32" height="32" viewBox="0 0 32 32" fill="none" xmlns="http://www.w3.org/2000/svg">
<path d="M15.9994 9.5C17.0872 9.5 18.1506 9.82257 19.055 10.4269C19.9595 11.0313 20.6645 11.8902 21.0807 12.8952C21.497 13.9002 21.6059 15.0061 21.3937 16.073C21.1815 17.1399 20.6577 18.1199 19.8885 18.8891C19.1193 19.6583 18.1393 20.1821 17.0724 20.3943C16.0055 20.6065 14.8996 20.4976 13.8946 20.0813C12.8896 19.6651 12.0307 18.9601 11.4263 18.0556C10.822 17.1512 10.4994 16.0878 10.4994 15C10.4994 13.5413 11.0789 12.1424 12.1103 11.1109C13.1418 10.0795 14.5407 9.5 15.9994 9.5V9.5ZM28.8994 9.25C28.8109 9.40334 28.6832 9.53044 28.5295 9.61828C28.3758 9.70613 28.2015 9.75158 28.0244 9.75C27.8482 9.75142 27.6751 9.70381 27.5244 9.6125L26.9494 9.275C26.6693 9.5152 26.3472 9.70166 25.9994 9.825V10.5C25.9994 10.7652 25.894 11.0196 25.7065 11.2071C25.519 11.3946 25.2646 11.5 24.9994 11.5C24.7342 11.5 24.4798 11.3946 24.2923 11.2071C24.1048 11.0196 23.9994 10.7652 23.9994 10.5V9.825C23.6516 9.70166 23.3295 9.5152 23.0494 9.275L22.4744 9.6125C22.3237 9.70381 22.1506 9.75142 21.9744 9.75C21.7554 9.74868 21.5429 9.67549 21.3695 9.54168C21.1961 9.40786 21.0714 9.22083 21.0146 9.00929C20.9578 8.79776 20.9721 8.57344 21.0551 8.37078C21.1382 8.16812 21.2855 7.99833 21.4744 7.8875L22.0494 7.55C22.0136 7.36891 21.9969 7.18457 21.9994 7C21.9969 6.81543 22.0136 6.63109 22.0494 6.45L21.4744 6.1125C21.3592 6.04882 21.2578 5.96273 21.1763 5.8593C21.0948 5.75587 21.0349 5.63718 20.9999 5.51023C20.965 5.38328 20.9558 5.25063 20.9729 5.12007C20.9899 4.98951 21.033 4.86369 21.0994 4.75C21.235 4.52101 21.4552 4.35459 21.7126 4.28675C21.9699 4.21891 22.2436 4.25511 22.4744 4.3875L23.0494 4.725C23.3295 4.4848 23.6516 4.29834 23.9994 4.175V3.5C23.9994 3.23478 24.1048 2.98043 24.2923 2.79289C24.4798 2.60536 24.7342 2.5 24.9994 2.5C25.2646 2.5 25.519 2.60536 25.7065 2.79289C25.894 2.98043 25.9994 3.23478 25.9994 3.5V4.175C26.3472 4.29834 26.6693 4.4848 26.9494 4.725L27.5244 4.3875C27.7552 4.25511 28.0289 4.21891 28.2862 4.28675C28.5436 4.35459 28.7638 4.52101 28.8994 4.75C28.9658 4.86369 29.0088 4.98951 29.0259 5.12007C29.043 5.25063 29.0338 5.38328 28.9989 5.51023C28.9639 5.63718 28.904 5.75587 28.8225 5.8593C28.741 5.96273 28.6396 6.04882 28.5244 6.1125L27.9494 6.45C27.9852 6.63109 28.0019 6.81543 27.9994 7C28.0019 7.18457 27.9852 7.36891 27.9494 7.55L28.5244 7.8875C28.6396 7.95118 28.741 8.03727 28.8225 8.1407C28.904 8.24413 28.9639 8.36282 28.9989 8.48977C29.0338 8.61672 29.043 8.74937 29.0259 8.87993C29.0088 9.01049 28.9658 9.13631 28.8994 9.25ZM24.9994 8C25.1972 8 25.3905 7.94135 25.555 7.83147C25.7194 7.72159 25.8476 7.56541 25.9233 7.38268C25.999 7.19996 26.0188 6.99889 25.9802 6.80491C25.9416 6.61093 25.8464 6.43275 25.7065 6.29289C25.5667 6.15304 25.3885 6.0578 25.1945 6.01921C25.0005 5.98063 24.7994 6.00043 24.6167 6.07612C24.434 6.15181 24.2778 6.27998 24.1679 6.44443C24.058 6.60888 23.9994 6.80222 23.9994 7C23.9994 7.26522 24.1048 7.51957 24.2923 7.70711C24.4798 7.89464 24.7342 8 24.9994 8ZM27.7994 13.575C27.5382 13.6064 27.2998 13.7394 27.136 13.9453C26.9723 14.1512 26.8962 14.4134 26.9244 14.675C26.9743 15.1149 26.9993 15.5573 26.9994 16C27.0031 18.6917 26.0152 21.2904 24.2244 23.3C23.4149 22.1388 22.3718 21.1596 21.1619 20.425C19.7727 21.7559 17.9232 22.4989 15.9994 22.4989C14.0756 22.4989 12.2261 21.7559 10.8369 20.425C9.62699 21.1596 8.58387 22.1388 7.7744 23.3C6.36791 21.7146 5.44937 19.7566 5.12923 17.6616C4.80909 15.5666 5.10099 13.4236 5.96982 11.4905C6.83865 9.55746 8.24742 7.91652 10.0267 6.76507C11.806 5.61362 13.88 5.0007 15.9994 5C16.3417 4.99794 16.6839 5.01463 17.0244 5.05C17.1557 5.06149 17.288 5.047 17.4137 5.00736C17.5395 4.96773 17.6561 4.90371 17.7571 4.81898C17.8581 4.73425 17.9414 4.63045 18.0023 4.51352C18.0632 4.39659 18.1004 4.26882 18.1119 4.1375C18.1234 4.00618 18.1089 3.87388 18.0693 3.74816C18.0296 3.62243 17.9656 3.50575 17.8809 3.40477C17.7961 3.30378 17.6923 3.22048 17.5754 3.15961C17.4585 3.09873 17.3307 3.06149 17.1994 3.05C16.8119 3.0125 16.3994 3 15.9994 3C13.3799 3.00091 10.8218 3.79313 8.66034 5.27284C6.49885 6.75255 4.83478 8.85072 3.88621 11.2924C2.93765 13.7341 2.74883 16.4054 3.3445 18.9562C3.94017 21.5071 5.29254 23.8185 7.2244 25.5875L7.3869 25.7375C9.76347 27.8394 12.8267 28.9997 15.9994 28.9997C19.1721 28.9997 22.2353 27.8394 24.6119 25.7375L24.7744 25.5875C26.1071 24.3714 27.1712 22.8906 27.8987 21.2396C28.6262 19.5887 29.0011 17.8041 28.9994 16C29.0018 15.482 28.9726 14.9644 28.9119 14.45C28.8964 14.3195 28.8553 14.1932 28.791 14.0786C28.7267 13.9639 28.6404 13.8631 28.5371 13.7818C28.4337 13.7006 28.3154 13.6405 28.1888 13.605C28.0623 13.5695 27.9299 13.5593 27.7994 13.575Z" fill="#49536E"/>
</svg>
