<svg width="32" height="32" viewBox="0 0 32 32" fill="none" xmlns="http://www.w3.org/2000/svg">
<path d="M15.1485 19.7374C16.4902 18.8462 17.5093 17.5466 18.055 16.0311C18.6007 14.5157 18.644 12.8648 18.1785 11.3227C17.713 9.78074 16.7635 8.42957 15.4703 7.46918C14.1772 6.5088 12.6093 5.99023 10.9985 5.99023C9.38781 5.99023 7.81987 6.5088 6.52676 7.46918C5.23365 8.42957 4.28408 9.78074 3.81858 11.3227C3.35308 12.8648 3.39638 14.5157 3.94208 16.0311C4.48777 17.5466 5.50687 18.8462 6.84855 19.7374C4.55976 20.5791 2.58365 22.1015 1.18605 24.0999C1.07688 24.2482 1.0119 24.4242 0.998632 24.6078C0.985359 24.7914 1.02433 24.9751 1.11105 25.1374C1.19674 25.2988 1.32447 25.4339 1.48072 25.5285C1.63696 25.6231 1.81589 25.6737 1.99855 25.6749H19.9985C20.1812 25.6737 20.3601 25.6231 20.5164 25.5285C20.6726 25.4339 20.8004 25.2988 20.886 25.1374C20.9728 24.9751 21.0117 24.7914 20.9985 24.6078C20.9852 24.4242 20.9202 24.2482 20.811 24.0999C19.4134 22.1015 17.4373 20.5791 15.1485 19.7374V19.7374Z" fill="#49536E"/>
<path d="M31.0133 24.1C29.6078 22.1041 27.6286 20.5826 25.3383 19.7375C26.6843 18.8497 27.7076 17.551 28.2562 16.0348C28.8047 14.5185 28.8492 12.8657 28.3829 11.3222C27.9166 9.77871 26.9645 8.42695 25.6682 7.46802C24.3719 6.5091 22.8007 5.99425 21.1883 6.00005C20.5002 6.0037 19.8153 6.09613 19.1508 6.27505C18.9948 6.32193 18.8521 6.40535 18.7347 6.5184C18.6173 6.63144 18.5286 6.77085 18.4758 6.92505C18.4255 7.07799 18.4129 7.24081 18.439 7.39968C18.4651 7.55855 18.5292 7.70876 18.6258 7.83755C19.7564 9.35651 20.4058 11.1794 20.4905 13.071C20.5752 14.9626 20.0911 16.8362 19.1008 18.45C18.9738 18.6645 18.9304 18.9182 18.9788 19.1627C19.0273 19.4072 19.1642 19.6252 19.3633 19.775C19.7383 20.0667 20.1008 20.3667 20.4508 20.675L20.5133 20.7375C21.8476 21.9722 22.93 23.4537 23.7008 25.1C23.7799 25.2721 23.9068 25.4178 24.0664 25.5197C24.226 25.6217 24.4115 25.6756 24.6008 25.675H30.1883C30.371 25.6738 30.5499 25.6232 30.7062 25.5286C30.8624 25.434 30.9901 25.2989 31.0758 25.1375C31.1615 24.9755 31.201 24.793 31.19 24.61C31.1789 24.4271 31.1178 24.2506 31.0133 24.1V24.1Z" fill="#49536E"/>
</svg>
