<svg width="32" height="32" viewBox="0 0 32 32" fill="none" xmlns="http://www.w3.org/2000/svg">
<path d="M15.9994 9.50007C17.0872 9.50007 18.1506 9.82264 19.055 10.427C19.9595 11.0313 20.6645 11.8903 21.0807 12.8953C21.497 13.9003 21.6059 15.0062 21.3937 16.0731C21.1815 17.14 20.6577 18.12 19.8885 18.8892C19.1193 19.6583 18.1393 20.1822 17.0724 20.3944C16.0055 20.6066 14.8996 20.4977 13.8946 20.0814C12.8896 19.6651 12.0307 18.9602 11.4263 18.0557C10.822 17.1512 10.4994 16.0879 10.4994 15.0001C10.4994 13.5414 11.0789 12.1424 12.1103 11.111C13.1418 10.0795 14.5407 9.50007 15.9994 9.50007V9.50007ZM21.9994 8.00007H27.9994C28.2646 8.00007 28.519 7.89472 28.7065 7.70718C28.894 7.51964 28.9994 7.26529 28.9994 7.00007C28.9994 6.73486 28.894 6.4805 28.7065 6.29297C28.519 6.10543 28.2646 6.00007 27.9994 6.00007H21.9994C21.7342 6.00007 21.4798 6.10543 21.2923 6.29297C21.1048 6.4805 20.9994 6.73486 20.9994 7.00007C20.9994 7.26529 21.1048 7.51964 21.2923 7.70718C21.4798 7.89472 21.7342 8.00007 21.9994 8.00007ZM26.9869 11.0626C26.862 11.1046 26.7467 11.1713 26.6479 11.2586C26.5491 11.3459 26.4688 11.4521 26.4117 11.5709C26.3547 11.6897 26.3219 11.8188 26.3155 11.9505C26.3091 12.0821 26.3291 12.2138 26.3744 12.3376C27.0276 14.1903 27.1727 16.1842 26.7946 18.1121C26.4165 20.0399 25.529 21.8313 24.2244 23.3001C23.4149 22.1389 22.3718 21.1597 21.1619 20.4251C19.7727 21.756 17.9232 22.4989 15.9994 22.4989C14.0756 22.4989 12.2261 21.756 10.8369 20.4251C9.62699 21.1597 8.58387 22.1389 7.7744 23.3001C6.36791 21.7147 5.44937 19.7567 5.12923 17.6617C4.80909 15.5666 5.10099 13.4237 5.96982 11.4906C6.83865 9.55753 8.24742 7.91659 10.0267 6.76514C11.806 5.6137 13.88 5.00077 15.9994 5.00007C16.5812 5.00189 17.162 5.04785 17.7369 5.13757C17.9961 5.1731 18.2589 5.10562 18.4689 4.94962C18.679 4.79363 18.8195 4.56153 18.8604 4.30312C18.9013 4.0447 18.8393 3.78056 18.6877 3.56734C18.536 3.35412 18.3069 3.20881 18.0494 3.16257C17.3717 3.05208 16.686 2.99773 15.9994 3.00007C13.3799 3.00098 10.8218 3.7932 8.66034 5.27291C6.49885 6.75262 4.83478 8.85079 3.88621 11.2925C2.93765 13.7342 2.74883 16.4055 3.3445 18.9563C3.94017 21.5071 5.29254 23.8185 7.2244 25.5876L7.3869 25.7376C9.76347 27.8395 12.8267 28.9998 15.9994 28.9998C19.1721 28.9998 22.2353 27.8395 24.6119 25.7376L24.7744 25.5876C26.656 23.8634 27.9896 21.6245 28.6096 19.1489C29.2296 16.6733 29.1087 14.0701 28.2619 11.6626C28.1716 11.4145 27.9869 11.2123 27.748 11.0999C27.5092 10.9875 27.2356 10.9741 26.9869 11.0626V11.0626Z" fill="#49536E"/>
</svg>
