<svg width="32" height="32" viewBox="0 0 32 32" fill="none" xmlns="http://www.w3.org/2000/svg">
<path d="M31.7132 16.7125L28.7132 19.7125C28.522 19.8973 28.2666 20.0006 28.0007 20.0006C27.7348 20.0006 27.4793 19.8973 27.2882 19.7125L24.2882 16.7125C24.1525 16.5679 24.0606 16.3878 24.023 16.1932C23.9854 15.9985 24.0036 15.7972 24.0757 15.6125C24.1522 15.4305 24.2808 15.2752 24.4455 15.1662C24.6101 15.0572 24.8033 14.9994 25.0007 15H26.9507C26.747 12.7187 25.8354 10.558 24.3434 8.8202C22.8515 7.08237 20.8538 5.85422 18.6296 5.30747C16.4054 4.76072 14.066 4.92271 11.9384 5.77078C9.81077 6.61885 8.00138 8.11061 6.76318 10.0375C6.69113 10.1477 6.59803 10.2425 6.48923 10.3166C6.38042 10.3908 6.25805 10.4427 6.12914 10.4694C6.00023 10.4961 5.86731 10.4971 5.73801 10.4723C5.60872 10.4475 5.48559 10.3975 5.37568 10.325C5.26491 10.2551 5.16915 10.1639 5.09397 10.0566C5.01879 9.94938 4.9657 9.82825 4.93778 9.70029C4.90986 9.57233 4.90767 9.44009 4.93135 9.31128C4.95503 9.18246 5.00409 9.05964 5.07568 8.94997C6.55079 6.6623 8.70676 4.89537 11.2396 3.89834C13.7724 2.90131 16.5544 2.72448 19.1931 3.39278C21.8317 4.06109 24.1941 5.54081 25.947 7.62329C27.6999 9.70577 28.7549 12.2859 28.9632 15H31.0007C31.1981 14.9994 31.3913 15.0572 31.5559 15.1662C31.7205 15.2752 31.8492 15.4305 31.9257 15.6125C31.9977 15.7972 32.016 15.9985 31.9784 16.1932C31.9408 16.3878 31.8488 16.5679 31.7132 16.7125V16.7125ZM26.6257 21.675C26.5158 21.6025 26.3927 21.5524 26.2634 21.5276C26.1341 21.5029 26.0011 21.5039 25.8722 21.5306C25.7433 21.5573 25.6209 21.6092 25.5121 21.6833C25.4033 21.7574 25.3102 21.8523 25.2382 21.9625C24.9362 22.438 24.5977 22.8894 24.2257 23.3125V23.3125C23.4162 22.1513 22.3731 21.1721 21.1632 20.4375C19.774 21.7684 17.9245 22.5113 16.0007 22.5113C14.0769 22.5113 12.2274 21.7684 10.8382 20.4375C9.62827 21.1721 8.58516 22.1513 7.77568 23.3125C6.21317 21.5554 5.25772 19.3421 5.05068 17H7.00068C7.19811 17.0006 7.3913 16.9428 7.55591 16.8338C7.72052 16.7248 7.84918 16.5695 7.92568 16.3875C7.99773 16.2028 8.01601 16.0014 7.9784 15.8068C7.9408 15.6121 7.84884 15.4321 7.71318 15.2875L4.71318 12.2875C4.52359 12.0997 4.26753 11.9943 4.00068 11.9943C3.73384 11.9943 3.47778 12.0997 3.28818 12.2875L0.288184 15.2875C0.152525 15.4321 0.060573 15.6121 0.0229673 15.8068C-0.0146384 16.0014 0.00363875 16.2028 0.0756842 16.3875C0.152186 16.5695 0.280849 16.7248 0.445459 16.8338C0.610069 16.9428 0.803259 17.0006 1.00068 17H3.03818C3.29417 20.3492 4.84026 23.4683 7.35068 25.7V25.7L7.40068 25.7375C8.80222 26.9783 10.4554 27.9014 12.247 28.4437C14.0386 28.9861 15.9262 29.1347 17.7806 28.8794C19.635 28.6242 21.4123 27.9711 22.9907 26.9649C24.5692 25.9588 25.9115 24.6233 26.9257 23.05C26.9973 22.9403 27.0463 22.8175 27.07 22.6887C27.0937 22.5599 27.0915 22.4276 27.0636 22.2997C27.0357 22.1717 26.9826 22.0506 26.9074 21.9433C26.8322 21.8361 26.7365 21.7449 26.6257 21.675ZM16.0007 20.5C17.0885 20.5 18.1518 20.1774 19.0563 19.5731C19.9608 18.9687 20.6657 18.1097 21.082 17.1047C21.4983 16.0997 21.6072 14.9939 21.395 13.927C21.1828 12.8601 20.659 11.8801 19.8898 11.1109C19.1206 10.3417 18.1406 9.81787 17.0737 9.60565C16.0068 9.39343 14.9009 9.50235 13.8959 9.91863C12.8909 10.3349 12.0319 11.0399 11.4276 11.9443C10.8233 12.8488 10.5007 13.9122 10.5007 15C10.5007 16.4587 11.0801 17.8576 12.1116 18.8891C13.143 19.9205 14.542 20.5 16.0007 20.5Z" fill="#49536E"/>
</svg>
