<svg width="32" height="32" viewBox="0 0 32 32" fill="none" xmlns="http://www.w3.org/2000/svg">
<path d="M32.0007 17.0001C32.0007 17.2653 31.8953 17.5197 31.7078 17.7072C31.5202 17.8948 31.2659 18.0001 31.0007 18.0001H29.0007V20.0001C29.0007 20.2653 28.8953 20.5197 28.7078 20.7072C28.5202 20.8948 28.2659 21.0001 28.0007 21.0001C27.7355 21.0001 27.4811 20.8948 27.2936 20.7072C27.106 20.5197 27.0007 20.2653 27.0007 20.0001V18.0001H25.0007C24.7355 18.0001 24.4811 17.8948 24.2936 17.7072C24.106 17.5197 24.0007 17.2653 24.0007 17.0001C24.0007 16.7349 24.106 16.4805 24.2936 16.293C24.4811 16.1055 24.7355 16.0001 25.0007 16.0001H27.0007V14.0001C27.0007 13.7349 27.106 13.4805 27.2936 13.293C27.4811 13.1055 27.7355 13.0001 28.0007 13.0001C28.2659 13.0001 28.5202 13.1055 28.7078 13.293C28.8953 13.4805 29.0007 13.7349 29.0007 14.0001V16.0001H31.0007C31.2659 16.0001 31.5202 16.1055 31.7078 16.293C31.8953 16.4805 32.0007 16.7349 32.0007 17.0001ZM18.0132 19.7001C19.5766 18.7207 20.779 17.2591 21.4387 15.5362C22.0984 13.8132 22.1796 11.9224 21.6701 10.1493C21.1605 8.3761 20.0879 6.81686 18.6142 5.70697C17.1404 4.59709 15.3456 3.99683 13.5007 3.99683C11.6557 3.99683 9.86091 4.59709 8.38717 5.70697C6.91343 6.81686 5.84082 8.3761 5.33128 10.1493C4.82174 11.9224 4.90295 13.8132 5.56264 15.5362C6.22234 17.2591 7.4247 18.7207 8.98817 19.7001C6.26211 20.5489 3.83976 22.1682 2.01317 24.3626C1.88902 24.5069 1.80984 24.6845 1.78541 24.8733C1.76097 25.0621 1.79235 25.2539 1.87567 25.4251C1.95477 25.5972 2.08166 25.7428 2.24123 25.8448C2.4008 25.9467 2.58632 26.0006 2.77567 26.0001H24.2257C24.415 26.0006 24.6005 25.9467 24.7601 25.8448C24.9197 25.7428 25.0466 25.5972 25.1257 25.4251C25.209 25.2539 25.2404 25.0621 25.2159 24.8733C25.1915 24.6845 25.1123 24.5069 24.9882 24.3626C23.1616 22.1682 20.7392 20.5489 18.0132 19.7001V19.7001Z" fill="#49536E"/>
</svg>
