<svg width="32" height="32" viewBox="0 0 32 32" fill="none" xmlns="http://www.w3.org/2000/svg">
<path d="M17.9997 10.0001C17.9997 9.7349 18.105 9.48054 18.2926 9.293C18.4801 9.10547 18.7345 9.00011 18.9997 9.00011H30.9997C31.2649 9.00011 31.5193 9.10547 31.7068 9.293C31.8943 9.48054 31.9997 9.7349 31.9997 10.0001C31.9997 10.2653 31.8943 10.5197 31.7068 10.7072C31.5193 10.8948 31.2649 11.0001 30.9997 11.0001H18.9997C18.7345 11.0001 18.4801 10.8948 18.2926 10.7072C18.105 10.5197 17.9997 10.2653 17.9997 10.0001ZM30.9997 15.0001H18.9997C18.7345 15.0001 18.4801 15.1055 18.2926 15.293C18.105 15.4805 17.9997 15.7349 17.9997 16.0001C17.9997 16.2653 18.105 16.5197 18.2926 16.7072C18.4801 16.8948 18.7345 17.0001 18.9997 17.0001H30.9997C31.2649 17.0001 31.5193 16.8948 31.7068 16.7072C31.8943 16.5197 31.9997 16.2653 31.9997 16.0001C31.9997 15.7349 31.8943 15.4805 31.7068 15.293C31.5193 15.1055 31.2649 15.0001 30.9997 15.0001ZM30.9997 21.0001H21.9997C21.7345 21.0001 21.4801 21.1055 21.2926 21.293C21.105 21.4805 20.9997 21.7349 20.9997 22.0001C20.9997 22.2653 21.105 22.5197 21.2926 22.7072C21.4801 22.8948 21.7345 23.0001 21.9997 23.0001H30.9997C31.2649 23.0001 31.5193 22.8948 31.7068 22.7072C31.8943 22.5197 31.9997 22.2653 31.9997 22.0001C31.9997 21.7349 31.8943 21.4805 31.7068 21.293C31.5193 21.1055 31.2649 21.0001 30.9997 21.0001ZM13.6372 17.7626C14.6355 17.0016 15.3699 15.9466 15.7372 14.7463C16.1044 13.5459 16.0859 12.2606 15.6843 11.0713C15.2827 9.88201 14.5182 8.84863 13.4984 8.11665C12.4786 7.38467 11.255 6.99097 9.99969 6.99097C8.74441 6.99097 7.52074 7.38467 6.50097 8.11665C5.4812 8.84863 4.71668 9.88201 4.31507 11.0713C3.91345 12.2606 3.89496 13.5459 4.26219 14.7463C4.62943 15.9466 5.3639 17.0016 6.36219 17.7626C5.11901 18.3126 4.01655 19.137 3.13759 20.174C2.25863 21.211 1.626 22.4336 1.28719 23.7501C1.24958 23.8978 1.24578 24.052 1.27608 24.2014C1.30638 24.3507 1.37 24.4913 1.46219 24.6126C1.55403 24.7343 1.67311 24.8327 1.80987 24.9C1.94664 24.9673 2.09727 25.0016 2.24969 25.0001H17.7497C17.9021 25.0016 18.0527 24.9673 18.1895 24.9C18.3263 24.8327 18.4454 24.7343 18.5372 24.6126C18.6294 24.4913 18.693 24.3507 18.7233 24.2014C18.7536 24.052 18.7498 23.8978 18.7122 23.7501C18.3734 22.4336 17.7407 21.211 16.8618 20.174C15.9828 19.137 14.8804 18.3126 13.6372 17.7626V17.7626Z" fill="#49536E"/>
</svg>
