<svg width="32" height="32" viewBox="0 0 32 32" fill="none" xmlns="http://www.w3.org/2000/svg">
<path d="M24.9882 24.3626C25.1123 24.5069 25.1915 24.6845 25.2159 24.8733C25.2404 25.0621 25.209 25.2539 25.1257 25.4251C25.0466 25.5972 24.9197 25.7428 24.7601 25.8448C24.6005 25.9467 24.415 26.0006 24.2257 26.0001H2.77567C2.58632 26.0006 2.4008 25.9467 2.24123 25.8448C2.08166 25.7428 1.95477 25.5972 1.87567 25.4251C1.79235 25.2539 1.76097 25.0621 1.78541 24.8733C1.80984 24.6845 1.88902 24.5069 2.01317 24.3626C3.83976 22.1682 6.26211 20.5489 8.98817 19.7001C7.4247 18.7207 6.22234 17.2591 5.56264 15.5362C4.90295 13.8132 4.82174 11.9224 5.33128 10.1493C5.84082 8.3761 6.91343 6.81686 8.38717 5.70697C9.86091 4.59709 11.6557 3.99683 13.5007 3.99683C15.3456 3.99683 17.1404 4.59709 18.6142 5.70697C20.0879 6.81686 21.1605 8.3761 21.6701 10.1493C22.1796 11.9224 22.0984 13.8132 21.4387 15.5362C20.779 17.2591 19.5766 18.7207 18.0132 19.7001C20.7392 20.5489 23.1616 22.1682 24.9882 24.3626V24.3626ZM31.4007 19.2501C31.3121 19.4035 31.1845 19.5305 31.0308 19.6184C30.877 19.7062 30.7027 19.7517 30.5257 19.7501C30.3495 19.7515 30.1764 19.7039 30.0257 19.6126L29.4507 19.2751C29.1705 19.5153 28.8485 19.7018 28.5007 19.8251V20.5001C28.5007 20.7653 28.3953 21.0197 28.2078 21.2072C28.0202 21.3948 27.7659 21.5001 27.5007 21.5001C27.2355 21.5001 26.9811 21.3948 26.7936 21.2072C26.606 21.0197 26.5007 20.7653 26.5007 20.5001V19.8251C26.1529 19.7018 25.8308 19.5153 25.5507 19.2751L24.9757 19.6126C24.825 19.7039 24.6519 19.7515 24.4757 19.7501C24.2567 19.7488 24.0441 19.6756 23.8707 19.5418C23.6973 19.408 23.5727 19.2209 23.5159 19.0094C23.4591 18.7979 23.4733 18.5736 23.5564 18.3709C23.6395 18.1682 23.7868 17.9984 23.9757 17.8876L24.5507 17.5501C24.484 17.1865 24.484 16.8138 24.5507 16.4501L23.9757 16.1126C23.8604 16.0489 23.7591 15.9628 23.6776 15.8594C23.5961 15.756 23.5361 15.6373 23.5012 15.5103C23.4663 15.3834 23.4571 15.2507 23.4741 15.1202C23.4912 14.9896 23.5342 14.8638 23.6007 14.7501C23.7362 14.5211 23.9565 14.3547 24.2138 14.2869C24.4711 14.219 24.7448 14.2552 24.9757 14.3876L25.5507 14.7251C25.8308 14.4849 26.1529 14.2985 26.5007 14.1751V13.5001C26.5007 13.2349 26.606 12.9805 26.7936 12.793C26.9811 12.6055 27.2355 12.5001 27.5007 12.5001C27.7659 12.5001 28.0202 12.6055 28.2078 12.793C28.3953 12.9805 28.5007 13.2349 28.5007 13.5001V14.1751C28.8485 14.2985 29.1705 14.4849 29.4507 14.7251L30.0257 14.3876C30.2565 14.2552 30.5302 14.219 30.7875 14.2869C31.0448 14.3547 31.2651 14.5211 31.4007 14.7501C31.4671 14.8638 31.5101 14.9896 31.5272 15.1202C31.5443 15.2507 31.5351 15.3834 31.5001 15.5103C31.4652 15.6373 31.4052 15.756 31.3237 15.8594C31.2423 15.9628 31.1409 16.0489 31.0257 16.1126L30.4507 16.4501C30.5173 16.8138 30.5173 17.1865 30.4507 17.5501L31.0257 17.8876C31.1409 17.9513 31.2423 18.0374 31.3237 18.1408C31.4052 18.2442 31.4652 18.3629 31.5001 18.4899C31.5351 18.6168 31.5443 18.7495 31.5272 18.88C31.5101 19.0106 31.4671 19.1364 31.4007 19.2501V19.2501ZM27.5007 18.0001C27.6985 18.0001 27.8918 17.9415 28.0562 17.8316C28.2207 17.7217 28.3489 17.5655 28.4246 17.3828C28.5002 17.2001 28.52 16.999 28.4815 16.805C28.4429 16.611 28.3476 16.4329 28.2078 16.293C28.0679 16.1532 27.8897 16.0579 27.6958 16.0193C27.5018 15.9807 27.3007 16.0005 27.118 16.0762C26.9353 16.1519 26.7791 16.2801 26.6692 16.4445C26.5593 16.609 26.5007 16.8023 26.5007 17.0001C26.5007 17.2653 26.606 17.5197 26.7936 17.7072C26.9811 17.8948 27.2355 18.0001 27.5007 18.0001Z" fill="#49536E"/>
</svg>
