<svg width="32" height="32" viewBox="0 0 32 32" fill="none" xmlns="http://www.w3.org/2000/svg">
<path d="M28.7375 28.3251C28.8277 28.4211 28.8977 28.5343 28.9435 28.6578C28.9892 28.7814 29.0098 28.9129 29.004 29.0445C28.9981 29.1761 28.966 29.3052 28.9095 29.4243C28.853 29.5433 28.7733 29.6498 28.675 29.7376C28.4894 29.9043 28.2494 29.9976 28 30.0001C27.8613 30 27.724 29.9711 27.5971 29.9151C27.4701 29.8592 27.3562 29.7774 27.2625 29.6751L21.9625 23.8501C21.8828 24.3125 21.6421 24.7318 21.2829 25.0338C20.9237 25.3358 20.4693 25.501 20 25.5001H3C2.46957 25.5001 1.96086 25.2893 1.58579 24.9143C1.21071 24.5392 1 24.0305 1 23.5001V8.50006C1 7.96962 1.21071 7.46091 1.58579 7.08584C1.96086 6.71077 2.46957 6.50006 3 6.50006H6.2L3.625 3.67506C3.44604 3.47943 3.35209 3.22074 3.36381 2.95587C3.37553 2.69099 3.49196 2.44161 3.6875 2.26256C3.78357 2.17239 3.89672 2.10236 4.02028 2.0566C4.14383 2.01083 4.27529 1.99026 4.40692 1.99608C4.53855 2.00191 4.66769 2.03401 4.78672 2.09051C4.90574 2.14701 5.01226 2.22676 5.1 2.32506L28.7375 28.3251ZM30.6875 9.27505C30.5318 9.12547 30.3314 9.03104 30.1169 9.0062C29.9025 8.98137 29.6858 9.02751 29.5 9.13756L24.5 11.9876C24.3467 12.0761 24.2196 12.2037 24.1317 12.3575C24.0439 12.5112 23.9984 12.6855 24 12.8626V19.1376C23.9984 19.3146 24.0439 19.4889 24.1317 19.6426C24.2196 19.7964 24.3467 19.924 24.5 20.0126L29.5 22.8626C29.6523 22.95 29.8244 22.9973 30 23.0001C30.1358 23.0006 30.2703 22.9732 30.3951 22.9194C30.5198 22.8656 30.6321 22.7867 30.725 22.6876C30.9073 22.4958 31.0062 22.2396 31 21.9751V10.0251C31.0033 9.88513 30.9772 9.74608 30.9234 9.61689C30.8695 9.48769 30.7892 9.37124 30.6875 9.27505V9.27505ZM20.2625 16.0251C20.4143 16.1915 20.6179 16.3018 20.8402 16.3381C21.0626 16.3744 21.2906 16.3346 21.4875 16.2251C21.647 16.133 21.7788 15.9997 21.869 15.8391C21.9592 15.6786 22.0044 15.4967 22 15.3126V8.50006C22 7.96962 21.7893 7.46091 21.4142 7.08584C21.0391 6.71077 20.5304 6.50006 20 6.50006H13.8875C13.7299 6.49939 13.574 6.53382 13.4313 6.60085C13.2886 6.66787 13.1627 6.76581 13.0625 6.88756C12.9194 7.07506 12.8472 7.30712 12.8586 7.54272C12.8701 7.77832 12.9644 8.00229 13.125 8.17506L20.2625 16.0251Z" fill="#49536E"/>
</svg>
