<svg width="32" height="32" viewBox="0 0 32 32" fill="none" xmlns="http://www.w3.org/2000/svg">
<path d="M24.9997 9.00003C23.6074 8.99619 22.2457 9.40839 21.0892 10.1838C19.9328 10.9591 19.0343 12.0623 18.5092 13.3518C17.984 14.6413 17.856 16.0582 18.1416 17.421C18.4272 18.7837 19.1135 20.03 20.1122 21H11.8872C13.0434 19.8656 13.7695 18.3648 13.9414 16.7543C14.1133 15.1437 13.7204 13.5234 12.8298 12.1705C11.9392 10.8176 10.6063 9.81615 9.05901 9.33733C7.51169 8.85851 5.84609 8.93211 4.34703 9.54553C2.84797 10.159 1.60858 11.2741 0.840797 12.7003C0.073014 14.1265 -0.175466 15.7751 0.137848 17.3642C0.451162 18.9533 1.30681 20.3842 2.55846 21.4122C3.81012 22.4402 5.38004 23.0015 6.99975 23H24.9997C26.8563 23 28.6367 22.2625 29.9495 20.9498C31.2622 19.637 31.9997 17.8565 31.9997 16C31.9997 14.1435 31.2622 12.363 29.9495 11.0503C28.6367 9.73752 26.8563 9.00003 24.9997 9.00003ZM1.99975 16C1.99975 15.0111 2.29299 14.0444 2.8424 13.2222C3.39181 12.3999 4.1727 11.7591 5.08633 11.3806C5.99996 11.0022 7.00529 10.9032 7.9752 11.0961C8.9451 11.289 9.83602 11.7652 10.5353 12.4645C11.2345 13.1638 11.7107 14.0547 11.9037 15.0246C12.0966 15.9945 11.9976 16.9998 11.6191 17.9134C11.2407 18.8271 10.5998 19.608 9.7776 20.1574C8.95535 20.7068 7.98865 21 6.99975 21C5.67366 21 4.4019 20.4732 3.46421 19.5356C2.52653 18.5979 1.99975 17.3261 1.99975 16V16ZM24.9997 21C24.0108 21 23.0441 20.7068 22.2219 20.1574C21.3997 19.608 20.7588 18.8271 20.3804 17.9134C20.0019 16.9998 19.9029 15.9945 20.0958 15.0246C20.2887 14.0547 20.765 13.1638 21.4642 12.4645C22.1635 11.7652 23.0544 11.289 24.0243 11.0961C24.9942 10.9032 25.9995 11.0022 26.9132 11.3806C27.8268 11.7591 28.6077 12.3999 29.1571 13.2222C29.7065 14.0444 29.9997 15.0111 29.9997 16C29.9997 17.3261 29.473 18.5979 28.5353 19.5356C27.5976 20.4732 26.3258 21 24.9997 21Z" fill="#49536E"/>
</svg>
