<svg width="32" height="32" viewBox="0 0 32 32" fill="none" xmlns="http://www.w3.org/2000/svg">
<path d="M21.9132 7.93752L21.1382 3.63752C21.0532 3.17633 20.8088 2.75968 20.4478 2.46037C20.0868 2.16105 19.6321 1.99811 19.1632 2.00002H12.8382C12.3692 1.99811 11.9145 2.16105 11.5535 2.46037C11.1925 2.75968 10.9481 3.17633 10.8632 3.63752L10.0882 7.93752C8.8222 8.86639 7.79277 10.0803 7.08321 11.481C6.37365 12.8817 6.00391 14.4298 6.00391 16C6.00391 17.5702 6.37365 19.1183 7.08321 20.519C7.79277 21.9197 8.8222 23.1336 10.0882 24.0625L10.8632 28.3625C10.9481 28.8237 11.1925 29.2404 11.5535 29.5397C11.9145 29.839 12.3692 30.0019 12.8382 30H19.1632C19.6321 30.0019 20.0868 29.839 20.4478 29.5397C20.8088 29.2404 21.0532 28.8237 21.1382 28.3625L21.9132 24.0625C23.1791 23.1336 24.2085 21.9197 24.9181 20.519C25.6277 19.1183 25.9974 17.5702 25.9974 16C25.9974 14.4298 25.6277 12.8817 24.9181 11.481C24.2085 10.0803 23.1791 8.86639 21.9132 7.93752ZM12.8382 4.00002H19.1632L19.6507 6.70002C17.3069 5.76632 14.6944 5.76632 12.3507 6.70002L12.8382 4.00002ZM19.1632 28H12.8382L12.3507 25.3C14.6944 26.2337 17.3069 26.2337 19.6507 25.3L19.1632 28ZM21.0007 17H16.0007C15.7354 17 15.4811 16.8947 15.2936 16.7071C15.106 16.5196 15.0007 16.2652 15.0007 16V11C15.0007 10.7348 15.106 10.4804 15.2936 10.2929C15.4811 10.1054 15.7354 10 16.0007 10C16.2659 10 16.5202 10.1054 16.7078 10.2929C16.8953 10.4804 17.0007 10.7348 17.0007 11V15H21.0007C21.2659 15 21.5202 15.1054 21.7078 15.2929C21.8953 15.4804 22.0007 15.7348 22.0007 16C22.0007 16.2652 21.8953 16.5196 21.7078 16.7071C21.5202 16.8947 21.2659 17 21.0007 17Z" fill="#49536E"/>
</svg>
