<svg width="32" height="32" viewBox="0 0 32 32" fill="none" xmlns="http://www.w3.org/2000/svg">
<path d="M16.0003 25C15.8296 25.0017 15.6615 24.9586 15.5128 24.875C15.358 24.7871 15.2291 24.6599 15.1391 24.5063C15.0491 24.3527 15.0012 24.178 15.0003 24V9.7875L3.52527 16.85C3.30035 16.9758 3.03553 17.0099 2.78607 16.9452C2.5366 16.8805 2.32174 16.722 2.18631 16.5027C2.05088 16.2835 2.00534 16.0204 2.05917 15.7683C2.11301 15.5163 2.26207 15.2948 2.47527 15.15L15.4753 7.15C15.6267 7.05659 15.8003 7.00528 15.9782 7.00134C16.156 6.99741 16.3317 7.041 16.4871 7.12762C16.6425 7.21424 16.772 7.34075 16.8622 7.4941C16.9524 7.64745 17.0001 7.82208 17.0003 8V22.2125L28.4753 15.15C28.7002 15.0242 28.965 14.9901 29.2145 15.0548C29.4639 15.1195 29.6788 15.278 29.8142 15.4973C29.9497 15.7165 29.9952 15.9796 29.9414 16.2316C29.8875 16.4837 29.7385 16.7052 29.5253 16.85L16.5253 24.85C16.3678 24.9483 16.1859 25.0003 16.0003 25V25Z" fill="#49536E"/>
</svg>
