<svg width="32" height="32" viewBox="0 0 32 32" fill="none" xmlns="http://www.w3.org/2000/svg">
<path d="M22.4988 26C22.3401 26.0015 22.1835 25.9649 22.0421 25.8931C21.9007 25.8213 21.7786 25.7165 21.6863 25.5875L9.49875 8.7125L3.81125 16.5875C3.7341 16.6942 3.63669 16.7847 3.52458 16.8537C3.41247 16.9228 3.28785 16.9691 3.15785 16.9899C3.02785 17.0108 2.895 17.0059 2.7669 16.9755C2.6388 16.945 2.51795 16.8896 2.41125 16.8125C2.30455 16.7353 2.21409 16.6379 2.14504 16.5258C2.07599 16.4137 2.02969 16.2891 2.0088 16.1591C1.96661 15.8965 2.03044 15.628 2.18625 15.4125L8.68625 6.4125C8.78046 6.28579 8.903 6.18288 9.04408 6.11198C9.18516 6.04108 9.34086 6.00415 9.49875 6.00415C9.65664 6.00415 9.81235 6.04108 9.95342 6.11198C10.0945 6.18288 10.217 6.28579 10.3113 6.4125L22.4988 23.2875L28.1863 15.4125C28.3421 15.197 28.5771 15.0522 28.8397 15.01C29.1022 14.9679 29.3708 15.0317 29.5863 15.1875C29.8017 15.3433 29.9465 15.5783 29.9887 15.8409C30.0309 16.1035 29.9671 16.372 29.8113 16.5875L23.3113 25.5875C23.2189 25.7165 23.0969 25.8213 22.9554 25.8931C22.814 25.9649 22.6574 26.0015 22.4988 26V26Z" fill="#49536E"/>
</svg>
