<svg width="32" height="32" viewBox="0 0 32 32" fill="none" xmlns="http://www.w3.org/2000/svg">
<path d="M4.21203 9.62508C4.0488 9.41754 3.97428 9.15386 4.00472 8.89159C4.03516 8.62931 4.1681 8.38971 4.37453 8.22508C5.46276 7.42358 6.69909 6.84578 8.01203 6.52508C10.0245 6.02508 13.1495 5.90008 16.5495 8.16258C21.8495 11.7001 26.1995 8.36258 26.3745 8.21258C26.5853 8.05174 26.8502 7.97881 27.1135 8.00911C27.3769 8.03941 27.6183 8.17058 27.787 8.37508C27.9503 8.58262 28.0248 8.84629 27.9943 9.10857C27.9639 9.37085 27.831 9.61044 27.6245 9.77508C26.5363 10.5766 25.3 11.1544 23.987 11.4751C23.1816 11.6756 22.3546 11.7764 21.5245 11.7751C19.7745 11.7751 17.6745 11.3126 15.4495 9.83758C10.1495 6.30008 5.79953 9.63758 5.62453 9.78758C5.41377 9.94842 5.1489 10.0214 4.88552 9.99105C4.62214 9.96075 4.38075 9.82958 4.21203 9.62508ZM26.3745 15.2126C26.1995 15.3626 21.8495 18.7001 16.5495 15.1626C13.1495 12.9001 10.0245 13.0251 8.01203 13.5251C6.69909 13.8458 5.46276 14.4236 4.37453 15.2251C4.1681 15.3897 4.03516 15.6293 4.00472 15.8916C3.97428 16.1539 4.0488 16.4175 4.21203 16.6251C4.38075 16.8296 4.62214 16.9608 4.88552 16.9911C5.1489 17.0214 5.41377 16.9484 5.62453 16.7876C5.79953 16.6376 10.1495 13.3001 15.4495 16.8376C17.6745 18.3126 19.7745 18.7751 21.5245 18.7751C22.3546 18.7764 23.1816 18.6756 23.987 18.4751C25.3 18.1544 26.5363 17.5766 27.6245 16.7751C27.831 16.6104 27.9639 16.3709 27.9943 16.1086C28.0248 15.8463 27.9503 15.5826 27.787 15.3751C27.6183 15.1706 27.3769 15.0394 27.1135 15.0091C26.8502 14.9788 26.5853 15.0517 26.3745 15.2126V15.2126ZM26.3745 22.2126C26.1995 22.3626 21.8495 25.7001 16.5495 22.1626C13.1495 19.9001 10.0245 20.0251 8.01203 20.5251C6.69909 20.8458 5.46276 21.4236 4.37453 22.2251C4.1681 22.3897 4.03516 22.6293 4.00472 22.8916C3.97428 23.1539 4.0488 23.4175 4.21203 23.6251C4.38075 23.8296 4.62214 23.9608 4.88552 23.9911C5.1489 24.0214 5.41377 23.9484 5.62453 23.7876C5.79953 23.6376 10.1495 20.3001 15.4495 23.8376C17.6745 25.3126 19.7745 25.7751 21.5245 25.7751C23.7187 25.7735 25.8554 25.073 27.6245 23.7751C27.831 23.6104 27.9639 23.3709 27.9943 23.1086C28.0248 22.8463 27.9503 22.5826 27.787 22.3751C27.6183 22.1706 27.3769 22.0394 27.1135 22.0091C26.8502 21.9788 26.5853 22.0517 26.3745 22.2126Z" fill="#49536E"/>
</svg>
