<svg width="32" height="32" viewBox="0 0 32 32" fill="none" xmlns="http://www.w3.org/2000/svg">
<path d="M30.938 23.1875C30.8969 23.0627 30.8317 22.9473 30.7461 22.8477C30.6604 22.7482 30.556 22.6665 30.4388 22.6073C30.3215 22.5481 30.1938 22.5125 30.0628 22.5027C29.9319 22.4929 29.8002 22.509 29.6755 22.55L27.488 23.275L23.8755 16.05C23.7937 15.8846 23.6672 15.7453 23.5104 15.6481C23.3535 15.5509 23.1725 15.4996 22.988 15.5H12.988V13H19.988C20.2532 13 20.5075 12.8947 20.6951 12.7071C20.8826 12.5196 20.988 12.2652 20.988 12C20.988 11.7348 20.8826 11.4804 20.6951 11.2929C20.5075 11.1054 20.2532 11 19.988 11H12.988V7.82501C13.6552 7.58911 14.2175 7.12494 14.5756 6.51453C14.9337 5.90412 15.0644 5.18677 14.9448 4.48928C14.8251 3.79178 14.4627 3.15905 13.9216 2.7029C13.3806 2.24676 12.6957 1.99658 11.988 1.99658C11.2803 1.99658 10.5954 2.24676 10.0543 2.7029C9.51325 3.15905 9.15085 3.79178 9.03118 4.48928C8.91151 5.18677 9.04227 5.90412 9.40035 6.51453C9.75842 7.12494 10.3208 7.58911 10.988 7.82501V11.225C9.35872 11.5949 7.86457 12.411 6.67283 13.5819C5.48109 14.7528 4.6388 16.2324 4.24027 17.8548C3.84174 19.4773 3.9027 21.1787 4.41633 22.7685C4.92996 24.3584 5.87597 25.7738 7.14846 26.8564C8.42095 27.9391 9.96967 28.6461 11.6212 28.8984C13.2728 29.1508 14.962 28.9384 16.4997 28.2851C18.0374 27.6318 19.3629 26.5634 20.3278 25.1995C21.2927 23.8356 21.8589 22.23 21.963 20.5625C21.9845 20.4251 21.9771 20.2846 21.9413 20.1502C21.9055 20.0158 21.842 19.8903 21.7549 19.7818C21.6679 19.6733 21.5591 19.5842 21.4356 19.5201C21.3121 19.456 21.1766 19.4184 21.0378 19.4097C20.899 19.4009 20.7598 19.4213 20.6293 19.4694C20.4987 19.5175 20.3797 19.5923 20.2797 19.689C20.1797 19.7858 20.101 19.9023 20.0486 20.0312C19.9962 20.1601 19.9713 20.2985 19.9755 20.4375C19.8947 21.7143 19.4655 22.9445 18.7345 23.9945C18.0036 25.0445 16.9989 25.8741 15.8296 26.3932C14.6603 26.9123 13.371 27.101 12.102 26.9388C10.833 26.7766 9.63266 26.2697 8.63148 25.4732C7.6303 24.6767 6.86655 23.6211 6.4232 22.421C5.97986 21.2209 5.87389 19.9223 6.11679 18.6662C6.35969 17.4101 6.94219 16.2446 7.80099 15.2964C8.65978 14.3481 9.76203 13.6533 10.988 13.2875V16.5C10.988 16.7652 11.0933 17.0196 11.2809 17.2071C11.4684 17.3947 11.7228 17.5 11.988 17.5H22.363L26.088 24.95C26.1718 25.1164 26.3005 25.2561 26.4596 25.3533C26.6186 25.4505 26.8016 25.5013 26.988 25.5C27.0943 25.5017 27.2 25.4848 27.3005 25.45L30.3005 24.45C30.4252 24.409 30.5407 24.3438 30.6403 24.2581C30.7398 24.1725 30.8215 24.068 30.8807 23.9508C30.9399 23.8336 30.9755 23.7058 30.9853 23.5749C30.9951 23.4439 30.979 23.3123 30.938 23.1875V23.1875Z" fill="#49536E"/>
</svg>
