<svg width="32" height="32" viewBox="0 0 32 32" fill="none" xmlns="http://www.w3.org/2000/svg">
<path d="M28.6751 12.2624C28.8596 12.442 28.9697 12.6844 28.9836 12.9415C28.9975 13.1985 28.9141 13.4514 28.7501 13.6499C28.6584 13.7596 28.5437 13.8479 28.4141 13.9084C28.2845 13.9689 28.1431 14.0001 28.0001 13.9999C27.7346 13.9987 27.4796 13.8958 27.2876 13.7124L25.0001 11.4124L22.7126 13.7124C22.5193 13.8937 22.2652 13.9963 22.0001 13.9999C21.8552 14.0002 21.712 13.9691 21.5804 13.9087C21.4487 13.8483 21.3318 13.7599 21.2376 13.6499C21.0763 13.4503 20.9947 13.198 21.0085 12.9417C21.0224 12.6854 21.1307 12.4434 21.3126 12.2624L23.5876 9.99986L21.3251 7.73736C21.1362 7.55122 21.0258 7.29982 21.0165 7.03481C21.0072 6.7698 21.0998 6.51128 21.2751 6.31236C21.3676 6.21584 21.4782 6.13859 21.6007 6.08505C21.7232 6.03151 21.855 6.00275 21.9887 6.00043C22.1223 5.9981 22.2551 6.02226 22.3793 6.07151C22.5036 6.12075 22.6168 6.19411 22.7126 6.28736L25.0001 8.58736L27.2876 6.28736C27.3834 6.19411 27.4966 6.12075 27.6209 6.07151C27.7452 6.02226 27.8779 5.9981 28.0116 6.00043C28.1452 6.00275 28.2771 6.03151 28.3995 6.08505C28.522 6.13859 28.6326 6.21584 28.7251 6.31236C28.9005 6.51128 28.993 6.7698 28.9837 7.03481C28.9744 7.29982 28.864 7.55122 28.6751 7.73736L26.4126 9.99986L28.6751 12.2624ZM25.3501 14.5999C25.3047 14.553 25.2503 14.5157 25.1901 14.4903C25.13 14.4648 25.0654 14.4517 25.0001 14.4517C24.9348 14.4517 24.8702 14.4648 24.8101 14.4903C24.75 14.5157 24.6956 14.553 24.6501 14.5999L24.1626 15.0749C23.8866 15.3635 23.5557 15.5941 23.1894 15.7532C22.8231 15.9123 22.4287 15.9966 22.0294 16.0013C21.63 16.006 21.2338 15.9308 20.8639 15.7803C20.4939 15.6298 20.1578 15.407 19.8751 15.1249C19.3163 14.5587 19.003 13.7953 19.003 12.9999C19.003 12.2044 19.3163 11.441 19.8751 10.8749L20.7626 9.99986L19.9251 9.17486C18.8001 8.04986 18.6876 6.22486 19.7376 5.02486C19.7803 4.97595 19.8262 4.93001 19.8751 4.88736C19.9184 4.84055 19.9486 4.78315 19.9626 4.72095C19.9766 4.65876 19.974 4.59396 19.955 4.5331C19.936 4.47225 19.9012 4.41748 19.8543 4.37434C19.8073 4.33119 19.7498 4.30119 19.6876 4.28736C16.5823 3.79304 13.4092 3.92898 10.3576 4.68706C7.30592 5.44514 4.43812 6.80986 1.92511 8.69986C1.7087 8.86099 1.52808 9.06528 1.39468 9.29981C1.26128 9.53433 1.178 9.79399 1.15011 10.0624C1.12121 10.3365 1.14722 10.6137 1.22663 10.8777C1.30604 11.1416 1.43725 11.3872 1.61261 11.5999L14.4876 26.7624C14.6742 26.9812 14.9061 27.157 15.1672 27.2775C15.4283 27.3981 15.7125 27.4605 16.0001 27.4605C16.2877 27.4605 16.5719 27.3981 16.833 27.2775C17.0942 27.157 17.326 26.9812 17.5126 26.7624L26.4501 16.2374C26.495 16.1831 26.5279 16.1199 26.5466 16.052C26.5654 15.9841 26.5696 15.913 26.559 15.8434C26.5484 15.7738 26.5232 15.7072 26.485 15.648C26.4469 15.5888 26.3966 15.5383 26.3376 15.4999C26.1727 15.3888 26.0179 15.2633 25.8751 15.1249L25.3501 14.5999Z" fill="#49536E"/>
</svg>
