<svg width="32" height="32" viewBox="0 0 32 32" fill="none" xmlns="http://www.w3.org/2000/svg">
<path d="M30.8626 10.0624C30.8347 9.79404 30.7514 9.53438 30.618 9.29985C30.4846 9.06533 30.304 8.86104 30.0876 8.6999C21.7876 2.4374 10.2126 2.4374 1.92511 8.6874C1.70994 8.85254 1.53037 9.05947 1.39719 9.29576C1.26401 9.53204 1.17996 9.79282 1.15011 10.0624C1.12121 10.3366 1.14722 10.6137 1.22663 10.8777C1.30604 11.1417 1.43725 11.3872 1.61261 11.5999L14.4876 26.7624C14.6742 26.9813 14.9061 27.157 15.1672 27.2776C15.4283 27.3981 15.7125 27.4605 16.0001 27.4605C16.2877 27.4605 16.5719 27.3981 16.833 27.2776C17.0942 27.157 17.326 26.9813 17.5126 26.7624L30.3876 11.5874C30.5648 11.3779 30.6982 11.135 30.7797 10.8731C30.8613 10.6111 30.8895 10.3354 30.8626 10.0624V10.0624Z" fill="#49536E"/>
</svg>
