<svg width="32" height="32" viewBox="0 0 32 32" fill="none" xmlns="http://www.w3.org/2000/svg">
<path d="M16.0011 27.4625C15.7135 27.4614 15.4295 27.3984 15.1685 27.2776C14.9075 27.1568 14.6756 26.9811 14.4886 26.7625L1.61361 11.5875C1.43482 11.3794 1.30136 11.1363 1.22173 10.8737C1.1421 10.6112 1.11805 10.3349 1.15111 10.0625C1.18235 9.79329 1.26699 9.53301 1.40006 9.29691C1.53314 9.06081 1.71198 8.85363 1.92611 8.6875C10.2136 2.4375 21.7886 2.4375 30.0761 8.6875C30.2903 8.85363 30.4691 9.06081 30.6022 9.29691C30.7352 9.53301 30.8199 9.79329 30.8511 10.0625C30.8827 10.3348 30.8579 10.6107 30.7783 10.8731C30.6988 11.1354 30.5661 11.3786 30.3886 11.5875L17.5136 26.7625C17.3267 26.9811 17.0948 27.1568 16.8338 27.2776C16.5727 27.3984 16.2887 27.4614 16.0011 27.4625V27.4625ZM3.13861 10.2875L16.0011 25.45L28.8636 10.3V10.275C21.3011 4.575 10.7136 4.575 3.13861 10.2875Z" fill="#49536E"/>
</svg>
