<svg width="32" height="32" viewBox="0 0 32 32" fill="none" xmlns="http://www.w3.org/2000/svg">
<path d="M6.73846 4.32499C6.64981 4.22732 6.5428 4.14807 6.42353 4.09175C6.30426 4.03544 6.17506 4.00317 6.04332 3.99678C5.77725 3.98389 5.51696 4.07722 5.31971 4.25624C5.22204 4.34488 5.14278 4.4519 5.08647 4.57117C5.03015 4.69044 4.99788 4.81963 4.9915 4.95138C4.97861 5.21745 5.07194 5.47774 5.25096 5.67499L5.83846 6.31249C4.45324 6.97445 3.13826 7.77432 1.91346 8.69999C1.69704 8.86112 1.51643 9.06541 1.38303 9.29994C1.24963 9.53447 1.16635 9.79413 1.13846 10.0625C1.1091 10.3376 1.13607 10.6158 1.21774 10.8801C1.2994 11.1445 1.43405 11.3894 1.61346 11.6L14.476 26.75C14.6616 26.9718 14.8934 27.1504 15.1553 27.2733C15.4171 27.3962 15.7026 27.4606 15.9918 27.4617C16.281 27.4629 16.5671 27.401 16.8299 27.2802C17.0927 27.1594 17.326 26.9827 17.5135 26.7625L20.851 22.825L25.2635 27.675C25.358 27.7762 25.4722 27.8572 25.5989 27.913C25.7257 27.9689 25.8624 27.9985 26.001 28C26.2513 28.0024 26.493 27.9084 26.676 27.7375C26.7736 27.6497 26.8531 27.5435 26.9097 27.425C26.9664 27.3065 26.9991 27.1779 27.0061 27.0468C27.013 26.9156 26.9941 26.7844 26.9503 26.6605C26.9065 26.5367 26.8388 26.4227 26.751 26.325L6.73846 4.32499Z" fill="#49536E"/>
<path d="M30.8624 10.0625C30.8345 9.7941 30.7512 9.53445 30.6178 9.29992C30.4844 9.06539 30.3038 8.8611 30.0874 8.69997C27.4702 6.73582 24.4717 5.3399 21.2838 4.60159C18.096 3.86328 14.7891 3.79887 11.5749 4.41247C11.4005 4.44994 11.2387 4.53174 11.1051 4.64998C10.9716 4.76822 10.8707 4.9189 10.8124 5.08747C10.7595 5.25641 10.7513 5.43616 10.7886 5.60921C10.8258 5.78227 10.9072 5.94273 11.0249 6.07497L22.6999 18.9125C22.7949 19.0131 22.9091 19.0937 23.0358 19.1495C23.1625 19.2053 23.299 19.2352 23.4374 19.2375H23.4624C23.6026 19.232 23.7403 19.1982 23.867 19.1381C23.9938 19.0779 24.107 18.9926 24.1999 18.8875L30.3999 11.5875C30.5749 11.377 30.706 11.1337 30.7854 10.8718C30.8648 10.6098 30.891 10.3347 30.8624 10.0625Z" fill="#49536E"/>
</svg>
