<svg width="32" height="32" viewBox="0 0 32 32" fill="none" xmlns="http://www.w3.org/2000/svg">
<path d="M30.0751 8.6999C21.7876 2.4374 10.2126 2.4374 1.92511 8.6874C1.70994 8.85254 1.53037 9.05947 1.39719 9.29576C1.26401 9.53204 1.17996 9.79282 1.15011 10.0624C1.12121 10.3366 1.14722 10.6137 1.22663 10.8777C1.30604 11.1417 1.43725 11.3872 1.61261 11.5999L14.4751 26.7499C14.6628 26.9717 14.8963 27.1503 15.1595 27.2732C15.4228 27.3962 15.7096 27.4608 16.0001 27.4624V27.4624C16.2877 27.4613 16.5717 27.3983 16.8327 27.2775C17.0938 27.1567 17.3257 26.981 17.5126 26.7624L30.3876 11.5874C30.5651 11.3785 30.6977 11.1353 30.7773 10.873C30.8569 10.6106 30.8816 10.3347 30.8501 10.0624C30.8222 9.79404 30.7389 9.53438 30.6055 9.29985C30.4721 9.06533 30.2915 8.86104 30.0751 8.6999V8.6999ZM25.5626 14.1874C24.8896 13.6878 24.1791 13.2407 23.4376 12.8499L23.3376 12.7999C22.6222 12.4249 21.8782 12.1072 21.1126 11.8499L20.9251 11.7999C20.1755 11.5453 19.4063 11.353 18.6251 11.2249L18.4251 11.1999C16.8194 10.9332 15.1808 10.9332 13.5751 11.1999L13.3751 11.2249C12.5955 11.3548 11.8267 11.5428 11.0751 11.7874L10.8876 11.8499C10.1229 12.1095 9.37903 12.4271 8.66261 12.7999L8.56261 12.8499C7.82344 13.2379 7.11695 13.6852 6.45011 14.1874V14.1874L3.13761 10.2874C10.7126 4.5749 21.3001 4.5749 28.8626 10.2999L25.5626 14.1874Z" fill="#49536E"/>
</svg>
