<svg width="32" height="32" viewBox="0 0 32 32" fill="none" xmlns="http://www.w3.org/2000/svg">
<path d="M26.3628 18.3624C25.0765 19.6379 23.438 20.4992 21.6581 20.8356C19.8782 21.172 18.0383 20.968 16.3753 20.2499L9.87529 27.7749C9.86279 27.7999 9.83779 27.8124 9.82529 27.8249C9.45482 28.1968 9.01456 28.4919 8.52978 28.6932C8.04499 28.8946 7.52522 28.9982 7.00029 28.9982C6.47535 28.9982 5.95558 28.8946 5.4708 28.6932C4.98602 28.4919 4.54576 28.1968 4.17529 27.8249C3.80339 27.4544 3.5083 27.0142 3.30695 26.5294C3.1056 26.0446 3.00195 25.5248 3.00195 24.9999C3.00195 24.475 3.1056 23.9552 3.30695 23.4704C3.5083 22.9856 3.80339 22.5454 4.17529 22.1749L4.22529 22.1249L11.7503 15.6249C11.0255 13.9737 10.8134 12.1429 11.1415 10.3698C11.4696 8.59663 12.3227 6.96293 13.5904 5.68045C14.8581 4.39798 16.4817 3.52587 18.2509 3.17719C20.0202 2.8285 21.8533 3.01932 23.5128 3.7249C23.6629 3.78795 23.7951 3.88713 23.8976 4.01363C24.0001 4.14012 24.0697 4.28999 24.1003 4.4499C24.1318 4.61096 24.1232 4.77731 24.0753 4.93427C24.0273 5.09123 23.9415 5.23397 23.8253 5.3499L18.9628 10.2124L19.4253 12.5749L21.7878 13.0374L26.6503 8.1749C26.7662 8.05873 26.909 7.97287 27.0659 7.92491C27.2229 7.87695 27.3892 7.86836 27.5503 7.8999C27.7102 7.93047 27.8601 8.00011 27.9866 8.10261C28.1131 8.20511 28.2122 8.3373 28.2753 8.4874C28.9809 10.1358 29.1759 11.9581 28.8349 13.7185C28.494 15.4789 27.6328 17.0966 26.3628 18.3624Z" fill="#49536E"/>
</svg>
